<?xml version="1.0" encoding="utf-8" standalone="no"?>
<!DOCTYPE svg PUBLIC "-//W3C//DTD SVG 1.1//EN"
  "http://www.w3.org/Graphics/SVG/1.1/DTD/svg11.dtd">
<svg xmlns:xlink="http://www.w3.org/1999/xlink" width="374.586009pt" height="265.600613pt" viewBox="0 0 374.586009 265.600613" xmlns="http://www.w3.org/2000/svg" version="1.1">
 <metadata>
  <rdf:RDF xmlns:dc="http://purl.org/dc/elements/1.1/" xmlns:cc="http://creativecommons.org/ns#" xmlns:rdf="http://www.w3.org/1999/02/22-rdf-syntax-ns#">
   <cc:Work>
    <dc:type rdf:resource="http://purl.org/dc/dcmitype/StillImage"/>
    <dc:date>2025-08-02T14:04:31.727187</dc:date>
    <dc:format>image/svg+xml</dc:format>
    <dc:creator>
     <cc:Agent>
      <dc:title>Matplotlib v3.10.3, https://matplotlib.org/</dc:title>
     </cc:Agent>
    </dc:creator>
   </cc:Work>
  </rdf:RDF>
 </metadata>
 <defs>
  <style type="text/css">*{stroke-linejoin: round; stroke-linecap: butt}</style>
 </defs>
 <g id="figure_1">
  <g id="patch_1">
   <path d="M 0 265.600613 
L 374.586009 265.600613 
L 374.586009 0 
L 0 0 
z
" style="fill: #ffffff"/>
  </g>
  <g id="axes_1">
   <g id="patch_2">
    <path d="M 32.586009 228.96 
L 367.386009 228.96 
L 367.386009 7.2 
L 32.586009 7.2 
z
" style="fill: #ffffff"/>
   </g>
   <g id="matplotlib.axis_1">
    <g id="xtick_1">
     <g id="line2d_1">
      <defs>
       <path id="m0b01267721" d="M 0 0 
L 0 3.5 
" style="stroke: #000000; stroke-width: 0.8"/>
      </defs>
      <g>
       <use xlink:href="#m0b01267721" x="47.804191" y="228.96" style="stroke: #000000; stroke-width: 0.8"/>
      </g>
     </g>
     <g id="text_1">
      <!-- $\mathdefault{0}$ -->
      <g transform="translate(45.313523 243.05832) scale(0.1 -0.1)">
       <defs>
        <path id="CMR17-30" d="M 2688 2038 
C 2688 2430 2682 3099 2413 3613 
C 2176 4063 1798 4224 1466 4224 
C 1158 4224 768 4082 525 3620 
C 269 3137 243 2539 243 2038 
C 243 1671 250 1112 448 623 
C 723 -39 1216 -128 1466 -128 
C 1760 -128 2208 -7 2470 604 
C 2662 1048 2688 1568 2688 2038 
z
M 1466 -26 
C 1056 -26 813 328 723 816 
C 653 1196 653 1749 653 2109 
C 653 2604 653 3015 736 3407 
C 858 3954 1216 4121 1466 4121 
C 1728 4121 2067 3947 2189 3420 
C 2272 3054 2278 2623 2278 2109 
C 2278 1691 2278 1176 2202 797 
C 2067 96 1690 -26 1466 -26 
z
" transform="scale(0.015625)"/>
       </defs>
       <use xlink:href="#CMR17-30" transform="scale(0.996264)"/>
      </g>
     </g>
    </g>
    <g id="xtick_2">
     <g id="line2d_2">
      <g>
       <use xlink:href="#m0b01267721" x="106.903926" y="228.96" style="stroke: #000000; stroke-width: 0.8"/>
      </g>
     </g>
     <g id="text_2">
      <!-- $\mathdefault{500}$ -->
      <g transform="translate(99.431923 243.05832) scale(0.1 -0.1)">
       <defs>
        <path id="CMR17-35" d="M 730 3750 
C 794 3724 1056 3641 1325 3641 
C 1920 3641 2246 3961 2432 4140 
C 2432 4191 2432 4224 2394 4224 
C 2387 4224 2374 4224 2323 4198 
C 2099 4102 1837 4032 1517 4032 
C 1325 4032 1037 4055 723 4191 
C 653 4224 640 4224 634 4224 
C 602 4224 595 4217 595 4090 
L 595 2231 
C 595 2113 595 2080 659 2080 
C 691 2080 704 2093 736 2139 
C 941 2435 1222 2560 1542 2560 
C 1766 2560 2246 2415 2246 1293 
C 2246 1087 2246 716 2054 422 
C 1894 159 1645 25 1370 25 
C 947 25 518 319 403 812 
C 429 806 480 793 506 793 
C 589 793 749 838 749 1036 
C 749 1209 627 1280 506 1280 
C 358 1280 262 1190 262 1011 
C 262 454 704 -128 1382 -128 
C 2042 -128 2669 441 2669 1267 
C 2669 2054 2170 2662 1549 2662 
C 1222 2662 947 2540 730 2304 
L 730 3750 
z
" transform="scale(0.015625)"/>
       </defs>
       <use xlink:href="#CMR17-35" transform="scale(0.996264)"/>
       <use xlink:href="#CMR17-30" transform="translate(45.690477 0) scale(0.996264)"/>
       <use xlink:href="#CMR17-30" transform="translate(91.380954 0) scale(0.996264)"/>
      </g>
     </g>
    </g>
    <g id="xtick_3">
     <g id="line2d_3">
      <g>
       <use xlink:href="#m0b01267721" x="166.003661" y="228.96" style="stroke: #000000; stroke-width: 0.8"/>
      </g>
     </g>
     <g id="text_3">
      <!-- $\mathdefault{1000}$ -->
      <g transform="translate(156.040991 243.05832) scale(0.1 -0.1)">
       <defs>
        <path id="CMR17-31" d="M 1702 4083 
C 1702 4217 1696 4224 1606 4224 
C 1357 3927 979 3833 621 3820 
C 602 3820 570 3820 563 3808 
C 557 3795 557 3782 557 3648 
C 755 3648 1088 3686 1344 3839 
L 1344 467 
C 1344 243 1331 166 781 166 
L 589 166 
L 589 0 
C 896 6 1216 12 1523 12 
C 1830 12 2150 6 2458 0 
L 2458 166 
L 2266 166 
C 1715 166 1702 236 1702 467 
L 1702 4083 
z
" transform="scale(0.015625)"/>
       </defs>
       <use xlink:href="#CMR17-31" transform="scale(0.996264)"/>
       <use xlink:href="#CMR17-30" transform="translate(45.690477 0) scale(0.996264)"/>
       <use xlink:href="#CMR17-30" transform="translate(91.380954 0) scale(0.996264)"/>
       <use xlink:href="#CMR17-30" transform="translate(137.071431 0) scale(0.996264)"/>
      </g>
     </g>
    </g>
    <g id="xtick_4">
     <g id="line2d_4">
      <g>
       <use xlink:href="#m0b01267721" x="225.103397" y="228.96" style="stroke: #000000; stroke-width: 0.8"/>
      </g>
     </g>
     <g id="text_4">
      <!-- $\mathdefault{1500}$ -->
      <g transform="translate(215.140726 243.05832) scale(0.1 -0.1)">
       <use xlink:href="#CMR17-31" transform="scale(0.996264)"/>
       <use xlink:href="#CMR17-35" transform="translate(45.690477 0) scale(0.996264)"/>
       <use xlink:href="#CMR17-30" transform="translate(91.380954 0) scale(0.996264)"/>
       <use xlink:href="#CMR17-30" transform="translate(137.071431 0) scale(0.996264)"/>
      </g>
     </g>
    </g>
    <g id="xtick_5">
     <g id="line2d_5">
      <g>
       <use xlink:href="#m0b01267721" x="284.203132" y="228.96" style="stroke: #000000; stroke-width: 0.8"/>
      </g>
     </g>
     <g id="text_5">
      <!-- $\mathdefault{2000}$ -->
      <g transform="translate(274.240461 243.05832) scale(0.1 -0.1)">
       <defs>
        <path id="CMR17-32" d="M 2669 990 
L 2554 990 
C 2490 537 2438 460 2413 422 
C 2381 371 1920 371 1830 371 
L 602 371 
C 832 620 1280 1073 1824 1596 
C 2214 1966 2669 2400 2669 3033 
C 2669 3788 2067 4224 1395 4224 
C 691 4224 262 3603 262 3027 
C 262 2777 448 2745 525 2745 
C 589 2745 781 2783 781 3007 
C 781 3206 614 3264 525 3264 
C 486 3264 448 3257 422 3244 
C 544 3788 915 4057 1306 4057 
C 1862 4057 2227 3616 2227 3033 
C 2227 2477 1901 1998 1536 1583 
L 262 147 
L 262 0 
L 2515 0 
L 2669 990 
z
" transform="scale(0.015625)"/>
       </defs>
       <use xlink:href="#CMR17-32" transform="scale(0.996264)"/>
       <use xlink:href="#CMR17-30" transform="translate(45.690477 0) scale(0.996264)"/>
       <use xlink:href="#CMR17-30" transform="translate(91.380954 0) scale(0.996264)"/>
       <use xlink:href="#CMR17-30" transform="translate(137.071431 0) scale(0.996264)"/>
      </g>
     </g>
    </g>
    <g id="xtick_6">
     <g id="line2d_6">
      <g>
       <use xlink:href="#m0b01267721" x="343.302867" y="228.96" style="stroke: #000000; stroke-width: 0.8"/>
      </g>
     </g>
     <g id="text_6">
      <!-- $\mathdefault{2500}$ -->
      <g transform="translate(333.340197 243.05832) scale(0.1 -0.1)">
       <use xlink:href="#CMR17-32" transform="scale(0.996264)"/>
       <use xlink:href="#CMR17-35" transform="translate(45.690477 0) scale(0.996264)"/>
       <use xlink:href="#CMR17-30" transform="translate(91.380954 0) scale(0.996264)"/>
       <use xlink:href="#CMR17-30" transform="translate(137.071431 0) scale(0.996264)"/>
      </g>
     </g>
    </g>
    <g id="text_7">
     <!-- Iteration -->
     <g transform="translate(182.038633 256.278627) scale(0.1 -0.1)">
      <defs>
       <path id="NimbusSanL-Regu-49" d="M 1242 4672 
L 640 4672 
L 640 0 
L 1242 0 
L 1242 4672 
z
" transform="scale(0.015625)"/>
       <path id="NimbusSanL-Regu-74" d="M 1626 3328 
L 1075 3328 
L 1075 4249 
L 544 4249 
L 544 3328 
L 90 3328 
L 90 2892 
L 544 2892 
L 544 402 
C 544 64 774 -128 1190 -128 
C 1318 -128 1446 -116 1626 -84 
L 1626 364 
C 1555 345 1472 339 1370 339 
C 1139 339 1075 402 1075 634 
L 1075 2892 
L 1626 2892 
L 1626 3328 
z
" transform="scale(0.015625)"/>
       <path id="NimbusSanL-Regu-65" d="M 3283 1484 
C 3283 1998 3245 2311 3149 2565 
C 2931 3123 2419 3456 1792 3456 
C 858 3456 256 2734 256 1619 
C 256 545 838 -128 1779 -128 
C 2547 -128 3078 307 3213 1018 
L 2675 1018 
C 2528 588 2227 364 1798 364 
C 1459 364 1171 514 992 787 
C 864 974 819 1161 813 1484 
L 3283 1484 
z
M 826 1920 
C 870 2552 1248 2963 1786 2963 
C 2310 2963 2714 2519 2714 1959 
C 2714 1946 2714 1933 2707 1920 
L 826 1920 
z
" transform="scale(0.015625)"/>
       <path id="NimbusSanL-Regu-72" d="M 442 3328 
L 442 0 
L 979 0 
L 979 1727 
C 979 2203 1101 2514 1357 2698 
C 1523 2819 1683 2857 2054 2863 
L 2054 3404 
C 1965 3449 1920 3456 1850 3456 
C 1504 3456 1242 3251 934 2750 
L 934 3328 
L 442 3328 
z
" transform="scale(0.015625)"/>
       <path id="NimbusSanL-Regu-61" d="M 3424 332 
C 3366 320 3341 320 3309 320 
C 3123 320 3021 415 3021 581 
L 3021 2542 
C 3021 3135 2586 3456 1760 3456 
C 1274 3456 870 3315 646 3065 
C 493 2893 429 2702 416 2370 
L 954 2370 
C 998 2778 1242 2963 1741 2963 
C 2221 2963 2490 2784 2490 2466 
L 2490 2326 
C 2490 2103 2355 2007 1933 1956 
C 1178 1861 1062 1835 858 1753 
C 467 1593 269 1294 269 861 
C 269 256 691 -128 1370 -128 
C 1792 -128 2131 19 2509 364 
C 2547 25 2714 -128 3059 -128 
C 3168 -128 3251 -116 3424 -71 
L 3424 332 
z
M 2490 1071 
C 2490 893 2438 785 2278 638 
C 2061 441 1798 339 1485 339 
C 1069 339 826 536 826 874 
C 826 1224 1062 1402 1632 1485 
C 2195 1562 2310 1587 2490 1670 
L 2490 1071 
z
" transform="scale(0.015625)"/>
       <path id="NimbusSanL-Regu-69" d="M 960 3358 
L 429 3358 
L 429 0 
L 960 0 
L 960 3358 
z
M 960 4672 
L 422 4672 
L 422 3999 
L 960 3999 
L 960 4672 
z
" transform="scale(0.015625)"/>
       <path id="NimbusSanL-Regu-6f" d="M 1741 3456 
C 800 3456 230 2784 230 1663 
C 230 543 794 -128 1747 -128 
C 2688 -128 3264 543 3264 1638 
C 3264 2791 2707 3456 1741 3456 
z
M 1747 2963 
C 2349 2963 2707 2472 2707 1644 
C 2707 861 2336 364 1747 364 
C 1152 364 787 855 787 1663 
C 787 2466 1152 2963 1747 2963 
z
" transform="scale(0.015625)"/>
       <path id="NimbusSanL-Regu-6e" d="M 448 3328 
L 448 0 
L 986 0 
L 986 1835 
C 986 2539 1344 2988 1894 2988 
C 2317 2988 2586 2732 2586 2328 
L 2586 0 
L 3117 0 
L 3117 2539 
C 3117 3097 2701 3456 2054 3456 
C 1555 3456 1235 3263 941 2796 
L 941 3328 
L 448 3328 
z
" transform="scale(0.015625)"/>
      </defs>
      <use xlink:href="#NimbusSanL-Regu-49" transform="scale(0.996264)"/>
      <use xlink:href="#NimbusSanL-Regu-74" transform="translate(27.69517 0) scale(0.996264)"/>
      <use xlink:href="#NimbusSanL-Regu-65" transform="translate(55.390339 0) scale(0.996264)"/>
      <use xlink:href="#NimbusSanL-Regu-72" transform="translate(110.782016 0) scale(0.996264)"/>
      <use xlink:href="#NimbusSanL-Regu-61" transform="translate(142.961149 0) scale(0.996264)"/>
      <use xlink:href="#NimbusSanL-Regu-74" transform="translate(198.352826 0) scale(0.996264)"/>
      <use xlink:href="#NimbusSanL-Regu-69" transform="translate(226.047996 0) scale(0.996264)"/>
      <use xlink:href="#NimbusSanL-Regu-6f" transform="translate(248.16478 0) scale(0.996264)"/>
      <use xlink:href="#NimbusSanL-Regu-6e" transform="translate(303.556457 0) scale(0.996264)"/>
     </g>
    </g>
   </g>
   <g id="matplotlib.axis_2">
    <g id="ytick_1">
     <g id="line2d_7">
      <defs>
       <path id="m091cac6ef2" d="M 0 0 
L -3.5 0 
" style="stroke: #000000; stroke-width: 0.8"/>
      </defs>
      <g>
       <use xlink:href="#m091cac6ef2" x="32.586009" y="203.075129" style="stroke: #000000; stroke-width: 0.8"/>
      </g>
     </g>
     <g id="text_8">
      <!-- $\mathdefault{0}$ -->
      <g transform="translate(20.604674 206.624289) scale(0.1 -0.1)">
       <use xlink:href="#CMR17-30" transform="scale(0.996264)"/>
      </g>
     </g>
    </g>
    <g id="ytick_2">
     <g id="line2d_8">
      <g>
       <use xlink:href="#m091cac6ef2" x="32.586009" y="171.725857" style="stroke: #000000; stroke-width: 0.8"/>
      </g>
     </g>
     <g id="text_9">
      <!-- $\mathdefault{1}$ -->
      <g transform="translate(20.604674 175.275017) scale(0.1 -0.1)">
       <use xlink:href="#CMR17-31" transform="scale(0.996264)"/>
      </g>
     </g>
    </g>
    <g id="ytick_3">
     <g id="line2d_9">
      <g>
       <use xlink:href="#m091cac6ef2" x="32.586009" y="140.376585" style="stroke: #000000; stroke-width: 0.8"/>
      </g>
     </g>
     <g id="text_10">
      <!-- $\mathdefault{2}$ -->
      <g transform="translate(20.604674 143.925745) scale(0.1 -0.1)">
       <use xlink:href="#CMR17-32" transform="scale(0.996264)"/>
      </g>
     </g>
    </g>
    <g id="ytick_4">
     <g id="line2d_10">
      <g>
       <use xlink:href="#m091cac6ef2" x="32.586009" y="109.027313" style="stroke: #000000; stroke-width: 0.8"/>
      </g>
     </g>
     <g id="text_11">
      <!-- $\mathdefault{3}$ -->
      <g transform="translate(20.604674 112.576473) scale(0.1 -0.1)">
       <defs>
        <path id="CMR17-33" d="M 1414 2176 
C 1984 2176 2234 1673 2234 1094 
C 2234 322 1824 25 1453 25 
C 1114 25 563 193 390 691 
C 422 678 454 678 486 678 
C 640 678 755 780 755 947 
C 755 1132 614 1216 486 1216 
C 378 1216 211 1164 211 927 
C 211 335 787 -128 1466 -128 
C 2176 -128 2720 432 2720 1087 
C 2720 1718 2208 2176 1600 2246 
C 2086 2347 2554 2776 2554 3353 
C 2554 3856 2048 4224 1472 4224 
C 890 4224 378 3862 378 3347 
C 378 3123 544 3084 627 3084 
C 762 3084 877 3167 877 3334 
C 877 3500 762 3584 627 3584 
C 602 3584 570 3584 544 3571 
C 730 3999 1235 4076 1459 4076 
C 1683 4076 2106 3966 2106 3347 
C 2106 3167 2080 2851 1862 2574 
C 1670 2329 1453 2316 1242 2297 
C 1210 2297 1062 2284 1037 2284 
C 992 2278 966 2272 966 2227 
C 966 2182 973 2176 1101 2176 
L 1414 2176 
z
" transform="scale(0.015625)"/>
       </defs>
       <use xlink:href="#CMR17-33" transform="scale(0.996264)"/>
      </g>
     </g>
    </g>
    <g id="ytick_5">
     <g id="line2d_11">
      <g>
       <use xlink:href="#m091cac6ef2" x="32.586009" y="77.678041" style="stroke: #000000; stroke-width: 0.8"/>
      </g>
     </g>
     <g id="text_12">
      <!-- $\mathdefault{4}$ -->
      <g transform="translate(20.604674 81.227201) scale(0.1 -0.1)">
       <defs>
        <path id="CMR17-34" d="M 2150 4147 
C 2150 4281 2144 4288 2029 4288 
L 128 1254 
L 128 1088 
L 1779 1088 
L 1779 460 
C 1779 230 1766 166 1318 166 
L 1197 166 
L 1197 0 
C 1402 12 1747 12 1965 12 
C 2182 12 2528 12 2733 0 
L 2733 166 
L 2611 166 
C 2163 166 2150 230 2150 460 
L 2150 1088 
L 2803 1088 
L 2803 1254 
L 2150 1254 
L 2150 4147 
z
M 1798 3723 
L 1798 1254 
L 256 1254 
L 1798 3723 
z
" transform="scale(0.015625)"/>
       </defs>
       <use xlink:href="#CMR17-34" transform="scale(0.996264)"/>
      </g>
     </g>
    </g>
    <g id="ytick_6">
     <g id="line2d_12">
      <g>
       <use xlink:href="#m091cac6ef2" x="32.586009" y="46.328769" style="stroke: #000000; stroke-width: 0.8"/>
      </g>
     </g>
     <g id="text_13">
      <!-- $\mathdefault{5}$ -->
      <g transform="translate(20.604674 49.87793) scale(0.1 -0.1)">
       <use xlink:href="#CMR17-35" transform="scale(0.996264)"/>
      </g>
     </g>
    </g>
    <g id="ytick_7">
     <g id="line2d_13">
      <g>
       <use xlink:href="#m091cac6ef2" x="32.586009" y="14.979498" style="stroke: #000000; stroke-width: 0.8"/>
      </g>
     </g>
     <g id="text_14">
      <!-- $\mathdefault{6}$ -->
      <g transform="translate(20.604674 18.528658) scale(0.1 -0.1)">
       <defs>
        <path id="CMR17-36" d="M 678 2198 
C 678 3712 1395 4076 1811 4076 
C 1946 4076 2272 4049 2400 3782 
C 2298 3782 2106 3782 2106 3558 
C 2106 3385 2246 3328 2336 3328 
C 2394 3328 2566 3353 2566 3571 
C 2566 3987 2246 4224 1805 4224 
C 1043 4224 243 3411 243 2011 
C 243 257 966 -128 1478 -128 
C 2099 -128 2688 431 2688 1295 
C 2688 2101 2170 2688 1517 2688 
C 1126 2688 838 2430 678 1979 
L 678 2198 
z
M 1478 25 
C 691 25 691 1212 691 1450 
C 691 1914 909 2585 1504 2585 
C 1613 2585 1926 2585 2138 2140 
C 2253 1889 2253 1624 2253 1302 
C 2253 954 2253 696 2118 438 
C 1978 173 1773 25 1478 25 
z
" transform="scale(0.015625)"/>
       </defs>
       <use xlink:href="#CMR17-36" transform="scale(0.996264)"/>
      </g>
     </g>
    </g>
    <g id="text_15">
     <!-- Aerodynamic Coefficients - Blade_0 -->
     <g transform="translate(14.482687 196.280864) rotate(-90) scale(0.1 -0.1)">
      <defs>
       <path id="NimbusSanL-Regu-41" d="M 3034 1408 
L 3514 0 
L 4179 0 
L 2541 4672 
L 1773 4672 
L 109 0 
L 742 0 
L 1235 1408 
L 3034 1408 
z
M 2867 1907 
L 1382 1907 
L 2150 4032 
L 2867 1907 
z
" transform="scale(0.015625)"/>
       <path id="NimbusSanL-Regu-64" d="M 3168 4672 
L 2637 4672 
L 2637 2937 
C 2413 3276 2054 3456 1606 3456 
C 736 3456 166 2759 166 1695 
C 166 568 723 -128 1626 -128 
C 2086 -128 2406 44 2694 460 
L 2694 19 
L 3168 19 
L 3168 4672 
z
M 1696 2956 
C 2272 2956 2637 2447 2637 1651 
C 2637 880 2266 371 1702 371 
C 1114 371 723 887 723 1663 
C 723 2440 1114 2956 1696 2956 
z
" transform="scale(0.015625)"/>
       <path id="NimbusSanL-Regu-79" d="M 2483 3328 
L 1555 724 
L 698 3328 
L 128 3328 
L 1261 -29 
L 1056 -558 
C 973 -794 851 -884 627 -884 
C 550 -884 461 -871 346 -845 
L 346 -1325 
C 454 -1383 563 -1408 704 -1408 
C 877 -1408 1062 -1351 1203 -1248 
C 1370 -1127 1466 -986 1568 -718 
L 3059 3328 
L 2483 3328 
z
" transform="scale(0.015625)"/>
       <path id="NimbusSanL-Regu-6d" d="M 448 3328 
L 448 0 
L 986 0 
L 986 2089 
C 986 2597 1338 2988 1773 2988 
C 2170 2988 2394 2744 2394 2315 
L 2394 0 
L 2931 0 
L 2931 2109 
C 2931 2597 3283 2988 3718 2988 
C 4109 2988 4339 2738 4339 2315 
L 4339 0 
L 4877 0 
L 4877 2520 
C 4877 3123 4531 3456 3904 3456 
C 3456 3456 3187 3321 2874 2943 
C 2675 3302 2406 3456 1971 3456 
C 1523 3456 1229 3289 941 2886 
L 941 3328 
L 448 3328 
z
" transform="scale(0.015625)"/>
       <path id="NimbusSanL-Regu-63" d="M 3014 2237 
C 2989 2561 2918 2771 2790 2956 
C 2560 3270 2157 3456 1690 3456 
C 787 3456 198 2740 198 1632 
C 198 555 774 -128 1683 -128 
C 2483 -128 2989 352 3053 1167 
L 2515 1167 
C 2426 632 2150 364 1696 364 
C 1107 364 755 842 755 1632 
C 755 2466 1101 2963 1683 2963 
C 2131 2963 2413 2701 2477 2237 
L 3014 2237 
z
" transform="scale(0.015625)"/>
       <path id="NimbusSanL-Regu-43" d="M 4237 3219 
C 4051 4236 3462 4736 2438 4736 
C 1811 4736 1306 4537 960 4154 
C 538 3696 307 3035 307 2284 
C 307 1522 544 867 986 415 
C 1344 44 1805 -128 2413 -128 
C 3552 -128 4192 485 4333 1712 
L 3718 1712 
C 3667 1394 3603 1178 3507 994 
C 3315 612 2918 396 2419 396 
C 1491 396 902 1134 902 2291 
C 902 3480 1466 4211 2368 4211 
C 2746 4211 3098 4096 3290 3918 
C 3462 3759 3558 3562 3629 3219 
L 4237 3219 
z
" transform="scale(0.015625)"/>
       <path id="NimbusSanL-Regu-66" d="M 1651 3328 
L 1094 3328 
L 1094 3860 
C 1094 4087 1222 4204 1466 4204 
C 1510 4204 1530 4204 1651 4198 
L 1651 4639 
C 1530 4665 1459 4672 1350 4672 
C 858 4672 563 4390 563 3905 
L 563 3328 
L 115 3328 
L 115 2892 
L 563 2892 
L 563 0 
L 1094 0 
L 1094 2892 
L 1651 2892 
L 1651 3328 
z
" transform="scale(0.015625)"/>
       <path id="NimbusSanL-Regu-2" d="M 1613 3328 
L 1056 3328 
L 1056 3860 
C 1056 4087 1184 4204 1427 4204 
C 1472 4204 1491 4204 1613 4198 
L 1613 4639 
C 1491 4665 1421 4672 1312 4672 
C 819 4672 525 4390 525 3905 
L 525 3328 
L 77 3328 
L 77 2892 
L 525 2892 
L 525 0 
L 1056 0 
L 1056 2892 
L 1613 2892 
L 1613 3328 
z
M 2790 3328 
L 2259 3328 
L 2259 0 
L 2790 0 
L 2790 3328 
z
M 2790 4672 
L 2259 4672 
L 2259 3999 
L 2790 3999 
L 2790 4672 
z
" transform="scale(0.015625)"/>
       <path id="NimbusSanL-Regu-73" d="M 2803 2428 
C 2797 3084 2362 3456 1587 3456 
C 806 3456 301 3052 301 2434 
C 301 1912 570 1663 1363 1472 
L 1862 1351 
C 2234 1262 2381 1129 2381 887 
C 2381 574 2067 364 1600 364 
C 1312 364 1069 447 934 587 
C 851 683 813 778 781 1014 
L 218 1014 
C 243 243 678 -128 1555 -128 
C 2400 -128 2938 288 2938 931 
C 2938 1428 2656 1702 1990 1861 
L 1478 1982 
C 1043 2084 858 2224 858 2459 
C 858 2765 1133 2963 1568 2963 
C 1997 2963 2227 2778 2240 2428 
L 2803 2428 
z
" transform="scale(0.015625)"/>
       <path id="NimbusSanL-Regu-2d" d="M 1818 1996 
L 294 1996 
L 294 1536 
L 1818 1536 
L 1818 1996 
z
" transform="scale(0.015625)"/>
       <path id="NimbusSanL-Regu-42" d="M 506 0 
L 2611 0 
C 3053 0 3379 121 3629 390 
C 3859 632 3987 961 3987 1321 
C 3987 1878 3731 2214 3136 2444 
C 3558 2643 3782 2994 3782 3476 
C 3782 3821 3654 4127 3411 4345 
C 3168 4569 2848 4672 2400 4672 
L 506 4672 
L 506 0 
z
M 1101 2636 
L 1101 4147 
L 2253 4147 
C 2586 4147 2771 4101 2931 3977 
C 3098 3847 3187 3652 3187 3391 
C 3187 3138 3098 2936 2931 2806 
C 2771 2682 2586 2636 2253 2636 
L 1101 2636 
z
M 1101 524 
L 1101 2112 
L 2554 2112 
C 2842 2112 3034 2042 3174 1890 
C 3315 1745 3392 1542 3392 1315 
C 3392 1093 3315 891 3174 746 
C 3034 594 2842 524 2554 524 
L 1101 524 
z
" transform="scale(0.015625)"/>
       <path id="NimbusSanL-Regu-6c" d="M 973 4672 
L 435 4672 
L 435 0 
L 973 0 
L 973 4672 
z
" transform="scale(0.015625)"/>
       <path id="NimbusSanL-Regu-30" d="M 1760 4544 
C 1338 4544 954 4358 717 4044 
C 422 3649 275 3043 275 2207 
C 275 683 787 -128 1760 -128 
C 2720 -128 3245 683 3245 2169 
C 3245 3049 3104 3636 2803 4044 
C 2566 4364 2189 4544 1760 4544 
z
M 1760 4044 
C 2368 4044 2669 3432 2669 2220 
C 2669 938 2374 339 1747 339 
C 1152 339 851 964 851 2201 
C 851 3438 1152 4044 1760 4044 
z
" transform="scale(0.015625)"/>
      </defs>
      <use xlink:href="#NimbusSanL-Regu-41" transform="scale(0.996264)"/>
      <use xlink:href="#NimbusSanL-Regu-65" transform="translate(66.450031 0) scale(0.996264)"/>
      <use xlink:href="#NimbusSanL-Regu-72" transform="translate(121.841708 0) scale(0.996264)"/>
      <use xlink:href="#NimbusSanL-Regu-6f" transform="translate(155.016938 0) scale(0.996264)"/>
      <use xlink:href="#NimbusSanL-Regu-64" transform="translate(210.408615 0) scale(0.996264)"/>
      <use xlink:href="#NimbusSanL-Regu-79" transform="translate(265.800292 0) scale(0.996264)"/>
      <use xlink:href="#NimbusSanL-Regu-6e" transform="translate(315.613492 0) scale(0.996264)"/>
      <use xlink:href="#NimbusSanL-Regu-61" transform="translate(371.005169 0) scale(0.996264)"/>
      <use xlink:href="#NimbusSanL-Regu-6d" transform="translate(426.396846 0) scale(0.996264)"/>
      <use xlink:href="#NimbusSanL-Regu-69" transform="translate(509.385276 0) scale(0.996264)"/>
      <use xlink:href="#NimbusSanL-Regu-63" transform="translate(531.502061 0) scale(0.996264)"/>
      <use xlink:href="#NimbusSanL-Regu-43" transform="translate(609.010431 0) scale(0.996264)"/>
      <use xlink:href="#NimbusSanL-Regu-6f" transform="translate(680.940416 0) scale(0.996264)"/>
      <use xlink:href="#NimbusSanL-Regu-65" transform="translate(736.332093 0) scale(0.996264)"/>
      <use xlink:href="#NimbusSanL-Regu-66" transform="translate(791.72377 0) scale(0.996264)"/>
      <use xlink:href="#NimbusSanL-Regu-2" transform="translate(819.418939 0) scale(0.996264)"/>
      <use xlink:href="#NimbusSanL-Regu-63" transform="translate(869.23214 0) scale(0.996264)"/>
      <use xlink:href="#NimbusSanL-Regu-69" transform="translate(919.04534 0) scale(0.996264)"/>
      <use xlink:href="#NimbusSanL-Regu-65" transform="translate(941.162125 0) scale(0.996264)"/>
      <use xlink:href="#NimbusSanL-Regu-6e" transform="translate(996.553802 0) scale(0.996264)"/>
      <use xlink:href="#NimbusSanL-Regu-74" transform="translate(1051.945479 0) scale(0.996264)"/>
      <use xlink:href="#NimbusSanL-Regu-73" transform="translate(1079.640648 0) scale(0.996264)"/>
      <use xlink:href="#NimbusSanL-Regu-2d" transform="translate(1157.149018 0) scale(0.996264)"/>
      <use xlink:href="#NimbusSanL-Regu-42" transform="translate(1218.019418 0) scale(0.996264)"/>
      <use xlink:href="#NimbusSanL-Regu-6c" transform="translate(1284.469449 0) scale(0.996264)"/>
      <use xlink:href="#NimbusSanL-Regu-61" transform="translate(1306.586233 0) scale(0.996264)"/>
      <use xlink:href="#NimbusSanL-Regu-64" transform="translate(1361.97791 0) scale(0.996264)"/>
      <use xlink:href="#NimbusSanL-Regu-65" transform="translate(1417.369587 0) scale(0.996264)"/>
      <use xlink:href="#NimbusSanL-Regu-30" transform="translate(1508.626829 0) scale(0.996264)"/>
      <path d="M 1478.738605 0 
L 1508.626829 0 
L 1508.626829 0.3985 
L 1478.738605 0.3985 
L 1478.738605 0 
z
"/>
     </g>
    </g>
   </g>
   <g id="line2d_14">
    <path d="M 47.804191 159.674428 
L 48.276989 35.120579 
L 48.631587 17.28 
L 48.749787 18.107437 
L 49.458984 39.005611 
L 49.577183 38.793693 
L 49.695382 39.150272 
L 49.813582 40.662063 
L 50.049981 40.900339 
L 50.28638 41.518143 
L 50.640978 43.407599 
L 50.877377 45.634968 
L 51.113776 49.612525 
L 51.350175 57.621381 
L 51.704773 75.963198 
L 51.941172 78.17506 
L 52.177571 82.226594 
L 52.53217 94.192611 
L 52.768569 108.883338 
L 53.123167 134.10673 
L 53.359566 136.972326 
L 53.595965 141.926375 
L 53.950563 155.965071 
L 54.77796 198.937236 
L 55.014359 199.955978 
L 55.250758 201.754377 
L 55.605356 207.086217 
L 55.959954 213.439689 
L 56.078154 214.259012 
L 56.196353 213.970766 
L 56.314553 212.590764 
L 57.02375 212.565324 
L 57.496548 212.92905 
L 57.614747 212.342191 
L 57.969345 209.033851 
L 58.323944 208.410352 
L 58.678542 207.232434 
L 59.033141 205.108615 
L 59.387739 201.088477 
L 59.624138 198.474146 
L 59.978736 197.512778 
L 60.215135 196.242304 
L 60.451534 193.962525 
L 60.687933 189.970052 
L 61.042532 179.30678 
L 61.278931 174.16663 
L 61.633529 172.648604 
L 61.988127 169.626552 
L 62.342726 164.765234 
L 62.579125 159.282163 
L 63.406521 128.684649 
L 63.524721 127.772614 
L 63.64292 127.748876 
L 63.879319 129.256618 
L 64.352117 134.525814 
L 64.706715 140.482395 
L 64.824915 143.072227 
L 65.061314 143.434139 
L 65.297713 144.117872 
L 65.534112 145.351096 
L 65.88871 148.857963 
L 66.243308 155.637534 
L 66.597907 162.916492 
L 66.834306 163.597937 
L 67.188904 165.592499 
L 67.543503 169.314058 
L 68.0163 177.488881 
L 68.252699 180.704673 
L 68.489098 181.287543 
L 68.725497 182.293622 
L 69.080096 185.192247 
L 69.434694 191.163775 
L 69.789292 198.471656 
L 70.143891 199.807591 
L 70.498489 202.605915 
L 70.853088 207.841034 
L 71.325886 217.013518 
L 71.680484 217.393499 
L 72.035082 218.120931 
L 72.389681 218.88 
L 72.50788 218.856901 
L 72.62608 218.556971 
L 73.098878 216.450323 
L 73.453476 215.718612 
L 73.689875 214.719801 
L 73.926274 212.912305 
L 74.280872 208.122291 
L 74.635471 202.900903 
L 74.87187 202.229903 
L 75.108269 201.032118 
L 75.462867 197.596014 
L 75.935665 189.491796 
L 76.290263 183.622292 
L 76.526662 183.095171 
L 76.881261 181.514934 
L 77.235859 178.601609 
L 77.826856 173.214572 
L 78.181455 172.841902 
L 78.536053 172.137947 
L 79.24525 170.468421 
L 79.599848 170.566996 
L 80.072646 170.74785 
L 80.309045 170.995367 
L 80.545444 171.488337 
L 81.018242 172.973059 
L 81.49104 173.287459 
L 81.845638 173.794366 
L 82.673035 175.182474 
L 83.264032 175.331924 
L 83.855029 175.738708 
L 84.209628 176.063691 
L 84.918825 176.287556 
L 85.273423 176.650558 
L 85.628021 177.077277 
L 85.746221 177.038818 
L 85.98262 176.820737 
L 86.455418 176.747865 
L 86.928216 176.405913 
L 87.282814 175.908133 
L 87.519213 175.660323 
L 88.11021 175.488466 
L 88.701208 175.040133 
L 89.174006 174.724755 
L 90.119601 174.532309 
L 90.4742 174.291496 
L 91.065197 173.352751 
L 91.656194 172.401758 
L 92.60179 172.21595 
L 93.192788 172.100924 
L 93.547386 172.142626 
L 94.256583 172.250412 
L 94.84758 172.615658 
L 95.320378 172.774247 
L 97.21157 172.764351 
L 98.038966 172.879821 
L 98.393564 173.155408 
L 98.629963 173.349014 
L 99.33916 173.548776 
L 99.811958 173.913314 
L 100.166556 174.208871 
L 100.875753 174.360824 
L 101.348551 174.653909 
L 101.939548 175.16349 
L 102.530546 175.382014 
L 102.885144 175.747722 
L 103.239743 176.562572 
L 103.594341 177.445159 
L 104.067139 177.704323 
L 104.421737 178.150051 
L 104.776336 178.966164 
L 105.130934 179.785298 
L 105.603732 179.994388 
L 106.07653 180.461578 
L 106.785727 181.313501 
L 108.085921 181.341431 
L 108.32232 181.216043 
L 109.031517 181.057782 
L 109.386115 180.803145 
L 109.740713 180.214081 
L 109.977112 179.849553 
L 110.44991 179.660112 
L 110.804509 179.32138 
L 111.159107 178.649564 
L 111.750104 177.286614 
L 112.222902 176.932618 
L 112.577501 176.358671 
L 112.932099 175.386864 
L 113.168498 174.928085 
L 113.641296 174.711275 
L 114.114094 174.21243 
L 114.823291 173.23644 
L 116.123485 173.130643 
L 116.478083 173.622169 
L 116.832682 174.242342 
L 117.30548 174.438319 
L 117.660078 174.804082 
L 118.014676 175.516181 
L 118.369275 176.303427 
L 118.842073 176.513123 
L 119.196671 176.86347 
L 119.55127 177.484712 
L 120.024067 178.43062 
L 120.615065 178.651874 
L 121.67886 179.297244 
L 122.269857 179.058136 
L 122.742655 178.895288 
L 123.097254 178.577823 
L 123.688251 177.843418 
L 124.161049 177.636745 
L 124.515647 177.257353 
L 124.870246 176.477175 
L 125.224844 175.543363 
L 125.697642 175.288531 
L 126.05224 174.85079 
L 126.406839 174.097702 
L 127.234235 172.075638 
L 127.588833 171.709853 
L 127.943432 171.64915 
L 128.29803 171.886264 
L 128.652629 172.204074 
L 129.361826 172.401475 
L 129.716424 172.693345 
L 130.071022 173.282137 
L 130.307421 173.609722 
L 130.898419 173.843731 
L 131.253017 174.201469 
L 131.607615 174.825564 
L 132.080413 175.652199 
L 132.671411 175.843809 
L 133.144209 176.232935 
L 133.617006 176.673403 
L 134.444403 176.85878 
L 135.508198 177.249391 
L 136.690193 177.208569 
L 137.162991 176.860309 
L 137.517589 176.561211 
L 138.226786 176.376814 
L 138.699584 176.014597 
L 139.054182 175.700192 
L 139.763379 175.530243 
L 140.236177 175.203283 
L 140.708975 174.808322 
L 141.65457 174.621674 
L 142.245568 174.499546 
L 145.318754 175.071952 
L 146.14615 175.462637 
L 146.737148 175.499139 
L 147.446345 175.309047 
L 149.101137 174.722193 
L 149.928533 174.499332 
L 150.283132 174.438465 
L 151.583326 174.274049 
L 152.410722 174.240215 
L 154.183714 174.290014 
L 156.193105 174.579909 
L 157.020502 174.742081 
L 158.084297 174.936464 
L 158.911693 175.044894 
L 159.62089 174.923176 
L 160.093688 174.87183 
L 161.039284 174.728397 
L 161.86668 174.542424 
L 162.694076 174.365941 
L 163.403273 174.200274 
L 166.712858 174.108477 
L 168.722249 174.305394 
L 171.086239 174.523314 
L 177.350811 174.366406 
L 180.896795 175.229524 
L 181.369593 175.387795 
L 182.315188 175.547538 
L 183.024385 175.685817 
L 185.861172 175.744122 
L 186.33397 175.695428 
L 187.279566 175.558416 
L 187.870563 175.445679 
L 188.816159 175.287381 
L 189.525356 175.113895 
L 190.470952 174.947468 
L 191.061949 174.845357 
L 192.243944 174.674168 
L 192.834941 174.629761 
L 195.789928 174.594776 
L 200.281508 175.324306 
L 205.009487 175.336355 
L 206.191481 175.253586 
L 211.865056 174.767261 
L 217.420431 174.814064 
L 222.503008 174.894515 
L 226.876389 174.698396 
L 231.367969 174.726999 
L 235.741349 174.882757 
L 237.987139 174.919379 
L 243.778913 174.846676 
L 246.970299 174.809999 
L 282.193741 174.732856 
L 286.448922 174.673255 
L 328.527933 174.75867 
L 341.411676 174.942521 
L 352.167827 174.898531 
L 352.167827 174.898531 
" clip-path="url(#pbe76ee2387)" style="fill: none; stroke: #1f77b4; stroke-width: 1.5; stroke-linecap: square"/>
   </g>
   <g id="line2d_15">
    <path d="M 47.804191 187.4134 
L 48.158789 154.128134 
L 48.513388 151.577991 
L 48.631587 151.660844 
L 48.867986 153.229311 
L 49.222585 155.528719 
L 49.340784 155.525813 
L 49.695382 154.43115 
L 49.931781 153.953122 
L 50.404579 153.743948 
L 50.759178 153.298109 
L 51.113776 152.417726 
L 51.468375 151.411141 
L 51.704773 151.607321 
L 52.177571 151.843558 
L 52.41397 152.207762 
L 52.650369 153.028404 
L 52.886768 154.91072 
L 53.123167 156.606266 
L 53.477766 157.292036 
L 53.714164 158.236571 
L 53.950563 159.918448 
L 54.423361 165.993203 
L 54.65976 168.315003 
L 55.014359 168.808775 
L 55.250758 169.492094 
L 55.487157 170.814572 
L 56.078154 175.717609 
L 56.196353 175.888395 
L 56.314553 175.791145 
L 56.669151 176.19313 
L 56.90555 176.824208 
L 57.141949 178.239559 
L 57.496548 182.44522 
L 57.969345 187.488328 
L 58.205744 187.897393 
L 58.442143 188.682776 
L 58.796742 190.88428 
L 59.387739 196.773392 
L 59.505939 198.058884 
L 59.860537 198.297099 
L 60.215135 198.959516 
L 60.569734 200.119434 
L 60.924332 202.099197 
L 61.278931 204.258759 
L 61.633529 204.567648 
L 62.342726 205.53383 
L 62.460925 205.148634 
L 62.579125 203.9923 
L 62.815524 197.827645 
L 63.406521 180.524273 
L 63.64292 178.605913 
L 64.115718 176.647389 
L 64.824915 171.994444 
L 65.297713 171.802565 
L 66.006909 171.304041 
L 66.125109 171.361552 
L 66.361508 171.974792 
L 66.597907 172.729383 
L 66.952505 172.985093 
L 67.307104 173.584819 
L 67.661702 174.900077 
L 68.0163 177.480948 
L 68.252699 178.855318 
L 68.607298 179.276396 
L 68.961896 180.127299 
L 69.316495 181.711086 
L 69.789292 184.298372 
L 70.143891 184.613946 
L 70.498489 185.295567 
L 70.853088 186.710933 
L 71.207686 189.65595 
L 71.325886 191.186584 
L 71.680484 191.534767 
L 72.035082 192.430002 
L 72.389681 194.116498 
L 72.980678 197.55199 
L 73.335277 197.806038 
L 73.689875 198.371581 
L 74.517271 199.913907 
L 75.226468 199.725135 
L 75.462867 199.47241 
L 75.699266 198.902985 
L 75.935665 197.701599 
L 76.290263 195.238577 
L 76.644862 194.753624 
L 76.99946 193.64081 
L 77.354059 191.511379 
L 77.826856 187.945249 
L 78.181455 187.534424 
L 78.536053 186.676639 
L 79.481649 183.566778 
L 80.427245 183.504989 
L 80.663644 183.80612 
L 81.018242 184.573802 
L 81.49104 184.816997 
L 81.845638 185.261395 
L 82.200237 186.052593 
L 82.673035 187.23801 
L 83.145833 187.43961 
L 83.73683 188.013642 
L 84.091428 188.300025 
L 84.446027 188.257111 
L 85.391623 188.157446 
L 85.746221 187.899445 
L 85.98262 187.756132 
L 87.282814 187.762097 
L 87.519213 187.880955 
L 88.22841 188.028777 
L 88.583008 188.260114 
L 88.937607 188.722273 
L 89.174006 188.954874 
L 89.765003 189.112527 
L 90.828798 189.557795 
L 91.183397 189.163692 
L 91.774394 188.363984 
L 92.365391 188.208515 
L 92.956389 187.793206 
L 93.429187 187.490213 
L 94.729381 187.48395 
L 95.202179 187.555733 
L 95.911375 187.493885 
L 96.620572 187.343892 
L 97.09337 187.18396 
L 98.157165 186.995413 
L 98.866362 186.768519 
L 99.575559 186.617813 
L 99.930157 186.357344 
L 100.166556 186.187588 
L 100.875753 186.001048 
L 101.348551 185.621547 
L 101.821349 185.138623 
L 102.648745 184.949849 
L 103.121543 184.866416 
L 103.357942 185.037572 
L 103.594341 185.259891 
L 104.185338 185.450291 
L 104.539937 185.790609 
L 104.894535 186.572293 
L 105.130934 187.044545 
L 105.603732 187.283484 
L 105.95833 187.709417 
L 106.312929 188.523835 
L 106.785727 189.993863 
L 107.258525 190.275575 
L 107.613123 190.746453 
L 108.085921 191.792277 
L 108.32232 192.114935 
L 108.913317 192.310585 
L 109.858913 192.761779 
L 110.686309 192.646163 
L 111.040908 192.404104 
L 111.277307 192.030719 
L 111.631905 191.281554 
L 112.104703 191.046984 
L 112.459301 190.625468 
L 112.8139 189.828599 
L 113.168498 188.957641 
L 113.641296 188.720599 
L 113.995894 188.32381 
L 114.468692 187.34314 
L 114.823291 186.62658 
L 115.414288 186.375217 
L 115.887086 185.912699 
L 116.596283 185.158939 
L 116.950881 185.106068 
L 118.132876 185.177956 
L 118.487474 185.260412 
L 119.314871 185.411337 
L 119.787668 185.745974 
L 120.024067 185.901123 
L 120.733264 186.051224 
L 121.206062 186.34152 
L 122.033458 187.005721 
L 122.979054 187.166538 
L 123.80645 187.31641 
L 124.870246 187.285231 
L 125.461243 187.140116 
L 126.17044 186.984749 
L 126.643238 186.638663 
L 128.534429 184.777483 
L 129.716424 184.642339 
L 130.425621 184.598649 
L 131.489416 184.706845 
L 132.671411 185.107783 
L 133.262408 185.368629 
L 133.617006 185.561866 
L 134.444403 185.699291 
L 135.744597 186.072508 
L 137.162991 186.147553 
L 137.872187 186.026509 
L 138.699584 185.833191 
L 139.172382 185.687392 
L 140.117977 185.517866 
L 140.945374 185.285047 
L 143.427563 185.211366 
L 145.436954 185.655785 
L 146.737148 186.251278 
L 147.564544 186.397788 
L 148.39194 186.290146 
L 148.864738 186.237594 
L 149.810334 186.107747 
L 150.401331 186.010727 
L 151.583326 185.833443 
L 152.056124 185.79024 
L 155.24751 185.771192 
L 156.311305 185.887787 
L 156.902302 185.990915 
L 157.847898 186.136236 
L 159.029893 186.441548 
L 160.211887 186.383412 
L 161.275683 186.246902 
L 161.74848 186.196814 
L 162.812276 186.045509 
L 163.403273 185.973521 
L 166.24006 185.974965 
L 167.658454 186.097133 
L 168.131252 186.136315 
L 169.313247 186.277018 
L 169.904244 186.31253 
L 172.741031 186.31384 
L 174.159425 186.199688 
L 174.868622 186.108945 
L 175.932417 185.939581 
L 176.641614 185.861335 
L 180.896795 185.751357 
L 183.378984 185.919823 
L 185.624773 186.159364 
L 186.688569 186.256795 
L 189.879954 186.353117 
L 192.125744 186.211366 
L 193.07134 186.127908 
L 195.31713 185.845141 
L 196.971923 185.574471 
L 201.463503 185.679055 
L 205.364085 185.94083 
L 212.456053 185.915495 
L 220.375418 185.760233 
L 223.448604 185.863433 
L 235.623149 185.845462 
L 244.251711 185.790719 
L 331.955718 185.891422 
L 344.603061 185.922256 
L 352.167827 185.903899 
L 352.167827 185.903899 
" clip-path="url(#pbe76ee2387)" style="fill: none; stroke: #ff7f0e; stroke-width: 1.5; stroke-linecap: square"/>
   </g>
   <g id="patch_3">
    <path d="M 32.586009 228.96 
L 32.586009 7.2 
" style="fill: none; stroke: #000000; stroke-width: 0.8; stroke-linejoin: miter; stroke-linecap: square"/>
   </g>
   <g id="patch_4">
    <path d="M 367.386009 228.96 
L 367.386009 7.2 
" style="fill: none; stroke: #000000; stroke-width: 0.8; stroke-linejoin: miter; stroke-linecap: square"/>
   </g>
   <g id="patch_5">
    <path d="M 32.586009 228.96 
L 367.386009 228.96 
" style="fill: none; stroke: #000000; stroke-width: 0.8; stroke-linejoin: miter; stroke-linecap: square"/>
   </g>
   <g id="patch_6">
    <path d="M 32.586009 7.2 
L 367.386009 7.2 
" style="fill: none; stroke: #000000; stroke-width: 0.8; stroke-linejoin: miter; stroke-linecap: square"/>
   </g>
   <g id="legend_1">
    <g id="patch_7">
     <path d="M 314.000015 43.640613 
L 360.386009 43.640613 
Q 362.386009 43.640613 362.386009 41.640613 
L 362.386009 14.2 
Q 362.386009 12.2 360.386009 12.2 
L 314.000015 12.2 
Q 312.000015 12.2 312.000015 14.2 
L 312.000015 41.640613 
Q 312.000015 43.640613 314.000015 43.640613 
z
" style="fill: #ffffff; opacity: 0.8; stroke: #cccccc; stroke-linejoin: miter"/>
    </g>
    <g id="line2d_16">
     <path d="M 316.000015 19.79832 
L 326.000015 19.79832 
L 336.000015 19.79832 
" style="fill: none; stroke: #1f77b4; stroke-width: 1.5; stroke-linecap: square"/>
    </g>
    <g id="text_16">
     <!-- CD -->
     <g transform="translate(344.000015 23.29832) scale(0.1 -0.1)">
      <defs>
       <path id="NimbusSanL-Regu-44" d="M 570 0 
L 2368 0 
C 3546 0 4269 883 4269 2339 
C 4269 3788 3552 4672 2368 4672 
L 570 4672 
L 570 0 
z
M 1165 524 
L 1165 4147 
L 2266 4147 
C 3187 4147 3674 3525 3674 2332 
C 3674 1153 3187 524 2266 524 
L 1165 524 
z
" transform="scale(0.015625)"/>
      </defs>
      <use xlink:href="#NimbusSanL-Regu-43" transform="scale(0.996264)"/>
      <use xlink:href="#NimbusSanL-Regu-44" transform="translate(71.929985 0) scale(0.996264)"/>
     </g>
    </g>
    <g id="line2d_17">
     <path d="M 316.000015 34.018627 
L 326.000015 34.018627 
L 336.000015 34.018627 
" style="fill: none; stroke: #ff7f0e; stroke-width: 1.5; stroke-linecap: square"/>
    </g>
    <g id="text_17">
     <!-- CL -->
     <g transform="translate(344.000015 37.518627) scale(0.1 -0.1)">
      <defs>
       <path id="NimbusSanL-Regu-4c" d="M 1107 4672 
L 512 4672 
L 512 0 
L 3411 0 
L 3411 524 
L 1107 524 
L 1107 4672 
z
" transform="scale(0.015625)"/>
      </defs>
      <use xlink:href="#NimbusSanL-Regu-43" transform="scale(0.996264)"/>
      <use xlink:href="#NimbusSanL-Regu-4c" transform="translate(71.929985 0) scale(0.996264)"/>
     </g>
    </g>
   </g>
  </g>
 </g>
 <defs>
  <clipPath id="pbe76ee2387">
   <rect x="32.586009" y="7.2" width="334.8" height="221.76"/>
  </clipPath>
 </defs>
</svg>
