<?xml version="1.0" encoding="utf-8" standalone="no"?>
<!DOCTYPE svg PUBLIC "-//W3C//DTD SVG 1.1//EN"
  "http://www.w3.org/Graphics/SVG/1.1/DTD/svg11.dtd">
<svg xmlns:xlink="http://www.w3.org/1999/xlink" width="379.567344pt" height="265.600613pt" viewBox="0 0 379.567344 265.600613" xmlns="http://www.w3.org/2000/svg" version="1.1">
 <metadata>
  <rdf:RDF xmlns:dc="http://purl.org/dc/elements/1.1/" xmlns:cc="http://creativecommons.org/ns#" xmlns:rdf="http://www.w3.org/1999/02/22-rdf-syntax-ns#">
   <cc:Work>
    <dc:type rdf:resource="http://purl.org/dc/dcmitype/StillImage"/>
    <dc:date>2025-08-02T14:04:31.499141</dc:date>
    <dc:format>image/svg+xml</dc:format>
    <dc:creator>
     <cc:Agent>
      <dc:title>Matplotlib v3.10.3, https://matplotlib.org/</dc:title>
     </cc:Agent>
    </dc:creator>
   </cc:Work>
  </rdf:RDF>
 </metadata>
 <defs>
  <style type="text/css">*{stroke-linejoin: round; stroke-linecap: butt}</style>
 </defs>
 <g id="figure_1">
  <g id="patch_1">
   <path d="M 0 265.600613 
L 379.567344 265.600613 
L 379.567344 0 
L 0 0 
z
" style="fill: #ffffff"/>
  </g>
  <g id="axes_1">
   <g id="patch_2">
    <path d="M 37.567344 228.96 
L 372.367344 228.96 
L 372.367344 7.2 
L 37.567344 7.2 
z
" style="fill: #ffffff"/>
   </g>
   <g id="matplotlib.axis_1">
    <g id="xtick_1">
     <g id="line2d_1">
      <defs>
       <path id="mb23f0fd227" d="M 0 0 
L 0 3.5 
" style="stroke: #000000; stroke-width: 0.8"/>
      </defs>
      <g>
       <use xlink:href="#mb23f0fd227" x="52.785526" y="228.96" style="stroke: #000000; stroke-width: 0.8"/>
      </g>
     </g>
     <g id="text_1">
      <!-- $\mathdefault{0}$ -->
      <g transform="translate(50.294859 243.05832) scale(0.1 -0.1)">
       <defs>
        <path id="CMR17-30" d="M 2688 2038 
C 2688 2430 2682 3099 2413 3613 
C 2176 4063 1798 4224 1466 4224 
C 1158 4224 768 4082 525 3620 
C 269 3137 243 2539 243 2038 
C 243 1671 250 1112 448 623 
C 723 -39 1216 -128 1466 -128 
C 1760 -128 2208 -7 2470 604 
C 2662 1048 2688 1568 2688 2038 
z
M 1466 -26 
C 1056 -26 813 328 723 816 
C 653 1196 653 1749 653 2109 
C 653 2604 653 3015 736 3407 
C 858 3954 1216 4121 1466 4121 
C 1728 4121 2067 3947 2189 3420 
C 2272 3054 2278 2623 2278 2109 
C 2278 1691 2278 1176 2202 797 
C 2067 96 1690 -26 1466 -26 
z
" transform="scale(0.015625)"/>
       </defs>
       <use xlink:href="#CMR17-30" transform="scale(0.996264)"/>
      </g>
     </g>
    </g>
    <g id="xtick_2">
     <g id="line2d_2">
      <g>
       <use xlink:href="#mb23f0fd227" x="111.885261" y="228.96" style="stroke: #000000; stroke-width: 0.8"/>
      </g>
     </g>
     <g id="text_2">
      <!-- $\mathdefault{500}$ -->
      <g transform="translate(104.413259 243.05832) scale(0.1 -0.1)">
       <defs>
        <path id="CMR17-35" d="M 730 3750 
C 794 3724 1056 3641 1325 3641 
C 1920 3641 2246 3961 2432 4140 
C 2432 4191 2432 4224 2394 4224 
C 2387 4224 2374 4224 2323 4198 
C 2099 4102 1837 4032 1517 4032 
C 1325 4032 1037 4055 723 4191 
C 653 4224 640 4224 634 4224 
C 602 4224 595 4217 595 4090 
L 595 2231 
C 595 2113 595 2080 659 2080 
C 691 2080 704 2093 736 2139 
C 941 2435 1222 2560 1542 2560 
C 1766 2560 2246 2415 2246 1293 
C 2246 1087 2246 716 2054 422 
C 1894 159 1645 25 1370 25 
C 947 25 518 319 403 812 
C 429 806 480 793 506 793 
C 589 793 749 838 749 1036 
C 749 1209 627 1280 506 1280 
C 358 1280 262 1190 262 1011 
C 262 454 704 -128 1382 -128 
C 2042 -128 2669 441 2669 1267 
C 2669 2054 2170 2662 1549 2662 
C 1222 2662 947 2540 730 2304 
L 730 3750 
z
" transform="scale(0.015625)"/>
       </defs>
       <use xlink:href="#CMR17-35" transform="scale(0.996264)"/>
       <use xlink:href="#CMR17-30" transform="translate(45.690477 0) scale(0.996264)"/>
       <use xlink:href="#CMR17-30" transform="translate(91.380954 0) scale(0.996264)"/>
      </g>
     </g>
    </g>
    <g id="xtick_3">
     <g id="line2d_3">
      <g>
       <use xlink:href="#mb23f0fd227" x="170.984997" y="228.96" style="stroke: #000000; stroke-width: 0.8"/>
      </g>
     </g>
     <g id="text_3">
      <!-- $\mathdefault{1000}$ -->
      <g transform="translate(161.022326 243.05832) scale(0.1 -0.1)">
       <defs>
        <path id="CMR17-31" d="M 1702 4083 
C 1702 4217 1696 4224 1606 4224 
C 1357 3927 979 3833 621 3820 
C 602 3820 570 3820 563 3808 
C 557 3795 557 3782 557 3648 
C 755 3648 1088 3686 1344 3839 
L 1344 467 
C 1344 243 1331 166 781 166 
L 589 166 
L 589 0 
C 896 6 1216 12 1523 12 
C 1830 12 2150 6 2458 0 
L 2458 166 
L 2266 166 
C 1715 166 1702 236 1702 467 
L 1702 4083 
z
" transform="scale(0.015625)"/>
       </defs>
       <use xlink:href="#CMR17-31" transform="scale(0.996264)"/>
       <use xlink:href="#CMR17-30" transform="translate(45.690477 0) scale(0.996264)"/>
       <use xlink:href="#CMR17-30" transform="translate(91.380954 0) scale(0.996264)"/>
       <use xlink:href="#CMR17-30" transform="translate(137.071431 0) scale(0.996264)"/>
      </g>
     </g>
    </g>
    <g id="xtick_4">
     <g id="line2d_4">
      <g>
       <use xlink:href="#mb23f0fd227" x="230.084732" y="228.96" style="stroke: #000000; stroke-width: 0.8"/>
      </g>
     </g>
     <g id="text_4">
      <!-- $\mathdefault{1500}$ -->
      <g transform="translate(220.122061 243.05832) scale(0.1 -0.1)">
       <use xlink:href="#CMR17-31" transform="scale(0.996264)"/>
       <use xlink:href="#CMR17-35" transform="translate(45.690477 0) scale(0.996264)"/>
       <use xlink:href="#CMR17-30" transform="translate(91.380954 0) scale(0.996264)"/>
       <use xlink:href="#CMR17-30" transform="translate(137.071431 0) scale(0.996264)"/>
      </g>
     </g>
    </g>
    <g id="xtick_5">
     <g id="line2d_5">
      <g>
       <use xlink:href="#mb23f0fd227" x="289.184467" y="228.96" style="stroke: #000000; stroke-width: 0.8"/>
      </g>
     </g>
     <g id="text_5">
      <!-- $\mathdefault{2000}$ -->
      <g transform="translate(279.221797 243.05832) scale(0.1 -0.1)">
       <defs>
        <path id="CMR17-32" d="M 2669 990 
L 2554 990 
C 2490 537 2438 460 2413 422 
C 2381 371 1920 371 1830 371 
L 602 371 
C 832 620 1280 1073 1824 1596 
C 2214 1966 2669 2400 2669 3033 
C 2669 3788 2067 4224 1395 4224 
C 691 4224 262 3603 262 3027 
C 262 2777 448 2745 525 2745 
C 589 2745 781 2783 781 3007 
C 781 3206 614 3264 525 3264 
C 486 3264 448 3257 422 3244 
C 544 3788 915 4057 1306 4057 
C 1862 4057 2227 3616 2227 3033 
C 2227 2477 1901 1998 1536 1583 
L 262 147 
L 262 0 
L 2515 0 
L 2669 990 
z
" transform="scale(0.015625)"/>
       </defs>
       <use xlink:href="#CMR17-32" transform="scale(0.996264)"/>
       <use xlink:href="#CMR17-30" transform="translate(45.690477 0) scale(0.996264)"/>
       <use xlink:href="#CMR17-30" transform="translate(91.380954 0) scale(0.996264)"/>
       <use xlink:href="#CMR17-30" transform="translate(137.071431 0) scale(0.996264)"/>
      </g>
     </g>
    </g>
    <g id="xtick_6">
     <g id="line2d_6">
      <g>
       <use xlink:href="#mb23f0fd227" x="348.284202" y="228.96" style="stroke: #000000; stroke-width: 0.8"/>
      </g>
     </g>
     <g id="text_6">
      <!-- $\mathdefault{2500}$ -->
      <g transform="translate(338.321532 243.05832) scale(0.1 -0.1)">
       <use xlink:href="#CMR17-32" transform="scale(0.996264)"/>
       <use xlink:href="#CMR17-35" transform="translate(45.690477 0) scale(0.996264)"/>
       <use xlink:href="#CMR17-30" transform="translate(91.380954 0) scale(0.996264)"/>
       <use xlink:href="#CMR17-30" transform="translate(137.071431 0) scale(0.996264)"/>
      </g>
     </g>
    </g>
    <g id="text_7">
     <!-- Iteration -->
     <g transform="translate(187.019968 256.278627) scale(0.1 -0.1)">
      <defs>
       <path id="NimbusSanL-Regu-49" d="M 1242 4672 
L 640 4672 
L 640 0 
L 1242 0 
L 1242 4672 
z
" transform="scale(0.015625)"/>
       <path id="NimbusSanL-Regu-74" d="M 1626 3328 
L 1075 3328 
L 1075 4249 
L 544 4249 
L 544 3328 
L 90 3328 
L 90 2892 
L 544 2892 
L 544 402 
C 544 64 774 -128 1190 -128 
C 1318 -128 1446 -116 1626 -84 
L 1626 364 
C 1555 345 1472 339 1370 339 
C 1139 339 1075 402 1075 634 
L 1075 2892 
L 1626 2892 
L 1626 3328 
z
" transform="scale(0.015625)"/>
       <path id="NimbusSanL-Regu-65" d="M 3283 1484 
C 3283 1998 3245 2311 3149 2565 
C 2931 3123 2419 3456 1792 3456 
C 858 3456 256 2734 256 1619 
C 256 545 838 -128 1779 -128 
C 2547 -128 3078 307 3213 1018 
L 2675 1018 
C 2528 588 2227 364 1798 364 
C 1459 364 1171 514 992 787 
C 864 974 819 1161 813 1484 
L 3283 1484 
z
M 826 1920 
C 870 2552 1248 2963 1786 2963 
C 2310 2963 2714 2519 2714 1959 
C 2714 1946 2714 1933 2707 1920 
L 826 1920 
z
" transform="scale(0.015625)"/>
       <path id="NimbusSanL-Regu-72" d="M 442 3328 
L 442 0 
L 979 0 
L 979 1727 
C 979 2203 1101 2514 1357 2698 
C 1523 2819 1683 2857 2054 2863 
L 2054 3404 
C 1965 3449 1920 3456 1850 3456 
C 1504 3456 1242 3251 934 2750 
L 934 3328 
L 442 3328 
z
" transform="scale(0.015625)"/>
       <path id="NimbusSanL-Regu-61" d="M 3424 332 
C 3366 320 3341 320 3309 320 
C 3123 320 3021 415 3021 581 
L 3021 2542 
C 3021 3135 2586 3456 1760 3456 
C 1274 3456 870 3315 646 3065 
C 493 2893 429 2702 416 2370 
L 954 2370 
C 998 2778 1242 2963 1741 2963 
C 2221 2963 2490 2784 2490 2466 
L 2490 2326 
C 2490 2103 2355 2007 1933 1956 
C 1178 1861 1062 1835 858 1753 
C 467 1593 269 1294 269 861 
C 269 256 691 -128 1370 -128 
C 1792 -128 2131 19 2509 364 
C 2547 25 2714 -128 3059 -128 
C 3168 -128 3251 -116 3424 -71 
L 3424 332 
z
M 2490 1071 
C 2490 893 2438 785 2278 638 
C 2061 441 1798 339 1485 339 
C 1069 339 826 536 826 874 
C 826 1224 1062 1402 1632 1485 
C 2195 1562 2310 1587 2490 1670 
L 2490 1071 
z
" transform="scale(0.015625)"/>
       <path id="NimbusSanL-Regu-69" d="M 960 3358 
L 429 3358 
L 429 0 
L 960 0 
L 960 3358 
z
M 960 4672 
L 422 4672 
L 422 3999 
L 960 3999 
L 960 4672 
z
" transform="scale(0.015625)"/>
       <path id="NimbusSanL-Regu-6f" d="M 1741 3456 
C 800 3456 230 2784 230 1663 
C 230 543 794 -128 1747 -128 
C 2688 -128 3264 543 3264 1638 
C 3264 2791 2707 3456 1741 3456 
z
M 1747 2963 
C 2349 2963 2707 2472 2707 1644 
C 2707 861 2336 364 1747 364 
C 1152 364 787 855 787 1663 
C 787 2466 1152 2963 1747 2963 
z
" transform="scale(0.015625)"/>
       <path id="NimbusSanL-Regu-6e" d="M 448 3328 
L 448 0 
L 986 0 
L 986 1835 
C 986 2539 1344 2988 1894 2988 
C 2317 2988 2586 2732 2586 2328 
L 2586 0 
L 3117 0 
L 3117 2539 
C 3117 3097 2701 3456 2054 3456 
C 1555 3456 1235 3263 941 2796 
L 941 3328 
L 448 3328 
z
" transform="scale(0.015625)"/>
      </defs>
      <use xlink:href="#NimbusSanL-Regu-49" transform="scale(0.996264)"/>
      <use xlink:href="#NimbusSanL-Regu-74" transform="translate(27.69517 0) scale(0.996264)"/>
      <use xlink:href="#NimbusSanL-Regu-65" transform="translate(55.390339 0) scale(0.996264)"/>
      <use xlink:href="#NimbusSanL-Regu-72" transform="translate(110.782016 0) scale(0.996264)"/>
      <use xlink:href="#NimbusSanL-Regu-61" transform="translate(142.961149 0) scale(0.996264)"/>
      <use xlink:href="#NimbusSanL-Regu-74" transform="translate(198.352826 0) scale(0.996264)"/>
      <use xlink:href="#NimbusSanL-Regu-69" transform="translate(226.047996 0) scale(0.996264)"/>
      <use xlink:href="#NimbusSanL-Regu-6f" transform="translate(248.16478 0) scale(0.996264)"/>
      <use xlink:href="#NimbusSanL-Regu-6e" transform="translate(303.556457 0) scale(0.996264)"/>
     </g>
    </g>
   </g>
   <g id="matplotlib.axis_2">
    <g id="ytick_1">
     <g id="line2d_7">
      <defs>
       <path id="mcb0d7f26de" d="M 0 0 
L -3.5 0 
" style="stroke: #000000; stroke-width: 0.8"/>
      </defs>
      <g>
       <use xlink:href="#mcb0d7f26de" x="37.567344" y="193.385956" style="stroke: #000000; stroke-width: 0.8"/>
      </g>
     </g>
     <g id="text_8">
      <!-- $\mathdefault{5}$ -->
      <g transform="translate(25.586009 196.935116) scale(0.1 -0.1)">
       <use xlink:href="#CMR17-35" transform="scale(0.996264)"/>
      </g>
     </g>
    </g>
    <g id="ytick_2">
     <g id="line2d_8">
      <g>
       <use xlink:href="#mcb0d7f26de" x="37.567344" y="153.607636" style="stroke: #000000; stroke-width: 0.8"/>
      </g>
     </g>
     <g id="text_9">
      <!-- $\mathdefault{10}$ -->
      <g transform="translate(20.604674 157.156797) scale(0.1 -0.1)">
       <use xlink:href="#CMR17-31" transform="scale(0.996264)"/>
       <use xlink:href="#CMR17-30" transform="translate(45.690477 0) scale(0.996264)"/>
      </g>
     </g>
    </g>
    <g id="ytick_3">
     <g id="line2d_9">
      <g>
       <use xlink:href="#mcb0d7f26de" x="37.567344" y="113.829317" style="stroke: #000000; stroke-width: 0.8"/>
      </g>
     </g>
     <g id="text_10">
      <!-- $\mathdefault{15}$ -->
      <g transform="translate(20.604674 117.378477) scale(0.1 -0.1)">
       <use xlink:href="#CMR17-31" transform="scale(0.996264)"/>
       <use xlink:href="#CMR17-35" transform="translate(45.690477 0) scale(0.996264)"/>
      </g>
     </g>
    </g>
    <g id="ytick_4">
     <g id="line2d_10">
      <g>
       <use xlink:href="#mcb0d7f26de" x="37.567344" y="74.050997" style="stroke: #000000; stroke-width: 0.8"/>
      </g>
     </g>
     <g id="text_11">
      <!-- $\mathdefault{20}$ -->
      <g transform="translate(20.604674 77.600157) scale(0.1 -0.1)">
       <use xlink:href="#CMR17-32" transform="scale(0.996264)"/>
       <use xlink:href="#CMR17-30" transform="translate(45.690477 0) scale(0.996264)"/>
      </g>
     </g>
    </g>
    <g id="ytick_5">
     <g id="line2d_11">
      <g>
       <use xlink:href="#mcb0d7f26de" x="37.567344" y="34.272677" style="stroke: #000000; stroke-width: 0.8"/>
      </g>
     </g>
     <g id="text_12">
      <!-- $\mathdefault{25}$ -->
      <g transform="translate(20.604674 37.821837) scale(0.1 -0.1)">
       <use xlink:href="#CMR17-32" transform="scale(0.996264)"/>
       <use xlink:href="#CMR17-35" transform="translate(45.690477 0) scale(0.996264)"/>
      </g>
     </g>
    </g>
    <g id="text_13">
     <!-- Average CFL - Blade_0 -->
     <g transform="translate(14.482687 168.77932) rotate(-90) scale(0.1 -0.1)">
      <defs>
       <path id="NimbusSanL-Regu-41" d="M 3034 1408 
L 3514 0 
L 4179 0 
L 2541 4672 
L 1773 4672 
L 109 0 
L 742 0 
L 1235 1408 
L 3034 1408 
z
M 2867 1907 
L 1382 1907 
L 2150 4032 
L 2867 1907 
z
" transform="scale(0.015625)"/>
       <path id="NimbusSanL-Regu-76" d="M 1824 0 
L 3110 3328 
L 2509 3328 
L 1562 629 
L 666 3328 
L 64 3328 
L 1242 0 
L 1824 0 
z
" transform="scale(0.015625)"/>
       <path id="NimbusSanL-Regu-67" d="M 2637 3359 
L 2637 2873 
C 2368 3270 2042 3456 1613 3456 
C 762 3456 186 2714 186 1632 
C 186 1084 333 638 608 320 
C 858 38 1216 -128 1568 -128 
C 1990 -128 2285 51 2586 473 
L 2586 300 
C 2586 -155 2528 -441 2394 -634 
C 2253 -841 1978 -960 1651 -960 
C 1408 -960 1190 -894 1043 -774 
C 922 -674 870 -581 838 -375 
L 294 -375 
C 352 -1031 845 -1408 1632 -1408 
C 2131 -1408 2560 -1248 2778 -980 
C 3034 -661 3130 -222 3130 568 
L 3130 3359 
L 2637 3359 
z
M 1670 2963 
C 2246 2963 2586 2479 2586 1644 
C 2586 848 2240 364 1677 364 
C 1094 364 742 855 742 1663 
C 742 2466 1101 2963 1670 2963 
z
" transform="scale(0.015625)"/>
       <path id="NimbusSanL-Regu-43" d="M 4237 3219 
C 4051 4236 3462 4736 2438 4736 
C 1811 4736 1306 4537 960 4154 
C 538 3696 307 3035 307 2284 
C 307 1522 544 867 986 415 
C 1344 44 1805 -128 2413 -128 
C 3552 -128 4192 485 4333 1712 
L 3718 1712 
C 3667 1394 3603 1178 3507 994 
C 3315 612 2918 396 2419 396 
C 1491 396 902 1134 902 2291 
C 902 3480 1466 4211 2368 4211 
C 2746 4211 3098 4096 3290 3918 
C 3462 3759 3558 3562 3629 3219 
L 4237 3219 
z
" transform="scale(0.015625)"/>
       <path id="NimbusSanL-Regu-46" d="M 1171 2112 
L 3398 2112 
L 3398 2636 
L 1171 2636 
L 1171 4147 
L 3706 4147 
L 3706 4672 
L 576 4672 
L 576 0 
L 1171 0 
L 1171 2112 
z
" transform="scale(0.015625)"/>
       <path id="NimbusSanL-Regu-4c" d="M 1107 4672 
L 512 4672 
L 512 0 
L 3411 0 
L 3411 524 
L 1107 524 
L 1107 4672 
z
" transform="scale(0.015625)"/>
       <path id="NimbusSanL-Regu-2d" d="M 1818 1996 
L 294 1996 
L 294 1536 
L 1818 1536 
L 1818 1996 
z
" transform="scale(0.015625)"/>
       <path id="NimbusSanL-Regu-42" d="M 506 0 
L 2611 0 
C 3053 0 3379 121 3629 390 
C 3859 632 3987 961 3987 1321 
C 3987 1878 3731 2214 3136 2444 
C 3558 2643 3782 2994 3782 3476 
C 3782 3821 3654 4127 3411 4345 
C 3168 4569 2848 4672 2400 4672 
L 506 4672 
L 506 0 
z
M 1101 2636 
L 1101 4147 
L 2253 4147 
C 2586 4147 2771 4101 2931 3977 
C 3098 3847 3187 3652 3187 3391 
C 3187 3138 3098 2936 2931 2806 
C 2771 2682 2586 2636 2253 2636 
L 1101 2636 
z
M 1101 524 
L 1101 2112 
L 2554 2112 
C 2842 2112 3034 2042 3174 1890 
C 3315 1745 3392 1542 3392 1315 
C 3392 1093 3315 891 3174 746 
C 3034 594 2842 524 2554 524 
L 1101 524 
z
" transform="scale(0.015625)"/>
       <path id="NimbusSanL-Regu-6c" d="M 973 4672 
L 435 4672 
L 435 0 
L 973 0 
L 973 4672 
z
" transform="scale(0.015625)"/>
       <path id="NimbusSanL-Regu-64" d="M 3168 4672 
L 2637 4672 
L 2637 2937 
C 2413 3276 2054 3456 1606 3456 
C 736 3456 166 2759 166 1695 
C 166 568 723 -128 1626 -128 
C 2086 -128 2406 44 2694 460 
L 2694 19 
L 3168 19 
L 3168 4672 
z
M 1696 2956 
C 2272 2956 2637 2447 2637 1651 
C 2637 880 2266 371 1702 371 
C 1114 371 723 887 723 1663 
C 723 2440 1114 2956 1696 2956 
z
" transform="scale(0.015625)"/>
       <path id="NimbusSanL-Regu-30" d="M 1760 4544 
C 1338 4544 954 4358 717 4044 
C 422 3649 275 3043 275 2207 
C 275 683 787 -128 1760 -128 
C 2720 -128 3245 683 3245 2169 
C 3245 3049 3104 3636 2803 4044 
C 2566 4364 2189 4544 1760 4544 
z
M 1760 4044 
C 2368 4044 2669 3432 2669 2220 
C 2669 938 2374 339 1747 339 
C 1152 339 851 964 851 2201 
C 851 3438 1152 4044 1760 4044 
z
" transform="scale(0.015625)"/>
      </defs>
      <use xlink:href="#NimbusSanL-Regu-41" transform="scale(0.996264)"/>
      <use xlink:href="#NimbusSanL-Regu-76" transform="translate(62.465918 0) scale(0.996264)"/>
      <use xlink:href="#NimbusSanL-Regu-65" transform="translate(109.788488 0) scale(0.996264)"/>
      <use xlink:href="#NimbusSanL-Regu-72" transform="translate(165.180165 0) scale(0.996264)"/>
      <use xlink:href="#NimbusSanL-Regu-61" transform="translate(197.359298 0) scale(0.996264)"/>
      <use xlink:href="#NimbusSanL-Regu-67" transform="translate(252.750975 0) scale(0.996264)"/>
      <use xlink:href="#NimbusSanL-Regu-65" transform="translate(308.142652 0) scale(0.996264)"/>
      <use xlink:href="#NimbusSanL-Regu-43" transform="translate(391.229499 0) scale(0.996264)"/>
      <use xlink:href="#NimbusSanL-Regu-46" transform="translate(463.159484 0) scale(0.996264)"/>
      <use xlink:href="#NimbusSanL-Regu-4c" transform="translate(524.031114 0) scale(0.996264)"/>
      <use xlink:href="#NimbusSanL-Regu-2d" transform="translate(607.117961 0) scale(0.996264)"/>
      <use xlink:href="#NimbusSanL-Regu-42" transform="translate(667.98836 0) scale(0.996264)"/>
      <use xlink:href="#NimbusSanL-Regu-6c" transform="translate(734.438391 0) scale(0.996264)"/>
      <use xlink:href="#NimbusSanL-Regu-61" transform="translate(756.555176 0) scale(0.996264)"/>
      <use xlink:href="#NimbusSanL-Regu-64" transform="translate(811.946853 0) scale(0.996264)"/>
      <use xlink:href="#NimbusSanL-Regu-65" transform="translate(867.33853 0) scale(0.996264)"/>
      <use xlink:href="#NimbusSanL-Regu-30" transform="translate(958.595772 0) scale(0.996264)"/>
      <path d="M 928.707548 0 
L 958.595772 0 
L 958.595772 0.3985 
L 928.707548 0.3985 
L 928.707548 0 
z
"/>
     </g>
    </g>
   </g>
   <g id="line2d_12">
    <path d="M 52.785526 119.711495 
L 53.021925 72.366701 
L 53.140125 217.084519 
L 53.494723 205.378455 
L 53.849321 185.150378 
L 54.20392 150.196259 
L 54.558518 90.544132 
L 54.676718 62.679412 
L 54.794917 216.11579 
L 55.149516 203.704492 
L 55.504114 182.257769 
L 55.858712 145.226369 
L 56.213311 82.055184 
L 56.44971 17.28 
L 56.567909 211.575849 
L 56.922508 195.859473 
L 57.277106 168.706707 
L 57.631704 121.954021 
L 57.868103 73.509631 
L 57.986303 217.198812 
L 58.340901 205.575954 
L 58.6955 185.491655 
L 59.050098 150.794209 
L 59.404697 91.613343 
L 59.522896 63.960367 
L 59.641095 216.243885 
L 59.995694 203.925841 
L 60.350292 182.641011 
L 60.704891 145.901923 
L 61.059489 82.774894 
L 61.177689 52.908348 
L 61.295888 215.138683 
L 61.650486 202.016052 
L 62.005085 179.340144 
L 62.359683 140.16369 
L 62.714282 72.620637 
L 62.832481 217.109912 
L 63.18708 205.422335 
L 63.541678 185.226202 
L 63.896276 150.329974 
L 64.250875 90.117798 
L 64.369074 61.628449 
L 64.487274 216.010694 
L 64.841872 203.522885 
L 65.196471 181.944086 
L 65.551069 144.681622 
L 65.905667 80.392179 
L 66.023867 49.911523 
L 66.142066 214.839001 
L 66.496665 201.498201 
L 66.851263 178.445297 
L 67.205862 138.611283 
L 67.678659 69.799248 
L 69.68805 69.799248 
L 69.80625 216.827773 
L 70.160848 204.934799 
L 70.515447 184.38374 
L 70.870045 148.87151 
L 71.224644 87.506376 
L 71.342843 58.374796 
L 71.461043 215.685328 
L 71.815641 202.960654 
L 72.170239 180.972417 
L 72.524838 142.976744 
L 72.879436 77.335325 
L 72.997636 46.185769 
L 73.115835 214.466426 
L 73.470434 200.85439 
L 73.825032 177.332793 
L 74.17963 136.687473 
L 74.534229 66.483428 
L 74.652428 216.496191 
L 75.007027 204.361826 
L 75.361625 183.393642 
L 75.716223 147.16062 
L 76.070822 84.570531 
L 76.189021 54.918383 
L 76.307221 215.339687 
L 76.661819 202.363386 
L 77.016418 179.940338 
L 77.371016 141.19331 
L 77.725614 74.342432 
L 77.843814 217.282092 
L 78.198412 205.719862 
L 78.553011 185.740328 
L 78.907609 151.215693 
L 79.262208 91.592014 
L 79.380407 63.309005 
L 79.498607 216.178749 
L 79.853205 203.813285 
L 80.207803 182.445764 
L 80.562402 145.522687 
L 80.917 81.71961 
L 81.0352 51.431248 
L 81.153399 214.990973 
L 81.507998 201.760809 
L 81.862596 178.899085 
L 82.217194 139.394026 
L 82.571793 71.129283 
L 82.689992 216.960777 
L 83.044591 205.164629 
L 83.399189 184.780887 
L 83.753787 149.557779 
L 84.108386 88.692249 
L 84.226585 59.797843 
L 84.344785 215.827633 
L 84.699383 203.206557 
L 85.053982 181.397337 
L 85.40858 143.711005 
L 85.763178 78.589023 
L 85.881378 217.706751 
L 86.235976 206.453673 
L 86.590575 187.008353 
L 86.945173 153.406841 
L 87.299772 95.343428 
L 87.417971 67.78134 
L 87.536171 216.625983 
L 87.890769 204.586105 
L 88.245367 183.781196 
L 88.599966 147.830314 
L 88.954564 85.712371 
L 89.072764 56.236317 
L 89.190963 215.47148 
L 89.545562 202.591125 
L 89.90016 180.333871 
L 90.254758 141.873335 
L 90.609357 75.414009 
L 90.727556 43.866342 
L 90.845756 214.234483 
L 91.200354 200.453593 
L 91.554953 176.640216 
L 91.909551 135.4907 
L 92.264149 64.384337 
L 92.382349 216.286282 
L 92.736947 203.999103 
L 93.091546 182.766856 
L 93.446144 146.077535 
L 93.800742 82.678387 
L 93.918942 52.581209 
L 94.037141 215.10597 
L 94.39174 201.959522 
L 94.746338 179.242461 
L 95.100937 139.98738 
L 95.573734 72.154599 
L 96.51933 72.154599 
L 96.63753 217.063309 
L 96.992128 205.341804 
L 97.346727 185.087044 
L 97.701325 150.08682 
L 98.055923 89.606431 
L 98.174123 60.894862 
L 98.292322 215.937335 
L 98.646921 203.396121 
L 99.001519 181.724905 
L 99.356118 144.277042 
L 99.828915 79.567136 
L 100.065314 79.567136 
L 100.183514 48.847708 
L 100.301713 214.732619 
L 100.656312 201.314373 
L 101.01091 178.127644 
L 101.365509 138.060976 
L 101.720107 68.825773 
L 101.838306 216.730426 
L 102.192905 204.766583 
L 102.547503 184.093062 
L 102.902102 148.369218 
L 103.2567 86.638416 
L 103.3749 57.333244 
L 103.493099 215.581173 
L 103.847697 202.780674 
L 104.202296 180.661411 
L 104.556894 142.439325 
L 104.911493 76.391561 
L 105.029692 217.487005 
L 105.384291 206.073951 
L 105.738889 186.352194 
L 106.093487 152.272999 
L 106.448086 93.384149 
L 106.566285 65.428123 
L 106.684485 216.390661 
L 107.039083 204.179469 
L 107.393682 183.078529 
L 107.74828 146.616106 
L 108.339277 53.69799 
L 108.457477 215.217648 
L 108.812075 202.152502 
L 109.166674 179.57593 
L 109.521272 140.563614 
L 109.87587 73.150332 
L 109.99407 217.162882 
L 110.348668 205.513867 
L 110.703267 185.384369 
L 111.057865 150.600596 
L 111.412464 90.494237 
L 111.530663 61.960229 
L 111.648862 216.043872 
L 112.003461 203.580217 
L 112.358059 182.043022 
L 112.712658 144.826748 
L 113.067256 80.517028 
L 113.185456 217.899551 
L 113.540054 206.786832 
L 113.894652 187.584052 
L 114.249251 154.401649 
L 114.603849 97.062456 
L 114.722049 69.842092 
L 114.840248 216.832058 
L 115.194847 204.942203 
L 115.549445 184.396533 
L 115.904043 148.893617 
L 116.258642 87.544576 
L 116.376841 58.420636 
L 116.495041 215.689912 
L 116.849639 202.968575 
L 117.204238 180.986105 
L 117.558836 143.000396 
L 117.913434 77.361092 
L 118.031634 217.583958 
L 118.386232 206.241486 
L 118.740831 186.641695 
L 119.095429 152.773255 
L 119.450028 94.248592 
L 119.568227 66.465455 
L 119.686426 216.494394 
L 120.041025 204.35872 
L 120.395623 183.388275 
L 120.750222 147.151346 
L 121.22302 84.533933 
L 121.459419 84.533933 
L 121.577618 54.807864 
L 121.695817 215.328635 
L 122.050416 202.344288 
L 122.405014 179.907337 
L 122.759613 141.136285 
L 123.114211 74.139908 
L 123.232411 217.261839 
L 123.587009 205.684865 
L 123.941607 185.679854 
L 124.296206 151.111195 
L 124.650804 91.376552 
L 124.769004 63.019007 
L 124.887203 216.149749 
L 125.241802 203.763174 
L 125.5964 182.359171 
L 125.950998 145.373055 
L 126.423796 81.461045 
L 126.660195 81.461045 
L 126.778395 51.120399 
L 126.896594 214.959889 
L 127.251193 201.707094 
L 127.605791 178.806266 
L 127.960389 139.233634 
L 128.314988 70.852127 
L 128.433187 216.933061 
L 128.787786 205.116737 
L 129.142384 184.698128 
L 129.496983 149.414772 
L 129.851581 88.445133 
L 129.96978 59.501305 
L 130.08798 215.797979 
L 130.442578 203.155315 
L 130.797177 181.308791 
L 131.151775 143.557997 
L 131.624573 78.324626 
L 133.397565 78.324626 
L 133.515765 217.680311 
L 133.870363 206.407985 
L 134.224961 186.929405 
L 134.57956 153.270418 
L 134.934158 95.107689 
L 135.052358 67.496372 
L 135.170557 216.597486 
L 135.525156 204.536862 
L 135.879754 183.696105 
L 136.234352 147.683276 
L 136.82535 55.910875 
L 136.943549 215.438936 
L 137.298148 202.534888 
L 137.652746 180.236694 
L 138.007344 141.705414 
L 138.361943 75.123363 
L 138.480142 217.360185 
L 138.834741 205.854806 
L 139.189339 185.973512 
L 139.543937 151.618636 
L 139.898536 92.25341 
L 140.016735 64.071237 
L 140.134935 216.254972 
L 140.489533 203.944999 
L 140.844132 182.673365 
L 141.19873 145.915982 
L 141.671528 82.399224 
L 142.144326 82.399224 
L 142.262525 52.246214 
L 142.380725 215.07247 
L 142.735323 201.901635 
L 143.089922 179.142432 
L 143.44452 139.81453 
L 143.799118 71.855915 
L 143.917318 217.03344 
L 144.271916 205.290191 
L 144.626515 184.997858 
L 144.981113 149.932705 
L 145.335712 89.340121 
L 145.453911 60.575289 
L 145.57211 215.905378 
L 145.926709 203.340899 
L 146.281307 181.629481 
L 146.635906 144.11215 
L 147.226903 48.505787 
L 147.345103 214.698427 
L 147.699701 201.255289 
L 148.054299 178.025547 
L 148.408898 137.884552 
L 148.763496 68.520913 
L 148.881696 216.69994 
L 149.236294 204.713903 
L 149.590892 184.002031 
L 149.945491 148.211917 
L 150.418289 86.366599 
L 153.255076 86.366599 
L 153.373276 57.007064 
L 153.491475 215.548555 
L 153.846073 202.72431 
L 154.200672 180.564015 
L 154.55527 142.271024 
L 154.909869 76.100736 
L 155.028068 217.457922 
L 155.382667 206.023697 
L 155.737265 186.265355 
L 156.091863 152.12294 
L 156.446462 93.124846 
L 156.564661 65.11696 
L 156.682861 216.359545 
L 157.037459 204.1257 
L 157.392058 182.985617 
L 157.746656 146.455552 
L 158.101254 83.331601 
L 158.219454 218.181009 
L 158.574052 207.27319 
L 158.928651 188.424479 
L 159.283249 155.853907 
L 159.637847 99.571958 
L 159.756047 72.853495 
L 159.874246 217.133198 
L 160.228845 205.462573 
L 160.583443 185.295733 
L 160.938042 150.447434 
L 161.29264 90.229573 
L 161.41084 61.642633 
L 161.529039 216.012112 
L 161.883637 203.525336 
L 162.238236 181.948188 
L 162.592834 144.662876 
L 163.065632 80.233856 
L 164.602225 80.233856 
L 164.720425 217.871234 
L 165.075023 206.7379 
L 165.429622 187.499497 
L 165.78422 154.255538 
L 166.138818 96.809977 
L 166.257018 69.539117 
L 166.375217 216.80176 
L 166.729816 204.889849 
L 167.084414 184.306066 
L 167.439013 148.737288 
L 167.793611 87.274441 
L 167.91181 58.096474 
L 168.03001 215.657496 
L 168.384608 202.91256 
L 168.739207 180.889311 
L 169.093805 142.833136 
L 169.448404 77.072065 
L 169.566603 217.555055 
L 169.921201 206.191542 
L 170.2758 186.555392 
L 170.630398 152.624124 
L 170.984997 93.990893 
L 171.103196 66.156216 
L 171.221396 216.46347 
L 171.575994 204.305284 
L 171.930592 183.295937 
L 172.285191 146.991786 
L 172.639789 84.258212 
L 172.757989 218.27367 
L 173.112587 207.433308 
L 173.467186 188.701164 
L 173.821784 156.332018 
L 174.176382 100.398134 
L 174.294582 73.844906 
L 174.412781 217.232339 
L 174.76738 205.633889 
L 175.121978 185.591767 
L 175.476577 150.95898 
L 176.067574 62.703375 
L 176.185773 216.118186 
L 176.540372 203.708633 
L 176.89497 182.264924 
L 177.249569 145.210195 
L 177.604167 81.179624 
L 177.722366 217.965811 
L 178.076965 206.901328 
L 178.431563 187.781902 
L 178.786162 154.743534 
L 179.14076 97.653234 
L 179.25896 70.551025 
L 179.377159 216.902951 
L 179.731757 205.064707 
L 180.086356 184.60822 
L 180.440954 149.259411 
L 181.031952 59.179147 
L 181.150151 215.765763 
L 181.50475 203.099646 
L 181.859348 181.212595 
L 182.213946 143.391771 
L 182.568545 78.037387 
L 182.686744 217.651587 
L 183.041343 206.35835 
L 183.395941 186.843635 
L 183.750539 153.122209 
L 184.105138 94.851584 
L 184.223337 67.189045 
L 184.341537 216.566753 
L 184.696135 204.483756 
L 185.050734 183.604338 
L 185.405332 147.524703 
L 185.996329 55.582056 
L 186.114529 215.406054 
L 186.469127 202.478069 
L 186.823726 180.13851 
L 187.178324 141.535751 
L 187.532922 74.830185 
L 187.651122 217.330867 
L 188.00572 205.804145 
L 188.360319 185.88597 
L 188.714917 151.467363 
L 189.069516 91.99201 
L 189.187715 63.757557 
L 189.305915 216.223604 
L 189.660513 203.890795 
L 190.015111 182.579701 
L 190.36971 145.75413 
L 190.724308 82.119544 
L 190.842508 51.910597 
L 190.960707 215.038908 
L 191.315306 201.843641 
L 191.669904 179.042218 
L 192.024502 139.641359 
L 192.379101 71.556675 
L 192.4973 217.003516 
L 192.851899 205.238483 
L 193.206497 184.908505 
L 193.561095 149.778304 
L 193.915694 89.073316 
L 194.033893 60.255124 
L 194.152093 215.873361 
L 194.506691 203.285575 
L 194.86129 181.53388 
L 195.215888 143.946952 
L 195.570486 78.996739 
L 195.688686 217.747523 
L 196.043284 206.524126 
L 196.397883 187.130096 
L 196.752481 153.617213 
L 197.10708 95.706952 
L 197.225279 68.215487 
L 197.343479 216.669397 
L 197.698077 204.661125 
L 198.052675 183.910832 
L 198.407274 148.054324 
L 198.761872 86.094279 
L 198.880072 56.680279 
L 198.998271 215.515877 
L 199.35287 202.667842 
L 199.707468 180.466437 
L 200.062066 142.10241 
L 200.534864 75.809372 
L 201.835058 75.809372 
L 201.953258 217.428786 
L 202.307856 205.973349 
L 202.662455 186.178354 
L 203.017053 151.972602 
L 203.371652 92.865063 
L 203.489851 64.80522 
L 203.60805 216.328371 
L 203.962649 204.071831 
L 204.317247 182.892531 
L 204.671846 146.294701 
L 205.026444 83.053651 
L 205.144644 218.153214 
L 205.499242 207.22516 
L 205.85384 188.341484 
L 206.208439 155.710491 
L 206.563037 99.324135 
L 206.681237 72.556106 
L 206.799436 217.103459 
L 207.154035 205.411184 
L 207.508633 185.206934 
L 207.863231 150.293988 
L 208.21783 89.964419 
L 208.336029 61.324447 
L 208.454229 215.980293 
L 208.808827 203.470354 
L 209.163426 181.853178 
L 209.518024 144.498699 
L 210.109021 49.307335 
L 210.227221 214.778582 
L 210.581819 201.393797 
L 210.936418 178.264888 
L 211.291016 138.298133 
L 211.645614 69.235581 
L 211.763814 216.771407 
L 212.118412 204.837398 
L 212.473011 184.21543 
L 212.827609 148.58067 
L 213.418607 57.77171 
L 213.536806 215.62502 
L 213.891404 202.856441 
L 214.246003 180.792337 
L 214.600601 142.665565 
L 214.9552 76.782503 
L 215.073399 217.526099 
L 215.427998 206.141506 
L 215.782596 186.468929 
L 216.137194 152.474716 
L 216.491793 93.732716 
L 216.609992 65.846404 
L 216.728192 216.432489 
L 217.08279 204.251748 
L 217.437389 183.203427 
L 217.791987 146.831929 
L 218.382984 54.145521 
L 218.501184 215.262401 
L 218.855782 202.229835 
L 219.210381 179.709563 
L 219.564979 140.794531 
L 219.919577 73.549356 
L 220.037777 217.202784 
L 220.392375 205.582818 
L 220.746974 185.503517 
L 221.101572 150.806484 
L 221.456171 90.85001 
L 221.57437 62.387157 
L 221.692569 216.086564 
L 222.047168 203.65399 
L 222.401766 182.170502 
L 222.756365 145.047034 
L 223.229163 80.897681 
L 226.184149 80.897681 
L 226.302349 50.444362 
L 226.420548 214.892285 
L 226.775147 201.590275 
L 227.129745 178.604402 
L 227.484343 138.884814 
L 227.838942 70.249366 
L 227.957141 216.872785 
L 228.31174 205.01258 
L 228.666338 184.518145 
L 229.020937 149.103761 
L 229.375535 87.907706 
L 229.493734 58.856391 
L 229.611934 215.733488 
L 229.966532 203.043874 
L 230.321131 181.116221 
L 230.675729 143.225236 
L 231.030328 77.749615 
L 231.148527 217.62281 
L 231.503125 206.308623 
L 231.857724 186.757707 
L 232.212322 152.973725 
L 232.566921 94.595003 
L 232.68512 66.881149 
L 232.80332 216.535964 
L 233.157918 204.430552 
L 233.512516 183.5124 
L 233.867115 147.365835 
L 234.221713 84.90457 
L 234.339913 218.338306 
L 234.694511 207.544999 
L 235.04911 188.894165 
L 235.403708 156.665524 
L 235.758306 100.974433 
L 235.876506 74.536464 
L 235.994705 217.301495 
L 236.349304 205.75339 
L 236.703902 185.798265 
L 237.058501 151.315809 
L 237.413099 91.730125 
L 237.531298 63.443295 
L 237.649498 216.192178 
L 238.004096 203.836491 
L 238.358695 182.485863 
L 238.713293 145.591978 
L 239.067892 81.839345 
L 239.186091 218.031783 
L 239.540689 207.015328 
L 239.895288 187.978894 
L 240.249886 155.083935 
L 240.604485 98.241447 
L 240.722684 71.256881 
L 240.840884 216.973537 
L 241.195482 205.186678 
L 241.55008 184.818987 
L 241.904679 149.623617 
L 242.259277 88.806017 
L 242.377477 218.72845 
L 242.732075 208.219169 
L 243.086674 190.059131 
L 243.441272 158.678585 
L 243.79587 104.453002 
L 243.91407 78.710747 
L 244.032269 217.718923 
L 244.386868 206.474706 
L 244.741466 187.0447 
L 245.096065 153.469648 
L 245.450663 95.451958 
L 245.568862 67.909495 
L 245.687062 216.638798 
L 246.04166 204.60825 
L 246.396259 183.819463 
L 246.750857 147.896439 
L 247.341855 56.352888 
L 247.460054 215.483137 
L 247.814652 202.611268 
L 248.169251 180.368679 
L 248.523849 141.933484 
L 248.878448 75.517467 
L 248.996647 217.399595 
L 249.351246 205.922908 
L 249.705844 186.091191 
L 250.060442 151.821985 
L 250.415041 92.604797 
L 250.53324 64.492902 
L 250.65144 216.297139 
L 251.006038 204.017863 
L 251.360637 182.799274 
L 251.715235 146.133552 
L 252.188033 82.775184 
L 254.670222 82.775184 
L 254.788421 52.697366 
L 254.906621 215.117585 
L 255.261219 201.979594 
L 255.615817 179.277146 
L 255.970416 140.047314 
L 256.325014 72.258166 
L 256.443214 217.073665 
L 256.797812 205.3597 
L 257.152411 185.117969 
L 257.507009 150.140258 
L 257.861607 89.698772 
L 257.979807 61.005671 
L 258.098006 215.948416 
L 258.452605 203.415269 
L 258.807203 181.757992 
L 259.161802 144.334218 
L 259.5164 79.665935 
L 259.634599 217.814442 
L 259.989198 206.639763 
L 260.343796 187.329917 
L 260.698395 153.962504 
L 261.052993 96.303613 
L 261.171193 68.931481 
L 261.289392 216.740997 
L 261.64399 204.784849 
L 261.998589 184.124626 
L 262.353187 148.423761 
L 262.707786 86.732666 
L 262.825985 218.521115 
L 263.180584 207.860894 
L 263.535182 189.440032 
L 263.88978 157.608782 
L 264.244379 102.604382 
L 264.362578 76.492403 
L 264.480778 217.497089 
L 264.835376 206.091377 
L 265.189975 186.382306 
L 265.544573 152.325031 
L 266.13557 65.536017 
L 266.25377 216.40145 
L 266.608368 204.198113 
L 266.962967 183.110746 
L 267.317565 146.671776 
L 267.672163 83.705236 
L 267.790363 218.218372 
L 268.144961 207.337754 
L 268.49956 188.536046 
L 268.854158 156.046695 
L 269.208757 99.905095 
L 269.326956 73.253259 
L 269.445156 217.173175 
L 269.799754 205.531652 
L 270.154352 185.415102 
L 270.508951 150.653704 
L 270.863549 90.586007 
L 270.981749 62.070353 
L 271.099948 216.054884 
L 271.454547 203.599246 
L 271.809145 182.075904 
L 272.163743 144.88357 
L 272.518342 80.615216 
L 272.636541 217.90937 
L 272.99114 206.803799 
L 273.345738 187.613371 
L 273.700336 154.452312 
L 274.054935 97.150001 
L 274.173134 69.947146 
L 274.291334 216.842563 
L 274.645932 204.960356 
L 275.000531 184.427902 
L 275.355129 148.947822 
L 275.946126 58.533037 
L 276.064326 215.701152 
L 276.418924 202.987998 
L 276.773523 181.019668 
L 277.128121 143.058393 
L 277.482719 77.461309 
L 277.600919 217.59398 
L 277.955517 206.258804 
L 278.310116 186.67162 
L 278.664714 152.824965 
L 279.019313 94.337947 
L 279.137512 66.572681 
L 279.255712 216.505117 
L 279.61031 204.377249 
L 279.964908 183.420293 
L 280.319507 147.206672 
L 280.674105 84.629537 
L 280.792305 218.310802 
L 281.146903 207.497473 
L 281.501501 188.812041 
L 281.8561 156.523613 
L 282.210698 100.72921 
L 282.328898 74.242197 
L 282.447097 217.272068 
L 282.801696 205.702541 
L 283.156294 185.710398 
L 283.510892 151.163974 
L 283.865491 91.467754 
L 283.98369 63.12845 
L 284.10189 216.160694 
L 284.456488 203.782085 
L 284.811087 182.391851 
L 285.165685 145.429525 
L 285.520283 81.558626 
L 285.638483 218.003711 
L 285.993081 206.96682 
L 286.34768 187.895072 
L 286.702278 154.939091 
L 287.056877 97.991155 
L 287.175076 70.956531 
L 287.293276 216.943502 
L 287.647874 205.134778 
L 288.002472 184.729303 
L 288.357071 149.468643 
L 288.829869 88.538221 
L 290.957459 88.538221 
L 291.075659 59.61301 
L 291.193858 215.80915 
L 291.548456 203.174618 
L 291.903055 181.342146 
L 292.257653 143.615635 
L 292.612252 78.424224 
L 292.730451 217.690271 
L 293.08505 206.425195 
L 293.439648 186.959144 
L 293.794246 153.321808 
L 294.148845 95.196492 
L 294.267044 67.602935 
L 294.385244 216.608142 
L 294.739842 204.555276 
L 295.094441 183.727925 
L 295.449039 147.738261 
L 295.921837 85.548121 
L 296.749233 85.548121 
L 296.867433 218.402661 
L 297.222031 207.656205 
L 297.576629 189.086329 
L 297.931228 156.997583 
L 298.285826 101.548229 
L 298.404026 75.22502 
L 298.522225 217.370351 
L 298.876824 205.872373 
L 299.231422 186.003867 
L 299.58602 151.671089 
L 300.058818 92.344049 
L 300.177018 92.344049 
L 300.295217 64.180003 
L 300.413417 216.265849 
L 300.768015 203.963794 
L 301.122614 182.705843 
L 301.477212 145.972103 
L 301.83181 82.496201 
L 301.95001 218.097469 
L 302.304608 207.128833 
L 302.659207 188.17503 
L 303.013805 155.422859 
L 303.368404 98.827107 
L 303.486603 71.959673 
L 303.604802 217.043816 
L 303.959401 205.308121 
L 304.313999 185.02884 
L 304.668598 149.986242 
L 305.259595 60.686304 
L 305.377795 215.916479 
L 305.732393 203.360083 
L 306.086991 181.66263 
L 306.44159 144.169431 
L 306.796188 79.381184 
L 306.914388 217.785967 
L 307.268986 206.590558 
L 307.623584 187.244891 
L 307.978183 153.815578 
L 308.332781 96.049726 
L 308.450981 68.626817 
L 308.56918 216.71053 
L 308.923779 204.732203 
L 309.278377 184.033654 
L 309.632975 148.266561 
L 309.987574 86.461024 
L 310.105773 218.493951 
L 310.460372 207.813954 
L 310.81497 189.35892 
L 311.169569 157.468621 
L 311.524167 102.362183 
L 311.642366 76.201765 
L 311.760566 217.468025 
L 312.115164 206.041154 
L 312.469763 186.295521 
L 312.824361 152.175068 
L 313.415359 65.225054 
L 313.533558 216.370354 
L 313.888156 204.144379 
L 314.242755 183.017893 
L 314.597353 146.511326 
L 314.951952 83.427979 
L 315.070151 218.190647 
L 315.42475 207.289844 
L 315.779348 188.453257 
L 316.133946 155.903636 
L 316.488545 99.657889 
L 316.606744 72.956612 
L 316.724944 217.14351 
L 317.079542 205.480392 
L 317.43414 185.326524 
L 317.788739 150.50064 
L 318.143337 90.321513 
L 318.261537 218.88 
L 318.616135 208.481047 
L 318.970734 190.511656 
L 319.325332 159.460548 
L 319.67993 105.804234 
L 319.79813 80.332226 
L 319.916329 217.881071 
L 320.270928 206.754898 
L 320.625526 187.528871 
L 320.980125 154.306295 
L 321.334723 96.897685 
L 321.452922 69.644367 
L 321.571122 216.812285 
L 321.92572 204.908036 
L 322.280319 184.337493 
L 322.634917 148.791595 
L 322.989516 87.368282 
L 323.107715 218.584677 
L 323.462313 207.970729 
L 323.816912 189.629826 
L 324.17151 157.936746 
L 324.526109 103.171103 
L 324.644308 77.172469 
L 324.762508 217.565096 
L 325.117106 206.208892 
L 325.471704 186.585372 
L 325.826303 152.67593 
L 326.299101 94.080414 
L 330.436082 94.080414 
L 330.554282 66.263641 
L 330.672481 216.474213 
L 331.02708 204.323847 
L 331.381678 183.328014 
L 331.736276 147.047215 
L 332.090875 84.353994 
L 332.209074 218.283248 
L 332.563673 207.449859 
L 332.918271 188.729764 
L 333.27287 156.381439 
L 333.627468 100.483534 
L 333.745667 73.947385 
L 333.863867 217.242587 
L 334.218465 205.651597 
L 334.573064 185.622367 
L 334.927662 151.011858 
L 335.282261 91.204897 
L 335.40046 62.813021 
L 335.518659 216.129151 
L 335.873258 203.727579 
L 336.227856 182.297664 
L 336.582455 145.26677 
L 337.055253 81.277386 
L 347.693205 81.277386 
L 347.811404 50.900008 
L 347.929604 214.937849 
L 348.284202 201.669011 
L 348.638801 178.740457 
L 348.993399 139.119917 
L 349.347998 70.655624 
L 349.466197 216.913411 
L 349.820795 205.082781 
L 350.175394 184.639453 
L 350.529992 149.313381 
L 350.884591 88.269929 
L 351.00279 59.29106 
L 351.12099 215.776955 
L 351.475588 203.118984 
L 351.830186 181.246012 
L 352.184785 143.449516 
L 352.539383 78.13717 
L 352.657583 47.131749 
L 352.775782 214.561024 
L 353.130381 201.017856 
L 353.484979 177.615261 
L 353.839577 137.175578 
L 354.194176 67.295806 
L 354.312375 216.577429 
L 354.666974 204.502205 
L 355.021572 183.636216 
L 355.376171 147.579789 
L 355.730769 85.274282 
L 355.848968 55.696283 
L 355.967168 215.417477 
L 356.321766 202.497807 
L 356.676365 180.172617 
L 357.030963 141.59469 
L 357.149163 123.280773 
L 357.149163 123.280773 
" clip-path="url(#p48d3e3ba94)" style="fill: none; stroke: #1f77b4; stroke-width: 1.5; stroke-linecap: square"/>
   </g>
   <g id="patch_3">
    <path d="M 37.567344 228.96 
L 37.567344 7.2 
" style="fill: none; stroke: #000000; stroke-width: 0.8; stroke-linejoin: miter; stroke-linecap: square"/>
   </g>
   <g id="patch_4">
    <path d="M 372.367344 228.96 
L 372.367344 7.2 
" style="fill: none; stroke: #000000; stroke-width: 0.8; stroke-linejoin: miter; stroke-linecap: square"/>
   </g>
   <g id="patch_5">
    <path d="M 37.567344 228.96 
L 372.367344 228.96 
" style="fill: none; stroke: #000000; stroke-width: 0.8; stroke-linejoin: miter; stroke-linecap: square"/>
   </g>
   <g id="patch_6">
    <path d="M 37.567344 7.2 
L 372.367344 7.2 
" style="fill: none; stroke: #000000; stroke-width: 0.8; stroke-linejoin: miter; stroke-linecap: square"/>
   </g>
   <g id="legend_1">
    <g id="patch_7">
     <path d="M 314.548024 29.420307 
L 365.367344 29.420307 
Q 367.367344 29.420307 367.367344 27.420307 
L 367.367344 14.2 
Q 367.367344 12.2 365.367344 12.2 
L 314.548024 12.2 
Q 312.548024 12.2 312.548024 14.2 
L 312.548024 27.420307 
Q 312.548024 29.420307 314.548024 29.420307 
z
" style="fill: #ffffff; opacity: 0.8; stroke: #cccccc; stroke-linejoin: miter"/>
    </g>
    <g id="line2d_13">
     <path d="M 316.548024 19.79832 
L 326.548024 19.79832 
L 336.548024 19.79832 
" style="fill: none; stroke: #1f77b4; stroke-width: 1.5; stroke-linecap: square"/>
    </g>
    <g id="text_14">
     <!-- CFL -->
     <g transform="translate(344.548024 23.29832) scale(0.1 -0.1)">
      <use xlink:href="#NimbusSanL-Regu-43" transform="scale(0.996264)"/>
      <use xlink:href="#NimbusSanL-Regu-46" transform="translate(71.929985 0) scale(0.996264)"/>
      <use xlink:href="#NimbusSanL-Regu-4c" transform="translate(132.801616 0) scale(0.996264)"/>
     </g>
    </g>
   </g>
  </g>
 </g>
 <defs>
  <clipPath id="p48d3e3ba94">
   <rect x="37.567344" y="7.2" width="334.8" height="221.76"/>
  </clipPath>
 </defs>
</svg>
