<?xml version="1.0" encoding="utf-8" standalone="no"?>
<!DOCTYPE svg PUBLIC "-//W3C//DTD SVG 1.1//EN"
  "http://www.w3.org/Graphics/SVG/1.1/DTD/svg11.dtd">
<svg xmlns:xlink="http://www.w3.org/1999/xlink" width="417.314698pt" height="265.600613pt" viewBox="0 0 417.314698 265.600613" xmlns="http://www.w3.org/2000/svg" version="1.1">
 <metadata>
  <rdf:RDF xmlns:dc="http://purl.org/dc/elements/1.1/" xmlns:cc="http://creativecommons.org/ns#" xmlns:rdf="http://www.w3.org/1999/02/22-rdf-syntax-ns#">
   <cc:Work>
    <dc:type rdf:resource="http://purl.org/dc/dcmitype/StillImage"/>
    <dc:date>2025-08-02T14:04:30.864792</dc:date>
    <dc:format>image/svg+xml</dc:format>
    <dc:creator>
     <cc:Agent>
      <dc:title>Matplotlib v3.10.3, https://matplotlib.org/</dc:title>
     </cc:Agent>
    </dc:creator>
   </cc:Work>
  </rdf:RDF>
 </metadata>
 <defs>
  <style type="text/css">*{stroke-linejoin: round; stroke-linecap: butt}</style>
 </defs>
 <g id="figure_1">
  <g id="patch_1">
   <path d="M 0 265.600613 
L 417.314698 265.600613 
L 417.314698 0 
L 0 0 
z
" style="fill: #ffffff"/>
  </g>
  <g id="axes_1">
   <g id="patch_2">
    <path d="M 40.150386 228.96 
L 374.950386 228.96 
L 374.950386 7.2 
L 40.150386 7.2 
z
" style="fill: #ffffff"/>
   </g>
   <g id="matplotlib.axis_1">
    <g id="xtick_1">
     <g id="line2d_1">
      <defs>
       <path id="md3dfdca2ba" d="M 0 0 
L 0 3.5 
" style="stroke: #000000; stroke-width: 0.8"/>
      </defs>
      <g>
       <use xlink:href="#md3dfdca2ba" x="55.368567" y="228.96" style="stroke: #000000; stroke-width: 0.8"/>
      </g>
     </g>
     <g id="text_1">
      <!-- $\mathdefault{0}$ -->
      <g transform="translate(52.8779 243.05832) scale(0.1 -0.1)">
       <defs>
        <path id="CMR17-30" d="M 2688 2038 
C 2688 2430 2682 3099 2413 3613 
C 2176 4063 1798 4224 1466 4224 
C 1158 4224 768 4082 525 3620 
C 269 3137 243 2539 243 2038 
C 243 1671 250 1112 448 623 
C 723 -39 1216 -128 1466 -128 
C 1760 -128 2208 -7 2470 604 
C 2662 1048 2688 1568 2688 2038 
z
M 1466 -26 
C 1056 -26 813 328 723 816 
C 653 1196 653 1749 653 2109 
C 653 2604 653 3015 736 3407 
C 858 3954 1216 4121 1466 4121 
C 1728 4121 2067 3947 2189 3420 
C 2272 3054 2278 2623 2278 2109 
C 2278 1691 2278 1176 2202 797 
C 2067 96 1690 -26 1466 -26 
z
" transform="scale(0.015625)"/>
       </defs>
       <use xlink:href="#CMR17-30" transform="scale(0.996264)"/>
      </g>
     </g>
    </g>
    <g id="xtick_2">
     <g id="line2d_2">
      <g>
       <use xlink:href="#md3dfdca2ba" x="114.468303" y="228.96" style="stroke: #000000; stroke-width: 0.8"/>
      </g>
     </g>
     <g id="text_2">
      <!-- $\mathdefault{500}$ -->
      <g transform="translate(106.9963 243.05832) scale(0.1 -0.1)">
       <defs>
        <path id="CMR17-35" d="M 730 3750 
C 794 3724 1056 3641 1325 3641 
C 1920 3641 2246 3961 2432 4140 
C 2432 4191 2432 4224 2394 4224 
C 2387 4224 2374 4224 2323 4198 
C 2099 4102 1837 4032 1517 4032 
C 1325 4032 1037 4055 723 4191 
C 653 4224 640 4224 634 4224 
C 602 4224 595 4217 595 4090 
L 595 2231 
C 595 2113 595 2080 659 2080 
C 691 2080 704 2093 736 2139 
C 941 2435 1222 2560 1542 2560 
C 1766 2560 2246 2415 2246 1293 
C 2246 1087 2246 716 2054 422 
C 1894 159 1645 25 1370 25 
C 947 25 518 319 403 812 
C 429 806 480 793 506 793 
C 589 793 749 838 749 1036 
C 749 1209 627 1280 506 1280 
C 358 1280 262 1190 262 1011 
C 262 454 704 -128 1382 -128 
C 2042 -128 2669 441 2669 1267 
C 2669 2054 2170 2662 1549 2662 
C 1222 2662 947 2540 730 2304 
L 730 3750 
z
" transform="scale(0.015625)"/>
       </defs>
       <use xlink:href="#CMR17-35" transform="scale(0.996264)"/>
       <use xlink:href="#CMR17-30" transform="translate(45.690477 0) scale(0.996264)"/>
       <use xlink:href="#CMR17-30" transform="translate(91.380954 0) scale(0.996264)"/>
      </g>
     </g>
    </g>
    <g id="xtick_3">
     <g id="line2d_3">
      <g>
       <use xlink:href="#md3dfdca2ba" x="173.568038" y="228.96" style="stroke: #000000; stroke-width: 0.8"/>
      </g>
     </g>
     <g id="text_3">
      <!-- $\mathdefault{1000}$ -->
      <g transform="translate(163.605367 243.05832) scale(0.1 -0.1)">
       <defs>
        <path id="CMR17-31" d="M 1702 4083 
C 1702 4217 1696 4224 1606 4224 
C 1357 3927 979 3833 621 3820 
C 602 3820 570 3820 563 3808 
C 557 3795 557 3782 557 3648 
C 755 3648 1088 3686 1344 3839 
L 1344 467 
C 1344 243 1331 166 781 166 
L 589 166 
L 589 0 
C 896 6 1216 12 1523 12 
C 1830 12 2150 6 2458 0 
L 2458 166 
L 2266 166 
C 1715 166 1702 236 1702 467 
L 1702 4083 
z
" transform="scale(0.015625)"/>
       </defs>
       <use xlink:href="#CMR17-31" transform="scale(0.996264)"/>
       <use xlink:href="#CMR17-30" transform="translate(45.690477 0) scale(0.996264)"/>
       <use xlink:href="#CMR17-30" transform="translate(91.380954 0) scale(0.996264)"/>
       <use xlink:href="#CMR17-30" transform="translate(137.071431 0) scale(0.996264)"/>
      </g>
     </g>
    </g>
    <g id="xtick_4">
     <g id="line2d_4">
      <g>
       <use xlink:href="#md3dfdca2ba" x="232.667773" y="228.96" style="stroke: #000000; stroke-width: 0.8"/>
      </g>
     </g>
     <g id="text_4">
      <!-- $\mathdefault{1500}$ -->
      <g transform="translate(222.705103 243.05832) scale(0.1 -0.1)">
       <use xlink:href="#CMR17-31" transform="scale(0.996264)"/>
       <use xlink:href="#CMR17-35" transform="translate(45.690477 0) scale(0.996264)"/>
       <use xlink:href="#CMR17-30" transform="translate(91.380954 0) scale(0.996264)"/>
       <use xlink:href="#CMR17-30" transform="translate(137.071431 0) scale(0.996264)"/>
      </g>
     </g>
    </g>
    <g id="xtick_5">
     <g id="line2d_5">
      <g>
       <use xlink:href="#md3dfdca2ba" x="291.767508" y="228.96" style="stroke: #000000; stroke-width: 0.8"/>
      </g>
     </g>
     <g id="text_5">
      <!-- $\mathdefault{2000}$ -->
      <g transform="translate(281.804838 243.05832) scale(0.1 -0.1)">
       <defs>
        <path id="CMR17-32" d="M 2669 990 
L 2554 990 
C 2490 537 2438 460 2413 422 
C 2381 371 1920 371 1830 371 
L 602 371 
C 832 620 1280 1073 1824 1596 
C 2214 1966 2669 2400 2669 3033 
C 2669 3788 2067 4224 1395 4224 
C 691 4224 262 3603 262 3027 
C 262 2777 448 2745 525 2745 
C 589 2745 781 2783 781 3007 
C 781 3206 614 3264 525 3264 
C 486 3264 448 3257 422 3244 
C 544 3788 915 4057 1306 4057 
C 1862 4057 2227 3616 2227 3033 
C 2227 2477 1901 1998 1536 1583 
L 262 147 
L 262 0 
L 2515 0 
L 2669 990 
z
" transform="scale(0.015625)"/>
       </defs>
       <use xlink:href="#CMR17-32" transform="scale(0.996264)"/>
       <use xlink:href="#CMR17-30" transform="translate(45.690477 0) scale(0.996264)"/>
       <use xlink:href="#CMR17-30" transform="translate(91.380954 0) scale(0.996264)"/>
       <use xlink:href="#CMR17-30" transform="translate(137.071431 0) scale(0.996264)"/>
      </g>
     </g>
    </g>
    <g id="xtick_6">
     <g id="line2d_6">
      <g>
       <use xlink:href="#md3dfdca2ba" x="350.867244" y="228.96" style="stroke: #000000; stroke-width: 0.8"/>
      </g>
     </g>
     <g id="text_6">
      <!-- $\mathdefault{2500}$ -->
      <g transform="translate(340.904573 243.05832) scale(0.1 -0.1)">
       <use xlink:href="#CMR17-32" transform="scale(0.996264)"/>
       <use xlink:href="#CMR17-35" transform="translate(45.690477 0) scale(0.996264)"/>
       <use xlink:href="#CMR17-30" transform="translate(91.380954 0) scale(0.996264)"/>
       <use xlink:href="#CMR17-30" transform="translate(137.071431 0) scale(0.996264)"/>
      </g>
     </g>
    </g>
    <g id="text_7">
     <!-- Iteration -->
     <g transform="translate(189.603009 256.278627) scale(0.1 -0.1)">
      <defs>
       <path id="NimbusSanL-Regu-49" d="M 1242 4672 
L 640 4672 
L 640 0 
L 1242 0 
L 1242 4672 
z
" transform="scale(0.015625)"/>
       <path id="NimbusSanL-Regu-74" d="M 1626 3328 
L 1075 3328 
L 1075 4249 
L 544 4249 
L 544 3328 
L 90 3328 
L 90 2892 
L 544 2892 
L 544 402 
C 544 64 774 -128 1190 -128 
C 1318 -128 1446 -116 1626 -84 
L 1626 364 
C 1555 345 1472 339 1370 339 
C 1139 339 1075 402 1075 634 
L 1075 2892 
L 1626 2892 
L 1626 3328 
z
" transform="scale(0.015625)"/>
       <path id="NimbusSanL-Regu-65" d="M 3283 1484 
C 3283 1998 3245 2311 3149 2565 
C 2931 3123 2419 3456 1792 3456 
C 858 3456 256 2734 256 1619 
C 256 545 838 -128 1779 -128 
C 2547 -128 3078 307 3213 1018 
L 2675 1018 
C 2528 588 2227 364 1798 364 
C 1459 364 1171 514 992 787 
C 864 974 819 1161 813 1484 
L 3283 1484 
z
M 826 1920 
C 870 2552 1248 2963 1786 2963 
C 2310 2963 2714 2519 2714 1959 
C 2714 1946 2714 1933 2707 1920 
L 826 1920 
z
" transform="scale(0.015625)"/>
       <path id="NimbusSanL-Regu-72" d="M 442 3328 
L 442 0 
L 979 0 
L 979 1727 
C 979 2203 1101 2514 1357 2698 
C 1523 2819 1683 2857 2054 2863 
L 2054 3404 
C 1965 3449 1920 3456 1850 3456 
C 1504 3456 1242 3251 934 2750 
L 934 3328 
L 442 3328 
z
" transform="scale(0.015625)"/>
       <path id="NimbusSanL-Regu-61" d="M 3424 332 
C 3366 320 3341 320 3309 320 
C 3123 320 3021 415 3021 581 
L 3021 2542 
C 3021 3135 2586 3456 1760 3456 
C 1274 3456 870 3315 646 3065 
C 493 2893 429 2702 416 2370 
L 954 2370 
C 998 2778 1242 2963 1741 2963 
C 2221 2963 2490 2784 2490 2466 
L 2490 2326 
C 2490 2103 2355 2007 1933 1956 
C 1178 1861 1062 1835 858 1753 
C 467 1593 269 1294 269 861 
C 269 256 691 -128 1370 -128 
C 1792 -128 2131 19 2509 364 
C 2547 25 2714 -128 3059 -128 
C 3168 -128 3251 -116 3424 -71 
L 3424 332 
z
M 2490 1071 
C 2490 893 2438 785 2278 638 
C 2061 441 1798 339 1485 339 
C 1069 339 826 536 826 874 
C 826 1224 1062 1402 1632 1485 
C 2195 1562 2310 1587 2490 1670 
L 2490 1071 
z
" transform="scale(0.015625)"/>
       <path id="NimbusSanL-Regu-69" d="M 960 3358 
L 429 3358 
L 429 0 
L 960 0 
L 960 3358 
z
M 960 4672 
L 422 4672 
L 422 3999 
L 960 3999 
L 960 4672 
z
" transform="scale(0.015625)"/>
       <path id="NimbusSanL-Regu-6f" d="M 1741 3456 
C 800 3456 230 2784 230 1663 
C 230 543 794 -128 1747 -128 
C 2688 -128 3264 543 3264 1638 
C 3264 2791 2707 3456 1741 3456 
z
M 1747 2963 
C 2349 2963 2707 2472 2707 1644 
C 2707 861 2336 364 1747 364 
C 1152 364 787 855 787 1663 
C 787 2466 1152 2963 1747 2963 
z
" transform="scale(0.015625)"/>
       <path id="NimbusSanL-Regu-6e" d="M 448 3328 
L 448 0 
L 986 0 
L 986 1835 
C 986 2539 1344 2988 1894 2988 
C 2317 2988 2586 2732 2586 2328 
L 2586 0 
L 3117 0 
L 3117 2539 
C 3117 3097 2701 3456 2054 3456 
C 1555 3456 1235 3263 941 2796 
L 941 3328 
L 448 3328 
z
" transform="scale(0.015625)"/>
      </defs>
      <use xlink:href="#NimbusSanL-Regu-49" transform="scale(0.996264)"/>
      <use xlink:href="#NimbusSanL-Regu-74" transform="translate(27.69517 0) scale(0.996264)"/>
      <use xlink:href="#NimbusSanL-Regu-65" transform="translate(55.390339 0) scale(0.996264)"/>
      <use xlink:href="#NimbusSanL-Regu-72" transform="translate(110.782016 0) scale(0.996264)"/>
      <use xlink:href="#NimbusSanL-Regu-61" transform="translate(142.961149 0) scale(0.996264)"/>
      <use xlink:href="#NimbusSanL-Regu-74" transform="translate(198.352826 0) scale(0.996264)"/>
      <use xlink:href="#NimbusSanL-Regu-69" transform="translate(226.047996 0) scale(0.996264)"/>
      <use xlink:href="#NimbusSanL-Regu-6f" transform="translate(248.16478 0) scale(0.996264)"/>
      <use xlink:href="#NimbusSanL-Regu-6e" transform="translate(303.556457 0) scale(0.996264)"/>
     </g>
    </g>
   </g>
   <g id="matplotlib.axis_2">
    <g id="ytick_1">
     <g id="line2d_7">
      <defs>
       <path id="m037e92a5a0" d="M 0 0 
L -3.5 0 
" style="stroke: #000000; stroke-width: 0.8"/>
      </defs>
      <g>
       <use xlink:href="#m037e92a5a0" x="40.150386" y="197.445247" style="stroke: #000000; stroke-width: 0.8"/>
      </g>
     </g>
     <g id="text_8">
      <!-- $\mathdefault{−6}$ -->
      <g transform="translate(20.420307 200.994407) scale(0.1 -0.1)">
       <defs>
        <path id="CMSY10-0" d="M 4218 1472 
C 4326 1472 4442 1472 4442 1600 
C 4442 1728 4326 1728 4218 1728 
L 755 1728 
C 646 1728 531 1728 531 1600 
C 531 1472 646 1472 755 1472 
L 4218 1472 
z
" transform="scale(0.015625)"/>
        <path id="CMR17-36" d="M 678 2198 
C 678 3712 1395 4076 1811 4076 
C 1946 4076 2272 4049 2400 3782 
C 2298 3782 2106 3782 2106 3558 
C 2106 3385 2246 3328 2336 3328 
C 2394 3328 2566 3353 2566 3571 
C 2566 3987 2246 4224 1805 4224 
C 1043 4224 243 3411 243 2011 
C 243 257 966 -128 1478 -128 
C 2099 -128 2688 431 2688 1295 
C 2688 2101 2170 2688 1517 2688 
C 1126 2688 838 2430 678 1979 
L 678 2198 
z
M 1478 25 
C 691 25 691 1212 691 1450 
C 691 1914 909 2585 1504 2585 
C 1613 2585 1926 2585 2138 2140 
C 2253 1889 2253 1624 2253 1302 
C 2253 954 2253 696 2118 438 
C 1978 173 1773 25 1478 25 
z
" transform="scale(0.015625)"/>
       </defs>
       <use xlink:href="#CMSY10-0" transform="scale(0.996264)"/>
       <use xlink:href="#CMR17-36" transform="translate(77.487468 0) scale(0.996264)"/>
      </g>
     </g>
    </g>
    <g id="ytick_2">
     <g id="line2d_8">
      <g>
       <use xlink:href="#m037e92a5a0" x="40.150386" y="154.606346" style="stroke: #000000; stroke-width: 0.8"/>
      </g>
     </g>
     <g id="text_9">
      <!-- $\mathdefault{−4}$ -->
      <g transform="translate(20.420307 158.155506) scale(0.1 -0.1)">
       <defs>
        <path id="CMR17-34" d="M 2150 4147 
C 2150 4281 2144 4288 2029 4288 
L 128 1254 
L 128 1088 
L 1779 1088 
L 1779 460 
C 1779 230 1766 166 1318 166 
L 1197 166 
L 1197 0 
C 1402 12 1747 12 1965 12 
C 2182 12 2528 12 2733 0 
L 2733 166 
L 2611 166 
C 2163 166 2150 230 2150 460 
L 2150 1088 
L 2803 1088 
L 2803 1254 
L 2150 1254 
L 2150 4147 
z
M 1798 3723 
L 1798 1254 
L 256 1254 
L 1798 3723 
z
" transform="scale(0.015625)"/>
       </defs>
       <use xlink:href="#CMSY10-0" transform="scale(0.996264)"/>
       <use xlink:href="#CMR17-34" transform="translate(77.487468 0) scale(0.996264)"/>
      </g>
     </g>
    </g>
    <g id="ytick_3">
     <g id="line2d_9">
      <g>
       <use xlink:href="#m037e92a5a0" x="40.150386" y="111.767445" style="stroke: #000000; stroke-width: 0.8"/>
      </g>
     </g>
     <g id="text_10">
      <!-- $\mathdefault{−2}$ -->
      <g transform="translate(20.420307 115.316606) scale(0.1 -0.1)">
       <use xlink:href="#CMSY10-0" transform="scale(0.996264)"/>
       <use xlink:href="#CMR17-32" transform="translate(77.487468 0) scale(0.996264)"/>
      </g>
     </g>
    </g>
    <g id="ytick_4">
     <g id="line2d_10">
      <g>
       <use xlink:href="#m037e92a5a0" x="40.150386" y="68.928545" style="stroke: #000000; stroke-width: 0.8"/>
      </g>
     </g>
     <g id="text_11">
      <!-- $\mathdefault{0}$ -->
      <g transform="translate(28.16905 72.477705) scale(0.1 -0.1)">
       <use xlink:href="#CMR17-30" transform="scale(0.996264)"/>
      </g>
     </g>
    </g>
    <g id="ytick_5">
     <g id="line2d_11">
      <g>
       <use xlink:href="#m037e92a5a0" x="40.150386" y="26.089644" style="stroke: #000000; stroke-width: 0.8"/>
      </g>
     </g>
     <g id="text_12">
      <!-- $\mathdefault{2}$ -->
      <g transform="translate(28.16905 29.638804) scale(0.1 -0.1)">
       <use xlink:href="#CMR17-32" transform="scale(0.996264)"/>
      </g>
     </g>
    </g>
    <g id="text_13">
     <!-- RMS residual - Blade_0 -->
     <g transform="translate(14.29832 169.700806) rotate(-90) scale(0.1 -0.1)">
      <defs>
       <path id="NimbusSanL-Regu-52" d="M 1190 2035 
L 2726 2035 
C 3258 2035 3494 1775 3494 1191 
L 3488 770 
C 3488 478 3539 192 3622 0 
L 4346 0 
L 4346 147 
C 4122 303 4077 471 4064 1101 
C 4058 1879 3936 2111 3430 2329 
C 3955 2585 4166 2907 4166 3432 
C 4166 4230 3661 4672 2746 4672 
L 595 4672 
L 595 0 
L 1190 0 
L 1190 2035 
z
M 1190 2560 
L 1190 4147 
L 2630 4147 
C 2963 4147 3155 4096 3302 3970 
C 3462 3837 3546 3628 3546 3350 
C 3546 2806 3264 2560 2630 2560 
L 1190 2560 
z
" transform="scale(0.015625)"/>
       <path id="NimbusSanL-Regu-4d" d="M 2995 0 
L 4307 3915 
L 4307 0 
L 4870 0 
L 4870 4672 
L 4045 4672 
L 2688 602 
L 1306 4672 
L 480 4672 
L 480 0 
L 1043 0 
L 1043 3915 
L 2368 0 
L 2995 0 
z
" transform="scale(0.015625)"/>
       <path id="NimbusSanL-Regu-53" d="M 3814 3295 
C 3808 4204 3181 4736 2106 4736 
C 1082 4736 448 4211 448 3372 
C 448 2806 749 2450 1363 2291 
L 2522 1986 
C 3110 1833 3379 1598 3379 1236 
C 3379 988 3245 733 3046 593 
C 2861 466 2566 396 2189 396 
C 1683 396 1338 517 1114 784 
C 941 988 864 1210 870 1496 
L 307 1496 
C 314 1070 397 790 582 536 
C 902 102 1440 -128 2150 -128 
C 2707 -128 3162 0 3462 230 
C 3776 479 3974 892 3974 1293 
C 3974 1865 3616 2284 2982 2456 
L 1811 2768 
C 1248 2920 1043 3098 1043 3454 
C 1043 3925 1459 4236 2086 4236 
C 2829 4236 3245 3899 3251 3295 
L 3814 3295 
z
" transform="scale(0.015625)"/>
       <path id="NimbusSanL-Regu-73" d="M 2803 2428 
C 2797 3084 2362 3456 1587 3456 
C 806 3456 301 3052 301 2434 
C 301 1912 570 1663 1363 1472 
L 1862 1351 
C 2234 1262 2381 1129 2381 887 
C 2381 574 2067 364 1600 364 
C 1312 364 1069 447 934 587 
C 851 683 813 778 781 1014 
L 218 1014 
C 243 243 678 -128 1555 -128 
C 2400 -128 2938 288 2938 931 
C 2938 1428 2656 1702 1990 1861 
L 1478 1982 
C 1043 2084 858 2224 858 2459 
C 858 2765 1133 2963 1568 2963 
C 1997 2963 2227 2778 2240 2428 
L 2803 2428 
z
" transform="scale(0.015625)"/>
       <path id="NimbusSanL-Regu-64" d="M 3168 4672 
L 2637 4672 
L 2637 2937 
C 2413 3276 2054 3456 1606 3456 
C 736 3456 166 2759 166 1695 
C 166 568 723 -128 1626 -128 
C 2086 -128 2406 44 2694 460 
L 2694 19 
L 3168 19 
L 3168 4672 
z
M 1696 2956 
C 2272 2956 2637 2447 2637 1651 
C 2637 880 2266 371 1702 371 
C 1114 371 723 887 723 1663 
C 723 2440 1114 2956 1696 2956 
z
" transform="scale(0.015625)"/>
       <path id="NimbusSanL-Regu-75" d="M 3085 19 
L 3085 3328 
L 2554 3328 
L 2554 1454 
C 2554 780 2195 339 1638 339 
C 1216 339 947 591 947 988 
L 947 3328 
L 416 3328 
L 416 780 
C 416 230 832 -128 1485 -128 
C 1978 -128 2291 44 2605 484 
L 2605 19 
L 3085 19 
z
" transform="scale(0.015625)"/>
       <path id="NimbusSanL-Regu-6c" d="M 973 4672 
L 435 4672 
L 435 0 
L 973 0 
L 973 4672 
z
" transform="scale(0.015625)"/>
       <path id="NimbusSanL-Regu-2d" d="M 1818 1996 
L 294 1996 
L 294 1536 
L 1818 1536 
L 1818 1996 
z
" transform="scale(0.015625)"/>
       <path id="NimbusSanL-Regu-42" d="M 506 0 
L 2611 0 
C 3053 0 3379 121 3629 390 
C 3859 632 3987 961 3987 1321 
C 3987 1878 3731 2214 3136 2444 
C 3558 2643 3782 2994 3782 3476 
C 3782 3821 3654 4127 3411 4345 
C 3168 4569 2848 4672 2400 4672 
L 506 4672 
L 506 0 
z
M 1101 2636 
L 1101 4147 
L 2253 4147 
C 2586 4147 2771 4101 2931 3977 
C 3098 3847 3187 3652 3187 3391 
C 3187 3138 3098 2936 2931 2806 
C 2771 2682 2586 2636 2253 2636 
L 1101 2636 
z
M 1101 524 
L 1101 2112 
L 2554 2112 
C 2842 2112 3034 2042 3174 1890 
C 3315 1745 3392 1542 3392 1315 
C 3392 1093 3315 891 3174 746 
C 3034 594 2842 524 2554 524 
L 1101 524 
z
" transform="scale(0.015625)"/>
       <path id="NimbusSanL-Regu-30" d="M 1760 4544 
C 1338 4544 954 4358 717 4044 
C 422 3649 275 3043 275 2207 
C 275 683 787 -128 1760 -128 
C 2720 -128 3245 683 3245 2169 
C 3245 3049 3104 3636 2803 4044 
C 2566 4364 2189 4544 1760 4544 
z
M 1760 4044 
C 2368 4044 2669 3432 2669 2220 
C 2669 938 2374 339 1747 339 
C 1152 339 851 964 851 2201 
C 851 3438 1152 4044 1760 4044 
z
" transform="scale(0.015625)"/>
      </defs>
      <use xlink:href="#NimbusSanL-Regu-52" transform="scale(0.996264)"/>
      <use xlink:href="#NimbusSanL-Regu-4d" transform="translate(71.929985 0) scale(0.996264)"/>
      <use xlink:href="#NimbusSanL-Regu-53" transform="translate(154.918415 0) scale(0.996264)"/>
      <use xlink:href="#NimbusSanL-Regu-72" transform="translate(249.063616 0) scale(0.996264)"/>
      <use xlink:href="#NimbusSanL-Regu-65" transform="translate(282.238846 0) scale(0.996264)"/>
      <use xlink:href="#NimbusSanL-Regu-73" transform="translate(337.630523 0) scale(0.996264)"/>
      <use xlink:href="#NimbusSanL-Regu-69" transform="translate(387.443723 0) scale(0.996264)"/>
      <use xlink:href="#NimbusSanL-Regu-64" transform="translate(409.560507 0) scale(0.996264)"/>
      <use xlink:href="#NimbusSanL-Regu-75" transform="translate(464.952184 0) scale(0.996264)"/>
      <use xlink:href="#NimbusSanL-Regu-61" transform="translate(520.343861 0) scale(0.996264)"/>
      <use xlink:href="#NimbusSanL-Regu-6c" transform="translate(575.735538 0) scale(0.996264)"/>
      <use xlink:href="#NimbusSanL-Regu-2d" transform="translate(625.547492 0) scale(0.996264)"/>
      <use xlink:href="#NimbusSanL-Regu-42" transform="translate(686.417892 0) scale(0.996264)"/>
      <use xlink:href="#NimbusSanL-Regu-6c" transform="translate(752.867923 0) scale(0.996264)"/>
      <use xlink:href="#NimbusSanL-Regu-61" transform="translate(774.984707 0) scale(0.996264)"/>
      <use xlink:href="#NimbusSanL-Regu-64" transform="translate(830.376384 0) scale(0.996264)"/>
      <use xlink:href="#NimbusSanL-Regu-65" transform="translate(885.768061 0) scale(0.996264)"/>
      <use xlink:href="#NimbusSanL-Regu-30" transform="translate(977.025303 0) scale(0.996264)"/>
      <path d="M 947.137079 0 
L 977.025303 0 
L 977.025303 0.3985 
L 947.137079 0.3985 
L 947.137079 0 
z
"/>
     </g>
    </g>
   </g>
   <g id="line2d_12">
    <path d="M 55.368567 135.588585 
L 55.723166 144.557672 
L 55.959565 147.863921 
L 56.195964 149.272008 
L 56.314163 149.362854 
L 56.550562 148.855297 
L 56.786961 148.673636 
L 57.02336 147.837398 
L 57.259759 146.819835 
L 57.377958 146.708321 
L 58.323554 149.272349 
L 58.441754 149.160997 
L 58.678153 147.8524 
L 59.26915 142.153662 
L 59.387349 142.193707 
L 59.505549 142.353161 
L 59.741948 143.201408 
L 60.569344 147.411263 
L 60.687544 147.330035 
L 60.923943 147.733169 
L 61.51494 149.155618 
L 61.751339 149.239649 
L 61.987738 149.038441 
L 62.342336 148.065389 
L 62.460536 148.238617 
L 62.933334 149.181271 
L 63.169733 149.184004 
L 63.64253 148.737842 
L 63.878929 148.001928 
L 63.997129 147.439515 
L 64.351727 148.059719 
L 64.588126 148.414511 
L 64.824525 148.407451 
L 65.297323 148.11357 
L 65.651921 147.617795 
L 65.88832 147.897438 
L 66.242919 148.441162 
L 66.479318 148.499234 
L 66.715717 148.443666 
L 66.833916 148.301261 
L 67.070315 147.358564 
L 67.188515 146.529243 
L 67.424913 146.928487 
L 67.897711 148.002521 
L 68.13411 148.096549 
L 68.25231 148.004824 
L 68.488709 147.379891 
L 68.843307 145.566697 
L 69.079706 146.44856 
L 69.434304 147.993368 
L 69.788903 148.676096 
L 69.907102 148.662217 
L 70.3799 147.449769 
L 70.734499 148.171159 
L 71.089097 148.565219 
L 71.325496 148.302232 
L 71.561895 148.031282 
L 71.680094 148.078933 
L 72.034693 148.762054 
L 72.74389 150.140122 
L 73.216687 151.829667 
L 73.453086 152.224218 
L 73.571286 152.254783 
L 73.689485 152.042945 
L 73.925884 150.959109 
L 74.162283 149.178783 
L 74.398682 149.668529 
L 74.753281 150.66196 
L 74.98968 150.472533 
L 75.226078 150.175903 
L 75.462477 149.148323 
L 75.935275 146.327798 
L 76.053475 146.508042 
L 76.289874 147.63101 
L 76.526273 149.068525 
L 76.644472 148.880944 
L 76.880871 147.942452 
L 77.235469 148.538965 
L 77.353669 148.245173 
L 77.590068 148.82313 
L 77.944666 150.292975 
L 78.062866 150.349952 
L 78.299265 150.22501 
L 78.535664 150.584608 
L 79.24486 152.303275 
L 79.717658 153.601477 
L 79.954057 153.693697 
L 80.426855 154.579681 
L 80.663254 154.358812 
L 80.781454 154.344738 
L 80.899653 154.470457 
L 81.372451 155.67756 
L 81.963448 155.512112 
L 82.318047 154.60518 
L 82.436246 154.655553 
L 82.672645 155.336082 
L 83.027244 156.453843 
L 83.381842 156.485113 
L 83.618241 156.002016 
L 83.85464 155.283538 
L 83.972839 155.328497 
L 84.209238 155.900729 
L 84.682036 157.600095 
L 84.918435 157.594839 
L 85.154834 157.286764 
L 85.391233 156.67603 
L 85.627632 156.935473 
L 85.98223 158.023707 
L 86.336829 158.812256 
L 86.573228 158.906123 
L 86.809627 158.440525 
L 87.046026 157.593028 
L 87.282424 157.781054 
L 87.518823 158.363887 
L 87.873422 159.439612 
L 88.109821 159.560479 
L 88.22802 159.457772 
L 88.582619 158.350878 
L 88.700818 158.484891 
L 89.055417 159.255329 
L 89.410015 160.089044 
L 89.646414 160.286181 
L 89.764613 160.205278 
L 90.001012 159.630379 
L 90.237411 158.921175 
L 90.47381 159.286752 
L 91.183007 160.800893 
L 91.419406 160.906198 
L 91.655805 160.398084 
L 91.892204 159.703182 
L 92.246802 160.069153 
L 92.7196 160.747479 
L 93.074199 160.627442 
L 93.428797 160.056592 
L 93.546996 159.836268 
L 93.783395 159.984772 
L 94.492592 161.06992 
L 95.438188 161.219954 
L 96.029185 161.992072 
L 96.383784 161.765767 
L 96.738382 161.487737 
L 96.974781 161.864038 
L 97.565778 163.094391 
L 97.802177 163.212058 
L 98.038576 162.938274 
L 98.393175 162.326101 
L 98.629574 162.46776 
L 99.693369 164.092646 
L 100.166167 165.275295 
L 100.402566 165.454113 
L 100.638965 165.311507 
L 100.875364 164.892881 
L 100.993563 164.533284 
L 101.229962 164.609129 
L 101.466361 165.051516 
L 101.820959 166.000564 
L 102.057358 166.013909 
L 102.293757 165.538418 
L 102.648356 164.382391 
L 102.766555 164.340568 
L 103.121154 164.796481 
L 103.712151 166.343154 
L 104.066749 166.526412 
L 104.303148 166.270996 
L 104.539547 165.608778 
L 104.894146 166.360402 
L 105.248744 166.965607 
L 105.721542 167.09908 
L 105.957941 166.759791 
L 106.19434 166.259433 
L 107.139936 167.866043 
L 107.376334 167.992938 
L 107.612733 167.704969 
L 107.730933 167.401832 
L 108.085531 167.8182 
L 108.676529 168.655416 
L 108.912928 168.614985 
L 109.149327 168.248388 
L 109.385725 167.708963 
L 109.740324 168.292953 
L 110.213122 169.311693 
L 110.449521 169.493674 
L 110.68592 169.292117 
L 111.040518 168.914876 
L 111.158718 168.894282 
L 111.513316 169.60524 
L 111.867914 170.385825 
L 112.104313 170.559197 
L 112.340712 170.396247 
L 112.695311 169.658814 
L 113.168108 170.254469 
L 113.404507 170.515712 
L 113.759106 170.512707 
L 113.995505 170.296141 
L 114.350103 169.362655 
L 114.468303 169.446033 
L 114.941101 170.004671 
L 115.295699 170.232193 
L 115.532098 170.070066 
L 115.886696 169.140239 
L 116.004896 169.23398 
L 116.359494 169.764191 
L 116.832292 170.454299 
L 116.950492 170.461367 
L 117.18689 170.07791 
L 117.541489 168.897466 
L 117.896087 169.701403 
L 118.250686 170.530286 
L 118.487085 170.736817 
L 118.605284 170.728011 
L 118.841683 170.258661 
L 119.196281 168.948116 
L 119.55088 170.051268 
L 119.905478 170.893038 
L 120.260077 171.153442 
L 120.378276 171.036304 
L 120.732875 169.92912 
L 121.087473 170.801341 
L 121.442071 171.578016 
L 121.914869 171.958832 
L 122.151268 171.442909 
L 122.387667 170.527186 
L 122.742266 171.381535 
L 123.215063 172.613295 
L 123.451462 172.718779 
L 123.569662 172.571097 
L 124.160659 170.840817 
L 124.397058 170.903921 
L 125.342654 173.051194 
L 125.460853 173.020084 
L 125.697252 172.571029 
L 125.933651 171.858616 
L 126.28825 172.423528 
L 126.761048 173.205562 
L 126.997447 173.293727 
L 127.233845 173.136629 
L 127.588444 172.392905 
L 127.706643 172.503257 
L 128.179441 173.239361 
L 128.53404 173.617209 
L 128.770439 173.633323 
L 129.006838 173.284676 
L 129.361436 172.4781 
L 129.597835 172.414002 
L 130.543431 174.125982 
L 130.66163 174.157883 
L 130.77983 174.061177 
L 131.016229 173.424118 
L 131.134428 172.966143 
L 131.489026 173.457278 
L 131.961824 174.208642 
L 132.198223 174.349452 
L 132.316423 174.299187 
L 132.552822 173.791884 
L 132.789221 173.062686 
L 133.143819 173.771369 
L 133.498417 174.525082 
L 133.853016 174.802348 
L 133.971215 174.745922 
L 134.207614 174.223809 
L 134.444013 173.661129 
L 134.680412 173.645588 
L 135.15321 174.114183 
L 135.507808 173.993034 
L 135.980606 173.889213 
L 136.217005 173.857986 
L 136.571604 174.549405 
L 137.044402 175.389649 
L 137.2808 175.555825 
L 137.399 175.507207 
L 137.635399 174.825327 
L 137.871798 173.726469 
L 138.108197 174.081892 
L 138.817394 175.553526 
L 139.053793 175.640407 
L 139.290191 174.943265 
L 139.52659 174.162055 
L 139.64479 173.92677 
L 139.999388 174.930882 
L 140.353987 175.945404 
L 140.708585 176.389333 
L 140.826785 176.312449 
L 141.181383 175.242557 
L 141.299582 175.40408 
L 142.126979 176.867108 
L 142.363378 176.877575 
L 142.599777 176.52762 
L 142.836176 176.02161 
L 143.781771 177.280666 
L 144.01817 177.285882 
L 144.254569 176.940759 
L 144.609168 176.302584 
L 144.845567 176.390892 
L 144.963766 176.493407 
L 145.081966 176.447809 
L 145.909362 177.857087 
L 146.145761 177.900808 
L 146.38216 177.497 
L 146.618559 176.708436 
L 146.973157 177.284598 
L 147.327755 177.937742 
L 147.682354 178.154813 
L 147.800553 178.101571 
L 148.036952 177.581825 
L 148.273351 176.781793 
L 148.62795 177.517684 
L 148.982548 178.17416 
L 149.337146 178.38333 
L 149.455346 178.297405 
L 149.691745 177.625311 
L 149.928144 176.997893 
L 150.046343 176.823431 
L 150.75554 178.502998 
L 151.110139 178.809155 
L 151.228338 178.726056 
L 151.582936 177.735605 
L 151.701136 177.901403 
L 152.410333 178.965818 
L 152.764931 179.159084 
L 153.00133 178.819558 
L 153.237729 178.369285 
L 153.474128 178.399433 
L 154.183325 179.178665 
L 154.892522 179.513978 
L 155.719918 179.929833 
L 156.074516 180.017985 
L 156.192716 179.918205 
L 156.901913 180.952997 
L 157.256511 181.078977 
L 157.49291 180.754328 
L 157.729309 180.128772 
L 158.083907 180.623482 
L 158.438506 181.129016 
L 158.793104 181.319925 
L 159.029503 181.181175 
L 159.384101 180.454431 
L 159.7387 181.009128 
L 160.093298 181.548955 
L 160.447897 181.767116 
L 160.684296 181.635814 
L 160.920695 181.188459 
L 161.275293 181.501678 
L 161.748091 182.002128 
L 162.102689 182.08289 
L 162.339088 181.854487 
L 162.575487 181.410151 
L 162.930086 181.736244 
L 163.402883 182.203766 
L 163.757482 182.225259 
L 163.993881 181.968154 
L 164.23028 181.535747 
L 164.584878 181.885918 
L 165.057676 182.413031 
L 165.294075 182.480345 
L 165.530474 182.266751 
L 165.885072 181.685148 
L 166.121471 181.737371 
L 166.948868 182.300457 
L 167.658064 182.779459 
L 168.130862 183.205166 
L 168.60366 183.304913 
L 168.840059 183.05879 
L 169.076458 182.642332 
L 169.431056 183.032357 
L 169.903854 183.502243 
L 170.140253 183.59569 
L 170.376652 183.44083 
L 170.731251 182.824576 
L 171.085849 183.293383 
L 171.558647 183.926705 
L 171.795046 184.038776 
L 172.031445 183.810704 
L 172.267844 183.38688 
L 172.622442 183.732296 
L 173.213439 184.379628 
L 173.449838 184.443123 
L 173.686237 184.164177 
L 173.922636 183.827345 
L 174.395434 184.401864 
L 174.750033 184.741125 
L 175.104631 184.843149 
L 175.577429 184.555496 
L 176.404825 185.130176 
L 176.759424 185.129332 
L 177.232221 184.911272 
L 177.941418 185.404935 
L 178.296017 185.438444 
L 178.532416 185.267573 
L 178.887014 184.785682 
L 179.359812 185.402603 
L 179.83261 185.82863 
L 180.069009 185.80552 
L 180.305408 185.422988 
L 180.423607 185.118081 
L 180.778206 185.481377 
L 181.369203 186.19871 
L 181.605602 186.228077 
L 181.842001 185.780355 
L 182.0784 185.11595 
L 182.432998 185.709185 
L 182.905796 186.53803 
L 183.142195 186.747459 
L 183.260394 186.704342 
L 183.496793 186.051544 
L 183.733192 185.51574 
L 183.851392 185.439078 
L 184.560589 186.906836 
L 184.915187 187.191212 
L 185.033387 187.07461 
L 185.387985 186.030849 
L 186.097182 187.106481 
L 186.56998 187.204989 
L 186.806379 186.777619 
L 187.042778 186.183459 
L 187.633775 187.034921 
L 188.106573 187.142354 
L 188.342972 186.871282 
L 188.81577 185.668978 
L 189.761365 187.204218 
L 189.879565 187.180686 
L 190.115964 186.642725 
L 190.352363 185.755218 
L 190.706961 186.361987 
L 191.179759 187.288257 
L 191.416158 187.496575 
L 191.534357 187.364348 
L 192.007155 185.668325 
L 192.125355 185.906135 
L 192.952751 187.897795 
L 193.070951 187.99306 
L 193.18915 187.82746 
L 193.661948 186.117709 
L 194.371145 188.178264 
L 194.725743 188.659508 
L 194.843943 188.479636 
L 195.198541 187.220022 
L 195.907738 188.84489 
L 196.380536 189.194118 
L 196.616935 188.618256 
L 196.853334 188.156098 
L 197.326131 189.096328 
L 197.917129 189.464507 
L 198.035328 189.43392 
L 198.271727 188.98387 
L 198.389927 188.682978 
L 199.453722 189.519814 
L 199.690121 189.325536 
L 200.044719 188.326074 
L 200.162919 188.392247 
L 200.399318 188.686297 
L 200.990315 189.678279 
L 201.108515 189.712233 
L 201.226714 189.609506 
L 201.463113 188.970512 
L 201.699512 188.08439 
L 201.935911 188.43323 
L 202.645108 190.20153 
L 202.763307 190.24996 
L 202.881507 190.084051 
L 203.354304 188.619122 
L 203.590703 188.982065 
L 203.945302 189.625186 
L 204.772698 190.588316 
L 205.363695 191.472592 
L 205.718294 191.701707 
L 205.836493 191.654855 
L 206.191092 190.958241 
L 206.309291 190.703161 
L 206.900289 191.469557 
L 207.373086 191.664063 
L 207.609485 191.439792 
L 207.845884 190.859226 
L 207.964084 190.939455 
L 208.90968 191.657082 
L 209.146078 191.4128 
L 209.500677 190.373772 
L 209.618876 190.435877 
L 209.855275 190.678609 
L 210.564472 191.679016 
L 210.682672 191.57577 
L 210.919071 190.933121 
L 211.155469 189.971903 
L 211.391868 190.187232 
L 211.746467 191.067519 
L 212.101065 191.813363 
L 212.219265 191.866912 
L 212.337464 191.732156 
L 212.928462 190.016681 
L 213.28306 190.822476 
L 213.755858 192.214411 
L 213.992257 192.481996 
L 214.110456 192.318567 
L 214.465055 191.131422 
L 214.819653 191.742022 
L 215.41065 192.987837 
L 215.647049 193.185421 
L 215.883448 192.570831 
L 216.119847 192.105319 
L 216.238047 192.05436 
L 217.065443 193.592919 
L 217.301842 193.827715 
L 217.420041 193.776519 
L 217.77464 192.79157 
L 217.892839 192.943086 
L 218.602036 193.861436 
L 218.956635 193.976969 
L 219.193033 193.504277 
L 219.429432 192.594558 
L 219.784031 193.21805 
L 220.256829 193.980096 
L 220.493228 194.102369 
L 220.611427 193.987022 
L 220.847826 193.281929 
L 221.202424 191.988526 
L 221.438823 192.502724 
L 222.029821 194.109181 
L 222.26622 194.30576 
L 222.502619 193.649246 
L 222.739018 192.541282 
L 222.975417 192.932135 
L 223.684613 194.647645 
L 223.802813 194.738525 
L 223.921012 194.614896 
L 224.39381 192.667926 
L 224.748409 193.761708 
L 225.103007 194.784978 
L 225.457605 195.317565 
L 225.575805 195.177611 
L 226.048603 193.63526 
L 226.7578 195.02662 
L 227.585196 195.519595 
L 228.176193 195.448557 
L 229.121789 195.029474 
L 229.476387 195.755489 
L 229.949185 196.888157 
L 230.067385 197.013535 
L 230.185584 196.966763 
L 230.421983 196.217809 
L 230.658382 195.19029 
L 230.894781 195.487551 
L 231.722177 197.419439 
L 231.840377 197.294562 
L 232.313175 195.522942 
L 232.667773 196.361788 
L 233.140571 197.59798 
L 233.37697 197.896437 
L 233.495169 197.733971 
L 233.849768 196.347791 
L 234.322566 197.465224 
L 234.677164 198.063665 
L 235.031763 198.345326 
L 235.268161 197.692619 
L 235.50456 197.066767 
L 236.095558 198.283571 
L 236.568356 198.682126 
L 236.686555 198.658693 
L 237.041154 197.853866 
L 237.159353 197.99975 
L 237.986749 198.894829 
L 238.223148 198.930152 
L 238.459547 198.582111 
L 238.695946 197.979188 
L 239.050545 198.206168 
L 239.759741 199.148079 
L 239.99614 198.914069 
L 240.468938 197.960067 
L 240.705337 198.118962 
L 241.414534 199.467392 
L 241.650933 199.0751 
L 242.005531 198.337959 
L 242.24193 198.476724 
L 242.596529 199.259358 
L 242.951127 199.814676 
L 243.069327 199.788762 
L 243.305725 199.197288 
L 243.542124 198.424001 
L 243.778523 198.63262 
L 244.133122 199.356878 
L 244.48772 199.970607 
L 244.60592 200.037001 
L 244.724119 199.966734 
L 244.960518 199.256741 
L 245.078718 198.826257 
L 245.433316 199.220696 
L 246.024313 199.992183 
L 246.260712 199.992976 
L 246.497111 199.488082 
L 246.73351 198.579605 
L 247.206308 199.294014 
L 247.560906 199.681461 
L 247.797305 199.715477 
L 248.033704 199.395372 
L 248.388303 198.03476 
L 248.506502 198.1994 
L 249.333898 199.451174 
L 249.452098 199.44132 
L 249.688497 198.991896 
L 250.161295 197.358119 
L 250.515893 198.325712 
L 250.870492 199.223295 
L 251.22509 199.566923 
L 251.461489 198.944663 
L 251.697888 197.945237 
L 252.052486 198.732178 
L 252.525284 199.791322 
L 252.761683 200.065101 
L 252.879883 199.991092 
L 253.35268 198.321902 
L 254.416476 200.86286 
L 254.534675 200.777481 
L 255.007473 199.330251 
L 255.59847 200.277002 
L 256.307667 200.435649 
L 257.135063 200.28607 
L 257.489662 200.191911 
L 257.607861 199.96526 
L 258.553457 201.875246 
L 258.671657 201.843703 
L 258.908056 201.170719 
L 259.144454 200.031263 
L 259.380853 200.430319 
L 260.09005 202.084869 
L 260.20825 202.166564 
L 260.326449 202.046221 
L 260.681048 200.577182 
L 260.799247 200.129484 
L 261.153845 201.14883 
L 261.508444 202.188752 
L 261.863042 202.662503 
L 261.981242 202.466068 
L 262.33584 200.818255 
L 262.690439 201.771006 
L 263.163236 202.931968 
L 263.399635 203.240335 
L 263.517835 203.221704 
L 263.754234 202.323138 
L 263.990633 201.37341 
L 264.936229 203.675272 
L 265.054428 203.81402 
L 265.172627 203.760266 
L 265.527226 202.343174 
L 265.645425 202.546622 
L 266.709221 204.291205 
L 266.82742 204.116995 
L 267.182018 202.68119 
L 267.300218 202.841543 
L 267.654816 203.453363 
L 268.127614 204.397104 
L 268.364013 204.477345 
L 268.600412 203.889764 
L 268.955011 202.584821 
L 269.309609 203.227259 
L 269.900606 204.611756 
L 270.018806 204.6948 
L 270.137005 204.616373 
L 270.373404 203.890003 
L 270.491604 203.318046 
L 270.846202 203.667318 
L 271.555399 204.870095 
L 271.673598 204.837857 
L 271.909997 204.189848 
L 272.146396 203.072669 
L 272.382795 203.433043 
L 273.091992 204.987232 
L 273.210191 205.050426 
L 273.328391 204.913701 
L 273.56479 203.918707 
L 273.801189 202.687395 
L 274.155787 203.689837 
L 274.510386 204.719362 
L 274.864984 205.121748 
L 274.983184 204.894005 
L 275.337782 203.020911 
L 275.69238 204.000892 
L 276.046979 204.962838 
L 276.401577 205.320236 
L 276.519777 205.241062 
L 276.756176 204.238569 
L 276.992575 203.090474 
L 277.93817 205.588679 
L 278.05637 205.710634 
L 278.174569 205.644212 
L 278.765567 203.823771 
L 279.356564 205.867587 
L 279.829362 206.534877 
L 279.947561 206.440313 
L 280.30216 205.222363 
L 281.011357 206.83715 
L 281.484154 207.131069 
L 281.720553 206.603967 
L 281.956952 205.828427 
L 282.784349 207.530641 
L 283.020748 207.707813 
L 283.138947 207.658265 
L 283.375346 207.063497 
L 283.493545 206.611272 
L 283.848144 207.068132 
L 284.439141 207.982443 
L 284.67554 207.966257 
L 284.911939 207.357478 
L 285.148338 206.343383 
L 285.502936 206.896888 
L 286.093934 208.10169 
L 286.212133 208.13649 
L 286.330333 207.996771 
L 286.566732 207.097925 
L 286.803131 205.931089 
L 287.157729 206.760531 
L 287.630527 208.012727 
L 287.866926 208.231191 
L 287.985125 208.072132 
L 288.339724 206.413435 
L 288.457923 206.623234 
L 289.403519 208.489444 
L 289.521718 208.496952 
L 289.758117 207.767949 
L 289.994516 206.772611 
L 290.940112 208.766647 
L 291.176511 208.935318 
L 291.41291 208.262883 
L 291.649309 207.614035 
L 291.885708 207.75681 
L 292.476705 208.488801 
L 292.949503 208.576857 
L 294.013298 208.844861 
L 294.249697 209.126814 
L 294.958894 210.43605 
L 295.077093 210.342099 
L 295.313492 209.719654 
L 295.431692 209.31433 
L 295.78629 209.424997 
L 296.022689 209.953134 
L 296.377288 210.912474 
L 296.613687 211.070789 
L 296.850086 210.591077 
L 297.086484 209.791855 
L 297.322883 209.871072 
L 297.559282 210.27028 
L 298.03208 211.62618 
L 298.268479 211.739945 
L 298.504878 211.158926 
L 298.741277 210.410655 
L 298.977676 210.309723 
L 300.041471 211.498469 
L 300.39607 211.955683 
L 300.632469 212.012835 
L 300.868868 211.818343 
L 301.105266 211.249497 
L 301.223466 210.82177 
L 301.578064 211.069277 
L 302.169062 211.850704 
L 302.405461 211.744257 
L 302.64186 211.306715 
L 302.996458 210.541416 
L 303.114657 210.408557 
L 303.469256 211.004494 
L 303.942054 211.876892 
L 304.178453 211.912491 
L 304.414852 211.516805 
L 304.651251 210.769582 
L 305.005849 211.202519 
L 305.596846 212.098939 
L 305.833245 212.043512 
L 306.069644 211.447362 
L 306.306043 210.681259 
L 306.660642 211.258783 
L 307.133439 212.126646 
L 307.369838 212.292251 
L 307.488038 212.227697 
L 307.724437 211.584622 
L 307.960836 211.022977 
L 308.079035 210.888685 
L 309.024631 212.388683 
L 309.14283 212.438482 
L 309.26103 212.349748 
L 309.615628 211.424978 
L 309.733828 211.534166 
L 310.206626 212.078422 
L 310.679424 212.578115 
L 310.797623 212.570935 
L 311.034022 212.112047 
L 311.270421 211.469095 
L 311.743219 211.843335 
L 312.334216 212.685292 
L 312.452416 212.69938 
L 312.688815 212.330696 
L 312.925214 212.041291 
L 313.161612 212.020036 
L 313.398011 212.238913 
L 313.870809 212.880751 
L 314.107208 212.883674 
L 314.343607 212.492974 
L 314.580006 212.202634 
L 314.816405 212.154532 
L 315.052804 212.449848 
L 315.525602 213.200278 
L 315.762001 213.189305 
L 316.471198 212.32423 
L 316.707597 212.568843 
L 317.180394 213.497717 
L 317.416793 213.55917 
L 317.653192 213.283111 
L 317.889591 212.963168 
L 318.12599 212.90098 
L 318.362389 213.142251 
L 318.716988 213.706447 
L 318.953387 213.753851 
L 319.189785 213.521848 
L 319.544384 212.915778 
L 319.780783 212.987168 
L 320.017182 213.334532 
L 320.37178 213.847846 
L 320.608179 213.825106 
L 320.844578 213.488877 
L 320.962778 213.170732 
L 321.435575 213.435238 
L 322.026573 214.022641 
L 322.262972 213.88203 
L 322.499371 213.423488 
L 322.61757 213.09736 
L 323.090368 213.654818 
L 323.563166 214.253653 
L 323.799565 214.244937 
L 324.035964 213.887693 
L 324.272363 213.338686 
L 325.336158 214.787996 
L 325.454357 214.742073 
L 325.808956 214.043236 
L 325.927155 214.200159 
L 326.636352 215.203271 
L 326.990951 215.357498 
L 327.227349 215.027795 
L 327.463748 214.565797 
L 328.172945 215.718097 
L 328.645743 215.921632 
L 328.882142 215.547286 
L 329.118541 215.247019 
L 330.182336 215.871712 
L 331.127932 215.747204 
L 332.546326 215.540968 
L 333.137323 215.235756 
L 333.255522 215.144944 
L 333.373722 214.891544 
L 333.964719 215.75207 
L 334.319318 215.76287 
L 334.555717 215.463734 
L 334.910315 214.302897 
L 335.028515 214.458877 
L 335.619512 215.215844 
L 335.97411 215.19145 
L 336.210509 214.737788 
L 336.565108 213.311176 
L 337.392504 214.559564 
L 337.628903 214.588456 
L 337.747102 214.426585 
L 338.101701 213.041564 
L 338.2199 212.532526 
L 339.047296 214.096311 
L 339.283695 214.225543 
L 339.401895 214.072184 
L 339.992892 212.411441 
L 340.46569 212.706026 
L 342.002283 212.736598 
L 343.420677 212.728297 
L 344.129874 213.032674 
L 345.075469 213.758427 
L 345.902866 214.31746 
L 346.612063 214.541865 
L 349.44885 214.950058 
L 350.158047 214.642904 
L 350.512645 214.428645 
L 350.630845 214.132388 
L 350.985443 214.877655 
L 351.57644 216.358031 
L 351.69464 216.262521 
L 351.931039 215.37797 
L 352.167438 214.025157 
L 352.522036 214.555322 
L 353.231233 216.316165 
L 353.349432 216.059739 
L 353.82223 213.593403 
L 353.94043 213.836924 
L 354.295028 214.981909 
L 354.767826 216.449602 
L 354.886026 216.507586 
L 355.004225 216.179198 
L 355.477023 213.50396 
L 356.540818 216.918799 
L 356.659018 216.536487 
L 357.013616 214.470414 
L 358.077411 217.788023 
L 358.195611 217.728467 
L 358.668409 215.366991 
L 359.377605 218.014421 
L 359.732204 218.88 
L 359.732204 218.88 
" clip-path="url(#pa4a3ef545e)" style="fill: none; stroke: #1f77b4; stroke-width: 1.5; stroke-linecap: square"/>
   </g>
   <g id="line2d_13">
    <path d="M 55.368567 103.405106 
L 55.486767 90.529801 
L 55.841365 97.68437 
L 56.195964 96.417944 
L 56.314163 96.655774 
L 56.668762 97.881151 
L 56.905161 96.985233 
L 57.377958 93.985189 
L 57.614357 94.535868 
L 58.205355 95.865312 
L 58.323554 95.877702 
L 58.796352 94.823632 
L 59.150951 93.450763 
L 59.26915 93.105616 
L 59.860147 94.483775 
L 60.214746 95.917825 
L 60.332945 96.042649 
L 60.569344 95.810455 
L 60.687544 95.557327 
L 61.39674 96.575516 
L 61.633139 96.720187 
L 61.869538 96.583687 
L 62.105937 96.017533 
L 62.342336 94.758401 
L 63.051533 95.892295 
L 63.169733 95.872892 
L 63.406131 95.18857 
L 63.997129 92.495529 
L 64.942725 94.159969 
L 65.415522 93.516202 
L 65.533722 93.116243 
L 66.479318 94.719067 
L 66.715717 94.655962 
L 66.952116 94.311768 
L 67.188515 93.372361 
L 67.779512 94.566467 
L 68.13411 95.315004 
L 68.370509 95.167944 
L 68.606908 94.669032 
L 68.843307 93.450333 
L 69.670703 94.544513 
L 69.788903 94.241996 
L 70.143501 91.929418 
L 70.4981 90.156478 
L 70.616299 90.386957 
L 70.852698 91.883328 
L 71.325496 95.807266 
L 71.561895 96.000314 
L 71.798294 96.204724 
L 72.152892 96.559007 
L 72.507491 96.529845 
L 73.216687 97.736343 
L 73.453086 97.848149 
L 74.162283 97.191595 
L 74.398682 97.361051 
L 74.753281 97.480179 
L 75.107879 97.790186 
L 75.344278 97.54829 
L 75.817076 96.419862 
L 76.053475 96.565143 
L 76.408073 95.614869 
L 76.526273 95.685664 
L 76.880871 97.145678 
L 77.11727 96.909833 
L 77.353669 97.131118 
L 77.590068 97.184263 
L 77.826467 97.003863 
L 77.944666 97.055293 
L 79.126661 99.309889 
L 79.717658 100.03651 
L 79.954057 100.541745 
L 80.190456 100.531529 
L 80.545055 100.481919 
L 80.899653 101.014246 
L 81.254251 101.266743 
L 81.727049 101.950317 
L 82.081648 101.845897 
L 82.199847 101.837711 
L 82.554446 102.421799 
L 82.790845 102.477139 
L 83.027244 102.86743 
L 83.263642 103.095105 
L 83.500041 102.584603 
L 83.85464 101.640602 
L 84.327438 102.356696 
L 84.918435 102.862627 
L 85.391233 102.060824 
L 85.864031 102.559606 
L 86.218629 102.583925 
L 86.455028 102.348651 
L 87.046026 101.196996 
L 89.528214 106.25535 
L 89.646414 106.251303 
L 90.119212 105.625059 
L 90.237411 105.382647 
L 91.183007 106.370499 
L 91.419406 106.716258 
L 91.537605 106.689325 
L 91.892204 106.15832 
L 92.365002 106.941108 
L 92.955999 108.409541 
L 93.074199 108.244523 
L 93.546996 107.042773 
L 94.137994 108.444388 
L 94.728991 109.053214 
L 94.96539 109.086393 
L 95.319988 109.529264 
L 95.556387 109.550592 
L 95.792786 109.438728 
L 96.029185 109.661703 
L 96.265584 110.037197 
L 96.383784 110.051529 
L 96.620183 109.629803 
L 96.738382 109.245606 
L 97.329379 109.796911 
L 97.802177 110.522467 
L 98.274975 110.201771 
L 98.511374 110.782114 
L 98.984172 112.216447 
L 99.220571 112.405276 
L 99.33877 112.408581 
L 99.693369 112.721377 
L 100.047967 112.901984 
L 100.284366 113.336543 
L 100.520765 113.828885 
L 100.638965 113.754151 
L 100.993563 112.790844 
L 101.348161 113.443202 
L 101.820959 113.635171 
L 102.175558 114.539647 
L 102.411957 114.11035 
L 102.648356 113.641367 
L 102.884755 113.545354 
L 103.002954 113.525927 
L 103.475752 114.068459 
L 104.066749 115.088889 
L 104.303148 115.037154 
L 104.657747 114.68894 
L 105.012345 114.808766 
L 105.839741 115.424066 
L 106.07614 115.179639 
L 106.19434 114.882339 
L 106.667138 115.02644 
L 106.903537 115.298465 
L 107.376334 116.079558 
L 107.494534 115.992387 
L 107.730933 115.491054 
L 108.32193 116.061804 
L 108.676529 116.637577 
L 108.912928 116.990176 
L 109.149327 116.860516 
L 109.385725 116.517931 
L 110.331321 117.515822 
L 110.56772 117.578088 
L 110.804119 117.151584 
L 111.158718 116.342798 
L 111.631515 117.324078 
L 112.104313 118.274061 
L 112.222513 118.270978 
L 112.458912 117.753707 
L 112.695311 117.168975 
L 113.286308 118.307731 
L 113.759106 119.060606 
L 113.877305 119.044118 
L 114.231904 118.485523 
L 114.350103 118.266947 
L 115.177499 119.35982 
L 115.532098 119.854836 
L 115.768497 119.444065 
L 115.886696 119.119528 
L 116.477694 119.575044 
L 117.068691 120.352604 
L 117.30509 119.937512 
L 117.541489 119.236796 
L 118.014287 119.5105 
L 118.605284 120.144135 
L 118.841683 119.94941 
L 119.314481 119.121574 
L 119.55088 119.155929 
L 119.905478 119.54801 
L 120.378276 120.056265 
L 120.496476 120.017624 
L 120.851074 119.647235 
L 121.205672 119.757503 
L 121.67847 120.38175 
L 122.033069 120.753627 
L 122.269468 120.672539 
L 122.387667 120.510666 
L 123.215063 121.061415 
L 123.687861 121.551073 
L 123.806061 121.504751 
L 124.397058 120.63535 
L 125.579053 121.159653 
L 125.815452 120.702613 
L 125.933651 120.308929 
L 126.997447 120.702359 
L 127.233845 120.570503 
L 127.470244 120.122195 
L 127.588444 119.778889 
L 129.006838 120.666182 
L 129.243236 120.395785 
L 129.479635 120.495238 
L 129.834234 120.845665 
L 130.307032 121.604532 
L 130.77983 122.445937 
L 130.898029 122.447635 
L 131.252627 122.217348 
L 131.607226 122.600736 
L 132.198223 123.514223 
L 132.316423 123.52062 
L 132.552822 123.207543 
L 132.789221 122.533894 
L 132.90742 122.633037 
L 133.262018 123.105158 
L 133.734816 124.05065 
L 133.853016 124.066424 
L 134.089415 123.611075 
L 134.680412 121.979967 
L 134.916811 122.092499 
L 135.507808 122.45992 
L 135.862407 122.760642 
L 137.2808 124.572579 
L 137.517199 124.500146 
L 137.871798 124.104148 
L 138.935593 125.246021 
L 139.171992 125.084988 
L 139.64479 124.19618 
L 139.762989 124.296214 
L 140.117588 124.722725 
L 140.590386 125.476973 
L 140.826785 125.462642 
L 141.063184 125.14608 
L 141.181383 124.8455 
L 141.654181 125.206819 
L 142.363378 126.037759 
L 142.599777 125.967781 
L 142.954375 125.685682 
L 143.308973 125.928295 
L 144.254569 126.862629 
L 144.609168 126.635031 
L 145.554763 127.145609 
L 146.145761 127.554868 
L 146.38216 127.574281 
L 146.736758 127.446518 
L 148.155152 128.195727 
L 148.273351 128.048582 
L 148.982548 128.436845 
L 149.573545 128.992852 
L 149.691745 128.974207 
L 150.282742 128.262701 
L 150.519141 128.392795 
L 151.228338 129.445833 
L 151.346537 129.433715 
L 151.819335 128.934494 
L 152.055734 129.023936 
L 152.883131 129.772645 
L 153.474128 129.425704 
L 155.483519 130.518516 
L 156.074516 130.550967 
L 156.310915 130.541262 
L 156.665514 130.69526 
L 157.49291 131.418484 
L 157.847508 131.194452 
L 158.202107 131.364757 
L 159.029503 132.221351 
L 159.265902 131.975239 
L 159.384101 131.747564 
L 159.856899 132.049694 
L 160.447897 132.654907 
L 160.684296 132.619588 
L 161.038894 132.461213 
L 162.102689 132.748631 
L 162.339088 132.651882 
L 162.693687 132.243106 
L 163.875681 132.370656 
L 164.11208 131.767138 
L 164.23028 131.274992 
L 164.939477 131.75361 
L 165.294075 131.988107 
L 165.530474 131.649531 
L 166.003272 130.598033 
L 166.239671 130.767999 
L 167.067067 131.846658 
L 167.658064 132.899897 
L 168.840059 134.322097 
L 169.076458 134.534695 
L 169.549256 134.651608 
L 170.022054 134.812717 
L 170.376652 134.978367 
L 170.613051 134.676362 
L 170.731251 134.314269 
L 171.676846 134.584066 
L 171.913245 134.505487 
L 172.149644 134.093698 
L 172.267844 133.727591 
L 173.09524 134.157078 
L 173.331639 134.151199 
L 173.568038 133.956024 
L 173.922636 133.247556 
L 174.040836 133.353002 
L 174.868232 133.97521 
L 175.22283 133.914724 
L 175.459229 133.794451 
L 176.759424 134.563674 
L 178.768815 135.593508 
L 178.887014 135.463614 
L 179.359812 135.690862 
L 179.950809 135.916548 
L 180.187208 135.979842 
L 180.305408 135.877069 
L 180.423607 135.620751 
L 181.014605 136.015023 
L 181.487402 135.9914 
L 181.723801 135.785423 
L 181.9602 135.353567 
L 182.0784 135.021957 
L 182.787597 135.5997 
L 183.023996 135.592579 
L 183.260394 135.36085 
L 183.851392 134.435665 
L 184.678788 135.053102 
L 185.033387 134.935986 
L 185.387985 134.833756 
L 186.56998 135.426694 
L 187.870174 136.145446 
L 188.69757 136.891524 
L 188.933969 136.918188 
L 189.761365 137.325719 
L 189.997764 137.509034 
L 190.234163 137.311978 
L 190.352363 137.06753 
L 190.706961 137.201083 
L 191.534357 137.099647 
L 191.770756 136.660259 
L 192.007155 135.936589 
L 192.361754 136.073411 
L 192.952751 136.118338 
L 193.18915 135.840249 
L 193.543748 135.088964 
L 193.661948 134.710831 
L 194.489344 135.207066 
L 194.725743 135.153133 
L 195.080342 134.761383 
L 195.198541 134.506166 
L 196.498735 135.224674 
L 196.971533 135.081706 
L 197.444331 135.624142 
L 198.153528 136.492579 
L 198.508126 136.711777 
L 199.217323 137.496687 
L 200.281118 139.060459 
L 200.990315 139.463493 
L 201.344913 139.874762 
L 201.463113 139.880243 
L 201.581312 139.760738 
L 201.699512 139.463598 
L 201.935911 139.519306 
L 202.408709 139.360298 
L 202.763307 139.488014 
L 202.881507 139.421118 
L 203.117905 138.851479 
L 203.472504 137.457404 
L 203.827102 136.931444 
L 204.654499 136.12546 
L 205.718294 137.029484 
L 206.072892 136.9657 
L 206.309291 136.847542 
L 207.609485 137.771017 
L 208.436882 138.171365 
L 209.264278 138.577304 
L 209.618876 138.338474 
L 210.209874 138.783418 
L 210.682672 138.913698 
L 210.919071 138.533397 
L 211.155469 137.709266 
L 211.982866 138.688452 
L 212.219265 138.712537 
L 212.455664 138.267222 
L 212.928462 136.885221 
L 213.874057 138.407662 
L 213.992257 138.371136 
L 214.228656 137.89688 
L 214.465055 137.235991 
L 215.52885 138.713875 
L 215.765249 138.551691 
L 216.001648 138.338623 
L 216.238047 138.482047 
L 217.301842 139.975535 
L 217.77464 140.314736 
L 219.193033 141.935937 
L 219.547632 142.206125 
L 220.138629 142.431608 
L 220.729627 142.988037 
L 220.847826 142.927353 
L 221.320624 142.228685 
L 221.793422 142.477351 
L 222.26622 142.85512 
L 222.502619 142.39832 
L 222.739018 141.463022 
L 223.802813 142.063658 
L 224.039212 141.636446 
L 224.39381 140.727406 
L 225.339406 141.544191 
L 225.575805 141.338767 
L 226.048603 140.755282 
L 226.403201 140.903014 
L 226.994199 141.287884 
L 227.585196 142.02441 
L 228.412592 143.046274 
L 228.88539 143.285561 
L 229.476387 143.374201 
L 229.949185 143.631949 
L 230.185584 143.763947 
L 230.421983 143.52608 
L 230.658382 142.899562 
L 231.603978 143.525668 
L 231.840377 143.429626 
L 232.194975 142.825973 
L 232.313175 142.566396 
L 233.140571 143.42684 
L 233.37697 143.405675 
L 233.967967 142.942983 
L 235.031763 143.692498 
L 235.386361 143.444554 
L 235.50456 143.327429 
L 236.686555 144.237168 
L 236.922954 144.066922 
L 237.041154 143.909985 
L 238.341348 144.614868 
L 238.577747 144.20556 
L 238.695946 143.92081 
L 239.759741 144.600272 
L 239.877941 144.548731 
L 240.11434 144.035041 
L 240.350739 143.253338 
L 241.296334 143.966362 
L 241.414534 143.934926 
L 241.650933 143.497563 
L 241.887332 142.81222 
L 242.951127 143.50137 
L 243.187526 143.183549 
L 243.542124 142.485942 
L 244.60592 143.456034 
L 244.960518 143.063028 
L 245.078718 142.9471 
L 245.787914 143.627388 
L 246.142513 143.904178 
L 246.378912 143.892019 
L 246.73351 143.766127 
L 247.915505 144.713009 
L 248.151904 144.599139 
L 248.388303 144.367087 
L 249.452098 144.949358 
L 249.688497 144.804309 
L 250.279494 143.962533 
L 251.22509 144.277253 
L 251.461489 143.999179 
L 251.697888 143.500671 
L 252.643484 143.818696 
L 252.998082 143.68058 
L 253.47088 143.378108 
L 254.416476 143.704679 
L 255.243872 143.683964 
L 255.71667 143.974223 
L 257.489662 145.501025 
L 257.84426 145.624676 
L 258.435258 145.939841 
L 258.789856 146.185677 
L 259.026255 146.035472 
L 259.144454 145.870777 
L 259.853651 146.132483 
L 260.326449 146.179324 
L 260.681048 145.846145 
L 260.799247 145.652147 
L 261.508444 146.018412 
L 261.863042 145.998718 
L 262.217641 145.725091 
L 262.33584 145.570632 
L 263.163236 145.944976 
L 263.517835 145.903258 
L 263.872433 145.644621 
L 263.990633 145.462182 
L 264.69983 145.908935 
L 265.290827 145.91849 
L 265.645425 145.80269 
L 266.354622 146.195935 
L 266.82742 146.242138 
L 267.300218 146.11296 
L 268.009415 146.622171 
L 268.482213 146.832659 
L 269.07321 146.844485 
L 270.137005 147.774186 
L 270.373404 147.772281 
L 270.491604 147.700839 
L 271.555399 148.468782 
L 271.791798 148.430753 
L 272.146396 148.231396 
L 273.091992 149.009491 
L 273.328391 148.962621 
L 273.801189 148.504795 
L 274.746785 149.249136 
L 274.983184 149.170811 
L 275.337782 148.9114 
L 276.637976 149.457421 
L 277.110774 149.3303 
L 277.583572 149.491222 
L 278.292769 149.941208 
L 279.120165 149.784649 
L 279.474763 150.017134 
L 280.065761 150.524654 
L 280.656758 150.38673 
L 281.129556 150.542282 
L 281.602354 150.818868 
L 281.838753 150.732987 
L 281.956952 150.623217 
L 283.020748 150.995514 
L 283.257146 150.956188 
L 283.611745 150.756974 
L 284.202742 150.910921 
L 284.911939 150.850471 
L 285.266537 150.676263 
L 285.739335 150.881972 
L 286.330333 150.878025 
L 286.684931 150.687656 
L 286.803131 150.549989 
L 287.512327 150.960681 
L 288.103325 151.109205 
L 288.576123 151.192785 
L 292.831304 153.210659 
L 293.422301 153.115506 
L 294.013298 153.027061 
L 294.367897 153.238034 
L 295.313492 153.264939 
L 295.431692 153.184196 
L 296.022689 153.539853 
L 296.495487 153.666536 
L 296.850086 153.743431 
L 297.204684 153.735145 
L 297.677482 154.088873 
L 298.03208 154.297126 
L 298.386679 154.473369 
L 298.859477 154.414225 
L 300.868868 155.752345 
L 301.223466 155.520477 
L 302.287261 156.454147 
L 302.52366 156.306386 
L 302.878259 155.869576 
L 303.232857 155.955323 
L 303.823854 156.478355 
L 304.060253 156.558194 
L 304.296652 156.352908 
L 304.651251 155.836006 
L 305.833245 156.591677 
L 306.424243 156.097651 
L 307.369838 156.751072 
L 307.606237 156.482189 
L 307.960836 156.122417 
L 308.079035 156.088573 
L 308.788232 156.687147 
L 309.024631 156.712928 
L 309.26103 156.512393 
L 309.615628 156.062853 
L 310.324825 156.446877 
L 310.679424 156.406492 
L 311.034022 156.046846 
L 311.270421 155.713853 
L 311.743219 155.948256 
L 312.097817 155.839665 
L 312.570615 155.523776 
L 312.925214 155.299111 
L 313.398011 155.419142 
L 314.225408 155.008887 
L 314.580006 154.798191 
L 314.934605 154.939745 
L 315.8802 154.660939 
L 316.352998 154.399671 
L 316.707597 154.572002 
L 317.416793 154.645416 
L 317.653192 154.666436 
L 317.771392 154.607696 
L 318.362389 154.939898 
L 318.953387 155.051589 
L 319.307985 155.100728 
L 319.426184 155.040486 
L 320.135381 155.439101 
L 321.199176 155.772824 
L 321.790174 156.018102 
L 322.499371 156.123349 
L 322.61757 156.061901 
L 323.444966 156.437981 
L 323.917764 156.479754 
L 324.390562 156.359657 
L 325.099759 156.67149 
L 325.572557 156.655725 
L 325.927155 156.602352 
L 326.754552 156.862173 
L 327.345549 156.76924 
L 327.581948 156.766739 
L 328.409344 157.021484 
L 329.35494 156.857109 
L 332.546326 156.728351 
L 333.610121 156.96599 
L 334.082919 157.185531 
L 334.792116 157.20473 
L 335.028515 157.230301 
L 335.619512 157.42579 
L 336.446908 157.402901 
L 336.565108 157.317696 
L 337.156105 157.540536 
L 337.983501 157.507771 
L 338.3381 157.351421 
L 339.047296 157.568772 
L 339.520094 157.571614 
L 340.46569 157.108767 
L 341.174887 157.16418 
L 341.765884 157.434875 
L 343.420677 158.309873 
L 344.720871 158.928954 
L 346.966661 160.327051 
L 347.557658 160.251479 
L 350.394446 159.248579 
L 350.749044 159.122621 
L 351.103642 159.224595 
L 351.57644 159.175269 
L 351.812839 159.198136 
L 352.049238 159.015549 
L 352.167438 158.845969 
L 352.640236 159.11644 
L 353.704031 158.752588 
L 353.82223 158.579323 
L 354.295028 158.894367 
L 355.358823 158.613996 
L 355.477023 158.421517 
L 355.949821 158.745655 
L 356.659018 158.812816 
L 356.895417 158.850454 
L 357.013616 158.749708 
L 357.486414 159.055445 
L 359.023007 159.432954 
L 359.732204 159.719642 
L 359.732204 159.719642 
" clip-path="url(#pa4a3ef545e)" style="fill: none; stroke: #ff7f0e; stroke-width: 1.5; stroke-linecap: square"/>
   </g>
   <g id="line2d_14">
    <path d="M 55.368567 17.28 
L 55.604966 23.683123 
L 55.959565 29.652084 
L 56.195964 31.198444 
L 56.314163 31.300587 
L 56.668762 30.572922 
L 56.786961 30.391836 
L 57.02336 29.332679 
L 57.259759 28.084019 
L 57.377958 28.024147 
L 58.205355 30.975861 
L 58.323554 31.107525 
L 58.441754 30.947841 
L 58.678153 29.477423 
L 59.26915 23.450082 
L 59.387349 23.5171 
L 59.505549 23.703304 
L 59.741948 24.681728 
L 60.569344 28.901083 
L 60.687544 28.881206 
L 60.923943 29.356575 
L 61.51494 30.835237 
L 61.751339 30.940081 
L 61.869538 30.879546 
L 62.105937 30.324552 
L 62.342336 29.329179 
L 63.051533 30.696736 
L 63.287932 30.462336 
L 63.76073 29.633883 
L 63.997129 28.632958 
L 64.351727 29.455531 
L 64.588126 29.911799 
L 64.824525 29.924193 
L 65.297323 29.54109 
L 65.533722 29.034839 
L 65.770121 29.311738 
L 66.361118 30.371017 
L 66.715717 30.296978 
L 66.833916 30.170029 
L 67.070315 29.244276 
L 67.188515 28.357744 
L 67.424913 28.867586 
L 67.897711 30.153168 
L 68.13411 30.180025 
L 68.370509 29.683723 
L 68.725108 27.813655 
L 68.843307 27.022132 
L 69.079706 28.060397 
L 69.434304 29.90523 
L 69.788903 30.519982 
L 69.907102 30.350243 
L 70.3799 28.723986 
L 70.852698 30.213938 
L 71.089097 30.364794 
L 71.561895 29.596581 
L 71.798294 29.988878 
L 72.152892 30.765385 
L 72.507491 31.11425 
L 72.74389 32.017986 
L 73.216687 34.291027 
L 73.453086 34.685606 
L 73.571286 34.620924 
L 73.807685 33.708509 
L 74.162283 30.929321 
L 74.280483 31.146436 
L 74.87148 32.914338 
L 75.226078 32.246823 
L 75.462477 31.007965 
L 75.935275 27.846569 
L 76.053475 28.041801 
L 76.289874 29.369438 
L 76.526273 31.250571 
L 76.644472 30.914134 
L 76.880871 29.692807 
L 77.235469 30.517778 
L 77.353669 30.124291 
L 77.590068 30.82985 
L 77.944666 32.723708 
L 78.062866 32.836169 
L 78.299265 32.659028 
L 78.535664 32.930845 
L 79.126661 34.094912 
L 79.835858 36.426442 
L 80.072257 36.630023 
L 80.308656 36.942371 
L 80.426855 36.884578 
L 80.663254 36.539256 
L 80.781454 36.533901 
L 80.899653 36.678712 
L 81.49065 38.104709 
L 81.845249 37.878308 
L 82.081648 37.065612 
L 82.318047 36.429985 
L 82.436246 36.498443 
L 82.672645 37.188645 
L 83.027244 38.322238 
L 83.263642 38.396467 
L 83.381842 38.332027 
L 83.618241 37.602604 
L 83.85464 36.74418 
L 84.091039 37.091772 
L 84.800236 39.449633 
L 85.036635 39.319695 
L 85.391233 38.623825 
L 85.627632 39.060539 
L 86.336829 41.253085 
L 86.573228 41.10191 
L 86.809627 40.624639 
L 87.046026 39.891478 
L 87.282424 40.202691 
L 87.518823 40.928341 
L 87.873422 42.103856 
L 88.109821 42.159281 
L 88.22802 42.06404 
L 88.464419 41.342801 
L 88.582619 40.874922 
L 88.937217 41.600411 
L 89.410015 42.865815 
L 89.646414 42.842457 
L 89.882813 42.372225 
L 90.237411 41.342051 
L 90.59201 42.190494 
L 90.946608 43.158375 
L 91.301206 43.494199 
L 91.419406 43.541567 
L 91.537605 43.404861 
L 91.892204 42.214528 
L 92.010403 42.314457 
L 92.246802 42.614868 
L 92.601401 43.245084 
L 92.8378 43.244884 
L 93.074199 43.116212 
L 93.310597 42.705986 
L 93.546996 42.064567 
L 93.783395 42.261125 
L 94.492592 43.378079 
L 94.728991 43.404732 
L 94.96539 43.490992 
L 95.08359 43.401742 
L 95.319988 43.551577 
L 95.556387 43.969664 
L 95.910986 44.618404 
L 96.029185 44.586252 
L 96.738382 43.603341 
L 96.974781 44.159678 
L 97.565778 46.029007 
L 97.802177 46.153919 
L 98.038576 45.725574 
L 98.274975 45.239674 
L 98.393175 45.203377 
L 98.629574 45.491521 
L 98.984172 45.952897 
L 99.33877 46.301305 
L 99.693369 47.377049 
L 100.166167 49.069325 
L 100.284366 49.194253 
L 100.402566 49.149575 
L 100.638965 48.678905 
L 101.111763 47.553711 
L 101.348161 47.838078 
L 101.939159 49.539624 
L 102.175558 48.994525 
L 102.648356 47.120457 
L 102.766555 47.122832 
L 103.121154 47.862662 
L 103.712151 50.199123 
L 104.066749 50.538048 
L 104.184949 50.449256 
L 104.421348 49.834417 
L 104.539547 49.378616 
L 104.894146 50.603414 
L 105.248744 51.755072 
L 105.603342 52.038753 
L 105.721542 51.950596 
L 106.07614 50.877126 
L 106.19434 50.462744 
L 107.139936 52.934849 
L 107.258135 52.942823 
L 107.376334 52.804181 
L 107.612733 52.049729 
L 107.730933 51.525589 
L 108.085531 52.114697 
L 108.676529 53.40206 
L 108.794728 53.392592 
L 109.031127 52.92848 
L 109.385725 51.680079 
L 109.740324 52.535069 
L 110.213122 53.970115 
L 110.449521 54.074266 
L 110.68592 53.529947 
L 111.040518 52.565138 
L 111.158718 52.360996 
L 111.513316 53.396642 
L 111.986114 54.854562 
L 112.104313 54.991051 
L 112.222513 54.956776 
L 112.458912 54.208057 
L 112.695311 53.236925 
L 113.049909 53.957014 
L 113.522707 55.247603 
L 113.759106 55.448008 
L 113.877305 55.360824 
L 114.231904 54.212085 
L 114.350103 53.753805 
L 114.704702 54.482178 
L 115.177499 55.819801 
L 115.413898 55.951153 
L 115.532098 55.774637 
L 115.768497 54.829448 
L 115.886696 54.165729 
L 116.123095 54.550856 
L 116.950492 56.406248 
L 117.068691 56.257333 
L 117.30509 55.185258 
L 117.541489 53.624617 
L 117.896087 54.864129 
L 118.250686 56.077766 
L 118.487085 56.314161 
L 118.605284 56.266963 
L 118.841683 55.375149 
L 119.196281 53.119522 
L 120.023678 55.761592 
L 120.260077 55.868318 
L 120.378276 55.625869 
L 120.732875 53.810463 
L 121.205672 55.362899 
L 121.560271 56.098938 
L 121.79667 56.383856 
L 121.914869 56.350099 
L 122.151268 55.45947 
L 122.387667 54.102277 
L 122.742266 55.230883 
L 123.215063 56.873877 
L 123.451462 56.979014 
L 123.569662 56.732374 
L 124.160659 54.30174 
L 124.397058 54.349158 
L 125.342654 57.345432 
L 125.460853 57.297258 
L 125.697252 56.63766 
L 125.933651 55.621483 
L 126.28825 56.450925 
L 126.761048 57.572471 
L 126.997447 57.689273 
L 127.115646 57.62013 
L 127.352045 57.111217 
L 127.588444 56.273507 
L 127.943042 56.914435 
L 128.41584 57.979735 
L 128.652239 58.112632 
L 128.770439 58.026465 
L 129.006838 57.420619 
L 129.361436 56.285473 
L 129.597835 56.173311 
L 130.070633 57.657958 
L 130.425231 58.441445 
L 130.66163 58.554315 
L 130.898029 57.960832 
L 131.134428 56.765524 
L 131.489026 57.45602 
L 131.961824 58.507456 
L 132.198223 58.65313 
L 132.316423 58.535482 
L 132.552822 57.735021 
L 132.789221 56.663821 
L 133.143819 57.652731 
L 133.498417 58.701671 
L 133.853016 59.05654 
L 133.971215 58.936466 
L 134.562213 57.07322 
L 134.680412 57.119496 
L 135.15321 57.700254 
L 135.389609 57.628994 
L 135.862407 57.455304 
L 136.217005 57.434104 
L 136.689803 58.91594 
L 137.044402 59.760858 
L 137.2808 59.943415 
L 137.399 59.837945 
L 137.635399 58.857218 
L 137.871798 57.393152 
L 138.108197 57.916636 
L 138.817394 59.935687 
L 138.935593 60.051903 
L 139.053793 59.985708 
L 139.290191 58.981327 
L 139.64479 57.515081 
L 139.999388 58.866324 
L 140.353987 60.257173 
L 140.708585 60.842423 
L 140.826785 60.687799 
L 141.181383 58.996417 
L 141.299582 59.227314 
L 142.126979 61.252283 
L 142.245178 61.278598 
L 142.363378 61.186131 
L 142.599777 60.553558 
L 142.836176 59.71686 
L 143.781771 61.537009 
L 144.01817 61.456613 
L 144.254569 60.869735 
L 144.609168 59.909568 
L 144.845567 59.954497 
L 144.963766 60.050822 
L 145.081966 59.953899 
L 145.909362 61.840994 
L 146.145761 61.893251 
L 146.38216 61.323265 
L 146.618559 60.256713 
L 146.973157 61.068861 
L 147.327755 61.928644 
L 147.682354 62.200275 
L 147.800553 62.131393 
L 148.036952 61.431363 
L 148.273351 60.37082 
L 148.62795 61.400545 
L 148.982548 62.305936 
L 149.337146 62.596667 
L 149.455346 62.479225 
L 149.691745 61.541905 
L 149.928144 60.665988 
L 150.046343 60.405533 
L 150.75554 62.76863 
L 151.110139 63.160281 
L 151.228338 62.997691 
L 151.582936 61.496516 
L 152.528532 63.399351 
L 152.764931 63.451357 
L 153.00133 62.881454 
L 153.237729 62.19286 
L 153.355928 62.099205 
L 153.592327 62.293752 
L 154.065125 62.808984 
L 154.892522 63.15397 
L 155.838117 63.683325 
L 156.074516 63.763332 
L 156.192716 63.61537 
L 157.020112 65.475618 
L 157.256511 65.515896 
L 157.49291 64.942718 
L 157.729309 64.012937 
L 158.083907 64.788864 
L 158.438506 65.590237 
L 158.793104 65.837362 
L 158.911304 65.769802 
L 159.147702 65.161016 
L 159.384101 64.34956 
L 159.7387 65.164744 
L 160.093298 65.939384 
L 160.447897 66.177833 
L 160.566096 66.105843 
L 160.802495 65.528202 
L 160.920695 65.126476 
L 161.275293 65.598153 
L 161.748091 66.287522 
L 161.98449 66.376829 
L 162.220889 66.183613 
L 162.575487 65.198203 
L 162.693687 65.324858 
L 163.521083 66.390101 
L 163.757482 66.319877 
L 163.993881 65.888996 
L 164.23028 65.198081 
L 164.584878 65.756701 
L 165.057676 66.51201 
L 165.294075 66.577238 
L 165.530474 66.240527 
L 165.885072 65.388804 
L 166.121471 65.455021 
L 166.830668 66.159515 
L 167.539865 66.732629 
L 168.012663 67.469231 
L 168.367261 67.671726 
L 168.60366 67.643474 
L 168.840059 67.252711 
L 169.076458 66.566426 
L 169.549256 67.357188 
L 169.903854 67.758277 
L 170.140253 67.843523 
L 170.376652 67.56206 
L 170.731251 66.561804 
L 171.085849 67.25055 
L 171.558647 68.106876 
L 171.795046 68.196088 
L 172.031445 67.795863 
L 172.267844 67.140717 
L 172.622442 67.682187 
L 173.09524 68.493131 
L 173.331639 68.637193 
L 173.449838 68.602748 
L 173.686237 68.14117 
L 173.922636 67.626706 
L 174.986432 69.093887 
L 175.104631 69.056538 
L 175.459229 68.472807 
L 175.577429 68.609021 
L 176.286626 69.389376 
L 176.641224 69.454526 
L 176.877623 69.274729 
L 177.114022 68.9134 
L 177.823219 69.66371 
L 178.177817 69.759019 
L 178.414216 69.618371 
L 178.768815 68.962313 
L 178.887014 68.644705 
L 179.950809 70.092571 
L 180.187208 69.746344 
L 180.423607 68.932534 
L 180.778206 69.49309 
L 181.251003 70.39132 
L 181.487402 70.547745 
L 181.605602 70.456567 
L 181.842001 69.739774 
L 182.0784 68.792675 
L 182.432998 69.696531 
L 182.905796 70.900631 
L 183.142195 71.119804 
L 183.260394 71.001688 
L 183.851392 69.148591 
L 184.560589 71.270377 
L 184.915187 71.563467 
L 185.033387 71.364073 
L 185.387985 69.885091 
L 186.097182 71.425391 
L 186.56998 71.479081 
L 186.806379 70.860302 
L 187.042778 70.001704 
L 187.633775 71.185473 
L 188.106573 71.27243 
L 188.342972 70.863094 
L 188.81577 69.136451 
L 189.761365 71.176456 
L 189.879565 71.102389 
L 190.115964 70.312957 
L 190.352363 69.128742 
L 190.706961 69.997205 
L 191.179759 71.247829 
L 191.416158 71.436417 
L 191.534357 71.19758 
L 192.007155 68.931555 
L 192.361754 70.217682 
L 192.716352 71.519517 
L 193.070951 72.02206 
L 193.18915 71.70974 
L 193.661948 69.392849 
L 194.371145 72.323369 
L 194.725743 72.817407 
L 194.843943 72.474525 
L 195.198541 70.688408 
L 195.907738 73.029014 
L 196.380536 73.354567 
L 196.853334 71.780115 
L 197.326131 73.12021 
L 197.798929 73.426111 
L 197.917129 73.495985 
L 198.035328 73.425346 
L 198.271727 72.763368 
L 198.389927 72.326974 
L 199.217323 73.248193 
L 199.453722 73.313951 
L 199.690121 73.019452 
L 200.044719 71.660818 
L 200.162919 71.776308 
L 200.399318 72.176497 
L 200.872116 73.211486 
L 201.108515 73.309877 
L 201.344913 72.764872 
L 201.699512 71.127721 
L 201.935911 71.637467 
L 202.645108 73.786161 
L 202.763307 73.773291 
L 202.999706 72.945858 
L 203.354304 71.620489 
L 203.590703 72.019184 
L 204.063501 72.953871 
L 204.654499 73.894509 
L 205.245496 75.542407 
L 205.600094 75.989128 
L 205.718294 76.043129 
L 205.836493 75.971627 
L 206.191092 75.026219 
L 206.309291 74.684367 
L 206.900289 75.794855 
L 207.373086 75.996351 
L 207.609485 75.673458 
L 207.845884 74.851619 
L 208.90968 75.815554 
L 209.146078 75.427901 
L 209.500677 73.961715 
L 209.618876 74.062712 
L 209.855275 74.390988 
L 210.446273 75.532979 
L 210.564472 75.535148 
L 210.800871 74.989815 
L 211.155469 73.235494 
L 211.273669 73.372098 
L 211.510068 73.857004 
L 212.101065 75.544898 
L 212.219265 75.572298 
L 212.337464 75.359085 
L 212.928462 73.174332 
L 213.28306 74.292539 
L 213.755858 76.068778 
L 213.992257 76.362915 
L 214.110456 76.104341 
L 214.465055 74.512296 
L 214.819653 75.410469 
L 215.41065 77.09093 
L 215.647049 77.332812 
L 215.883448 76.408022 
L 216.119847 75.718078 
L 216.238047 75.606008 
L 216.947244 77.540769 
L 217.301842 78.004989 
L 217.420041 77.893356 
L 217.77464 76.374738 
L 217.892839 76.595503 
L 218.483837 77.664604 
L 218.838435 77.873658 
L 218.956635 77.809547 
L 219.193033 77.090892 
L 219.429432 75.860016 
L 219.784031 76.689441 
L 220.138629 77.489807 
L 220.375028 77.709765 
L 220.493228 77.685205 
L 220.729627 77.056652 
L 221.202424 74.956171 
L 221.557023 76.121112 
L 222.029821 77.652292 
L 222.14802 77.797777 
L 222.26622 77.743962 
L 222.502619 76.825085 
L 222.739018 75.550063 
L 223.093616 76.522161 
L 223.566414 78.166458 
L 223.802813 78.459018 
L 223.921012 78.240445 
L 224.39381 75.830865 
L 224.748409 77.329665 
L 225.103007 78.784084 
L 225.457605 79.459113 
L 225.575805 79.210957 
L 225.930403 77.131862 
L 226.048603 77.130348 
L 226.6396 78.722615 
L 227.230597 79.145849 
L 227.585196 79.14265 
L 228.057994 78.883125 
L 228.88539 78.327564 
L 229.00359 78.292306 
L 229.121789 78.045215 
L 229.594587 79.517295 
L 229.949185 80.523952 
L 230.067385 80.643859 
L 230.185584 80.534543 
L 230.421983 79.535487 
L 230.658382 78.310591 
L 230.894781 78.789556 
L 231.722177 81.340086 
L 231.840377 81.136644 
L 232.313175 78.876112 
L 232.667773 80.126786 
L 233.140571 81.850016 
L 233.37697 82.202436 
L 233.495169 81.935405 
L 233.849768 80.029204 
L 234.795364 82.683893 
L 235.031763 82.847819 
L 235.268161 81.85757 
L 235.50456 80.923344 
L 236.095558 82.676537 
L 236.568356 83.10773 
L 236.686555 83.036512 
L 237.041154 81.743996 
L 237.159353 81.968739 
L 237.86855 83.044937 
L 238.104949 83.150634 
L 238.223148 83.087757 
L 238.459547 82.522391 
L 238.695946 81.615678 
L 239.050545 81.996443 
L 239.759741 83.167202 
L 239.99614 82.773769 
L 240.350739 81.429285 
L 240.468938 81.477506 
L 240.705337 81.762546 
L 241.414534 83.485479 
L 241.650933 82.90445 
L 241.887332 81.896592 
L 242.123731 82.043541 
L 242.36013 82.503299 
L 242.832928 83.859085 
L 242.951127 83.97702 
L 243.069327 83.926549 
L 243.305725 83.1088 
L 243.542124 82.073829 
L 243.896723 82.721536 
L 244.48772 84.261614 
L 244.60592 84.358021 
L 244.724119 84.274528 
L 244.960518 83.289506 
L 245.078718 82.684018 
L 245.551515 83.549547 
L 245.906114 84.133825 
L 246.142513 84.223108 
L 246.260712 84.193792 
L 246.378912 83.996941 
L 246.73351 82.303754 
L 246.85171 82.51816 
L 247.442707 83.582013 
L 247.679106 83.64356 
L 247.915505 83.493715 
L 248.151904 82.707856 
L 248.388303 81.363229 
L 249.333898 83.024588 
L 249.452098 82.976707 
L 249.688497 82.369775 
L 250.161295 80.283849 
L 250.515893 81.523336 
L 250.870492 82.666745 
L 251.10689 83.013624 
L 251.22509 82.98438 
L 251.461489 82.14999 
L 251.697888 80.943486 
L 252.052486 82.014903 
L 252.525284 83.487855 
L 252.761683 83.763734 
L 252.879883 83.594244 
L 253.35268 81.434817 
L 254.298276 84.7194 
L 254.416476 84.840119 
L 254.534675 84.62931 
L 255.007473 82.635993 
L 255.480271 83.565359 
L 255.834869 83.606235 
L 256.425867 83.487705 
L 257.607861 82.837292 
L 258.553457 85.400002 
L 258.671657 85.348809 
L 258.908056 84.512858 
L 259.144454 83.206564 
L 259.499053 84.21553 
L 259.971851 85.897913 
L 260.20825 86.179337 
L 260.326449 85.955872 
L 260.799247 83.50588 
L 261.153845 84.968389 
L 261.508444 86.513144 
L 261.744843 87.011899 
L 261.863042 87.043193 
L 261.981242 86.666236 
L 262.33584 84.356552 
L 262.690439 85.700319 
L 263.163236 87.369314 
L 263.399635 87.685298 
L 263.517835 87.555256 
L 263.990633 84.82136 
L 264.108832 85.224588 
L 264.818029 87.523769 
L 265.054428 87.842942 
L 265.172627 87.679493 
L 265.527226 85.657516 
L 265.645425 85.909172 
L 266.591021 87.937702 
L 266.709221 87.922132 
L 266.94562 87.074673 
L 267.182018 85.784507 
L 267.654816 86.706103 
L 268.127614 87.877451 
L 268.245814 87.994845 
L 268.364013 87.948411 
L 268.600412 87.183801 
L 268.955011 85.730891 
L 269.309609 86.583884 
L 269.900606 88.327249 
L 270.018806 88.403497 
L 270.137005 88.268198 
L 270.373404 87.365634 
L 270.491604 86.70676 
L 270.846202 87.280284 
L 271.437199 88.81908 
L 271.555399 88.904104 
L 271.673598 88.792094 
L 271.909997 87.832745 
L 272.146396 86.426342 
L 272.500995 87.396007 
L 272.973793 88.877504 
L 273.210191 89.024042 
L 273.328391 88.76614 
L 273.682989 86.616756 
L 273.801189 85.871352 
L 274.155787 87.236507 
L 274.510386 88.515487 
L 274.746785 88.817597 
L 274.864984 88.800119 
L 274.983184 88.466947 
L 275.337782 86.189856 
L 275.69238 87.490394 
L 276.046979 88.661857 
L 276.401577 88.895065 
L 276.519777 88.748312 
L 276.756176 87.536401 
L 276.992575 86.19509 
L 277.819971 89.026431 
L 278.05637 89.256321 
L 278.174569 89.151124 
L 278.765567 86.97818 
L 279.356564 89.537216 
L 279.829362 90.28294 
L 279.947561 90.156433 
L 280.30216 88.668812 
L 281.011357 90.855757 
L 281.484154 91.077626 
L 281.720553 90.279971 
L 281.956952 89.203216 
L 282.784349 91.514304 
L 283.020748 91.638224 
L 283.138947 91.486865 
L 283.375346 90.530697 
L 283.493545 89.862841 
L 283.848144 90.512345 
L 284.320942 91.53101 
L 284.557341 91.630051 
L 284.67554 91.462862 
L 284.911939 90.528423 
L 285.148338 89.176262 
L 285.502936 89.937962 
L 285.975734 91.275815 
L 286.212133 91.401374 
L 286.330333 91.161825 
L 286.684931 89.243695 
L 286.803131 88.569391 
L 287.157729 89.6378 
L 287.630527 91.207302 
L 287.866926 91.419418 
L 287.985125 91.181528 
L 288.339724 89.250635 
L 288.694322 90.300663 
L 289.16712 91.700786 
L 289.403519 91.974325 
L 289.521718 91.954799 
L 289.758117 91.050958 
L 289.994516 89.948455 
L 290.821913 92.52291 
L 291.176511 92.852408 
L 291.41291 92.022598 
L 291.649309 91.296464 
L 291.885708 91.516536 
L 292.476705 92.434697 
L 292.831304 92.439672 
L 293.6587 92.274347 
L 293.776899 92.250577 
L 293.895099 92.068049 
L 294.249697 92.662113 
L 294.840695 94.276418 
L 294.958894 94.261891 
L 295.195293 93.586314 
L 295.431692 92.472712 
L 295.78629 92.735924 
L 296.022689 93.461118 
L 296.377288 94.747884 
L 296.495487 94.899299 
L 296.613687 94.84398 
L 296.850086 94.00927 
L 297.086484 92.981872 
L 297.322883 93.169647 
L 297.559282 93.748183 
L 298.03208 95.629004 
L 298.15028 95.763312 
L 298.268479 95.677748 
L 298.504878 94.759546 
L 298.741277 93.874131 
L 298.859477 93.780252 
L 299.095875 94.024352 
L 300.514269 96.373816 
L 300.750668 96.299265 
L 300.987067 95.733423 
L 301.223466 94.672122 
L 301.578064 95.054363 
L 302.169062 96.151082 
L 302.287261 96.124343 
L 302.52366 95.70763 
L 303.114657 93.987154 
L 303.469256 94.840372 
L 303.942054 95.977586 
L 304.178453 95.999247 
L 304.414852 95.424683 
L 304.651251 94.366588 
L 305.005849 95.032844 
L 305.478647 96.099341 
L 305.715046 96.213141 
L 305.833245 96.086435 
L 306.069644 95.271504 
L 306.306043 94.232766 
L 306.778841 95.480079 
L 307.133439 96.302707 
L 307.369838 96.470395 
L 307.488038 96.367246 
L 307.724437 95.488915 
L 307.960836 94.721905 
L 308.079035 94.520181 
L 308.906432 96.618415 
L 309.14283 96.775086 
L 309.26103 96.618982 
L 309.615628 95.284439 
L 310.679424 96.967108 
L 310.797623 96.903611 
L 311.034022 96.176926 
L 311.270421 95.207366 
L 311.743219 95.887839 
L 312.216017 96.873462 
L 312.452416 96.891146 
L 312.688815 96.225104 
L 312.807014 95.766814 
L 313.279812 95.958959 
L 313.870809 97.052417 
L 313.989009 97.050503 
L 314.225408 96.596618 
L 314.580006 95.775687 
L 314.816405 95.792416 
L 315.052804 96.263938 
L 315.407402 97.217411 
L 315.643801 97.321498 
L 315.8802 96.822911 
L 316.234799 95.863012 
L 316.471198 95.900722 
L 316.707597 96.295674 
L 317.180394 97.639006 
L 317.416793 97.638764 
L 317.653192 97.148201 
L 317.889591 96.750206 
L 318.12599 96.710687 
L 318.362389 97.09302 
L 318.716988 98.000239 
L 318.953387 98.089133 
L 319.189785 97.666328 
L 319.544384 96.850051 
L 319.780783 96.95075 
L 320.017182 97.426545 
L 320.37178 98.188826 
L 320.608179 98.168265 
L 320.844578 97.652103 
L 320.962778 97.217608 
L 321.435575 97.544792 
L 322.026573 98.360003 
L 322.262972 98.175471 
L 322.61757 97.075207 
L 322.73577 97.222155 
L 323.208567 98.057031 
L 323.563166 98.571084 
L 323.799565 98.542505 
L 324.035964 98.019445 
L 324.272363 97.24475 
L 325.217958 99.095547 
L 325.336158 99.132651 
L 325.454357 99.041781 
L 325.808956 98.021445 
L 326.754552 99.759206 
L 326.990951 99.779384 
L 327.227349 99.235761 
L 327.463748 98.532133 
L 328.172945 100.161997 
L 328.527544 100.318234 
L 328.645743 100.256812 
L 328.882142 99.640667 
L 329.118541 99.150788 
L 330.064137 99.463876 
L 330.536935 99.302475 
L 331.009733 99.177144 
L 331.718929 99.26892 
L 332.782725 99.461175 
L 333.255522 99.261281 
L 333.373722 98.967139 
L 333.964719 100.266502 
L 334.201118 100.380457 
L 334.437517 100.227873 
L 334.673916 99.537135 
L 334.910315 98.388746 
L 335.737711 99.820706 
L 335.97411 99.781867 
L 336.210509 99.15192 
L 336.565108 97.2347 
L 337.392504 99.108359 
L 337.628903 99.181388 
L 337.747102 98.951077 
L 338.101701 97.034387 
L 338.2199 96.376607 
L 339.047296 98.759206 
L 339.283695 98.980412 
L 339.401895 98.746351 
L 339.874693 96.411857 
L 339.992892 96.457107 
L 340.46569 96.995601 
L 341.293086 97.230535 
L 342.120483 97.103049 
L 343.657076 96.624964 
L 344.248073 96.745435 
L 346.021065 97.37495 
L 346.966661 97.203812 
L 347.794057 97.168509 
L 349.685249 97.330988 
L 350.394446 96.990264 
L 350.512645 96.915189 
L 350.630845 96.594519 
L 350.985443 97.597081 
L 351.458241 99.220891 
L 351.57644 99.342297 
L 351.69464 99.201849 
L 351.931039 98.135193 
L 352.167438 96.544691 
L 352.522036 97.231673 
L 353.113033 99.168655 
L 353.231233 99.177568 
L 353.467632 98.211375 
L 353.82223 96.041488 
L 354.176829 97.166037 
L 354.767826 99.410022 
L 354.886026 99.448817 
L 355.004225 99.032434 
L 355.477023 95.968073 
L 355.949821 98.174998 
L 356.422619 99.961198 
L 356.540818 100.030453 
L 356.777217 98.573382 
L 357.013616 97.091283 
L 358.077411 101.183972 
L 358.195611 101.015319 
L 358.668409 98.027224 
L 359.495805 101.693818 
L 359.732204 102.381251 
L 359.732204 102.381251 
" clip-path="url(#pa4a3ef545e)" style="fill: none; stroke: #2ca02c; stroke-width: 1.5; stroke-linecap: square"/>
   </g>
   <g id="patch_3">
    <path d="M 40.150386 228.96 
L 40.150386 7.2 
" style="fill: none; stroke: #000000; stroke-width: 0.8; stroke-linejoin: miter; stroke-linecap: square"/>
   </g>
   <g id="patch_4">
    <path d="M 374.950386 228.96 
L 374.950386 7.2 
" style="fill: none; stroke: #000000; stroke-width: 0.8; stroke-linejoin: miter; stroke-linecap: square"/>
   </g>
   <g id="patch_5">
    <path d="M 40.150386 228.96 
L 374.950386 228.96 
" style="fill: none; stroke: #000000; stroke-width: 0.8; stroke-linejoin: miter; stroke-linecap: square"/>
   </g>
   <g id="patch_6">
    <path d="M 40.150386 7.2 
L 374.950386 7.2 
" style="fill: none; stroke: #000000; stroke-width: 0.8; stroke-linejoin: miter; stroke-linecap: square"/>
   </g>
   <g id="legend_1">
    <g id="patch_7">
     <path d="M 144.410035 43.640613 
L 270.690736 43.640613 
Q 272.690736 43.640613 272.690736 41.640613 
L 272.690736 14.2 
Q 272.690736 12.2 270.690736 12.2 
L 144.410035 12.2 
Q 142.410035 12.2 142.410035 14.2 
L 142.410035 41.640613 
Q 142.410035 43.640613 144.410035 43.640613 
z
" style="fill: #ffffff; opacity: 0.8; stroke: #cccccc; stroke-linejoin: miter"/>
    </g>
    <g id="line2d_15">
     <path d="M 146.410035 19.79832 
L 156.410035 19.79832 
L 166.410035 19.79832 
" style="fill: none; stroke: #1f77b4; stroke-width: 1.5; stroke-linecap: square"/>
    </g>
    <g id="text_14">
     <!-- $\rho$ -->
     <g transform="translate(174.410035 23.29832) scale(0.1 -0.1)">
      <defs>
       <path id="CMMI12-1a" d="M 198 -1085 
C 192 -1116 179 -1154 179 -1191 
C 179 -1287 256 -1351 352 -1351 
C 448 -1351 538 -1287 576 -1198 
C 602 -1141 781 -390 986 389 
C 1114 70 1350 -64 1600 -64 
C 2323 -64 3142 830 3142 1794 
C 3142 2477 2726 2816 2285 2816 
C 1722 2816 1037 2234 826 1385 
L 198 -1085 
z
M 1594 64 
C 1158 64 1050 568 1050 645 
C 1050 683 1210 1289 1229 1385 
C 1555 2656 2182 2687 2278 2687 
C 2566 2687 2726 2426 2726 2049 
C 2726 1724 2554 1091 2445 823 
C 2253 383 1920 64 1594 64 
z
" transform="scale(0.015625)"/>
      </defs>
      <use xlink:href="#CMMI12-1a" transform="scale(0.996264)"/>
     </g>
    </g>
    <g id="line2d_16">
     <path d="M 146.410035 34.018627 
L 156.410035 34.018627 
L 166.410035 34.018627 
" style="fill: none; stroke: #ff7f0e; stroke-width: 1.5; stroke-linecap: square"/>
    </g>
    <g id="text_15">
     <!-- $\rho u$ -->
     <g transform="translate(174.410035 37.518627) scale(0.1 -0.1)">
      <defs>
       <path id="CMMI12-75" d="M 2182 370 
C 2266 12 2573 -64 2726 -64 
C 2931 -64 3085 70 3187 287 
C 3296 517 3379 893 3379 913 
C 3379 944 3354 970 3315 970 
C 3258 970 3251 938 3226 842 
C 3110 402 2995 64 2739 64 
C 2547 64 2547 274 2547 357 
C 2547 504 2566 568 2630 836 
C 2675 1008 2720 1181 2758 1359 
L 3021 2400 
C 3066 2560 3066 2572 3066 2591 
C 3066 2687 2989 2752 2893 2752 
C 2707 2752 2662 2591 2624 2432 
C 2560 2183 2214 810 2170 587 
C 2163 587 1914 64 1446 64 
C 1114 64 1050 351 1050 587 
C 1050 951 1229 1462 1395 1890 
C 1472 2094 1504 2177 1504 2305 
C 1504 2579 1306 2816 998 2816 
C 410 2816 173 1890 173 1838 
C 173 1813 198 1781 243 1781 
C 301 1781 307 1807 333 1896 
C 486 2445 736 2687 979 2687 
C 1043 2687 1146 2681 1146 2477 
C 1146 2311 1075 2126 979 1883 
C 698 1123 666 881 666 689 
C 666 38 1158 -64 1421 -64 
C 1830 -64 2054 217 2182 370 
z
" transform="scale(0.015625)"/>
      </defs>
      <use xlink:href="#CMMI12-1a" transform="scale(0.996264)"/>
      <use xlink:href="#CMMI12-75" transform="translate(50.314373 0) scale(0.996264)"/>
     </g>
    </g>
    <g id="line2d_17">
     <path d="M 205.264062 19.79832 
L 215.264062 19.79832 
L 225.264062 19.79832 
" style="fill: none; stroke: #2ca02c; stroke-width: 1.5; stroke-linecap: square"/>
    </g>
    <g id="text_16">
     <!-- $\rho E$ -->
     <g transform="translate(233.264062 23.29832) scale(0.1 -0.1)">
      <defs>
       <path id="CMMI12-45" d="M 4448 1489 
C 4454 1508 4474 1553 4474 1578 
C 4474 1611 4448 1643 4410 1643 
C 4384 1643 4371 1636 4352 1617 
C 4339 1611 4339 1598 4282 1469 
C 3904 570 3629 185 2605 185 
L 1670 185 
C 1581 185 1568 185 1530 192 
C 1459 198 1453 211 1453 262 
C 1453 307 1466 346 1478 403 
L 1920 2176 
L 2554 2176 
C 3053 2176 3091 2066 3091 1874 
C 3091 1810 3091 1752 3046 1559 
C 3034 1534 3027 1508 3027 1489 
C 3027 1444 3059 1424 3098 1424 
C 3155 1424 3162 1469 3187 1559 
L 3552 3036 
C 3552 3068 3526 3099 3488 3099 
C 3430 3099 3424 3074 3398 2986 
C 3270 2500 3142 2361 2573 2361 
L 1965 2361 
L 2362 3913 
C 2419 4134 2432 4153 2694 4153 
L 3610 4153 
C 4397 4153 4557 3945 4557 3465 
C 4557 3459 4557 3282 4531 3074 
C 4525 3049 4518 3011 4518 2998 
C 4518 2948 4550 2929 4589 2929 
C 4634 2929 4659 2954 4672 3068 
L 4806 4172 
C 4806 4191 4819 4255 4819 4268 
C 4819 4339 4762 4339 4646 4339 
L 1523 4339 
C 1402 4339 1338 4339 1338 4223 
C 1338 4153 1382 4153 1491 4153 
C 1888 4153 1888 4109 1888 4039 
C 1888 4008 1882 3983 1862 3913 
L 998 474 
C 941 249 928 185 480 185 
C 358 185 294 185 294 70 
C 294 0 333 0 461 0 
L 3674 0 
C 3814 0 3821 6 3866 108 
L 4448 1489 
z
" transform="scale(0.015625)"/>
      </defs>
      <use xlink:href="#CMMI12-1a" transform="scale(0.996264)"/>
      <use xlink:href="#CMMI12-45" transform="translate(50.314373 0) scale(0.996264)"/>
     </g>
    </g>
    <g id="line2d_18">
     <path d="M 205.264062 34.018627 
L 215.264062 34.018627 
L 225.264062 34.018627 
" style="fill: none; stroke-dasharray: 3.7,1.6; stroke-dashoffset: 0; stroke: #808080"/>
    </g>
    <g id="text_17">
     <!-- Time [s] -->
     <g transform="translate(233.264062 37.518627) scale(0.1 -0.1)">
      <defs>
       <path id="NimbusSanL-Regu-54" d="M 2266 4147 
L 3795 4147 
L 3795 4672 
L 134 4672 
L 134 4147 
L 1670 4147 
L 1670 0 
L 2266 0 
L 2266 4147 
z
" transform="scale(0.015625)"/>
       <path id="NimbusSanL-Regu-6d" d="M 448 3328 
L 448 0 
L 986 0 
L 986 2089 
C 986 2597 1338 2988 1773 2988 
C 2170 2988 2394 2744 2394 2315 
L 2394 0 
L 2931 0 
L 2931 2109 
C 2931 2597 3283 2988 3718 2988 
C 4109 2988 4339 2738 4339 2315 
L 4339 0 
L 4877 0 
L 4877 2520 
C 4877 3123 4531 3456 3904 3456 
C 3456 3456 3187 3321 2874 2943 
C 2675 3302 2406 3456 1971 3456 
C 1523 3456 1229 3289 941 2886 
L 941 3328 
L 448 3328 
z
" transform="scale(0.015625)"/>
       <path id="NimbusSanL-Regu-5b" d="M 1600 4672 
L 410 4672 
L 410 -1357 
L 1600 -1357 
L 1600 -896 
L 941 -896 
L 941 4211 
L 1600 4211 
L 1600 4672 
z
" transform="scale(0.015625)"/>
       <path id="NimbusSanL-Regu-5d" d="M 147 -1357 
L 1338 -1357 
L 1338 4672 
L 147 4672 
L 147 4211 
L 806 4211 
L 806 -896 
L 147 -896 
L 147 -1357 
z
" transform="scale(0.015625)"/>
      </defs>
      <use xlink:href="#NimbusSanL-Regu-54" transform="scale(0.996264)"/>
      <use xlink:href="#NimbusSanL-Regu-69" transform="translate(60.871631 0) scale(0.996264)"/>
      <use xlink:href="#NimbusSanL-Regu-6d" transform="translate(82.988415 0) scale(0.996264)"/>
      <use xlink:href="#NimbusSanL-Regu-65" transform="translate(165.976845 0) scale(0.996264)"/>
      <use xlink:href="#NimbusSanL-Regu-5b" transform="translate(249.063692 0) scale(0.996264)"/>
      <use xlink:href="#NimbusSanL-Regu-73" transform="translate(276.758861 0) scale(0.996264)"/>
      <use xlink:href="#NimbusSanL-Regu-5d" transform="translate(326.572062 0) scale(0.996264)"/>
     </g>
    </g>
   </g>
  </g>
  <g id="axes_2">
   <g id="matplotlib.axis_3">
    <g id="ytick_6">
     <g id="line2d_19">
      <defs>
       <path id="mf35499add2" d="M 0 0 
L 3.5 0 
" style="stroke: #000000; stroke-width: 0.8"/>
      </defs>
      <g>
       <use xlink:href="#mf35499add2" x="374.950386" y="218.88" style="stroke: #000000; stroke-width: 0.8"/>
      </g>
     </g>
     <g id="text_18">
      <!-- $\mathdefault{0}$ -->
      <g transform="translate(381.950386 222.42916) scale(0.1 -0.1)">
       <use xlink:href="#CMR17-30" transform="scale(0.996264)"/>
      </g>
     </g>
    </g>
    <g id="ytick_7">
     <g id="line2d_20">
      <g>
       <use xlink:href="#mf35499add2" x="374.950386" y="169.834073" style="stroke: #000000; stroke-width: 0.8"/>
      </g>
     </g>
     <g id="text_19">
      <!-- $\mathdefault{50}$ -->
      <g transform="translate(381.950386 173.383233) scale(0.1 -0.1)">
       <use xlink:href="#CMR17-35" transform="scale(0.996264)"/>
       <use xlink:href="#CMR17-30" transform="translate(45.690477 0) scale(0.996264)"/>
      </g>
     </g>
    </g>
    <g id="ytick_8">
     <g id="line2d_21">
      <g>
       <use xlink:href="#mf35499add2" x="374.950386" y="120.788146" style="stroke: #000000; stroke-width: 0.8"/>
      </g>
     </g>
     <g id="text_20">
      <!-- $\mathdefault{100}$ -->
      <g transform="translate(381.950386 124.337306) scale(0.1 -0.1)">
       <use xlink:href="#CMR17-31" transform="scale(0.996264)"/>
       <use xlink:href="#CMR17-30" transform="translate(45.690477 0) scale(0.996264)"/>
       <use xlink:href="#CMR17-30" transform="translate(91.380954 0) scale(0.996264)"/>
      </g>
     </g>
    </g>
    <g id="ytick_9">
     <g id="line2d_22">
      <g>
       <use xlink:href="#mf35499add2" x="374.950386" y="71.742219" style="stroke: #000000; stroke-width: 0.8"/>
      </g>
     </g>
     <g id="text_21">
      <!-- $\mathdefault{150}$ -->
      <g transform="translate(381.950386 75.291379) scale(0.1 -0.1)">
       <use xlink:href="#CMR17-31" transform="scale(0.996264)"/>
       <use xlink:href="#CMR17-35" transform="translate(45.690477 0) scale(0.996264)"/>
       <use xlink:href="#CMR17-30" transform="translate(91.380954 0) scale(0.996264)"/>
      </g>
     </g>
    </g>
    <g id="ytick_10">
     <g id="line2d_23">
      <g>
       <use xlink:href="#mf35499add2" x="374.950386" y="22.696292" style="stroke: #000000; stroke-width: 0.8"/>
      </g>
     </g>
     <g id="text_22">
      <!-- $\mathdefault{200}$ -->
      <g transform="translate(381.950386 26.245452) scale(0.1 -0.1)">
       <use xlink:href="#CMR17-32" transform="scale(0.996264)"/>
       <use xlink:href="#CMR17-30" transform="translate(45.690477 0) scale(0.996264)"/>
       <use xlink:href="#CMR17-30" transform="translate(91.380954 0) scale(0.996264)"/>
      </g>
     </g>
    </g>
    <g id="text_23">
     <!-- Time [s] -->
     <g transform="translate(407.992712 135.793337) rotate(-90) scale(0.1 -0.1)">
      <use xlink:href="#NimbusSanL-Regu-54" transform="scale(0.996264)"/>
      <use xlink:href="#NimbusSanL-Regu-69" transform="translate(60.871631 0) scale(0.996264)"/>
      <use xlink:href="#NimbusSanL-Regu-6d" transform="translate(82.988415 0) scale(0.996264)"/>
      <use xlink:href="#NimbusSanL-Regu-65" transform="translate(165.976845 0) scale(0.996264)"/>
      <use xlink:href="#NimbusSanL-Regu-5b" transform="translate(249.063692 0) scale(0.996264)"/>
      <use xlink:href="#NimbusSanL-Regu-73" transform="translate(276.758861 0) scale(0.996264)"/>
      <use xlink:href="#NimbusSanL-Regu-5d" transform="translate(326.572062 0) scale(0.996264)"/>
     </g>
    </g>
   </g>
   <g id="line2d_24">
    <path d="M 55.368567 218.88 
L 359.732204 17.28 
" clip-path="url(#pa4a3ef545e)" style="fill: none; stroke-dasharray: 3.7,1.6; stroke-dashoffset: 0; stroke: #808080"/>
   </g>
   <g id="patch_8">
    <path d="M 40.150386 228.96 
L 40.150386 7.2 
" style="fill: none; stroke: #000000; stroke-width: 0.8; stroke-linejoin: miter; stroke-linecap: square"/>
   </g>
   <g id="patch_9">
    <path d="M 374.950386 228.96 
L 374.950386 7.2 
" style="fill: none; stroke: #000000; stroke-width: 0.8; stroke-linejoin: miter; stroke-linecap: square"/>
   </g>
   <g id="patch_10">
    <path d="M 40.150386 228.96 
L 374.950386 228.96 
" style="fill: none; stroke: #000000; stroke-width: 0.8; stroke-linejoin: miter; stroke-linecap: square"/>
   </g>
   <g id="patch_11">
    <path d="M 40.150386 7.2 
L 374.950386 7.2 
" style="fill: none; stroke: #000000; stroke-width: 0.8; stroke-linejoin: miter; stroke-linecap: square"/>
   </g>
  </g>
 </g>
 <defs>
  <clipPath id="pa4a3ef545e">
   <rect x="40.150386" y="7.2" width="334.8" height="221.76"/>
  </clipPath>
 </defs>
</svg>
