<?xml version="1.0" encoding="utf-8" standalone="no"?>
<!DOCTYPE svg PUBLIC "-//W3C//DTD SVG 1.1//EN"
  "http://www.w3.org/Graphics/SVG/1.1/DTD/svg11.dtd">
<svg xmlns:xlink="http://www.w3.org/1999/xlink" width="379.500416pt" height="265.600613pt" viewBox="0 0 379.500416 265.600613" xmlns="http://www.w3.org/2000/svg" version="1.1">
 <metadata>
  <rdf:RDF xmlns:dc="http://purl.org/dc/elements/1.1/" xmlns:cc="http://creativecommons.org/ns#" xmlns:rdf="http://www.w3.org/1999/02/22-rdf-syntax-ns#">
   <cc:Work>
    <dc:type rdf:resource="http://purl.org/dc/dcmitype/StillImage"/>
    <dc:date>2025-08-02T14:00:33.078549</dc:date>
    <dc:format>image/svg+xml</dc:format>
    <dc:creator>
     <cc:Agent>
      <dc:title>Matplotlib v3.10.3, https://matplotlib.org/</dc:title>
     </cc:Agent>
    </dc:creator>
   </cc:Work>
  </rdf:RDF>
 </metadata>
 <defs>
  <style type="text/css">*{stroke-linejoin: round; stroke-linecap: butt}</style>
 </defs>
 <g id="figure_1">
  <g id="patch_1">
   <path d="M 0 265.600613 
L 379.500416 265.600613 
L 379.500416 0 
L 0 0 
z
" style="fill: #ffffff"/>
  </g>
  <g id="axes_1">
   <g id="patch_2">
    <path d="M 32.586009 228.96 
L 367.386009 228.96 
L 367.386009 7.2 
L 32.586009 7.2 
z
" style="fill: #ffffff"/>
   </g>
   <g id="matplotlib.axis_1">
    <g id="xtick_1">
     <g id="line2d_1">
      <defs>
       <path id="m904f109272" d="M 0 0 
L 0 3.5 
" style="stroke: #000000; stroke-width: 0.8"/>
      </defs>
      <g>
       <use xlink:href="#m904f109272" x="47.804191" y="228.96" style="stroke: #000000; stroke-width: 0.8"/>
      </g>
     </g>
     <g id="text_1">
      <!-- $\mathdefault{0}$ -->
      <g transform="translate(45.313523 243.05832) scale(0.1 -0.1)">
       <defs>
        <path id="CMR17-30" d="M 2688 2038 
C 2688 2430 2682 3099 2413 3613 
C 2176 4063 1798 4224 1466 4224 
C 1158 4224 768 4082 525 3620 
C 269 3137 243 2539 243 2038 
C 243 1671 250 1112 448 623 
C 723 -39 1216 -128 1466 -128 
C 1760 -128 2208 -7 2470 604 
C 2662 1048 2688 1568 2688 2038 
z
M 1466 -26 
C 1056 -26 813 328 723 816 
C 653 1196 653 1749 653 2109 
C 653 2604 653 3015 736 3407 
C 858 3954 1216 4121 1466 4121 
C 1728 4121 2067 3947 2189 3420 
C 2272 3054 2278 2623 2278 2109 
C 2278 1691 2278 1176 2202 797 
C 2067 96 1690 -26 1466 -26 
z
" transform="scale(0.015625)"/>
       </defs>
       <use xlink:href="#CMR17-30" transform="scale(0.996264)"/>
      </g>
     </g>
    </g>
    <g id="xtick_2">
     <g id="line2d_2">
      <g>
       <use xlink:href="#m904f109272" x="100.22645" y="228.96" style="stroke: #000000; stroke-width: 0.8"/>
      </g>
     </g>
     <g id="text_2">
      <!-- $\mathdefault{500}$ -->
      <g transform="translate(92.754447 243.05832) scale(0.1 -0.1)">
       <defs>
        <path id="CMR17-35" d="M 730 3750 
C 794 3724 1056 3641 1325 3641 
C 1920 3641 2246 3961 2432 4140 
C 2432 4191 2432 4224 2394 4224 
C 2387 4224 2374 4224 2323 4198 
C 2099 4102 1837 4032 1517 4032 
C 1325 4032 1037 4055 723 4191 
C 653 4224 640 4224 634 4224 
C 602 4224 595 4217 595 4090 
L 595 2231 
C 595 2113 595 2080 659 2080 
C 691 2080 704 2093 736 2139 
C 941 2435 1222 2560 1542 2560 
C 1766 2560 2246 2415 2246 1293 
C 2246 1087 2246 716 2054 422 
C 1894 159 1645 25 1370 25 
C 947 25 518 319 403 812 
C 429 806 480 793 506 793 
C 589 793 749 838 749 1036 
C 749 1209 627 1280 506 1280 
C 358 1280 262 1190 262 1011 
C 262 454 704 -128 1382 -128 
C 2042 -128 2669 441 2669 1267 
C 2669 2054 2170 2662 1549 2662 
C 1222 2662 947 2540 730 2304 
L 730 3750 
z
" transform="scale(0.015625)"/>
       </defs>
       <use xlink:href="#CMR17-35" transform="scale(0.996264)"/>
       <use xlink:href="#CMR17-30" transform="translate(45.690477 0) scale(0.996264)"/>
       <use xlink:href="#CMR17-30" transform="translate(91.380954 0) scale(0.996264)"/>
      </g>
     </g>
    </g>
    <g id="xtick_3">
     <g id="line2d_3">
      <g>
       <use xlink:href="#m904f109272" x="152.648709" y="228.96" style="stroke: #000000; stroke-width: 0.8"/>
      </g>
     </g>
     <g id="text_3">
      <!-- $\mathdefault{1000}$ -->
      <g transform="translate(142.686039 243.05832) scale(0.1 -0.1)">
       <defs>
        <path id="CMR17-31" d="M 1702 4083 
C 1702 4217 1696 4224 1606 4224 
C 1357 3927 979 3833 621 3820 
C 602 3820 570 3820 563 3808 
C 557 3795 557 3782 557 3648 
C 755 3648 1088 3686 1344 3839 
L 1344 467 
C 1344 243 1331 166 781 166 
L 589 166 
L 589 0 
C 896 6 1216 12 1523 12 
C 1830 12 2150 6 2458 0 
L 2458 166 
L 2266 166 
C 1715 166 1702 236 1702 467 
L 1702 4083 
z
" transform="scale(0.015625)"/>
       </defs>
       <use xlink:href="#CMR17-31" transform="scale(0.996264)"/>
       <use xlink:href="#CMR17-30" transform="translate(45.690477 0) scale(0.996264)"/>
       <use xlink:href="#CMR17-30" transform="translate(91.380954 0) scale(0.996264)"/>
       <use xlink:href="#CMR17-30" transform="translate(137.071431 0) scale(0.996264)"/>
      </g>
     </g>
    </g>
    <g id="xtick_4">
     <g id="line2d_4">
      <g>
       <use xlink:href="#m904f109272" x="205.070968" y="228.96" style="stroke: #000000; stroke-width: 0.8"/>
      </g>
     </g>
     <g id="text_4">
      <!-- $\mathdefault{1500}$ -->
      <g transform="translate(195.108298 243.05832) scale(0.1 -0.1)">
       <use xlink:href="#CMR17-31" transform="scale(0.996264)"/>
       <use xlink:href="#CMR17-35" transform="translate(45.690477 0) scale(0.996264)"/>
       <use xlink:href="#CMR17-30" transform="translate(91.380954 0) scale(0.996264)"/>
       <use xlink:href="#CMR17-30" transform="translate(137.071431 0) scale(0.996264)"/>
      </g>
     </g>
    </g>
    <g id="xtick_5">
     <g id="line2d_5">
      <g>
       <use xlink:href="#m904f109272" x="257.493227" y="228.96" style="stroke: #000000; stroke-width: 0.8"/>
      </g>
     </g>
     <g id="text_5">
      <!-- $\mathdefault{2000}$ -->
      <g transform="translate(247.530557 243.05832) scale(0.1 -0.1)">
       <defs>
        <path id="CMR17-32" d="M 2669 990 
L 2554 990 
C 2490 537 2438 460 2413 422 
C 2381 371 1920 371 1830 371 
L 602 371 
C 832 620 1280 1073 1824 1596 
C 2214 1966 2669 2400 2669 3033 
C 2669 3788 2067 4224 1395 4224 
C 691 4224 262 3603 262 3027 
C 262 2777 448 2745 525 2745 
C 589 2745 781 2783 781 3007 
C 781 3206 614 3264 525 3264 
C 486 3264 448 3257 422 3244 
C 544 3788 915 4057 1306 4057 
C 1862 4057 2227 3616 2227 3033 
C 2227 2477 1901 1998 1536 1583 
L 262 147 
L 262 0 
L 2515 0 
L 2669 990 
z
" transform="scale(0.015625)"/>
       </defs>
       <use xlink:href="#CMR17-32" transform="scale(0.996264)"/>
       <use xlink:href="#CMR17-30" transform="translate(45.690477 0) scale(0.996264)"/>
       <use xlink:href="#CMR17-30" transform="translate(91.380954 0) scale(0.996264)"/>
       <use xlink:href="#CMR17-30" transform="translate(137.071431 0) scale(0.996264)"/>
      </g>
     </g>
    </g>
    <g id="xtick_6">
     <g id="line2d_6">
      <g>
       <use xlink:href="#m904f109272" x="309.915486" y="228.96" style="stroke: #000000; stroke-width: 0.8"/>
      </g>
     </g>
     <g id="text_6">
      <!-- $\mathdefault{2500}$ -->
      <g transform="translate(299.952816 243.05832) scale(0.1 -0.1)">
       <use xlink:href="#CMR17-32" transform="scale(0.996264)"/>
       <use xlink:href="#CMR17-35" transform="translate(45.690477 0) scale(0.996264)"/>
       <use xlink:href="#CMR17-30" transform="translate(91.380954 0) scale(0.996264)"/>
       <use xlink:href="#CMR17-30" transform="translate(137.071431 0) scale(0.996264)"/>
      </g>
     </g>
    </g>
    <g id="xtick_7">
     <g id="line2d_7">
      <g>
       <use xlink:href="#m904f109272" x="362.337746" y="228.96" style="stroke: #000000; stroke-width: 0.8"/>
      </g>
     </g>
     <g id="text_7">
      <!-- $\mathdefault{3000}$ -->
      <g transform="translate(352.375075 243.05832) scale(0.1 -0.1)">
       <defs>
        <path id="CMR17-33" d="M 1414 2176 
C 1984 2176 2234 1673 2234 1094 
C 2234 322 1824 25 1453 25 
C 1114 25 563 193 390 691 
C 422 678 454 678 486 678 
C 640 678 755 780 755 947 
C 755 1132 614 1216 486 1216 
C 378 1216 211 1164 211 927 
C 211 335 787 -128 1466 -128 
C 2176 -128 2720 432 2720 1087 
C 2720 1718 2208 2176 1600 2246 
C 2086 2347 2554 2776 2554 3353 
C 2554 3856 2048 4224 1472 4224 
C 890 4224 378 3862 378 3347 
C 378 3123 544 3084 627 3084 
C 762 3084 877 3167 877 3334 
C 877 3500 762 3584 627 3584 
C 602 3584 570 3584 544 3571 
C 730 3999 1235 4076 1459 4076 
C 1683 4076 2106 3966 2106 3347 
C 2106 3167 2080 2851 1862 2574 
C 1670 2329 1453 2316 1242 2297 
C 1210 2297 1062 2284 1037 2284 
C 992 2278 966 2272 966 2227 
C 966 2182 973 2176 1101 2176 
L 1414 2176 
z
" transform="scale(0.015625)"/>
       </defs>
       <use xlink:href="#CMR17-33" transform="scale(0.996264)"/>
       <use xlink:href="#CMR17-30" transform="translate(45.690477 0) scale(0.996264)"/>
       <use xlink:href="#CMR17-30" transform="translate(91.380954 0) scale(0.996264)"/>
       <use xlink:href="#CMR17-30" transform="translate(137.071431 0) scale(0.996264)"/>
      </g>
     </g>
    </g>
    <g id="text_8">
     <!-- Iteration -->
     <g transform="translate(182.038633 256.278627) scale(0.1 -0.1)">
      <defs>
       <path id="NimbusSanL-Regu-49" d="M 1242 4672 
L 640 4672 
L 640 0 
L 1242 0 
L 1242 4672 
z
" transform="scale(0.015625)"/>
       <path id="NimbusSanL-Regu-74" d="M 1626 3328 
L 1075 3328 
L 1075 4249 
L 544 4249 
L 544 3328 
L 90 3328 
L 90 2892 
L 544 2892 
L 544 402 
C 544 64 774 -128 1190 -128 
C 1318 -128 1446 -116 1626 -84 
L 1626 364 
C 1555 345 1472 339 1370 339 
C 1139 339 1075 402 1075 634 
L 1075 2892 
L 1626 2892 
L 1626 3328 
z
" transform="scale(0.015625)"/>
       <path id="NimbusSanL-Regu-65" d="M 3283 1484 
C 3283 1998 3245 2311 3149 2565 
C 2931 3123 2419 3456 1792 3456 
C 858 3456 256 2734 256 1619 
C 256 545 838 -128 1779 -128 
C 2547 -128 3078 307 3213 1018 
L 2675 1018 
C 2528 588 2227 364 1798 364 
C 1459 364 1171 514 992 787 
C 864 974 819 1161 813 1484 
L 3283 1484 
z
M 826 1920 
C 870 2552 1248 2963 1786 2963 
C 2310 2963 2714 2519 2714 1959 
C 2714 1946 2714 1933 2707 1920 
L 826 1920 
z
" transform="scale(0.015625)"/>
       <path id="NimbusSanL-Regu-72" d="M 442 3328 
L 442 0 
L 979 0 
L 979 1727 
C 979 2203 1101 2514 1357 2698 
C 1523 2819 1683 2857 2054 2863 
L 2054 3404 
C 1965 3449 1920 3456 1850 3456 
C 1504 3456 1242 3251 934 2750 
L 934 3328 
L 442 3328 
z
" transform="scale(0.015625)"/>
       <path id="NimbusSanL-Regu-61" d="M 3424 332 
C 3366 320 3341 320 3309 320 
C 3123 320 3021 415 3021 581 
L 3021 2542 
C 3021 3135 2586 3456 1760 3456 
C 1274 3456 870 3315 646 3065 
C 493 2893 429 2702 416 2370 
L 954 2370 
C 998 2778 1242 2963 1741 2963 
C 2221 2963 2490 2784 2490 2466 
L 2490 2326 
C 2490 2103 2355 2007 1933 1956 
C 1178 1861 1062 1835 858 1753 
C 467 1593 269 1294 269 861 
C 269 256 691 -128 1370 -128 
C 1792 -128 2131 19 2509 364 
C 2547 25 2714 -128 3059 -128 
C 3168 -128 3251 -116 3424 -71 
L 3424 332 
z
M 2490 1071 
C 2490 893 2438 785 2278 638 
C 2061 441 1798 339 1485 339 
C 1069 339 826 536 826 874 
C 826 1224 1062 1402 1632 1485 
C 2195 1562 2310 1587 2490 1670 
L 2490 1071 
z
" transform="scale(0.015625)"/>
       <path id="NimbusSanL-Regu-69" d="M 960 3358 
L 429 3358 
L 429 0 
L 960 0 
L 960 3358 
z
M 960 4672 
L 422 4672 
L 422 3999 
L 960 3999 
L 960 4672 
z
" transform="scale(0.015625)"/>
       <path id="NimbusSanL-Regu-6f" d="M 1741 3456 
C 800 3456 230 2784 230 1663 
C 230 543 794 -128 1747 -128 
C 2688 -128 3264 543 3264 1638 
C 3264 2791 2707 3456 1741 3456 
z
M 1747 2963 
C 2349 2963 2707 2472 2707 1644 
C 2707 861 2336 364 1747 364 
C 1152 364 787 855 787 1663 
C 787 2466 1152 2963 1747 2963 
z
" transform="scale(0.015625)"/>
       <path id="NimbusSanL-Regu-6e" d="M 448 3328 
L 448 0 
L 986 0 
L 986 1835 
C 986 2539 1344 2988 1894 2988 
C 2317 2988 2586 2732 2586 2328 
L 2586 0 
L 3117 0 
L 3117 2539 
C 3117 3097 2701 3456 2054 3456 
C 1555 3456 1235 3263 941 2796 
L 941 3328 
L 448 3328 
z
" transform="scale(0.015625)"/>
      </defs>
      <use xlink:href="#NimbusSanL-Regu-49" transform="scale(0.996264)"/>
      <use xlink:href="#NimbusSanL-Regu-74" transform="translate(27.69517 0) scale(0.996264)"/>
      <use xlink:href="#NimbusSanL-Regu-65" transform="translate(55.390339 0) scale(0.996264)"/>
      <use xlink:href="#NimbusSanL-Regu-72" transform="translate(110.782016 0) scale(0.996264)"/>
      <use xlink:href="#NimbusSanL-Regu-61" transform="translate(142.961149 0) scale(0.996264)"/>
      <use xlink:href="#NimbusSanL-Regu-74" transform="translate(198.352826 0) scale(0.996264)"/>
      <use xlink:href="#NimbusSanL-Regu-69" transform="translate(226.047996 0) scale(0.996264)"/>
      <use xlink:href="#NimbusSanL-Regu-6f" transform="translate(248.16478 0) scale(0.996264)"/>
      <use xlink:href="#NimbusSanL-Regu-6e" transform="translate(303.556457 0) scale(0.996264)"/>
     </g>
    </g>
   </g>
   <g id="matplotlib.axis_2">
    <g id="ytick_1">
     <g id="line2d_8">
      <defs>
       <path id="mc1b89fbde8" d="M 0 0 
L -3.5 0 
" style="stroke: #000000; stroke-width: 0.8"/>
      </defs>
      <g>
       <use xlink:href="#mc1b89fbde8" x="32.586009" y="205.414224" style="stroke: #000000; stroke-width: 0.8"/>
      </g>
     </g>
     <g id="text_9">
      <!-- $\mathdefault{0}$ -->
      <g transform="translate(20.604674 208.963384) scale(0.1 -0.1)">
       <use xlink:href="#CMR17-30" transform="scale(0.996264)"/>
      </g>
     </g>
    </g>
    <g id="ytick_2">
     <g id="line2d_9">
      <g>
       <use xlink:href="#mc1b89fbde8" x="32.586009" y="173.604742" style="stroke: #000000; stroke-width: 0.8"/>
      </g>
     </g>
     <g id="text_10">
      <!-- $\mathdefault{1}$ -->
      <g transform="translate(20.604674 177.153902) scale(0.1 -0.1)">
       <use xlink:href="#CMR17-31" transform="scale(0.996264)"/>
      </g>
     </g>
    </g>
    <g id="ytick_3">
     <g id="line2d_10">
      <g>
       <use xlink:href="#mc1b89fbde8" x="32.586009" y="141.79526" style="stroke: #000000; stroke-width: 0.8"/>
      </g>
     </g>
     <g id="text_11">
      <!-- $\mathdefault{2}$ -->
      <g transform="translate(20.604674 145.34442) scale(0.1 -0.1)">
       <use xlink:href="#CMR17-32" transform="scale(0.996264)"/>
      </g>
     </g>
    </g>
    <g id="ytick_4">
     <g id="line2d_11">
      <g>
       <use xlink:href="#mc1b89fbde8" x="32.586009" y="109.985777" style="stroke: #000000; stroke-width: 0.8"/>
      </g>
     </g>
     <g id="text_12">
      <!-- $\mathdefault{3}$ -->
      <g transform="translate(20.604674 113.534937) scale(0.1 -0.1)">
       <use xlink:href="#CMR17-33" transform="scale(0.996264)"/>
      </g>
     </g>
    </g>
    <g id="ytick_5">
     <g id="line2d_12">
      <g>
       <use xlink:href="#mc1b89fbde8" x="32.586009" y="78.176295" style="stroke: #000000; stroke-width: 0.8"/>
      </g>
     </g>
     <g id="text_13">
      <!-- $\mathdefault{4}$ -->
      <g transform="translate(20.604674 81.725455) scale(0.1 -0.1)">
       <defs>
        <path id="CMR17-34" d="M 2150 4147 
C 2150 4281 2144 4288 2029 4288 
L 128 1254 
L 128 1088 
L 1779 1088 
L 1779 460 
C 1779 230 1766 166 1318 166 
L 1197 166 
L 1197 0 
C 1402 12 1747 12 1965 12 
C 2182 12 2528 12 2733 0 
L 2733 166 
L 2611 166 
C 2163 166 2150 230 2150 460 
L 2150 1088 
L 2803 1088 
L 2803 1254 
L 2150 1254 
L 2150 4147 
z
M 1798 3723 
L 1798 1254 
L 256 1254 
L 1798 3723 
z
" transform="scale(0.015625)"/>
       </defs>
       <use xlink:href="#CMR17-34" transform="scale(0.996264)"/>
      </g>
     </g>
    </g>
    <g id="ytick_6">
     <g id="line2d_13">
      <g>
       <use xlink:href="#mc1b89fbde8" x="32.586009" y="46.366813" style="stroke: #000000; stroke-width: 0.8"/>
      </g>
     </g>
     <g id="text_14">
      <!-- $\mathdefault{5}$ -->
      <g transform="translate(20.604674 49.915973) scale(0.1 -0.1)">
       <use xlink:href="#CMR17-35" transform="scale(0.996264)"/>
      </g>
     </g>
    </g>
    <g id="ytick_7">
     <g id="line2d_14">
      <g>
       <use xlink:href="#mc1b89fbde8" x="32.586009" y="14.55733" style="stroke: #000000; stroke-width: 0.8"/>
      </g>
     </g>
     <g id="text_15">
      <!-- $\mathdefault{6}$ -->
      <g transform="translate(20.604674 18.10649) scale(0.1 -0.1)">
       <defs>
        <path id="CMR17-36" d="M 678 2198 
C 678 3712 1395 4076 1811 4076 
C 1946 4076 2272 4049 2400 3782 
C 2298 3782 2106 3782 2106 3558 
C 2106 3385 2246 3328 2336 3328 
C 2394 3328 2566 3353 2566 3571 
C 2566 3987 2246 4224 1805 4224 
C 1043 4224 243 3411 243 2011 
C 243 257 966 -128 1478 -128 
C 2099 -128 2688 431 2688 1295 
C 2688 2101 2170 2688 1517 2688 
C 1126 2688 838 2430 678 1979 
L 678 2198 
z
M 1478 25 
C 691 25 691 1212 691 1450 
C 691 1914 909 2585 1504 2585 
C 1613 2585 1926 2585 2138 2140 
C 2253 1889 2253 1624 2253 1302 
C 2253 954 2253 696 2118 438 
C 1978 173 1773 25 1478 25 
z
" transform="scale(0.015625)"/>
       </defs>
       <use xlink:href="#CMR17-36" transform="scale(0.996264)"/>
      </g>
     </g>
    </g>
    <g id="text_16">
     <!-- Aerodynamic Coefficients - Blade_0 -->
     <g transform="translate(14.482687 196.280864) rotate(-90) scale(0.1 -0.1)">
      <defs>
       <path id="NimbusSanL-Regu-41" d="M 3034 1408 
L 3514 0 
L 4179 0 
L 2541 4672 
L 1773 4672 
L 109 0 
L 742 0 
L 1235 1408 
L 3034 1408 
z
M 2867 1907 
L 1382 1907 
L 2150 4032 
L 2867 1907 
z
" transform="scale(0.015625)"/>
       <path id="NimbusSanL-Regu-64" d="M 3168 4672 
L 2637 4672 
L 2637 2937 
C 2413 3276 2054 3456 1606 3456 
C 736 3456 166 2759 166 1695 
C 166 568 723 -128 1626 -128 
C 2086 -128 2406 44 2694 460 
L 2694 19 
L 3168 19 
L 3168 4672 
z
M 1696 2956 
C 2272 2956 2637 2447 2637 1651 
C 2637 880 2266 371 1702 371 
C 1114 371 723 887 723 1663 
C 723 2440 1114 2956 1696 2956 
z
" transform="scale(0.015625)"/>
       <path id="NimbusSanL-Regu-79" d="M 2483 3328 
L 1555 724 
L 698 3328 
L 128 3328 
L 1261 -29 
L 1056 -558 
C 973 -794 851 -884 627 -884 
C 550 -884 461 -871 346 -845 
L 346 -1325 
C 454 -1383 563 -1408 704 -1408 
C 877 -1408 1062 -1351 1203 -1248 
C 1370 -1127 1466 -986 1568 -718 
L 3059 3328 
L 2483 3328 
z
" transform="scale(0.015625)"/>
       <path id="NimbusSanL-Regu-6d" d="M 448 3328 
L 448 0 
L 986 0 
L 986 2089 
C 986 2597 1338 2988 1773 2988 
C 2170 2988 2394 2744 2394 2315 
L 2394 0 
L 2931 0 
L 2931 2109 
C 2931 2597 3283 2988 3718 2988 
C 4109 2988 4339 2738 4339 2315 
L 4339 0 
L 4877 0 
L 4877 2520 
C 4877 3123 4531 3456 3904 3456 
C 3456 3456 3187 3321 2874 2943 
C 2675 3302 2406 3456 1971 3456 
C 1523 3456 1229 3289 941 2886 
L 941 3328 
L 448 3328 
z
" transform="scale(0.015625)"/>
       <path id="NimbusSanL-Regu-63" d="M 3014 2237 
C 2989 2561 2918 2771 2790 2956 
C 2560 3270 2157 3456 1690 3456 
C 787 3456 198 2740 198 1632 
C 198 555 774 -128 1683 -128 
C 2483 -128 2989 352 3053 1167 
L 2515 1167 
C 2426 632 2150 364 1696 364 
C 1107 364 755 842 755 1632 
C 755 2466 1101 2963 1683 2963 
C 2131 2963 2413 2701 2477 2237 
L 3014 2237 
z
" transform="scale(0.015625)"/>
       <path id="NimbusSanL-Regu-43" d="M 4237 3219 
C 4051 4236 3462 4736 2438 4736 
C 1811 4736 1306 4537 960 4154 
C 538 3696 307 3035 307 2284 
C 307 1522 544 867 986 415 
C 1344 44 1805 -128 2413 -128 
C 3552 -128 4192 485 4333 1712 
L 3718 1712 
C 3667 1394 3603 1178 3507 994 
C 3315 612 2918 396 2419 396 
C 1491 396 902 1134 902 2291 
C 902 3480 1466 4211 2368 4211 
C 2746 4211 3098 4096 3290 3918 
C 3462 3759 3558 3562 3629 3219 
L 4237 3219 
z
" transform="scale(0.015625)"/>
       <path id="NimbusSanL-Regu-66" d="M 1651 3328 
L 1094 3328 
L 1094 3860 
C 1094 4087 1222 4204 1466 4204 
C 1510 4204 1530 4204 1651 4198 
L 1651 4639 
C 1530 4665 1459 4672 1350 4672 
C 858 4672 563 4390 563 3905 
L 563 3328 
L 115 3328 
L 115 2892 
L 563 2892 
L 563 0 
L 1094 0 
L 1094 2892 
L 1651 2892 
L 1651 3328 
z
" transform="scale(0.015625)"/>
       <path id="NimbusSanL-Regu-2" d="M 1613 3328 
L 1056 3328 
L 1056 3860 
C 1056 4087 1184 4204 1427 4204 
C 1472 4204 1491 4204 1613 4198 
L 1613 4639 
C 1491 4665 1421 4672 1312 4672 
C 819 4672 525 4390 525 3905 
L 525 3328 
L 77 3328 
L 77 2892 
L 525 2892 
L 525 0 
L 1056 0 
L 1056 2892 
L 1613 2892 
L 1613 3328 
z
M 2790 3328 
L 2259 3328 
L 2259 0 
L 2790 0 
L 2790 3328 
z
M 2790 4672 
L 2259 4672 
L 2259 3999 
L 2790 3999 
L 2790 4672 
z
" transform="scale(0.015625)"/>
       <path id="NimbusSanL-Regu-73" d="M 2803 2428 
C 2797 3084 2362 3456 1587 3456 
C 806 3456 301 3052 301 2434 
C 301 1912 570 1663 1363 1472 
L 1862 1351 
C 2234 1262 2381 1129 2381 887 
C 2381 574 2067 364 1600 364 
C 1312 364 1069 447 934 587 
C 851 683 813 778 781 1014 
L 218 1014 
C 243 243 678 -128 1555 -128 
C 2400 -128 2938 288 2938 931 
C 2938 1428 2656 1702 1990 1861 
L 1478 1982 
C 1043 2084 858 2224 858 2459 
C 858 2765 1133 2963 1568 2963 
C 1997 2963 2227 2778 2240 2428 
L 2803 2428 
z
" transform="scale(0.015625)"/>
       <path id="NimbusSanL-Regu-2d" d="M 1818 1996 
L 294 1996 
L 294 1536 
L 1818 1536 
L 1818 1996 
z
" transform="scale(0.015625)"/>
       <path id="NimbusSanL-Regu-42" d="M 506 0 
L 2611 0 
C 3053 0 3379 121 3629 390 
C 3859 632 3987 961 3987 1321 
C 3987 1878 3731 2214 3136 2444 
C 3558 2643 3782 2994 3782 3476 
C 3782 3821 3654 4127 3411 4345 
C 3168 4569 2848 4672 2400 4672 
L 506 4672 
L 506 0 
z
M 1101 2636 
L 1101 4147 
L 2253 4147 
C 2586 4147 2771 4101 2931 3977 
C 3098 3847 3187 3652 3187 3391 
C 3187 3138 3098 2936 2931 2806 
C 2771 2682 2586 2636 2253 2636 
L 1101 2636 
z
M 1101 524 
L 1101 2112 
L 2554 2112 
C 2842 2112 3034 2042 3174 1890 
C 3315 1745 3392 1542 3392 1315 
C 3392 1093 3315 891 3174 746 
C 3034 594 2842 524 2554 524 
L 1101 524 
z
" transform="scale(0.015625)"/>
       <path id="NimbusSanL-Regu-6c" d="M 973 4672 
L 435 4672 
L 435 0 
L 973 0 
L 973 4672 
z
" transform="scale(0.015625)"/>
       <path id="NimbusSanL-Regu-30" d="M 1760 4544 
C 1338 4544 954 4358 717 4044 
C 422 3649 275 3043 275 2207 
C 275 683 787 -128 1760 -128 
C 2720 -128 3245 683 3245 2169 
C 3245 3049 3104 3636 2803 4044 
C 2566 4364 2189 4544 1760 4544 
z
M 1760 4044 
C 2368 4044 2669 3432 2669 2220 
C 2669 938 2374 339 1747 339 
C 1152 339 851 964 851 2201 
C 851 3438 1152 4044 1760 4044 
z
" transform="scale(0.015625)"/>
      </defs>
      <use xlink:href="#NimbusSanL-Regu-41" transform="scale(0.996264)"/>
      <use xlink:href="#NimbusSanL-Regu-65" transform="translate(66.450031 0) scale(0.996264)"/>
      <use xlink:href="#NimbusSanL-Regu-72" transform="translate(121.841708 0) scale(0.996264)"/>
      <use xlink:href="#NimbusSanL-Regu-6f" transform="translate(155.016938 0) scale(0.996264)"/>
      <use xlink:href="#NimbusSanL-Regu-64" transform="translate(210.408615 0) scale(0.996264)"/>
      <use xlink:href="#NimbusSanL-Regu-79" transform="translate(265.800292 0) scale(0.996264)"/>
      <use xlink:href="#NimbusSanL-Regu-6e" transform="translate(315.613492 0) scale(0.996264)"/>
      <use xlink:href="#NimbusSanL-Regu-61" transform="translate(371.005169 0) scale(0.996264)"/>
      <use xlink:href="#NimbusSanL-Regu-6d" transform="translate(426.396846 0) scale(0.996264)"/>
      <use xlink:href="#NimbusSanL-Regu-69" transform="translate(509.385276 0) scale(0.996264)"/>
      <use xlink:href="#NimbusSanL-Regu-63" transform="translate(531.502061 0) scale(0.996264)"/>
      <use xlink:href="#NimbusSanL-Regu-43" transform="translate(609.010431 0) scale(0.996264)"/>
      <use xlink:href="#NimbusSanL-Regu-6f" transform="translate(680.940416 0) scale(0.996264)"/>
      <use xlink:href="#NimbusSanL-Regu-65" transform="translate(736.332093 0) scale(0.996264)"/>
      <use xlink:href="#NimbusSanL-Regu-66" transform="translate(791.72377 0) scale(0.996264)"/>
      <use xlink:href="#NimbusSanL-Regu-2" transform="translate(819.418939 0) scale(0.996264)"/>
      <use xlink:href="#NimbusSanL-Regu-63" transform="translate(869.23214 0) scale(0.996264)"/>
      <use xlink:href="#NimbusSanL-Regu-69" transform="translate(919.04534 0) scale(0.996264)"/>
      <use xlink:href="#NimbusSanL-Regu-65" transform="translate(941.162125 0) scale(0.996264)"/>
      <use xlink:href="#NimbusSanL-Regu-6e" transform="translate(996.553802 0) scale(0.996264)"/>
      <use xlink:href="#NimbusSanL-Regu-74" transform="translate(1051.945479 0) scale(0.996264)"/>
      <use xlink:href="#NimbusSanL-Regu-73" transform="translate(1079.640648 0) scale(0.996264)"/>
      <use xlink:href="#NimbusSanL-Regu-2d" transform="translate(1157.149018 0) scale(0.996264)"/>
      <use xlink:href="#NimbusSanL-Regu-42" transform="translate(1218.019418 0) scale(0.996264)"/>
      <use xlink:href="#NimbusSanL-Regu-6c" transform="translate(1284.469449 0) scale(0.996264)"/>
      <use xlink:href="#NimbusSanL-Regu-61" transform="translate(1306.586233 0) scale(0.996264)"/>
      <use xlink:href="#NimbusSanL-Regu-64" transform="translate(1361.97791 0) scale(0.996264)"/>
      <use xlink:href="#NimbusSanL-Regu-65" transform="translate(1417.369587 0) scale(0.996264)"/>
      <use xlink:href="#NimbusSanL-Regu-30" transform="translate(1508.626829 0) scale(0.996264)"/>
      <path d="M 1478.738605 0 
L 1508.626829 0 
L 1508.626829 0.3985 
L 1478.738605 0.3985 
L 1478.738605 0 
z
"/>
     </g>
    </g>
   </g>
   <g id="line2d_15">
    <path d="M 47.804191 161.433187 
L 48.223569 35.304878 
L 48.538103 17.28 
L 48.642947 18.129402 
L 49.272014 39.307721 
L 49.376859 39.098034 
L 49.481703 39.468776 
L 49.691392 41.101531 
L 49.901081 41.517182 
L 50.215615 43.028083 
L 50.530148 46.102299 
L 50.739837 50.169932 
L 50.949526 58.307827 
L 51.26406 84.159064 
L 51.578594 108.644744 
L 51.788283 111.450107 
L 51.997972 116.610835 
L 52.312505 131.567753 
L 52.731883 168.735307 
L 52.941572 179.738745 
L 53.256106 183.246663 
L 53.570639 190.496232 
L 54.304551 211.607867 
L 54.409396 211.594074 
L 54.51424 210.495305 
L 54.619085 210.546654 
L 54.828774 210.764345 
L 55.038463 211.330347 
L 55.352996 213.415486 
L 55.562685 214.462162 
L 55.66753 214.106579 
L 55.982063 210.970361 
L 56.296597 210.407612 
L 56.715975 209.090272 
L 57.030509 207.278921 
L 57.345042 203.203182 
L 57.554731 200.695424 
L 57.869265 199.816248 
L 58.078954 198.671473 
L 58.288643 196.599542 
L 58.498332 192.770487 
L 58.812865 181.959946 
L 59.022554 177.001478 
L 59.337088 175.611306 
L 59.651622 173.058439 
L 59.966155 169.118249 
L 60.175844 164.600818 
L 60.490378 155.331518 
L 60.700067 154.294843 
L 60.909756 152.458154 
L 61.224289 147.004994 
L 61.853356 131.113726 
L 62.377579 130.095069 
L 62.587268 129.792208 
L 62.692113 129.838342 
L 62.901802 130.673419 
L 63.216335 134.001374 
L 63.635713 138.710996 
L 63.950247 139.358683 
L 64.26478 140.941148 
L 64.579314 144.309519 
L 64.893847 151.399185 
L 65.208381 158.790472 
L 65.41807 159.538597 
L 65.732604 161.837544 
L 66.047137 166.259674 
L 66.466515 176.054389 
L 66.676204 179.558061 
L 66.990738 180.608515 
L 67.305271 182.897322 
L 67.619805 187.264625 
L 68.144027 196.671512 
L 68.458561 198.441988 
L 68.773095 202.31537 
L 69.087628 209.568075 
L 69.402162 215.42482 
L 69.716695 216.159614 
L 70.136073 217.911764 
L 70.450607 218.88 
L 70.555451 218.769842 
L 70.974829 217.112476 
L 71.289363 216.4498 
L 71.499052 215.527394 
L 71.813586 212.598684 
L 72.232964 207.191727 
L 72.547497 206.307983 
L 72.862031 204.302797 
L 73.176564 200.432781 
L 73.805631 191.249812 
L 74.120165 190.04438 
L 74.434699 187.533732 
L 74.854077 181.555542 
L 75.16861 176.483168 
L 75.483144 176.135155 
L 75.797677 175.396922 
L 76.636433 172.728329 
L 77.265501 172.737192 
L 77.47519 172.880174 
L 77.684879 173.277074 
L 78.41879 175.397245 
L 78.838168 175.658647 
L 79.257546 176.255346 
L 79.781769 177.181234 
L 80.410836 177.399097 
L 80.830214 177.759111 
L 81.354437 178.263141 
L 82.193193 178.55988 
L 82.507726 178.68212 
L 82.82226 178.618341 
L 83.346483 178.478913 
L 83.661016 178.207352 
L 83.97555 177.598669 
L 84.185239 177.252879 
L 84.604617 177.078016 
L 85.023995 176.630788 
L 85.862751 175.398522 
L 86.596663 175.220287 
L 87.540263 175.067922 
L 88.274175 174.919846 
L 88.483864 174.821786 
L 90.580754 174.668045 
L 91.943733 174.83011 
L 92.5728 174.73003 
L 92.887334 174.658617 
L 94.040623 174.66244 
L 94.250313 174.821609 
L 94.774535 174.961467 
L 95.089069 175.23266 
L 95.403602 175.843215 
L 95.613291 176.199291 
L 96.137514 176.453609 
L 96.452047 176.832682 
L 96.871425 177.731515 
L 97.081115 178.040719 
L 97.605337 178.234146 
L 98.024715 178.620804 
L 98.548938 179.180893 
L 99.387694 179.36026 
L 101.065206 180.118143 
L 101.37974 180.473092 
L 102.008807 180.665895 
L 102.428185 180.989638 
L 102.952408 181.416838 
L 104.839609 181.415836 
L 105.363831 181.222979 
L 105.57352 180.997446 
L 105.78321 180.778736 
L 106.307432 180.599327 
L 106.621966 180.304605 
L 106.936499 179.662691 
L 107.146188 179.28144 
L 107.565566 179.083845 
L 107.8801 178.747237 
L 108.194633 178.112317 
L 108.614012 176.997012 
L 109.03339 176.783137 
L 109.452768 176.290834 
L 110.081835 175.341763 
L 111.13028 175.242097 
L 111.654503 175.520084 
L 112.073881 175.682806 
L 112.388414 176.004814 
L 112.702948 176.746326 
L 112.912637 177.188208 
L 113.332015 177.408799 
L 113.646548 177.791549 
L 113.961082 178.501888 
L 114.694994 180.574063 
L 115.219216 180.79255 
L 116.267661 181.493241 
L 117.001573 181.46062 
L 117.211262 181.285825 
L 117.525796 180.830504 
L 118.050018 180.607713 
L 118.364552 180.238616 
L 118.679085 179.472331 
L 118.888774 179.038286 
L 119.308152 178.8237 
L 119.622686 178.442695 
L 119.937219 177.733821 
L 120.356598 176.478618 
L 120.775976 176.236238 
L 121.090509 175.818835 
L 121.509887 174.813901 
L 121.824421 174.122702 
L 122.348643 173.89565 
L 122.872866 173.360727 
L 123.1874 173.135847 
L 124.340689 173.095686 
L 124.760067 173.33559 
L 125.28429 173.499512 
L 125.598823 173.777144 
L 125.913357 174.370368 
L 126.227891 174.979945 
L 126.647269 175.150841 
L 126.961802 175.463302 
L 127.276336 176.034523 
L 127.590869 176.626598 
L 128.115092 176.845807 
L 128.53447 177.318559 
L 129.163537 178.274034 
L 129.68776 178.510563 
L 130.211982 179.06756 
L 130.421671 179.216034 
L 131.260427 179.41104 
L 131.889495 179.563506 
L 132.833095 179.467016 
L 133.147629 179.239265 
L 133.671851 178.787655 
L 134.196074 178.605531 
L 134.615452 178.198516 
L 134.929986 177.832026 
L 135.559053 177.635905 
L 135.978431 177.263721 
L 136.502653 176.734856 
L 137.026876 176.563647 
L 138.180166 176.009623 
L 139.543144 175.993821 
L 140.277056 176.149985 
L 141.325501 176.62504 
L 141.849724 176.835452 
L 142.373946 177.06829 
L 143.212703 177.231935 
L 143.946614 177.401773 
L 145.204748 177.367294 
L 145.519282 177.311501 
L 146.358038 177.182022 
L 147.09195 176.998591 
L 147.930706 176.803903 
L 148.454928 176.698424 
L 151.28573 176.616991 
L 153.172932 176.774525 
L 154.011688 176.934459 
L 155.060133 177.149436 
L 157.157023 177.057818 
L 157.786091 176.886933 
L 158.100624 176.807802 
L 158.93938 176.638244 
L 160.302359 176.089817 
L 161.141115 175.890957 
L 161.560493 175.84749 
L 163.867073 175.865829 
L 167.326942 176.401131 
L 168.68992 176.695556 
L 172.359479 177.118239 
L 177.392015 177.062881 
L 183.682687 176.761745 
L 186.828022 177.234487 
L 187.352245 177.271921 
L 191.860559 177.361256 
L 193.957449 177.224493 
L 195.949495 176.95337 
L 196.683407 176.885894 
L 201.506255 176.717102 
L 208.216304 176.985129 
L 224.991427 176.68444 
L 229.814275 176.975605 
L 231.491787 177.051305 
L 236.734013 176.973575 
L 240.61326 176.779427 
L 244.282818 176.899449 
L 247.742687 177.05797 
L 251.831623 176.969049 
L 253.823669 176.799842 
L 256.235093 176.639479 
L 257.598072 176.573952 
L 259.694962 176.53964 
L 263.259676 176.650306 
L 268.606746 176.771016 
L 279.510576 176.588373 
L 289.051427 176.739864 
L 295.446943 176.640994 
L 301.108547 176.744014 
L 326.061542 176.951352 
L 337.175061 176.833654 
L 352.167827 176.81114 
L 352.167827 176.81114 
" clip-path="url(#p282321abe3)" style="fill: none; stroke: #1f77b4; stroke-width: 1.5; stroke-linecap: square"/>
   </g>
   <g id="line2d_16">
    <path d="M 47.804191 189.429595 
L 48.118725 155.4729 
L 48.433258 152.820942 
L 48.538103 152.895056 
L 48.747792 154.495348 
L 49.062325 156.867727 
L 49.16717 156.870502 
L 49.481703 155.758167 
L 49.691392 155.275539 
L 50.11077 155.06652 
L 50.425304 154.621754 
L 50.739837 153.743557 
L 51.054371 152.760924 
L 51.159216 152.859173 
L 51.368905 154.131532 
L 51.578594 155.356905 
L 51.893127 155.852045 
L 52.102816 156.538285 
L 52.41735 158.667056 
L 52.731883 163.064251 
L 52.941572 164.944729 
L 53.256106 165.737957 
L 53.570639 167.59448 
L 54.304551 173.912741 
L 54.409396 173.946284 
L 54.51424 173.725153 
L 54.828774 174.263738 
L 55.038463 175.175648 
L 55.248152 177.133699 
L 55.877219 185.459007 
L 56.191752 185.857065 
L 56.401441 186.47253 
L 56.715975 188.518285 
L 57.135353 193.706502 
L 57.449887 198.159988 
L 57.76442 198.437298 
L 58.078954 199.184647 
L 58.498332 201.039556 
L 59.127399 204.325236 
L 59.441932 204.694477 
L 60.071 205.931166 
L 60.175844 205.656256 
L 60.280689 204.574758 
L 60.490378 201.745116 
L 60.804911 200.596473 
L 61.0146 199.019499 
L 61.224289 196.152278 
L 61.538823 188.143072 
L 61.748512 182.005836 
L 62.16789 181.259542 
L 62.901802 179.691303 
L 63.006646 179.62896 
L 63.216335 178.90902 
L 63.740558 176.510068 
L 64.055091 176.071336 
L 64.474469 174.973047 
L 64.893847 173.891768 
L 64.998692 173.9751 
L 65.208381 174.397488 
L 65.627759 174.661568 
L 65.837448 175.006375 
L 66.151982 176.152811 
L 66.466515 178.630525 
L 66.676204 179.973765 
L 66.990738 180.367669 
L 67.305271 181.190534 
L 67.619805 182.719623 
L 68.039183 184.941319 
L 68.458561 185.311041 
L 68.773095 185.99397 
L 69.087628 187.505761 
L 69.402162 189.677898 
L 69.716695 190.089953 
L 70.031229 191.076165 
L 70.345762 193.033626 
L 70.974829 197.837538 
L 71.289363 198.379126 
L 71.708741 199.869345 
L 72.232964 201.81522 
L 72.757186 202.015167 
L 73.176564 202.129699 
L 73.386253 201.816385 
L 73.805631 200.538022 
L 74.120165 200.144584 
L 74.434699 199.220964 
L 74.749232 197.196944 
L 75.378299 191.756126 
L 75.692833 191.115449 
L 76.007366 189.868235 
L 76.636433 186.652251 
L 77.055812 186.363048 
L 77.894568 185.56076 
L 78.104257 185.948189 
L 78.313946 186.258814 
L 78.733324 186.424916 
L 79.047857 186.747257 
L 79.362391 187.380436 
L 79.781769 188.415538 
L 80.305992 188.656916 
L 80.830214 189.208096 
L 81.249592 189.698431 
L 82.193193 189.954405 
L 82.717416 190.036505 
L 83.661016 189.950887 
L 84.185239 189.951516 
L 84.91915 190.08097 
L 85.338528 190.424771 
L 85.757907 190.987599 
L 86.386974 191.210132 
L 87.120885 191.58125 
L 87.959641 191.479368 
L 88.274175 191.182063 
L 88.483864 190.965856 
L 89.112931 190.73187 
L 89.637154 190.219972 
L 89.951687 189.934317 
L 90.790443 189.717733 
L 91.838889 189.278727 
L 92.467956 189.040395 
L 92.887334 188.858286 
L 93.72609 188.692877 
L 94.460002 188.515391 
L 95.82298 188.592618 
L 96.766581 188.554381 
L 97.290804 188.377866 
L 97.919871 188.174876 
L 98.339249 187.793891 
L 98.548938 187.66415 
L 99.282849 187.516503 
L 99.702227 187.4626 
L 100.016761 187.531098 
L 100.750673 187.703534 
L 101.065206 188.049931 
L 101.37974 188.609365 
L 101.799118 188.785313 
L 102.113651 189.106544 
L 102.428185 189.762364 
L 103.057252 191.516941 
L 103.47663 191.853324 
L 103.896008 192.620245 
L 104.315386 193.523587 
L 104.839609 193.735861 
L 105.78321 194.376445 
L 106.517121 194.270533 
L 106.831655 193.985898 
L 107.146188 193.48477 
L 107.670411 193.24458 
L 107.984944 192.863998 
L 108.299478 192.09969 
L 108.614012 191.203235 
L 109.03339 190.953023 
L 109.347923 190.525474 
L 109.662457 189.770427 
L 110.081835 188.580438 
L 110.501213 188.36651 
L 110.920591 187.856129 
L 111.444814 187.020618 
L 112.073881 186.817058 
L 113.017481 186.375642 
L 113.856237 186.429758 
L 114.170771 186.668421 
L 114.799838 187.349548 
L 115.324061 187.562787 
L 115.743439 188.019366 
L 116.057972 188.410918 
L 116.687039 188.613758 
L 117.211262 189.07815 
L 117.525796 189.341015 
L 118.364552 189.52533 
L 118.993619 189.641162 
L 120.042064 189.549159 
L 120.566287 189.386598 
L 121.195354 189.213295 
L 121.614732 188.8431 
L 121.824421 188.671242 
L 122.453488 188.4964 
L 122.872866 188.147623 
L 123.1874 187.835067 
L 123.816467 187.665557 
L 124.235845 187.357158 
L 124.760067 186.953713 
L 125.389134 186.782893 
L 126.332735 186.401991 
L 127.38118 186.451615 
L 127.695714 186.513725 
L 128.429625 186.635715 
L 128.849004 186.904605 
L 129.058693 187.032008 
L 129.792604 187.204904 
L 130.211982 187.502892 
L 130.421671 187.618845 
L 131.155583 187.763029 
L 132.413717 188.194032 
L 133.88154 188.372767 
L 134.720297 188.248343 
L 135.03483 188.182949 
L 135.873586 188.033142 
L 136.817187 187.727756 
L 137.551099 187.480466 
L 137.970477 187.370813 
L 140.381901 187.359819 
L 141.325501 187.58617 
L 141.954568 187.759649 
L 142.373946 187.890048 
L 143.212703 188.041378 
L 144.051459 188.273327 
L 144.995059 188.482869 
L 145.624126 188.555721 
L 147.721017 188.501616 
L 152.229331 187.838818 
L 153.59231 187.842884 
L 154.326221 188.00408 
L 155.479511 188.282144 
L 159.044225 188.419272 
L 161.036271 188.251215 
L 162.818627 188.245131 
L 165.230051 188.26097 
L 167.222097 188.12049 
L 169.528677 187.819573 
L 171.835256 187.93715 
L 177.392015 188.389034 
L 179.59375 188.315073 
L 180.851885 188.202067 
L 181.376107 188.157702 
L 182.319708 188.01588 
L 182.739086 187.970169 
L 184.835976 187.759905 
L 186.513489 187.626955 
L 191.441181 188.053902 
L 192.489626 188.114837 
L 195.530117 188.137191 
L 198.885142 187.921274 
L 200.038431 187.852417 
L 202.449855 187.763282 
L 206.014569 187.842874 
L 208.740526 188.06511 
L 215.136042 188.014464 
L 224.991427 187.853617 
L 253.509136 187.909458 
L 258.961051 187.830434 
L 263.993587 187.828496 
L 339.062263 187.961333 
L 352.167827 187.923366 
L 352.167827 187.923366 
" clip-path="url(#p282321abe3)" style="fill: none; stroke: #ff7f0e; stroke-width: 1.5; stroke-linecap: square"/>
   </g>
   <g id="patch_3">
    <path d="M 32.586009 228.96 
L 32.586009 7.2 
" style="fill: none; stroke: #000000; stroke-width: 0.8; stroke-linejoin: miter; stroke-linecap: square"/>
   </g>
   <g id="patch_4">
    <path d="M 367.386009 228.96 
L 367.386009 7.2 
" style="fill: none; stroke: #000000; stroke-width: 0.8; stroke-linejoin: miter; stroke-linecap: square"/>
   </g>
   <g id="patch_5">
    <path d="M 32.586009 228.96 
L 367.386009 228.96 
" style="fill: none; stroke: #000000; stroke-width: 0.8; stroke-linejoin: miter; stroke-linecap: square"/>
   </g>
   <g id="patch_6">
    <path d="M 32.586009 7.2 
L 367.386009 7.2 
" style="fill: none; stroke: #000000; stroke-width: 0.8; stroke-linejoin: miter; stroke-linecap: square"/>
   </g>
   <g id="legend_1">
    <g id="patch_7">
     <path d="M 314.000015 43.640613 
L 360.386009 43.640613 
Q 362.386009 43.640613 362.386009 41.640613 
L 362.386009 14.2 
Q 362.386009 12.2 360.386009 12.2 
L 314.000015 12.2 
Q 312.000015 12.2 312.000015 14.2 
L 312.000015 41.640613 
Q 312.000015 43.640613 314.000015 43.640613 
z
" style="fill: #ffffff; opacity: 0.8; stroke: #cccccc; stroke-linejoin: miter"/>
    </g>
    <g id="line2d_17">
     <path d="M 316.000015 19.79832 
L 326.000015 19.79832 
L 336.000015 19.79832 
" style="fill: none; stroke: #1f77b4; stroke-width: 1.5; stroke-linecap: square"/>
    </g>
    <g id="text_17">
     <!-- CD -->
     <g transform="translate(344.000015 23.29832) scale(0.1 -0.1)">
      <defs>
       <path id="NimbusSanL-Regu-44" d="M 570 0 
L 2368 0 
C 3546 0 4269 883 4269 2339 
C 4269 3788 3552 4672 2368 4672 
L 570 4672 
L 570 0 
z
M 1165 524 
L 1165 4147 
L 2266 4147 
C 3187 4147 3674 3525 3674 2332 
C 3674 1153 3187 524 2266 524 
L 1165 524 
z
" transform="scale(0.015625)"/>
      </defs>
      <use xlink:href="#NimbusSanL-Regu-43" transform="scale(0.996264)"/>
      <use xlink:href="#NimbusSanL-Regu-44" transform="translate(71.929985 0) scale(0.996264)"/>
     </g>
    </g>
    <g id="line2d_18">
     <path d="M 316.000015 34.018627 
L 326.000015 34.018627 
L 336.000015 34.018627 
" style="fill: none; stroke: #ff7f0e; stroke-width: 1.5; stroke-linecap: square"/>
    </g>
    <g id="text_18">
     <!-- CL -->
     <g transform="translate(344.000015 37.518627) scale(0.1 -0.1)">
      <defs>
       <path id="NimbusSanL-Regu-4c" d="M 1107 4672 
L 512 4672 
L 512 0 
L 3411 0 
L 3411 524 
L 1107 524 
L 1107 4672 
z
" transform="scale(0.015625)"/>
      </defs>
      <use xlink:href="#NimbusSanL-Regu-43" transform="scale(0.996264)"/>
      <use xlink:href="#NimbusSanL-Regu-4c" transform="translate(71.929985 0) scale(0.996264)"/>
     </g>
    </g>
   </g>
  </g>
 </g>
 <defs>
  <clipPath id="p282321abe3">
   <rect x="32.586009" y="7.2" width="334.8" height="221.76"/>
  </clipPath>
 </defs>
</svg>
