<?xml version="1.0" encoding="utf-8" standalone="no"?>
<!DOCTYPE svg PUBLIC "-//W3C//DTD SVG 1.1//EN"
  "http://www.w3.org/Graphics/SVG/1.1/DTD/svg11.dtd">
<svg xmlns:xlink="http://www.w3.org/1999/xlink" width="384.481751pt" height="265.600613pt" viewBox="0 0 384.481751 265.600613" xmlns="http://www.w3.org/2000/svg" version="1.1">
 <metadata>
  <rdf:RDF xmlns:dc="http://purl.org/dc/elements/1.1/" xmlns:cc="http://creativecommons.org/ns#" xmlns:rdf="http://www.w3.org/1999/02/22-rdf-syntax-ns#">
   <cc:Work>
    <dc:type rdf:resource="http://purl.org/dc/dcmitype/StillImage"/>
    <dc:date>2025-08-02T14:00:32.844820</dc:date>
    <dc:format>image/svg+xml</dc:format>
    <dc:creator>
     <cc:Agent>
      <dc:title>Matplotlib v3.10.3, https://matplotlib.org/</dc:title>
     </cc:Agent>
    </dc:creator>
   </cc:Work>
  </rdf:RDF>
 </metadata>
 <defs>
  <style type="text/css">*{stroke-linejoin: round; stroke-linecap: butt}</style>
 </defs>
 <g id="figure_1">
  <g id="patch_1">
   <path d="M 0 265.600613 
L 384.481751 265.600613 
L 384.481751 0 
L 0 0 
z
" style="fill: #ffffff"/>
  </g>
  <g id="axes_1">
   <g id="patch_2">
    <path d="M 37.567344 228.96 
L 372.367344 228.96 
L 372.367344 7.2 
L 37.567344 7.2 
z
" style="fill: #ffffff"/>
   </g>
   <g id="matplotlib.axis_1">
    <g id="xtick_1">
     <g id="line2d_1">
      <defs>
       <path id="m7577421828" d="M 0 0 
L 0 3.5 
" style="stroke: #000000; stroke-width: 0.8"/>
      </defs>
      <g>
       <use xlink:href="#m7577421828" x="52.785526" y="228.96" style="stroke: #000000; stroke-width: 0.8"/>
      </g>
     </g>
     <g id="text_1">
      <!-- $\mathdefault{0}$ -->
      <g transform="translate(50.294859 243.05832) scale(0.1 -0.1)">
       <defs>
        <path id="CMR17-30" d="M 2688 2038 
C 2688 2430 2682 3099 2413 3613 
C 2176 4063 1798 4224 1466 4224 
C 1158 4224 768 4082 525 3620 
C 269 3137 243 2539 243 2038 
C 243 1671 250 1112 448 623 
C 723 -39 1216 -128 1466 -128 
C 1760 -128 2208 -7 2470 604 
C 2662 1048 2688 1568 2688 2038 
z
M 1466 -26 
C 1056 -26 813 328 723 816 
C 653 1196 653 1749 653 2109 
C 653 2604 653 3015 736 3407 
C 858 3954 1216 4121 1466 4121 
C 1728 4121 2067 3947 2189 3420 
C 2272 3054 2278 2623 2278 2109 
C 2278 1691 2278 1176 2202 797 
C 2067 96 1690 -26 1466 -26 
z
" transform="scale(0.015625)"/>
       </defs>
       <use xlink:href="#CMR17-30" transform="scale(0.996264)"/>
      </g>
     </g>
    </g>
    <g id="xtick_2">
     <g id="line2d_2">
      <g>
       <use xlink:href="#m7577421828" x="105.207785" y="228.96" style="stroke: #000000; stroke-width: 0.8"/>
      </g>
     </g>
     <g id="text_2">
      <!-- $\mathdefault{500}$ -->
      <g transform="translate(97.735782 243.05832) scale(0.1 -0.1)">
       <defs>
        <path id="CMR17-35" d="M 730 3750 
C 794 3724 1056 3641 1325 3641 
C 1920 3641 2246 3961 2432 4140 
C 2432 4191 2432 4224 2394 4224 
C 2387 4224 2374 4224 2323 4198 
C 2099 4102 1837 4032 1517 4032 
C 1325 4032 1037 4055 723 4191 
C 653 4224 640 4224 634 4224 
C 602 4224 595 4217 595 4090 
L 595 2231 
C 595 2113 595 2080 659 2080 
C 691 2080 704 2093 736 2139 
C 941 2435 1222 2560 1542 2560 
C 1766 2560 2246 2415 2246 1293 
C 2246 1087 2246 716 2054 422 
C 1894 159 1645 25 1370 25 
C 947 25 518 319 403 812 
C 429 806 480 793 506 793 
C 589 793 749 838 749 1036 
C 749 1209 627 1280 506 1280 
C 358 1280 262 1190 262 1011 
C 262 454 704 -128 1382 -128 
C 2042 -128 2669 441 2669 1267 
C 2669 2054 2170 2662 1549 2662 
C 1222 2662 947 2540 730 2304 
L 730 3750 
z
" transform="scale(0.015625)"/>
       </defs>
       <use xlink:href="#CMR17-35" transform="scale(0.996264)"/>
       <use xlink:href="#CMR17-30" transform="translate(45.690477 0) scale(0.996264)"/>
       <use xlink:href="#CMR17-30" transform="translate(91.380954 0) scale(0.996264)"/>
      </g>
     </g>
    </g>
    <g id="xtick_3">
     <g id="line2d_3">
      <g>
       <use xlink:href="#m7577421828" x="157.630044" y="228.96" style="stroke: #000000; stroke-width: 0.8"/>
      </g>
     </g>
     <g id="text_3">
      <!-- $\mathdefault{1000}$ -->
      <g transform="translate(147.667374 243.05832) scale(0.1 -0.1)">
       <defs>
        <path id="CMR17-31" d="M 1702 4083 
C 1702 4217 1696 4224 1606 4224 
C 1357 3927 979 3833 621 3820 
C 602 3820 570 3820 563 3808 
C 557 3795 557 3782 557 3648 
C 755 3648 1088 3686 1344 3839 
L 1344 467 
C 1344 243 1331 166 781 166 
L 589 166 
L 589 0 
C 896 6 1216 12 1523 12 
C 1830 12 2150 6 2458 0 
L 2458 166 
L 2266 166 
C 1715 166 1702 236 1702 467 
L 1702 4083 
z
" transform="scale(0.015625)"/>
       </defs>
       <use xlink:href="#CMR17-31" transform="scale(0.996264)"/>
       <use xlink:href="#CMR17-30" transform="translate(45.690477 0) scale(0.996264)"/>
       <use xlink:href="#CMR17-30" transform="translate(91.380954 0) scale(0.996264)"/>
       <use xlink:href="#CMR17-30" transform="translate(137.071431 0) scale(0.996264)"/>
      </g>
     </g>
    </g>
    <g id="xtick_4">
     <g id="line2d_4">
      <g>
       <use xlink:href="#m7577421828" x="210.052304" y="228.96" style="stroke: #000000; stroke-width: 0.8"/>
      </g>
     </g>
     <g id="text_4">
      <!-- $\mathdefault{1500}$ -->
      <g transform="translate(200.089633 243.05832) scale(0.1 -0.1)">
       <use xlink:href="#CMR17-31" transform="scale(0.996264)"/>
       <use xlink:href="#CMR17-35" transform="translate(45.690477 0) scale(0.996264)"/>
       <use xlink:href="#CMR17-30" transform="translate(91.380954 0) scale(0.996264)"/>
       <use xlink:href="#CMR17-30" transform="translate(137.071431 0) scale(0.996264)"/>
      </g>
     </g>
    </g>
    <g id="xtick_5">
     <g id="line2d_5">
      <g>
       <use xlink:href="#m7577421828" x="262.474563" y="228.96" style="stroke: #000000; stroke-width: 0.8"/>
      </g>
     </g>
     <g id="text_5">
      <!-- $\mathdefault{2000}$ -->
      <g transform="translate(252.511892 243.05832) scale(0.1 -0.1)">
       <defs>
        <path id="CMR17-32" d="M 2669 990 
L 2554 990 
C 2490 537 2438 460 2413 422 
C 2381 371 1920 371 1830 371 
L 602 371 
C 832 620 1280 1073 1824 1596 
C 2214 1966 2669 2400 2669 3033 
C 2669 3788 2067 4224 1395 4224 
C 691 4224 262 3603 262 3027 
C 262 2777 448 2745 525 2745 
C 589 2745 781 2783 781 3007 
C 781 3206 614 3264 525 3264 
C 486 3264 448 3257 422 3244 
C 544 3788 915 4057 1306 4057 
C 1862 4057 2227 3616 2227 3033 
C 2227 2477 1901 1998 1536 1583 
L 262 147 
L 262 0 
L 2515 0 
L 2669 990 
z
" transform="scale(0.015625)"/>
       </defs>
       <use xlink:href="#CMR17-32" transform="scale(0.996264)"/>
       <use xlink:href="#CMR17-30" transform="translate(45.690477 0) scale(0.996264)"/>
       <use xlink:href="#CMR17-30" transform="translate(91.380954 0) scale(0.996264)"/>
       <use xlink:href="#CMR17-30" transform="translate(137.071431 0) scale(0.996264)"/>
      </g>
     </g>
    </g>
    <g id="xtick_6">
     <g id="line2d_6">
      <g>
       <use xlink:href="#m7577421828" x="314.896822" y="228.96" style="stroke: #000000; stroke-width: 0.8"/>
      </g>
     </g>
     <g id="text_6">
      <!-- $\mathdefault{2500}$ -->
      <g transform="translate(304.934151 243.05832) scale(0.1 -0.1)">
       <use xlink:href="#CMR17-32" transform="scale(0.996264)"/>
       <use xlink:href="#CMR17-35" transform="translate(45.690477 0) scale(0.996264)"/>
       <use xlink:href="#CMR17-30" transform="translate(91.380954 0) scale(0.996264)"/>
       <use xlink:href="#CMR17-30" transform="translate(137.071431 0) scale(0.996264)"/>
      </g>
     </g>
    </g>
    <g id="xtick_7">
     <g id="line2d_7">
      <g>
       <use xlink:href="#m7577421828" x="367.319081" y="228.96" style="stroke: #000000; stroke-width: 0.8"/>
      </g>
     </g>
     <g id="text_7">
      <!-- $\mathdefault{3000}$ -->
      <g transform="translate(357.35641 243.05832) scale(0.1 -0.1)">
       <defs>
        <path id="CMR17-33" d="M 1414 2176 
C 1984 2176 2234 1673 2234 1094 
C 2234 322 1824 25 1453 25 
C 1114 25 563 193 390 691 
C 422 678 454 678 486 678 
C 640 678 755 780 755 947 
C 755 1132 614 1216 486 1216 
C 378 1216 211 1164 211 927 
C 211 335 787 -128 1466 -128 
C 2176 -128 2720 432 2720 1087 
C 2720 1718 2208 2176 1600 2246 
C 2086 2347 2554 2776 2554 3353 
C 2554 3856 2048 4224 1472 4224 
C 890 4224 378 3862 378 3347 
C 378 3123 544 3084 627 3084 
C 762 3084 877 3167 877 3334 
C 877 3500 762 3584 627 3584 
C 602 3584 570 3584 544 3571 
C 730 3999 1235 4076 1459 4076 
C 1683 4076 2106 3966 2106 3347 
C 2106 3167 2080 2851 1862 2574 
C 1670 2329 1453 2316 1242 2297 
C 1210 2297 1062 2284 1037 2284 
C 992 2278 966 2272 966 2227 
C 966 2182 973 2176 1101 2176 
L 1414 2176 
z
" transform="scale(0.015625)"/>
       </defs>
       <use xlink:href="#CMR17-33" transform="scale(0.996264)"/>
       <use xlink:href="#CMR17-30" transform="translate(45.690477 0) scale(0.996264)"/>
       <use xlink:href="#CMR17-30" transform="translate(91.380954 0) scale(0.996264)"/>
       <use xlink:href="#CMR17-30" transform="translate(137.071431 0) scale(0.996264)"/>
      </g>
     </g>
    </g>
    <g id="text_8">
     <!-- Iteration -->
     <g transform="translate(187.019968 256.278627) scale(0.1 -0.1)">
      <defs>
       <path id="NimbusSanL-Regu-49" d="M 1242 4672 
L 640 4672 
L 640 0 
L 1242 0 
L 1242 4672 
z
" transform="scale(0.015625)"/>
       <path id="NimbusSanL-Regu-74" d="M 1626 3328 
L 1075 3328 
L 1075 4249 
L 544 4249 
L 544 3328 
L 90 3328 
L 90 2892 
L 544 2892 
L 544 402 
C 544 64 774 -128 1190 -128 
C 1318 -128 1446 -116 1626 -84 
L 1626 364 
C 1555 345 1472 339 1370 339 
C 1139 339 1075 402 1075 634 
L 1075 2892 
L 1626 2892 
L 1626 3328 
z
" transform="scale(0.015625)"/>
       <path id="NimbusSanL-Regu-65" d="M 3283 1484 
C 3283 1998 3245 2311 3149 2565 
C 2931 3123 2419 3456 1792 3456 
C 858 3456 256 2734 256 1619 
C 256 545 838 -128 1779 -128 
C 2547 -128 3078 307 3213 1018 
L 2675 1018 
C 2528 588 2227 364 1798 364 
C 1459 364 1171 514 992 787 
C 864 974 819 1161 813 1484 
L 3283 1484 
z
M 826 1920 
C 870 2552 1248 2963 1786 2963 
C 2310 2963 2714 2519 2714 1959 
C 2714 1946 2714 1933 2707 1920 
L 826 1920 
z
" transform="scale(0.015625)"/>
       <path id="NimbusSanL-Regu-72" d="M 442 3328 
L 442 0 
L 979 0 
L 979 1727 
C 979 2203 1101 2514 1357 2698 
C 1523 2819 1683 2857 2054 2863 
L 2054 3404 
C 1965 3449 1920 3456 1850 3456 
C 1504 3456 1242 3251 934 2750 
L 934 3328 
L 442 3328 
z
" transform="scale(0.015625)"/>
       <path id="NimbusSanL-Regu-61" d="M 3424 332 
C 3366 320 3341 320 3309 320 
C 3123 320 3021 415 3021 581 
L 3021 2542 
C 3021 3135 2586 3456 1760 3456 
C 1274 3456 870 3315 646 3065 
C 493 2893 429 2702 416 2370 
L 954 2370 
C 998 2778 1242 2963 1741 2963 
C 2221 2963 2490 2784 2490 2466 
L 2490 2326 
C 2490 2103 2355 2007 1933 1956 
C 1178 1861 1062 1835 858 1753 
C 467 1593 269 1294 269 861 
C 269 256 691 -128 1370 -128 
C 1792 -128 2131 19 2509 364 
C 2547 25 2714 -128 3059 -128 
C 3168 -128 3251 -116 3424 -71 
L 3424 332 
z
M 2490 1071 
C 2490 893 2438 785 2278 638 
C 2061 441 1798 339 1485 339 
C 1069 339 826 536 826 874 
C 826 1224 1062 1402 1632 1485 
C 2195 1562 2310 1587 2490 1670 
L 2490 1071 
z
" transform="scale(0.015625)"/>
       <path id="NimbusSanL-Regu-69" d="M 960 3358 
L 429 3358 
L 429 0 
L 960 0 
L 960 3358 
z
M 960 4672 
L 422 4672 
L 422 3999 
L 960 3999 
L 960 4672 
z
" transform="scale(0.015625)"/>
       <path id="NimbusSanL-Regu-6f" d="M 1741 3456 
C 800 3456 230 2784 230 1663 
C 230 543 794 -128 1747 -128 
C 2688 -128 3264 543 3264 1638 
C 3264 2791 2707 3456 1741 3456 
z
M 1747 2963 
C 2349 2963 2707 2472 2707 1644 
C 2707 861 2336 364 1747 364 
C 1152 364 787 855 787 1663 
C 787 2466 1152 2963 1747 2963 
z
" transform="scale(0.015625)"/>
       <path id="NimbusSanL-Regu-6e" d="M 448 3328 
L 448 0 
L 986 0 
L 986 1835 
C 986 2539 1344 2988 1894 2988 
C 2317 2988 2586 2732 2586 2328 
L 2586 0 
L 3117 0 
L 3117 2539 
C 3117 3097 2701 3456 2054 3456 
C 1555 3456 1235 3263 941 2796 
L 941 3328 
L 448 3328 
z
" transform="scale(0.015625)"/>
      </defs>
      <use xlink:href="#NimbusSanL-Regu-49" transform="scale(0.996264)"/>
      <use xlink:href="#NimbusSanL-Regu-74" transform="translate(27.69517 0) scale(0.996264)"/>
      <use xlink:href="#NimbusSanL-Regu-65" transform="translate(55.390339 0) scale(0.996264)"/>
      <use xlink:href="#NimbusSanL-Regu-72" transform="translate(110.782016 0) scale(0.996264)"/>
      <use xlink:href="#NimbusSanL-Regu-61" transform="translate(142.961149 0) scale(0.996264)"/>
      <use xlink:href="#NimbusSanL-Regu-74" transform="translate(198.352826 0) scale(0.996264)"/>
      <use xlink:href="#NimbusSanL-Regu-69" transform="translate(226.047996 0) scale(0.996264)"/>
      <use xlink:href="#NimbusSanL-Regu-6f" transform="translate(248.16478 0) scale(0.996264)"/>
      <use xlink:href="#NimbusSanL-Regu-6e" transform="translate(303.556457 0) scale(0.996264)"/>
     </g>
    </g>
   </g>
   <g id="matplotlib.axis_2">
    <g id="ytick_1">
     <g id="line2d_8">
      <defs>
       <path id="m959d1b0e6d" d="M 0 0 
L -3.5 0 
" style="stroke: #000000; stroke-width: 0.8"/>
      </defs>
      <g>
       <use xlink:href="#m959d1b0e6d" x="37.567344" y="191.235008" style="stroke: #000000; stroke-width: 0.8"/>
      </g>
     </g>
     <g id="text_9">
      <!-- $\mathdefault{5}$ -->
      <g transform="translate(25.586009 194.784168) scale(0.1 -0.1)">
       <use xlink:href="#CMR17-35" transform="scale(0.996264)"/>
      </g>
     </g>
    </g>
    <g id="ytick_2">
     <g id="line2d_9">
      <g>
       <use xlink:href="#m959d1b0e6d" x="37.567344" y="148.672975" style="stroke: #000000; stroke-width: 0.8"/>
      </g>
     </g>
     <g id="text_10">
      <!-- $\mathdefault{10}$ -->
      <g transform="translate(20.604674 152.222135) scale(0.1 -0.1)">
       <use xlink:href="#CMR17-31" transform="scale(0.996264)"/>
       <use xlink:href="#CMR17-30" transform="translate(45.690477 0) scale(0.996264)"/>
      </g>
     </g>
    </g>
    <g id="ytick_3">
     <g id="line2d_10">
      <g>
       <use xlink:href="#m959d1b0e6d" x="37.567344" y="106.110942" style="stroke: #000000; stroke-width: 0.8"/>
      </g>
     </g>
     <g id="text_11">
      <!-- $\mathdefault{15}$ -->
      <g transform="translate(20.604674 109.660102) scale(0.1 -0.1)">
       <use xlink:href="#CMR17-31" transform="scale(0.996264)"/>
       <use xlink:href="#CMR17-35" transform="translate(45.690477 0) scale(0.996264)"/>
      </g>
     </g>
    </g>
    <g id="ytick_4">
     <g id="line2d_11">
      <g>
       <use xlink:href="#m959d1b0e6d" x="37.567344" y="63.548908" style="stroke: #000000; stroke-width: 0.8"/>
      </g>
     </g>
     <g id="text_12">
      <!-- $\mathdefault{20}$ -->
      <g transform="translate(20.604674 67.098069) scale(0.1 -0.1)">
       <use xlink:href="#CMR17-32" transform="scale(0.996264)"/>
       <use xlink:href="#CMR17-30" transform="translate(45.690477 0) scale(0.996264)"/>
      </g>
     </g>
    </g>
    <g id="ytick_5">
     <g id="line2d_12">
      <g>
       <use xlink:href="#m959d1b0e6d" x="37.567344" y="20.986875" style="stroke: #000000; stroke-width: 0.8"/>
      </g>
     </g>
     <g id="text_13">
      <!-- $\mathdefault{25}$ -->
      <g transform="translate(20.604674 24.536035) scale(0.1 -0.1)">
       <use xlink:href="#CMR17-32" transform="scale(0.996264)"/>
       <use xlink:href="#CMR17-35" transform="translate(45.690477 0) scale(0.996264)"/>
      </g>
     </g>
    </g>
    <g id="text_14">
     <!-- Average CFL - Blade_0 -->
     <g transform="translate(14.482687 168.77932) rotate(-90) scale(0.1 -0.1)">
      <defs>
       <path id="NimbusSanL-Regu-41" d="M 3034 1408 
L 3514 0 
L 4179 0 
L 2541 4672 
L 1773 4672 
L 109 0 
L 742 0 
L 1235 1408 
L 3034 1408 
z
M 2867 1907 
L 1382 1907 
L 2150 4032 
L 2867 1907 
z
" transform="scale(0.015625)"/>
       <path id="NimbusSanL-Regu-76" d="M 1824 0 
L 3110 3328 
L 2509 3328 
L 1562 629 
L 666 3328 
L 64 3328 
L 1242 0 
L 1824 0 
z
" transform="scale(0.015625)"/>
       <path id="NimbusSanL-Regu-67" d="M 2637 3359 
L 2637 2873 
C 2368 3270 2042 3456 1613 3456 
C 762 3456 186 2714 186 1632 
C 186 1084 333 638 608 320 
C 858 38 1216 -128 1568 -128 
C 1990 -128 2285 51 2586 473 
L 2586 300 
C 2586 -155 2528 -441 2394 -634 
C 2253 -841 1978 -960 1651 -960 
C 1408 -960 1190 -894 1043 -774 
C 922 -674 870 -581 838 -375 
L 294 -375 
C 352 -1031 845 -1408 1632 -1408 
C 2131 -1408 2560 -1248 2778 -980 
C 3034 -661 3130 -222 3130 568 
L 3130 3359 
L 2637 3359 
z
M 1670 2963 
C 2246 2963 2586 2479 2586 1644 
C 2586 848 2240 364 1677 364 
C 1094 364 742 855 742 1663 
C 742 2466 1101 2963 1670 2963 
z
" transform="scale(0.015625)"/>
       <path id="NimbusSanL-Regu-43" d="M 4237 3219 
C 4051 4236 3462 4736 2438 4736 
C 1811 4736 1306 4537 960 4154 
C 538 3696 307 3035 307 2284 
C 307 1522 544 867 986 415 
C 1344 44 1805 -128 2413 -128 
C 3552 -128 4192 485 4333 1712 
L 3718 1712 
C 3667 1394 3603 1178 3507 994 
C 3315 612 2918 396 2419 396 
C 1491 396 902 1134 902 2291 
C 902 3480 1466 4211 2368 4211 
C 2746 4211 3098 4096 3290 3918 
C 3462 3759 3558 3562 3629 3219 
L 4237 3219 
z
" transform="scale(0.015625)"/>
       <path id="NimbusSanL-Regu-46" d="M 1171 2112 
L 3398 2112 
L 3398 2636 
L 1171 2636 
L 1171 4147 
L 3706 4147 
L 3706 4672 
L 576 4672 
L 576 0 
L 1171 0 
L 1171 2112 
z
" transform="scale(0.015625)"/>
       <path id="NimbusSanL-Regu-4c" d="M 1107 4672 
L 512 4672 
L 512 0 
L 3411 0 
L 3411 524 
L 1107 524 
L 1107 4672 
z
" transform="scale(0.015625)"/>
       <path id="NimbusSanL-Regu-2d" d="M 1818 1996 
L 294 1996 
L 294 1536 
L 1818 1536 
L 1818 1996 
z
" transform="scale(0.015625)"/>
       <path id="NimbusSanL-Regu-42" d="M 506 0 
L 2611 0 
C 3053 0 3379 121 3629 390 
C 3859 632 3987 961 3987 1321 
C 3987 1878 3731 2214 3136 2444 
C 3558 2643 3782 2994 3782 3476 
C 3782 3821 3654 4127 3411 4345 
C 3168 4569 2848 4672 2400 4672 
L 506 4672 
L 506 0 
z
M 1101 2636 
L 1101 4147 
L 2253 4147 
C 2586 4147 2771 4101 2931 3977 
C 3098 3847 3187 3652 3187 3391 
C 3187 3138 3098 2936 2931 2806 
C 2771 2682 2586 2636 2253 2636 
L 1101 2636 
z
M 1101 524 
L 1101 2112 
L 2554 2112 
C 2842 2112 3034 2042 3174 1890 
C 3315 1745 3392 1542 3392 1315 
C 3392 1093 3315 891 3174 746 
C 3034 594 2842 524 2554 524 
L 1101 524 
z
" transform="scale(0.015625)"/>
       <path id="NimbusSanL-Regu-6c" d="M 973 4672 
L 435 4672 
L 435 0 
L 973 0 
L 973 4672 
z
" transform="scale(0.015625)"/>
       <path id="NimbusSanL-Regu-64" d="M 3168 4672 
L 2637 4672 
L 2637 2937 
C 2413 3276 2054 3456 1606 3456 
C 736 3456 166 2759 166 1695 
C 166 568 723 -128 1626 -128 
C 2086 -128 2406 44 2694 460 
L 2694 19 
L 3168 19 
L 3168 4672 
z
M 1696 2956 
C 2272 2956 2637 2447 2637 1651 
C 2637 880 2266 371 1702 371 
C 1114 371 723 887 723 1663 
C 723 2440 1114 2956 1696 2956 
z
" transform="scale(0.015625)"/>
       <path id="NimbusSanL-Regu-30" d="M 1760 4544 
C 1338 4544 954 4358 717 4044 
C 422 3649 275 3043 275 2207 
C 275 683 787 -128 1760 -128 
C 2720 -128 3245 683 3245 2169 
C 3245 3049 3104 3636 2803 4044 
C 2566 4364 2189 4544 1760 4544 
z
M 1760 4044 
C 2368 4044 2669 3432 2669 2220 
C 2669 938 2374 339 1747 339 
C 1152 339 851 964 851 2201 
C 851 3438 1152 4044 1760 4044 
z
" transform="scale(0.015625)"/>
      </defs>
      <use xlink:href="#NimbusSanL-Regu-41" transform="scale(0.996264)"/>
      <use xlink:href="#NimbusSanL-Regu-76" transform="translate(62.465918 0) scale(0.996264)"/>
      <use xlink:href="#NimbusSanL-Regu-65" transform="translate(109.788488 0) scale(0.996264)"/>
      <use xlink:href="#NimbusSanL-Regu-72" transform="translate(165.180165 0) scale(0.996264)"/>
      <use xlink:href="#NimbusSanL-Regu-61" transform="translate(197.359298 0) scale(0.996264)"/>
      <use xlink:href="#NimbusSanL-Regu-67" transform="translate(252.750975 0) scale(0.996264)"/>
      <use xlink:href="#NimbusSanL-Regu-65" transform="translate(308.142652 0) scale(0.996264)"/>
      <use xlink:href="#NimbusSanL-Regu-43" transform="translate(391.229499 0) scale(0.996264)"/>
      <use xlink:href="#NimbusSanL-Regu-46" transform="translate(463.159484 0) scale(0.996264)"/>
      <use xlink:href="#NimbusSanL-Regu-4c" transform="translate(524.031114 0) scale(0.996264)"/>
      <use xlink:href="#NimbusSanL-Regu-2d" transform="translate(607.117961 0) scale(0.996264)"/>
      <use xlink:href="#NimbusSanL-Regu-42" transform="translate(667.98836 0) scale(0.996264)"/>
      <use xlink:href="#NimbusSanL-Regu-6c" transform="translate(734.438391 0) scale(0.996264)"/>
      <use xlink:href="#NimbusSanL-Regu-61" transform="translate(756.555176 0) scale(0.996264)"/>
      <use xlink:href="#NimbusSanL-Regu-64" transform="translate(811.946853 0) scale(0.996264)"/>
      <use xlink:href="#NimbusSanL-Regu-65" transform="translate(867.33853 0) scale(0.996264)"/>
      <use xlink:href="#NimbusSanL-Regu-30" transform="translate(958.595772 0) scale(0.996264)"/>
      <path d="M 928.707548 0 
L 958.595772 0 
L 958.595772 0.3985 
L 928.707548 0.3985 
L 928.707548 0 
z
"/>
     </g>
    </g>
   </g>
   <g id="line2d_13">
    <path d="M 52.785526 112.407799 
L 52.995215 61.761672 
L 53.10006 216.593504 
L 53.204904 213.152797 
L 53.519438 198.123787 
L 53.833971 172.153658 
L 54.148505 127.279495 
L 54.463038 51.408629 
L 54.567883 215.5582 
L 54.672728 211.910432 
L 54.987261 195.97698 
L 55.301795 168.443975 
L 55.616328 121.080396 
L 56.035706 40.27877 
L 56.35024 40.27877 
L 56.455084 214.445214 
L 56.559929 210.574849 
L 56.874462 193.669093 
L 57.188996 164.457384 
L 57.50353 114.098197 
L 57.713219 62.291641 
L 57.818063 216.646501 
L 57.922908 213.216393 
L 58.237441 198.233681 
L 58.551975 172.347906 
L 58.866508 127.77307 
L 59.181042 81.561751 
L 59.285886 81.561751 
L 59.390731 51.428178 
L 59.495575 215.560155 
L 59.60042 211.912778 
L 59.914953 195.981034 
L 60.229487 168.451488 
L 60.544021 120.911832 
L 60.75371 71.373224 
L 60.858554 217.55466 
L 60.963399 214.306183 
L 61.277932 200.116838 
L 61.592466 175.597651 
L 61.906999 133.232817 
L 62.326377 60.248666 
L 62.431222 216.442204 
L 62.536066 212.971236 
L 62.8506 197.81005 
L 63.165134 171.613207 
L 63.479667 126.401004 
L 63.794201 48.414469 
L 63.899045 215.258784 
L 64.00389 211.551133 
L 64.318423 195.356111 
L 64.632957 167.371114 
L 64.94749 119.01447 
L 65.262024 35.495072 
L 65.366868 213.966844 
L 65.471713 210.000805 
L 65.786246 192.677145 
L 66.10078 162.74186 
L 66.415314 111.013689 
L 66.625003 56.997591 
L 66.729847 216.117096 
L 66.834692 212.581107 
L 67.149225 197.135907 
L 67.463759 170.446602 
L 67.778292 124.327482 
L 68.092826 76.162575 
L 68.302515 76.162575 
L 68.407359 44.635681 
L 68.512204 214.880905 
L 68.617048 211.097678 
L 68.931582 194.572542 
L 69.246116 166.017106 
L 69.560649 116.673313 
L 69.980027 31.407239 
L 70.084872 213.558061 
L 70.189716 209.510265 
L 70.50425 191.829492 
L 70.818783 161.277116 
L 71.133317 108.48261 
L 71.44785 17.28 
L 71.552695 212.145337 
L 71.657539 207.814996 
L 71.972073 188.900068 
L 72.286607 156.215071 
L 72.60114 99.735396 
L 72.810829 40.761802 
L 72.915674 214.493517 
L 73.020518 210.632813 
L 73.335052 193.769254 
L 73.649585 164.629025 
L 73.964119 114.274709 
L 74.173808 61.745353 
L 74.278652 216.591872 
L 74.383497 213.150839 
L 74.698031 198.120403 
L 75.012564 172.147811 
L 75.327098 127.276555 
L 75.641631 49.895881 
L 75.746476 215.406925 
L 75.85132 211.728902 
L 76.165854 195.663297 
L 76.480387 167.901931 
L 76.794921 119.934858 
L 77.00461 69.876878 
L 77.109454 217.405025 
L 77.214299 214.126622 
L 77.528832 199.806556 
L 77.843366 175.061483 
L 78.1579 132.301997 
L 78.472433 58.418446 
L 78.577278 216.259182 
L 78.682122 212.75161 
L 78.996656 197.430536 
L 79.311189 170.95572 
L 79.625723 125.207238 
L 80.045101 46.153861 
L 80.149945 215.032723 
L 80.25479 211.27986 
L 80.569324 194.887351 
L 80.883857 166.561097 
L 81.198391 117.61333 
L 81.40808 66.492496 
L 81.512924 217.066587 
L 81.617769 213.720496 
L 81.932302 199.104771 
L 82.246836 173.848798 
L 82.561369 130.206477 
L 82.875903 84.626629 
L 83.085592 84.626629 
L 83.190436 218.88 
L 83.295281 215.896592 
L 83.609815 202.865064 
L 83.924348 180.346585 
L 84.238882 141.434654 
L 84.553415 74.194835 
L 84.65826 217.836821 
L 84.763104 214.644777 
L 85.077638 200.701928 
L 85.392171 176.608685 
L 85.706705 134.975562 
L 86.021238 63.033525 
L 86.126083 216.72069 
L 86.230928 213.305419 
L 86.545461 198.387519 
L 86.859995 172.609386 
L 87.174528 128.064773 
L 87.489062 51.091682 
L 87.593906 215.526505 
L 87.698751 211.872398 
L 88.013284 195.911258 
L 88.327818 168.330408 
L 88.642351 120.670698 
L 88.956885 38.314721 
L 89.06173 214.248809 
L 89.166574 210.339163 
L 89.481108 193.261827 
L 89.795641 163.752192 
L 90.110175 112.759541 
L 90.529553 24.644241 
L 90.634397 212.881761 
L 90.739242 208.698705 
L 91.053775 190.427117 
L 91.368309 158.853811 
L 91.682842 104.29514 
L 91.892531 47.314303 
L 91.997376 215.148767 
L 92.102221 211.419113 
L 92.416754 195.127981 
L 92.731288 166.976905 
L 93.045821 118.331845 
L 93.25551 67.527159 
L 93.360355 217.170053 
L 93.465199 213.844655 
L 93.779733 199.319318 
L 94.094266 174.219536 
L 94.4088 130.847113 
L 94.723333 55.899565 
L 94.828178 216.007294 
L 94.933023 212.449344 
L 95.247556 196.908221 
L 95.56209 170.053159 
L 95.876623 123.647613 
L 96.191157 43.458829 
L 96.296001 214.76322 
L 96.400846 210.956456 
L 96.715379 194.32851 
L 97.029913 165.595418 
L 97.344446 115.944637 
L 97.554135 64.089579 
L 97.65898 216.826295 
L 97.763825 213.432146 
L 98.078358 198.606502 
L 98.392892 172.987789 
L 98.707425 128.718654 
L 99.021959 52.221588 
L 99.126803 215.639496 
L 99.231648 212.007987 
L 99.546181 196.145555 
L 99.860715 168.735273 
L 100.175248 121.370306 
L 100.384937 71.902543 
L 100.489782 217.607591 
L 100.594627 214.369701 
L 100.90916 200.226598 
L 101.223694 175.787315 
L 101.538227 133.556235 
L 101.852761 60.580928 
L 101.957605 216.47543 
L 102.06245 213.011108 
L 102.376983 197.878948 
L 102.691517 171.730576 
L 103.00605 126.54619 
L 103.320584 48.46757 
L 103.425428 215.264094 
L 103.530273 211.557505 
L 103.844807 195.367122 
L 104.15934 167.390141 
L 104.473874 119.045917 
L 104.683563 68.555423 
L 104.788407 217.272879 
L 104.893252 213.968047 
L 105.207785 199.532539 
L 105.522319 174.587982 
L 105.836852 131.483786 
L 106.151386 56.999737 
L 106.25623 216.117311 
L 106.361075 212.581365 
L 106.675609 197.136352 
L 106.990142 170.447371 
L 107.304676 124.32881 
L 107.724054 44.635938 
L 107.828898 214.880931 
L 107.933743 211.097709 
L 108.248276 194.572595 
L 108.56281 166.017198 
L 108.877343 116.673472 
L 109.087032 65.139102 
L 109.191877 216.931247 
L 109.296722 213.558089 
L 109.611255 198.824131 
L 109.925789 173.363852 
L 110.240322 129.368491 
L 110.554856 53.344506 
L 110.6597 215.751788 
L 110.764545 212.142737 
L 111.079078 196.378404 
L 111.393612 169.137635 
L 111.708145 122.065588 
L 111.917834 72.903748 
L 112.022679 217.707712 
L 112.127524 214.489846 
L 112.442057 200.434208 
L 112.756591 176.146065 
L 113.071124 134.176155 
L 113.385658 61.65215 
L 113.490502 216.582552 
L 113.595347 213.139654 
L 113.90988 198.101077 
L 114.224414 172.114414 
L 114.538947 127.209462 
L 114.853481 49.613704 
L 114.958325 215.378708 
L 115.06317 211.695041 
L 115.377704 195.604784 
L 115.692237 167.800821 
L 116.006771 119.755573 
L 116.21646 69.577327 
L 116.321304 217.37507 
L 116.426149 214.090676 
L 116.740682 199.744441 
L 117.055216 174.954149 
L 117.369749 132.116523 
L 117.684283 58.093106 
L 117.789127 216.226648 
L 117.893972 212.712569 
L 118.208506 197.363073 
L 118.523039 170.839144 
L 118.837573 125.005795 
L 119.152106 77.137647 
L 119.361795 77.137647 
L 119.46664 45.805769 
L 119.571484 214.997914 
L 119.676329 211.238089 
L 119.990862 194.815171 
L 120.305396 166.436369 
L 120.619929 117.3978 
L 120.829619 66.182134 
L 120.934463 217.035551 
L 121.039308 213.683252 
L 121.353841 199.040414 
L 121.668375 173.73759 
L 121.982908 130.014309 
L 122.297442 54.460479 
L 122.402286 215.863385 
L 122.507131 212.276654 
L 122.821664 196.609812 
L 123.136198 169.537509 
L 123.450731 122.756569 
L 123.660421 73.898761 
L 123.765265 217.807213 
L 123.87011 214.609248 
L 124.184643 200.640534 
L 124.499177 176.502597 
L 124.81371 134.792241 
L 125.128244 62.716746 
L 125.233088 216.689012 
L 125.337933 213.267406 
L 125.652466 198.321831 
L 125.967 172.495878 
L 126.281533 127.868632 
L 126.596067 50.75275 
L 126.700912 215.492612 
L 126.805756 211.831726 
L 127.12029 195.840977 
L 127.434823 168.208962 
L 127.749357 120.460841 
L 127.959046 70.592912 
L 128.06389 217.476628 
L 128.168735 214.212546 
L 128.483268 199.955033 
L 128.797802 175.318051 
L 129.112335 132.745346 
L 129.426869 59.179712 
L 129.531714 216.335308 
L 129.636558 212.842962 
L 129.951092 197.588392 
L 130.265625 171.228495 
L 130.580159 125.678594 
L 130.999537 46.968364 
L 131.104381 215.114174 
L 131.209226 211.3776 
L 131.523759 195.056247 
L 131.838293 166.852948 
L 132.152826 118.117649 
L 132.362516 67.218716 
L 132.46736 217.139209 
L 132.572205 213.807642 
L 132.886738 199.25536 
L 133.201272 174.109016 
L 133.515805 130.656133 
L 133.830339 55.569552 
L 133.935183 215.974292 
L 134.040028 212.409742 
L 134.354561 196.839789 
L 134.669095 169.934909 
L 134.983628 123.443277 
L 135.193318 74.887621 
L 135.298162 217.906099 
L 135.403007 214.727911 
L 135.71754 200.845584 
L 136.032074 176.856923 
L 136.346607 135.404517 
L 136.661141 63.774759 
L 136.765985 216.794813 
L 136.87083 213.394367 
L 137.185363 198.541221 
L 137.499897 172.874984 
L 137.81443 128.523725 
L 138.128964 82.203467 
L 138.233809 82.203467 
L 138.338653 51.884752 
L 138.443498 215.605812 
L 138.548342 211.967567 
L 138.862876 196.075709 
L 139.177409 168.614579 
L 139.491943 121.161746 
L 139.701632 71.602217 
L 139.806476 217.577559 
L 139.911321 214.333662 
L 140.225854 200.164322 
L 140.540388 175.679703 
L 140.854921 133.370281 
L 141.169455 60.259599 
L 141.2743 216.443297 
L 141.379144 212.972548 
L 141.693678 197.812317 
L 142.008211 171.615438 
L 142.322745 126.347231 
L 142.637278 48.12377 
L 142.742123 215.229714 
L 142.846967 211.516249 
L 143.161501 195.295832 
L 143.476034 167.266951 
L 143.790568 118.833045 
L 144.000257 68.248887 
L 144.105102 217.242226 
L 144.209946 213.931263 
L 144.52448 199.468976 
L 144.839013 174.478145 
L 145.153547 131.293988 
L 145.46808 86.192644 
L 145.572925 86.192644 
L 145.677769 56.671765 
L 145.782614 216.084514 
L 145.887458 212.542008 
L 146.201992 197.068344 
L 146.516525 170.329852 
L 146.831059 124.125739 
L 147.040748 75.870366 
L 147.145593 218.004374 
L 147.250437 214.84584 
L 147.564971 201.049366 
L 147.879504 177.209058 
L 148.194038 136.013006 
L 148.508571 64.826229 
L 148.613416 216.89996 
L 148.71826 213.520544 
L 149.032794 198.759254 
L 149.347327 173.251744 
L 149.661861 129.174768 
L 149.976395 83.140968 
L 150.081239 83.140968 
L 150.186084 53.009753 
L 150.290928 215.718312 
L 150.395773 212.102567 
L 150.710306 196.308989 
L 151.02484 169.017687 
L 151.339373 121.858317 
L 151.549062 72.605279 
L 151.653907 217.677865 
L 151.758751 214.45403 
L 152.073285 200.372317 
L 152.387819 176.039118 
L 152.702352 133.991351 
L 153.016886 61.332808 
L 153.12173 216.550618 
L 153.226575 213.101333 
L 153.541108 198.034858 
L 153.855642 171.999988 
L 154.170175 127.011734 
L 154.589553 49.27203 
L 154.694398 215.34454 
L 154.799242 211.65404 
L 155.113776 195.533935 
L 155.42831 167.678393 
L 155.742843 119.544018 
L 155.952532 69.272688 
L 156.057377 217.344606 
L 156.162221 214.054119 
L 156.476755 199.681271 
L 156.791288 174.844991 
L 157.105822 131.927898 
L 157.420355 57.767162 
L 157.5252 216.194053 
L 157.630044 212.673456 
L 157.944578 197.295485 
L 158.259112 170.722353 
L 158.573645 124.80398 
L 158.888179 76.847032 
L 159.831779 76.847032 
L 159.936624 45.457031 
L 160.041468 214.96304 
L 160.146313 211.19624 
L 160.460846 194.742857 
L 160.77538 166.31141 
L 161.089914 117.181871 
L 161.299603 65.871196 
L 161.404447 217.004457 
L 161.509292 213.64594 
L 161.823825 198.975938 
L 162.138359 173.626175 
L 162.452892 129.821784 
L 162.767426 54.127797 
L 162.87227 215.830117 
L 162.977115 212.236732 
L 163.291648 196.540827 
L 163.606182 169.418303 
L 163.920716 122.550581 
L 164.235249 73.602138 
L 164.654627 73.602138 
L 164.759472 217.777551 
L 164.864316 214.573653 
L 165.17885 200.579026 
L 165.493383 176.396311 
L 165.807917 134.60858 
L 166.12245 62.39938 
L 166.227295 216.657275 
L 166.332139 213.229322 
L 166.646673 198.256022 
L 166.961207 172.38216 
L 167.27574 127.672127 
L 167.590274 80.977164 
L 167.695118 80.977164 
L 167.799963 50.413189 
L 167.904807 215.458656 
L 168.009652 211.790979 
L 168.324185 195.770566 
L 168.638719 168.087291 
L 168.953252 120.250594 
L 169.162941 70.290157 
L 169.267786 217.446353 
L 169.37263 214.176215 
L 169.687164 199.892254 
L 170.001698 175.209568 
L 170.316231 132.557888 
L 170.630765 58.855784 
L 170.735609 216.302916 
L 170.840454 212.80409 
L 171.154987 197.521222 
L 171.469521 171.112426 
L 171.784054 125.478026 
L 172.098588 77.817659 
L 174.090634 77.817659 
L 174.195478 46.621783 
L 174.300323 215.079515 
L 174.405167 211.33601 
L 174.719701 194.98438 
L 175.034234 166.728762 
L 175.348768 117.903055 
L 175.663302 66.909701 
L 175.768146 66.909701 
L 175.872991 33.532233 
L 175.977835 213.77056 
L 176.08268 209.765264 
L 176.397213 192.270131 
L 176.711747 162.03854 
L 177.02628 109.79835 
L 177.235969 55.238926 
L 177.340814 215.94123 
L 177.445658 212.370067 
L 177.760192 196.771231 
L 178.074725 169.81644 
L 178.389259 123.238563 
L 178.703793 42.751991 
L 178.808637 214.692536 
L 178.913482 210.871635 
L 179.228015 194.18194 
L 179.542549 165.342146 
L 179.857082 115.506981 
L 180.066771 63.459355 
L 180.171616 216.763273 
L 180.27646 213.356519 
L 180.590994 198.475819 
L 180.905527 172.761969 
L 181.220061 128.328436 
L 181.534595 51.547291 
L 181.639439 215.572066 
L 181.744284 211.927071 
L 182.058817 196.005733 
L 182.373351 168.493661 
L 182.687884 120.9528 
L 182.897573 71.301333 
L 183.002418 217.54747 
L 183.107262 214.297556 
L 183.421796 200.101931 
L 183.736329 175.571891 
L 184.050863 133.183982 
L 184.365397 59.937675 
L 184.470241 216.411105 
L 184.575086 212.933917 
L 184.889619 197.745563 
L 185.204153 171.500087 
L 185.518686 126.147904 
L 185.83322 47.779332 
L 185.938064 215.19527 
L 186.042909 211.474916 
L 186.357442 195.224409 
L 186.671976 167.143533 
L 186.98651 118.619779 
L 187.301043 34.770731 
L 187.405888 213.89441 
L 187.510732 209.913884 
L 187.825266 192.526946 
L 188.139799 162.482316 
L 188.454333 110.565196 
L 188.664022 56.343184 
L 188.768866 216.051656 
L 188.873711 212.502578 
L 189.188244 197.000209 
L 189.502778 170.212116 
L 189.817312 123.92229 
L 190.131845 75.5774 
L 191.704513 75.5774 
L 191.809357 43.933472 
L 191.914202 214.810684 
L 192.019046 211.013413 
L 192.33358 194.426931 
L 192.648113 165.765492 
L 192.962647 116.238523 
L 193.172336 64.512775 
L 193.277181 216.868615 
L 193.382025 213.482929 
L 193.696559 198.694256 
L 194.011092 173.139428 
L 194.325626 128.980686 
L 194.640159 52.674379 
L 194.745004 215.684775 
L 194.849848 212.062322 
L 195.164382 196.239446 
L 195.478915 168.897517 
L 195.793449 121.650663 
L 196.107983 72.306256 
L 196.632205 72.306256 
L 196.73705 217.647963 
L 196.841894 214.418147 
L 197.156428 200.310312 
L 197.470961 175.931973 
L 197.785495 133.806204 
L 198.100028 61.012874 
L 198.204873 216.518625 
L 198.309717 213.062941 
L 198.624251 197.968516 
L 198.938785 171.88535 
L 199.253318 126.813639 
L 199.672696 48.929722 
L 199.777541 215.310309 
L 199.882385 211.612963 
L 200.196919 195.462954 
L 200.511452 167.555738 
L 200.825986 119.33207 
L 201.035675 68.967483 
L 201.140519 217.314085 
L 201.245364 214.017494 
L 201.559898 199.617984 
L 201.874431 174.73563 
L 202.188965 131.738923 
L 202.503498 57.440613 
L 202.608343 216.161398 
L 202.713187 212.63427 
L 203.027721 197.227772 
L 203.342254 170.605345 
L 203.656788 124.601789 
L 203.971321 45.107646 
L 204.076166 214.928102 
L 204.18101 211.154314 
L 204.495544 194.670408 
L 204.810078 166.186219 
L 205.124611 116.965541 
L 205.3343 65.559681 
L 205.439145 216.973305 
L 205.543989 213.608558 
L 205.858523 198.911342 
L 206.173056 173.514553 
L 206.48759 129.628902 
L 206.802123 53.794497 
L 206.906968 215.796787 
L 207.011812 212.196736 
L 207.326346 196.471714 
L 207.64088 169.298875 
L 207.955413 122.34421 
L 208.165102 73.304965 
L 208.269947 217.747834 
L 208.374791 214.537992 
L 208.689325 200.517404 
L 209.003858 176.289829 
L 209.318392 134.424578 
L 209.632925 62.081424 
L 209.73777 216.62548 
L 209.842614 213.191167 
L 210.157148 198.190091 
L 210.471682 172.268231 
L 210.786215 127.475257 
L 211.100749 50.072998 
L 211.205593 215.424637 
L 211.310438 211.750156 
L 211.624971 195.700024 
L 211.939505 167.965395 
L 212.254038 120.039956 
L 212.568572 69.986839 
L 213.407328 69.986839 
L 213.512173 217.416021 
L 213.617017 214.139817 
L 213.931551 199.829358 
L 214.246084 175.100884 
L 214.560618 132.370082 
L 214.875151 58.531255 
L 214.979996 216.270463 
L 215.08484 212.765147 
L 215.399374 197.453928 
L 215.713907 170.996141 
L 216.028441 125.277086 
L 216.23813 77.528306 
L 216.342975 218.170168 
L 216.447819 215.044793 
L 216.762353 201.393156 
L 217.076886 177.803128 
L 217.39142 137.039559 
L 217.705953 66.600112 
L 217.810798 217.077348 
L 217.915642 213.73341 
L 218.230176 199.127086 
L 218.544709 173.887359 
L 218.859243 130.27311 
L 219.173777 84.72258 
L 219.278621 84.72258 
L 219.383466 54.907688 
L 219.48831 215.908106 
L 219.593155 212.330319 
L 219.907688 196.702545 
L 220.222222 169.697752 
L 220.536755 123.033469 
L 220.746444 74.297497 
L 220.851289 217.847087 
L 220.956133 214.657096 
L 221.270667 200.723216 
L 221.585201 176.645471 
L 221.899734 135.039127 
L 222.214268 63.143366 
L 222.319112 216.731674 
L 222.423957 213.3186 
L 222.73849 198.410295 
L 223.053024 172.648744 
L 223.367557 128.132784 
L 223.682091 81.64051 
L 224.416003 81.64051 
L 224.520847 218.581388 
L 224.625692 215.538258 
L 224.940225 202.245863 
L 225.254759 179.276605 
L 225.569292 139.585728 
L 225.883826 70.999891 
L 225.98867 217.517326 
L 226.093515 214.261383 
L 226.408048 200.039424 
L 226.722582 175.463879 
L 227.037115 132.997337 
L 227.456494 59.615152 
L 227.561338 216.378852 
L 227.666183 212.895215 
L 227.980716 197.678685 
L 228.29525 171.384521 
L 228.609783 125.948207 
L 228.924317 78.49472 
L 229.134006 78.49472 
L 229.23885 47.434255 
L 229.343695 215.160763 
L 229.448539 211.433507 
L 229.763073 195.152854 
L 230.077606 167.019886 
L 230.39214 118.406116 
L 230.601829 67.634109 
L 230.706674 217.180748 
L 230.811518 213.857489 
L 231.126052 199.341496 
L 231.440585 174.257859 
L 231.755119 130.913333 
L 232.069652 56.013994 
L 232.174497 216.018737 
L 232.279341 212.463076 
L 232.593875 196.931949 
L 232.908408 170.094161 
L 233.222942 123.718464 
L 233.432631 75.283891 
L 233.537476 217.945726 
L 233.64232 214.775463 
L 233.956854 200.927754 
L 234.271387 176.998913 
L 234.585921 135.649877 
L 234.900454 64.19874 
L 235.005299 216.837211 
L 235.110143 213.445245 
L 235.424677 198.629138 
L 235.73921 173.026904 
L 236.053744 128.786244 
L 236.263433 82.581493 
L 236.368278 218.675486 
L 236.473122 215.651175 
L 236.787656 202.440985 
L 237.102189 179.613776 
L 237.416723 140.168359 
L 237.731256 72.006679 
L 237.836101 217.618005 
L 237.940945 214.382198 
L 238.255479 200.248192 
L 238.570012 175.824629 
L 238.884546 133.620713 
L 239.19908 60.692347 
L 239.303924 216.486572 
L 239.408769 213.024478 
L 239.723302 197.902052 
L 240.037836 171.770499 
L 240.352369 126.615177 
L 240.666903 48.58678 
L 240.771747 215.276015 
L 240.876592 211.57181 
L 241.191125 195.391841 
L 241.505659 167.432856 
L 241.820193 119.119729 
L 242.029882 68.661712 
L 242.134726 217.283508 
L 242.239571 213.980802 
L 242.554104 199.554579 
L 242.868638 174.626067 
L 243.183171 131.549598 
L 243.497705 86.560723 
L 245.175217 86.560723 
L 245.280062 57.113459 
L 245.384906 216.128683 
L 245.489751 212.595011 
L 245.804284 197.159934 
L 246.118818 170.488119 
L 246.433351 124.399224 
L 246.64304 76.264184 
L 246.747885 218.043756 
L 246.852729 214.893098 
L 247.167263 201.131028 
L 247.481797 177.35017 
L 247.79633 136.256849 
L 248.110864 65.247588 
L 248.215708 216.942096 
L 248.320553 213.571107 
L 248.635086 198.846627 
L 248.94962 173.402725 
L 249.264153 129.435663 
L 249.578687 53.460579 
L 249.683531 215.763395 
L 249.788376 212.156666 
L 250.102909 196.402472 
L 250.417443 169.179226 
L 250.731977 122.137457 
L 250.941666 73.00724 
L 251.04651 217.718061 
L 251.151355 214.502265 
L 251.465888 200.455668 
L 251.780422 176.183148 
L 252.094955 134.240234 
L 252.409489 90.435239 
L 252.514333 90.435239 
L 252.619178 61.762879 
L 252.724022 216.593625 
L 252.828867 213.152942 
L 253.1434 198.124037 
L 253.457934 172.154091 
L 253.772468 127.278022 
L 253.982157 80.409654 
L 254.087001 218.458303 
L 254.191846 215.390555 
L 254.506379 201.990633 
L 254.820913 178.835567 
L 255.135446 138.823614 
L 255.44998 69.682959 
L 255.554824 217.385633 
L 255.659669 214.103351 
L 255.974202 199.766345 
L 256.288736 174.991998 
L 256.60327 132.181927 
L 256.917803 58.206124 
L 257.022648 216.23795 
L 257.127492 212.726131 
L 257.442026 197.386509 
L 257.756559 170.879641 
L 258.071093 125.075774 
L 258.490471 45.926691 
L 258.595315 215.010006 
L 258.70016 211.252599 
L 259.014694 194.840245 
L 259.329227 166.479698 
L 259.643761 117.472672 
L 259.85345 66.28995 
L 259.958294 217.046332 
L 260.063139 213.69619 
L 260.377672 199.062771 
L 260.692206 173.776222 
L 261.006739 130.081065 
L 261.321273 54.575835 
L 261.426117 215.874921 
L 261.530962 212.290496 
L 261.845496 196.633732 
L 262.160029 169.578843 
L 262.474563 122.827994 
L 262.684252 74.001613 
L 262.789096 217.817498 
L 262.893941 214.62159 
L 263.208474 200.661861 
L 263.523008 176.53945 
L 263.837541 134.855924 
L 264.152075 62.826791 
L 264.256919 216.700016 
L 264.361764 213.280611 
L 264.676298 198.34465 
L 264.990831 172.535309 
L 265.305365 127.936768 
L 265.724743 50.87049 
L 265.829587 215.504386 
L 265.934432 211.845855 
L 266.248965 195.865392 
L 266.563499 168.251151 
L 266.878032 120.533742 
L 267.192566 70.697891 
L 267.29741 70.697891 
L 267.402255 38.078061 
L 267.507099 214.225143 
L 267.611944 210.310764 
L 267.926478 193.212753 
L 268.241011 163.667392 
L 268.555545 112.613007 
L 268.765234 59.292032 
L 268.870078 216.34654 
L 268.974923 212.85644 
L 269.289456 197.611683 
L 269.60399 171.268741 
L 269.918523 125.748139 
L 270.128212 78.206622 
L 270.233057 218.237999 
L 270.337901 215.126191 
L 270.652435 201.533812 
L 270.966969 178.046181 
L 271.281502 137.459555 
L 271.596036 67.325865 
L 271.70088 217.149924 
L 271.805725 213.8205 
L 272.120258 199.277578 
L 272.434792 174.147409 
L 272.749325 130.722477 
L 273.063859 85.369668 
L 273.797771 85.369668 
L 273.902615 55.684193 
L 274.00746 215.985756 
L 274.112304 212.4235 
L 274.426838 196.863561 
L 274.741371 169.975988 
L 275.055905 123.51426 
L 275.265594 74.989837 
L 275.370438 217.916321 
L 275.475283 214.740177 
L 275.789816 200.866779 
L 276.10435 176.893549 
L 276.418884 135.467806 
L 276.733417 63.884123 
L 276.838262 216.805749 
L 276.943106 213.407491 
L 277.25764 198.563899 
L 277.572173 172.914171 
L 277.886707 128.591441 
L 278.20124 52.001764 
L 278.306085 215.617514 
L 278.410929 211.981608 
L 278.725463 196.099973 
L 279.039996 168.656506 
L 279.35453 121.234197 
L 279.564219 71.706546 
L 279.669064 217.587992 
L 279.773908 214.346182 
L 280.088442 200.185956 
L 280.402975 175.717086 
L 280.717509 133.434879 
L 281.032042 60.371224 
L 281.136887 216.45446 
L 281.241731 212.985943 
L 281.556265 197.835464 
L 281.870798 171.655436 
L 282.185332 126.416347 
L 282.499866 79.168841 
L 283.338622 79.168841 
L 283.443466 48.243201 
L 283.548311 215.241657 
L 283.653155 211.53058 
L 283.967689 195.320597 
L 284.282222 167.309745 
L 284.596756 118.906994 
L 284.806445 68.355373 
L 284.91129 217.252874 
L 285.016134 213.944041 
L 285.330668 199.491057 
L 285.645201 174.5163 
L 285.959735 131.359921 
L 286.274268 56.785698 
L 286.379113 216.095907 
L 286.483957 212.55568 
L 286.798491 197.091969 
L 287.113024 170.370676 
L 287.427558 124.196283 
L 287.742092 75.971949 
L 288.266314 75.971949 
L 288.371159 218.014532 
L 288.476003 214.85803 
L 288.790537 201.07043 
L 289.10507 177.245457 
L 289.419604 136.075904 
L 289.734137 64.934916 
L 289.838982 216.910829 
L 289.943826 213.533586 
L 290.25836 198.781791 
L 290.572894 173.290689 
L 290.887427 129.242064 
L 291.097116 83.237875 
L 291.201961 218.741125 
L 291.306805 215.729941 
L 291.621339 202.577092 
L 291.935872 179.84897 
L 292.250406 140.574774 
L 292.564939 72.708963 
L 292.669784 217.688233 
L 292.774628 214.466472 
L 293.089162 200.393817 
L 293.403695 176.07627 
L 293.718229 134.055549 
L 294.032763 61.443743 
L 294.137607 216.561711 
L 294.242452 213.114645 
L 294.556985 198.057861 
L 294.871519 172.039738 
L 295.186052 127.080422 
L 295.500586 80.125109 
L 295.60543 80.125109 
L 295.710275 49.390723 
L 295.815119 215.356409 
L 295.919964 211.668283 
L 296.234497 195.558547 
L 296.549031 167.720923 
L 296.863565 119.617509 
L 297.073254 69.378515 
L 297.178098 217.355189 
L 297.282943 214.066818 
L 297.597476 199.703216 
L 297.91201 174.882911 
L 298.226543 131.993424 
L 298.541077 57.88039 
L 298.645921 216.205376 
L 298.750766 212.687043 
L 299.065299 197.318964 
L 299.379833 170.762925 
L 299.694367 124.874087 
L 299.904056 76.947988 
L 300.0089 218.112136 
L 300.113745 214.975155 
L 300.428278 201.272822 
L 300.742812 177.59519 
L 301.057345 136.680242 
L 301.371879 65.979211 
L 301.476723 217.015258 
L 301.581568 213.658902 
L 301.896101 198.998336 
L 302.210635 173.664879 
L 302.525169 129.888664 
L 302.839702 54.243366 
L 302.944547 215.841674 
L 303.049391 212.2506 
L 303.363925 196.564791 
L 303.678458 169.459713 
L 303.992992 122.622138 
L 304.202681 73.705181 
L 304.307525 217.787855 
L 304.41237 214.586018 
L 304.726903 200.600393 
L 305.041437 176.433233 
L 305.355971 134.672381 
L 305.670504 62.509628 
L 305.775349 216.6683 
L 305.880193 213.242552 
L 306.194727 198.278883 
L 306.50926 172.421664 
L 306.823794 127.74039 
L 307.138327 81.075463 
L 307.452861 81.075463 
L 307.557705 50.531148 
L 307.66255 215.470452 
L 307.767394 211.805134 
L 308.081928 195.795026 
L 308.396462 168.129558 
L 308.710995 120.32363 
L 308.920684 70.39533 
L 309.025529 217.45687 
L 309.130373 214.188836 
L 309.444907 199.914062 
L 309.75944 175.247254 
L 310.073974 132.623008 
L 310.388507 58.968312 
L 310.493352 216.314168 
L 310.598196 212.817594 
L 310.91273 197.544556 
L 311.227264 171.152747 
L 311.541797 125.5477 
L 311.856331 46.74218 
L 311.961175 215.091555 
L 312.06602 211.350458 
L 312.380553 195.009345 
L 312.695087 166.771903 
L 313.00962 117.977602 
L 313.324154 67.017048 
L 313.428998 67.017048 
L 313.533843 33.66105 
L 313.638688 213.783442 
L 313.743532 209.780722 
L 314.058066 192.296842 
L 314.372599 162.084697 
L 314.687133 109.87811 
L 314.896822 55.353781 
L 315.001666 215.952715 
L 315.106511 212.38385 
L 315.421044 196.795047 
L 315.735578 169.857595 
L 316.050111 123.309678 
L 316.2598 74.695238 
L 316.364645 217.886861 
L 316.469489 214.704825 
L 316.784023 200.805691 
L 317.098557 176.787989 
L 317.41309 135.285398 
L 317.727624 63.568922 
L 317.832468 216.774229 
L 317.937313 213.369667 
L 318.251846 198.498538 
L 318.56638 172.801228 
L 318.880913 128.396277 
L 319.090602 82.01994 
L 319.195447 218.619331 
L 319.300291 215.583789 
L 319.614825 202.324542 
L 319.929359 179.412562 
L 320.243892 139.820661 
L 320.558426 71.405856 
L 320.66327 217.557923 
L 320.768115 214.310099 
L 321.082648 200.123605 
L 321.397182 175.609343 
L 321.711715 133.248699 
L 322.026249 60.049507 
L 322.131093 216.422288 
L 322.235938 212.947337 
L 322.550472 197.768752 
L 322.865005 171.540158 
L 323.179539 126.217147 
L 323.494072 78.881994 
L 323.598917 78.881994 
L 323.703761 47.898985 
L 323.808606 215.207236 
L 323.91345 211.489274 
L 324.227984 195.24922 
L 324.542517 167.186407 
L 324.857051 118.693864 
L 325.06674 68.048467 
L 325.171585 217.222184 
L 325.276429 213.907212 
L 325.590963 199.427417 
L 325.905496 174.40633 
L 326.22003 131.169893 
L 326.534563 56.457328 
L 326.639408 216.06307 
L 326.744252 212.516276 
L 327.058786 197.023878 
L 327.373319 170.253016 
L 327.687853 123.992965 
L 327.897542 75.679172 
L 328.002387 217.985254 
L 328.107231 214.822897 
L 328.421765 201.00972 
L 328.736298 177.14055 
L 329.050832 135.894624 
L 329.365365 64.621665 
L 329.47021 216.879504 
L 329.575054 213.495996 
L 329.889588 198.716835 
L 330.204121 173.178445 
L 330.518655 129.048107 
L 330.833188 52.790883 
L 330.938033 215.696425 
L 331.042878 212.076302 
L 331.357411 196.263604 
L 331.671945 168.939262 
L 331.986478 121.722799 
L 332.301012 72.410133 
L 332.405856 72.410133 
L 332.510701 40.132751 
L 332.615545 214.430612 
L 332.72039 210.557326 
L 333.034923 193.638814 
L 333.349457 164.403625 
L 333.66399 113.885217 
L 333.87368 61.124015 
L 333.978524 216.529739 
L 334.083369 213.076278 
L 334.397902 197.991562 
L 334.712436 171.925174 
L 335.026969 126.882454 
L 335.341503 49.048635 
L 335.446347 215.322201 
L 335.551192 211.627233 
L 335.865725 195.487612 
L 336.180259 167.598347 
L 336.494792 119.405698 
L 336.704482 69.073507 
L 336.809326 217.324688 
L 336.914171 214.030217 
L 337.228704 199.639969 
L 337.543238 174.773621 
L 337.857771 131.80457 
L 338.172305 57.554051 
L 338.277149 216.172742 
L 338.381994 212.647882 
L 338.696527 197.251295 
L 339.011061 170.645992 
L 339.325594 124.672027 
L 339.535284 76.657021 
L 339.640128 218.083039 
L 339.744973 214.940239 
L 340.059506 201.212487 
L 340.37404 177.490931 
L 340.688573 136.500083 
L 341.003107 65.667897 
L 341.107951 216.984127 
L 341.212796 213.621544 
L 341.527329 198.933782 
L 341.841863 173.553329 
L 342.156396 129.695907 
L 342.47093 53.910281 
L 342.575775 215.808365 
L 342.680619 212.21063 
L 342.995153 196.495723 
L 343.309686 169.340363 
L 343.62422 122.4159 
L 343.938753 73.408198 
L 344.56782 73.408198 
L 344.672665 217.758157 
L 344.777509 214.55038 
L 345.092043 200.538811 
L 345.406577 176.326819 
L 345.72111 134.488497 
L 346.035644 62.191877 
L 346.140488 216.636525 
L 346.245333 213.204422 
L 346.559866 198.212994 
L 346.8744 172.307808 
L 347.188933 127.543647 
L 347.398622 80.792153 
L 347.503467 218.496552 
L 347.608311 215.436455 
L 347.922845 202.069948 
L 348.237379 178.972624 
L 348.551912 139.060447 
L 348.866446 70.092207 
L 348.97129 217.426558 
L 349.076135 214.152461 
L 349.390668 199.851207 
L 349.705202 175.138639 
L 350.019735 132.435323 
L 350.334269 58.643992 
L 350.439113 216.281736 
L 350.543958 212.778675 
L 350.858491 197.477305 
L 351.173025 171.036537 
L 351.487559 125.34689 
L 351.697248 77.628823 
L 351.802092 218.180219 
L 351.906937 215.056855 
L 352.22147 201.414 
L 352.536004 177.839145 
L 352.850537 137.101797 
L 353.165071 66.707659 
L 353.269915 217.088103 
L 353.37476 213.746315 
L 353.689293 199.149387 
L 354.003827 173.925895 
L 354.318361 130.3397 
L 354.632894 55.022755 
L 354.737739 215.919613 
L 354.842583 212.344127 
L 355.157117 196.726405 
L 355.47165 169.738982 
L 355.786184 123.104715 
L 356.100717 74.400092 
L 356.205562 74.400092 
L 356.310406 42.520702 
L 356.415251 214.669407 
L 356.520095 210.843881 
L 356.834629 194.13398 
L 357.149163 165.259271 
L 357.149163 165.259271 
" clip-path="url(#p3cbfee7b7f)" style="fill: none; stroke: #1f77b4; stroke-width: 1.5; stroke-linecap: square"/>
   </g>
   <g id="patch_3">
    <path d="M 37.567344 228.96 
L 37.567344 7.2 
" style="fill: none; stroke: #000000; stroke-width: 0.8; stroke-linejoin: miter; stroke-linecap: square"/>
   </g>
   <g id="patch_4">
    <path d="M 372.367344 228.96 
L 372.367344 7.2 
" style="fill: none; stroke: #000000; stroke-width: 0.8; stroke-linejoin: miter; stroke-linecap: square"/>
   </g>
   <g id="patch_5">
    <path d="M 37.567344 228.96 
L 372.367344 228.96 
" style="fill: none; stroke: #000000; stroke-width: 0.8; stroke-linejoin: miter; stroke-linecap: square"/>
   </g>
   <g id="patch_6">
    <path d="M 37.567344 7.2 
L 372.367344 7.2 
" style="fill: none; stroke: #000000; stroke-width: 0.8; stroke-linejoin: miter; stroke-linecap: square"/>
   </g>
   <g id="legend_1">
    <g id="patch_7">
     <path d="M 314.548024 29.420307 
L 365.367344 29.420307 
Q 367.367344 29.420307 367.367344 27.420307 
L 367.367344 14.2 
Q 367.367344 12.2 365.367344 12.2 
L 314.548024 12.2 
Q 312.548024 12.2 312.548024 14.2 
L 312.548024 27.420307 
Q 312.548024 29.420307 314.548024 29.420307 
z
" style="fill: #ffffff; opacity: 0.8; stroke: #cccccc; stroke-linejoin: miter"/>
    </g>
    <g id="line2d_14">
     <path d="M 316.548024 19.79832 
L 326.548024 19.79832 
L 336.548024 19.79832 
" style="fill: none; stroke: #1f77b4; stroke-width: 1.5; stroke-linecap: square"/>
    </g>
    <g id="text_15">
     <!-- CFL -->
     <g transform="translate(344.548024 23.29832) scale(0.1 -0.1)">
      <use xlink:href="#NimbusSanL-Regu-43" transform="scale(0.996264)"/>
      <use xlink:href="#NimbusSanL-Regu-46" transform="translate(71.929985 0) scale(0.996264)"/>
      <use xlink:href="#NimbusSanL-Regu-4c" transform="translate(132.801616 0) scale(0.996264)"/>
     </g>
    </g>
   </g>
  </g>
 </g>
 <defs>
  <clipPath id="p3cbfee7b7f">
   <rect x="37.567344" y="7.2" width="334.8" height="221.76"/>
  </clipPath>
 </defs>
</svg>
