<?xml version="1.0" encoding="utf-8" standalone="no"?>
<!DOCTYPE svg PUBLIC "-//W3C//DTD SVG 1.1//EN"
  "http://www.w3.org/Graphics/SVG/1.1/DTD/svg11.dtd">
<svg xmlns:xlink="http://www.w3.org/1999/xlink" width="374.586009pt" height="265.600613pt" viewBox="0 0 374.586009 265.600613" xmlns="http://www.w3.org/2000/svg" version="1.1">
 <metadata>
  <rdf:RDF xmlns:dc="http://purl.org/dc/elements/1.1/" xmlns:cc="http://creativecommons.org/ns#" xmlns:rdf="http://www.w3.org/1999/02/22-rdf-syntax-ns#">
   <cc:Work>
    <dc:type rdf:resource="http://purl.org/dc/dcmitype/StillImage"/>
    <dc:date>2025-08-02T13:42:03.506393</dc:date>
    <dc:format>image/svg+xml</dc:format>
    <dc:creator>
     <cc:Agent>
      <dc:title>Matplotlib v3.10.3, https://matplotlib.org/</dc:title>
     </cc:Agent>
    </dc:creator>
   </cc:Work>
  </rdf:RDF>
 </metadata>
 <defs>
  <style type="text/css">*{stroke-linejoin: round; stroke-linecap: butt}</style>
 </defs>
 <g id="figure_1">
  <g id="patch_1">
   <path d="M 0 265.600613 
L 374.586009 265.600613 
L 374.586009 0 
L 0 0 
z
" style="fill: #ffffff"/>
  </g>
  <g id="axes_1">
   <g id="patch_2">
    <path d="M 32.586009 228.96 
L 367.386009 228.96 
L 367.386009 7.2 
L 32.586009 7.2 
z
" style="fill: #ffffff"/>
   </g>
   <g id="matplotlib.axis_1">
    <g id="xtick_1">
     <g id="line2d_1">
      <defs>
       <path id="m6b3df60a39" d="M 0 0 
L 0 3.5 
" style="stroke: #000000; stroke-width: 0.8"/>
      </defs>
      <g>
       <use xlink:href="#m6b3df60a39" x="47.804191" y="228.96" style="stroke: #000000; stroke-width: 0.8"/>
      </g>
     </g>
     <g id="text_1">
      <!-- $\mathdefault{0}$ -->
      <g transform="translate(45.313523 243.05832) scale(0.1 -0.1)">
       <defs>
        <path id="CMR17-30" d="M 2688 2038 
C 2688 2430 2682 3099 2413 3613 
C 2176 4063 1798 4224 1466 4224 
C 1158 4224 768 4082 525 3620 
C 269 3137 243 2539 243 2038 
C 243 1671 250 1112 448 623 
C 723 -39 1216 -128 1466 -128 
C 1760 -128 2208 -7 2470 604 
C 2662 1048 2688 1568 2688 2038 
z
M 1466 -26 
C 1056 -26 813 328 723 816 
C 653 1196 653 1749 653 2109 
C 653 2604 653 3015 736 3407 
C 858 3954 1216 4121 1466 4121 
C 1728 4121 2067 3947 2189 3420 
C 2272 3054 2278 2623 2278 2109 
C 2278 1691 2278 1176 2202 797 
C 2067 96 1690 -26 1466 -26 
z
" transform="scale(0.015625)"/>
       </defs>
       <use xlink:href="#CMR17-30" transform="scale(0.996264)"/>
      </g>
     </g>
    </g>
    <g id="xtick_2">
     <g id="line2d_2">
      <g>
       <use xlink:href="#m6b3df60a39" x="96.362525" y="228.96" style="stroke: #000000; stroke-width: 0.8"/>
      </g>
     </g>
     <g id="text_2">
      <!-- $\mathdefault{500}$ -->
      <g transform="translate(88.890522 243.05832) scale(0.1 -0.1)">
       <defs>
        <path id="CMR17-35" d="M 730 3750 
C 794 3724 1056 3641 1325 3641 
C 1920 3641 2246 3961 2432 4140 
C 2432 4191 2432 4224 2394 4224 
C 2387 4224 2374 4224 2323 4198 
C 2099 4102 1837 4032 1517 4032 
C 1325 4032 1037 4055 723 4191 
C 653 4224 640 4224 634 4224 
C 602 4224 595 4217 595 4090 
L 595 2231 
C 595 2113 595 2080 659 2080 
C 691 2080 704 2093 736 2139 
C 941 2435 1222 2560 1542 2560 
C 1766 2560 2246 2415 2246 1293 
C 2246 1087 2246 716 2054 422 
C 1894 159 1645 25 1370 25 
C 947 25 518 319 403 812 
C 429 806 480 793 506 793 
C 589 793 749 838 749 1036 
C 749 1209 627 1280 506 1280 
C 358 1280 262 1190 262 1011 
C 262 454 704 -128 1382 -128 
C 2042 -128 2669 441 2669 1267 
C 2669 2054 2170 2662 1549 2662 
C 1222 2662 947 2540 730 2304 
L 730 3750 
z
" transform="scale(0.015625)"/>
       </defs>
       <use xlink:href="#CMR17-35" transform="scale(0.996264)"/>
       <use xlink:href="#CMR17-30" transform="translate(45.690477 0) scale(0.996264)"/>
       <use xlink:href="#CMR17-30" transform="translate(91.380954 0) scale(0.996264)"/>
      </g>
     </g>
    </g>
    <g id="xtick_3">
     <g id="line2d_3">
      <g>
       <use xlink:href="#m6b3df60a39" x="144.920859" y="228.96" style="stroke: #000000; stroke-width: 0.8"/>
      </g>
     </g>
     <g id="text_3">
      <!-- $\mathdefault{1000}$ -->
      <g transform="translate(134.958188 243.05832) scale(0.1 -0.1)">
       <defs>
        <path id="CMR17-31" d="M 1702 4083 
C 1702 4217 1696 4224 1606 4224 
C 1357 3927 979 3833 621 3820 
C 602 3820 570 3820 563 3808 
C 557 3795 557 3782 557 3648 
C 755 3648 1088 3686 1344 3839 
L 1344 467 
C 1344 243 1331 166 781 166 
L 589 166 
L 589 0 
C 896 6 1216 12 1523 12 
C 1830 12 2150 6 2458 0 
L 2458 166 
L 2266 166 
C 1715 166 1702 236 1702 467 
L 1702 4083 
z
" transform="scale(0.015625)"/>
       </defs>
       <use xlink:href="#CMR17-31" transform="scale(0.996264)"/>
       <use xlink:href="#CMR17-30" transform="translate(45.690477 0) scale(0.996264)"/>
       <use xlink:href="#CMR17-30" transform="translate(91.380954 0) scale(0.996264)"/>
       <use xlink:href="#CMR17-30" transform="translate(137.071431 0) scale(0.996264)"/>
      </g>
     </g>
    </g>
    <g id="xtick_4">
     <g id="line2d_4">
      <g>
       <use xlink:href="#m6b3df60a39" x="193.479192" y="228.96" style="stroke: #000000; stroke-width: 0.8"/>
      </g>
     </g>
     <g id="text_4">
      <!-- $\mathdefault{1500}$ -->
      <g transform="translate(183.516522 243.05832) scale(0.1 -0.1)">
       <use xlink:href="#CMR17-31" transform="scale(0.996264)"/>
       <use xlink:href="#CMR17-35" transform="translate(45.690477 0) scale(0.996264)"/>
       <use xlink:href="#CMR17-30" transform="translate(91.380954 0) scale(0.996264)"/>
       <use xlink:href="#CMR17-30" transform="translate(137.071431 0) scale(0.996264)"/>
      </g>
     </g>
    </g>
    <g id="xtick_5">
     <g id="line2d_5">
      <g>
       <use xlink:href="#m6b3df60a39" x="242.037526" y="228.96" style="stroke: #000000; stroke-width: 0.8"/>
      </g>
     </g>
     <g id="text_5">
      <!-- $\mathdefault{2000}$ -->
      <g transform="translate(232.074856 243.05832) scale(0.1 -0.1)">
       <defs>
        <path id="CMR17-32" d="M 2669 990 
L 2554 990 
C 2490 537 2438 460 2413 422 
C 2381 371 1920 371 1830 371 
L 602 371 
C 832 620 1280 1073 1824 1596 
C 2214 1966 2669 2400 2669 3033 
C 2669 3788 2067 4224 1395 4224 
C 691 4224 262 3603 262 3027 
C 262 2777 448 2745 525 2745 
C 589 2745 781 2783 781 3007 
C 781 3206 614 3264 525 3264 
C 486 3264 448 3257 422 3244 
C 544 3788 915 4057 1306 4057 
C 1862 4057 2227 3616 2227 3033 
C 2227 2477 1901 1998 1536 1583 
L 262 147 
L 262 0 
L 2515 0 
L 2669 990 
z
" transform="scale(0.015625)"/>
       </defs>
       <use xlink:href="#CMR17-32" transform="scale(0.996264)"/>
       <use xlink:href="#CMR17-30" transform="translate(45.690477 0) scale(0.996264)"/>
       <use xlink:href="#CMR17-30" transform="translate(91.380954 0) scale(0.996264)"/>
       <use xlink:href="#CMR17-30" transform="translate(137.071431 0) scale(0.996264)"/>
      </g>
     </g>
    </g>
    <g id="xtick_6">
     <g id="line2d_6">
      <g>
       <use xlink:href="#m6b3df60a39" x="290.59586" y="228.96" style="stroke: #000000; stroke-width: 0.8"/>
      </g>
     </g>
     <g id="text_6">
      <!-- $\mathdefault{2500}$ -->
      <g transform="translate(280.63319 243.05832) scale(0.1 -0.1)">
       <use xlink:href="#CMR17-32" transform="scale(0.996264)"/>
       <use xlink:href="#CMR17-35" transform="translate(45.690477 0) scale(0.996264)"/>
       <use xlink:href="#CMR17-30" transform="translate(91.380954 0) scale(0.996264)"/>
       <use xlink:href="#CMR17-30" transform="translate(137.071431 0) scale(0.996264)"/>
      </g>
     </g>
    </g>
    <g id="xtick_7">
     <g id="line2d_7">
      <g>
       <use xlink:href="#m6b3df60a39" x="339.154194" y="228.96" style="stroke: #000000; stroke-width: 0.8"/>
      </g>
     </g>
     <g id="text_7">
      <!-- $\mathdefault{3000}$ -->
      <g transform="translate(329.191523 243.05832) scale(0.1 -0.1)">
       <defs>
        <path id="CMR17-33" d="M 1414 2176 
C 1984 2176 2234 1673 2234 1094 
C 2234 322 1824 25 1453 25 
C 1114 25 563 193 390 691 
C 422 678 454 678 486 678 
C 640 678 755 780 755 947 
C 755 1132 614 1216 486 1216 
C 378 1216 211 1164 211 927 
C 211 335 787 -128 1466 -128 
C 2176 -128 2720 432 2720 1087 
C 2720 1718 2208 2176 1600 2246 
C 2086 2347 2554 2776 2554 3353 
C 2554 3856 2048 4224 1472 4224 
C 890 4224 378 3862 378 3347 
C 378 3123 544 3084 627 3084 
C 762 3084 877 3167 877 3334 
C 877 3500 762 3584 627 3584 
C 602 3584 570 3584 544 3571 
C 730 3999 1235 4076 1459 4076 
C 1683 4076 2106 3966 2106 3347 
C 2106 3167 2080 2851 1862 2574 
C 1670 2329 1453 2316 1242 2297 
C 1210 2297 1062 2284 1037 2284 
C 992 2278 966 2272 966 2227 
C 966 2182 973 2176 1101 2176 
L 1414 2176 
z
" transform="scale(0.015625)"/>
       </defs>
       <use xlink:href="#CMR17-33" transform="scale(0.996264)"/>
       <use xlink:href="#CMR17-30" transform="translate(45.690477 0) scale(0.996264)"/>
       <use xlink:href="#CMR17-30" transform="translate(91.380954 0) scale(0.996264)"/>
       <use xlink:href="#CMR17-30" transform="translate(137.071431 0) scale(0.996264)"/>
      </g>
     </g>
    </g>
    <g id="text_8">
     <!-- Iteration -->
     <g transform="translate(182.038633 256.278627) scale(0.1 -0.1)">
      <defs>
       <path id="NimbusSanL-Regu-49" d="M 1242 4672 
L 640 4672 
L 640 0 
L 1242 0 
L 1242 4672 
z
" transform="scale(0.015625)"/>
       <path id="NimbusSanL-Regu-74" d="M 1626 3328 
L 1075 3328 
L 1075 4249 
L 544 4249 
L 544 3328 
L 90 3328 
L 90 2892 
L 544 2892 
L 544 402 
C 544 64 774 -128 1190 -128 
C 1318 -128 1446 -116 1626 -84 
L 1626 364 
C 1555 345 1472 339 1370 339 
C 1139 339 1075 402 1075 634 
L 1075 2892 
L 1626 2892 
L 1626 3328 
z
" transform="scale(0.015625)"/>
       <path id="NimbusSanL-Regu-65" d="M 3283 1484 
C 3283 1998 3245 2311 3149 2565 
C 2931 3123 2419 3456 1792 3456 
C 858 3456 256 2734 256 1619 
C 256 545 838 -128 1779 -128 
C 2547 -128 3078 307 3213 1018 
L 2675 1018 
C 2528 588 2227 364 1798 364 
C 1459 364 1171 514 992 787 
C 864 974 819 1161 813 1484 
L 3283 1484 
z
M 826 1920 
C 870 2552 1248 2963 1786 2963 
C 2310 2963 2714 2519 2714 1959 
C 2714 1946 2714 1933 2707 1920 
L 826 1920 
z
" transform="scale(0.015625)"/>
       <path id="NimbusSanL-Regu-72" d="M 442 3328 
L 442 0 
L 979 0 
L 979 1727 
C 979 2203 1101 2514 1357 2698 
C 1523 2819 1683 2857 2054 2863 
L 2054 3404 
C 1965 3449 1920 3456 1850 3456 
C 1504 3456 1242 3251 934 2750 
L 934 3328 
L 442 3328 
z
" transform="scale(0.015625)"/>
       <path id="NimbusSanL-Regu-61" d="M 3424 332 
C 3366 320 3341 320 3309 320 
C 3123 320 3021 415 3021 581 
L 3021 2542 
C 3021 3135 2586 3456 1760 3456 
C 1274 3456 870 3315 646 3065 
C 493 2893 429 2702 416 2370 
L 954 2370 
C 998 2778 1242 2963 1741 2963 
C 2221 2963 2490 2784 2490 2466 
L 2490 2326 
C 2490 2103 2355 2007 1933 1956 
C 1178 1861 1062 1835 858 1753 
C 467 1593 269 1294 269 861 
C 269 256 691 -128 1370 -128 
C 1792 -128 2131 19 2509 364 
C 2547 25 2714 -128 3059 -128 
C 3168 -128 3251 -116 3424 -71 
L 3424 332 
z
M 2490 1071 
C 2490 893 2438 785 2278 638 
C 2061 441 1798 339 1485 339 
C 1069 339 826 536 826 874 
C 826 1224 1062 1402 1632 1485 
C 2195 1562 2310 1587 2490 1670 
L 2490 1071 
z
" transform="scale(0.015625)"/>
       <path id="NimbusSanL-Regu-69" d="M 960 3358 
L 429 3358 
L 429 0 
L 960 0 
L 960 3358 
z
M 960 4672 
L 422 4672 
L 422 3999 
L 960 3999 
L 960 4672 
z
" transform="scale(0.015625)"/>
       <path id="NimbusSanL-Regu-6f" d="M 1741 3456 
C 800 3456 230 2784 230 1663 
C 230 543 794 -128 1747 -128 
C 2688 -128 3264 543 3264 1638 
C 3264 2791 2707 3456 1741 3456 
z
M 1747 2963 
C 2349 2963 2707 2472 2707 1644 
C 2707 861 2336 364 1747 364 
C 1152 364 787 855 787 1663 
C 787 2466 1152 2963 1747 2963 
z
" transform="scale(0.015625)"/>
       <path id="NimbusSanL-Regu-6e" d="M 448 3328 
L 448 0 
L 986 0 
L 986 1835 
C 986 2539 1344 2988 1894 2988 
C 2317 2988 2586 2732 2586 2328 
L 2586 0 
L 3117 0 
L 3117 2539 
C 3117 3097 2701 3456 2054 3456 
C 1555 3456 1235 3263 941 2796 
L 941 3328 
L 448 3328 
z
" transform="scale(0.015625)"/>
      </defs>
      <use xlink:href="#NimbusSanL-Regu-49" transform="scale(0.996264)"/>
      <use xlink:href="#NimbusSanL-Regu-74" transform="translate(27.69517 0) scale(0.996264)"/>
      <use xlink:href="#NimbusSanL-Regu-65" transform="translate(55.390339 0) scale(0.996264)"/>
      <use xlink:href="#NimbusSanL-Regu-72" transform="translate(110.782016 0) scale(0.996264)"/>
      <use xlink:href="#NimbusSanL-Regu-61" transform="translate(142.961149 0) scale(0.996264)"/>
      <use xlink:href="#NimbusSanL-Regu-74" transform="translate(198.352826 0) scale(0.996264)"/>
      <use xlink:href="#NimbusSanL-Regu-69" transform="translate(226.047996 0) scale(0.996264)"/>
      <use xlink:href="#NimbusSanL-Regu-6f" transform="translate(248.16478 0) scale(0.996264)"/>
      <use xlink:href="#NimbusSanL-Regu-6e" transform="translate(303.556457 0) scale(0.996264)"/>
     </g>
    </g>
   </g>
   <g id="matplotlib.axis_2">
    <g id="ytick_1">
     <g id="line2d_8">
      <defs>
       <path id="m5265cf8f6c" d="M 0 0 
L -3.5 0 
" style="stroke: #000000; stroke-width: 0.8"/>
      </defs>
      <g>
       <use xlink:href="#m5265cf8f6c" x="32.586009" y="202.596736" style="stroke: #000000; stroke-width: 0.8"/>
      </g>
     </g>
     <g id="text_9">
      <!-- $\mathdefault{0}$ -->
      <g transform="translate(20.604674 206.145896) scale(0.1 -0.1)">
       <use xlink:href="#CMR17-30" transform="scale(0.996264)"/>
      </g>
     </g>
    </g>
    <g id="ytick_2">
     <g id="line2d_9">
      <g>
       <use xlink:href="#m5265cf8f6c" x="32.586009" y="170.996266" style="stroke: #000000; stroke-width: 0.8"/>
      </g>
     </g>
     <g id="text_10">
      <!-- $\mathdefault{1}$ -->
      <g transform="translate(20.604674 174.545426) scale(0.1 -0.1)">
       <use xlink:href="#CMR17-31" transform="scale(0.996264)"/>
      </g>
     </g>
    </g>
    <g id="ytick_3">
     <g id="line2d_10">
      <g>
       <use xlink:href="#m5265cf8f6c" x="32.586009" y="139.395795" style="stroke: #000000; stroke-width: 0.8"/>
      </g>
     </g>
     <g id="text_11">
      <!-- $\mathdefault{2}$ -->
      <g transform="translate(20.604674 142.944955) scale(0.1 -0.1)">
       <use xlink:href="#CMR17-32" transform="scale(0.996264)"/>
      </g>
     </g>
    </g>
    <g id="ytick_4">
     <g id="line2d_11">
      <g>
       <use xlink:href="#m5265cf8f6c" x="32.586009" y="107.795325" style="stroke: #000000; stroke-width: 0.8"/>
      </g>
     </g>
     <g id="text_12">
      <!-- $\mathdefault{3}$ -->
      <g transform="translate(20.604674 111.344485) scale(0.1 -0.1)">
       <use xlink:href="#CMR17-33" transform="scale(0.996264)"/>
      </g>
     </g>
    </g>
    <g id="ytick_5">
     <g id="line2d_12">
      <g>
       <use xlink:href="#m5265cf8f6c" x="32.586009" y="76.194854" style="stroke: #000000; stroke-width: 0.8"/>
      </g>
     </g>
     <g id="text_13">
      <!-- $\mathdefault{4}$ -->
      <g transform="translate(20.604674 79.744014) scale(0.1 -0.1)">
       <defs>
        <path id="CMR17-34" d="M 2150 4147 
C 2150 4281 2144 4288 2029 4288 
L 128 1254 
L 128 1088 
L 1779 1088 
L 1779 460 
C 1779 230 1766 166 1318 166 
L 1197 166 
L 1197 0 
C 1402 12 1747 12 1965 12 
C 2182 12 2528 12 2733 0 
L 2733 166 
L 2611 166 
C 2163 166 2150 230 2150 460 
L 2150 1088 
L 2803 1088 
L 2803 1254 
L 2150 1254 
L 2150 4147 
z
M 1798 3723 
L 1798 1254 
L 256 1254 
L 1798 3723 
z
" transform="scale(0.015625)"/>
       </defs>
       <use xlink:href="#CMR17-34" transform="scale(0.996264)"/>
      </g>
     </g>
    </g>
    <g id="ytick_6">
     <g id="line2d_13">
      <g>
       <use xlink:href="#m5265cf8f6c" x="32.586009" y="44.594384" style="stroke: #000000; stroke-width: 0.8"/>
      </g>
     </g>
     <g id="text_14">
      <!-- $\mathdefault{5}$ -->
      <g transform="translate(20.604674 48.143544) scale(0.1 -0.1)">
       <use xlink:href="#CMR17-35" transform="scale(0.996264)"/>
      </g>
     </g>
    </g>
    <g id="ytick_7">
     <g id="line2d_14">
      <g>
       <use xlink:href="#m5265cf8f6c" x="32.586009" y="12.993913" style="stroke: #000000; stroke-width: 0.8"/>
      </g>
     </g>
     <g id="text_15">
      <!-- $\mathdefault{6}$ -->
      <g transform="translate(20.604674 16.543073) scale(0.1 -0.1)">
       <defs>
        <path id="CMR17-36" d="M 678 2198 
C 678 3712 1395 4076 1811 4076 
C 1946 4076 2272 4049 2400 3782 
C 2298 3782 2106 3782 2106 3558 
C 2106 3385 2246 3328 2336 3328 
C 2394 3328 2566 3353 2566 3571 
C 2566 3987 2246 4224 1805 4224 
C 1043 4224 243 3411 243 2011 
C 243 257 966 -128 1478 -128 
C 2099 -128 2688 431 2688 1295 
C 2688 2101 2170 2688 1517 2688 
C 1126 2688 838 2430 678 1979 
L 678 2198 
z
M 1478 25 
C 691 25 691 1212 691 1450 
C 691 1914 909 2585 1504 2585 
C 1613 2585 1926 2585 2138 2140 
C 2253 1889 2253 1624 2253 1302 
C 2253 954 2253 696 2118 438 
C 1978 173 1773 25 1478 25 
z
" transform="scale(0.015625)"/>
       </defs>
       <use xlink:href="#CMR17-36" transform="scale(0.996264)"/>
      </g>
     </g>
    </g>
    <g id="text_16">
     <!-- Aerodynamic Coefficients - Blade_0 -->
     <g transform="translate(14.482687 196.280864) rotate(-90) scale(0.1 -0.1)">
      <defs>
       <path id="NimbusSanL-Regu-41" d="M 3034 1408 
L 3514 0 
L 4179 0 
L 2541 4672 
L 1773 4672 
L 109 0 
L 742 0 
L 1235 1408 
L 3034 1408 
z
M 2867 1907 
L 1382 1907 
L 2150 4032 
L 2867 1907 
z
" transform="scale(0.015625)"/>
       <path id="NimbusSanL-Regu-64" d="M 3168 4672 
L 2637 4672 
L 2637 2937 
C 2413 3276 2054 3456 1606 3456 
C 736 3456 166 2759 166 1695 
C 166 568 723 -128 1626 -128 
C 2086 -128 2406 44 2694 460 
L 2694 19 
L 3168 19 
L 3168 4672 
z
M 1696 2956 
C 2272 2956 2637 2447 2637 1651 
C 2637 880 2266 371 1702 371 
C 1114 371 723 887 723 1663 
C 723 2440 1114 2956 1696 2956 
z
" transform="scale(0.015625)"/>
       <path id="NimbusSanL-Regu-79" d="M 2483 3328 
L 1555 724 
L 698 3328 
L 128 3328 
L 1261 -29 
L 1056 -558 
C 973 -794 851 -884 627 -884 
C 550 -884 461 -871 346 -845 
L 346 -1325 
C 454 -1383 563 -1408 704 -1408 
C 877 -1408 1062 -1351 1203 -1248 
C 1370 -1127 1466 -986 1568 -718 
L 3059 3328 
L 2483 3328 
z
" transform="scale(0.015625)"/>
       <path id="NimbusSanL-Regu-6d" d="M 448 3328 
L 448 0 
L 986 0 
L 986 2089 
C 986 2597 1338 2988 1773 2988 
C 2170 2988 2394 2744 2394 2315 
L 2394 0 
L 2931 0 
L 2931 2109 
C 2931 2597 3283 2988 3718 2988 
C 4109 2988 4339 2738 4339 2315 
L 4339 0 
L 4877 0 
L 4877 2520 
C 4877 3123 4531 3456 3904 3456 
C 3456 3456 3187 3321 2874 2943 
C 2675 3302 2406 3456 1971 3456 
C 1523 3456 1229 3289 941 2886 
L 941 3328 
L 448 3328 
z
" transform="scale(0.015625)"/>
       <path id="NimbusSanL-Regu-63" d="M 3014 2237 
C 2989 2561 2918 2771 2790 2956 
C 2560 3270 2157 3456 1690 3456 
C 787 3456 198 2740 198 1632 
C 198 555 774 -128 1683 -128 
C 2483 -128 2989 352 3053 1167 
L 2515 1167 
C 2426 632 2150 364 1696 364 
C 1107 364 755 842 755 1632 
C 755 2466 1101 2963 1683 2963 
C 2131 2963 2413 2701 2477 2237 
L 3014 2237 
z
" transform="scale(0.015625)"/>
       <path id="NimbusSanL-Regu-43" d="M 4237 3219 
C 4051 4236 3462 4736 2438 4736 
C 1811 4736 1306 4537 960 4154 
C 538 3696 307 3035 307 2284 
C 307 1522 544 867 986 415 
C 1344 44 1805 -128 2413 -128 
C 3552 -128 4192 485 4333 1712 
L 3718 1712 
C 3667 1394 3603 1178 3507 994 
C 3315 612 2918 396 2419 396 
C 1491 396 902 1134 902 2291 
C 902 3480 1466 4211 2368 4211 
C 2746 4211 3098 4096 3290 3918 
C 3462 3759 3558 3562 3629 3219 
L 4237 3219 
z
" transform="scale(0.015625)"/>
       <path id="NimbusSanL-Regu-66" d="M 1651 3328 
L 1094 3328 
L 1094 3860 
C 1094 4087 1222 4204 1466 4204 
C 1510 4204 1530 4204 1651 4198 
L 1651 4639 
C 1530 4665 1459 4672 1350 4672 
C 858 4672 563 4390 563 3905 
L 563 3328 
L 115 3328 
L 115 2892 
L 563 2892 
L 563 0 
L 1094 0 
L 1094 2892 
L 1651 2892 
L 1651 3328 
z
" transform="scale(0.015625)"/>
       <path id="NimbusSanL-Regu-2" d="M 1613 3328 
L 1056 3328 
L 1056 3860 
C 1056 4087 1184 4204 1427 4204 
C 1472 4204 1491 4204 1613 4198 
L 1613 4639 
C 1491 4665 1421 4672 1312 4672 
C 819 4672 525 4390 525 3905 
L 525 3328 
L 77 3328 
L 77 2892 
L 525 2892 
L 525 0 
L 1056 0 
L 1056 2892 
L 1613 2892 
L 1613 3328 
z
M 2790 3328 
L 2259 3328 
L 2259 0 
L 2790 0 
L 2790 3328 
z
M 2790 4672 
L 2259 4672 
L 2259 3999 
L 2790 3999 
L 2790 4672 
z
" transform="scale(0.015625)"/>
       <path id="NimbusSanL-Regu-73" d="M 2803 2428 
C 2797 3084 2362 3456 1587 3456 
C 806 3456 301 3052 301 2434 
C 301 1912 570 1663 1363 1472 
L 1862 1351 
C 2234 1262 2381 1129 2381 887 
C 2381 574 2067 364 1600 364 
C 1312 364 1069 447 934 587 
C 851 683 813 778 781 1014 
L 218 1014 
C 243 243 678 -128 1555 -128 
C 2400 -128 2938 288 2938 931 
C 2938 1428 2656 1702 1990 1861 
L 1478 1982 
C 1043 2084 858 2224 858 2459 
C 858 2765 1133 2963 1568 2963 
C 1997 2963 2227 2778 2240 2428 
L 2803 2428 
z
" transform="scale(0.015625)"/>
       <path id="NimbusSanL-Regu-2d" d="M 1818 1996 
L 294 1996 
L 294 1536 
L 1818 1536 
L 1818 1996 
z
" transform="scale(0.015625)"/>
       <path id="NimbusSanL-Regu-42" d="M 506 0 
L 2611 0 
C 3053 0 3379 121 3629 390 
C 3859 632 3987 961 3987 1321 
C 3987 1878 3731 2214 3136 2444 
C 3558 2643 3782 2994 3782 3476 
C 3782 3821 3654 4127 3411 4345 
C 3168 4569 2848 4672 2400 4672 
L 506 4672 
L 506 0 
z
M 1101 2636 
L 1101 4147 
L 2253 4147 
C 2586 4147 2771 4101 2931 3977 
C 3098 3847 3187 3652 3187 3391 
C 3187 3138 3098 2936 2931 2806 
C 2771 2682 2586 2636 2253 2636 
L 1101 2636 
z
M 1101 524 
L 1101 2112 
L 2554 2112 
C 2842 2112 3034 2042 3174 1890 
C 3315 1745 3392 1542 3392 1315 
C 3392 1093 3315 891 3174 746 
C 3034 594 2842 524 2554 524 
L 1101 524 
z
" transform="scale(0.015625)"/>
       <path id="NimbusSanL-Regu-6c" d="M 973 4672 
L 435 4672 
L 435 0 
L 973 0 
L 973 4672 
z
" transform="scale(0.015625)"/>
       <path id="NimbusSanL-Regu-30" d="M 1760 4544 
C 1338 4544 954 4358 717 4044 
C 422 3649 275 3043 275 2207 
C 275 683 787 -128 1760 -128 
C 2720 -128 3245 683 3245 2169 
C 3245 3049 3104 3636 2803 4044 
C 2566 4364 2189 4544 1760 4544 
z
M 1760 4044 
C 2368 4044 2669 3432 2669 2220 
C 2669 938 2374 339 1747 339 
C 1152 339 851 964 851 2201 
C 851 3438 1152 4044 1760 4044 
z
" transform="scale(0.015625)"/>
      </defs>
      <use xlink:href="#NimbusSanL-Regu-41" transform="scale(0.996264)"/>
      <use xlink:href="#NimbusSanL-Regu-65" transform="translate(66.450031 0) scale(0.996264)"/>
      <use xlink:href="#NimbusSanL-Regu-72" transform="translate(121.841708 0) scale(0.996264)"/>
      <use xlink:href="#NimbusSanL-Regu-6f" transform="translate(155.016938 0) scale(0.996264)"/>
      <use xlink:href="#NimbusSanL-Regu-64" transform="translate(210.408615 0) scale(0.996264)"/>
      <use xlink:href="#NimbusSanL-Regu-79" transform="translate(265.800292 0) scale(0.996264)"/>
      <use xlink:href="#NimbusSanL-Regu-6e" transform="translate(315.613492 0) scale(0.996264)"/>
      <use xlink:href="#NimbusSanL-Regu-61" transform="translate(371.005169 0) scale(0.996264)"/>
      <use xlink:href="#NimbusSanL-Regu-6d" transform="translate(426.396846 0) scale(0.996264)"/>
      <use xlink:href="#NimbusSanL-Regu-69" transform="translate(509.385276 0) scale(0.996264)"/>
      <use xlink:href="#NimbusSanL-Regu-63" transform="translate(531.502061 0) scale(0.996264)"/>
      <use xlink:href="#NimbusSanL-Regu-43" transform="translate(609.010431 0) scale(0.996264)"/>
      <use xlink:href="#NimbusSanL-Regu-6f" transform="translate(680.940416 0) scale(0.996264)"/>
      <use xlink:href="#NimbusSanL-Regu-65" transform="translate(736.332093 0) scale(0.996264)"/>
      <use xlink:href="#NimbusSanL-Regu-66" transform="translate(791.72377 0) scale(0.996264)"/>
      <use xlink:href="#NimbusSanL-Regu-2" transform="translate(819.418939 0) scale(0.996264)"/>
      <use xlink:href="#NimbusSanL-Regu-63" transform="translate(869.23214 0) scale(0.996264)"/>
      <use xlink:href="#NimbusSanL-Regu-69" transform="translate(919.04534 0) scale(0.996264)"/>
      <use xlink:href="#NimbusSanL-Regu-65" transform="translate(941.162125 0) scale(0.996264)"/>
      <use xlink:href="#NimbusSanL-Regu-6e" transform="translate(996.553802 0) scale(0.996264)"/>
      <use xlink:href="#NimbusSanL-Regu-74" transform="translate(1051.945479 0) scale(0.996264)"/>
      <use xlink:href="#NimbusSanL-Regu-73" transform="translate(1079.640648 0) scale(0.996264)"/>
      <use xlink:href="#NimbusSanL-Regu-2d" transform="translate(1157.149018 0) scale(0.996264)"/>
      <use xlink:href="#NimbusSanL-Regu-42" transform="translate(1218.019418 0) scale(0.996264)"/>
      <use xlink:href="#NimbusSanL-Regu-6c" transform="translate(1284.469449 0) scale(0.996264)"/>
      <use xlink:href="#NimbusSanL-Regu-61" transform="translate(1306.586233 0) scale(0.996264)"/>
      <use xlink:href="#NimbusSanL-Regu-64" transform="translate(1361.97791 0) scale(0.996264)"/>
      <use xlink:href="#NimbusSanL-Regu-65" transform="translate(1417.369587 0) scale(0.996264)"/>
      <use xlink:href="#NimbusSanL-Regu-30" transform="translate(1508.626829 0) scale(0.996264)"/>
      <path d="M 1478.738605 0 
L 1508.626829 0 
L 1508.626829 0.3985 
L 1478.738605 0.3985 
L 1478.738605 0 
z
"/>
     </g>
    </g>
   </g>
   <g id="line2d_15">
    <path d="M 47.804191 159.133657 
L 48.192658 34.850739 
L 48.484008 17.28 
L 48.581124 18.168741 
L 49.163824 39.050345 
L 49.260941 38.843998 
L 49.358058 39.203311 
L 49.552291 40.780293 
L 49.746524 41.181799 
L 50.037874 42.639453 
L 50.329224 45.585283 
L 50.523458 49.485055 
L 50.717691 57.340214 
L 51.009041 75.271127 
L 51.203274 77.430456 
L 51.494624 84.349458 
L 51.785974 99.315093 
L 52.271558 133.59321 
L 52.562908 140.164514 
L 52.854258 154.260047 
L 53.534074 198.211193 
L 53.825424 200.083369 
L 54.116774 204.411492 
L 54.602358 214.117289 
L 54.699474 213.868468 
L 55.087941 211.416974 
L 55.379291 211.471127 
L 55.767758 211.8419 
L 55.864874 211.42976 
L 56.059108 208.791456 
L 56.253341 206.463188 
L 56.544691 205.742177 
L 56.836041 204.451816 
L 57.127391 202.222673 
L 57.418741 197.808559 
L 57.612974 194.863349 
L 57.904324 193.745758 
L 58.195674 191.122387 
L 58.487024 185.218038 
L 59.069724 169.168268 
L 59.361074 167.438103 
L 59.652424 164.273481 
L 59.943774 158.633862 
L 60.235124 149.05505 
L 60.526474 147.055027 
L 60.817824 142.543649 
L 61.206291 130.891893 
L 61.497641 125.378621 
L 61.788991 125.443514 
L 61.983224 125.646862 
L 62.177458 126.146942 
L 62.468808 127.918369 
L 62.857274 132.523007 
L 63.148624 136.050438 
L 63.342858 136.43996 
L 63.537091 137.195671 
L 63.828441 139.568124 
L 64.119791 144.756415 
L 64.411141 151.327413 
L 64.702491 152.513243 
L 64.993841 155.133802 
L 65.285191 160.04225 
L 65.867891 171.520304 
L 66.159241 172.911514 
L 66.450591 175.759328 
L 66.741941 180.689299 
L 67.227524 191.077917 
L 67.518874 193.106672 
L 67.810224 197.607336 
L 68.198691 209.359337 
L 68.392924 212.801628 
L 68.684274 213.735288 
L 68.975624 215.503074 
L 69.461208 218.88 
L 69.558324 218.572831 
L 69.752558 216.813218 
L 70.043908 211.851564 
L 70.626608 195.838694 
L 71.306425 178.236891 
L 71.694891 172.227262 
L 71.986241 170.081492 
L 72.180475 169.658351 
L 72.471825 169.778755 
L 72.860291 169.968754 
L 73.151641 170.431072 
L 73.442991 171.598985 
L 73.637225 172.230773 
L 74.025691 172.542439 
L 74.317041 173.061256 
L 75.093975 174.757236 
L 75.482441 174.958851 
L 75.870908 175.396783 
L 76.647841 176.513843 
L 77.230541 176.491073 
L 77.716125 176.197605 
L 78.007475 175.72421 
L 78.881525 173.856937 
L 79.367108 173.650482 
L 79.852691 173.231222 
L 80.144041 172.929541 
L 80.726741 172.739019 
L 81.115208 172.350708 
L 81.406558 171.947318 
L 81.989258 171.724761 
L 82.669075 171.346264 
L 83.446008 171.416406 
L 83.737358 171.602046 
L 84.125825 172.257511 
L 84.320058 172.469366 
L 84.805641 172.608185 
L 85.873925 173.173452 
L 87.719141 173.487977 
L 88.010491 173.671864 
L 88.496075 174.137703 
L 88.981658 174.311625 
L 89.370125 174.652228 
L 89.661475 174.925847 
L 90.341291 175.097755 
L 90.826875 175.449077 
L 91.021108 175.61029 
L 91.603808 175.791252 
L 91.895158 176.08093 
L 92.380741 176.799562 
L 92.769208 177.004268 
L 93.060558 177.3468 
L 93.351908 177.985462 
L 93.837491 179.140884 
L 94.031725 179.30777 
L 94.808658 179.491996 
L 95.294241 179.517142 
L 96.168291 179.407635 
L 96.459641 179.208009 
L 96.653875 179.062689 
L 97.236575 178.899352 
L 97.625041 178.519148 
L 98.110625 177.779106 
L 98.499091 177.570964 
L 98.790441 177.219118 
L 99.081791 176.566173 
L 99.276025 176.227442 
L 99.761608 175.988487 
L 100.150075 175.5043 
L 100.732775 174.650366 
L 101.315475 174.409661 
L 101.801058 174.172204 
L 102.869341 174.590824 
L 103.160692 175.059228 
L 103.354925 175.338453 
L 103.840508 175.540296 
L 104.228975 175.996756 
L 104.811675 177.003989 
L 105.297258 177.26835 
L 105.782842 177.867156 
L 106.074192 178.147303 
L 106.365542 178.117486 
L 106.754008 177.939704 
L 107.336708 177.778662 
L 107.725175 177.402546 
L 108.016525 176.962457 
L 108.502108 176.763859 
L 108.793458 176.433149 
L 109.084808 175.768673 
L 109.473275 174.665707 
L 109.861742 174.463306 
L 110.250208 173.94143 
L 110.832908 172.902545 
L 111.318492 172.641852 
L 111.804075 172.035668 
L 112.095425 171.730604 
L 112.872358 171.540223 
L 113.260825 171.49522 
L 114.620458 172.233968 
L 114.911808 172.604449 
L 115.397392 172.757898 
L 115.785858 173.121346 
L 116.077208 173.692711 
L 116.271442 173.986275 
L 116.757025 174.187155 
L 117.145492 174.610496 
L 117.922425 175.680888 
L 118.505125 175.891527 
L 119.184942 176.237216 
L 120.641692 176.210835 
L 121.224392 176.063749 
L 122.195558 175.632903 
L 122.681142 175.343537 
L 123.166725 174.96781 
L 123.749425 174.789729 
L 124.817708 174.268422 
L 126.274458 174.230438 
L 126.857158 174.374081 
L 127.245625 174.529724 
L 127.925442 174.691668 
L 128.508142 174.881736 
L 130.838942 175.007322 
L 132.489925 175.1468 
L 133.752442 174.928784 
L 135.694775 174.25226 
L 137.734225 174.228241 
L 139.385209 174.657432 
L 139.676559 174.734677 
L 140.453492 174.879093 
L 141.133309 174.990193 
L 142.978525 174.996059 
L 143.561225 174.819622 
L 143.852575 174.756656 
L 144.629509 174.611773 
L 145.309325 174.433738 
L 145.989142 174.258507 
L 146.571842 174.034711 
L 147.251659 173.864783 
L 148.125709 173.578657 
L 149.193992 173.56506 
L 153.952709 173.446138 
L 154.923875 173.403961 
L 155.603692 173.517908 
L 155.895042 173.573936 
L 156.671975 173.707621 
L 157.351792 173.90216 
L 158.031609 174.092705 
L 158.614309 174.309463 
L 159.294125 174.472435 
L 159.973942 174.67235 
L 161.819159 174.697987 
L 162.304742 174.532899 
L 162.596092 174.454217 
L 163.275909 174.316725 
L 164.538425 173.853936 
L 165.412475 173.649591 
L 166.869225 173.664262 
L 167.451925 173.806903 
L 168.034625 174.074791 
L 168.617325 174.270552 
L 169.005792 174.628967 
L 169.200025 174.77426 
L 169.782725 174.920128 
L 170.268309 175.261052 
L 170.462542 175.362373 
L 171.239476 175.520555 
L 172.016409 175.737279 
L 173.278926 175.642375 
L 174.055859 175.514492 
L 176.386659 174.558194 
L 176.969359 174.288008 
L 177.260709 174.216559 
L 178.231876 174.046598 
L 178.814576 173.998952 
L 179.882859 174.079081 
L 180.271326 174.128008 
L 181.048259 174.26241 
L 182.019426 174.541008 
L 185.030042 174.932021 
L 186.486792 174.810826 
L 187.166609 174.72204 
L 187.943542 174.538408 
L 188.234892 174.479106 
L 189.108942 174.325427 
L 189.788759 174.182189 
L 192.896492 174.019966 
L 195.907109 174.418966 
L 196.489809 174.490232 
L 200.957176 174.661189 
L 205.230309 174.273875 
L 205.813009 174.239755 
L 209.114976 174.173008 
L 214.844859 174.716932 
L 218.341059 174.616214 
L 223.002659 174.421499 
L 266.899393 174.419478 
L 271.172527 174.358629 
L 275.251427 174.350303 
L 294.38341 174.328827 
L 324.10111 174.350028 
L 329.05406 174.445708 
L 341.873461 174.562351 
L 352.167827 174.523322 
L 352.167827 174.523322 
" clip-path="url(#p061afc9ca6)" style="fill: none; stroke: #1f77b4; stroke-width: 1.5; stroke-linecap: square"/>
   </g>
   <g id="line2d_16">
    <path d="M 47.804191 186.355326 
L 48.095541 151.906755 
L 48.386891 149.037881 
L 48.484008 149.078672 
L 48.678241 150.707316 
L 48.969591 153.189027 
L 49.066708 153.201461 
L 49.358058 152.074257 
L 49.552291 151.598291 
L 49.940758 151.397724 
L 50.232108 150.966946 
L 50.620574 149.759867 
L 50.814808 149.240935 
L 51.009041 149.51367 
L 51.397508 149.789567 
L 51.591741 150.195389 
L 51.785974 151.083974 
L 51.980208 153.091655 
L 52.174441 154.900479 
L 52.465791 155.627807 
L 52.757141 157.394561 
L 53.048491 161.3203 
L 53.436958 167.420994 
L 53.728308 167.954085 
L 53.922541 168.690244 
L 54.116774 170.101059 
L 54.699474 175.544453 
L 55.185058 176.471606 
L 55.379291 177.415641 
L 55.670641 180.697474 
L 56.156224 188.355642 
L 56.350458 188.573442 
L 56.544691 189.05788 
L 56.836041 190.614174 
L 57.224508 194.368849 
L 57.612974 197.84422 
L 57.904324 198.153562 
L 58.195674 198.905053 
L 58.487024 200.235075 
L 59.069724 203.489538 
L 59.458191 203.841108 
L 59.652424 203.978362 
L 59.749541 203.888719 
L 59.846658 203.530792 
L 60.040891 200.77518 
L 60.235124 197.088013 
L 60.526474 195.702734 
L 60.817824 192.532675 
L 61.109174 186.05803 
L 61.497641 177.020483 
L 62.177458 176.873764 
L 62.468808 176.790203 
L 62.565924 176.607312 
L 62.760158 175.412738 
L 63.148624 172.315311 
L 63.439974 171.932607 
L 63.828441 170.911514 
L 64.216908 169.877308 
L 64.508258 169.999305 
L 64.896724 170.163102 
L 65.090958 170.453136 
L 65.285191 171.073216 
L 65.479424 172.274356 
L 65.770774 174.520598 
L 66.062124 174.94227 
L 66.353474 175.860139 
L 66.644824 177.674624 
L 67.227524 182.194709 
L 67.518874 182.711769 
L 67.810224 183.743086 
L 68.101574 185.697602 
L 68.392924 188.245239 
L 68.684274 188.718377 
L 68.975624 189.868665 
L 69.266974 192.115621 
L 70.043908 199.70335 
L 70.238141 200.079843 
L 70.335258 200.018514 
L 70.529491 199.398233 
L 70.820841 197.25461 
L 71.403541 190.142118 
L 71.889125 185.02974 
L 72.180475 183.523445 
L 72.374708 183.285368 
L 73.151641 183.309278 
L 73.345875 183.62539 
L 73.637225 184.362069 
L 74.025691 184.58769 
L 74.317041 185.002975 
L 74.705508 186.087223 
L 74.996858 186.804341 
L 75.482441 187.027915 
L 76.453608 187.702684 
L 77.619008 187.485357 
L 77.910358 187.547658 
L 78.493058 188.045251 
L 78.784408 188.291499 
L 79.367108 188.434512 
L 80.338275 188.85219 
L 80.920975 188.749163 
L 81.212325 188.440231 
L 81.406558 188.211657 
L 81.892141 188.029987 
L 82.280608 187.58656 
L 82.863308 186.63514 
L 83.348891 186.382628 
L 84.125825 185.790288 
L 85.679691 186.010006 
L 89.370125 185.978823 
L 89.855708 185.803717 
L 90.438408 185.59593 
L 90.826875 185.198643 
L 91.021108 185.071328 
L 92.283625 185.06452 
L 92.866325 185.207786 
L 93.157675 185.465772 
L 93.449025 186.106375 
L 94.128841 187.881986 
L 94.517308 188.160999 
L 94.905775 188.812787 
L 95.294241 189.638857 
L 95.779825 189.846169 
L 96.265408 190.359456 
L 96.653875 190.704564 
L 97.625041 190.666525 
L 97.819275 190.42818 
L 98.013508 190.181998 
L 98.499091 189.979355 
L 98.790441 189.648586 
L 99.081791 188.986485 
L 99.276025 188.626198 
L 99.761608 188.365551 
L 100.150075 187.798847 
L 100.732775 186.643703 
L 101.121241 186.431033 
L 101.509708 185.966202 
L 102.092408 185.138113 
L 102.772225 184.971714 
L 103.354925 184.830773 
L 104.326092 184.90392 
L 105.103025 185.151979 
L 105.588608 185.344988 
L 106.171308 185.912192 
L 106.656892 186.236325 
L 107.530942 186.37811 
L 108.210758 186.490313 
L 109.084808 186.429098 
L 109.764625 186.207358 
L 110.347325 186.006689 
L 110.930025 185.699766 
L 111.512725 185.503072 
L 111.901192 185.150443 
L 112.095425 185.004591 
L 112.678125 184.862827 
L 113.163708 184.517707 
L 113.649292 184.163681 
L 114.620458 184.001705 
L 115.397392 183.991325 
L 115.980092 184.089114 
L 116.465675 184.24416 
L 117.048375 184.396449 
L 117.533958 184.785794 
L 117.825308 184.998799 
L 118.505125 185.150489 
L 119.379175 185.447742 
L 121.321508 185.570405 
L 124.040775 184.868064 
L 124.623475 184.658324 
L 126.662925 184.649874 
L 128.799492 185.105739 
L 130.741825 185.23936 
L 131.421642 185.436832 
L 131.712992 185.490821 
L 135.306308 185.578534 
L 135.986125 185.484531 
L 136.763059 185.294419 
L 137.054409 185.242815 
L 140.259259 185.1971 
L 143.561225 185.721331 
L 143.852575 185.77754 
L 144.823742 185.933567 
L 145.406442 185.967566 
L 146.766075 185.918984 
L 147.445892 185.76449 
L 147.931475 185.553582 
L 149.582459 185.510979 
L 153.564242 185.39559 
L 154.146942 185.178194 
L 154.535409 185.037764 
L 155.312342 184.894943 
L 155.992159 184.762061 
L 157.643142 184.809115 
L 158.225842 184.967134 
L 158.517192 185.035539 
L 159.294125 185.187914 
L 160.168175 185.458842 
L 160.945109 185.710604 
L 161.430692 185.787124 
L 163.178792 185.766397 
L 163.664375 185.625259 
L 163.955725 185.556871 
L 164.732659 185.400347 
L 165.315359 185.2212 
L 166.092292 185.042836 
L 166.674992 184.888307 
L 169.005792 184.822329 
L 169.297142 184.873777 
L 170.074075 185.00194 
L 170.753892 185.167197 
L 171.433709 185.32677 
L 172.113526 185.519757 
L 175.512609 185.64424 
L 177.552059 185.33973 
L 178.328992 185.16279 
L 178.717459 185.110779 
L 179.688626 184.94207 
L 180.368442 184.85802 
L 182.602126 184.849494 
L 184.155992 185.017586 
L 185.321392 185.143605 
L 185.806976 185.179585 
L 190.177226 185.290671 
L 197.363859 184.945826 
L 199.888892 185.055037 
L 201.345642 185.167833 
L 208.823626 185.11246 
L 212.222709 185.032399 
L 215.621793 185.158847 
L 219.117993 185.228126 
L 226.013276 185.123206 
L 256.022326 185.103753 
L 260.781043 185.128221 
L 304.677777 185.177208 
L 344.689844 185.320284 
L 352.167827 185.293546 
L 352.167827 185.293546 
" clip-path="url(#p061afc9ca6)" style="fill: none; stroke: #ff7f0e; stroke-width: 1.5; stroke-linecap: square"/>
   </g>
   <g id="patch_3">
    <path d="M 32.586009 228.96 
L 32.586009 7.2 
" style="fill: none; stroke: #000000; stroke-width: 0.8; stroke-linejoin: miter; stroke-linecap: square"/>
   </g>
   <g id="patch_4">
    <path d="M 367.386009 228.96 
L 367.386009 7.2 
" style="fill: none; stroke: #000000; stroke-width: 0.8; stroke-linejoin: miter; stroke-linecap: square"/>
   </g>
   <g id="patch_5">
    <path d="M 32.586009 228.96 
L 367.386009 228.96 
" style="fill: none; stroke: #000000; stroke-width: 0.8; stroke-linejoin: miter; stroke-linecap: square"/>
   </g>
   <g id="patch_6">
    <path d="M 32.586009 7.2 
L 367.386009 7.2 
" style="fill: none; stroke: #000000; stroke-width: 0.8; stroke-linejoin: miter; stroke-linecap: square"/>
   </g>
   <g id="legend_1">
    <g id="patch_7">
     <path d="M 314.000015 43.640613 
L 360.386009 43.640613 
Q 362.386009 43.640613 362.386009 41.640613 
L 362.386009 14.2 
Q 362.386009 12.2 360.386009 12.2 
L 314.000015 12.2 
Q 312.000015 12.2 312.000015 14.2 
L 312.000015 41.640613 
Q 312.000015 43.640613 314.000015 43.640613 
z
" style="fill: #ffffff; opacity: 0.8; stroke: #cccccc; stroke-linejoin: miter"/>
    </g>
    <g id="line2d_17">
     <path d="M 316.000015 19.79832 
L 326.000015 19.79832 
L 336.000015 19.79832 
" style="fill: none; stroke: #1f77b4; stroke-width: 1.5; stroke-linecap: square"/>
    </g>
    <g id="text_17">
     <!-- CD -->
     <g transform="translate(344.000015 23.29832) scale(0.1 -0.1)">
      <defs>
       <path id="NimbusSanL-Regu-44" d="M 570 0 
L 2368 0 
C 3546 0 4269 883 4269 2339 
C 4269 3788 3552 4672 2368 4672 
L 570 4672 
L 570 0 
z
M 1165 524 
L 1165 4147 
L 2266 4147 
C 3187 4147 3674 3525 3674 2332 
C 3674 1153 3187 524 2266 524 
L 1165 524 
z
" transform="scale(0.015625)"/>
      </defs>
      <use xlink:href="#NimbusSanL-Regu-43" transform="scale(0.996264)"/>
      <use xlink:href="#NimbusSanL-Regu-44" transform="translate(71.929985 0) scale(0.996264)"/>
     </g>
    </g>
    <g id="line2d_18">
     <path d="M 316.000015 34.018627 
L 326.000015 34.018627 
L 336.000015 34.018627 
" style="fill: none; stroke: #ff7f0e; stroke-width: 1.5; stroke-linecap: square"/>
    </g>
    <g id="text_18">
     <!-- CL -->
     <g transform="translate(344.000015 37.518627) scale(0.1 -0.1)">
      <defs>
       <path id="NimbusSanL-Regu-4c" d="M 1107 4672 
L 512 4672 
L 512 0 
L 3411 0 
L 3411 524 
L 1107 524 
L 1107 4672 
z
" transform="scale(0.015625)"/>
      </defs>
      <use xlink:href="#NimbusSanL-Regu-43" transform="scale(0.996264)"/>
      <use xlink:href="#NimbusSanL-Regu-4c" transform="translate(71.929985 0) scale(0.996264)"/>
     </g>
    </g>
   </g>
  </g>
 </g>
 <defs>
  <clipPath id="p061afc9ca6">
   <rect x="32.586009" y="7.2" width="334.8" height="221.76"/>
  </clipPath>
 </defs>
</svg>
