<?xml version="1.0" encoding="utf-8" standalone="no"?>
<!DOCTYPE svg PUBLIC "-//W3C//DTD SVG 1.1//EN"
  "http://www.w3.org/Graphics/SVG/1.1/DTD/svg11.dtd">
<svg xmlns:xlink="http://www.w3.org/1999/xlink" width="379.567344pt" height="265.600613pt" viewBox="0 0 379.567344 265.600613" xmlns="http://www.w3.org/2000/svg" version="1.1">
 <metadata>
  <rdf:RDF xmlns:dc="http://purl.org/dc/elements/1.1/" xmlns:cc="http://creativecommons.org/ns#" xmlns:rdf="http://www.w3.org/1999/02/22-rdf-syntax-ns#">
   <cc:Work>
    <dc:type rdf:resource="http://purl.org/dc/dcmitype/StillImage"/>
    <dc:date>2025-08-02T13:42:03.237917</dc:date>
    <dc:format>image/svg+xml</dc:format>
    <dc:creator>
     <cc:Agent>
      <dc:title>Matplotlib v3.10.3, https://matplotlib.org/</dc:title>
     </cc:Agent>
    </dc:creator>
   </cc:Work>
  </rdf:RDF>
 </metadata>
 <defs>
  <style type="text/css">*{stroke-linejoin: round; stroke-linecap: butt}</style>
 </defs>
 <g id="figure_1">
  <g id="patch_1">
   <path d="M 0 265.600613 
L 379.567344 265.600613 
L 379.567344 0 
L 0 0 
z
" style="fill: #ffffff"/>
  </g>
  <g id="axes_1">
   <g id="patch_2">
    <path d="M 37.567344 228.96 
L 372.367344 228.96 
L 372.367344 7.2 
L 37.567344 7.2 
z
" style="fill: #ffffff"/>
   </g>
   <g id="matplotlib.axis_1">
    <g id="xtick_1">
     <g id="line2d_1">
      <defs>
       <path id="m7e4454cdc6" d="M 0 0 
L 0 3.5 
" style="stroke: #000000; stroke-width: 0.8"/>
      </defs>
      <g>
       <use xlink:href="#m7e4454cdc6" x="52.785526" y="228.96" style="stroke: #000000; stroke-width: 0.8"/>
      </g>
     </g>
     <g id="text_1">
      <!-- $\mathdefault{0}$ -->
      <g transform="translate(50.294859 243.05832) scale(0.1 -0.1)">
       <defs>
        <path id="CMR17-30" d="M 2688 2038 
C 2688 2430 2682 3099 2413 3613 
C 2176 4063 1798 4224 1466 4224 
C 1158 4224 768 4082 525 3620 
C 269 3137 243 2539 243 2038 
C 243 1671 250 1112 448 623 
C 723 -39 1216 -128 1466 -128 
C 1760 -128 2208 -7 2470 604 
C 2662 1048 2688 1568 2688 2038 
z
M 1466 -26 
C 1056 -26 813 328 723 816 
C 653 1196 653 1749 653 2109 
C 653 2604 653 3015 736 3407 
C 858 3954 1216 4121 1466 4121 
C 1728 4121 2067 3947 2189 3420 
C 2272 3054 2278 2623 2278 2109 
C 2278 1691 2278 1176 2202 797 
C 2067 96 1690 -26 1466 -26 
z
" transform="scale(0.015625)"/>
       </defs>
       <use xlink:href="#CMR17-30" transform="scale(0.996264)"/>
      </g>
     </g>
    </g>
    <g id="xtick_2">
     <g id="line2d_2">
      <g>
       <use xlink:href="#m7e4454cdc6" x="101.34386" y="228.96" style="stroke: #000000; stroke-width: 0.8"/>
      </g>
     </g>
     <g id="text_2">
      <!-- $\mathdefault{500}$ -->
      <g transform="translate(93.871857 243.05832) scale(0.1 -0.1)">
       <defs>
        <path id="CMR17-35" d="M 730 3750 
C 794 3724 1056 3641 1325 3641 
C 1920 3641 2246 3961 2432 4140 
C 2432 4191 2432 4224 2394 4224 
C 2387 4224 2374 4224 2323 4198 
C 2099 4102 1837 4032 1517 4032 
C 1325 4032 1037 4055 723 4191 
C 653 4224 640 4224 634 4224 
C 602 4224 595 4217 595 4090 
L 595 2231 
C 595 2113 595 2080 659 2080 
C 691 2080 704 2093 736 2139 
C 941 2435 1222 2560 1542 2560 
C 1766 2560 2246 2415 2246 1293 
C 2246 1087 2246 716 2054 422 
C 1894 159 1645 25 1370 25 
C 947 25 518 319 403 812 
C 429 806 480 793 506 793 
C 589 793 749 838 749 1036 
C 749 1209 627 1280 506 1280 
C 358 1280 262 1190 262 1011 
C 262 454 704 -128 1382 -128 
C 2042 -128 2669 441 2669 1267 
C 2669 2054 2170 2662 1549 2662 
C 1222 2662 947 2540 730 2304 
L 730 3750 
z
" transform="scale(0.015625)"/>
       </defs>
       <use xlink:href="#CMR17-35" transform="scale(0.996264)"/>
       <use xlink:href="#CMR17-30" transform="translate(45.690477 0) scale(0.996264)"/>
       <use xlink:href="#CMR17-30" transform="translate(91.380954 0) scale(0.996264)"/>
      </g>
     </g>
    </g>
    <g id="xtick_3">
     <g id="line2d_3">
      <g>
       <use xlink:href="#m7e4454cdc6" x="149.902194" y="228.96" style="stroke: #000000; stroke-width: 0.8"/>
      </g>
     </g>
     <g id="text_3">
      <!-- $\mathdefault{1000}$ -->
      <g transform="translate(139.939523 243.05832) scale(0.1 -0.1)">
       <defs>
        <path id="CMR17-31" d="M 1702 4083 
C 1702 4217 1696 4224 1606 4224 
C 1357 3927 979 3833 621 3820 
C 602 3820 570 3820 563 3808 
C 557 3795 557 3782 557 3648 
C 755 3648 1088 3686 1344 3839 
L 1344 467 
C 1344 243 1331 166 781 166 
L 589 166 
L 589 0 
C 896 6 1216 12 1523 12 
C 1830 12 2150 6 2458 0 
L 2458 166 
L 2266 166 
C 1715 166 1702 236 1702 467 
L 1702 4083 
z
" transform="scale(0.015625)"/>
       </defs>
       <use xlink:href="#CMR17-31" transform="scale(0.996264)"/>
       <use xlink:href="#CMR17-30" transform="translate(45.690477 0) scale(0.996264)"/>
       <use xlink:href="#CMR17-30" transform="translate(91.380954 0) scale(0.996264)"/>
       <use xlink:href="#CMR17-30" transform="translate(137.071431 0) scale(0.996264)"/>
      </g>
     </g>
    </g>
    <g id="xtick_4">
     <g id="line2d_4">
      <g>
       <use xlink:href="#m7e4454cdc6" x="198.460528" y="228.96" style="stroke: #000000; stroke-width: 0.8"/>
      </g>
     </g>
     <g id="text_4">
      <!-- $\mathdefault{1500}$ -->
      <g transform="translate(188.497857 243.05832) scale(0.1 -0.1)">
       <use xlink:href="#CMR17-31" transform="scale(0.996264)"/>
       <use xlink:href="#CMR17-35" transform="translate(45.690477 0) scale(0.996264)"/>
       <use xlink:href="#CMR17-30" transform="translate(91.380954 0) scale(0.996264)"/>
       <use xlink:href="#CMR17-30" transform="translate(137.071431 0) scale(0.996264)"/>
      </g>
     </g>
    </g>
    <g id="xtick_5">
     <g id="line2d_5">
      <g>
       <use xlink:href="#m7e4454cdc6" x="247.018861" y="228.96" style="stroke: #000000; stroke-width: 0.8"/>
      </g>
     </g>
     <g id="text_5">
      <!-- $\mathdefault{2000}$ -->
      <g transform="translate(237.056191 243.05832) scale(0.1 -0.1)">
       <defs>
        <path id="CMR17-32" d="M 2669 990 
L 2554 990 
C 2490 537 2438 460 2413 422 
C 2381 371 1920 371 1830 371 
L 602 371 
C 832 620 1280 1073 1824 1596 
C 2214 1966 2669 2400 2669 3033 
C 2669 3788 2067 4224 1395 4224 
C 691 4224 262 3603 262 3027 
C 262 2777 448 2745 525 2745 
C 589 2745 781 2783 781 3007 
C 781 3206 614 3264 525 3264 
C 486 3264 448 3257 422 3244 
C 544 3788 915 4057 1306 4057 
C 1862 4057 2227 3616 2227 3033 
C 2227 2477 1901 1998 1536 1583 
L 262 147 
L 262 0 
L 2515 0 
L 2669 990 
z
" transform="scale(0.015625)"/>
       </defs>
       <use xlink:href="#CMR17-32" transform="scale(0.996264)"/>
       <use xlink:href="#CMR17-30" transform="translate(45.690477 0) scale(0.996264)"/>
       <use xlink:href="#CMR17-30" transform="translate(91.380954 0) scale(0.996264)"/>
       <use xlink:href="#CMR17-30" transform="translate(137.071431 0) scale(0.996264)"/>
      </g>
     </g>
    </g>
    <g id="xtick_6">
     <g id="line2d_6">
      <g>
       <use xlink:href="#m7e4454cdc6" x="295.577195" y="228.96" style="stroke: #000000; stroke-width: 0.8"/>
      </g>
     </g>
     <g id="text_6">
      <!-- $\mathdefault{2500}$ -->
      <g transform="translate(285.614525 243.05832) scale(0.1 -0.1)">
       <use xlink:href="#CMR17-32" transform="scale(0.996264)"/>
       <use xlink:href="#CMR17-35" transform="translate(45.690477 0) scale(0.996264)"/>
       <use xlink:href="#CMR17-30" transform="translate(91.380954 0) scale(0.996264)"/>
       <use xlink:href="#CMR17-30" transform="translate(137.071431 0) scale(0.996264)"/>
      </g>
     </g>
    </g>
    <g id="xtick_7">
     <g id="line2d_7">
      <g>
       <use xlink:href="#m7e4454cdc6" x="344.135529" y="228.96" style="stroke: #000000; stroke-width: 0.8"/>
      </g>
     </g>
     <g id="text_7">
      <!-- $\mathdefault{3000}$ -->
      <g transform="translate(334.172859 243.05832) scale(0.1 -0.1)">
       <defs>
        <path id="CMR17-33" d="M 1414 2176 
C 1984 2176 2234 1673 2234 1094 
C 2234 322 1824 25 1453 25 
C 1114 25 563 193 390 691 
C 422 678 454 678 486 678 
C 640 678 755 780 755 947 
C 755 1132 614 1216 486 1216 
C 378 1216 211 1164 211 927 
C 211 335 787 -128 1466 -128 
C 2176 -128 2720 432 2720 1087 
C 2720 1718 2208 2176 1600 2246 
C 2086 2347 2554 2776 2554 3353 
C 2554 3856 2048 4224 1472 4224 
C 890 4224 378 3862 378 3347 
C 378 3123 544 3084 627 3084 
C 762 3084 877 3167 877 3334 
C 877 3500 762 3584 627 3584 
C 602 3584 570 3584 544 3571 
C 730 3999 1235 4076 1459 4076 
C 1683 4076 2106 3966 2106 3347 
C 2106 3167 2080 2851 1862 2574 
C 1670 2329 1453 2316 1242 2297 
C 1210 2297 1062 2284 1037 2284 
C 992 2278 966 2272 966 2227 
C 966 2182 973 2176 1101 2176 
L 1414 2176 
z
" transform="scale(0.015625)"/>
       </defs>
       <use xlink:href="#CMR17-33" transform="scale(0.996264)"/>
       <use xlink:href="#CMR17-30" transform="translate(45.690477 0) scale(0.996264)"/>
       <use xlink:href="#CMR17-30" transform="translate(91.380954 0) scale(0.996264)"/>
       <use xlink:href="#CMR17-30" transform="translate(137.071431 0) scale(0.996264)"/>
      </g>
     </g>
    </g>
    <g id="text_8">
     <!-- Iteration -->
     <g transform="translate(187.019968 256.278627) scale(0.1 -0.1)">
      <defs>
       <path id="NimbusSanL-Regu-49" d="M 1242 4672 
L 640 4672 
L 640 0 
L 1242 0 
L 1242 4672 
z
" transform="scale(0.015625)"/>
       <path id="NimbusSanL-Regu-74" d="M 1626 3328 
L 1075 3328 
L 1075 4249 
L 544 4249 
L 544 3328 
L 90 3328 
L 90 2892 
L 544 2892 
L 544 402 
C 544 64 774 -128 1190 -128 
C 1318 -128 1446 -116 1626 -84 
L 1626 364 
C 1555 345 1472 339 1370 339 
C 1139 339 1075 402 1075 634 
L 1075 2892 
L 1626 2892 
L 1626 3328 
z
" transform="scale(0.015625)"/>
       <path id="NimbusSanL-Regu-65" d="M 3283 1484 
C 3283 1998 3245 2311 3149 2565 
C 2931 3123 2419 3456 1792 3456 
C 858 3456 256 2734 256 1619 
C 256 545 838 -128 1779 -128 
C 2547 -128 3078 307 3213 1018 
L 2675 1018 
C 2528 588 2227 364 1798 364 
C 1459 364 1171 514 992 787 
C 864 974 819 1161 813 1484 
L 3283 1484 
z
M 826 1920 
C 870 2552 1248 2963 1786 2963 
C 2310 2963 2714 2519 2714 1959 
C 2714 1946 2714 1933 2707 1920 
L 826 1920 
z
" transform="scale(0.015625)"/>
       <path id="NimbusSanL-Regu-72" d="M 442 3328 
L 442 0 
L 979 0 
L 979 1727 
C 979 2203 1101 2514 1357 2698 
C 1523 2819 1683 2857 2054 2863 
L 2054 3404 
C 1965 3449 1920 3456 1850 3456 
C 1504 3456 1242 3251 934 2750 
L 934 3328 
L 442 3328 
z
" transform="scale(0.015625)"/>
       <path id="NimbusSanL-Regu-61" d="M 3424 332 
C 3366 320 3341 320 3309 320 
C 3123 320 3021 415 3021 581 
L 3021 2542 
C 3021 3135 2586 3456 1760 3456 
C 1274 3456 870 3315 646 3065 
C 493 2893 429 2702 416 2370 
L 954 2370 
C 998 2778 1242 2963 1741 2963 
C 2221 2963 2490 2784 2490 2466 
L 2490 2326 
C 2490 2103 2355 2007 1933 1956 
C 1178 1861 1062 1835 858 1753 
C 467 1593 269 1294 269 861 
C 269 256 691 -128 1370 -128 
C 1792 -128 2131 19 2509 364 
C 2547 25 2714 -128 3059 -128 
C 3168 -128 3251 -116 3424 -71 
L 3424 332 
z
M 2490 1071 
C 2490 893 2438 785 2278 638 
C 2061 441 1798 339 1485 339 
C 1069 339 826 536 826 874 
C 826 1224 1062 1402 1632 1485 
C 2195 1562 2310 1587 2490 1670 
L 2490 1071 
z
" transform="scale(0.015625)"/>
       <path id="NimbusSanL-Regu-69" d="M 960 3358 
L 429 3358 
L 429 0 
L 960 0 
L 960 3358 
z
M 960 4672 
L 422 4672 
L 422 3999 
L 960 3999 
L 960 4672 
z
" transform="scale(0.015625)"/>
       <path id="NimbusSanL-Regu-6f" d="M 1741 3456 
C 800 3456 230 2784 230 1663 
C 230 543 794 -128 1747 -128 
C 2688 -128 3264 543 3264 1638 
C 3264 2791 2707 3456 1741 3456 
z
M 1747 2963 
C 2349 2963 2707 2472 2707 1644 
C 2707 861 2336 364 1747 364 
C 1152 364 787 855 787 1663 
C 787 2466 1152 2963 1747 2963 
z
" transform="scale(0.015625)"/>
       <path id="NimbusSanL-Regu-6e" d="M 448 3328 
L 448 0 
L 986 0 
L 986 1835 
C 986 2539 1344 2988 1894 2988 
C 2317 2988 2586 2732 2586 2328 
L 2586 0 
L 3117 0 
L 3117 2539 
C 3117 3097 2701 3456 2054 3456 
C 1555 3456 1235 3263 941 2796 
L 941 3328 
L 448 3328 
z
" transform="scale(0.015625)"/>
      </defs>
      <use xlink:href="#NimbusSanL-Regu-49" transform="scale(0.996264)"/>
      <use xlink:href="#NimbusSanL-Regu-74" transform="translate(27.69517 0) scale(0.996264)"/>
      <use xlink:href="#NimbusSanL-Regu-65" transform="translate(55.390339 0) scale(0.996264)"/>
      <use xlink:href="#NimbusSanL-Regu-72" transform="translate(110.782016 0) scale(0.996264)"/>
      <use xlink:href="#NimbusSanL-Regu-61" transform="translate(142.961149 0) scale(0.996264)"/>
      <use xlink:href="#NimbusSanL-Regu-74" transform="translate(198.352826 0) scale(0.996264)"/>
      <use xlink:href="#NimbusSanL-Regu-69" transform="translate(226.047996 0) scale(0.996264)"/>
      <use xlink:href="#NimbusSanL-Regu-6f" transform="translate(248.16478 0) scale(0.996264)"/>
      <use xlink:href="#NimbusSanL-Regu-6e" transform="translate(303.556457 0) scale(0.996264)"/>
     </g>
    </g>
   </g>
   <g id="matplotlib.axis_2">
    <g id="ytick_1">
     <g id="line2d_8">
      <defs>
       <path id="m62372b9904" d="M 0 0 
L -3.5 0 
" style="stroke: #000000; stroke-width: 0.8"/>
      </defs>
      <g>
       <use xlink:href="#m62372b9904" x="37.567344" y="219.624831" style="stroke: #000000; stroke-width: 0.8"/>
      </g>
     </g>
     <g id="text_9">
      <!-- $\mathdefault{0}$ -->
      <g transform="translate(25.586009 223.173991) scale(0.1 -0.1)">
       <use xlink:href="#CMR17-30" transform="scale(0.996264)"/>
      </g>
     </g>
    </g>
    <g id="ytick_2">
     <g id="line2d_9">
      <g>
       <use xlink:href="#m62372b9904" x="37.567344" y="182.383291" style="stroke: #000000; stroke-width: 0.8"/>
      </g>
     </g>
     <g id="text_10">
      <!-- $\mathdefault{5}$ -->
      <g transform="translate(25.586009 185.932452) scale(0.1 -0.1)">
       <use xlink:href="#CMR17-35" transform="scale(0.996264)"/>
      </g>
     </g>
    </g>
    <g id="ytick_3">
     <g id="line2d_10">
      <g>
       <use xlink:href="#m62372b9904" x="37.567344" y="145.141752" style="stroke: #000000; stroke-width: 0.8"/>
      </g>
     </g>
     <g id="text_11">
      <!-- $\mathdefault{10}$ -->
      <g transform="translate(20.604674 148.690912) scale(0.1 -0.1)">
       <use xlink:href="#CMR17-31" transform="scale(0.996264)"/>
       <use xlink:href="#CMR17-30" transform="translate(45.690477 0) scale(0.996264)"/>
      </g>
     </g>
    </g>
    <g id="ytick_4">
     <g id="line2d_11">
      <g>
       <use xlink:href="#m62372b9904" x="37.567344" y="107.900213" style="stroke: #000000; stroke-width: 0.8"/>
      </g>
     </g>
     <g id="text_12">
      <!-- $\mathdefault{15}$ -->
      <g transform="translate(20.604674 111.449373) scale(0.1 -0.1)">
       <use xlink:href="#CMR17-31" transform="scale(0.996264)"/>
       <use xlink:href="#CMR17-35" transform="translate(45.690477 0) scale(0.996264)"/>
      </g>
     </g>
    </g>
    <g id="ytick_5">
     <g id="line2d_12">
      <g>
       <use xlink:href="#m62372b9904" x="37.567344" y="70.658673" style="stroke: #000000; stroke-width: 0.8"/>
      </g>
     </g>
     <g id="text_13">
      <!-- $\mathdefault{20}$ -->
      <g transform="translate(20.604674 74.207834) scale(0.1 -0.1)">
       <use xlink:href="#CMR17-32" transform="scale(0.996264)"/>
       <use xlink:href="#CMR17-30" transform="translate(45.690477 0) scale(0.996264)"/>
      </g>
     </g>
    </g>
    <g id="ytick_6">
     <g id="line2d_13">
      <g>
       <use xlink:href="#m62372b9904" x="37.567344" y="33.417134" style="stroke: #000000; stroke-width: 0.8"/>
      </g>
     </g>
     <g id="text_14">
      <!-- $\mathdefault{25}$ -->
      <g transform="translate(20.604674 36.966294) scale(0.1 -0.1)">
       <use xlink:href="#CMR17-32" transform="scale(0.996264)"/>
       <use xlink:href="#CMR17-35" transform="translate(45.690477 0) scale(0.996264)"/>
      </g>
     </g>
    </g>
    <g id="text_15">
     <!-- Average CFL - Blade_0 -->
     <g transform="translate(14.482687 168.77932) rotate(-90) scale(0.1 -0.1)">
      <defs>
       <path id="NimbusSanL-Regu-41" d="M 3034 1408 
L 3514 0 
L 4179 0 
L 2541 4672 
L 1773 4672 
L 109 0 
L 742 0 
L 1235 1408 
L 3034 1408 
z
M 2867 1907 
L 1382 1907 
L 2150 4032 
L 2867 1907 
z
" transform="scale(0.015625)"/>
       <path id="NimbusSanL-Regu-76" d="M 1824 0 
L 3110 3328 
L 2509 3328 
L 1562 629 
L 666 3328 
L 64 3328 
L 1242 0 
L 1824 0 
z
" transform="scale(0.015625)"/>
       <path id="NimbusSanL-Regu-67" d="M 2637 3359 
L 2637 2873 
C 2368 3270 2042 3456 1613 3456 
C 762 3456 186 2714 186 1632 
C 186 1084 333 638 608 320 
C 858 38 1216 -128 1568 -128 
C 1990 -128 2285 51 2586 473 
L 2586 300 
C 2586 -155 2528 -441 2394 -634 
C 2253 -841 1978 -960 1651 -960 
C 1408 -960 1190 -894 1043 -774 
C 922 -674 870 -581 838 -375 
L 294 -375 
C 352 -1031 845 -1408 1632 -1408 
C 2131 -1408 2560 -1248 2778 -980 
C 3034 -661 3130 -222 3130 568 
L 3130 3359 
L 2637 3359 
z
M 1670 2963 
C 2246 2963 2586 2479 2586 1644 
C 2586 848 2240 364 1677 364 
C 1094 364 742 855 742 1663 
C 742 2466 1101 2963 1670 2963 
z
" transform="scale(0.015625)"/>
       <path id="NimbusSanL-Regu-43" d="M 4237 3219 
C 4051 4236 3462 4736 2438 4736 
C 1811 4736 1306 4537 960 4154 
C 538 3696 307 3035 307 2284 
C 307 1522 544 867 986 415 
C 1344 44 1805 -128 2413 -128 
C 3552 -128 4192 485 4333 1712 
L 3718 1712 
C 3667 1394 3603 1178 3507 994 
C 3315 612 2918 396 2419 396 
C 1491 396 902 1134 902 2291 
C 902 3480 1466 4211 2368 4211 
C 2746 4211 3098 4096 3290 3918 
C 3462 3759 3558 3562 3629 3219 
L 4237 3219 
z
" transform="scale(0.015625)"/>
       <path id="NimbusSanL-Regu-46" d="M 1171 2112 
L 3398 2112 
L 3398 2636 
L 1171 2636 
L 1171 4147 
L 3706 4147 
L 3706 4672 
L 576 4672 
L 576 0 
L 1171 0 
L 1171 2112 
z
" transform="scale(0.015625)"/>
       <path id="NimbusSanL-Regu-4c" d="M 1107 4672 
L 512 4672 
L 512 0 
L 3411 0 
L 3411 524 
L 1107 524 
L 1107 4672 
z
" transform="scale(0.015625)"/>
       <path id="NimbusSanL-Regu-2d" d="M 1818 1996 
L 294 1996 
L 294 1536 
L 1818 1536 
L 1818 1996 
z
" transform="scale(0.015625)"/>
       <path id="NimbusSanL-Regu-42" d="M 506 0 
L 2611 0 
C 3053 0 3379 121 3629 390 
C 3859 632 3987 961 3987 1321 
C 3987 1878 3731 2214 3136 2444 
C 3558 2643 3782 2994 3782 3476 
C 3782 3821 3654 4127 3411 4345 
C 3168 4569 2848 4672 2400 4672 
L 506 4672 
L 506 0 
z
M 1101 2636 
L 1101 4147 
L 2253 4147 
C 2586 4147 2771 4101 2931 3977 
C 3098 3847 3187 3652 3187 3391 
C 3187 3138 3098 2936 2931 2806 
C 2771 2682 2586 2636 2253 2636 
L 1101 2636 
z
M 1101 524 
L 1101 2112 
L 2554 2112 
C 2842 2112 3034 2042 3174 1890 
C 3315 1745 3392 1542 3392 1315 
C 3392 1093 3315 891 3174 746 
C 3034 594 2842 524 2554 524 
L 1101 524 
z
" transform="scale(0.015625)"/>
       <path id="NimbusSanL-Regu-6c" d="M 973 4672 
L 435 4672 
L 435 0 
L 973 0 
L 973 4672 
z
" transform="scale(0.015625)"/>
       <path id="NimbusSanL-Regu-64" d="M 3168 4672 
L 2637 4672 
L 2637 2937 
C 2413 3276 2054 3456 1606 3456 
C 736 3456 166 2759 166 1695 
C 166 568 723 -128 1626 -128 
C 2086 -128 2406 44 2694 460 
L 2694 19 
L 3168 19 
L 3168 4672 
z
M 1696 2956 
C 2272 2956 2637 2447 2637 1651 
C 2637 880 2266 371 1702 371 
C 1114 371 723 887 723 1663 
C 723 2440 1114 2956 1696 2956 
z
" transform="scale(0.015625)"/>
       <path id="NimbusSanL-Regu-30" d="M 1760 4544 
C 1338 4544 954 4358 717 4044 
C 422 3649 275 3043 275 2207 
C 275 683 787 -128 1760 -128 
C 2720 -128 3245 683 3245 2169 
C 3245 3049 3104 3636 2803 4044 
C 2566 4364 2189 4544 1760 4544 
z
M 1760 4044 
C 2368 4044 2669 3432 2669 2220 
C 2669 938 2374 339 1747 339 
C 1152 339 851 964 851 2201 
C 851 3438 1152 4044 1760 4044 
z
" transform="scale(0.015625)"/>
      </defs>
      <use xlink:href="#NimbusSanL-Regu-41" transform="scale(0.996264)"/>
      <use xlink:href="#NimbusSanL-Regu-76" transform="translate(62.465918 0) scale(0.996264)"/>
      <use xlink:href="#NimbusSanL-Regu-65" transform="translate(109.788488 0) scale(0.996264)"/>
      <use xlink:href="#NimbusSanL-Regu-72" transform="translate(165.180165 0) scale(0.996264)"/>
      <use xlink:href="#NimbusSanL-Regu-61" transform="translate(197.359298 0) scale(0.996264)"/>
      <use xlink:href="#NimbusSanL-Regu-67" transform="translate(252.750975 0) scale(0.996264)"/>
      <use xlink:href="#NimbusSanL-Regu-65" transform="translate(308.142652 0) scale(0.996264)"/>
      <use xlink:href="#NimbusSanL-Regu-43" transform="translate(391.229499 0) scale(0.996264)"/>
      <use xlink:href="#NimbusSanL-Regu-46" transform="translate(463.159484 0) scale(0.996264)"/>
      <use xlink:href="#NimbusSanL-Regu-4c" transform="translate(524.031114 0) scale(0.996264)"/>
      <use xlink:href="#NimbusSanL-Regu-2d" transform="translate(607.117961 0) scale(0.996264)"/>
      <use xlink:href="#NimbusSanL-Regu-42" transform="translate(667.98836 0) scale(0.996264)"/>
      <use xlink:href="#NimbusSanL-Regu-6c" transform="translate(734.438391 0) scale(0.996264)"/>
      <use xlink:href="#NimbusSanL-Regu-61" transform="translate(756.555176 0) scale(0.996264)"/>
      <use xlink:href="#NimbusSanL-Regu-64" transform="translate(811.946853 0) scale(0.996264)"/>
      <use xlink:href="#NimbusSanL-Regu-65" transform="translate(867.33853 0) scale(0.996264)"/>
      <use xlink:href="#NimbusSanL-Regu-30" transform="translate(958.595772 0) scale(0.996264)"/>
      <path d="M 928.707548 0 
L 958.595772 0 
L 958.595772 0.3985 
L 928.707548 0.3985 
L 928.707548 0 
z
"/>
     </g>
    </g>
   </g>
   <g id="line2d_14">
    <path d="M 52.785526 113.400731 
L 52.97976 69.049496 
L 53.076876 204.567297 
L 53.173993 201.555791 
L 53.465343 188.401529 
L 53.756693 165.670966 
L 54.048043 126.392552 
L 54.339393 59.957508 
L 54.43651 203.658098 
L 54.533626 200.464752 
L 54.824976 186.516215 
L 55.116326 162.413142 
L 55.407676 120.949965 
L 55.699026 50.167653 
L 55.796143 17.28 
L 55.89326 199.390348 
L 55.990376 195.343451 
L 56.281726 177.666607 
L 56.573076 147.145225 
L 56.864426 94.701844 
L 56.961543 69.995139 
L 57.05866 204.661862 
L 57.155776 201.669268 
L 57.447126 188.597618 
L 57.738476 166.009807 
L 58.029826 127.081297 
L 58.321176 61.005854 
L 58.418293 203.762933 
L 58.51541 200.590554 
L 58.80676 186.7336 
L 59.09811 162.791027 
L 59.38946 121.521445 
L 59.777926 50.594174 
L 59.875043 202.721765 
L 59.97216 199.341152 
L 60.26351 184.574634 
L 60.55486 159.058091 
L 60.84621 114.984215 
L 61.040443 69.047696 
L 61.13756 204.567117 
L 61.234676 201.555575 
L 61.526026 188.401156 
L 61.817376 165.670321 
L 62.108726 126.404874 
L 62.400076 58.732244 
L 62.497193 203.535572 
L 62.59431 200.31772 
L 62.88566 186.262144 
L 63.17701 161.976423 
L 63.46836 120.063402 
L 63.75971 47.764123 
L 63.856826 202.43876 
L 63.953943 199.001546 
L 64.245293 183.987795 
L 64.536643 158.044032 
L 64.827993 113.213767 
L 65.022226 66.400503 
L 65.119343 204.302398 
L 65.21646 201.237911 
L 65.50781 187.852234 
L 65.79916 164.721784 
L 66.09051 124.752366 
L 66.38186 55.693204 
L 66.478976 203.231668 
L 66.576093 199.953036 
L 66.867443 185.631969 
L 67.158793 160.885165 
L 67.450143 118.122688 
L 67.741493 73.461745 
L 67.83861 73.461745 
L 67.935726 44.229128 
L 68.032843 202.085261 
L 68.12996 198.577346 
L 68.42131 183.254778 
L 68.71266 156.777379 
L 69.00401 111.024435 
L 69.198243 63.240261 
L 69.29536 203.986374 
L 69.392476 200.858682 
L 69.683826 187.196926 
L 69.975176 163.589412 
L 70.266526 122.795627 
L 70.557876 52.321775 
L 70.654993 202.894525 
L 70.75211 199.548464 
L 71.04346 184.932869 
L 71.33481 159.677121 
L 71.62616 116.041003 
L 71.91751 40.694356 
L 72.014626 201.731783 
L 72.111743 198.153174 
L 72.403093 182.521808 
L 72.694443 155.510807 
L 72.985793 108.835797 
L 73.180026 60.098134 
L 73.277143 203.672161 
L 73.37426 200.481627 
L 73.66561 186.545375 
L 73.95696 162.463531 
L 74.24831 120.857065 
L 74.53966 77.481737 
L 77.064693 77.481737 
L 77.16181 49.053118 
L 77.258926 202.56766 
L 77.356043 199.156225 
L 77.647393 184.25508 
L 77.938743 158.505902 
L 78.230093 114.011322 
L 78.424326 67.541379 
L 78.521443 204.416486 
L 78.61856 201.374817 
L 78.90991 188.088806 
L 79.20126 165.13058 
L 79.49261 125.458766 
L 79.78396 56.90587 
L 79.881076 203.352935 
L 79.978193 200.098556 
L 80.269543 185.883427 
L 80.560893 161.319685 
L 80.852243 118.873539 
L 81.143593 74.542971 
L 81.434943 74.542971 
L 81.53206 45.526599 
L 81.629176 202.215008 
L 81.726293 198.733043 
L 82.017643 183.523821 
L 82.308993 157.242287 
L 82.600343 111.827795 
L 82.891693 64.397099 
L 83.57151 64.397099 
L 83.668627 204.102058 
L 83.765743 200.997503 
L 84.057093 187.436808 
L 84.348443 164.003928 
L 84.639793 123.511911 
L 84.931143 53.541705 
L 85.02826 203.016518 
L 85.125377 199.694856 
L 85.416727 185.185834 
L 85.708077 160.114244 
L 85.999427 116.790537 
L 86.19366 71.543447 
L 86.290777 204.816692 
L 86.387893 201.855065 
L 86.679243 188.918675 
L 86.970593 166.564594 
L 87.261943 127.936741 
L 87.553293 61.187812 
L 87.65041 203.781129 
L 87.747527 200.612389 
L 88.038877 186.771331 
L 88.330227 162.853982 
L 88.621577 121.524805 
L 88.912927 78.360793 
L 89.010043 78.360793 
L 89.10716 50.107986 
L 89.204277 202.673146 
L 89.301393 199.282809 
L 89.592743 184.473818 
L 89.884093 158.88388 
L 90.175443 114.664469 
L 90.369677 68.481909 
L 90.466793 204.510539 
L 90.56391 201.48768 
L 90.85526 188.283835 
L 91.14661 165.467589 
L 91.43796 126.041117 
L 91.72931 57.912174 
L 91.826427 203.453565 
L 91.923543 200.219312 
L 92.214893 186.092094 
L 92.506243 161.680262 
L 92.797593 119.496616 
L 93.18606 46.603276 
L 93.283177 202.322675 
L 93.380293 198.862244 
L 93.671643 183.747081 
L 93.962993 157.628079 
L 94.254343 112.494444 
L 94.448577 65.357075 
L 94.545693 204.198055 
L 94.64281 201.1127 
L 94.93416 187.635869 
L 95.22551 164.347905 
L 95.51686 124.106302 
L 95.80821 54.568814 
L 95.905327 203.119229 
L 96.002443 199.818109 
L 96.293793 185.398815 
L 96.585143 160.482276 
L 96.876493 117.426495 
L 97.070727 72.459228 
L 97.167843 204.90827 
L 97.26496 201.964958 
L 97.55631 189.108571 
L 97.84766 166.892734 
L 98.13901 128.503768 
L 98.43036 88.410501 
L 98.72171 88.410501 
L 98.818827 62.167635 
L 98.915943 203.879111 
L 99.01306 200.729967 
L 99.30441 186.974507 
L 99.59576 163.205071 
L 99.88711 122.131485 
L 100.081343 79.234413 
L 100.17846 205.585789 
L 100.275577 202.777981 
L 100.566927 190.513474 
L 100.858277 169.320406 
L 101.149627 132.698785 
L 101.440977 69.416623 
L 101.538093 204.60401 
L 101.63521 201.599846 
L 101.92656 188.477657 
L 102.21791 165.802514 
L 102.50926 126.619868 
L 102.80061 58.912255 
L 102.897727 203.553573 
L 102.994843 200.339322 
L 103.286193 186.299471 
L 103.577543 162.038609 
L 103.868893 120.11584 
L 104.063127 76.331884 
L 104.160243 205.295536 
L 104.25736 202.429677 
L 104.54871 189.911605 
L 104.84006 168.280377 
L 105.13141 130.901615 
L 105.42276 66.311114 
L 105.519877 204.293459 
L 105.616993 201.227185 
L 105.908343 187.833698 
L 106.199693 164.689754 
L 106.491043 124.697018 
L 106.87951 55.58957 
L 106.976627 203.221305 
L 107.073743 199.9406 
L 107.365093 185.610479 
L 107.656443 160.848031 
L 107.947793 118.058521 
L 108.142027 73.369345 
L 108.239143 204.999282 
L 108.33626 202.074172 
L 108.62761 189.297293 
L 108.91896 167.218846 
L 109.21031 129.067289 
L 109.50166 63.141398 
L 109.598777 203.976488 
L 109.695893 200.846819 
L 109.987243 187.176426 
L 110.278593 163.553988 
L 110.569943 122.734414 
L 110.861293 80.102631 
L 111.443993 80.102631 
L 111.54111 205.672611 
L 111.638227 202.882167 
L 111.929577 190.693507 
L 112.220927 169.631504 
L 112.512277 133.236362 
L 112.803627 70.345557 
L 112.900743 204.696903 
L 112.99786 201.711318 
L 113.28921 188.67028 
L 113.58056 166.135368 
L 113.87191 127.195039 
L 114.260377 59.90615 
L 114.357493 203.652963 
L 114.45461 200.458589 
L 114.74596 186.505565 
L 115.03731 162.39474 
L 115.32866 120.731234 
L 115.522893 77.218051 
L 115.62001 205.384153 
L 115.717127 202.536017 
L 116.008477 190.095361 
L 116.299827 168.597907 
L 116.591177 131.450306 
L 116.882527 67.259252 
L 116.979644 204.388273 
L 117.07676 201.340961 
L 117.36811 188.030304 
L 117.65946 165.029489 
L 117.95081 125.284081 
L 118.24216 83.774151 
L 118.339277 83.774151 
L 118.436394 56.604015 
L 118.53351 203.322749 
L 118.630627 200.062333 
L 118.921977 185.820834 
L 119.213327 161.211525 
L 119.504677 118.686638 
L 119.69891 74.273834 
L 119.796027 205.089731 
L 119.893144 202.182711 
L 120.184494 189.484848 
L 120.475844 167.542941 
L 120.767194 129.627324 
L 121.058544 64.10914 
L 121.15566 204.073262 
L 121.252777 200.962948 
L 121.544127 187.377097 
L 121.835477 163.900747 
L 122.126827 123.333614 
L 122.418177 80.965479 
L 122.515294 80.965479 
L 122.61241 53.233608 
L 122.709527 202.985709 
L 122.806644 199.657884 
L 123.097994 185.121947 
L 123.389344 160.003847 
L 123.680694 116.599771 
L 123.874927 71.268745 
L 123.972044 204.789222 
L 124.06916 201.822101 
L 124.36051 188.861713 
L 124.65186 166.466163 
L 124.94321 127.766653 
L 125.23456 60.8939 
L 125.331677 203.751738 
L 125.428794 200.577119 
L 125.720144 186.710385 
L 126.011494 162.748668 
L 126.302844 121.342822 
L 126.497077 78.098738 
L 126.594194 205.472222 
L 126.69131 202.6417 
L 126.98266 190.27798 
L 127.27401 168.913473 
L 127.56536 131.995605 
L 127.85671 68.201528 
L 127.953827 204.4825 
L 128.050944 201.454034 
L 128.342294 188.225695 
L 128.633644 165.367124 
L 128.924994 125.867513 
L 129.31346 57.612185 
L 129.410577 203.423566 
L 129.507694 200.183313 
L 129.799044 186.029889 
L 130.090394 161.572771 
L 130.381744 119.310871 
L 130.575977 75.172729 
L 130.673094 205.179621 
L 130.77021 202.290579 
L 131.06156 189.671243 
L 131.35291 167.865031 
L 131.64426 130.183896 
L 131.93561 65.070896 
L 132.032727 204.169437 
L 132.129844 201.078359 
L 132.421194 187.576527 
L 132.712544 164.245362 
L 133.003894 123.929108 
L 133.10101 104.789964 
L 133.295244 218.471269 
L 133.489477 218.88 
L 133.586594 218.88 
L 133.877944 218.337763 
L 134.169294 217.400778 
L 134.460644 215.781668 
L 134.751994 212.983845 
L 135.043344 208.149207 
L 135.334694 199.794953 
L 135.626044 185.358801 
L 135.917394 160.413132 
L 136.208744 117.307014 
L 136.402977 72.287175 
L 136.500094 204.891065 
L 136.59721 201.944312 
L 136.88856 189.072895 
L 137.17991 166.831085 
L 137.47126 128.397238 
L 137.76261 61.983551 
L 137.859727 203.860703 
L 137.956844 200.707877 
L 138.248194 186.936335 
L 138.539544 163.13911 
L 138.830894 122.017505 
L 139.025127 79.070282 
L 139.122244 205.569376 
L 139.21936 202.758285 
L 139.51071 190.47944 
L 139.80206 169.261595 
L 140.09341 132.597159 
L 140.38476 69.241014 
L 140.481877 204.586449 
L 140.578994 201.578773 
L 140.870344 188.441242 
L 141.161694 165.73959 
L 141.453044 126.511135 
L 141.744394 58.724364 
L 141.84151 203.534784 
L 141.938627 200.316775 
L 142.229977 186.26051 
L 142.521327 161.971285 
L 142.812677 119.999503 
L 143.00691 76.164359 
L 143.104027 205.278784 
L 143.201144 202.409574 
L 143.492494 189.876867 
L 143.783844 168.22035 
L 144.075194 130.797888 
L 144.366544 66.131873 
L 144.46366 204.275535 
L 144.560777 201.205676 
L 144.852127 187.796531 
L 145.143477 164.625529 
L 145.434827 124.586037 
L 145.62906 82.768968 
L 145.726177 205.939245 
L 145.823294 203.202127 
L 146.114644 191.246399 
L 146.405994 170.586901 
L 146.697344 134.887288 
L 146.988694 73.198356 
L 147.08581 204.982183 
L 147.182927 202.053654 
L 147.474277 189.261837 
L 147.765627 167.157578 
L 148.056977 128.961417 
L 148.348327 89.069515 
L 148.445444 89.069515 
L 148.54256 62.958452 
L 148.639677 203.958193 
L 148.736794 200.824865 
L 149.028144 187.138491 
L 149.319494 163.488435 
L 149.610844 122.621139 
L 149.805077 79.939514 
L 149.902194 205.656299 
L 149.999311 202.862593 
L 150.290661 190.659684 
L 150.582011 169.573056 
L 150.873361 133.135365 
L 151.164711 70.171033 
L 151.261827 204.679451 
L 151.358944 201.690375 
L 151.650294 188.634091 
L 151.941644 166.072833 
L 152.232994 127.086978 
L 152.621461 59.719422 
L 152.718577 203.63429 
L 152.815694 200.436182 
L 153.107044 186.466845 
L 153.204161 216.309032 
L 153.301277 215.645873 
L 153.495511 218.88 
L 156.409011 218.88 
L 156.700361 218.337763 
L 156.991711 217.400778 
L 157.283061 215.781668 
L 157.574411 212.983845 
L 157.865761 208.149207 
L 158.157111 199.794953 
L 158.448461 185.358801 
L 158.739811 160.413132 
L 159.031161 117.307014 
L 159.225394 72.287175 
L 159.322511 204.891065 
L 159.419627 201.944312 
L 159.710977 189.072895 
L 160.002327 166.831085 
L 160.293677 128.397238 
L 160.585027 61.983551 
L 160.682144 203.860703 
L 160.779261 200.707877 
L 161.070611 186.936335 
L 161.361961 163.13911 
L 161.653311 122.017505 
L 161.847544 79.070282 
L 161.944661 205.569376 
L 162.041777 202.758285 
L 162.333127 190.47944 
L 162.624477 169.261595 
L 162.915827 132.597159 
L 163.207177 69.241014 
L 163.304294 204.586449 
L 163.401411 201.578773 
L 163.692761 188.441242 
L 163.984111 165.73959 
L 164.275461 126.511135 
L 164.566811 58.724364 
L 164.663927 203.534784 
L 164.761044 200.316775 
L 165.052394 186.26051 
L 165.343744 161.971285 
L 165.635094 119.999503 
L 166.023561 47.472264 
L 166.120677 202.409574 
L 166.217794 198.966523 
L 166.509144 183.927275 
L 166.800494 157.939454 
L 167.091844 113.032499 
L 167.286077 66.131873 
L 167.383194 204.275535 
L 167.480311 201.205676 
L 167.771661 187.796531 
L 168.063011 164.625529 
L 168.354361 124.586037 
L 168.645711 55.397796 
L 168.742827 203.202127 
L 168.839944 199.917587 
L 169.131294 185.570713 
L 169.422644 160.779315 
L 169.713994 117.939779 
L 169.908227 73.198356 
L 170.005344 204.982183 
L 170.102461 202.053654 
L 170.393811 189.261837 
L 170.685161 167.157578 
L 170.976511 128.961417 
L 171.267861 62.958452 
L 171.364977 203.958193 
L 171.462094 200.824865 
L 171.753444 187.138491 
L 172.044794 163.488435 
L 172.336144 122.621139 
L 172.627494 52.002451 
L 172.724611 202.862593 
L 172.821727 199.510145 
L 173.113077 184.866654 
L 173.404427 159.562701 
L 173.695777 115.837471 
L 173.987127 40.280273 
L 174.084244 201.690375 
L 174.181361 198.103484 
L 174.472711 182.435943 
L 174.764061 155.362433 
L 175.055411 108.579408 
L 175.249644 59.719422 
L 175.346761 203.63429 
L 175.443877 200.436182 
L 175.735227 186.466845 
L 176.026577 162.327832 
L 176.317927 120.615616 
L 176.706394 48.536908 
L 176.803511 202.516039 
L 176.900627 199.09428 
L 177.191977 184.148039 
L 177.483327 158.320935 
L 177.774677 113.691699 
L 177.968911 67.081121 
L 178.066027 204.37046 
L 178.163144 201.319586 
L 178.454494 187.993367 
L 178.745844 164.965661 
L 179.037194 125.173786 
L 179.328544 56.413426 
L 179.425661 203.30369 
L 179.522777 200.039462 
L 179.814127 185.781314 
L 180.105477 161.143233 
L 180.396827 118.568631 
L 180.688177 44.999717 
L 180.785294 202.162319 
L 180.882411 198.669817 
L 181.173761 183.414567 
L 181.465111 157.053495 
L 181.756461 111.501563 
L 181.950694 63.927325 
L 182.047811 204.05508 
L 182.144927 200.94113 
L 182.436277 187.339396 
L 182.727627 163.8356 
L 183.018977 123.221039 
L 183.310328 53.039079 
L 183.407444 202.966256 
L 183.504561 199.634541 
L 183.795911 185.081609 
L 184.087261 159.934144 
L 184.378611 116.479324 
L 184.669961 71.095301 
L 184.767078 71.095301 
L 184.864194 41.389395 
L 184.961311 201.801287 
L 185.058428 198.236579 
L 185.349778 182.665931 
L 185.641128 155.759852 
L 185.932478 109.266147 
L 186.223828 60.708326 
L 186.320944 60.708326 
L 186.418061 28.925025 
L 186.515178 200.55485 
L 186.612294 196.740854 
L 186.903644 180.081319 
L 187.194994 151.293643 
L 187.486344 101.548537 
L 187.680578 49.594968 
L 187.777694 202.621845 
L 187.874811 199.221247 
L 188.166161 184.367439 
L 188.457511 158.700057 
L 188.748861 114.346822 
L 188.943094 68.024498 
L 189.040211 204.464797 
L 189.137328 201.432791 
L 189.428678 188.188986 
L 189.720028 165.30369 
L 190.011378 125.7579 
L 190.302728 57.422775 
L 190.399844 203.404625 
L 190.496961 200.160584 
L 190.788311 185.990612 
L 191.079661 161.504902 
L 191.371011 119.193593 
L 191.565244 75.003848 
L 191.662361 205.162733 
L 191.759478 202.270313 
L 192.050828 189.636224 
L 192.342178 167.804518 
L 192.633528 130.07933 
L 192.924878 64.890206 
L 193.021994 204.151368 
L 193.119111 201.056676 
L 193.410461 187.539059 
L 193.701811 164.180617 
L 193.993161 123.81723 
L 194.284511 54.069296 
L 194.381628 203.069277 
L 194.478744 199.758167 
L 194.770094 185.295235 
L 195.061444 160.303289 
L 195.352794 117.117207 
L 195.644144 42.491658 
L 195.741261 201.911513 
L 195.838378 198.36885 
L 196.129728 182.894496 
L 196.421078 156.154812 
L 196.712428 109.948639 
L 196.906661 61.691114 
L 197.003778 203.831459 
L 197.100894 200.672785 
L 197.392244 186.875695 
L 197.683594 163.034325 
L 197.974944 121.836436 
L 198.169178 78.809543 
L 198.266294 205.543302 
L 198.363411 202.726996 
L 198.654761 190.425373 
L 198.946111 169.168167 
L 199.237461 132.435716 
L 199.528811 68.96204 
L 199.625928 204.558552 
L 199.723044 201.545296 
L 200.014394 188.383395 
L 200.305744 165.639629 
L 200.597094 126.338402 
L 200.985561 58.425882 
L 201.082678 203.504936 
L 201.179794 200.280957 
L 201.471144 186.198617 
L 201.762494 161.864333 
L 202.053844 119.814691 
L 202.248078 75.898229 
L 202.345194 205.252171 
L 202.442311 202.377639 
L 202.733661 189.821683 
L 203.025011 168.124991 
L 203.316361 130.633107 
L 203.607711 65.847132 
L 203.704828 204.247061 
L 203.801944 201.171507 
L 204.093294 187.737487 
L 204.384644 164.523501 
L 204.675994 124.409733 
L 204.967344 55.093142 
L 205.064461 203.171662 
L 205.161578 199.881028 
L 205.452928 185.50754 
L 205.744278 160.670152 
L 206.035628 117.751146 
L 206.229861 72.926724 
L 206.326978 204.95502 
L 206.424094 202.021058 
L 206.715444 189.205511 
L 207.006794 167.060247 
L 207.298144 128.79323 
L 207.589494 62.667825 
L 207.686611 203.92913 
L 207.783728 200.78999 
L 208.075078 187.078226 
L 208.366428 163.384298 
L 208.657778 122.44119 
L 208.852011 79.680387 
L 208.949128 205.630386 
L 209.046244 202.831498 
L 209.337594 190.605951 
L 209.628944 169.480207 
L 209.920294 132.97492 
L 210.211644 69.893785 
L 210.308761 204.651726 
L 210.405878 201.657105 
L 210.697228 188.576601 
L 210.988578 165.97349 
L 211.279928 126.915314 
L 211.571278 59.422786 
L 211.668394 203.604626 
L 211.765511 200.400585 
L 212.056861 186.405335 
L 212.348211 162.221542 
L 212.639561 120.431947 
L 213.028028 48.219528 
L 213.125144 202.4843 
L 213.222261 199.056194 
L 213.513611 184.082227 
L 213.804961 158.207212 
L 214.096311 113.495185 
L 214.290544 66.798141 
L 214.387661 204.342162 
L 214.484778 201.285628 
L 214.776128 187.934688 
L 215.067478 164.864265 
L 215.358828 124.998572 
L 215.650178 56.110656 
L 215.747294 203.273413 
L 215.844411 200.00313 
L 216.135761 185.718532 
L 216.427111 161.034746 
L 216.718461 118.381164 
L 216.912695 73.83395 
L 217.009811 205.045743 
L 217.106928 202.129925 
L 217.398278 189.393634 
L 217.689628 167.385322 
L 217.980978 129.35496 
L 218.272328 63.638495 
L 218.369445 204.026197 
L 218.466561 200.90647 
L 218.757911 187.279504 
L 219.049261 163.732106 
L 219.340611 123.042203 
L 219.729078 52.73005 
L 219.826195 202.935353 
L 219.923311 199.597457 
L 220.214661 185.017529 
L 220.506011 159.823413 
L 220.797361 116.287981 
L 221.185828 41.058755 
L 221.282945 201.768223 
L 221.380061 198.196902 
L 221.671411 182.597369 
L 221.962761 155.641377 
L 222.254111 109.061423 
L 222.448345 60.413524 
L 222.545461 203.7037 
L 222.642578 200.519474 
L 222.933928 186.610774 
L 223.225278 162.576541 
L 223.516628 121.045386 
L 223.807978 77.67043 
L 224.293561 77.67043 
L 224.390678 205.429391 
L 224.487795 202.590303 
L 224.779145 190.189166 
L 225.070495 168.760003 
L 225.361845 131.730408 
L 225.653195 67.743268 
L 225.750311 204.436674 
L 225.847428 201.399043 
L 226.138778 188.13067 
L 226.430128 165.202921 
L 226.721478 125.58377 
L 227.109945 57.121878 
L 227.207061 203.374536 
L 227.304178 200.124476 
L 227.595528 185.928218 
L 227.886878 161.397085 
L 228.178228 119.007286 
L 228.566695 45.757713 
L 228.663811 202.238119 
L 228.760928 198.760777 
L 229.052278 183.571745 
L 229.343628 157.325099 
L 229.634978 111.970894 
L 229.829211 64.603162 
L 229.926328 204.122664 
L 230.023445 201.022231 
L 230.314795 187.479538 
L 230.606145 164.077764 
L 230.897495 123.639499 
L 231.188845 81.405954 
L 231.285961 81.405954 
L 231.383078 53.762178 
L 231.480195 203.038566 
L 231.577311 199.721312 
L 231.868661 185.231551 
L 232.160011 160.193244 
L 232.451361 116.927048 
L 232.645595 71.740024 
L 232.742711 204.83635 
L 232.839828 201.878654 
L 233.131178 188.959437 
L 233.422528 166.635031 
L 233.713878 128.058456 
L 234.102345 61.398135 
L 234.199461 203.802161 
L 234.296578 200.637627 
L 234.587928 186.814943 
L 234.879278 162.929345 
L 235.170628 121.655032 
L 235.461978 78.54832 
L 235.559095 78.54832 
L 235.656211 50.333018 
L 235.753328 202.695649 
L 235.850445 199.309813 
L 236.141795 184.52048 
L 236.433145 158.964513 
L 236.724495 114.803802 
L 236.918728 68.68255 
L 237.015845 204.530603 
L 237.112961 201.511757 
L 237.404311 188.325439 
L 237.695661 165.539482 
L 237.987011 126.165349 
L 238.278361 58.126846 
L 238.375478 203.475032 
L 238.472595 200.245073 
L 238.763945 186.136609 
L 239.055295 161.757183 
L 239.346645 119.629535 
L 239.540878 75.631605 
L 239.637995 205.225508 
L 239.735111 202.345644 
L 240.026461 189.766396 
L 240.317811 168.029455 
L 240.609161 130.468021 
L 240.900511 65.561863 
L 240.997628 204.218534 
L 241.094745 201.137275 
L 241.386095 187.678334 
L 241.677445 164.421284 
L 241.968795 124.233102 
L 242.357261 54.787924 
L 242.454378 203.14114 
L 242.551495 199.844402 
L 242.842845 185.44425 
L 243.134195 160.560787 
L 243.425545 117.562163 
L 243.619778 72.654589 
L 243.716895 204.927807 
L 243.814011 201.988402 
L 244.105361 189.149081 
L 244.396711 166.962736 
L 244.688061 128.624731 
L 244.979411 62.376658 
L 245.076528 203.900013 
L 245.173645 200.75505 
L 245.464995 187.01785 
L 245.756345 163.279967 
L 246.047695 122.260907 
L 246.241928 79.42078 
L 246.339045 205.604426 
L 246.436161 202.800345 
L 246.727511 190.552119 
L 247.018861 169.387185 
L 247.310211 132.814178 
L 247.601561 69.616023 
L 247.698678 204.62395 
L 247.795795 201.623774 
L 248.087145 188.519004 
L 248.378495 165.873963 
L 248.669845 126.743331 
L 248.961195 85.875471 
L 249.058311 85.875471 
L 249.155428 59.125599 
L 249.252545 203.574908 
L 249.349661 200.364923 
L 249.641011 186.34371 
L 249.932361 162.115054 
L 250.223711 120.247937 
L 250.417945 76.522103 
L 250.515062 205.314558 
L 250.612178 202.452504 
L 250.903528 189.951049 
L 251.194878 168.348536 
L 251.486228 131.019394 
L 251.777578 66.514636 
L 251.874695 204.313811 
L 251.971812 201.251607 
L 252.263162 187.875901 
L 252.554512 164.76268 
L 252.845862 124.823034 
L 253.137212 83.110243 
L 253.234328 83.110243 
L 253.331445 55.807325 
L 253.428562 203.24308 
L 253.525678 199.96673 
L 253.817028 185.655633 
L 254.108378 160.926057 
L 254.399728 118.193349 
L 254.593962 73.563497 
L 254.691078 205.018697 
L 254.788195 202.097471 
L 255.079545 189.337553 
L 255.370895 167.288414 
L 255.662245 129.187503 
L 255.953595 63.349128 
L 256.050712 203.997261 
L 256.147828 200.871747 
L 256.439178 187.219501 
L 256.730528 163.628421 
L 257.021878 122.863035 
L 257.313228 80.287845 
L 257.410345 80.287845 
L 257.507462 52.420448 
L 257.604578 202.904392 
L 257.701695 199.560305 
L 257.993045 184.95333 
L 258.284395 159.712477 
L 258.575745 116.096284 
L 258.769978 70.543723 
L 258.867095 204.71672 
L 258.964212 201.735098 
L 259.255562 188.711372 
L 259.546912 166.206375 
L 259.838262 127.317738 
L 260.129612 86.702618 
L 262.751762 86.702618 
L 262.945995 218.295609 
L 263.237345 217.327935 
L 263.528695 215.655795 
L 263.820045 212.766337 
L 264.111395 207.773353 
L 264.402745 199.145477 
L 264.694095 184.236507 
L 264.985445 158.473807 
L 265.276795 113.955862 
L 265.471028 67.461516 
L 265.568145 204.408499 
L 265.665262 201.365233 
L 265.956612 188.072246 
L 266.247962 165.101964 
L 266.539312 125.409317 
L 266.733545 83.954491 
L 266.830662 206.057797 
L 266.927778 203.34439 
L 267.219128 191.492229 
L 267.510478 171.011695 
L 267.801828 135.621332 
L 268.093178 74.466785 
L 268.190295 205.109026 
L 268.287412 202.205865 
L 268.578762 189.524859 
L 268.870112 167.612079 
L 269.161462 129.746795 
L 269.452812 64.315585 
L 269.549928 204.093906 
L 269.647045 200.987721 
L 269.938395 187.419906 
L 270.229745 163.97472 
L 270.521095 123.461439 
L 270.812445 81.149547 
L 270.909562 81.149547 
L 271.006678 53.454491 
L 271.103795 203.007797 
L 271.200912 199.68439 
L 271.492262 185.167749 
L 271.783612 160.082994 
L 272.074962 116.736536 
L 272.269195 71.465686 
L 272.366312 204.808916 
L 272.463428 201.845733 
L 272.754778 188.902551 
L 273.046128 166.536731 
L 273.337478 127.888594 
L 273.628828 87.524649 
L 276.833678 87.524649 
L 276.930795 206.414813 
L 277.027912 203.772809 
L 277.319262 192.232537 
L 277.610612 172.290947 
L 277.901962 137.83188 
L 278.193312 78.286612 
L 278.290428 205.491009 
L 278.387545 202.664245 
L 278.678895 190.316938 
L 278.970245 168.980792 
L 279.261595 132.111931 
L 279.552945 93.606256 
L 279.650062 93.606256 
L 279.747178 68.402541 
L 279.844295 204.502602 
L 279.941412 201.478156 
L 280.232762 188.267377 
L 280.524112 165.43915 
L 280.815462 125.991975 
L 281.009695 84.793518 
L 281.106812 206.141699 
L 281.203928 203.445073 
L 281.495278 191.66621 
L 281.786628 171.312334 
L 282.077978 136.140836 
L 282.369328 75.364487 
L 282.466445 205.198796 
L 282.563562 202.31359 
L 282.854912 189.711006 
L 283.146262 167.933741 
L 283.437612 130.302628 
L 283.728962 91.000859 
L 284.311662 91.000859 
L 284.408779 206.762434 
L 284.505895 204.189954 
L 284.797245 192.953364 
L 285.088595 173.536536 
L 285.379945 139.984258 
L 285.671295 82.005921 
L 285.768412 205.86294 
L 285.865529 203.110562 
L 286.156879 191.088174 
L 286.448229 170.313487 
L 286.739579 134.414829 
L 287.128045 72.381948 
L 287.225162 204.900542 
L 287.322279 201.955685 
L 287.613629 189.092547 
L 287.904979 166.865044 
L 288.196329 128.455919 
L 288.390562 88.341597 
L 288.487679 206.496507 
L 288.584795 203.870843 
L 288.876145 192.401939 
L 289.167495 172.583675 
L 289.458845 138.337713 
L 289.750195 79.160691 
L 289.847312 205.578417 
L 289.944429 202.769134 
L 290.235779 190.498187 
L 290.527129 169.29399 
L 290.818479 132.653138 
L 291.109829 69.337745 
L 291.206945 204.596122 
L 291.304062 201.590381 
L 291.595412 188.461301 
L 291.886762 165.774251 
L 292.178112 126.571029 
L 292.372345 85.627356 
L 292.469462 206.225083 
L 292.566579 203.545134 
L 292.857929 191.839114 
L 293.149279 171.611113 
L 293.440629 136.657126 
L 293.731979 76.256637 
L 293.829095 205.288011 
L 293.926212 202.420648 
L 294.217562 189.896002 
L 294.508912 168.253415 
L 294.800262 130.855024 
L 295.091612 91.796309 
L 296.354129 91.796309 
L 296.451245 66.230605 
L 296.548362 204.285408 
L 296.645479 201.217524 
L 296.936829 187.817004 
L 297.228179 164.660906 
L 297.519529 124.647169 
L 297.713762 82.856998 
L 297.810879 205.948048 
L 297.907995 203.212691 
L 298.199345 191.264653 
L 298.490695 170.618444 
L 298.782045 134.941794 
L 299.073395 73.292543 
L 299.170512 204.991602 
L 299.267629 202.064956 
L 299.558979 189.281368 
L 299.850329 167.191326 
L 300.141679 129.019735 
L 300.433029 63.059225 
L 300.530145 203.96827 
L 300.627262 200.836958 
L 300.918612 187.159387 
L 301.209962 163.524544 
L 301.501312 122.683535 
L 301.695545 80.029364 
L 301.792662 205.665284 
L 301.889779 202.873375 
L 302.181129 190.678315 
L 302.472479 169.605251 
L 302.763829 133.190997 
L 303.055179 70.267167 
L 303.152295 204.689064 
L 303.249412 201.701911 
L 303.540762 188.654026 
L 303.832112 166.107279 
L 304.123462 127.146502 
L 304.414812 86.456037 
L 307.522545 86.456037 
L 307.619662 206.307951 
L 307.716779 203.644576 
L 308.008129 192.01095 
L 308.299479 171.908044 
L 308.590829 137.170224 
L 308.882179 77.14327 
L 308.979295 205.376675 
L 309.076412 202.527043 
L 309.367762 190.079854 
L 309.659112 168.571111 
L 309.950462 131.404004 
L 310.338929 67.179242 
L 310.436045 204.380272 
L 310.533162 201.33136 
L 310.824512 188.013713 
L 311.115862 165.00082 
L 311.407212 125.23454 
L 311.601445 83.702812 
L 311.698562 206.032629 
L 311.795679 203.314189 
L 312.087029 191.440041 
L 312.378379 170.921514 
L 312.669729 135.4655 
L 312.961079 74.197506 
L 313.058195 205.082098 
L 313.155312 202.173552 
L 313.446662 189.469021 
L 313.738012 167.515591 
L 314.029362 129.580065 
L 314.320712 64.027475 
L 314.417829 204.065095 
L 314.514945 200.953148 
L 314.806295 187.360163 
L 315.097645 163.871485 
L 315.388995 123.283049 
L 315.583229 80.892665 
L 315.680345 205.751614 
L 315.777462 202.976971 
L 316.068812 190.857329 
L 316.360162 169.914588 
L 316.651512 133.725531 
L 316.942862 71.19084 
L 317.039979 204.781432 
L 317.137095 201.812752 
L 317.428446 188.845558 
L 317.719796 166.438248 
L 318.011146 127.718416 
L 318.205379 87.279594 
L 318.302496 206.390307 
L 318.399612 203.743402 
L 318.690962 192.181722 
L 318.982312 172.20314 
L 319.273662 137.680148 
L 319.565012 78.024419 
L 319.662129 205.46479 
L 319.759246 202.632781 
L 320.050596 190.26257 
L 320.341946 168.886843 
L 320.633296 131.949588 
L 321.021762 68.122012 
L 321.118879 204.474549 
L 321.215996 201.444493 
L 321.507346 188.209206 
L 321.798696 165.338632 
L 322.090046 125.818279 
L 322.284279 84.543396 
L 322.381396 206.116687 
L 322.478512 203.415059 
L 322.769862 191.614344 
L 323.061212 171.22271 
L 323.352562 135.985967 
L 323.643912 75.096873 
L 323.741029 205.172035 
L 323.838146 202.281476 
L 324.129496 189.655514 
L 324.420846 167.837851 
L 324.712196 130.136929 
L 325.003546 64.989737 
L 325.100662 204.161321 
L 325.197779 201.068619 
L 325.489129 187.559698 
L 325.780479 164.216281 
L 326.071829 123.878856 
L 326.363179 81.750627 
L 326.460296 81.750627 
L 326.557412 54.175787 
L 326.654529 203.079926 
L 326.751646 199.770946 
L 327.042996 185.317317 
L 327.334346 160.341447 
L 327.625696 117.183144 
L 327.819929 72.108801 
L 327.917046 204.873228 
L 328.014162 201.922907 
L 328.305512 189.035907 
L 328.596862 166.76717 
L 328.888212 128.286794 
L 329.179562 61.792702 
L 329.276679 203.841618 
L 329.373796 200.684975 
L 329.665146 186.896761 
L 329.956496 163.070726 
L 330.247846 121.899337 
L 330.442079 78.90012 
L 330.539196 205.55236 
L 330.636312 202.737865 
L 330.927662 190.444155 
L 331.219012 169.200623 
L 331.510362 132.491799 
L 331.801712 69.058952 
L 331.898829 204.568243 
L 331.995946 201.556925 
L 332.287296 188.40349 
L 332.578646 165.674354 
L 332.869996 126.398407 
L 333.258462 58.529571 
L 333.355579 203.515305 
L 333.452696 200.2934 
L 333.744046 186.220118 
L 334.035396 161.901486 
L 334.326746 119.878892 
L 334.520979 75.990679 
L 334.618096 205.261416 
L 334.715212 202.388733 
L 335.006562 189.840853 
L 335.297912 168.158117 
L 335.589262 130.69035 
L 335.880612 65.946047 
L 335.977729 204.256952 
L 336.074846 201.183377 
L 336.366196 187.757998 
L 336.657546 164.558944 
L 336.948896 124.470979 
L 337.143129 82.603284 
L 337.240246 205.922676 
L 337.337362 203.182245 
L 337.628712 191.212043 
L 337.920062 170.527533 
L 338.211412 134.7847 
L 338.502762 73.021086 
L 338.599879 204.964456 
L 338.696996 202.032381 
L 338.988346 189.225078 
L 339.279696 167.094058 
L 339.571046 128.851656 
L 339.862396 62.768785 
L 339.959512 203.939226 
L 340.056629 200.802105 
L 340.347979 187.099161 
L 340.639329 163.420473 
L 340.930679 122.503701 
L 341.124912 79.770404 
L 341.222029 205.639388 
L 341.319146 202.8423 
L 341.610496 190.624617 
L 341.901846 169.512461 
L 342.193196 133.030656 
L 342.484546 69.990097 
L 342.581662 204.661357 
L 342.678779 201.668663 
L 342.970129 188.596572 
L 343.261479 166.008 
L 343.552829 126.974948 
L 343.844179 59.525833 
L 343.941296 203.614931 
L 344.038412 200.412951 
L 344.329762 186.426703 
L 344.621112 162.258465 
L 344.912462 120.495751 
L 345.106696 76.878956 
L 345.203812 205.350243 
L 345.300929 202.495326 
L 345.592279 190.025046 
L 345.883629 168.476403 
L 346.174979 131.240348 
L 346.466329 66.896444 
L 346.563446 204.351992 
L 346.660562 201.297424 
L 346.951912 187.955072 
L 347.243262 164.899488 
L 347.534612 125.059439 
L 347.825962 56.215834 
L 347.923079 203.283931 
L 348.020196 200.015751 
L 348.311546 185.740341 
L 348.602896 161.072433 
L 348.894246 118.446287 
L 349.185596 73.927728 
L 349.282712 73.927728 
L 349.379829 44.788307 
L 349.476946 202.141178 
L 349.574062 198.644448 
L 349.865412 183.370729 
L 350.156762 156.977743 
L 350.448112 111.370664 
L 350.642346 63.73883 
L 350.739463 204.036231 
L 350.836579 200.918511 
L 351.127929 187.30031 
L 351.419279 163.768058 
L 351.710629 123.104328 
L 352.001979 52.837402 
L 352.099096 202.946088 
L 352.196213 199.610339 
L 352.487563 185.03979 
L 352.778913 159.86188 
L 353.070263 116.354451 
L 353.264496 70.915484 
L 353.361613 204.753896 
L 353.458729 201.779709 
L 353.750079 188.788461 
L 354.041429 166.339583 
L 354.332779 127.547923 
L 354.624129 60.515934 
L 354.721246 203.713941 
L 354.818363 200.531763 
L 355.109713 186.63201 
L 355.401063 162.613236 
L 355.692413 121.108796 
L 356.080879 49.389122 
L 356.177996 202.60126 
L 356.275113 199.196546 
L 356.566463 184.324754 
L 356.857813 158.626298 
L 357.149163 114.219367 
L 357.149163 114.219367 
" clip-path="url(#p9f3d1ecf1b)" style="fill: none; stroke: #1f77b4; stroke-width: 1.5; stroke-linecap: square"/>
   </g>
   <g id="patch_3">
    <path d="M 37.567344 228.96 
L 37.567344 7.2 
" style="fill: none; stroke: #000000; stroke-width: 0.8; stroke-linejoin: miter; stroke-linecap: square"/>
   </g>
   <g id="patch_4">
    <path d="M 372.367344 228.96 
L 372.367344 7.2 
" style="fill: none; stroke: #000000; stroke-width: 0.8; stroke-linejoin: miter; stroke-linecap: square"/>
   </g>
   <g id="patch_5">
    <path d="M 37.567344 228.96 
L 372.367344 228.96 
" style="fill: none; stroke: #000000; stroke-width: 0.8; stroke-linejoin: miter; stroke-linecap: square"/>
   </g>
   <g id="patch_6">
    <path d="M 37.567344 7.2 
L 372.367344 7.2 
" style="fill: none; stroke: #000000; stroke-width: 0.8; stroke-linejoin: miter; stroke-linecap: square"/>
   </g>
   <g id="legend_1">
    <g id="patch_7">
     <path d="M 314.548024 29.420307 
L 365.367344 29.420307 
Q 367.367344 29.420307 367.367344 27.420307 
L 367.367344 14.2 
Q 367.367344 12.2 365.367344 12.2 
L 314.548024 12.2 
Q 312.548024 12.2 312.548024 14.2 
L 312.548024 27.420307 
Q 312.548024 29.420307 314.548024 29.420307 
z
" style="fill: #ffffff; opacity: 0.8; stroke: #cccccc; stroke-linejoin: miter"/>
    </g>
    <g id="line2d_15">
     <path d="M 316.548024 19.79832 
L 326.548024 19.79832 
L 336.548024 19.79832 
" style="fill: none; stroke: #1f77b4; stroke-width: 1.5; stroke-linecap: square"/>
    </g>
    <g id="text_16">
     <!-- CFL -->
     <g transform="translate(344.548024 23.29832) scale(0.1 -0.1)">
      <use xlink:href="#NimbusSanL-Regu-43" transform="scale(0.996264)"/>
      <use xlink:href="#NimbusSanL-Regu-46" transform="translate(71.929985 0) scale(0.996264)"/>
      <use xlink:href="#NimbusSanL-Regu-4c" transform="translate(132.801616 0) scale(0.996264)"/>
     </g>
    </g>
   </g>
  </g>
 </g>
 <defs>
  <clipPath id="p9f3d1ecf1b">
   <rect x="37.567344" y="7.2" width="334.8" height="221.76"/>
  </clipPath>
 </defs>
</svg>
