<?xml version="1.0" encoding="utf-8" standalone="no"?>
<!DOCTYPE svg PUBLIC "-//W3C//DTD SVG 1.1//EN"
  "http://www.w3.org/Graphics/SVG/1.1/DTD/svg11.dtd">
<svg xmlns:xlink="http://www.w3.org/1999/xlink" width="393.681128pt" height="265.784981pt" viewBox="0 0 393.681128 265.784981" xmlns="http://www.w3.org/2000/svg" version="1.1">
 <metadata>
  <rdf:RDF xmlns:dc="http://purl.org/dc/elements/1.1/" xmlns:cc="http://creativecommons.org/ns#" xmlns:rdf="http://www.w3.org/1999/02/22-rdf-syntax-ns#">
   <cc:Work>
    <dc:type rdf:resource="http://purl.org/dc/dcmitype/StillImage"/>
    <dc:date>2025-08-02T13:42:05.124834</dc:date>
    <dc:format>image/svg+xml</dc:format>
    <dc:creator>
     <cc:Agent>
      <dc:title>Matplotlib v3.10.3, https://matplotlib.org/</dc:title>
     </cc:Agent>
    </dc:creator>
   </cc:Work>
  </rdf:RDF>
 </metadata>
 <defs>
  <style type="text/css">*{stroke-linejoin: round; stroke-linecap: butt}</style>
 </defs>
 <g id="figure_1">
  <g id="patch_1">
   <path d="M 0 265.784981 
L 393.681128 265.784981 
L 393.681128 0 
L 0 0 
z
" style="fill: #ffffff"/>
  </g>
  <g id="axes_1">
   <g id="patch_2">
    <path d="M 45.316088 228.96 
L 380.116088 228.96 
L 380.116088 7.2 
L 45.316088 7.2 
z
" style="fill: #ffffff"/>
   </g>
   <g id="PathCollection_1">
    <defs>
     <path id="me5b44a6d8f" d="M 0 0.353553 
C 0.093763 0.353553 0.183699 0.316301 0.25 0.25 
C 0.316301 0.183699 0.353553 0.093763 0.353553 0 
C 0.353553 -0.093763 0.316301 -0.183699 0.25 -0.25 
C 0.183699 -0.316301 0.093763 -0.353553 0 -0.353553 
C -0.093763 -0.353553 -0.183699 -0.316301 -0.25 -0.25 
C -0.316301 -0.183699 -0.353553 -0.093763 -0.353553 0 
C -0.353553 0.093763 -0.316301 0.183699 -0.25 0.25 
C -0.183699 0.316301 -0.093763 0.353553 0 0.353553 
z
" style="stroke: #1f77b4"/>
    </defs>
    <g clip-path="url(#pb0409b565f)">
     <use xlink:href="#me5b44a6d8f" x="301.913176" y="218.496597" style="fill: #1f77b4; stroke: #1f77b4"/>
     <use xlink:href="#me5b44a6d8f" x="307.0522" y="218.403879" style="fill: #1f77b4; stroke: #1f77b4"/>
     <use xlink:href="#me5b44a6d8f" x="307.882829" y="218.129015" style="fill: #1f77b4; stroke: #1f77b4"/>
     <use xlink:href="#me5b44a6d8f" x="311.596653" y="217.728774" style="fill: #1f77b4; stroke: #1f77b4"/>
     <use xlink:href="#me5b44a6d8f" x="312.333421" y="217.249827" style="fill: #1f77b4; stroke: #1f77b4"/>
     <use xlink:href="#me5b44a6d8f" x="316.141106" y="216.728744" style="fill: #1f77b4; stroke: #1f77b4"/>
     <use xlink:href="#me5b44a6d8f" x="316.646868" y="216.191998" style="fill: #1f77b4; stroke: #1f77b4"/>
     <use xlink:href="#me5b44a6d8f" x="317.637961" y="215.655963" style="fill: #1f77b4; stroke: #1f77b4"/>
     <use xlink:href="#me5b44a6d8f" x="320.973667" y="215.063966" style="fill: #1f77b4; stroke: #1f77b4"/>
     <use xlink:href="#me5b44a6d8f" x="321.223507" y="214.300656" style="fill: #1f77b4; stroke: #1f77b4"/>
     <use xlink:href="#me5b44a6d8f" x="323.415969" y="213.578295" style="fill: #1f77b4; stroke: #1f77b4"/>
     <use xlink:href="#me5b44a6d8f" x="325.768839" y="213.120513" style="fill: #1f77b4; stroke: #1f77b4"/>
     <use xlink:href="#me5b44a6d8f" x="326.512668" y="213.032088" style="fill: #1f77b4; stroke: #1f77b4"/>
     <use xlink:href="#me5b44a6d8f" x="329.347055" y="212.360155" style="fill: #1f77b4; stroke: #1f77b4"/>
     <use xlink:href="#me5b44a6d8f" x="330.975006" y="212.009408" style="fill: #1f77b4; stroke: #1f77b4"/>
     <use xlink:href="#me5b44a6d8f" x="331.180017" y="211.872041" style="fill: #1f77b4; stroke: #1f77b4"/>
     <use xlink:href="#me5b44a6d8f" x="333.864104" y="211.569433" style="fill: #1f77b4; stroke: #1f77b4"/>
     <use xlink:href="#me5b44a6d8f" x="336.326338" y="211.037096" style="fill: #1f77b4; stroke: #1f77b4"/>
     <use xlink:href="#me5b44a6d8f" x="337.647736" y="210.658051" style="fill: #1f77b4; stroke: #1f77b4"/>
     <use xlink:href="#me5b44a6d8f" x="339.121408" y="210.103642" style="fill: #1f77b4; stroke: #1f77b4"/>
     <use xlink:href="#me5b44a6d8f" x="342.11328" y="209.740211" style="fill: #1f77b4; stroke: #1f77b4"/>
     <use xlink:href="#me5b44a6d8f" x="343.281272" y="208.658477" style="fill: #1f77b4; stroke: #1f77b4"/>
     <use xlink:href="#me5b44a6d8f" x="346.067847" y="208.346833" style="fill: #1f77b4; stroke: #1f77b4"/>
     <use xlink:href="#me5b44a6d8f" x="347.593052" y="208.081902" style="fill: #1f77b4; stroke: #1f77b4"/>
     <use xlink:href="#me5b44a6d8f" x="348.749858" y="207.614481" style="fill: #1f77b4; stroke: #1f77b4"/>
     <use xlink:href="#me5b44a6d8f" x="73.234595" y="207.673597" style="fill: #1f77b4; stroke: #1f77b4"/>
     <use xlink:href="#me5b44a6d8f" x="74.026387" y="207.680097" style="fill: #1f77b4; stroke: #1f77b4"/>
     <use xlink:href="#me5b44a6d8f" x="75.113792" y="207.359491" style="fill: #1f77b4; stroke: #1f77b4"/>
     <use xlink:href="#me5b44a6d8f" x="78.216837" y="207.442301" style="fill: #1f77b4; stroke: #1f77b4"/>
     <use xlink:href="#me5b44a6d8f" x="79.308467" y="206.93116" style="fill: #1f77b4; stroke: #1f77b4"/>
     <use xlink:href="#me5b44a6d8f" x="83.337427" y="207.004626" style="fill: #1f77b4; stroke: #1f77b4"/>
     <use xlink:href="#me5b44a6d8f" x="84.678184" y="206.942858" style="fill: #1f77b4; stroke: #1f77b4"/>
     <use xlink:href="#me5b44a6d8f" x="85.424089" y="207.038049" style="fill: #1f77b4; stroke: #1f77b4"/>
     <use xlink:href="#me5b44a6d8f" x="88.785759" y="206.978155" style="fill: #1f77b4; stroke: #1f77b4"/>
     <use xlink:href="#me5b44a6d8f" x="89.997485" y="207.502911" style="fill: #1f77b4; stroke: #1f77b4"/>
     <use xlink:href="#me5b44a6d8f" x="92.322746" y="207.815285" style="fill: #1f77b4; stroke: #1f77b4"/>
     <use xlink:href="#me5b44a6d8f" x="94.081382" y="207.961822" style="fill: #1f77b4; stroke: #1f77b4"/>
     <use xlink:href="#me5b44a6d8f" x="97.843393" y="208.068314" style="fill: #1f77b4; stroke: #1f77b4"/>
     <use xlink:href="#me5b44a6d8f" x="99.774863" y="208.880393" style="fill: #1f77b4; stroke: #1f77b4"/>
     <use xlink:href="#me5b44a6d8f" x="104.787966" y="209.544355" style="fill: #1f77b4; stroke: #1f77b4"/>
     <use xlink:href="#me5b44a6d8f" x="105.570548" y="210.056922" style="fill: #1f77b4; stroke: #1f77b4"/>
     <use xlink:href="#me5b44a6d8f" x="110.749617" y="211.092517" style="fill: #1f77b4; stroke: #1f77b4"/>
     <use xlink:href="#me5b44a6d8f" x="113.694109" y="211.799511" style="fill: #1f77b4; stroke: #1f77b4"/>
     <use xlink:href="#me5b44a6d8f" x="115.191427" y="211.887002" style="fill: #1f77b4; stroke: #1f77b4"/>
     <use xlink:href="#me5b44a6d8f" x="116.260102" y="211.045419" style="fill: #1f77b4; stroke: #1f77b4"/>
     <use xlink:href="#me5b44a6d8f" x="120.061881" y="212.639215" style="fill: #1f77b4; stroke: #1f77b4"/>
     <use xlink:href="#me5b44a6d8f" x="121.232812" y="212.870331" style="fill: #1f77b4; stroke: #1f77b4"/>
     <use xlink:href="#me5b44a6d8f" x="122.040104" y="210.919009" style="fill: #1f77b4; stroke: #1f77b4"/>
     <use xlink:href="#me5b44a6d8f" x="124.728815" y="208.813505" style="fill: #1f77b4; stroke: #1f77b4"/>
     <use xlink:href="#me5b44a6d8f" x="127.285795" y="208.833754" style="fill: #1f77b4; stroke: #1f77b4"/>
     <use xlink:href="#me5b44a6d8f" x="129.546272" y="206.465774" style="fill: #1f77b4; stroke: #1f77b4"/>
     <use xlink:href="#me5b44a6d8f" x="133.167801" y="208.288929" style="fill: #1f77b4; stroke: #1f77b4"/>
     <use xlink:href="#me5b44a6d8f" x="134.169896" y="206.08988" style="fill: #1f77b4; stroke: #1f77b4"/>
     <use xlink:href="#me5b44a6d8f" x="134.885234" y="204.042364" style="fill: #1f77b4; stroke: #1f77b4"/>
     <use xlink:href="#me5b44a6d8f" x="138.717606" y="197.949063" style="fill: #1f77b4; stroke: #1f77b4"/>
     <use xlink:href="#me5b44a6d8f" x="140.298498" y="197.147084" style="fill: #1f77b4; stroke: #1f77b4"/>
     <use xlink:href="#me5b44a6d8f" x="144.022032" y="192.633471" style="fill: #1f77b4; stroke: #1f77b4"/>
     <use xlink:href="#me5b44a6d8f" x="149.224832" y="187.852143" style="fill: #1f77b4; stroke: #1f77b4"/>
     <use xlink:href="#me5b44a6d8f" x="149.780432" y="186.798311" style="fill: #1f77b4; stroke: #1f77b4"/>
     <use xlink:href="#me5b44a6d8f" x="154.227393" y="180.691771" style="fill: #1f77b4; stroke: #1f77b4"/>
     <use xlink:href="#me5b44a6d8f" x="155.27849" y="168.791773" style="fill: #1f77b4; stroke: #1f77b4"/>
     <use xlink:href="#me5b44a6d8f" x="157.368847" y="160.73923" style="fill: #1f77b4; stroke: #1f77b4"/>
     <use xlink:href="#me5b44a6d8f" x="159.484364" y="149.179927" style="fill: #1f77b4; stroke: #1f77b4"/>
     <use xlink:href="#me5b44a6d8f" x="163.705297" y="142.999406" style="fill: #1f77b4; stroke: #1f77b4"/>
     <use xlink:href="#me5b44a6d8f" x="163.997856" y="129.92917" style="fill: #1f77b4; stroke: #1f77b4"/>
     <use xlink:href="#me5b44a6d8f" x="165.549037" y="130.001668" style="fill: #1f77b4; stroke: #1f77b4"/>
     <use xlink:href="#me5b44a6d8f" x="170.923194" y="125.59588" style="fill: #1f77b4; stroke: #1f77b4"/>
     <use xlink:href="#me5b44a6d8f" x="172.126382" y="118.790557" style="fill: #1f77b4; stroke: #1f77b4"/>
     <use xlink:href="#me5b44a6d8f" x="175.535618" y="110.377446" style="fill: #1f77b4; stroke: #1f77b4"/>
     <use xlink:href="#me5b44a6d8f" x="178.94102" y="100.073736" style="fill: #1f77b4; stroke: #1f77b4"/>
     <use xlink:href="#me5b44a6d8f" x="180.17744" y="85.991768" style="fill: #1f77b4; stroke: #1f77b4"/>
     <use xlink:href="#me5b44a6d8f" x="182.310839" y="69.711748" style="fill: #1f77b4; stroke: #1f77b4"/>
     <use xlink:href="#me5b44a6d8f" x="184.554819" y="66.074348" style="fill: #1f77b4; stroke: #1f77b4"/>
     <use xlink:href="#me5b44a6d8f" x="189.274397" y="59.413597" style="fill: #1f77b4; stroke: #1f77b4"/>
     <use xlink:href="#me5b44a6d8f" x="191.866042" y="50.744497" style="fill: #1f77b4; stroke: #1f77b4"/>
     <use xlink:href="#me5b44a6d8f" x="194.245358" y="45.921155" style="fill: #1f77b4; stroke: #1f77b4"/>
     <use xlink:href="#me5b44a6d8f" x="198.369694" y="38.938315" style="fill: #1f77b4; stroke: #1f77b4"/>
     <use xlink:href="#me5b44a6d8f" x="199.847257" y="35.743731" style="fill: #1f77b4; stroke: #1f77b4"/>
     <use xlink:href="#me5b44a6d8f" x="201.109831" y="27.284028" style="fill: #1f77b4; stroke: #1f77b4"/>
     <use xlink:href="#me5b44a6d8f" x="204.5209" y="22.013257" style="fill: #1f77b4; stroke: #1f77b4"/>
     <use xlink:href="#me5b44a6d8f" x="209.685" y="17.90949" style="fill: #1f77b4; stroke: #1f77b4"/>
     <use xlink:href="#me5b44a6d8f" x="212.716088" y="17.28" style="fill: #1f77b4; stroke: #1f77b4"/>
     <use xlink:href="#me5b44a6d8f" x="215.01423" y="24.135129" style="fill: #1f77b4; stroke: #1f77b4"/>
     <use xlink:href="#me5b44a6d8f" x="219.990924" y="25.961208" style="fill: #1f77b4; stroke: #1f77b4"/>
     <use xlink:href="#me5b44a6d8f" x="225.394828" y="34.510928" style="fill: #1f77b4; stroke: #1f77b4"/>
     <use xlink:href="#me5b44a6d8f" x="226.479825" y="34.804501" style="fill: #1f77b4; stroke: #1f77b4"/>
     <use xlink:href="#me5b44a6d8f" x="230.224882" y="43.242454" style="fill: #1f77b4; stroke: #1f77b4"/>
     <use xlink:href="#me5b44a6d8f" x="230.27747" y="47.142391" style="fill: #1f77b4; stroke: #1f77b4"/>
     <use xlink:href="#me5b44a6d8f" x="233.88027" y="55.564903" style="fill: #1f77b4; stroke: #1f77b4"/>
     <use xlink:href="#me5b44a6d8f" x="235.092017" y="63.231734" style="fill: #1f77b4; stroke: #1f77b4"/>
     <use xlink:href="#me5b44a6d8f" x="238.690223" y="67.883852" style="fill: #1f77b4; stroke: #1f77b4"/>
     <use xlink:href="#me5b44a6d8f" x="242.754831" y="85.255259" style="fill: #1f77b4; stroke: #1f77b4"/>
     <use xlink:href="#me5b44a6d8f" x="244.913638" y="107.468259" style="fill: #1f77b4; stroke: #1f77b4"/>
     <use xlink:href="#me5b44a6d8f" x="251.42142" y="122.892061" style="fill: #1f77b4; stroke: #1f77b4"/>
     <use xlink:href="#me5b44a6d8f" x="255.424416" y="131.263504" style="fill: #1f77b4; stroke: #1f77b4"/>
     <use xlink:href="#me5b44a6d8f" x="259.328842" y="145.233824" style="fill: #1f77b4; stroke: #1f77b4"/>
     <use xlink:href="#me5b44a6d8f" x="259.381091" y="155.814997" style="fill: #1f77b4; stroke: #1f77b4"/>
     <use xlink:href="#me5b44a6d8f" x="260.082222" y="164.395471" style="fill: #1f77b4; stroke: #1f77b4"/>
     <use xlink:href="#me5b44a6d8f" x="263.912403" y="172.77348" style="fill: #1f77b4; stroke: #1f77b4"/>
     <use xlink:href="#me5b44a6d8f" x="265.777401" y="176.955012" style="fill: #1f77b4; stroke: #1f77b4"/>
     <use xlink:href="#me5b44a6d8f" x="268.136158" y="183.245359" style="fill: #1f77b4; stroke: #1f77b4"/>
     <use xlink:href="#me5b44a6d8f" x="268.896892" y="186.494729" style="fill: #1f77b4; stroke: #1f77b4"/>
     <use xlink:href="#me5b44a6d8f" x="273.603925" y="193.139396" style="fill: #1f77b4; stroke: #1f77b4"/>
     <use xlink:href="#me5b44a6d8f" x="274.689928" y="199.37642" style="fill: #1f77b4; stroke: #1f77b4"/>
     <use xlink:href="#me5b44a6d8f" x="279.224019" y="196.418775" style="fill: #1f77b4; stroke: #1f77b4"/>
     <use xlink:href="#me5b44a6d8f" x="280.203614" y="200.061019" style="fill: #1f77b4; stroke: #1f77b4"/>
     <use xlink:href="#me5b44a6d8f" x="283.013534" y="205.731999" style="fill: #1f77b4; stroke: #1f77b4"/>
     <use xlink:href="#me5b44a6d8f" x="284.615166" y="211.397539" style="fill: #1f77b4; stroke: #1f77b4"/>
     <use xlink:href="#me5b44a6d8f" x="289.41943" y="212.325074" style="fill: #1f77b4; stroke: #1f77b4"/>
     <use xlink:href="#me5b44a6d8f" x="290.219624" y="216.393585" style="fill: #1f77b4; stroke: #1f77b4"/>
     <use xlink:href="#me5b44a6d8f" x="295.918447" y="216.288379" style="fill: #1f77b4; stroke: #1f77b4"/>
     <use xlink:href="#me5b44a6d8f" x="299.287206" y="217.115209" style="fill: #1f77b4; stroke: #1f77b4"/>
     <use xlink:href="#me5b44a6d8f" x="301.86201" y="217.761492" style="fill: #1f77b4; stroke: #1f77b4"/>
     <use xlink:href="#me5b44a6d8f" x="301.913176" y="218.28627" style="fill: #1f77b4; stroke: #1f77b4"/>
     <use xlink:href="#me5b44a6d8f" x="305.13902" y="218.683088" style="fill: #1f77b4; stroke: #1f77b4"/>
     <use xlink:href="#me5b44a6d8f" x="307.0522" y="218.88" style="fill: #1f77b4; stroke: #1f77b4"/>
     <use xlink:href="#me5b44a6d8f" x="311.596653" y="218.739561" style="fill: #1f77b4; stroke: #1f77b4"/>
     <use xlink:href="#me5b44a6d8f" x="316.141106" y="218.058834" style="fill: #1f77b4; stroke: #1f77b4"/>
     <use xlink:href="#me5b44a6d8f" x="580.913176" y="218.496597" style="fill: #1f77b4; stroke: #1f77b4"/>
    </g>
   </g>
   <g id="matplotlib.axis_1">
    <g id="xtick_1">
     <g id="line2d_1">
      <defs>
       <path id="m566feb3065" d="M 0 0 
L 0 3.5 
" style="stroke: #000000; stroke-width: 0.8"/>
      </defs>
      <g>
       <use xlink:href="#m566feb3065" x="45.316088" y="228.96" style="stroke: #000000; stroke-width: 0.8"/>
      </g>
     </g>
     <g id="text_1">
      <!-- $\mathdefault{−0.6}$ -->
      <g transform="translate(35.076677 243.05832) scale(0.1 -0.1)">
       <defs>
        <path id="CMSY10-0" d="M 4218 1472 
C 4326 1472 4442 1472 4442 1600 
C 4442 1728 4326 1728 4218 1728 
L 755 1728 
C 646 1728 531 1728 531 1600 
C 531 1472 646 1472 755 1472 
L 4218 1472 
z
" transform="scale(0.015625)"/>
        <path id="CMR17-30" d="M 2688 2038 
C 2688 2430 2682 3099 2413 3613 
C 2176 4063 1798 4224 1466 4224 
C 1158 4224 768 4082 525 3620 
C 269 3137 243 2539 243 2038 
C 243 1671 250 1112 448 623 
C 723 -39 1216 -128 1466 -128 
C 1760 -128 2208 -7 2470 604 
C 2662 1048 2688 1568 2688 2038 
z
M 1466 -26 
C 1056 -26 813 328 723 816 
C 653 1196 653 1749 653 2109 
C 653 2604 653 3015 736 3407 
C 858 3954 1216 4121 1466 4121 
C 1728 4121 2067 3947 2189 3420 
C 2272 3054 2278 2623 2278 2109 
C 2278 1691 2278 1176 2202 797 
C 2067 96 1690 -26 1466 -26 
z
" transform="scale(0.015625)"/>
        <path id="CMMI12-3a" d="M 1178 307 
C 1178 492 1024 620 870 620 
C 685 620 557 467 557 313 
C 557 128 710 0 864 0 
C 1050 0 1178 153 1178 307 
z
" transform="scale(0.015625)"/>
        <path id="CMR17-36" d="M 678 2198 
C 678 3712 1395 4076 1811 4076 
C 1946 4076 2272 4049 2400 3782 
C 2298 3782 2106 3782 2106 3558 
C 2106 3385 2246 3328 2336 3328 
C 2394 3328 2566 3353 2566 3571 
C 2566 3987 2246 4224 1805 4224 
C 1043 4224 243 3411 243 2011 
C 243 257 966 -128 1478 -128 
C 2099 -128 2688 431 2688 1295 
C 2688 2101 2170 2688 1517 2688 
C 1126 2688 838 2430 678 1979 
L 678 2198 
z
M 1478 25 
C 691 25 691 1212 691 1450 
C 691 1914 909 2585 1504 2585 
C 1613 2585 1926 2585 2138 2140 
C 2253 1889 2253 1624 2253 1302 
C 2253 954 2253 696 2118 438 
C 1978 173 1773 25 1478 25 
z
" transform="scale(0.015625)"/>
       </defs>
       <use xlink:href="#CMSY10-0" transform="scale(0.996264)"/>
       <use xlink:href="#CMR17-30" transform="translate(77.487468 0) scale(0.996264)"/>
       <use xlink:href="#CMMI12-3a" transform="translate(123.177945 0) scale(0.996264)"/>
       <use xlink:href="#CMR17-36" transform="translate(150.275122 0) scale(0.996264)"/>
      </g>
     </g>
    </g>
    <g id="xtick_2">
     <g id="line2d_2">
      <g>
       <use xlink:href="#m566feb3065" x="101.116088" y="228.96" style="stroke: #000000; stroke-width: 0.8"/>
      </g>
     </g>
     <g id="text_2">
      <!-- $\mathdefault{−0.4}$ -->
      <g transform="translate(90.876677 243.05832) scale(0.1 -0.1)">
       <defs>
        <path id="CMR17-34" d="M 2150 4147 
C 2150 4281 2144 4288 2029 4288 
L 128 1254 
L 128 1088 
L 1779 1088 
L 1779 460 
C 1779 230 1766 166 1318 166 
L 1197 166 
L 1197 0 
C 1402 12 1747 12 1965 12 
C 2182 12 2528 12 2733 0 
L 2733 166 
L 2611 166 
C 2163 166 2150 230 2150 460 
L 2150 1088 
L 2803 1088 
L 2803 1254 
L 2150 1254 
L 2150 4147 
z
M 1798 3723 
L 1798 1254 
L 256 1254 
L 1798 3723 
z
" transform="scale(0.015625)"/>
       </defs>
       <use xlink:href="#CMSY10-0" transform="scale(0.996264)"/>
       <use xlink:href="#CMR17-30" transform="translate(77.487468 0) scale(0.996264)"/>
       <use xlink:href="#CMMI12-3a" transform="translate(123.177945 0) scale(0.996264)"/>
       <use xlink:href="#CMR17-34" transform="translate(150.275122 0) scale(0.996264)"/>
      </g>
     </g>
    </g>
    <g id="xtick_3">
     <g id="line2d_3">
      <g>
       <use xlink:href="#m566feb3065" x="156.916088" y="228.96" style="stroke: #000000; stroke-width: 0.8"/>
      </g>
     </g>
     <g id="text_3">
      <!-- $\mathdefault{−0.2}$ -->
      <g transform="translate(146.676677 243.05832) scale(0.1 -0.1)">
       <defs>
        <path id="CMR17-32" d="M 2669 990 
L 2554 990 
C 2490 537 2438 460 2413 422 
C 2381 371 1920 371 1830 371 
L 602 371 
C 832 620 1280 1073 1824 1596 
C 2214 1966 2669 2400 2669 3033 
C 2669 3788 2067 4224 1395 4224 
C 691 4224 262 3603 262 3027 
C 262 2777 448 2745 525 2745 
C 589 2745 781 2783 781 3007 
C 781 3206 614 3264 525 3264 
C 486 3264 448 3257 422 3244 
C 544 3788 915 4057 1306 4057 
C 1862 4057 2227 3616 2227 3033 
C 2227 2477 1901 1998 1536 1583 
L 262 147 
L 262 0 
L 2515 0 
L 2669 990 
z
" transform="scale(0.015625)"/>
       </defs>
       <use xlink:href="#CMSY10-0" transform="scale(0.996264)"/>
       <use xlink:href="#CMR17-30" transform="translate(77.487468 0) scale(0.996264)"/>
       <use xlink:href="#CMMI12-3a" transform="translate(123.177945 0) scale(0.996264)"/>
       <use xlink:href="#CMR17-32" transform="translate(150.275122 0) scale(0.996264)"/>
      </g>
     </g>
    </g>
    <g id="xtick_4">
     <g id="line2d_4">
      <g>
       <use xlink:href="#m566feb3065" x="212.716088" y="228.96" style="stroke: #000000; stroke-width: 0.8"/>
      </g>
     </g>
     <g id="text_4">
      <!-- $\mathdefault{0.0}$ -->
      <g transform="translate(206.351049 243.05832) scale(0.1 -0.1)">
       <use xlink:href="#CMR17-30" transform="scale(0.996264)"/>
       <use xlink:href="#CMMI12-3a" transform="translate(45.690477 0) scale(0.996264)"/>
       <use xlink:href="#CMR17-30" transform="translate(72.787654 0) scale(0.996264)"/>
      </g>
     </g>
    </g>
    <g id="xtick_5">
     <g id="line2d_5">
      <g>
       <use xlink:href="#m566feb3065" x="268.516088" y="228.96" style="stroke: #000000; stroke-width: 0.8"/>
      </g>
     </g>
     <g id="text_5">
      <!-- $\mathdefault{0.2}$ -->
      <g transform="translate(262.151049 243.05832) scale(0.1 -0.1)">
       <use xlink:href="#CMR17-30" transform="scale(0.996264)"/>
       <use xlink:href="#CMMI12-3a" transform="translate(45.690477 0) scale(0.996264)"/>
       <use xlink:href="#CMR17-32" transform="translate(72.787654 0) scale(0.996264)"/>
      </g>
     </g>
    </g>
    <g id="xtick_6">
     <g id="line2d_6">
      <g>
       <use xlink:href="#m566feb3065" x="324.316088" y="228.96" style="stroke: #000000; stroke-width: 0.8"/>
      </g>
     </g>
     <g id="text_6">
      <!-- $\mathdefault{0.4}$ -->
      <g transform="translate(317.951049 243.05832) scale(0.1 -0.1)">
       <use xlink:href="#CMR17-30" transform="scale(0.996264)"/>
       <use xlink:href="#CMMI12-3a" transform="translate(45.690477 0) scale(0.996264)"/>
       <use xlink:href="#CMR17-34" transform="translate(72.787654 0) scale(0.996264)"/>
      </g>
     </g>
    </g>
    <g id="xtick_7">
     <g id="line2d_7">
      <g>
       <use xlink:href="#m566feb3065" x="380.116088" y="228.96" style="stroke: #000000; stroke-width: 0.8"/>
      </g>
     </g>
     <g id="text_7">
      <!-- $\mathdefault{0.6}$ -->
      <g transform="translate(373.751049 243.05832) scale(0.1 -0.1)">
       <use xlink:href="#CMR17-30" transform="scale(0.996264)"/>
       <use xlink:href="#CMMI12-3a" transform="translate(45.690477 0) scale(0.996264)"/>
       <use xlink:href="#CMR17-36" transform="translate(72.787654 0) scale(0.996264)"/>
      </g>
     </g>
    </g>
    <g id="text_8">
     <!-- y/pitch -->
     <g transform="translate(198.320259 256.462994) scale(0.1 -0.1)">
      <defs>
       <path id="NimbusSanL-Regu-79" d="M 2483 3328 
L 1555 724 
L 698 3328 
L 128 3328 
L 1261 -29 
L 1056 -558 
C 973 -794 851 -884 627 -884 
C 550 -884 461 -871 346 -845 
L 346 -1325 
C 454 -1383 563 -1408 704 -1408 
C 877 -1408 1062 -1351 1203 -1248 
C 1370 -1127 1466 -986 1568 -718 
L 3059 3328 
L 2483 3328 
z
" transform="scale(0.015625)"/>
       <path id="NimbusSanL-Regu-2f" d="M 1466 4672 
L -51 -128 
L 301 -128 
L 1818 4672 
L 1466 4672 
z
" transform="scale(0.015625)"/>
       <path id="NimbusSanL-Regu-70" d="M 346 -1408 
L 883 -1408 
L 883 371 
C 1165 25 1478 -128 1914 -128 
C 2778 -128 3347 568 3347 1632 
C 3347 2752 2797 3456 1907 3456 
C 1453 3456 1088 3251 838 2854 
L 838 3359 
L 346 3359 
L 346 -1408 
z
M 1818 2956 
C 2406 2956 2790 2440 2790 1644 
C 2790 887 2400 371 1818 371 
C 1254 371 883 880 883 1663 
C 883 2447 1254 2956 1818 2956 
z
" transform="scale(0.015625)"/>
       <path id="NimbusSanL-Regu-69" d="M 960 3358 
L 429 3358 
L 429 0 
L 960 0 
L 960 3358 
z
M 960 4672 
L 422 4672 
L 422 3999 
L 960 3999 
L 960 4672 
z
" transform="scale(0.015625)"/>
       <path id="NimbusSanL-Regu-74" d="M 1626 3328 
L 1075 3328 
L 1075 4249 
L 544 4249 
L 544 3328 
L 90 3328 
L 90 2892 
L 544 2892 
L 544 402 
C 544 64 774 -128 1190 -128 
C 1318 -128 1446 -116 1626 -84 
L 1626 364 
C 1555 345 1472 339 1370 339 
C 1139 339 1075 402 1075 634 
L 1075 2892 
L 1626 2892 
L 1626 3328 
z
" transform="scale(0.015625)"/>
       <path id="NimbusSanL-Regu-63" d="M 3014 2237 
C 2989 2561 2918 2771 2790 2956 
C 2560 3270 2157 3456 1690 3456 
C 787 3456 198 2740 198 1632 
C 198 555 774 -128 1683 -128 
C 2483 -128 2989 352 3053 1167 
L 2515 1167 
C 2426 632 2150 364 1696 364 
C 1107 364 755 842 755 1632 
C 755 2466 1101 2963 1683 2963 
C 2131 2963 2413 2701 2477 2237 
L 3014 2237 
z
" transform="scale(0.015625)"/>
       <path id="NimbusSanL-Regu-68" d="M 448 4672 
L 448 0 
L 979 0 
L 979 1853 
C 979 2539 1338 2988 1888 2988 
C 2061 2988 2234 2930 2362 2834 
C 2515 2725 2579 2565 2579 2328 
L 2579 0 
L 3110 0 
L 3110 2539 
C 3110 3103 2707 3456 2054 3456 
C 1581 3456 1293 3308 979 2898 
L 979 4672 
L 448 4672 
z
" transform="scale(0.015625)"/>
      </defs>
      <use xlink:href="#NimbusSanL-Regu-79" transform="scale(0.996264)"/>
      <use xlink:href="#NimbusSanL-Regu-2f" transform="translate(49.8132 0) scale(0.996264)"/>
      <use xlink:href="#NimbusSanL-Regu-70" transform="translate(77.50837 0) scale(0.996264)"/>
      <use xlink:href="#NimbusSanL-Regu-69" transform="translate(132.900047 0) scale(0.996264)"/>
      <use xlink:href="#NimbusSanL-Regu-74" transform="translate(155.016831 0) scale(0.996264)"/>
      <use xlink:href="#NimbusSanL-Regu-63" transform="translate(182.712001 0) scale(0.996264)"/>
      <use xlink:href="#NimbusSanL-Regu-68" transform="translate(232.525202 0) scale(0.996264)"/>
     </g>
    </g>
   </g>
   <g id="matplotlib.axis_2">
    <g id="ytick_1">
     <g id="line2d_8">
      <defs>
       <path id="mb76837ebd1" d="M 0 0 
L -3.5 0 
" style="stroke: #000000; stroke-width: 0.8"/>
      </defs>
      <g>
       <use xlink:href="#mb76837ebd1" x="45.316088" y="212.121132" style="stroke: #000000; stroke-width: 0.8"/>
      </g>
     </g>
     <g id="text_9">
      <!-- $\mathdefault{0.00}$ -->
      <g style="fill: #1f77b4" transform="translate(20.604674 215.670292) scale(0.1 -0.1)">
       <use xlink:href="#CMR17-30" transform="scale(0.996264)"/>
       <use xlink:href="#CMMI12-3a" transform="translate(45.690477 0) scale(0.996264)"/>
       <use xlink:href="#CMR17-30" transform="translate(72.787654 0) scale(0.996264)"/>
       <use xlink:href="#CMR17-30" transform="translate(118.478131 0) scale(0.996264)"/>
      </g>
     </g>
    </g>
    <g id="ytick_2">
     <g id="line2d_9">
      <g>
       <use xlink:href="#mb76837ebd1" x="45.316088" y="172.38393" style="stroke: #000000; stroke-width: 0.8"/>
      </g>
     </g>
     <g id="text_10">
      <!-- $\mathdefault{0.01}$ -->
      <g style="fill: #1f77b4" transform="translate(20.604674 175.93309) scale(0.1 -0.1)">
       <defs>
        <path id="CMR17-31" d="M 1702 4083 
C 1702 4217 1696 4224 1606 4224 
C 1357 3927 979 3833 621 3820 
C 602 3820 570 3820 563 3808 
C 557 3795 557 3782 557 3648 
C 755 3648 1088 3686 1344 3839 
L 1344 467 
C 1344 243 1331 166 781 166 
L 589 166 
L 589 0 
C 896 6 1216 12 1523 12 
C 1830 12 2150 6 2458 0 
L 2458 166 
L 2266 166 
C 1715 166 1702 236 1702 467 
L 1702 4083 
z
" transform="scale(0.015625)"/>
       </defs>
       <use xlink:href="#CMR17-30" transform="scale(0.996264)"/>
       <use xlink:href="#CMMI12-3a" transform="translate(45.690477 0) scale(0.996264)"/>
       <use xlink:href="#CMR17-30" transform="translate(72.787654 0) scale(0.996264)"/>
       <use xlink:href="#CMR17-31" transform="translate(118.478131 0) scale(0.996264)"/>
      </g>
     </g>
    </g>
    <g id="ytick_3">
     <g id="line2d_10">
      <g>
       <use xlink:href="#mb76837ebd1" x="45.316088" y="132.646727" style="stroke: #000000; stroke-width: 0.8"/>
      </g>
     </g>
     <g id="text_11">
      <!-- $\mathdefault{0.02}$ -->
      <g style="fill: #1f77b4" transform="translate(20.604674 136.195888) scale(0.1 -0.1)">
       <use xlink:href="#CMR17-30" transform="scale(0.996264)"/>
       <use xlink:href="#CMMI12-3a" transform="translate(45.690477 0) scale(0.996264)"/>
       <use xlink:href="#CMR17-30" transform="translate(72.787654 0) scale(0.996264)"/>
       <use xlink:href="#CMR17-32" transform="translate(118.478131 0) scale(0.996264)"/>
      </g>
     </g>
    </g>
    <g id="ytick_4">
     <g id="line2d_11">
      <g>
       <use xlink:href="#mb76837ebd1" x="45.316088" y="92.909525" style="stroke: #000000; stroke-width: 0.8"/>
      </g>
     </g>
     <g id="text_12">
      <!-- $\mathdefault{0.03}$ -->
      <g style="fill: #1f77b4" transform="translate(20.604674 96.458685) scale(0.1 -0.1)">
       <defs>
        <path id="CMR17-33" d="M 1414 2176 
C 1984 2176 2234 1673 2234 1094 
C 2234 322 1824 25 1453 25 
C 1114 25 563 193 390 691 
C 422 678 454 678 486 678 
C 640 678 755 780 755 947 
C 755 1132 614 1216 486 1216 
C 378 1216 211 1164 211 927 
C 211 335 787 -128 1466 -128 
C 2176 -128 2720 432 2720 1087 
C 2720 1718 2208 2176 1600 2246 
C 2086 2347 2554 2776 2554 3353 
C 2554 3856 2048 4224 1472 4224 
C 890 4224 378 3862 378 3347 
C 378 3123 544 3084 627 3084 
C 762 3084 877 3167 877 3334 
C 877 3500 762 3584 627 3584 
C 602 3584 570 3584 544 3571 
C 730 3999 1235 4076 1459 4076 
C 1683 4076 2106 3966 2106 3347 
C 2106 3167 2080 2851 1862 2574 
C 1670 2329 1453 2316 1242 2297 
C 1210 2297 1062 2284 1037 2284 
C 992 2278 966 2272 966 2227 
C 966 2182 973 2176 1101 2176 
L 1414 2176 
z
" transform="scale(0.015625)"/>
       </defs>
       <use xlink:href="#CMR17-30" transform="scale(0.996264)"/>
       <use xlink:href="#CMMI12-3a" transform="translate(45.690477 0) scale(0.996264)"/>
       <use xlink:href="#CMR17-30" transform="translate(72.787654 0) scale(0.996264)"/>
       <use xlink:href="#CMR17-33" transform="translate(118.478131 0) scale(0.996264)"/>
      </g>
     </g>
    </g>
    <g id="ytick_5">
     <g id="line2d_12">
      <g>
       <use xlink:href="#mb76837ebd1" x="45.316088" y="53.172323" style="stroke: #000000; stroke-width: 0.8"/>
      </g>
     </g>
     <g id="text_13">
      <!-- $\mathdefault{0.04}$ -->
      <g style="fill: #1f77b4" transform="translate(20.604674 56.721483) scale(0.1 -0.1)">
       <use xlink:href="#CMR17-30" transform="scale(0.996264)"/>
       <use xlink:href="#CMMI12-3a" transform="translate(45.690477 0) scale(0.996264)"/>
       <use xlink:href="#CMR17-30" transform="translate(72.787654 0) scale(0.996264)"/>
       <use xlink:href="#CMR17-34" transform="translate(118.478131 0) scale(0.996264)"/>
      </g>
     </g>
    </g>
    <g id="ytick_6">
     <g id="line2d_13">
      <g>
       <use xlink:href="#mb76837ebd1" x="45.316088" y="13.43512" style="stroke: #000000; stroke-width: 0.8"/>
      </g>
     </g>
     <g id="text_14">
      <!-- $\mathdefault{0.05}$ -->
      <g style="fill: #1f77b4" transform="translate(20.604674 16.984281) scale(0.1 -0.1)">
       <defs>
        <path id="CMR17-35" d="M 730 3750 
C 794 3724 1056 3641 1325 3641 
C 1920 3641 2246 3961 2432 4140 
C 2432 4191 2432 4224 2394 4224 
C 2387 4224 2374 4224 2323 4198 
C 2099 4102 1837 4032 1517 4032 
C 1325 4032 1037 4055 723 4191 
C 653 4224 640 4224 634 4224 
C 602 4224 595 4217 595 4090 
L 595 2231 
C 595 2113 595 2080 659 2080 
C 691 2080 704 2093 736 2139 
C 941 2435 1222 2560 1542 2560 
C 1766 2560 2246 2415 2246 1293 
C 2246 1087 2246 716 2054 422 
C 1894 159 1645 25 1370 25 
C 947 25 518 319 403 812 
C 429 806 480 793 506 793 
C 589 793 749 838 749 1036 
C 749 1209 627 1280 506 1280 
C 358 1280 262 1190 262 1011 
C 262 454 704 -128 1382 -128 
C 2042 -128 2669 441 2669 1267 
C 2669 2054 2170 2662 1549 2662 
C 1222 2662 947 2540 730 2304 
L 730 3750 
z
" transform="scale(0.015625)"/>
       </defs>
       <use xlink:href="#CMR17-30" transform="scale(0.996264)"/>
       <use xlink:href="#CMMI12-3a" transform="translate(45.690477 0) scale(0.996264)"/>
       <use xlink:href="#CMR17-30" transform="translate(72.787654 0) scale(0.996264)"/>
       <use xlink:href="#CMR17-35" transform="translate(118.478131 0) scale(0.996264)"/>
      </g>
     </g>
    </g>
    <g id="text_15">
     <!-- SU2 total pressure loss - Blade_0 -->
     <g style="fill: #1f77b4" transform="translate(14.482687 191.299468) rotate(-90) scale(0.1 -0.1)">
      <defs>
       <path id="NimbusSanL-Regu-53" d="M 3814 3295 
C 3808 4204 3181 4736 2106 4736 
C 1082 4736 448 4211 448 3372 
C 448 2806 749 2450 1363 2291 
L 2522 1986 
C 3110 1833 3379 1598 3379 1236 
C 3379 988 3245 733 3046 593 
C 2861 466 2566 396 2189 396 
C 1683 396 1338 517 1114 784 
C 941 988 864 1210 870 1496 
L 307 1496 
C 314 1070 397 790 582 536 
C 902 102 1440 -128 2150 -128 
C 2707 -128 3162 0 3462 230 
C 3776 479 3974 892 3974 1293 
C 3974 1865 3616 2284 2982 2456 
L 1811 2768 
C 1248 2920 1043 3098 1043 3454 
C 1043 3925 1459 4236 2086 4236 
C 2829 4236 3245 3899 3251 3295 
L 3814 3295 
z
" transform="scale(0.015625)"/>
       <path id="NimbusSanL-Regu-55" d="M 3533 4672 
L 3533 1404 
C 3533 779 3078 396 2330 396 
C 1984 396 1702 479 1478 639 
C 1248 817 1139 1053 1139 1404 
L 1139 4672 
L 544 4672 
L 544 1404 
C 544 460 1222 -128 2330 -128 
C 3424 -128 4128 473 4128 1404 
L 4128 4672 
L 3533 4672 
z
" transform="scale(0.015625)"/>
       <path id="NimbusSanL-Regu-32" d="M 3238 556 
L 851 556 
C 909 928 1114 1165 1670 1493 
L 2310 1839 
C 2944 2185 3270 2653 3270 3211 
C 3270 3589 3117 3942 2848 4185 
C 2579 4428 2246 4544 1818 4544 
C 1242 4544 813 4339 563 3955 
C 403 3711 333 3429 320 2967 
L 883 2967 
C 902 3275 941 3461 1018 3608 
C 1165 3884 1459 4051 1798 4051 
C 2310 4051 2694 3685 2694 3198 
C 2694 2839 2483 2531 2080 2300 
L 1491 1967 
C 544 1428 269 999 218 0 
L 3238 0 
L 3238 556 
z
" transform="scale(0.015625)"/>
       <path id="NimbusSanL-Regu-6f" d="M 1741 3456 
C 800 3456 230 2784 230 1663 
C 230 543 794 -128 1747 -128 
C 2688 -128 3264 543 3264 1638 
C 3264 2791 2707 3456 1741 3456 
z
M 1747 2963 
C 2349 2963 2707 2472 2707 1644 
C 2707 861 2336 364 1747 364 
C 1152 364 787 855 787 1663 
C 787 2466 1152 2963 1747 2963 
z
" transform="scale(0.015625)"/>
       <path id="NimbusSanL-Regu-61" d="M 3424 332 
C 3366 320 3341 320 3309 320 
C 3123 320 3021 415 3021 581 
L 3021 2542 
C 3021 3135 2586 3456 1760 3456 
C 1274 3456 870 3315 646 3065 
C 493 2893 429 2702 416 2370 
L 954 2370 
C 998 2778 1242 2963 1741 2963 
C 2221 2963 2490 2784 2490 2466 
L 2490 2326 
C 2490 2103 2355 2007 1933 1956 
C 1178 1861 1062 1835 858 1753 
C 467 1593 269 1294 269 861 
C 269 256 691 -128 1370 -128 
C 1792 -128 2131 19 2509 364 
C 2547 25 2714 -128 3059 -128 
C 3168 -128 3251 -116 3424 -71 
L 3424 332 
z
M 2490 1071 
C 2490 893 2438 785 2278 638 
C 2061 441 1798 339 1485 339 
C 1069 339 826 536 826 874 
C 826 1224 1062 1402 1632 1485 
C 2195 1562 2310 1587 2490 1670 
L 2490 1071 
z
" transform="scale(0.015625)"/>
       <path id="NimbusSanL-Regu-6c" d="M 973 4672 
L 435 4672 
L 435 0 
L 973 0 
L 973 4672 
z
" transform="scale(0.015625)"/>
       <path id="NimbusSanL-Regu-72" d="M 442 3328 
L 442 0 
L 979 0 
L 979 1727 
C 979 2203 1101 2514 1357 2698 
C 1523 2819 1683 2857 2054 2863 
L 2054 3404 
C 1965 3449 1920 3456 1850 3456 
C 1504 3456 1242 3251 934 2750 
L 934 3328 
L 442 3328 
z
" transform="scale(0.015625)"/>
       <path id="NimbusSanL-Regu-65" d="M 3283 1484 
C 3283 1998 3245 2311 3149 2565 
C 2931 3123 2419 3456 1792 3456 
C 858 3456 256 2734 256 1619 
C 256 545 838 -128 1779 -128 
C 2547 -128 3078 307 3213 1018 
L 2675 1018 
C 2528 588 2227 364 1798 364 
C 1459 364 1171 514 992 787 
C 864 974 819 1161 813 1484 
L 3283 1484 
z
M 826 1920 
C 870 2552 1248 2963 1786 2963 
C 2310 2963 2714 2519 2714 1959 
C 2714 1946 2714 1933 2707 1920 
L 826 1920 
z
" transform="scale(0.015625)"/>
       <path id="NimbusSanL-Regu-73" d="M 2803 2428 
C 2797 3084 2362 3456 1587 3456 
C 806 3456 301 3052 301 2434 
C 301 1912 570 1663 1363 1472 
L 1862 1351 
C 2234 1262 2381 1129 2381 887 
C 2381 574 2067 364 1600 364 
C 1312 364 1069 447 934 587 
C 851 683 813 778 781 1014 
L 218 1014 
C 243 243 678 -128 1555 -128 
C 2400 -128 2938 288 2938 931 
C 2938 1428 2656 1702 1990 1861 
L 1478 1982 
C 1043 2084 858 2224 858 2459 
C 858 2765 1133 2963 1568 2963 
C 1997 2963 2227 2778 2240 2428 
L 2803 2428 
z
" transform="scale(0.015625)"/>
       <path id="NimbusSanL-Regu-75" d="M 3085 19 
L 3085 3328 
L 2554 3328 
L 2554 1454 
C 2554 780 2195 339 1638 339 
C 1216 339 947 591 947 988 
L 947 3328 
L 416 3328 
L 416 780 
C 416 230 832 -128 1485 -128 
C 1978 -128 2291 44 2605 484 
L 2605 19 
L 3085 19 
z
" transform="scale(0.015625)"/>
       <path id="NimbusSanL-Regu-2d" d="M 1818 1996 
L 294 1996 
L 294 1536 
L 1818 1536 
L 1818 1996 
z
" transform="scale(0.015625)"/>
       <path id="NimbusSanL-Regu-42" d="M 506 0 
L 2611 0 
C 3053 0 3379 121 3629 390 
C 3859 632 3987 961 3987 1321 
C 3987 1878 3731 2214 3136 2444 
C 3558 2643 3782 2994 3782 3476 
C 3782 3821 3654 4127 3411 4345 
C 3168 4569 2848 4672 2400 4672 
L 506 4672 
L 506 0 
z
M 1101 2636 
L 1101 4147 
L 2253 4147 
C 2586 4147 2771 4101 2931 3977 
C 3098 3847 3187 3652 3187 3391 
C 3187 3138 3098 2936 2931 2806 
C 2771 2682 2586 2636 2253 2636 
L 1101 2636 
z
M 1101 524 
L 1101 2112 
L 2554 2112 
C 2842 2112 3034 2042 3174 1890 
C 3315 1745 3392 1542 3392 1315 
C 3392 1093 3315 891 3174 746 
C 3034 594 2842 524 2554 524 
L 1101 524 
z
" transform="scale(0.015625)"/>
       <path id="NimbusSanL-Regu-64" d="M 3168 4672 
L 2637 4672 
L 2637 2937 
C 2413 3276 2054 3456 1606 3456 
C 736 3456 166 2759 166 1695 
C 166 568 723 -128 1626 -128 
C 2086 -128 2406 44 2694 460 
L 2694 19 
L 3168 19 
L 3168 4672 
z
M 1696 2956 
C 2272 2956 2637 2447 2637 1651 
C 2637 880 2266 371 1702 371 
C 1114 371 723 887 723 1663 
C 723 2440 1114 2956 1696 2956 
z
" transform="scale(0.015625)"/>
       <path id="NimbusSanL-Regu-30" d="M 1760 4544 
C 1338 4544 954 4358 717 4044 
C 422 3649 275 3043 275 2207 
C 275 683 787 -128 1760 -128 
C 2720 -128 3245 683 3245 2169 
C 3245 3049 3104 3636 2803 4044 
C 2566 4364 2189 4544 1760 4544 
z
M 1760 4044 
C 2368 4044 2669 3432 2669 2220 
C 2669 938 2374 339 1747 339 
C 1152 339 851 964 851 2201 
C 851 3438 1152 4044 1760 4044 
z
" transform="scale(0.015625)"/>
      </defs>
      <use xlink:href="#NimbusSanL-Regu-53" transform="scale(0.996264)"/>
      <use xlink:href="#NimbusSanL-Regu-55" transform="translate(66.450031 0) scale(0.996264)"/>
      <use xlink:href="#NimbusSanL-Regu-32" transform="translate(138.380016 0) scale(0.996264)"/>
      <use xlink:href="#NimbusSanL-Regu-74" transform="translate(221.466863 0) scale(0.996264)"/>
      <use xlink:href="#NimbusSanL-Regu-6f" transform="translate(249.162032 0) scale(0.996264)"/>
      <use xlink:href="#NimbusSanL-Regu-74" transform="translate(304.553709 0) scale(0.996264)"/>
      <use xlink:href="#NimbusSanL-Regu-61" transform="translate(332.248879 0) scale(0.996264)"/>
      <use xlink:href="#NimbusSanL-Regu-6c" transform="translate(387.640556 0) scale(0.996264)"/>
      <use xlink:href="#NimbusSanL-Regu-70" transform="translate(437.45251 0) scale(0.996264)"/>
      <use xlink:href="#NimbusSanL-Regu-72" transform="translate(492.844187 0) scale(0.996264)"/>
      <use xlink:href="#NimbusSanL-Regu-65" transform="translate(526.019416 0) scale(0.996264)"/>
      <use xlink:href="#NimbusSanL-Regu-73" transform="translate(581.411093 0) scale(0.996264)"/>
      <use xlink:href="#NimbusSanL-Regu-73" transform="translate(631.224294 0) scale(0.996264)"/>
      <use xlink:href="#NimbusSanL-Regu-75" transform="translate(681.037494 0) scale(0.996264)"/>
      <use xlink:href="#NimbusSanL-Regu-72" transform="translate(736.429171 0) scale(0.996264)"/>
      <use xlink:href="#NimbusSanL-Regu-65" transform="translate(769.604401 0) scale(0.996264)"/>
      <use xlink:href="#NimbusSanL-Regu-6c" transform="translate(852.691248 0) scale(0.996264)"/>
      <use xlink:href="#NimbusSanL-Regu-6f" transform="translate(874.808032 0) scale(0.996264)"/>
      <use xlink:href="#NimbusSanL-Regu-73" transform="translate(930.199709 0) scale(0.996264)"/>
      <use xlink:href="#NimbusSanL-Regu-73" transform="translate(980.012909 0) scale(0.996264)"/>
      <use xlink:href="#NimbusSanL-Regu-2d" transform="translate(1057.521279 0) scale(0.996264)"/>
      <use xlink:href="#NimbusSanL-Regu-42" transform="translate(1118.391679 0) scale(0.996264)"/>
      <use xlink:href="#NimbusSanL-Regu-6c" transform="translate(1184.84171 0) scale(0.996264)"/>
      <use xlink:href="#NimbusSanL-Regu-61" transform="translate(1206.958494 0) scale(0.996264)"/>
      <use xlink:href="#NimbusSanL-Regu-64" transform="translate(1262.350171 0) scale(0.996264)"/>
      <use xlink:href="#NimbusSanL-Regu-65" transform="translate(1317.741848 0) scale(0.996264)"/>
      <use xlink:href="#NimbusSanL-Regu-30" transform="translate(1408.99909 0) scale(0.996264)"/>
      <path d="M 1379.110866 0 
L 1408.99909 0 
L 1408.99909 0.3985 
L 1379.110866 0.3985 
L 1379.110866 0 
z
"/>
     </g>
    </g>
   </g>
   <g id="patch_3">
    <path d="M 45.316088 228.96 
L 45.316088 7.2 
" style="fill: none; stroke: #000000; stroke-width: 0.8; stroke-linejoin: miter; stroke-linecap: square"/>
   </g>
   <g id="patch_4">
    <path d="M 380.116088 228.96 
L 380.116088 7.2 
" style="fill: none; stroke: #000000; stroke-width: 0.8; stroke-linejoin: miter; stroke-linecap: square"/>
   </g>
   <g id="patch_5">
    <path d="M 45.316088 228.96 
L 380.116088 228.96 
" style="fill: none; stroke: #000000; stroke-width: 0.8; stroke-linejoin: miter; stroke-linecap: square"/>
   </g>
   <g id="patch_6">
    <path d="M 45.316088 7.2 
L 380.116088 7.2 
" style="fill: none; stroke: #000000; stroke-width: 0.8; stroke-linejoin: miter; stroke-linecap: square"/>
   </g>
   <g id="legend_1">
    <g id="patch_7">
     <path d="M 321.738923 29.420307 
L 373.116088 29.420307 
Q 375.116088 29.420307 375.116088 27.420307 
L 375.116088 14.2 
Q 375.116088 12.2 373.116088 12.2 
L 321.738923 12.2 
Q 319.738923 12.2 319.738923 14.2 
L 319.738923 27.420307 
Q 319.738923 29.420307 321.738923 29.420307 
z
" style="fill: #ffffff; opacity: 0.8; stroke: #cccccc; stroke-linejoin: miter"/>
    </g>
    <g id="PathCollection_2">
     <g>
      <use xlink:href="#me5b44a6d8f" x="333.738923" y="20.67332" style="fill: #1f77b4; stroke: #1f77b4"/>
     </g>
    </g>
    <g id="text_16">
     <!-- SU2 -->
     <g transform="translate(351.738923 23.29832) scale(0.1 -0.1)">
      <use xlink:href="#NimbusSanL-Regu-53" transform="scale(0.996264)"/>
      <use xlink:href="#NimbusSanL-Regu-55" transform="translate(66.450031 0) scale(0.996264)"/>
      <use xlink:href="#NimbusSanL-Regu-32" transform="translate(138.380016 0) scale(0.996264)"/>
     </g>
    </g>
   </g>
  </g>
 </g>
 <defs>
  <clipPath id="pb0409b565f">
   <rect x="45.316088" y="7.2" width="334.8" height="221.76"/>
  </clipPath>
 </defs>
</svg>
