<?xml version="1.0" encoding="utf-8" standalone="no"?>
<!DOCTYPE svg PUBLIC "-//W3C//DTD SVG 1.1//EN"
  "http://www.w3.org/Graphics/SVG/1.1/DTD/svg11.dtd">
<svg xmlns:xlink="http://www.w3.org/1999/xlink" width="374.586009pt" height="265.600613pt" viewBox="0 0 374.586009 265.600613" xmlns="http://www.w3.org/2000/svg" version="1.1">
 <metadata>
  <rdf:RDF xmlns:dc="http://purl.org/dc/elements/1.1/" xmlns:cc="http://creativecommons.org/ns#" xmlns:rdf="http://www.w3.org/1999/02/22-rdf-syntax-ns#">
   <cc:Work>
    <dc:type rdf:resource="http://purl.org/dc/dcmitype/StillImage"/>
    <dc:date>2025-08-02T14:27:02.746761</dc:date>
    <dc:format>image/svg+xml</dc:format>
    <dc:creator>
     <cc:Agent>
      <dc:title>Matplotlib v3.10.3, https://matplotlib.org/</dc:title>
     </cc:Agent>
    </dc:creator>
   </cc:Work>
  </rdf:RDF>
 </metadata>
 <defs>
  <style type="text/css">*{stroke-linejoin: round; stroke-linecap: butt}</style>
 </defs>
 <g id="figure_1">
  <g id="patch_1">
   <path d="M 0 265.600613 
L 374.586009 265.600613 
L 374.586009 0 
L 0 0 
z
" style="fill: #ffffff"/>
  </g>
  <g id="axes_1">
   <g id="patch_2">
    <path d="M 32.586009 228.96 
L 367.386009 228.96 
L 367.386009 7.2 
L 32.586009 7.2 
z
" style="fill: #ffffff"/>
   </g>
   <g id="matplotlib.axis_1">
    <g id="xtick_1">
     <g id="line2d_1">
      <defs>
       <path id="m578192c2fa" d="M 0 0 
L 0 3.5 
" style="stroke: #000000; stroke-width: 0.8"/>
      </defs>
      <g>
       <use xlink:href="#m578192c2fa" x="47.804191" y="228.96" style="stroke: #000000; stroke-width: 0.8"/>
      </g>
     </g>
     <g id="text_1">
      <!-- $\mathdefault{0}$ -->
      <g transform="translate(45.313523 243.05832) scale(0.1 -0.1)">
       <defs>
        <path id="CMR17-30" d="M 2688 2038 
C 2688 2430 2682 3099 2413 3613 
C 2176 4063 1798 4224 1466 4224 
C 1158 4224 768 4082 525 3620 
C 269 3137 243 2539 243 2038 
C 243 1671 250 1112 448 623 
C 723 -39 1216 -128 1466 -128 
C 1760 -128 2208 -7 2470 604 
C 2662 1048 2688 1568 2688 2038 
z
M 1466 -26 
C 1056 -26 813 328 723 816 
C 653 1196 653 1749 653 2109 
C 653 2604 653 3015 736 3407 
C 858 3954 1216 4121 1466 4121 
C 1728 4121 2067 3947 2189 3420 
C 2272 3054 2278 2623 2278 2109 
C 2278 1691 2278 1176 2202 797 
C 2067 96 1690 -26 1466 -26 
z
" transform="scale(0.015625)"/>
       </defs>
       <use xlink:href="#CMR17-30" transform="scale(0.996264)"/>
      </g>
     </g>
    </g>
    <g id="xtick_2">
     <g id="line2d_2">
      <g>
       <use xlink:href="#m578192c2fa" x="90.479967" y="228.96" style="stroke: #000000; stroke-width: 0.8"/>
      </g>
     </g>
     <g id="text_2">
      <!-- $\mathdefault{500}$ -->
      <g transform="translate(83.007964 243.05832) scale(0.1 -0.1)">
       <defs>
        <path id="CMR17-35" d="M 730 3750 
C 794 3724 1056 3641 1325 3641 
C 1920 3641 2246 3961 2432 4140 
C 2432 4191 2432 4224 2394 4224 
C 2387 4224 2374 4224 2323 4198 
C 2099 4102 1837 4032 1517 4032 
C 1325 4032 1037 4055 723 4191 
C 653 4224 640 4224 634 4224 
C 602 4224 595 4217 595 4090 
L 595 2231 
C 595 2113 595 2080 659 2080 
C 691 2080 704 2093 736 2139 
C 941 2435 1222 2560 1542 2560 
C 1766 2560 2246 2415 2246 1293 
C 2246 1087 2246 716 2054 422 
C 1894 159 1645 25 1370 25 
C 947 25 518 319 403 812 
C 429 806 480 793 506 793 
C 589 793 749 838 749 1036 
C 749 1209 627 1280 506 1280 
C 358 1280 262 1190 262 1011 
C 262 454 704 -128 1382 -128 
C 2042 -128 2669 441 2669 1267 
C 2669 2054 2170 2662 1549 2662 
C 1222 2662 947 2540 730 2304 
L 730 3750 
z
" transform="scale(0.015625)"/>
       </defs>
       <use xlink:href="#CMR17-35" transform="scale(0.996264)"/>
       <use xlink:href="#CMR17-30" transform="translate(45.690477 0) scale(0.996264)"/>
       <use xlink:href="#CMR17-30" transform="translate(91.380954 0) scale(0.996264)"/>
      </g>
     </g>
    </g>
    <g id="xtick_3">
     <g id="line2d_3">
      <g>
       <use xlink:href="#m578192c2fa" x="133.155743" y="228.96" style="stroke: #000000; stroke-width: 0.8"/>
      </g>
     </g>
     <g id="text_3">
      <!-- $\mathdefault{1000}$ -->
      <g transform="translate(123.193073 243.05832) scale(0.1 -0.1)">
       <defs>
        <path id="CMR17-31" d="M 1702 4083 
C 1702 4217 1696 4224 1606 4224 
C 1357 3927 979 3833 621 3820 
C 602 3820 570 3820 563 3808 
C 557 3795 557 3782 557 3648 
C 755 3648 1088 3686 1344 3839 
L 1344 467 
C 1344 243 1331 166 781 166 
L 589 166 
L 589 0 
C 896 6 1216 12 1523 12 
C 1830 12 2150 6 2458 0 
L 2458 166 
L 2266 166 
C 1715 166 1702 236 1702 467 
L 1702 4083 
z
" transform="scale(0.015625)"/>
       </defs>
       <use xlink:href="#CMR17-31" transform="scale(0.996264)"/>
       <use xlink:href="#CMR17-30" transform="translate(45.690477 0) scale(0.996264)"/>
       <use xlink:href="#CMR17-30" transform="translate(91.380954 0) scale(0.996264)"/>
       <use xlink:href="#CMR17-30" transform="translate(137.071431 0) scale(0.996264)"/>
      </g>
     </g>
    </g>
    <g id="xtick_4">
     <g id="line2d_4">
      <g>
       <use xlink:href="#m578192c2fa" x="175.83152" y="228.96" style="stroke: #000000; stroke-width: 0.8"/>
      </g>
     </g>
     <g id="text_4">
      <!-- $\mathdefault{1500}$ -->
      <g transform="translate(165.868849 243.05832) scale(0.1 -0.1)">
       <use xlink:href="#CMR17-31" transform="scale(0.996264)"/>
       <use xlink:href="#CMR17-35" transform="translate(45.690477 0) scale(0.996264)"/>
       <use xlink:href="#CMR17-30" transform="translate(91.380954 0) scale(0.996264)"/>
       <use xlink:href="#CMR17-30" transform="translate(137.071431 0) scale(0.996264)"/>
      </g>
     </g>
    </g>
    <g id="xtick_5">
     <g id="line2d_5">
      <g>
       <use xlink:href="#m578192c2fa" x="218.507296" y="228.96" style="stroke: #000000; stroke-width: 0.8"/>
      </g>
     </g>
     <g id="text_5">
      <!-- $\mathdefault{2000}$ -->
      <g transform="translate(208.544626 243.05832) scale(0.1 -0.1)">
       <defs>
        <path id="CMR17-32" d="M 2669 990 
L 2554 990 
C 2490 537 2438 460 2413 422 
C 2381 371 1920 371 1830 371 
L 602 371 
C 832 620 1280 1073 1824 1596 
C 2214 1966 2669 2400 2669 3033 
C 2669 3788 2067 4224 1395 4224 
C 691 4224 262 3603 262 3027 
C 262 2777 448 2745 525 2745 
C 589 2745 781 2783 781 3007 
C 781 3206 614 3264 525 3264 
C 486 3264 448 3257 422 3244 
C 544 3788 915 4057 1306 4057 
C 1862 4057 2227 3616 2227 3033 
C 2227 2477 1901 1998 1536 1583 
L 262 147 
L 262 0 
L 2515 0 
L 2669 990 
z
" transform="scale(0.015625)"/>
       </defs>
       <use xlink:href="#CMR17-32" transform="scale(0.996264)"/>
       <use xlink:href="#CMR17-30" transform="translate(45.690477 0) scale(0.996264)"/>
       <use xlink:href="#CMR17-30" transform="translate(91.380954 0) scale(0.996264)"/>
       <use xlink:href="#CMR17-30" transform="translate(137.071431 0) scale(0.996264)"/>
      </g>
     </g>
    </g>
    <g id="xtick_6">
     <g id="line2d_6">
      <g>
       <use xlink:href="#m578192c2fa" x="261.183072" y="228.96" style="stroke: #000000; stroke-width: 0.8"/>
      </g>
     </g>
     <g id="text_6">
      <!-- $\mathdefault{2500}$ -->
      <g transform="translate(251.220402 243.05832) scale(0.1 -0.1)">
       <use xlink:href="#CMR17-32" transform="scale(0.996264)"/>
       <use xlink:href="#CMR17-35" transform="translate(45.690477 0) scale(0.996264)"/>
       <use xlink:href="#CMR17-30" transform="translate(91.380954 0) scale(0.996264)"/>
       <use xlink:href="#CMR17-30" transform="translate(137.071431 0) scale(0.996264)"/>
      </g>
     </g>
    </g>
    <g id="xtick_7">
     <g id="line2d_7">
      <g>
       <use xlink:href="#m578192c2fa" x="303.858849" y="228.96" style="stroke: #000000; stroke-width: 0.8"/>
      </g>
     </g>
     <g id="text_7">
      <!-- $\mathdefault{3000}$ -->
      <g transform="translate(293.896178 243.05832) scale(0.1 -0.1)">
       <defs>
        <path id="CMR17-33" d="M 1414 2176 
C 1984 2176 2234 1673 2234 1094 
C 2234 322 1824 25 1453 25 
C 1114 25 563 193 390 691 
C 422 678 454 678 486 678 
C 640 678 755 780 755 947 
C 755 1132 614 1216 486 1216 
C 378 1216 211 1164 211 927 
C 211 335 787 -128 1466 -128 
C 2176 -128 2720 432 2720 1087 
C 2720 1718 2208 2176 1600 2246 
C 2086 2347 2554 2776 2554 3353 
C 2554 3856 2048 4224 1472 4224 
C 890 4224 378 3862 378 3347 
C 378 3123 544 3084 627 3084 
C 762 3084 877 3167 877 3334 
C 877 3500 762 3584 627 3584 
C 602 3584 570 3584 544 3571 
C 730 3999 1235 4076 1459 4076 
C 1683 4076 2106 3966 2106 3347 
C 2106 3167 2080 2851 1862 2574 
C 1670 2329 1453 2316 1242 2297 
C 1210 2297 1062 2284 1037 2284 
C 992 2278 966 2272 966 2227 
C 966 2182 973 2176 1101 2176 
L 1414 2176 
z
" transform="scale(0.015625)"/>
       </defs>
       <use xlink:href="#CMR17-33" transform="scale(0.996264)"/>
       <use xlink:href="#CMR17-30" transform="translate(45.690477 0) scale(0.996264)"/>
       <use xlink:href="#CMR17-30" transform="translate(91.380954 0) scale(0.996264)"/>
       <use xlink:href="#CMR17-30" transform="translate(137.071431 0) scale(0.996264)"/>
      </g>
     </g>
    </g>
    <g id="xtick_8">
     <g id="line2d_8">
      <g>
       <use xlink:href="#m578192c2fa" x="346.534625" y="228.96" style="stroke: #000000; stroke-width: 0.8"/>
      </g>
     </g>
     <g id="text_8">
      <!-- $\mathdefault{3500}$ -->
      <g transform="translate(336.571954 243.05832) scale(0.1 -0.1)">
       <use xlink:href="#CMR17-33" transform="scale(0.996264)"/>
       <use xlink:href="#CMR17-35" transform="translate(45.690477 0) scale(0.996264)"/>
       <use xlink:href="#CMR17-30" transform="translate(91.380954 0) scale(0.996264)"/>
       <use xlink:href="#CMR17-30" transform="translate(137.071431 0) scale(0.996264)"/>
      </g>
     </g>
    </g>
    <g id="text_9">
     <!-- Iteration -->
     <g transform="translate(182.038633 256.278627) scale(0.1 -0.1)">
      <defs>
       <path id="NimbusSanL-Regu-49" d="M 1242 4672 
L 640 4672 
L 640 0 
L 1242 0 
L 1242 4672 
z
" transform="scale(0.015625)"/>
       <path id="NimbusSanL-Regu-74" d="M 1626 3328 
L 1075 3328 
L 1075 4249 
L 544 4249 
L 544 3328 
L 90 3328 
L 90 2892 
L 544 2892 
L 544 402 
C 544 64 774 -128 1190 -128 
C 1318 -128 1446 -116 1626 -84 
L 1626 364 
C 1555 345 1472 339 1370 339 
C 1139 339 1075 402 1075 634 
L 1075 2892 
L 1626 2892 
L 1626 3328 
z
" transform="scale(0.015625)"/>
       <path id="NimbusSanL-Regu-65" d="M 3283 1484 
C 3283 1998 3245 2311 3149 2565 
C 2931 3123 2419 3456 1792 3456 
C 858 3456 256 2734 256 1619 
C 256 545 838 -128 1779 -128 
C 2547 -128 3078 307 3213 1018 
L 2675 1018 
C 2528 588 2227 364 1798 364 
C 1459 364 1171 514 992 787 
C 864 974 819 1161 813 1484 
L 3283 1484 
z
M 826 1920 
C 870 2552 1248 2963 1786 2963 
C 2310 2963 2714 2519 2714 1959 
C 2714 1946 2714 1933 2707 1920 
L 826 1920 
z
" transform="scale(0.015625)"/>
       <path id="NimbusSanL-Regu-72" d="M 442 3328 
L 442 0 
L 979 0 
L 979 1727 
C 979 2203 1101 2514 1357 2698 
C 1523 2819 1683 2857 2054 2863 
L 2054 3404 
C 1965 3449 1920 3456 1850 3456 
C 1504 3456 1242 3251 934 2750 
L 934 3328 
L 442 3328 
z
" transform="scale(0.015625)"/>
       <path id="NimbusSanL-Regu-61" d="M 3424 332 
C 3366 320 3341 320 3309 320 
C 3123 320 3021 415 3021 581 
L 3021 2542 
C 3021 3135 2586 3456 1760 3456 
C 1274 3456 870 3315 646 3065 
C 493 2893 429 2702 416 2370 
L 954 2370 
C 998 2778 1242 2963 1741 2963 
C 2221 2963 2490 2784 2490 2466 
L 2490 2326 
C 2490 2103 2355 2007 1933 1956 
C 1178 1861 1062 1835 858 1753 
C 467 1593 269 1294 269 861 
C 269 256 691 -128 1370 -128 
C 1792 -128 2131 19 2509 364 
C 2547 25 2714 -128 3059 -128 
C 3168 -128 3251 -116 3424 -71 
L 3424 332 
z
M 2490 1071 
C 2490 893 2438 785 2278 638 
C 2061 441 1798 339 1485 339 
C 1069 339 826 536 826 874 
C 826 1224 1062 1402 1632 1485 
C 2195 1562 2310 1587 2490 1670 
L 2490 1071 
z
" transform="scale(0.015625)"/>
       <path id="NimbusSanL-Regu-69" d="M 960 3358 
L 429 3358 
L 429 0 
L 960 0 
L 960 3358 
z
M 960 4672 
L 422 4672 
L 422 3999 
L 960 3999 
L 960 4672 
z
" transform="scale(0.015625)"/>
       <path id="NimbusSanL-Regu-6f" d="M 1741 3456 
C 800 3456 230 2784 230 1663 
C 230 543 794 -128 1747 -128 
C 2688 -128 3264 543 3264 1638 
C 3264 2791 2707 3456 1741 3456 
z
M 1747 2963 
C 2349 2963 2707 2472 2707 1644 
C 2707 861 2336 364 1747 364 
C 1152 364 787 855 787 1663 
C 787 2466 1152 2963 1747 2963 
z
" transform="scale(0.015625)"/>
       <path id="NimbusSanL-Regu-6e" d="M 448 3328 
L 448 0 
L 986 0 
L 986 1835 
C 986 2539 1344 2988 1894 2988 
C 2317 2988 2586 2732 2586 2328 
L 2586 0 
L 3117 0 
L 3117 2539 
C 3117 3097 2701 3456 2054 3456 
C 1555 3456 1235 3263 941 2796 
L 941 3328 
L 448 3328 
z
" transform="scale(0.015625)"/>
      </defs>
      <use xlink:href="#NimbusSanL-Regu-49" transform="scale(0.996264)"/>
      <use xlink:href="#NimbusSanL-Regu-74" transform="translate(27.69517 0) scale(0.996264)"/>
      <use xlink:href="#NimbusSanL-Regu-65" transform="translate(55.390339 0) scale(0.996264)"/>
      <use xlink:href="#NimbusSanL-Regu-72" transform="translate(110.782016 0) scale(0.996264)"/>
      <use xlink:href="#NimbusSanL-Regu-61" transform="translate(142.961149 0) scale(0.996264)"/>
      <use xlink:href="#NimbusSanL-Regu-74" transform="translate(198.352826 0) scale(0.996264)"/>
      <use xlink:href="#NimbusSanL-Regu-69" transform="translate(226.047996 0) scale(0.996264)"/>
      <use xlink:href="#NimbusSanL-Regu-6f" transform="translate(248.16478 0) scale(0.996264)"/>
      <use xlink:href="#NimbusSanL-Regu-6e" transform="translate(303.556457 0) scale(0.996264)"/>
     </g>
    </g>
   </g>
   <g id="matplotlib.axis_2">
    <g id="ytick_1">
     <g id="line2d_9">
      <defs>
       <path id="m730ac69272" d="M 0 0 
L -3.5 0 
" style="stroke: #000000; stroke-width: 0.8"/>
      </defs>
      <g>
       <use xlink:href="#m730ac69272" x="32.586009" y="204.862722" style="stroke: #000000; stroke-width: 0.8"/>
      </g>
     </g>
     <g id="text_10">
      <!-- $\mathdefault{0}$ -->
      <g transform="translate(20.604674 208.411882) scale(0.1 -0.1)">
       <use xlink:href="#CMR17-30" transform="scale(0.996264)"/>
      </g>
     </g>
    </g>
    <g id="ytick_2">
     <g id="line2d_10">
      <g>
       <use xlink:href="#m730ac69272" x="32.586009" y="173.531638" style="stroke: #000000; stroke-width: 0.8"/>
      </g>
     </g>
     <g id="text_11">
      <!-- $\mathdefault{1}$ -->
      <g transform="translate(20.604674 177.080798) scale(0.1 -0.1)">
       <use xlink:href="#CMR17-31" transform="scale(0.996264)"/>
      </g>
     </g>
    </g>
    <g id="ytick_3">
     <g id="line2d_11">
      <g>
       <use xlink:href="#m730ac69272" x="32.586009" y="142.200553" style="stroke: #000000; stroke-width: 0.8"/>
      </g>
     </g>
     <g id="text_12">
      <!-- $\mathdefault{2}$ -->
      <g transform="translate(20.604674 145.749714) scale(0.1 -0.1)">
       <use xlink:href="#CMR17-32" transform="scale(0.996264)"/>
      </g>
     </g>
    </g>
    <g id="ytick_4">
     <g id="line2d_12">
      <g>
       <use xlink:href="#m730ac69272" x="32.586009" y="110.869469" style="stroke: #000000; stroke-width: 0.8"/>
      </g>
     </g>
     <g id="text_13">
      <!-- $\mathdefault{3}$ -->
      <g transform="translate(20.604674 114.418629) scale(0.1 -0.1)">
       <use xlink:href="#CMR17-33" transform="scale(0.996264)"/>
      </g>
     </g>
    </g>
    <g id="ytick_5">
     <g id="line2d_13">
      <g>
       <use xlink:href="#m730ac69272" x="32.586009" y="79.538385" style="stroke: #000000; stroke-width: 0.8"/>
      </g>
     </g>
     <g id="text_14">
      <!-- $\mathdefault{4}$ -->
      <g transform="translate(20.604674 83.087545) scale(0.1 -0.1)">
       <defs>
        <path id="CMR17-34" d="M 2150 4147 
C 2150 4281 2144 4288 2029 4288 
L 128 1254 
L 128 1088 
L 1779 1088 
L 1779 460 
C 1779 230 1766 166 1318 166 
L 1197 166 
L 1197 0 
C 1402 12 1747 12 1965 12 
C 2182 12 2528 12 2733 0 
L 2733 166 
L 2611 166 
C 2163 166 2150 230 2150 460 
L 2150 1088 
L 2803 1088 
L 2803 1254 
L 2150 1254 
L 2150 4147 
z
M 1798 3723 
L 1798 1254 
L 256 1254 
L 1798 3723 
z
" transform="scale(0.015625)"/>
       </defs>
       <use xlink:href="#CMR17-34" transform="scale(0.996264)"/>
      </g>
     </g>
    </g>
    <g id="ytick_6">
     <g id="line2d_14">
      <g>
       <use xlink:href="#m730ac69272" x="32.586009" y="48.2073" style="stroke: #000000; stroke-width: 0.8"/>
      </g>
     </g>
     <g id="text_15">
      <!-- $\mathdefault{5}$ -->
      <g transform="translate(20.604674 51.75646) scale(0.1 -0.1)">
       <use xlink:href="#CMR17-35" transform="scale(0.996264)"/>
      </g>
     </g>
    </g>
    <g id="ytick_7">
     <g id="line2d_15">
      <g>
       <use xlink:href="#m730ac69272" x="32.586009" y="16.876216" style="stroke: #000000; stroke-width: 0.8"/>
      </g>
     </g>
     <g id="text_16">
      <!-- $\mathdefault{6}$ -->
      <g transform="translate(20.604674 20.425376) scale(0.1 -0.1)">
       <defs>
        <path id="CMR17-36" d="M 678 2198 
C 678 3712 1395 4076 1811 4076 
C 1946 4076 2272 4049 2400 3782 
C 2298 3782 2106 3782 2106 3558 
C 2106 3385 2246 3328 2336 3328 
C 2394 3328 2566 3353 2566 3571 
C 2566 3987 2246 4224 1805 4224 
C 1043 4224 243 3411 243 2011 
C 243 257 966 -128 1478 -128 
C 2099 -128 2688 431 2688 1295 
C 2688 2101 2170 2688 1517 2688 
C 1126 2688 838 2430 678 1979 
L 678 2198 
z
M 1478 25 
C 691 25 691 1212 691 1450 
C 691 1914 909 2585 1504 2585 
C 1613 2585 1926 2585 2138 2140 
C 2253 1889 2253 1624 2253 1302 
C 2253 954 2253 696 2118 438 
C 1978 173 1773 25 1478 25 
z
" transform="scale(0.015625)"/>
       </defs>
       <use xlink:href="#CMR17-36" transform="scale(0.996264)"/>
      </g>
     </g>
    </g>
    <g id="text_17">
     <!-- Aerodynamic Coefficients - Blade_0 -->
     <g transform="translate(14.482687 196.280864) rotate(-90) scale(0.1 -0.1)">
      <defs>
       <path id="NimbusSanL-Regu-41" d="M 3034 1408 
L 3514 0 
L 4179 0 
L 2541 4672 
L 1773 4672 
L 109 0 
L 742 0 
L 1235 1408 
L 3034 1408 
z
M 2867 1907 
L 1382 1907 
L 2150 4032 
L 2867 1907 
z
" transform="scale(0.015625)"/>
       <path id="NimbusSanL-Regu-64" d="M 3168 4672 
L 2637 4672 
L 2637 2937 
C 2413 3276 2054 3456 1606 3456 
C 736 3456 166 2759 166 1695 
C 166 568 723 -128 1626 -128 
C 2086 -128 2406 44 2694 460 
L 2694 19 
L 3168 19 
L 3168 4672 
z
M 1696 2956 
C 2272 2956 2637 2447 2637 1651 
C 2637 880 2266 371 1702 371 
C 1114 371 723 887 723 1663 
C 723 2440 1114 2956 1696 2956 
z
" transform="scale(0.015625)"/>
       <path id="NimbusSanL-Regu-79" d="M 2483 3328 
L 1555 724 
L 698 3328 
L 128 3328 
L 1261 -29 
L 1056 -558 
C 973 -794 851 -884 627 -884 
C 550 -884 461 -871 346 -845 
L 346 -1325 
C 454 -1383 563 -1408 704 -1408 
C 877 -1408 1062 -1351 1203 -1248 
C 1370 -1127 1466 -986 1568 -718 
L 3059 3328 
L 2483 3328 
z
" transform="scale(0.015625)"/>
       <path id="NimbusSanL-Regu-6d" d="M 448 3328 
L 448 0 
L 986 0 
L 986 2089 
C 986 2597 1338 2988 1773 2988 
C 2170 2988 2394 2744 2394 2315 
L 2394 0 
L 2931 0 
L 2931 2109 
C 2931 2597 3283 2988 3718 2988 
C 4109 2988 4339 2738 4339 2315 
L 4339 0 
L 4877 0 
L 4877 2520 
C 4877 3123 4531 3456 3904 3456 
C 3456 3456 3187 3321 2874 2943 
C 2675 3302 2406 3456 1971 3456 
C 1523 3456 1229 3289 941 2886 
L 941 3328 
L 448 3328 
z
" transform="scale(0.015625)"/>
       <path id="NimbusSanL-Regu-63" d="M 3014 2237 
C 2989 2561 2918 2771 2790 2956 
C 2560 3270 2157 3456 1690 3456 
C 787 3456 198 2740 198 1632 
C 198 555 774 -128 1683 -128 
C 2483 -128 2989 352 3053 1167 
L 2515 1167 
C 2426 632 2150 364 1696 364 
C 1107 364 755 842 755 1632 
C 755 2466 1101 2963 1683 2963 
C 2131 2963 2413 2701 2477 2237 
L 3014 2237 
z
" transform="scale(0.015625)"/>
       <path id="NimbusSanL-Regu-43" d="M 4237 3219 
C 4051 4236 3462 4736 2438 4736 
C 1811 4736 1306 4537 960 4154 
C 538 3696 307 3035 307 2284 
C 307 1522 544 867 986 415 
C 1344 44 1805 -128 2413 -128 
C 3552 -128 4192 485 4333 1712 
L 3718 1712 
C 3667 1394 3603 1178 3507 994 
C 3315 612 2918 396 2419 396 
C 1491 396 902 1134 902 2291 
C 902 3480 1466 4211 2368 4211 
C 2746 4211 3098 4096 3290 3918 
C 3462 3759 3558 3562 3629 3219 
L 4237 3219 
z
" transform="scale(0.015625)"/>
       <path id="NimbusSanL-Regu-66" d="M 1651 3328 
L 1094 3328 
L 1094 3860 
C 1094 4087 1222 4204 1466 4204 
C 1510 4204 1530 4204 1651 4198 
L 1651 4639 
C 1530 4665 1459 4672 1350 4672 
C 858 4672 563 4390 563 3905 
L 563 3328 
L 115 3328 
L 115 2892 
L 563 2892 
L 563 0 
L 1094 0 
L 1094 2892 
L 1651 2892 
L 1651 3328 
z
" transform="scale(0.015625)"/>
       <path id="NimbusSanL-Regu-2" d="M 1613 3328 
L 1056 3328 
L 1056 3860 
C 1056 4087 1184 4204 1427 4204 
C 1472 4204 1491 4204 1613 4198 
L 1613 4639 
C 1491 4665 1421 4672 1312 4672 
C 819 4672 525 4390 525 3905 
L 525 3328 
L 77 3328 
L 77 2892 
L 525 2892 
L 525 0 
L 1056 0 
L 1056 2892 
L 1613 2892 
L 1613 3328 
z
M 2790 3328 
L 2259 3328 
L 2259 0 
L 2790 0 
L 2790 3328 
z
M 2790 4672 
L 2259 4672 
L 2259 3999 
L 2790 3999 
L 2790 4672 
z
" transform="scale(0.015625)"/>
       <path id="NimbusSanL-Regu-73" d="M 2803 2428 
C 2797 3084 2362 3456 1587 3456 
C 806 3456 301 3052 301 2434 
C 301 1912 570 1663 1363 1472 
L 1862 1351 
C 2234 1262 2381 1129 2381 887 
C 2381 574 2067 364 1600 364 
C 1312 364 1069 447 934 587 
C 851 683 813 778 781 1014 
L 218 1014 
C 243 243 678 -128 1555 -128 
C 2400 -128 2938 288 2938 931 
C 2938 1428 2656 1702 1990 1861 
L 1478 1982 
C 1043 2084 858 2224 858 2459 
C 858 2765 1133 2963 1568 2963 
C 1997 2963 2227 2778 2240 2428 
L 2803 2428 
z
" transform="scale(0.015625)"/>
       <path id="NimbusSanL-Regu-2d" d="M 1818 1996 
L 294 1996 
L 294 1536 
L 1818 1536 
L 1818 1996 
z
" transform="scale(0.015625)"/>
       <path id="NimbusSanL-Regu-42" d="M 506 0 
L 2611 0 
C 3053 0 3379 121 3629 390 
C 3859 632 3987 961 3987 1321 
C 3987 1878 3731 2214 3136 2444 
C 3558 2643 3782 2994 3782 3476 
C 3782 3821 3654 4127 3411 4345 
C 3168 4569 2848 4672 2400 4672 
L 506 4672 
L 506 0 
z
M 1101 2636 
L 1101 4147 
L 2253 4147 
C 2586 4147 2771 4101 2931 3977 
C 3098 3847 3187 3652 3187 3391 
C 3187 3138 3098 2936 2931 2806 
C 2771 2682 2586 2636 2253 2636 
L 1101 2636 
z
M 1101 524 
L 1101 2112 
L 2554 2112 
C 2842 2112 3034 2042 3174 1890 
C 3315 1745 3392 1542 3392 1315 
C 3392 1093 3315 891 3174 746 
C 3034 594 2842 524 2554 524 
L 1101 524 
z
" transform="scale(0.015625)"/>
       <path id="NimbusSanL-Regu-6c" d="M 973 4672 
L 435 4672 
L 435 0 
L 973 0 
L 973 4672 
z
" transform="scale(0.015625)"/>
       <path id="NimbusSanL-Regu-30" d="M 1760 4544 
C 1338 4544 954 4358 717 4044 
C 422 3649 275 3043 275 2207 
C 275 683 787 -128 1760 -128 
C 2720 -128 3245 683 3245 2169 
C 3245 3049 3104 3636 2803 4044 
C 2566 4364 2189 4544 1760 4544 
z
M 1760 4044 
C 2368 4044 2669 3432 2669 2220 
C 2669 938 2374 339 1747 339 
C 1152 339 851 964 851 2201 
C 851 3438 1152 4044 1760 4044 
z
" transform="scale(0.015625)"/>
      </defs>
      <use xlink:href="#NimbusSanL-Regu-41" transform="scale(0.996264)"/>
      <use xlink:href="#NimbusSanL-Regu-65" transform="translate(66.450031 0) scale(0.996264)"/>
      <use xlink:href="#NimbusSanL-Regu-72" transform="translate(121.841708 0) scale(0.996264)"/>
      <use xlink:href="#NimbusSanL-Regu-6f" transform="translate(155.016938 0) scale(0.996264)"/>
      <use xlink:href="#NimbusSanL-Regu-64" transform="translate(210.408615 0) scale(0.996264)"/>
      <use xlink:href="#NimbusSanL-Regu-79" transform="translate(265.800292 0) scale(0.996264)"/>
      <use xlink:href="#NimbusSanL-Regu-6e" transform="translate(315.613492 0) scale(0.996264)"/>
      <use xlink:href="#NimbusSanL-Regu-61" transform="translate(371.005169 0) scale(0.996264)"/>
      <use xlink:href="#NimbusSanL-Regu-6d" transform="translate(426.396846 0) scale(0.996264)"/>
      <use xlink:href="#NimbusSanL-Regu-69" transform="translate(509.385276 0) scale(0.996264)"/>
      <use xlink:href="#NimbusSanL-Regu-63" transform="translate(531.502061 0) scale(0.996264)"/>
      <use xlink:href="#NimbusSanL-Regu-43" transform="translate(609.010431 0) scale(0.996264)"/>
      <use xlink:href="#NimbusSanL-Regu-6f" transform="translate(680.940416 0) scale(0.996264)"/>
      <use xlink:href="#NimbusSanL-Regu-65" transform="translate(736.332093 0) scale(0.996264)"/>
      <use xlink:href="#NimbusSanL-Regu-66" transform="translate(791.72377 0) scale(0.996264)"/>
      <use xlink:href="#NimbusSanL-Regu-2" transform="translate(819.418939 0) scale(0.996264)"/>
      <use xlink:href="#NimbusSanL-Regu-63" transform="translate(869.23214 0) scale(0.996264)"/>
      <use xlink:href="#NimbusSanL-Regu-69" transform="translate(919.04534 0) scale(0.996264)"/>
      <use xlink:href="#NimbusSanL-Regu-65" transform="translate(941.162125 0) scale(0.996264)"/>
      <use xlink:href="#NimbusSanL-Regu-6e" transform="translate(996.553802 0) scale(0.996264)"/>
      <use xlink:href="#NimbusSanL-Regu-74" transform="translate(1051.945479 0) scale(0.996264)"/>
      <use xlink:href="#NimbusSanL-Regu-73" transform="translate(1079.640648 0) scale(0.996264)"/>
      <use xlink:href="#NimbusSanL-Regu-2d" transform="translate(1157.149018 0) scale(0.996264)"/>
      <use xlink:href="#NimbusSanL-Regu-42" transform="translate(1218.019418 0) scale(0.996264)"/>
      <use xlink:href="#NimbusSanL-Regu-6c" transform="translate(1284.469449 0) scale(0.996264)"/>
      <use xlink:href="#NimbusSanL-Regu-61" transform="translate(1306.586233 0) scale(0.996264)"/>
      <use xlink:href="#NimbusSanL-Regu-64" transform="translate(1361.97791 0) scale(0.996264)"/>
      <use xlink:href="#NimbusSanL-Regu-65" transform="translate(1417.369587 0) scale(0.996264)"/>
      <use xlink:href="#NimbusSanL-Regu-30" transform="translate(1508.626829 0) scale(0.996264)"/>
      <path d="M 1478.738605 0 
L 1508.626829 0 
L 1508.626829 0.3985 
L 1478.738605 0.3985 
L 1478.738605 0 
z
"/>
     </g>
    </g>
   </g>
   <g id="line2d_16">
    <path d="M 47.804191 161.211791 
L 48.145597 35.490753 
L 48.401652 17.28 
L 48.487003 18.05941 
L 48.999113 39.130511 
L 49.084464 38.904207 
L 49.169816 39.248479 
L 49.340519 40.853695 
L 49.511222 41.265628 
L 49.767277 42.767842 
L 50.023331 45.833525 
L 50.194034 49.897528 
L 50.364738 58.057638 
L 50.706144 95.364871 
L 50.876847 108.595533 
L 51.132901 113.608149 
L 51.388956 125.36639 
L 51.645011 147.864594 
L 51.986417 179.859107 
L 52.242472 183.406461 
L 52.498526 190.740347 
L 53.095987 211.895499 
L 53.181339 211.29002 
L 53.26669 211.338531 
L 53.522745 211.679336 
L 53.693448 212.350528 
L 54.034854 214.75351 
L 54.120206 214.615741 
L 54.290909 212.111979 
L 54.632315 206.574213 
L 55.144424 206.516465 
L 55.315128 205.943594 
L 55.485831 204.427027 
L 55.741885 199.194442 
L 55.912588 195.539401 
L 56.168643 194.133043 
L 56.424698 191.023383 
L 56.680752 184.822292 
L 57.192862 170.392674 
L 57.448916 169.010433 
L 57.704971 166.133135 
L 57.961026 159.919992 
L 58.387783 144.738765 
L 58.643838 142.153934 
L 58.985244 135.333557 
L 59.241299 130.886994 
L 59.326651 130.769333 
L 59.497354 132.259064 
L 59.668057 133.770617 
L 59.924111 134.261789 
L 60.180166 135.41428 
L 60.436221 137.806731 
L 60.94833 143.914573 
L 61.204385 145.478932 
L 61.460439 149.042237 
L 61.716494 156.410769 
L 61.972549 164.322104 
L 62.228603 165.602846 
L 62.484658 168.32068 
L 62.826064 175.123094 
L 63.252822 183.830744 
L 63.508877 185.228496 
L 63.764931 188.224036 
L 64.020986 194.209128 
L 64.277041 201.73172 
L 64.533095 203.12727 
L 64.78915 206.158057 
L 65.130556 213.917743 
L 65.386611 217.97113 
L 65.728017 218.454914 
L 66.069423 218.88 
L 66.240126 218.360068 
L 66.410829 216.844656 
L 66.581533 215.325198 
L 66.837587 214.604513 
L 67.093642 212.890957 
L 67.349696 209.21955 
L 67.861806 200.257912 
L 68.11786 198.800551 
L 68.373915 195.741437 
L 68.715321 188.712119 
L 68.886024 186.149271 
L 69.142079 185.396584 
L 69.398134 183.759081 
L 69.73954 179.572268 
L 70.080946 175.337891 
L 70.337001 174.963577 
L 70.678407 173.957132 
L 71.019813 172.994586 
L 71.702626 173.162245 
L 71.95868 173.543809 
L 72.556141 174.929301 
L 72.897547 175.313875 
L 73.58036 176.375032 
L 74.092469 176.603347 
L 74.433875 176.993469 
L 74.68993 177.295049 
L 76.226258 177.587871 
L 76.653016 177.435491 
L 76.90907 177.084712 
L 77.079773 176.842803 
L 77.506531 176.643837 
L 77.847937 176.179839 
L 78.274695 175.377639 
L 80.408484 175.097248 
L 80.835242 174.846379 
L 82.200867 174.988986 
L 83.139734 174.952924 
L 83.395788 174.793438 
L 83.566491 174.676127 
L 84.249304 174.481184 
L 84.505359 174.411602 
L 84.761413 174.466252 
L 85.273523 174.594361 
L 85.529577 174.844808 
L 86.041686 175.53633 
L 86.383093 175.780377 
L 86.724499 176.361003 
L 87.151257 177.270298 
L 87.663366 177.494659 
L 88.004772 177.883731 
L 88.260827 178.207206 
L 88.772936 178.378986 
L 89.114342 178.709574 
L 89.5411 179.290474 
L 89.967858 179.519116 
L 90.309264 179.998079 
L 90.992077 181.231521 
L 91.248131 181.33197 
L 91.504186 181.218884 
L 91.760241 180.856041 
L 92.101647 179.902799 
L 92.784459 177.607049 
L 93.125865 177.332876 
L 93.467272 176.678888 
L 93.979381 175.478388 
L 94.406139 175.21548 
L 95.0036 174.768011 
L 96.027818 175.528969 
L 96.454576 176.397186 
L 96.795982 176.634418 
L 97.052037 177.044056 
L 97.308091 177.835423 
L 97.564146 178.723786 
L 97.905552 178.959106 
L 98.246959 179.526999 
L 98.929771 181.051706 
L 99.868638 181.052059 
L 100.039341 180.90959 
L 100.55145 180.726848 
L 100.807505 180.406449 
L 101.06356 179.60847 
L 101.234263 179.124125 
L 101.575669 178.880512 
L 101.831724 178.443814 
L 102.087778 177.632258 
L 102.770591 174.971227 
L 103.111997 174.674784 
L 103.453403 174.010888 
L 103.794809 173.332248 
L 104.306919 173.156002 
L 104.819028 172.952256 
L 105.075083 173.165674 
L 105.416489 173.839504 
L 106.099301 175.816308 
L 106.611411 177.19948 
L 107.038168 177.408282 
L 107.379575 177.838045 
L 107.720981 178.346921 
L 108.23309 178.508441 
L 109.171957 178.951438 
L 109.85477 178.884834 
L 110.196176 178.52789 
L 110.537582 178.202693 
L 110.96434 178.024994 
L 111.305746 177.635219 
L 111.561801 177.272945 
L 112.07391 177.068046 
L 112.415316 176.654295 
L 112.842074 176.075184 
L 113.268832 175.899284 
L 114.207699 175.352408 
L 114.634457 175.579336 
L 115.146566 175.902706 
L 115.744027 176.064996 
L 116.682894 176.514256 
L 117.877816 176.836491 
L 118.560628 176.716795 
L 119.24344 176.545887 
L 119.499495 176.489591 
L 120.267659 176.349064 
L 120.86512 176.207789 
L 122.316096 176.157529 
L 123.681721 176.411512 
L 125.986213 176.539443 
L 127.863947 176.797172 
L 130.936603 176.689434 
L 131.363361 176.514072 
L 131.87547 176.184877 
L 132.38758 175.963157 
L 132.98504 175.555429 
L 133.49715 175.368701 
L 134.265314 175.024791 
L 135.972345 174.875336 
L 138.106134 174.965257 
L 139.471758 175.631136 
L 139.813165 175.855046 
L 141.520196 176.17187 
L 142.373711 176.506297 
L 144.166094 176.766047 
L 144.763555 176.721122 
L 145.275664 176.592739 
L 145.702422 176.450276 
L 146.299883 176.279585 
L 146.982695 175.977948 
L 147.580156 175.771639 
L 148.092265 175.571139 
L 149.799296 175.64224 
L 150.226054 175.835648 
L 150.482109 175.924162 
L 151.07957 176.075044 
L 151.847733 176.38013 
L 152.359843 176.594707 
L 152.871952 176.846107 
L 153.469413 177.028223 
L 154.066874 177.244013 
L 155.603202 177.275097 
L 156.200663 177.100116 
L 156.456717 177.033564 
L 157.13953 176.871104 
L 157.907694 176.550173 
L 160.46824 176.313743 
L 161.919217 176.498038 
L 162.858084 176.625156 
L 165.674685 176.996076 
L 167.808474 176.911863 
L 168.661989 176.818292 
L 169.25945 176.614126 
L 170.198317 176.301202 
L 173.356325 176.186562 
L 174.807301 176.226467 
L 178.904176 176.327724 
L 182.403589 176.52512 
L 186.159058 176.414985 
L 192.90183 176.129324 
L 195.377025 176.280787 
L 199.815306 176.673227 
L 202.717259 176.586366 
L 206.387376 176.319274 
L 208.606516 176.343985 
L 212.276633 176.453089 
L 219.019405 176.079354 
L 226.701045 176.190975 
L 228.664131 176.072752 
L 232.334248 176.106271 
L 237.369989 176.206532 
L 242.491082 176.126719 
L 246.502605 176.246588 
L 259.988151 176.49907 
L 274.327211 176.389923 
L 276.631703 176.350148 
L 319.819589 176.185288 
L 330.744588 176.365484 
L 333.902595 176.418059 
L 348.327007 176.44626 
L 352.167827 176.420823 
L 352.167827 176.420823 
" clip-path="url(#p45d0064452)" style="fill: none; stroke: #1f77b4; stroke-width: 1.5; stroke-linecap: square"/>
   </g>
   <g id="line2d_17">
    <path d="M 47.804191 189.669182 
L 48.060246 157.322347 
L 48.3163 155.082598 
L 48.401652 155.212425 
L 48.657706 157.714243 
L 48.82841 158.876421 
L 48.913761 158.857924 
L 49.511222 157.229187 
L 49.767277 156.977028 
L 50.023331 156.377325 
L 50.535441 154.556469 
L 50.706144 155.579883 
L 50.876847 156.647156 
L 51.132901 157.077538 
L 51.388956 158.134648 
L 51.645011 160.628625 
L 51.986417 165.322911 
L 52.242472 166.078245 
L 52.498526 167.858333 
L 53.095987 173.767589 
L 53.181339 173.444208 
L 53.26669 173.53114 
L 53.522745 174.043353 
L 53.693448 174.961317 
L 53.949503 178.245757 
L 54.803018 190.807133 
L 55.059073 192.613506 
L 55.99794 200.954075 
L 56.253995 201.432415 
L 56.510049 202.434774 
L 56.851456 204.797446 
L 57.022159 205.898646 
L 57.619619 205.933478 
L 57.790323 205.581067 
L 57.961026 204.118959 
L 58.131729 199.338237 
L 58.302432 194.4088 
L 58.558487 192.862269 
L 58.814541 189.500663 
L 59.412002 179.311715 
L 59.582705 178.552028 
L 59.668057 178.605617 
L 60.009463 178.782888 
L 60.180166 178.500166 
L 60.436221 177.429729 
L 60.777627 175.501313 
L 61.119033 175.261827 
L 61.545791 174.872655 
L 61.716494 175.119246 
L 62.0579 176.217314 
L 62.313955 176.508077 
L 62.57001 177.212939 
L 62.826064 178.669358 
L 63.252822 181.42184 
L 63.508877 181.805634 
L 63.764931 182.574134 
L 64.106337 184.340724 
L 64.277041 185.02103 
L 64.533095 185.223979 
L 64.78915 185.725956 
L 65.045205 186.914128 
L 65.471962 190.005211 
L 65.728017 190.583778 
L 65.984072 191.855252 
L 66.325478 195.172575 
L 66.581533 197.594594 
L 66.837587 197.94399 
L 67.093642 198.701867 
L 67.776454 201.204229 
L 68.288564 201.123642 
L 68.459267 200.875015 
L 68.62997 200.189599 
L 68.971376 198.415418 
L 69.227431 197.935951 
L 69.483485 196.873209 
L 69.73954 194.755193 
L 70.166298 190.877347 
L 70.422352 190.296719 
L 70.763759 188.696851 
L 71.190516 186.468757 
L 71.531923 186.238702 
L 72.129383 185.645278 
L 72.556141 186.009974 
L 72.897547 186.295029 
L 73.153602 186.812654 
L 73.58036 187.803321 
L 73.921766 188.036821 
L 74.263172 188.544341 
L 74.775282 189.380672 
L 75.287391 189.61029 
L 75.884852 189.968601 
L 76.653016 189.914066 
L 77.165125 189.834918 
L 77.847937 189.960716 
L 78.103992 190.205045 
L 78.274695 190.396685 
L 78.786805 190.60903 
L 79.554968 191.142428 
L 80.237781 191.094259 
L 80.493836 190.761539 
L 81.005945 190.119057 
L 81.262 190.032103 
L 82.030164 189.857023 
L 82.627624 189.6711 
L 83.310437 189.48316 
L 83.651843 189.305059 
L 84.249304 189.142171 
L 84.932116 188.809305 
L 85.614929 188.621383 
L 86.041686 188.480545 
L 86.553796 188.334714 
L 86.80985 188.085891 
L 87.151257 187.597365 
L 87.578014 187.456532 
L 88.516882 186.991185 
L 89.114342 187.056527 
L 89.285045 187.292228 
L 89.455749 187.543875 
L 89.882506 187.745599 
L 90.138561 188.081327 
L 90.394616 188.820916 
L 91.504186 193.784276 
L 91.760241 194.164561 
L 91.930944 194.159683 
L 92.186998 193.764996 
L 92.528404 192.615319 
L 92.699108 192.221465 
L 93.040514 192.02051 
L 93.296568 191.661513 
L 93.552623 190.986305 
L 93.979381 189.735438 
L 94.320787 189.429503 
L 94.662193 188.730787 
L 95.259654 187.117115 
L 95.686412 186.948018 
L 96.539927 186.441104 
L 97.308091 186.471659 
L 97.734849 186.689885 
L 98.161607 186.862301 
L 98.503013 187.284695 
L 98.929771 188.05549 
L 99.356529 188.212665 
L 99.783286 188.653474 
L 100.039341 188.933182 
L 100.636802 189.1062 
L 101.319614 189.400947 
L 102.17313 189.348338 
L 102.514536 189.051808 
L 102.685239 188.91525 
L 103.197349 188.765717 
L 103.538755 188.451837 
L 103.794809 188.15547 
L 104.306919 187.988068 
L 104.648325 187.666782 
L 105.587192 186.488005 
L 106.01395 186.398262 
L 106.440708 186.58318 
L 106.696762 186.67252 
L 107.294223 186.831901 
L 108.062387 187.182764 
L 108.574496 187.427247 
L 109.001254 187.675719 
L 109.684067 187.852939 
L 110.281527 188.040804 
L 112.244613 187.679698 
L 114.207699 186.850104 
L 114.634457 186.90274 
L 115.487972 187.115516 
L 116.000081 187.309294 
L 116.341488 187.467821 
L 116.938949 187.614877 
L 117.621761 188.093805 
L 118.13387 188.309426 
L 120.267659 188.227842 
L 121.035823 188.053453 
L 121.633284 187.836843 
L 122.401448 187.518853 
L 122.998909 187.479676 
L 123.852424 187.498786 
L 126.156916 187.624226 
L 127.778596 187.874598 
L 129.997736 187.987723 
L 131.192658 188.190239 
L 132.38758 188.25891 
L 133.753204 188.127352 
L 134.265314 188.040348 
L 138.191485 187.777816 
L 139.471758 187.8081 
L 140.581329 187.850008 
L 142.715117 187.973716 
L 144.678203 188.121926 
L 146.385234 188.02811 
L 148.433671 187.689401 
L 150.56746 187.60625 
L 151.762382 187.749752 
L 152.445194 187.888763 
L 152.871952 187.984883 
L 153.640116 188.144986 
L 154.066874 188.223092 
L 155.944608 188.228625 
L 157.480936 187.789354 
L 157.736991 187.716045 
L 158.419803 187.563853 
L 159.017264 187.419711 
L 161.492459 187.278118 
L 162.858084 187.503665 
L 165.077224 187.927558 
L 166.698904 188.009632 
L 169.430153 187.59881 
L 170.283669 187.457491 
L 173.441676 187.419302 
L 174.978004 187.575743 
L 176.428981 187.744574 
L 179.416285 187.927699 
L 185.134839 187.461348 
L 187.097925 187.500887 
L 193.328588 187.733683 
L 195.206322 187.601429 
L 198.705736 187.489593 
L 200.58347 187.62873 
L 201.436986 187.703975 
L 203.741477 187.864841 
L 205.363157 187.786732 
L 206.728782 187.611039 
L 213.386203 187.633214 
L 215.776046 187.686308 
L 218.421944 187.537348 
L 219.702218 187.424787 
L 224.140499 187.498372 
L 226.871748 187.724492 
L 228.493428 187.70504 
L 231.224677 187.561678 
L 234.211982 187.519339 
L 236.85788 187.630472 
L 243.515301 187.636534 
L 245.990496 187.628653 
L 250.343425 187.751685 
L 253.160026 187.751662 
L 255.976628 187.704532 
L 262.207291 187.777976 
L 267.243033 187.701615 
L 270.40104 187.685312 
L 279.021547 187.633626 
L 283.630531 187.63772 
L 289.178382 187.630055 
L 309.065293 187.628749 
L 315.552011 187.619871 
L 331.939509 187.712787 
L 338.084821 187.728673 
L 352.167827 187.685068 
L 352.167827 187.685068 
" clip-path="url(#p45d0064452)" style="fill: none; stroke: #ff7f0e; stroke-width: 1.5; stroke-linecap: square"/>
   </g>
   <g id="patch_3">
    <path d="M 32.586009 228.96 
L 32.586009 7.2 
" style="fill: none; stroke: #000000; stroke-width: 0.8; stroke-linejoin: miter; stroke-linecap: square"/>
   </g>
   <g id="patch_4">
    <path d="M 367.386009 228.96 
L 367.386009 7.2 
" style="fill: none; stroke: #000000; stroke-width: 0.8; stroke-linejoin: miter; stroke-linecap: square"/>
   </g>
   <g id="patch_5">
    <path d="M 32.586009 228.96 
L 367.386009 228.96 
" style="fill: none; stroke: #000000; stroke-width: 0.8; stroke-linejoin: miter; stroke-linecap: square"/>
   </g>
   <g id="patch_6">
    <path d="M 32.586009 7.2 
L 367.386009 7.2 
" style="fill: none; stroke: #000000; stroke-width: 0.8; stroke-linejoin: miter; stroke-linecap: square"/>
   </g>
   <g id="legend_1">
    <g id="patch_7">
     <path d="M 314.000015 43.640613 
L 360.386009 43.640613 
Q 362.386009 43.640613 362.386009 41.640613 
L 362.386009 14.2 
Q 362.386009 12.2 360.386009 12.2 
L 314.000015 12.2 
Q 312.000015 12.2 312.000015 14.2 
L 312.000015 41.640613 
Q 312.000015 43.640613 314.000015 43.640613 
z
" style="fill: #ffffff; opacity: 0.8; stroke: #cccccc; stroke-linejoin: miter"/>
    </g>
    <g id="line2d_18">
     <path d="M 316.000015 19.79832 
L 326.000015 19.79832 
L 336.000015 19.79832 
" style="fill: none; stroke: #1f77b4; stroke-width: 1.5; stroke-linecap: square"/>
    </g>
    <g id="text_18">
     <!-- CD -->
     <g transform="translate(344.000015 23.29832) scale(0.1 -0.1)">
      <defs>
       <path id="NimbusSanL-Regu-44" d="M 570 0 
L 2368 0 
C 3546 0 4269 883 4269 2339 
C 4269 3788 3552 4672 2368 4672 
L 570 4672 
L 570 0 
z
M 1165 524 
L 1165 4147 
L 2266 4147 
C 3187 4147 3674 3525 3674 2332 
C 3674 1153 3187 524 2266 524 
L 1165 524 
z
" transform="scale(0.015625)"/>
      </defs>
      <use xlink:href="#NimbusSanL-Regu-43" transform="scale(0.996264)"/>
      <use xlink:href="#NimbusSanL-Regu-44" transform="translate(71.929985 0) scale(0.996264)"/>
     </g>
    </g>
    <g id="line2d_19">
     <path d="M 316.000015 34.018627 
L 326.000015 34.018627 
L 336.000015 34.018627 
" style="fill: none; stroke: #ff7f0e; stroke-width: 1.5; stroke-linecap: square"/>
    </g>
    <g id="text_19">
     <!-- CL -->
     <g transform="translate(344.000015 37.518627) scale(0.1 -0.1)">
      <defs>
       <path id="NimbusSanL-Regu-4c" d="M 1107 4672 
L 512 4672 
L 512 0 
L 3411 0 
L 3411 524 
L 1107 524 
L 1107 4672 
z
" transform="scale(0.015625)"/>
      </defs>
      <use xlink:href="#NimbusSanL-Regu-43" transform="scale(0.996264)"/>
      <use xlink:href="#NimbusSanL-Regu-4c" transform="translate(71.929985 0) scale(0.996264)"/>
     </g>
    </g>
   </g>
  </g>
 </g>
 <defs>
  <clipPath id="p45d0064452">
   <rect x="32.586009" y="7.2" width="334.8" height="221.76"/>
  </clipPath>
 </defs>
</svg>
