<?xml version="1.0" encoding="utf-8" standalone="no"?>
<!DOCTYPE svg PUBLIC "-//W3C//DTD SVG 1.1//EN"
  "http://www.w3.org/Graphics/SVG/1.1/DTD/svg11.dtd">
<svg xmlns:xlink="http://www.w3.org/1999/xlink" width="379.567344pt" height="265.600613pt" viewBox="0 0 379.567344 265.600613" xmlns="http://www.w3.org/2000/svg" version="1.1">
 <metadata>
  <rdf:RDF xmlns:dc="http://purl.org/dc/elements/1.1/" xmlns:cc="http://creativecommons.org/ns#" xmlns:rdf="http://www.w3.org/1999/02/22-rdf-syntax-ns#">
   <cc:Work>
    <dc:type rdf:resource="http://purl.org/dc/dcmitype/StillImage"/>
    <dc:date>2025-08-02T14:27:02.476607</dc:date>
    <dc:format>image/svg+xml</dc:format>
    <dc:creator>
     <cc:Agent>
      <dc:title>Matplotlib v3.10.3, https://matplotlib.org/</dc:title>
     </cc:Agent>
    </dc:creator>
   </cc:Work>
  </rdf:RDF>
 </metadata>
 <defs>
  <style type="text/css">*{stroke-linejoin: round; stroke-linecap: butt}</style>
 </defs>
 <g id="figure_1">
  <g id="patch_1">
   <path d="M 0 265.600613 
L 379.567344 265.600613 
L 379.567344 0 
L 0 0 
z
" style="fill: #ffffff"/>
  </g>
  <g id="axes_1">
   <g id="patch_2">
    <path d="M 37.567344 228.96 
L 372.367344 228.96 
L 372.367344 7.2 
L 37.567344 7.2 
z
" style="fill: #ffffff"/>
   </g>
   <g id="matplotlib.axis_1">
    <g id="xtick_1">
     <g id="line2d_1">
      <defs>
       <path id="mb3983eea6f" d="M 0 0 
L 0 3.5 
" style="stroke: #000000; stroke-width: 0.8"/>
      </defs>
      <g>
       <use xlink:href="#mb3983eea6f" x="52.785526" y="228.96" style="stroke: #000000; stroke-width: 0.8"/>
      </g>
     </g>
     <g id="text_1">
      <!-- $\mathdefault{0}$ -->
      <g transform="translate(50.294859 243.05832) scale(0.1 -0.1)">
       <defs>
        <path id="CMR17-30" d="M 2688 2038 
C 2688 2430 2682 3099 2413 3613 
C 2176 4063 1798 4224 1466 4224 
C 1158 4224 768 4082 525 3620 
C 269 3137 243 2539 243 2038 
C 243 1671 250 1112 448 623 
C 723 -39 1216 -128 1466 -128 
C 1760 -128 2208 -7 2470 604 
C 2662 1048 2688 1568 2688 2038 
z
M 1466 -26 
C 1056 -26 813 328 723 816 
C 653 1196 653 1749 653 2109 
C 653 2604 653 3015 736 3407 
C 858 3954 1216 4121 1466 4121 
C 1728 4121 2067 3947 2189 3420 
C 2272 3054 2278 2623 2278 2109 
C 2278 1691 2278 1176 2202 797 
C 2067 96 1690 -26 1466 -26 
z
" transform="scale(0.015625)"/>
       </defs>
       <use xlink:href="#CMR17-30" transform="scale(0.996264)"/>
      </g>
     </g>
    </g>
    <g id="xtick_2">
     <g id="line2d_2">
      <g>
       <use xlink:href="#mb3983eea6f" x="95.461302" y="228.96" style="stroke: #000000; stroke-width: 0.8"/>
      </g>
     </g>
     <g id="text_2">
      <!-- $\mathdefault{500}$ -->
      <g transform="translate(87.9893 243.05832) scale(0.1 -0.1)">
       <defs>
        <path id="CMR17-35" d="M 730 3750 
C 794 3724 1056 3641 1325 3641 
C 1920 3641 2246 3961 2432 4140 
C 2432 4191 2432 4224 2394 4224 
C 2387 4224 2374 4224 2323 4198 
C 2099 4102 1837 4032 1517 4032 
C 1325 4032 1037 4055 723 4191 
C 653 4224 640 4224 634 4224 
C 602 4224 595 4217 595 4090 
L 595 2231 
C 595 2113 595 2080 659 2080 
C 691 2080 704 2093 736 2139 
C 941 2435 1222 2560 1542 2560 
C 1766 2560 2246 2415 2246 1293 
C 2246 1087 2246 716 2054 422 
C 1894 159 1645 25 1370 25 
C 947 25 518 319 403 812 
C 429 806 480 793 506 793 
C 589 793 749 838 749 1036 
C 749 1209 627 1280 506 1280 
C 358 1280 262 1190 262 1011 
C 262 454 704 -128 1382 -128 
C 2042 -128 2669 441 2669 1267 
C 2669 2054 2170 2662 1549 2662 
C 1222 2662 947 2540 730 2304 
L 730 3750 
z
" transform="scale(0.015625)"/>
       </defs>
       <use xlink:href="#CMR17-35" transform="scale(0.996264)"/>
       <use xlink:href="#CMR17-30" transform="translate(45.690477 0) scale(0.996264)"/>
       <use xlink:href="#CMR17-30" transform="translate(91.380954 0) scale(0.996264)"/>
      </g>
     </g>
    </g>
    <g id="xtick_3">
     <g id="line2d_3">
      <g>
       <use xlink:href="#mb3983eea6f" x="138.137079" y="228.96" style="stroke: #000000; stroke-width: 0.8"/>
      </g>
     </g>
     <g id="text_3">
      <!-- $\mathdefault{1000}$ -->
      <g transform="translate(128.174408 243.05832) scale(0.1 -0.1)">
       <defs>
        <path id="CMR17-31" d="M 1702 4083 
C 1702 4217 1696 4224 1606 4224 
C 1357 3927 979 3833 621 3820 
C 602 3820 570 3820 563 3808 
C 557 3795 557 3782 557 3648 
C 755 3648 1088 3686 1344 3839 
L 1344 467 
C 1344 243 1331 166 781 166 
L 589 166 
L 589 0 
C 896 6 1216 12 1523 12 
C 1830 12 2150 6 2458 0 
L 2458 166 
L 2266 166 
C 1715 166 1702 236 1702 467 
L 1702 4083 
z
" transform="scale(0.015625)"/>
       </defs>
       <use xlink:href="#CMR17-31" transform="scale(0.996264)"/>
       <use xlink:href="#CMR17-30" transform="translate(45.690477 0) scale(0.996264)"/>
       <use xlink:href="#CMR17-30" transform="translate(91.380954 0) scale(0.996264)"/>
       <use xlink:href="#CMR17-30" transform="translate(137.071431 0) scale(0.996264)"/>
      </g>
     </g>
    </g>
    <g id="xtick_4">
     <g id="line2d_4">
      <g>
       <use xlink:href="#mb3983eea6f" x="180.812855" y="228.96" style="stroke: #000000; stroke-width: 0.8"/>
      </g>
     </g>
     <g id="text_4">
      <!-- $\mathdefault{1500}$ -->
      <g transform="translate(170.850185 243.05832) scale(0.1 -0.1)">
       <use xlink:href="#CMR17-31" transform="scale(0.996264)"/>
       <use xlink:href="#CMR17-35" transform="translate(45.690477 0) scale(0.996264)"/>
       <use xlink:href="#CMR17-30" transform="translate(91.380954 0) scale(0.996264)"/>
       <use xlink:href="#CMR17-30" transform="translate(137.071431 0) scale(0.996264)"/>
      </g>
     </g>
    </g>
    <g id="xtick_5">
     <g id="line2d_5">
      <g>
       <use xlink:href="#mb3983eea6f" x="223.488631" y="228.96" style="stroke: #000000; stroke-width: 0.8"/>
      </g>
     </g>
     <g id="text_5">
      <!-- $\mathdefault{2000}$ -->
      <g transform="translate(213.525961 243.05832) scale(0.1 -0.1)">
       <defs>
        <path id="CMR17-32" d="M 2669 990 
L 2554 990 
C 2490 537 2438 460 2413 422 
C 2381 371 1920 371 1830 371 
L 602 371 
C 832 620 1280 1073 1824 1596 
C 2214 1966 2669 2400 2669 3033 
C 2669 3788 2067 4224 1395 4224 
C 691 4224 262 3603 262 3027 
C 262 2777 448 2745 525 2745 
C 589 2745 781 2783 781 3007 
C 781 3206 614 3264 525 3264 
C 486 3264 448 3257 422 3244 
C 544 3788 915 4057 1306 4057 
C 1862 4057 2227 3616 2227 3033 
C 2227 2477 1901 1998 1536 1583 
L 262 147 
L 262 0 
L 2515 0 
L 2669 990 
z
" transform="scale(0.015625)"/>
       </defs>
       <use xlink:href="#CMR17-32" transform="scale(0.996264)"/>
       <use xlink:href="#CMR17-30" transform="translate(45.690477 0) scale(0.996264)"/>
       <use xlink:href="#CMR17-30" transform="translate(91.380954 0) scale(0.996264)"/>
       <use xlink:href="#CMR17-30" transform="translate(137.071431 0) scale(0.996264)"/>
      </g>
     </g>
    </g>
    <g id="xtick_6">
     <g id="line2d_6">
      <g>
       <use xlink:href="#mb3983eea6f" x="266.164408" y="228.96" style="stroke: #000000; stroke-width: 0.8"/>
      </g>
     </g>
     <g id="text_6">
      <!-- $\mathdefault{2500}$ -->
      <g transform="translate(256.201737 243.05832) scale(0.1 -0.1)">
       <use xlink:href="#CMR17-32" transform="scale(0.996264)"/>
       <use xlink:href="#CMR17-35" transform="translate(45.690477 0) scale(0.996264)"/>
       <use xlink:href="#CMR17-30" transform="translate(91.380954 0) scale(0.996264)"/>
       <use xlink:href="#CMR17-30" transform="translate(137.071431 0) scale(0.996264)"/>
      </g>
     </g>
    </g>
    <g id="xtick_7">
     <g id="line2d_7">
      <g>
       <use xlink:href="#mb3983eea6f" x="308.840184" y="228.96" style="stroke: #000000; stroke-width: 0.8"/>
      </g>
     </g>
     <g id="text_7">
      <!-- $\mathdefault{3000}$ -->
      <g transform="translate(298.877513 243.05832) scale(0.1 -0.1)">
       <defs>
        <path id="CMR17-33" d="M 1414 2176 
C 1984 2176 2234 1673 2234 1094 
C 2234 322 1824 25 1453 25 
C 1114 25 563 193 390 691 
C 422 678 454 678 486 678 
C 640 678 755 780 755 947 
C 755 1132 614 1216 486 1216 
C 378 1216 211 1164 211 927 
C 211 335 787 -128 1466 -128 
C 2176 -128 2720 432 2720 1087 
C 2720 1718 2208 2176 1600 2246 
C 2086 2347 2554 2776 2554 3353 
C 2554 3856 2048 4224 1472 4224 
C 890 4224 378 3862 378 3347 
C 378 3123 544 3084 627 3084 
C 762 3084 877 3167 877 3334 
C 877 3500 762 3584 627 3584 
C 602 3584 570 3584 544 3571 
C 730 3999 1235 4076 1459 4076 
C 1683 4076 2106 3966 2106 3347 
C 2106 3167 2080 2851 1862 2574 
C 1670 2329 1453 2316 1242 2297 
C 1210 2297 1062 2284 1037 2284 
C 992 2278 966 2272 966 2227 
C 966 2182 973 2176 1101 2176 
L 1414 2176 
z
" transform="scale(0.015625)"/>
       </defs>
       <use xlink:href="#CMR17-33" transform="scale(0.996264)"/>
       <use xlink:href="#CMR17-30" transform="translate(45.690477 0) scale(0.996264)"/>
       <use xlink:href="#CMR17-30" transform="translate(91.380954 0) scale(0.996264)"/>
       <use xlink:href="#CMR17-30" transform="translate(137.071431 0) scale(0.996264)"/>
      </g>
     </g>
    </g>
    <g id="xtick_8">
     <g id="line2d_8">
      <g>
       <use xlink:href="#mb3983eea6f" x="351.51596" y="228.96" style="stroke: #000000; stroke-width: 0.8"/>
      </g>
     </g>
     <g id="text_8">
      <!-- $\mathdefault{3500}$ -->
      <g transform="translate(341.55329 243.05832) scale(0.1 -0.1)">
       <use xlink:href="#CMR17-33" transform="scale(0.996264)"/>
       <use xlink:href="#CMR17-35" transform="translate(45.690477 0) scale(0.996264)"/>
       <use xlink:href="#CMR17-30" transform="translate(91.380954 0) scale(0.996264)"/>
       <use xlink:href="#CMR17-30" transform="translate(137.071431 0) scale(0.996264)"/>
      </g>
     </g>
    </g>
    <g id="text_9">
     <!-- Iteration -->
     <g transform="translate(187.019968 256.278627) scale(0.1 -0.1)">
      <defs>
       <path id="NimbusSanL-Regu-49" d="M 1242 4672 
L 640 4672 
L 640 0 
L 1242 0 
L 1242 4672 
z
" transform="scale(0.015625)"/>
       <path id="NimbusSanL-Regu-74" d="M 1626 3328 
L 1075 3328 
L 1075 4249 
L 544 4249 
L 544 3328 
L 90 3328 
L 90 2892 
L 544 2892 
L 544 402 
C 544 64 774 -128 1190 -128 
C 1318 -128 1446 -116 1626 -84 
L 1626 364 
C 1555 345 1472 339 1370 339 
C 1139 339 1075 402 1075 634 
L 1075 2892 
L 1626 2892 
L 1626 3328 
z
" transform="scale(0.015625)"/>
       <path id="NimbusSanL-Regu-65" d="M 3283 1484 
C 3283 1998 3245 2311 3149 2565 
C 2931 3123 2419 3456 1792 3456 
C 858 3456 256 2734 256 1619 
C 256 545 838 -128 1779 -128 
C 2547 -128 3078 307 3213 1018 
L 2675 1018 
C 2528 588 2227 364 1798 364 
C 1459 364 1171 514 992 787 
C 864 974 819 1161 813 1484 
L 3283 1484 
z
M 826 1920 
C 870 2552 1248 2963 1786 2963 
C 2310 2963 2714 2519 2714 1959 
C 2714 1946 2714 1933 2707 1920 
L 826 1920 
z
" transform="scale(0.015625)"/>
       <path id="NimbusSanL-Regu-72" d="M 442 3328 
L 442 0 
L 979 0 
L 979 1727 
C 979 2203 1101 2514 1357 2698 
C 1523 2819 1683 2857 2054 2863 
L 2054 3404 
C 1965 3449 1920 3456 1850 3456 
C 1504 3456 1242 3251 934 2750 
L 934 3328 
L 442 3328 
z
" transform="scale(0.015625)"/>
       <path id="NimbusSanL-Regu-61" d="M 3424 332 
C 3366 320 3341 320 3309 320 
C 3123 320 3021 415 3021 581 
L 3021 2542 
C 3021 3135 2586 3456 1760 3456 
C 1274 3456 870 3315 646 3065 
C 493 2893 429 2702 416 2370 
L 954 2370 
C 998 2778 1242 2963 1741 2963 
C 2221 2963 2490 2784 2490 2466 
L 2490 2326 
C 2490 2103 2355 2007 1933 1956 
C 1178 1861 1062 1835 858 1753 
C 467 1593 269 1294 269 861 
C 269 256 691 -128 1370 -128 
C 1792 -128 2131 19 2509 364 
C 2547 25 2714 -128 3059 -128 
C 3168 -128 3251 -116 3424 -71 
L 3424 332 
z
M 2490 1071 
C 2490 893 2438 785 2278 638 
C 2061 441 1798 339 1485 339 
C 1069 339 826 536 826 874 
C 826 1224 1062 1402 1632 1485 
C 2195 1562 2310 1587 2490 1670 
L 2490 1071 
z
" transform="scale(0.015625)"/>
       <path id="NimbusSanL-Regu-69" d="M 960 3358 
L 429 3358 
L 429 0 
L 960 0 
L 960 3358 
z
M 960 4672 
L 422 4672 
L 422 3999 
L 960 3999 
L 960 4672 
z
" transform="scale(0.015625)"/>
       <path id="NimbusSanL-Regu-6f" d="M 1741 3456 
C 800 3456 230 2784 230 1663 
C 230 543 794 -128 1747 -128 
C 2688 -128 3264 543 3264 1638 
C 3264 2791 2707 3456 1741 3456 
z
M 1747 2963 
C 2349 2963 2707 2472 2707 1644 
C 2707 861 2336 364 1747 364 
C 1152 364 787 855 787 1663 
C 787 2466 1152 2963 1747 2963 
z
" transform="scale(0.015625)"/>
       <path id="NimbusSanL-Regu-6e" d="M 448 3328 
L 448 0 
L 986 0 
L 986 1835 
C 986 2539 1344 2988 1894 2988 
C 2317 2988 2586 2732 2586 2328 
L 2586 0 
L 3117 0 
L 3117 2539 
C 3117 3097 2701 3456 2054 3456 
C 1555 3456 1235 3263 941 2796 
L 941 3328 
L 448 3328 
z
" transform="scale(0.015625)"/>
      </defs>
      <use xlink:href="#NimbusSanL-Regu-49" transform="scale(0.996264)"/>
      <use xlink:href="#NimbusSanL-Regu-74" transform="translate(27.69517 0) scale(0.996264)"/>
      <use xlink:href="#NimbusSanL-Regu-65" transform="translate(55.390339 0) scale(0.996264)"/>
      <use xlink:href="#NimbusSanL-Regu-72" transform="translate(110.782016 0) scale(0.996264)"/>
      <use xlink:href="#NimbusSanL-Regu-61" transform="translate(142.961149 0) scale(0.996264)"/>
      <use xlink:href="#NimbusSanL-Regu-74" transform="translate(198.352826 0) scale(0.996264)"/>
      <use xlink:href="#NimbusSanL-Regu-69" transform="translate(226.047996 0) scale(0.996264)"/>
      <use xlink:href="#NimbusSanL-Regu-6f" transform="translate(248.16478 0) scale(0.996264)"/>
      <use xlink:href="#NimbusSanL-Regu-6e" transform="translate(303.556457 0) scale(0.996264)"/>
     </g>
    </g>
   </g>
   <g id="matplotlib.axis_2">
    <g id="ytick_1">
     <g id="line2d_9">
      <defs>
       <path id="ma58b47a147" d="M 0 0 
L -3.5 0 
" style="stroke: #000000; stroke-width: 0.8"/>
      </defs>
      <g>
       <use xlink:href="#ma58b47a147" x="37.567344" y="219.676208" style="stroke: #000000; stroke-width: 0.8"/>
      </g>
     </g>
     <g id="text_10">
      <!-- $\mathdefault{0}$ -->
      <g transform="translate(25.586009 223.225368) scale(0.1 -0.1)">
       <use xlink:href="#CMR17-30" transform="scale(0.996264)"/>
      </g>
     </g>
    </g>
    <g id="ytick_2">
     <g id="line2d_10">
      <g>
       <use xlink:href="#ma58b47a147" x="37.567344" y="179.865797" style="stroke: #000000; stroke-width: 0.8"/>
      </g>
     </g>
     <g id="text_11">
      <!-- $\mathdefault{5}$ -->
      <g transform="translate(25.586009 183.414957) scale(0.1 -0.1)">
       <use xlink:href="#CMR17-35" transform="scale(0.996264)"/>
      </g>
     </g>
    </g>
    <g id="ytick_3">
     <g id="line2d_11">
      <g>
       <use xlink:href="#ma58b47a147" x="37.567344" y="140.055386" style="stroke: #000000; stroke-width: 0.8"/>
      </g>
     </g>
     <g id="text_12">
      <!-- $\mathdefault{10}$ -->
      <g transform="translate(20.604674 143.604546) scale(0.1 -0.1)">
       <use xlink:href="#CMR17-31" transform="scale(0.996264)"/>
       <use xlink:href="#CMR17-30" transform="translate(45.690477 0) scale(0.996264)"/>
      </g>
     </g>
    </g>
    <g id="ytick_4">
     <g id="line2d_12">
      <g>
       <use xlink:href="#ma58b47a147" x="37.567344" y="100.244975" style="stroke: #000000; stroke-width: 0.8"/>
      </g>
     </g>
     <g id="text_13">
      <!-- $\mathdefault{15}$ -->
      <g transform="translate(20.604674 103.794135) scale(0.1 -0.1)">
       <use xlink:href="#CMR17-31" transform="scale(0.996264)"/>
       <use xlink:href="#CMR17-35" transform="translate(45.690477 0) scale(0.996264)"/>
      </g>
     </g>
    </g>
    <g id="ytick_5">
     <g id="line2d_13">
      <g>
       <use xlink:href="#ma58b47a147" x="37.567344" y="60.434564" style="stroke: #000000; stroke-width: 0.8"/>
      </g>
     </g>
     <g id="text_14">
      <!-- $\mathdefault{20}$ -->
      <g transform="translate(20.604674 63.983724) scale(0.1 -0.1)">
       <use xlink:href="#CMR17-32" transform="scale(0.996264)"/>
       <use xlink:href="#CMR17-30" transform="translate(45.690477 0) scale(0.996264)"/>
      </g>
     </g>
    </g>
    <g id="ytick_6">
     <g id="line2d_14">
      <g>
       <use xlink:href="#ma58b47a147" x="37.567344" y="20.624153" style="stroke: #000000; stroke-width: 0.8"/>
      </g>
     </g>
     <g id="text_15">
      <!-- $\mathdefault{25}$ -->
      <g transform="translate(20.604674 24.173313) scale(0.1 -0.1)">
       <use xlink:href="#CMR17-32" transform="scale(0.996264)"/>
       <use xlink:href="#CMR17-35" transform="translate(45.690477 0) scale(0.996264)"/>
      </g>
     </g>
    </g>
    <g id="text_16">
     <!-- Average CFL - Blade_0 -->
     <g transform="translate(14.482687 168.77932) rotate(-90) scale(0.1 -0.1)">
      <defs>
       <path id="NimbusSanL-Regu-41" d="M 3034 1408 
L 3514 0 
L 4179 0 
L 2541 4672 
L 1773 4672 
L 109 0 
L 742 0 
L 1235 1408 
L 3034 1408 
z
M 2867 1907 
L 1382 1907 
L 2150 4032 
L 2867 1907 
z
" transform="scale(0.015625)"/>
       <path id="NimbusSanL-Regu-76" d="M 1824 0 
L 3110 3328 
L 2509 3328 
L 1562 629 
L 666 3328 
L 64 3328 
L 1242 0 
L 1824 0 
z
" transform="scale(0.015625)"/>
       <path id="NimbusSanL-Regu-67" d="M 2637 3359 
L 2637 2873 
C 2368 3270 2042 3456 1613 3456 
C 762 3456 186 2714 186 1632 
C 186 1084 333 638 608 320 
C 858 38 1216 -128 1568 -128 
C 1990 -128 2285 51 2586 473 
L 2586 300 
C 2586 -155 2528 -441 2394 -634 
C 2253 -841 1978 -960 1651 -960 
C 1408 -960 1190 -894 1043 -774 
C 922 -674 870 -581 838 -375 
L 294 -375 
C 352 -1031 845 -1408 1632 -1408 
C 2131 -1408 2560 -1248 2778 -980 
C 3034 -661 3130 -222 3130 568 
L 3130 3359 
L 2637 3359 
z
M 1670 2963 
C 2246 2963 2586 2479 2586 1644 
C 2586 848 2240 364 1677 364 
C 1094 364 742 855 742 1663 
C 742 2466 1101 2963 1670 2963 
z
" transform="scale(0.015625)"/>
       <path id="NimbusSanL-Regu-43" d="M 4237 3219 
C 4051 4236 3462 4736 2438 4736 
C 1811 4736 1306 4537 960 4154 
C 538 3696 307 3035 307 2284 
C 307 1522 544 867 986 415 
C 1344 44 1805 -128 2413 -128 
C 3552 -128 4192 485 4333 1712 
L 3718 1712 
C 3667 1394 3603 1178 3507 994 
C 3315 612 2918 396 2419 396 
C 1491 396 902 1134 902 2291 
C 902 3480 1466 4211 2368 4211 
C 2746 4211 3098 4096 3290 3918 
C 3462 3759 3558 3562 3629 3219 
L 4237 3219 
z
" transform="scale(0.015625)"/>
       <path id="NimbusSanL-Regu-46" d="M 1171 2112 
L 3398 2112 
L 3398 2636 
L 1171 2636 
L 1171 4147 
L 3706 4147 
L 3706 4672 
L 576 4672 
L 576 0 
L 1171 0 
L 1171 2112 
z
" transform="scale(0.015625)"/>
       <path id="NimbusSanL-Regu-4c" d="M 1107 4672 
L 512 4672 
L 512 0 
L 3411 0 
L 3411 524 
L 1107 524 
L 1107 4672 
z
" transform="scale(0.015625)"/>
       <path id="NimbusSanL-Regu-2d" d="M 1818 1996 
L 294 1996 
L 294 1536 
L 1818 1536 
L 1818 1996 
z
" transform="scale(0.015625)"/>
       <path id="NimbusSanL-Regu-42" d="M 506 0 
L 2611 0 
C 3053 0 3379 121 3629 390 
C 3859 632 3987 961 3987 1321 
C 3987 1878 3731 2214 3136 2444 
C 3558 2643 3782 2994 3782 3476 
C 3782 3821 3654 4127 3411 4345 
C 3168 4569 2848 4672 2400 4672 
L 506 4672 
L 506 0 
z
M 1101 2636 
L 1101 4147 
L 2253 4147 
C 2586 4147 2771 4101 2931 3977 
C 3098 3847 3187 3652 3187 3391 
C 3187 3138 3098 2936 2931 2806 
C 2771 2682 2586 2636 2253 2636 
L 1101 2636 
z
M 1101 524 
L 1101 2112 
L 2554 2112 
C 2842 2112 3034 2042 3174 1890 
C 3315 1745 3392 1542 3392 1315 
C 3392 1093 3315 891 3174 746 
C 3034 594 2842 524 2554 524 
L 1101 524 
z
" transform="scale(0.015625)"/>
       <path id="NimbusSanL-Regu-6c" d="M 973 4672 
L 435 4672 
L 435 0 
L 973 0 
L 973 4672 
z
" transform="scale(0.015625)"/>
       <path id="NimbusSanL-Regu-64" d="M 3168 4672 
L 2637 4672 
L 2637 2937 
C 2413 3276 2054 3456 1606 3456 
C 736 3456 166 2759 166 1695 
C 166 568 723 -128 1626 -128 
C 2086 -128 2406 44 2694 460 
L 2694 19 
L 3168 19 
L 3168 4672 
z
M 1696 2956 
C 2272 2956 2637 2447 2637 1651 
C 2637 880 2266 371 1702 371 
C 1114 371 723 887 723 1663 
C 723 2440 1114 2956 1696 2956 
z
" transform="scale(0.015625)"/>
       <path id="NimbusSanL-Regu-30" d="M 1760 4544 
C 1338 4544 954 4358 717 4044 
C 422 3649 275 3043 275 2207 
C 275 683 787 -128 1760 -128 
C 2720 -128 3245 683 3245 2169 
C 3245 3049 3104 3636 2803 4044 
C 2566 4364 2189 4544 1760 4544 
z
M 1760 4044 
C 2368 4044 2669 3432 2669 2220 
C 2669 938 2374 339 1747 339 
C 1152 339 851 964 851 2201 
C 851 3438 1152 4044 1760 4044 
z
" transform="scale(0.015625)"/>
      </defs>
      <use xlink:href="#NimbusSanL-Regu-41" transform="scale(0.996264)"/>
      <use xlink:href="#NimbusSanL-Regu-76" transform="translate(62.465918 0) scale(0.996264)"/>
      <use xlink:href="#NimbusSanL-Regu-65" transform="translate(109.788488 0) scale(0.996264)"/>
      <use xlink:href="#NimbusSanL-Regu-72" transform="translate(165.180165 0) scale(0.996264)"/>
      <use xlink:href="#NimbusSanL-Regu-61" transform="translate(197.359298 0) scale(0.996264)"/>
      <use xlink:href="#NimbusSanL-Regu-67" transform="translate(252.750975 0) scale(0.996264)"/>
      <use xlink:href="#NimbusSanL-Regu-65" transform="translate(308.142652 0) scale(0.996264)"/>
      <use xlink:href="#NimbusSanL-Regu-43" transform="translate(391.229499 0) scale(0.996264)"/>
      <use xlink:href="#NimbusSanL-Regu-46" transform="translate(463.159484 0) scale(0.996264)"/>
      <use xlink:href="#NimbusSanL-Regu-4c" transform="translate(524.031114 0) scale(0.996264)"/>
      <use xlink:href="#NimbusSanL-Regu-2d" transform="translate(607.117961 0) scale(0.996264)"/>
      <use xlink:href="#NimbusSanL-Regu-42" transform="translate(667.98836 0) scale(0.996264)"/>
      <use xlink:href="#NimbusSanL-Regu-6c" transform="translate(734.438391 0) scale(0.996264)"/>
      <use xlink:href="#NimbusSanL-Regu-61" transform="translate(756.555176 0) scale(0.996264)"/>
      <use xlink:href="#NimbusSanL-Regu-64" transform="translate(811.946853 0) scale(0.996264)"/>
      <use xlink:href="#NimbusSanL-Regu-65" transform="translate(867.33853 0) scale(0.996264)"/>
      <use xlink:href="#NimbusSanL-Regu-30" transform="translate(958.595772 0) scale(0.996264)"/>
      <path d="M 928.707548 0 
L 958.595772 0 
L 958.595772 0.3985 
L 928.707548 0.3985 
L 928.707548 0 
z
"/>
     </g>
    </g>
   </g>
   <g id="line2d_15">
    <path d="M 52.785526 106.142522 
L 52.956229 58.793671 
L 53.041581 203.587955 
L 53.126932 200.370304 
L 53.382987 186.315605 
L 53.639042 162.029087 
L 53.895096 120.0879 
L 54.151151 49.167554 
L 54.236503 202.625343 
L 54.321854 199.21517 
L 54.577909 184.319534 
L 54.833963 158.579874 
L 55.090018 114.313325 
L 55.431424 38.815818 
L 55.687479 38.815818 
L 55.772831 201.590169 
L 55.858182 197.972961 
L 56.114237 182.172998 
L 56.370291 154.871398 
L 56.626346 107.81649 
L 56.797049 59.391605 
L 56.882401 203.647748 
L 56.967752 200.442056 
L 57.223807 186.439593 
L 57.479862 162.247801 
L 57.735916 120.595581 
L 58.077322 49.286207 
L 58.162674 202.637208 
L 58.248026 199.229408 
L 58.50408 184.344138 
L 58.760135 158.622658 
L 59.01619 114.227826 
L 59.272244 67.971492 
L 59.528299 67.971492 
L 59.61365 204.505737 
L 59.699002 201.471642 
L 59.955057 188.218718 
L 60.211111 165.317666 
L 60.467166 125.764573 
L 60.723221 57.571497 
L 60.808572 203.465737 
L 60.893924 200.223643 
L 61.149978 186.062175 
L 61.406033 161.591797 
L 61.662088 119.340278 
L 61.918142 46.379519 
L 62.003494 202.346539 
L 62.088845 198.880606 
L 62.3449 183.741407 
L 62.600955 157.580871 
L 62.857009 112.375466 
L 63.113064 34.260526 
L 63.198416 201.13464 
L 63.283767 197.426326 
L 63.539822 181.228412 
L 63.795876 153.238417 
L 64.051931 104.871705 
L 64.307986 54.383538 
L 64.393337 54.383538 
L 64.478689 21.352066 
L 64.56404 199.843794 
L 64.649392 195.877311 
L 64.905447 178.551714 
L 65.161501 148.613082 
L 65.417556 96.879126 
L 65.588259 42.854601 
L 65.673611 201.994048 
L 65.758962 198.457615 
L 66.015017 183.01048 
L 66.271072 156.31783 
L 66.527126 110.19293 
L 66.783181 30.489103 
L 66.868532 200.757498 
L 66.953884 196.973756 
L 67.209939 180.44637 
L 67.465993 151.887048 
L 67.722048 102.536539 
L 67.978103 17.28 
L 68.063454 199.436587 
L 68.148806 195.388663 
L 68.40486 177.70733 
L 68.660915 147.153987 
L 68.91697 94.357811 
L 69.087673 39.217716 
L 69.173024 201.630359 
L 69.258376 198.021189 
L 69.51443 182.256335 
L 69.770485 155.014668 
L 70.02654 107.946483 
L 70.197243 58.883648 
L 70.282594 203.596952 
L 70.367946 200.381101 
L 70.624001 186.334263 
L 70.880055 162.061327 
L 71.13611 120.121219 
L 71.392165 47.791458 
L 71.477516 202.487733 
L 71.562868 199.050038 
L 71.818922 184.034186 
L 72.074977 158.086794 
L 72.331032 113.252027 
L 72.587086 35.825324 
L 72.672438 201.29112 
L 72.757789 197.614102 
L 73.013844 181.552889 
L 73.269899 153.799112 
L 73.525953 105.840587 
L 73.696657 55.752913 
L 73.782008 203.283879 
L 73.86736 200.005413 
L 74.123414 185.685074 
L 74.379469 160.939528 
L 74.635524 118.179225 
L 74.891578 44.28942 
L 74.97693 202.137529 
L 75.062281 198.629794 
L 75.318336 183.308004 
L 75.574391 156.831951 
L 75.830445 111.081332 
L 76.001148 63.299586 
L 76.0865 204.038546 
L 76.171852 200.911014 
L 76.427906 187.249952 
L 76.683961 163.643637 
L 76.940016 122.851926 
L 77.19607 52.364893 
L 77.281422 202.945077 
L 77.366773 199.59885 
L 77.622828 184.982534 
L 77.878883 159.725539 
L 78.134937 116.081452 
L 78.30564 70.500406 
L 78.390992 204.758628 
L 78.476344 201.775112 
L 78.732398 188.743114 
L 78.988453 166.223821 
L 79.244507 127.310484 
L 79.500562 60.068236 
L 79.585914 203.715411 
L 79.671265 200.523252 
L 79.92732 186.579899 
L 80.183375 162.485786 
L 80.439429 120.851159 
L 80.695484 48.906523 
L 80.780835 202.59924 
L 80.866187 199.183846 
L 81.122242 184.265406 
L 81.378296 158.486342 
L 81.634351 113.94012 
L 81.890406 36.964248 
L 81.975757 201.405012 
L 82.061109 197.750773 
L 82.317163 181.789056 
L 82.573218 154.207209 
L 82.829273 106.545778 
L 83.085327 24.186825 
L 83.170679 200.12727 
L 83.25603 196.217482 
L 83.512085 179.13953 
L 83.76814 149.628828 
L 84.024194 98.634335 
L 84.194898 45.375911 
L 84.280249 202.246178 
L 84.365601 198.760173 
L 84.621655 183.533299 
L 84.87771 157.22126 
L 85.133765 111.754058 
L 85.389819 64.268312 
L 85.98728 64.268312 
L 86.072632 204.135419 
L 86.157983 201.027261 
L 86.414038 187.450827 
L 86.670093 163.990749 
L 86.926147 123.451735 
L 87.182202 53.400319 
L 87.267553 203.048619 
L 87.352905 199.723101 
L 87.60896 185.19724 
L 87.865014 160.096551 
L 88.121069 116.72256 
L 88.377124 41.772304 
L 88.462475 201.885818 
L 88.547827 198.32774 
L 88.803881 182.786055 
L 89.059936 155.930023 
L 89.315991 109.5228 
L 89.486694 61.055301 
L 89.572045 203.814117 
L 89.657397 200.641699 
L 89.913452 186.784577 
L 90.169506 162.839469 
L 90.425561 121.462323 
L 90.681616 49.962615 
L 90.766967 202.704849 
L 90.852319 199.310577 
L 91.108373 184.484397 
L 91.364428 158.864759 
L 91.620483 114.594024 
L 91.961889 38.094195 
L 92.04724 201.518007 
L 92.132592 197.886367 
L 92.388647 182.023362 
L 92.644701 154.61209 
L 92.900756 107.245411 
L 93.071459 57.775861 
L 93.156811 203.486173 
L 93.242162 200.248167 
L 93.498217 186.104552 
L 93.754271 161.664387 
L 94.010326 119.43178 
L 94.266381 46.453837 
L 94.351732 202.353971 
L 94.437084 198.889524 
L 94.693138 183.756817 
L 94.949193 157.607501 
L 95.205248 112.421482 
L 95.461302 65.229402 
L 97.50974 65.229402 
L 97.595091 204.231528 
L 97.680443 201.142591 
L 97.936497 187.650119 
L 98.192552 164.335125 
L 98.448607 124.046817 
L 98.704661 54.42862 
L 98.790013 203.151449 
L 98.875365 199.846498 
L 99.131419 185.410468 
L 99.387474 160.46501 
L 99.643529 117.359257 
L 99.899583 72.339798 
L 99.984935 72.339798 
L 100.070286 42.872516 
L 100.155638 201.995839 
L 100.240989 198.459765 
L 100.497044 183.014195 
L 100.753099 156.324249 
L 101.009153 110.204022 
L 101.179856 62.036261 
L 101.265208 203.912213 
L 101.35056 200.759415 
L 101.606614 186.987989 
L 101.862669 163.190965 
L 102.118724 122.069708 
L 102.374778 51.012175 
L 102.46013 202.809805 
L 102.545481 199.436524 
L 102.801536 184.702034 
L 103.057591 159.240836 
L 103.313645 115.243885 
L 103.5697 69.293662 
L 103.655052 69.293662 
L 103.740403 39.217153 
L 103.825755 201.630303 
L 103.911106 198.021122 
L 104.167161 182.256219 
L 104.423215 155.014466 
L 104.67927 107.940718 
L 104.849973 58.777102 
L 104.935325 203.586298 
L 105.020676 200.368315 
L 105.276731 186.31217 
L 105.532786 162.023149 
L 105.78884 120.051723 
L 106.044895 47.525097 
L 106.130247 202.461097 
L 106.215598 199.018075 
L 106.471653 183.978954 
L 106.727707 157.991353 
L 106.983762 113.084778 
L 107.239817 66.184548 
L 107.41052 66.184548 
L 107.495871 35.486216 
L 107.581223 201.257209 
L 107.666574 197.573409 
L 107.922629 181.482572 
L 108.178684 153.677604 
L 108.434738 105.63062 
L 108.605442 55.450561 
L 108.690793 203.253644 
L 108.776145 199.969131 
L 109.032199 185.622378 
L 109.288254 160.83119 
L 109.544309 117.992016 
L 109.800363 73.250972 
L 111.336691 73.250972 
L 111.422043 43.965925 
L 111.507394 202.10518 
L 111.592746 198.590974 
L 111.848801 183.240924 
L 112.104855 156.716037 
L 112.36091 110.881032 
L 112.531613 63.011154 
L 112.616965 204.009703 
L 112.702316 200.876402 
L 112.958371 187.190143 
L 113.214425 163.540287 
L 113.47048 122.673336 
L 113.726535 52.055245 
L 113.811886 202.914112 
L 113.897238 199.561693 
L 114.153292 184.918325 
L 114.409347 159.614587 
L 114.665402 115.889726 
L 114.921456 70.223674 
L 115.177511 70.223674 
L 115.262863 40.333167 
L 115.348214 201.741904 
L 115.433566 198.155043 
L 115.68962 182.487635 
L 115.945675 155.414354 
L 116.20173 108.631724 
L 116.372433 59.772151 
L 116.457784 203.685803 
L 116.543136 200.487721 
L 116.799191 186.518503 
L 117.055245 162.379694 
L 117.3113 120.667831 
L 117.567355 48.589732 
L 117.652706 202.567561 
L 117.738058 199.145831 
L 117.994112 184.199717 
L 118.250167 158.372831 
L 118.506222 113.743972 
L 118.762276 67.133788 
L 119.871846 67.133788 
L 119.957198 204.421966 
L 120.04255 201.371118 
L 120.298604 188.045012 
L 120.554659 165.017501 
L 120.810714 125.225962 
L 121.066768 56.466183 
L 121.15212 203.355206 
L 121.237471 200.091005 
L 121.493526 185.832977 
L 121.749581 161.195105 
L 122.005635 118.620862 
L 122.26169 74.15651 
L 123.029854 74.15651 
L 123.115205 205.124238 
L 123.200557 202.213844 
L 123.456612 189.501244 
L 123.712666 167.533869 
L 123.968721 129.574247 
L 124.224776 63.980019 
L 124.310127 204.106589 
L 124.395479 200.992666 
L 124.651533 187.391046 
L 124.907588 163.887449 
L 125.163643 123.273232 
L 125.419697 53.091865 
L 125.505049 203.017774 
L 125.590401 199.686087 
L 125.846455 185.133279 
L 126.10251 159.986026 
L 126.358564 116.531574 
L 126.614619 71.147934 
L 127.980244 71.147934 
L 128.150947 218.18895 
L 128.32165 218.88 
L 129.089814 218.88 
L 129.43122 218.025191 
L 129.687275 216.82325 
L 129.94333 214.746297 
L 130.199384 211.157321 
L 130.455439 204.955572 
L 130.711494 194.238948 
L 130.967548 175.720623 
L 131.223603 143.720956 
L 131.479658 88.425533 
L 131.565009 62.175398 
L 131.650361 203.926127 
L 131.735712 200.776111 
L 131.991767 187.01684 
L 132.16247 172.646718 
L 132.247822 214.973259 
L 132.333173 214.032669 
L 132.418525 212.903962 
L 132.589228 218.88 
L 132.845282 218.88 
L 133.186689 218.025191 
L 133.442743 216.82325 
L 133.698798 214.746297 
L 133.954853 211.157321 
L 134.210907 204.955572 
L 134.466962 194.238948 
L 134.723017 175.720623 
L 134.979071 143.720956 
L 135.235126 88.425533 
L 135.320478 62.175398 
L 135.405829 203.926127 
L 135.491181 200.776111 
L 135.747235 187.01684 
L 136.00329 163.24082 
L 136.259345 122.155858 
L 136.515399 51.161043 
L 136.600751 202.824692 
L 136.686102 199.454388 
L 136.942157 184.732904 
L 137.198212 159.294178 
L 137.454266 115.33606 
L 137.624969 69.426394 
L 137.710321 204.651227 
L 137.795673 201.646231 
L 138.051727 188.520407 
L 138.307782 165.838983 
L 138.563837 126.645484 
L 138.819891 58.919116 
L 138.905243 203.600499 
L 138.990594 200.385357 
L 139.246649 186.341618 
L 139.502704 162.074036 
L 139.758758 120.139654 
L 139.929461 76.34357 
L 140.014813 205.342944 
L 140.100164 202.476292 
L 140.356219 189.954752 
L 140.526922 218.88 
L 140.868328 218.88 
L 141.209735 218.025191 
L 141.465789 216.82325 
L 141.721844 214.746297 
L 141.977899 211.157321 
L 142.233953 204.955572 
L 142.490008 194.238948 
L 142.746063 175.720623 
L 143.002117 143.720956 
L 143.258172 88.425533 
L 143.343523 62.175398 
L 143.428875 203.926127 
L 143.514227 200.776111 
L 143.770281 187.01684 
L 144.026336 163.24082 
L 144.282391 122.155858 
L 144.538445 51.161043 
L 144.623797 202.824692 
L 144.709148 199.454388 
L 144.965203 184.732904 
L 145.135906 169.357849 
L 145.221258 214.644372 
L 145.306609 213.638005 
L 145.562664 209.242193 
L 145.818718 201.646231 
L 146.074773 188.520407 
L 146.330828 165.838983 
L 146.586882 126.645484 
L 146.842937 58.919116 
L 146.928289 203.600499 
L 147.01364 200.385357 
L 147.269695 186.341618 
L 147.52575 162.074036 
L 147.781804 120.139654 
L 148.037859 47.677042 
L 148.12321 202.476292 
L 148.208562 199.036308 
L 148.464617 184.010461 
L 148.720671 158.045797 
L 148.976726 113.178858 
L 149.147429 66.320024 
L 149.232781 204.34059 
L 149.318132 201.273466 
L 149.574187 187.87627 
L 149.830241 164.725915 
L 150.086296 124.722101 
L 150.342351 55.595511 
L 150.427702 203.268139 
L 150.513054 199.986525 
L 150.769109 185.652435 
L 151.025163 160.883128 
L 151.281218 118.081766 
L 151.537272 44.121011 
L 151.622624 202.120689 
L 151.707976 198.609585 
L 151.96403 183.273083 
L 152.220085 156.771607 
L 152.47614 110.977058 
L 152.732194 63.149431 
L 152.817546 63.149431 
L 152.902897 31.844076 
L 152.988249 200.892995 
L 153.0736 197.136352 
L 153.329655 180.727337 
L 153.58571 152.372559 
L 153.841764 103.375503 
L 154.012468 52.203192 
L 154.097819 202.928907 
L 154.183171 199.579446 
L 154.439225 184.949004 
L 154.69528 159.667599 
L 154.951335 115.981331 
L 155.207389 40.49146 
L 155.292741 201.757733 
L 155.378092 198.174038 
L 155.634147 182.520459 
L 155.890202 155.471073 
L 156.146256 108.729735 
L 156.316959 59.913287 
L 156.402311 203.699916 
L 156.487663 200.504658 
L 156.743717 186.547769 
L 156.999772 162.430265 
L 157.255827 120.755218 
L 157.511881 48.740738 
L 157.597233 202.582661 
L 157.682584 199.163952 
L 157.938639 184.231029 
L 158.194694 158.426939 
L 158.450748 113.837471 
L 158.706803 36.786869 
L 158.792154 201.387274 
L 158.877506 197.729488 
L 159.133561 181.752275 
L 159.389615 154.143651 
L 159.64567 106.43595 
L 159.901725 56.610237 
L 159.987076 56.610237 
L 160.072428 23.997042 
L 160.157779 200.108292 
L 160.243131 196.194708 
L 160.499186 179.100176 
L 160.75524 149.560825 
L 161.011295 98.516826 
L 161.181998 45.206698 
L 161.267349 202.229257 
L 161.352701 198.739867 
L 161.608756 183.498211 
L 161.86481 157.160628 
L 162.120865 111.649286 
L 162.462271 33.005687 
L 162.547623 201.009156 
L 162.632974 197.275746 
L 162.889029 180.968209 
L 163.145084 152.788786 
L 163.401138 104.094742 
L 163.571841 53.238897 
L 163.657193 203.032477 
L 163.742545 199.703731 
L 163.998599 185.163767 
L 164.254654 160.03871 
L 164.510708 116.622612 
L 164.766763 41.599594 
L 164.852115 201.868547 
L 164.937466 198.307014 
L 165.193521 182.750241 
L 165.449576 155.868138 
L 165.70563 109.415862 
L 165.961685 29.14633 
L 166.047036 200.62322 
L 166.132388 196.812623 
L 166.388443 180.167933 
L 166.644497 151.405908 
L 166.900552 101.70513 
L 167.071255 49.797855 
L 167.156607 202.688373 
L 167.241958 199.290806 
L 167.498013 184.450233 
L 167.754067 158.805723 
L 168.010122 114.49201 
L 168.266177 37.917913 
L 168.351528 201.500379 
L 168.43688 197.865213 
L 168.692935 181.986808 
L 168.948989 154.548925 
L 169.205044 107.136263 
L 169.375747 57.618686 
L 169.461099 203.470456 
L 169.54645 200.229306 
L 169.802505 186.071961 
L 170.058559 161.608068 
L 170.314614 119.334462 
L 170.570669 46.285671 
L 170.65602 202.337155 
L 170.741372 198.869344 
L 170.997426 183.721946 
L 171.253481 157.547244 
L 171.509536 112.317358 
L 171.76559 34.160115 
L 171.850942 201.124599 
L 171.936294 197.414277 
L 172.192348 181.207591 
L 172.448403 153.202438 
L 172.704458 104.809533 
L 172.875161 54.268196 
L 172.960512 203.135407 
L 173.045864 199.827247 
L 173.301918 185.377203 
L 173.557973 160.407527 
L 173.814028 117.259927 
L 174.070082 72.196763 
L 174.752895 72.196763 
L 174.838246 42.700874 
L 174.923598 201.978675 
L 175.008949 198.439168 
L 175.265004 182.978603 
L 175.521059 156.262746 
L 175.777113 110.097746 
L 176.033168 61.883222 
L 176.11852 61.883222 
L 176.203871 30.324625 
L 176.289223 200.74105 
L 176.374574 196.954018 
L 176.630629 180.412264 
L 176.886684 151.828113 
L 177.142738 102.434699 
L 177.313441 50.848435 
L 177.398793 202.793431 
L 177.484144 199.416875 
L 177.740199 184.668081 
L 177.996254 159.182165 
L 178.252308 115.142501 
L 178.508363 39.041962 
L 178.593715 201.612784 
L 178.679066 198.000099 
L 178.935121 182.219891 
L 179.191176 154.951692 
L 179.44723 107.832244 
L 179.617933 58.6209 
L 179.703285 203.570677 
L 179.788636 200.349571 
L 180.044691 186.279779 
L 180.300746 161.967179 
L 180.5568 119.955006 
L 180.812855 47.357971 
L 180.898207 202.444385 
L 180.983558 198.99802 
L 181.239613 183.944299 
L 181.495667 157.931468 
L 181.751722 112.981298 
L 181.922425 66.035537 
L 182.007777 204.312141 
L 182.093128 201.239328 
L 182.349183 187.817279 
L 182.605238 164.623978 
L 182.861292 124.545954 
L 183.117347 55.29113 
L 183.202698 203.2377 
L 183.28805 199.949999 
L 183.544105 185.589318 
L 183.800159 160.774062 
L 184.056214 117.8933 
L 184.39762 43.795343 
L 184.482972 202.088122 
L 184.568323 198.570504 
L 184.824378 183.205552 
L 185.080433 156.654914 
L 185.336487 110.775413 
L 185.50719 62.859062 
L 185.592542 203.994494 
L 185.677894 200.858151 
L 185.933948 187.158605 
L 186.190003 163.48579 
L 186.446057 122.579165 
L 186.702112 51.892517 
L 186.787464 202.897839 
L 186.872815 199.542165 
L 187.12887 184.884582 
L 187.384925 159.556278 
L 187.640979 115.788969 
L 187.982385 40.159059 
L 188.067737 201.724493 
L 188.153089 198.13415 
L 188.409143 182.451532 
L 188.665198 155.351968 
L 188.921253 108.523921 
L 189.091956 59.616915 
L 189.177307 203.670279 
L 189.262659 200.469093 
L 189.518713 186.486313 
L 189.774768 162.32407 
L 190.030823 120.571713 
L 190.286877 48.42364 
L 190.372229 202.550951 
L 190.45758 199.1259 
L 190.713635 184.165276 
L 190.96969 158.313317 
L 191.225744 113.641132 
L 191.396448 66.985698 
L 191.481799 204.407157 
L 191.567151 201.353347 
L 191.823205 188.014304 
L 192.07926 164.964438 
L 192.335315 125.134269 
L 192.591369 56.307737 
L 192.676721 203.339361 
L 192.762072 200.071992 
L 193.018127 185.800122 
L 193.274182 161.138331 
L 193.530236 118.522757 
L 193.700939 74.015238 
L 193.786291 205.110111 
L 193.871643 202.196892 
L 194.127697 189.47195 
L 194.383752 167.483249 
L 194.639807 129.486775 
L 194.895861 63.828868 
L 194.981213 204.091474 
L 195.066564 200.974527 
L 195.322619 187.359704 
L 195.578674 163.833288 
L 195.834728 123.179643 
L 196.090783 52.930143 
L 196.176134 203.001602 
L 196.261486 199.66668 
L 196.517541 185.099744 
L 196.773595 159.928078 
L 197.02965 116.43144 
L 197.285705 41.269248 
L 197.371056 201.835512 
L 197.456408 198.267373 
L 197.712462 182.681741 
L 197.968517 155.749769 
L 198.224572 109.211321 
L 198.395275 60.606771 
L 198.480626 203.769264 
L 198.565978 200.587876 
L 198.822033 186.69157 
L 199.078087 162.678753 
L 199.334142 121.184605 
L 199.590197 49.482718 
L 199.675548 202.656859 
L 199.7609 199.252989 
L 200.016954 184.384886 
L 200.273009 158.692804 
L 200.529064 114.296885 
L 200.699767 67.929983 
L 200.785118 204.501586 
L 200.87047 201.466661 
L 201.126525 188.210111 
L 201.382579 165.302792 
L 201.638634 125.718945 
L 201.894688 57.318058 
L 201.98004 203.440393 
L 202.065392 200.19323 
L 202.321446 186.009622 
L 202.577501 161.500347 
L 202.833556 119.148321 
L 203.08961 74.91605 
L 203.260313 74.91605 
L 203.345665 45.964019 
L 203.431016 202.304989 
L 203.516368 198.830745 
L 203.772423 183.655249 
L 204.028477 157.43199 
L 204.284532 112.118199 
L 204.455235 64.792675 
L 204.540587 204.187855 
L 204.625938 201.090184 
L 204.881993 187.559559 
L 205.138047 164.178638 
L 205.394102 123.776407 
L 205.650157 53.961352 
L 205.735508 203.104723 
L 205.82086 199.790425 
L 206.076915 185.313576 
L 206.332969 160.297579 
L 206.589024 117.069937 
L 206.845079 42.372571 
L 206.93043 201.945845 
L 207.015782 198.399772 
L 207.271836 182.910526 
L 207.527891 156.145109 
L 207.783946 109.89447 
L 207.954649 61.590505 
L 208.04 203.867638 
L 208.125352 200.705924 
L 208.381406 186.895557 
L 208.637461 163.031242 
L 208.893516 121.793707 
L 209.14957 50.535247 
L 209.234922 202.762112 
L 209.320274 199.379293 
L 209.576328 184.603138 
L 209.832383 159.069944 
L 210.088438 114.948583 
L 210.344492 68.868428 
L 210.429844 68.868428 
L 210.515195 38.706872 
L 210.600547 201.579275 
L 210.685898 197.959888 
L 210.941953 182.150407 
L 211.198008 154.831623 
L 211.454062 107.624765 
L 211.624765 58.32213 
L 211.710117 203.5408 
L 211.795469 200.313719 
L 212.051523 186.217827 
L 212.307578 161.860125 
L 212.563633 119.770016 
L 212.819687 47.038308 
L 212.905039 202.412418 
L 212.99039 198.95966 
L 213.246445 183.878013 
L 213.5025 157.816927 
L 213.758554 112.783371 
L 214.014609 34.965385 
L 214.099961 201.205126 
L 214.185312 197.510909 
L 214.441367 181.374572 
L 214.697421 153.490981 
L 214.953476 105.308135 
L 215.124179 54.986183 
L 215.209531 203.207206 
L 215.294882 199.913405 
L 215.550937 185.526085 
L 215.806992 160.664795 
L 216.063046 117.704485 
L 216.319101 43.469071 
L 216.404452 202.055495 
L 216.489804 198.531352 
L 216.745859 183.137896 
L 217.001913 156.538005 
L 217.257968 110.573393 
L 217.428671 62.568155 
L 217.514023 203.965403 
L 217.599374 200.823242 
L 217.855429 187.098282 
L 218.111483 163.381552 
L 218.367538 122.399043 
L 218.623593 51.581266 
L 218.708944 202.866714 
L 218.794296 199.504815 
L 219.050351 184.820041 
L 219.306405 159.444751 
L 219.56246 115.596251 
L 219.818515 39.826042 
L 219.903866 201.691192 
L 219.989218 198.094188 
L 220.245272 182.382478 
L 220.501327 155.232642 
L 220.757382 108.317725 
L 221.098788 27.24875 
L 221.184139 200.433462 
L 221.269491 196.584913 
L 221.525546 179.77445 
L 221.7816 150.725971 
L 222.037655 100.530198 
L 222.208358 48.105954 
L 222.29371 202.519183 
L 222.379061 199.087778 
L 222.635116 184.0994 
L 222.89117 158.199484 
L 223.147225 113.444429 
L 223.488631 36.107693 
L 223.573983 201.319357 
L 223.659334 197.647986 
L 223.915389 181.611441 
L 224.171444 153.90029 
L 224.427498 106.015422 
L 224.598201 56.004676 
L 224.683553 203.309055 
L 224.768905 200.035624 
L 225.024959 185.737279 
L 225.281014 161.029739 
L 225.537069 118.33511 
L 225.793123 44.55879 
L 225.878475 202.164466 
L 225.963826 198.662118 
L 226.219881 183.36386 
L 226.475936 156.928471 
L 226.73199 111.248119 
L 226.988045 63.539759 
L 227.073396 63.539759 
L 227.158748 32.312469 
L 227.2441 200.939834 
L 227.329451 197.19256 
L 227.585506 180.824463 
L 227.84156 152.540393 
L 228.097615 103.66552 
L 228.268318 52.620817 
L 228.35367 202.970669 
L 228.439021 199.629561 
L 228.695076 185.035602 
L 228.951131 159.817241 
L 229.207185 116.239913 
L 229.46324 40.93829 
L 229.548592 201.802416 
L 229.633943 198.227658 
L 229.889998 182.613113 
L 230.146052 155.631181 
L 230.402107 109.0064 
L 230.57281 60.311685 
L 230.658162 203.739756 
L 230.743513 200.552465 
L 230.999568 186.630381 
L 231.255623 162.573018 
L 231.511677 121.001896 
L 231.853083 49.166997 
L 231.938435 202.625287 
L 232.023787 199.215103 
L 232.279841 184.319418 
L 232.535896 158.579675 
L 232.791951 114.101399 
L 233.048005 67.648482 
L 233.133357 67.648482 
L 233.218708 37.242937 
L 233.30406 201.432881 
L 233.389411 197.784216 
L 233.645466 181.846845 
L 233.901521 154.307069 
L 234.157575 106.718335 
L 234.328278 57.016871 
L 234.41363 203.410275 
L 234.498982 200.157088 
L 234.755036 185.947168 
L 235.011091 161.392427 
L 235.267146 118.961834 
L 235.5232 45.64177 
L 235.608552 202.272764 
L 235.693903 198.792076 
L 235.949958 183.588427 
L 236.206013 157.316522 
L 236.462067 111.918671 
L 236.63277 64.505355 
L 236.718122 204.159123 
L 236.803473 201.055706 
L 237.059528 187.49998 
L 237.315583 164.075686 
L 237.571637 123.598506 
L 237.827692 53.653938 
L 237.913044 203.073981 
L 237.998395 199.753536 
L 238.25445 185.24983 
L 238.510505 160.187427 
L 238.766559 116.879595 
L 239.022614 71.649085 
L 239.107965 71.649085 
L 239.193317 42.04366 
L 239.278669 201.912953 
L 239.36402 198.360302 
L 239.620075 182.842323 
L 239.876129 156.027255 
L 240.132184 109.690816 
L 240.302887 61.297244 
L 240.388239 203.838312 
L 240.47359 200.670732 
L 240.729645 186.834746 
L 240.9857 162.926162 
L 241.241754 121.612128 
L 241.497809 50.221478 
L 241.58316 202.730735 
L 241.668512 199.341641 
L 241.924567 184.538075 
L 242.180621 158.957515 
L 242.436676 114.754305 
L 242.778082 38.37116 
L 242.863434 201.545703 
L 242.948785 197.919602 
L 243.20484 182.080793 
L 243.460895 154.711332 
L 243.716949 107.416901 
L 243.887652 58.022806 
L 243.973004 203.510868 
L 244.058355 200.2778 
L 244.31441 186.155759 
L 244.570465 161.752872 
L 244.826519 119.584683 
L 245.082574 46.718052 
L 245.167926 202.380393 
L 245.253277 198.921229 
L 245.509332 183.811605 
L 245.765386 157.702174 
L 246.021441 112.585077 
L 246.192144 65.464979 
L 246.277496 204.255085 
L 246.362847 201.170861 
L 246.618902 187.698968 
L 246.874957 164.419537 
L 247.131011 124.19268 
L 247.387066 54.680671 
L 247.472418 203.176654 
L 247.557769 199.876744 
L 247.813824 185.462734 
L 248.069878 160.555324 
L 248.325933 117.51532 
L 248.581988 43.142194 
L 248.667339 202.022807 
L 248.752691 198.492127 
L 249.008745 183.070115 
L 249.2648 156.420879 
L 249.520855 110.371 
L 249.691558 62.276708 
L 249.776909 203.936258 
L 249.862261 200.788268 
L 250.118316 187.037848 
L 250.37437 163.277121 
L 250.630425 122.218586 
L 250.88648 51.269437 
L 250.971831 202.835531 
L 251.057183 199.467396 
L 251.313237 184.75538 
L 251.569292 159.333017 
L 251.825347 115.403175 
L 251.99605 69.52304 
L 252.081401 204.660891 
L 252.166753 201.657828 
L 252.422808 188.540447 
L 252.678862 165.873613 
L 252.934917 126.705324 
L 253.190972 59.02252 
L 253.276323 203.610839 
L 253.361675 200.397766 
L 253.617729 186.36306 
L 253.873784 162.111087 
L 254.129839 120.203679 
L 254.385893 47.787678 
L 254.471245 202.487355 
L 254.556596 199.049585 
L 254.812651 184.033403 
L 255.068706 158.08544 
L 255.32476 113.247361 
L 255.580815 66.418668 
L 255.751518 66.418668 
L 255.83687 35.76716 
L 255.922221 201.285303 
L 256.007573 197.607122 
L 256.263627 181.540828 
L 256.519682 153.778271 
L 256.775737 105.804573 
L 256.94644 55.701054 
L 257.031791 203.278693 
L 257.117143 199.99919 
L 257.373198 185.67432 
L 257.629252 160.920946 
L 257.885307 118.147114 
L 258.141362 44.233934 
L 258.226713 202.131981 
L 258.312065 198.623135 
L 258.568119 183.296498 
L 258.824174 156.812069 
L 259.080229 111.046976 
L 259.250932 63.250114 
L 259.336283 204.033599 
L 259.421635 200.905077 
L 259.67769 187.239693 
L 259.933744 163.625911 
L 260.189799 122.821294 
L 260.445854 52.310916 
L 260.531205 202.939679 
L 260.616557 199.592373 
L 260.872611 184.971341 
L 261.128666 159.706198 
L 261.384721 116.048031 
L 261.555424 70.451633 
L 261.640775 204.753751 
L 261.726127 201.769259 
L 261.982181 188.733 
L 262.238236 166.206345 
L 262.494291 127.280284 
L 262.750345 60.016052 
L 262.835697 203.710193 
L 262.921049 200.516989 
L 263.177103 186.569078 
L 263.433158 162.467088 
L 263.689213 120.818848 
L 263.945267 77.321609 
L 264.030619 77.321609 
L 264.11597 48.850689 
L 264.201322 202.593656 
L 264.286673 199.177146 
L 264.542728 184.253829 
L 264.798783 158.466336 
L 265.054837 113.905549 
L 265.22554 67.36646 
L 265.310892 204.445233 
L 265.396244 201.399038 
L 265.652298 188.093259 
L 265.908353 165.100872 
L 266.164408 125.370026 
L 266.420462 56.715126 
L 266.505814 203.3801 
L 266.591165 200.120878 
L 266.84722 185.884598 
L 267.103275 161.284306 
L 267.359329 118.775001 
L 267.615384 45.318923 
L 267.700736 202.24048 
L 267.786087 198.753334 
L 268.042142 183.521482 
L 268.298196 157.200841 
L 268.554251 111.718773 
L 268.724954 64.217501 
L 268.810306 204.130338 
L 268.895657 201.021163 
L 269.151712 187.440291 
L 269.407767 163.972543 
L 269.663821 123.420274 
L 269.919876 53.345955 
L 270.005227 203.043183 
L 270.090579 199.716578 
L 270.346634 185.185967 
L 270.602688 160.077071 
L 270.858743 116.688899 
L 271.029446 71.374483 
L 271.114798 204.846036 
L 271.200149 201.880001 
L 271.456204 188.924363 
L 271.712258 166.537019 
L 271.968313 127.851689 
L 272.224368 61.003439 
L 272.309719 203.808931 
L 272.395071 200.635476 
L 272.651126 186.773823 
L 272.90718 162.820886 
L 273.163235 121.430212 
L 273.41929 49.907126 
L 273.504641 202.6993 
L 273.589993 199.303918 
L 273.846047 184.472891 
L 274.102102 158.844877 
L 274.358157 114.559668 
L 274.52886 68.30839 
L 274.614211 204.539426 
L 274.699563 201.51207 
L 274.955617 188.288577 
L 275.211672 165.438382 
L 275.467727 125.953245 
L 275.723781 57.722927 
L 275.809133 203.48088 
L 275.894485 200.241814 
L 276.150539 186.093576 
L 276.406594 161.64542 
L 276.662649 119.399005 
L 277.004055 46.397202 
L 277.089406 202.348308 
L 277.174758 198.882727 
L 277.430812 183.745073 
L 277.686867 157.587207 
L 277.942922 112.386415 
L 278.113625 65.178905 
L 278.198976 204.226478 
L 278.284328 201.136532 
L 278.540383 187.639648 
L 278.796437 164.317031 
L 279.052492 124.015551 
L 279.308547 54.374592 
L 279.393898 203.146047 
L 279.47925 199.840014 
L 279.735304 185.399265 
L 279.991359 160.44565 
L 280.247414 117.325804 
L 280.503468 72.291627 
L 280.674171 72.291627 
L 280.759523 42.81471 
L 280.844875 201.990058 
L 280.930226 198.452828 
L 281.186281 183.002208 
L 281.442335 156.303536 
L 281.69839 110.16823 
L 281.869093 61.98472 
L 281.954445 203.907059 
L 282.039796 200.75323 
L 282.295851 186.977301 
L 282.551906 163.172497 
L 282.80796 122.037795 
L 283.064015 50.95703 
L 283.149367 202.80429 
L 283.234718 199.429907 
L 283.490773 184.6906 
L 283.746827 159.221076 
L 284.002882 115.20974 
L 284.173585 69.244494 
L 284.258937 204.633037 
L 284.344288 201.624403 
L 284.600343 188.482688 
L 284.856398 165.773805 
L 285.112452 126.532856 
L 285.368507 58.724496 
L 285.453858 203.581037 
L 285.53921 200.362003 
L 285.795265 186.301261 
L 286.051319 162.0043 
L 286.307374 120.01915 
L 286.563429 47.468812 
L 286.64878 202.455469 
L 286.734132 199.011321 
L 286.990186 183.967283 
L 287.246241 157.971185 
L 287.502296 113.049928 
L 287.672999 66.134364 
L 287.75835 204.322024 
L 287.843702 201.251187 
L 288.099757 187.837771 
L 288.355811 164.659389 
L 288.611866 124.607145 
L 288.867921 55.396867 
L 288.953272 203.248274 
L 289.038624 199.962687 
L 289.294678 185.611244 
L 289.550733 160.81195 
L 289.806788 117.95877 
L 290.062842 73.203098 
L 290.318897 73.203098 
L 290.404248 43.908476 
L 290.4896 202.099435 
L 290.574952 198.58408 
L 290.831006 183.229011 
L 291.087061 156.695452 
L 291.343116 110.845461 
L 291.513819 62.959932 
L 291.59917 204.004581 
L 291.684522 200.870255 
L 291.940576 187.179521 
L 292.196631 163.521933 
L 292.452686 122.641621 
L 292.70874 52.000441 
L 292.794092 202.908632 
L 292.879444 199.555116 
L 293.135498 184.906961 
L 293.391553 159.594949 
L 293.647607 115.855793 
L 293.818311 70.17481 
L 293.903662 204.726068 
L 293.989014 201.73604 
L 294.245068 188.675598 
L 294.501123 166.107154 
L 294.757178 127.108883 
L 295.013232 59.71987 
L 295.098584 203.680574 
L 295.183935 200.481448 
L 295.43999 186.507662 
L 295.696045 162.36096 
L 295.952099 120.63546 
L 296.208154 77.057531 
L 296.293506 77.057531 
L 296.378857 48.533795 
L 296.464209 202.561967 
L 296.54956 199.139119 
L 296.805615 184.188117 
L 297.06167 158.352787 
L 297.317724 113.709337 
L 297.488427 67.083914 
L 297.573779 204.416979 
L 297.65913 201.365133 
L 297.915185 188.03467 
L 298.17124 164.99963 
L 298.427294 125.195081 
L 298.683349 56.412821 
L 298.768701 203.34987 
L 298.854052 200.084602 
L 299.110107 185.821912 
L 299.366161 161.175985 
L 299.622216 118.587822 
L 299.963622 44.995477 
L 300.048974 202.208135 
L 300.134325 198.71452 
L 300.39038 183.454412 
L 300.646435 157.084944 
L 300.902489 111.518504 
L 301.073193 63.929114 
L 301.158544 204.101499 
L 301.243896 200.986557 
L 301.49995 187.380491 
L 301.756005 163.869208 
L 302.01206 123.241712 
L 302.268114 53.0374 
L 302.353466 203.012327 
L 302.438817 199.679551 
L 302.694872 185.121985 
L 302.950927 159.96651 
L 303.206981 116.49785 
L 303.548388 41.384005 
L 303.633739 201.846988 
L 303.719091 198.281144 
L 303.975145 182.705537 
L 304.2312 155.790888 
L 304.487255 109.282376 
L 304.657958 60.709089 
L 304.743309 203.779496 
L 304.828661 200.600154 
L 305.084716 186.712786 
L 305.34077 162.715415 
L 305.596825 121.247958 
L 305.852879 49.592192 
L 305.938231 202.667807 
L 306.023583 199.266126 
L 306.279637 184.407587 
L 306.535692 158.73203 
L 306.791747 114.364669 
L 306.96245 68.027591 
L 307.047801 204.511347 
L 307.133153 201.478374 
L 307.389207 188.230351 
L 307.645262 165.337767 
L 307.901317 125.779382 
L 308.157371 57.422492 
L 308.242723 203.450837 
L 308.328075 200.205762 
L 308.584129 186.031278 
L 308.840184 161.537768 
L 309.096238 119.212984 
L 309.352293 75.009165 
L 309.437645 75.009165 
L 309.522996 46.075756 
L 309.608348 202.316163 
L 309.693699 198.844154 
L 309.949754 183.678418 
L 310.205809 157.472028 
L 310.461863 112.187384 
L 310.632566 64.892301 
L 310.717918 204.197818 
L 310.80327 201.102139 
L 311.059324 187.580217 
L 311.315379 164.214336 
L 311.571434 123.838093 
L 311.827488 54.067945 
L 311.91284 203.115382 
L 311.998191 199.803217 
L 312.254246 185.335679 
L 312.510301 160.335773 
L 312.766355 117.135937 
L 313.02241 72.018217 
L 313.107761 72.018217 
L 313.193113 42.486619 
L 313.278465 201.957249 
L 313.363816 198.413458 
L 313.619871 182.934175 
L 313.875925 156.185975 
L 314.13198 109.965085 
L 314.302683 61.692191 
L 314.388035 203.877806 
L 314.473386 200.718126 
L 314.729441 186.916642 
L 314.985496 163.067678 
L 315.24155 121.856669 
L 315.582956 50.644044 
L 315.668308 202.772992 
L 315.75366 199.392348 
L 316.009714 184.625699 
L 316.265769 159.108928 
L 316.521824 115.015947 
L 316.692527 68.965433 
L 316.777878 204.605131 
L 316.86323 201.590915 
L 317.119284 188.424822 
L 317.375339 165.673812 
L 317.631394 126.360068 
L 317.887448 58.425918 
L 317.9728 203.551179 
L 318.058152 200.326173 
L 318.314206 186.239348 
L 318.570261 161.897314 
L 318.826315 119.834279 
L 319.167722 47.149354 
L 319.253073 202.423523 
L 319.338425 198.972986 
L 319.594479 183.90104 
L 319.850534 157.856717 
L 320.106589 112.852128 
L 320.277292 65.849532 
L 320.362643 204.293541 
L 320.447995 201.217007 
L 320.70405 187.778709 
L 320.960104 164.557329 
L 321.216159 124.430785 
L 321.472214 55.092117 
L 321.557565 203.217799 
L 321.642917 199.926117 
L 321.898971 185.548051 
L 322.155026 160.702753 
L 322.411081 117.770077 
L 322.667135 72.931379 
L 322.752487 72.931379 
L 322.837838 43.582414 
L 322.92319 202.066829 
L 323.008542 198.544953 
L 323.264596 183.161399 
L 323.520651 156.578618 
L 323.776706 110.643572 
L 323.947409 62.669212 
L 324.03276 203.975509 
L 324.118112 200.835369 
L 324.374166 187.119237 
L 324.630221 163.417763 
L 324.886276 122.461615 
L 325.14233 51.68939 
L 325.227682 202.877526 
L 325.313033 199.51779 
L 325.569088 184.842462 
L 325.825143 159.483494 
L 326.081197 115.663198 
L 326.422604 39.941727 
L 326.507955 201.70276 
L 326.593307 198.10807 
L 326.849361 182.406466 
L 327.105416 155.274094 
L 327.361471 108.389355 
L 327.532174 59.42314 
L 327.617525 203.650901 
L 327.702877 200.44584 
L 327.958932 186.446132 
L 328.214986 162.254636 
L 328.471041 120.451732 
L 328.727096 48.216313 
L 328.812447 202.530219 
L 328.897799 199.101021 
L 329.153853 184.122284 
L 329.409908 158.239028 
L 329.665963 113.512761 
L 330.007369 36.225771 
L 330.09272 201.331164 
L 330.178072 197.662156 
L 330.434127 181.635925 
L 330.690181 153.9426 
L 330.946236 106.088533 
L 331.116939 56.109955 
L 331.202291 203.319583 
L 331.287642 200.048258 
L 331.543697 185.75911 
L 331.799751 161.067463 
L 332.055806 118.400296 
L 332.311861 44.671431 
L 332.397212 202.175731 
L 332.482564 198.675635 
L 332.738619 183.387218 
L 332.994673 156.968833 
L 333.250728 111.317863 
L 333.421431 63.640191 
L 333.506783 204.072607 
L 333.592134 200.951886 
L 333.848189 187.32058 
L 334.104243 163.765682 
L 334.360298 123.062819 
L 334.616353 52.728272 
L 334.701704 202.981415 
L 334.787056 199.642456 
L 335.04311 185.057884 
L 335.299165 159.855744 
L 335.55522 116.306447 
L 335.896626 41.05326 
L 335.981978 201.813913 
L 336.067329 198.241454 
L 336.323384 182.636954 
L 336.579438 155.672376 
L 336.835493 109.077587 
L 337.006196 60.414193 
L 337.091548 203.750007 
L 337.176899 200.564766 
L 337.432954 186.651637 
L 337.689009 162.609749 
L 337.945063 121.065366 
L 338.201118 49.276674 
L 338.286469 202.636255 
L 338.371821 199.228264 
L 338.627876 184.342161 
L 338.88393 158.618974 
L 339.139985 114.169308 
L 339.481391 37.360284 
L 339.566743 201.444616 
L 339.652094 197.798297 
L 339.908149 181.871178 
L 340.164204 154.349116 
L 340.420258 106.790994 
L 340.590961 57.121499 
L 340.676313 203.420737 
L 340.761664 200.169643 
L 341.017719 185.968864 
L 341.273774 161.429917 
L 341.529828 119.026617 
L 341.785883 45.753714 
L 341.871235 202.283959 
L 341.956586 198.805509 
L 342.212641 183.61164 
L 342.468696 157.356634 
L 342.72475 111.987984 
L 342.980805 64.605166 
L 343.066156 64.605166 
L 343.151508 33.590957 
L 343.236859 201.067683 
L 343.322211 197.345978 
L 343.578266 181.089571 
L 343.83432 152.998498 
L 344.090375 104.457126 
L 344.261078 53.760729 
L 344.34643 203.08466 
L 344.431781 199.766351 
L 344.687836 185.271975 
L 344.943891 160.225692 
L 345.199945 116.945717 
L 345.456 42.157919 
L 345.541351 201.924379 
L 345.626703 198.374014 
L 345.882758 182.866016 
L 346.138812 156.068196 
L 346.394867 109.761563 
L 346.56557 61.399119 
L 346.650922 203.848499 
L 346.736273 200.682957 
L 346.992328 186.855871 
L 347.248382 162.962665 
L 347.504437 121.675206 
L 347.760492 50.330477 
L 347.845843 202.741635 
L 347.931195 199.35472 
L 348.18725 184.560677 
L 348.443304 158.996571 
L 348.699359 114.821795 
L 349.040765 38.487782 
L 349.126117 201.557366 
L 349.211468 197.933597 
L 349.467523 182.104976 
L 349.723577 154.753119 
L 349.979632 107.48911 
L 350.150335 58.126787 
L 350.235687 203.521266 
L 350.321038 200.290278 
L 350.577093 186.17732 
L 350.833148 161.79013 
L 351.089202 119.649065 
L 351.345257 46.829304 
L 351.430609 202.391518 
L 351.51596 198.93458 
L 351.772015 183.834674 
L 352.028069 157.742037 
L 352.284124 112.653961 
L 352.540179 65.564172 
L 352.62553 65.564172 
L 352.710882 34.741765 
L 352.796233 201.182764 
L 352.881585 197.484075 
L 353.13764 181.328202 
L 353.393694 153.410854 
L 353.649749 105.169676 
L 353.820452 54.786801 
L 353.905804 203.187268 
L 353.991155 199.889479 
L 354.24721 185.484741 
L 354.503264 160.593353 
L 354.759319 117.581034 
L 355.015374 43.255746 
L 355.100725 202.034162 
L 355.186077 198.505753 
L 355.442132 183.093661 
L 355.698186 156.461567 
L 355.954241 110.441308 
L 356.295647 30.918301 
L 356.380999 200.800418 
L 356.46635 197.025259 
L 356.722405 180.535369 
L 356.978459 152.040837 
L 357.149163 122.281274 
L 357.149163 122.281274 
" clip-path="url(#pf18c374b44)" style="fill: none; stroke: #1f77b4; stroke-width: 1.5; stroke-linecap: square"/>
   </g>
   <g id="patch_3">
    <path d="M 37.567344 228.96 
L 37.567344 7.2 
" style="fill: none; stroke: #000000; stroke-width: 0.8; stroke-linejoin: miter; stroke-linecap: square"/>
   </g>
   <g id="patch_4">
    <path d="M 372.367344 228.96 
L 372.367344 7.2 
" style="fill: none; stroke: #000000; stroke-width: 0.8; stroke-linejoin: miter; stroke-linecap: square"/>
   </g>
   <g id="patch_5">
    <path d="M 37.567344 228.96 
L 372.367344 228.96 
" style="fill: none; stroke: #000000; stroke-width: 0.8; stroke-linejoin: miter; stroke-linecap: square"/>
   </g>
   <g id="patch_6">
    <path d="M 37.567344 7.2 
L 372.367344 7.2 
" style="fill: none; stroke: #000000; stroke-width: 0.8; stroke-linejoin: miter; stroke-linecap: square"/>
   </g>
   <g id="legend_1">
    <g id="patch_7">
     <path d="M 314.548024 29.420307 
L 365.367344 29.420307 
Q 367.367344 29.420307 367.367344 27.420307 
L 367.367344 14.2 
Q 367.367344 12.2 365.367344 12.2 
L 314.548024 12.2 
Q 312.548024 12.2 312.548024 14.2 
L 312.548024 27.420307 
Q 312.548024 29.420307 314.548024 29.420307 
z
" style="fill: #ffffff; opacity: 0.8; stroke: #cccccc; stroke-linejoin: miter"/>
    </g>
    <g id="line2d_16">
     <path d="M 316.548024 19.79832 
L 326.548024 19.79832 
L 336.548024 19.79832 
" style="fill: none; stroke: #1f77b4; stroke-width: 1.5; stroke-linecap: square"/>
    </g>
    <g id="text_17">
     <!-- CFL -->
     <g transform="translate(344.548024 23.29832) scale(0.1 -0.1)">
      <use xlink:href="#NimbusSanL-Regu-43" transform="scale(0.996264)"/>
      <use xlink:href="#NimbusSanL-Regu-46" transform="translate(71.929985 0) scale(0.996264)"/>
      <use xlink:href="#NimbusSanL-Regu-4c" transform="translate(132.801616 0) scale(0.996264)"/>
     </g>
    </g>
   </g>
  </g>
 </g>
 <defs>
  <clipPath id="pf18c374b44">
   <rect x="37.567344" y="7.2" width="334.8" height="221.76"/>
  </clipPath>
 </defs>
</svg>
