<?xml version="1.0" encoding="utf-8" standalone="no"?>
<!DOCTYPE svg PUBLIC "-//W3C//DTD SVG 1.1//EN"
  "http://www.w3.org/Graphics/SVG/1.1/DTD/svg11.dtd">
<svg xmlns:xlink="http://www.w3.org/1999/xlink" width="374.586009pt" height="265.600613pt" viewBox="0 0 374.586009 265.600613" xmlns="http://www.w3.org/2000/svg" version="1.1">
 <metadata>
  <rdf:RDF xmlns:dc="http://purl.org/dc/elements/1.1/" xmlns:cc="http://creativecommons.org/ns#" xmlns:rdf="http://www.w3.org/1999/02/22-rdf-syntax-ns#">
   <cc:Work>
    <dc:type rdf:resource="http://purl.org/dc/dcmitype/StillImage"/>
    <dc:date>2025-08-02T14:08:54.453472</dc:date>
    <dc:format>image/svg+xml</dc:format>
    <dc:creator>
     <cc:Agent>
      <dc:title>Matplotlib v3.10.3, https://matplotlib.org/</dc:title>
     </cc:Agent>
    </dc:creator>
   </cc:Work>
  </rdf:RDF>
 </metadata>
 <defs>
  <style type="text/css">*{stroke-linejoin: round; stroke-linecap: butt}</style>
 </defs>
 <g id="figure_1">
  <g id="patch_1">
   <path d="M 0 265.600613 
L 374.586009 265.600613 
L 374.586009 0 
L 0 0 
z
" style="fill: #ffffff"/>
  </g>
  <g id="axes_1">
   <g id="patch_2">
    <path d="M 32.586009 228.96 
L 367.386009 228.96 
L 367.386009 7.2 
L 32.586009 7.2 
z
" style="fill: #ffffff"/>
   </g>
   <g id="matplotlib.axis_1">
    <g id="xtick_1">
     <g id="line2d_1">
      <defs>
       <path id="m6da8237c9d" d="M 0 0 
L 0 3.5 
" style="stroke: #000000; stroke-width: 0.8"/>
      </defs>
      <g>
       <use xlink:href="#m6da8237c9d" x="47.804191" y="228.96" style="stroke: #000000; stroke-width: 0.8"/>
      </g>
     </g>
     <g id="text_1">
      <!-- $\mathdefault{0}$ -->
      <g transform="translate(45.313523 243.05832) scale(0.1 -0.1)">
       <defs>
        <path id="CMR17-30" d="M 2688 2038 
C 2688 2430 2682 3099 2413 3613 
C 2176 4063 1798 4224 1466 4224 
C 1158 4224 768 4082 525 3620 
C 269 3137 243 2539 243 2038 
C 243 1671 250 1112 448 623 
C 723 -39 1216 -128 1466 -128 
C 1760 -128 2208 -7 2470 604 
C 2662 1048 2688 1568 2688 2038 
z
M 1466 -26 
C 1056 -26 813 328 723 816 
C 653 1196 653 1749 653 2109 
C 653 2604 653 3015 736 3407 
C 858 3954 1216 4121 1466 4121 
C 1728 4121 2067 3947 2189 3420 
C 2272 3054 2278 2623 2278 2109 
C 2278 1691 2278 1176 2202 797 
C 2067 96 1690 -26 1466 -26 
z
" transform="scale(0.015625)"/>
       </defs>
       <use xlink:href="#CMR17-30" transform="scale(0.996264)"/>
      </g>
     </g>
    </g>
    <g id="xtick_2">
     <g id="line2d_2">
      <g>
       <use xlink:href="#m6da8237c9d" x="105.95544" y="228.96" style="stroke: #000000; stroke-width: 0.8"/>
      </g>
     </g>
     <g id="text_2">
      <!-- $\mathdefault{500}$ -->
      <g transform="translate(98.483437 243.05832) scale(0.1 -0.1)">
       <defs>
        <path id="CMR17-35" d="M 730 3750 
C 794 3724 1056 3641 1325 3641 
C 1920 3641 2246 3961 2432 4140 
C 2432 4191 2432 4224 2394 4224 
C 2387 4224 2374 4224 2323 4198 
C 2099 4102 1837 4032 1517 4032 
C 1325 4032 1037 4055 723 4191 
C 653 4224 640 4224 634 4224 
C 602 4224 595 4217 595 4090 
L 595 2231 
C 595 2113 595 2080 659 2080 
C 691 2080 704 2093 736 2139 
C 941 2435 1222 2560 1542 2560 
C 1766 2560 2246 2415 2246 1293 
C 2246 1087 2246 716 2054 422 
C 1894 159 1645 25 1370 25 
C 947 25 518 319 403 812 
C 429 806 480 793 506 793 
C 589 793 749 838 749 1036 
C 749 1209 627 1280 506 1280 
C 358 1280 262 1190 262 1011 
C 262 454 704 -128 1382 -128 
C 2042 -128 2669 441 2669 1267 
C 2669 2054 2170 2662 1549 2662 
C 1222 2662 947 2540 730 2304 
L 730 3750 
z
" transform="scale(0.015625)"/>
       </defs>
       <use xlink:href="#CMR17-35" transform="scale(0.996264)"/>
       <use xlink:href="#CMR17-30" transform="translate(45.690477 0) scale(0.996264)"/>
       <use xlink:href="#CMR17-30" transform="translate(91.380954 0) scale(0.996264)"/>
      </g>
     </g>
    </g>
    <g id="xtick_3">
     <g id="line2d_3">
      <g>
       <use xlink:href="#m6da8237c9d" x="164.106689" y="228.96" style="stroke: #000000; stroke-width: 0.8"/>
      </g>
     </g>
     <g id="text_3">
      <!-- $\mathdefault{1000}$ -->
      <g transform="translate(154.144018 243.05832) scale(0.1 -0.1)">
       <defs>
        <path id="CMR17-31" d="M 1702 4083 
C 1702 4217 1696 4224 1606 4224 
C 1357 3927 979 3833 621 3820 
C 602 3820 570 3820 563 3808 
C 557 3795 557 3782 557 3648 
C 755 3648 1088 3686 1344 3839 
L 1344 467 
C 1344 243 1331 166 781 166 
L 589 166 
L 589 0 
C 896 6 1216 12 1523 12 
C 1830 12 2150 6 2458 0 
L 2458 166 
L 2266 166 
C 1715 166 1702 236 1702 467 
L 1702 4083 
z
" transform="scale(0.015625)"/>
       </defs>
       <use xlink:href="#CMR17-31" transform="scale(0.996264)"/>
       <use xlink:href="#CMR17-30" transform="translate(45.690477 0) scale(0.996264)"/>
       <use xlink:href="#CMR17-30" transform="translate(91.380954 0) scale(0.996264)"/>
       <use xlink:href="#CMR17-30" transform="translate(137.071431 0) scale(0.996264)"/>
      </g>
     </g>
    </g>
    <g id="xtick_4">
     <g id="line2d_4">
      <g>
       <use xlink:href="#m6da8237c9d" x="222.257937" y="228.96" style="stroke: #000000; stroke-width: 0.8"/>
      </g>
     </g>
     <g id="text_4">
      <!-- $\mathdefault{1500}$ -->
      <g transform="translate(212.295267 243.05832) scale(0.1 -0.1)">
       <use xlink:href="#CMR17-31" transform="scale(0.996264)"/>
       <use xlink:href="#CMR17-35" transform="translate(45.690477 0) scale(0.996264)"/>
       <use xlink:href="#CMR17-30" transform="translate(91.380954 0) scale(0.996264)"/>
       <use xlink:href="#CMR17-30" transform="translate(137.071431 0) scale(0.996264)"/>
      </g>
     </g>
    </g>
    <g id="xtick_5">
     <g id="line2d_5">
      <g>
       <use xlink:href="#m6da8237c9d" x="280.409186" y="228.96" style="stroke: #000000; stroke-width: 0.8"/>
      </g>
     </g>
     <g id="text_5">
      <!-- $\mathdefault{2000}$ -->
      <g transform="translate(270.446516 243.05832) scale(0.1 -0.1)">
       <defs>
        <path id="CMR17-32" d="M 2669 990 
L 2554 990 
C 2490 537 2438 460 2413 422 
C 2381 371 1920 371 1830 371 
L 602 371 
C 832 620 1280 1073 1824 1596 
C 2214 1966 2669 2400 2669 3033 
C 2669 3788 2067 4224 1395 4224 
C 691 4224 262 3603 262 3027 
C 262 2777 448 2745 525 2745 
C 589 2745 781 2783 781 3007 
C 781 3206 614 3264 525 3264 
C 486 3264 448 3257 422 3244 
C 544 3788 915 4057 1306 4057 
C 1862 4057 2227 3616 2227 3033 
C 2227 2477 1901 1998 1536 1583 
L 262 147 
L 262 0 
L 2515 0 
L 2669 990 
z
" transform="scale(0.015625)"/>
       </defs>
       <use xlink:href="#CMR17-32" transform="scale(0.996264)"/>
       <use xlink:href="#CMR17-30" transform="translate(45.690477 0) scale(0.996264)"/>
       <use xlink:href="#CMR17-30" transform="translate(91.380954 0) scale(0.996264)"/>
       <use xlink:href="#CMR17-30" transform="translate(137.071431 0) scale(0.996264)"/>
      </g>
     </g>
    </g>
    <g id="xtick_6">
     <g id="line2d_6">
      <g>
       <use xlink:href="#m6da8237c9d" x="338.560435" y="228.96" style="stroke: #000000; stroke-width: 0.8"/>
      </g>
     </g>
     <g id="text_6">
      <!-- $\mathdefault{2500}$ -->
      <g transform="translate(328.597765 243.05832) scale(0.1 -0.1)">
       <use xlink:href="#CMR17-32" transform="scale(0.996264)"/>
       <use xlink:href="#CMR17-35" transform="translate(45.690477 0) scale(0.996264)"/>
       <use xlink:href="#CMR17-30" transform="translate(91.380954 0) scale(0.996264)"/>
       <use xlink:href="#CMR17-30" transform="translate(137.071431 0) scale(0.996264)"/>
      </g>
     </g>
    </g>
    <g id="text_7">
     <!-- Iteration -->
     <g transform="translate(182.038633 256.278627) scale(0.1 -0.1)">
      <defs>
       <path id="NimbusSanL-Regu-49" d="M 1242 4672 
L 640 4672 
L 640 0 
L 1242 0 
L 1242 4672 
z
" transform="scale(0.015625)"/>
       <path id="NimbusSanL-Regu-74" d="M 1626 3328 
L 1075 3328 
L 1075 4249 
L 544 4249 
L 544 3328 
L 90 3328 
L 90 2892 
L 544 2892 
L 544 402 
C 544 64 774 -128 1190 -128 
C 1318 -128 1446 -116 1626 -84 
L 1626 364 
C 1555 345 1472 339 1370 339 
C 1139 339 1075 402 1075 634 
L 1075 2892 
L 1626 2892 
L 1626 3328 
z
" transform="scale(0.015625)"/>
       <path id="NimbusSanL-Regu-65" d="M 3283 1484 
C 3283 1998 3245 2311 3149 2565 
C 2931 3123 2419 3456 1792 3456 
C 858 3456 256 2734 256 1619 
C 256 545 838 -128 1779 -128 
C 2547 -128 3078 307 3213 1018 
L 2675 1018 
C 2528 588 2227 364 1798 364 
C 1459 364 1171 514 992 787 
C 864 974 819 1161 813 1484 
L 3283 1484 
z
M 826 1920 
C 870 2552 1248 2963 1786 2963 
C 2310 2963 2714 2519 2714 1959 
C 2714 1946 2714 1933 2707 1920 
L 826 1920 
z
" transform="scale(0.015625)"/>
       <path id="NimbusSanL-Regu-72" d="M 442 3328 
L 442 0 
L 979 0 
L 979 1727 
C 979 2203 1101 2514 1357 2698 
C 1523 2819 1683 2857 2054 2863 
L 2054 3404 
C 1965 3449 1920 3456 1850 3456 
C 1504 3456 1242 3251 934 2750 
L 934 3328 
L 442 3328 
z
" transform="scale(0.015625)"/>
       <path id="NimbusSanL-Regu-61" d="M 3424 332 
C 3366 320 3341 320 3309 320 
C 3123 320 3021 415 3021 581 
L 3021 2542 
C 3021 3135 2586 3456 1760 3456 
C 1274 3456 870 3315 646 3065 
C 493 2893 429 2702 416 2370 
L 954 2370 
C 998 2778 1242 2963 1741 2963 
C 2221 2963 2490 2784 2490 2466 
L 2490 2326 
C 2490 2103 2355 2007 1933 1956 
C 1178 1861 1062 1835 858 1753 
C 467 1593 269 1294 269 861 
C 269 256 691 -128 1370 -128 
C 1792 -128 2131 19 2509 364 
C 2547 25 2714 -128 3059 -128 
C 3168 -128 3251 -116 3424 -71 
L 3424 332 
z
M 2490 1071 
C 2490 893 2438 785 2278 638 
C 2061 441 1798 339 1485 339 
C 1069 339 826 536 826 874 
C 826 1224 1062 1402 1632 1485 
C 2195 1562 2310 1587 2490 1670 
L 2490 1071 
z
" transform="scale(0.015625)"/>
       <path id="NimbusSanL-Regu-69" d="M 960 3358 
L 429 3358 
L 429 0 
L 960 0 
L 960 3358 
z
M 960 4672 
L 422 4672 
L 422 3999 
L 960 3999 
L 960 4672 
z
" transform="scale(0.015625)"/>
       <path id="NimbusSanL-Regu-6f" d="M 1741 3456 
C 800 3456 230 2784 230 1663 
C 230 543 794 -128 1747 -128 
C 2688 -128 3264 543 3264 1638 
C 3264 2791 2707 3456 1741 3456 
z
M 1747 2963 
C 2349 2963 2707 2472 2707 1644 
C 2707 861 2336 364 1747 364 
C 1152 364 787 855 787 1663 
C 787 2466 1152 2963 1747 2963 
z
" transform="scale(0.015625)"/>
       <path id="NimbusSanL-Regu-6e" d="M 448 3328 
L 448 0 
L 986 0 
L 986 1835 
C 986 2539 1344 2988 1894 2988 
C 2317 2988 2586 2732 2586 2328 
L 2586 0 
L 3117 0 
L 3117 2539 
C 3117 3097 2701 3456 2054 3456 
C 1555 3456 1235 3263 941 2796 
L 941 3328 
L 448 3328 
z
" transform="scale(0.015625)"/>
      </defs>
      <use xlink:href="#NimbusSanL-Regu-49" transform="scale(0.996264)"/>
      <use xlink:href="#NimbusSanL-Regu-74" transform="translate(27.69517 0) scale(0.996264)"/>
      <use xlink:href="#NimbusSanL-Regu-65" transform="translate(55.390339 0) scale(0.996264)"/>
      <use xlink:href="#NimbusSanL-Regu-72" transform="translate(110.782016 0) scale(0.996264)"/>
      <use xlink:href="#NimbusSanL-Regu-61" transform="translate(142.961149 0) scale(0.996264)"/>
      <use xlink:href="#NimbusSanL-Regu-74" transform="translate(198.352826 0) scale(0.996264)"/>
      <use xlink:href="#NimbusSanL-Regu-69" transform="translate(226.047996 0) scale(0.996264)"/>
      <use xlink:href="#NimbusSanL-Regu-6f" transform="translate(248.16478 0) scale(0.996264)"/>
      <use xlink:href="#NimbusSanL-Regu-6e" transform="translate(303.556457 0) scale(0.996264)"/>
     </g>
    </g>
   </g>
   <g id="matplotlib.axis_2">
    <g id="ytick_1">
     <g id="line2d_7">
      <defs>
       <path id="m4e7047a22c" d="M 0 0 
L -3.5 0 
" style="stroke: #000000; stroke-width: 0.8"/>
      </defs>
      <g>
       <use xlink:href="#m4e7047a22c" x="32.586009" y="202.496334" style="stroke: #000000; stroke-width: 0.8"/>
      </g>
     </g>
     <g id="text_8">
      <!-- $\mathdefault{0}$ -->
      <g transform="translate(20.604674 206.045494) scale(0.1 -0.1)">
       <use xlink:href="#CMR17-30" transform="scale(0.996264)"/>
      </g>
     </g>
    </g>
    <g id="ytick_2">
     <g id="line2d_8">
      <g>
       <use xlink:href="#m4e7047a22c" x="32.586009" y="171.309373" style="stroke: #000000; stroke-width: 0.8"/>
      </g>
     </g>
     <g id="text_9">
      <!-- $\mathdefault{1}$ -->
      <g transform="translate(20.604674 174.858533) scale(0.1 -0.1)">
       <use xlink:href="#CMR17-31" transform="scale(0.996264)"/>
      </g>
     </g>
    </g>
    <g id="ytick_3">
     <g id="line2d_9">
      <g>
       <use xlink:href="#m4e7047a22c" x="32.586009" y="140.122411" style="stroke: #000000; stroke-width: 0.8"/>
      </g>
     </g>
     <g id="text_10">
      <!-- $\mathdefault{2}$ -->
      <g transform="translate(20.604674 143.671571) scale(0.1 -0.1)">
       <use xlink:href="#CMR17-32" transform="scale(0.996264)"/>
      </g>
     </g>
    </g>
    <g id="ytick_4">
     <g id="line2d_10">
      <g>
       <use xlink:href="#m4e7047a22c" x="32.586009" y="108.935449" style="stroke: #000000; stroke-width: 0.8"/>
      </g>
     </g>
     <g id="text_11">
      <!-- $\mathdefault{3}$ -->
      <g transform="translate(20.604674 112.48461) scale(0.1 -0.1)">
       <defs>
        <path id="CMR17-33" d="M 1414 2176 
C 1984 2176 2234 1673 2234 1094 
C 2234 322 1824 25 1453 25 
C 1114 25 563 193 390 691 
C 422 678 454 678 486 678 
C 640 678 755 780 755 947 
C 755 1132 614 1216 486 1216 
C 378 1216 211 1164 211 927 
C 211 335 787 -128 1466 -128 
C 2176 -128 2720 432 2720 1087 
C 2720 1718 2208 2176 1600 2246 
C 2086 2347 2554 2776 2554 3353 
C 2554 3856 2048 4224 1472 4224 
C 890 4224 378 3862 378 3347 
C 378 3123 544 3084 627 3084 
C 762 3084 877 3167 877 3334 
C 877 3500 762 3584 627 3584 
C 602 3584 570 3584 544 3571 
C 730 3999 1235 4076 1459 4076 
C 1683 4076 2106 3966 2106 3347 
C 2106 3167 2080 2851 1862 2574 
C 1670 2329 1453 2316 1242 2297 
C 1210 2297 1062 2284 1037 2284 
C 992 2278 966 2272 966 2227 
C 966 2182 973 2176 1101 2176 
L 1414 2176 
z
" transform="scale(0.015625)"/>
       </defs>
       <use xlink:href="#CMR17-33" transform="scale(0.996264)"/>
      </g>
     </g>
    </g>
    <g id="ytick_5">
     <g id="line2d_11">
      <g>
       <use xlink:href="#m4e7047a22c" x="32.586009" y="77.748488" style="stroke: #000000; stroke-width: 0.8"/>
      </g>
     </g>
     <g id="text_12">
      <!-- $\mathdefault{4}$ -->
      <g transform="translate(20.604674 81.297648) scale(0.1 -0.1)">
       <defs>
        <path id="CMR17-34" d="M 2150 4147 
C 2150 4281 2144 4288 2029 4288 
L 128 1254 
L 128 1088 
L 1779 1088 
L 1779 460 
C 1779 230 1766 166 1318 166 
L 1197 166 
L 1197 0 
C 1402 12 1747 12 1965 12 
C 2182 12 2528 12 2733 0 
L 2733 166 
L 2611 166 
C 2163 166 2150 230 2150 460 
L 2150 1088 
L 2803 1088 
L 2803 1254 
L 2150 1254 
L 2150 4147 
z
M 1798 3723 
L 1798 1254 
L 256 1254 
L 1798 3723 
z
" transform="scale(0.015625)"/>
       </defs>
       <use xlink:href="#CMR17-34" transform="scale(0.996264)"/>
      </g>
     </g>
    </g>
    <g id="ytick_6">
     <g id="line2d_12">
      <g>
       <use xlink:href="#m4e7047a22c" x="32.586009" y="46.561526" style="stroke: #000000; stroke-width: 0.8"/>
      </g>
     </g>
     <g id="text_13">
      <!-- $\mathdefault{5}$ -->
      <g transform="translate(20.604674 50.110686) scale(0.1 -0.1)">
       <use xlink:href="#CMR17-35" transform="scale(0.996264)"/>
      </g>
     </g>
    </g>
    <g id="ytick_7">
     <g id="line2d_13">
      <g>
       <use xlink:href="#m4e7047a22c" x="32.586009" y="15.374565" style="stroke: #000000; stroke-width: 0.8"/>
      </g>
     </g>
     <g id="text_14">
      <!-- $\mathdefault{6}$ -->
      <g transform="translate(20.604674 18.923725) scale(0.1 -0.1)">
       <defs>
        <path id="CMR17-36" d="M 678 2198 
C 678 3712 1395 4076 1811 4076 
C 1946 4076 2272 4049 2400 3782 
C 2298 3782 2106 3782 2106 3558 
C 2106 3385 2246 3328 2336 3328 
C 2394 3328 2566 3353 2566 3571 
C 2566 3987 2246 4224 1805 4224 
C 1043 4224 243 3411 243 2011 
C 243 257 966 -128 1478 -128 
C 2099 -128 2688 431 2688 1295 
C 2688 2101 2170 2688 1517 2688 
C 1126 2688 838 2430 678 1979 
L 678 2198 
z
M 1478 25 
C 691 25 691 1212 691 1450 
C 691 1914 909 2585 1504 2585 
C 1613 2585 1926 2585 2138 2140 
C 2253 1889 2253 1624 2253 1302 
C 2253 954 2253 696 2118 438 
C 1978 173 1773 25 1478 25 
z
" transform="scale(0.015625)"/>
       </defs>
       <use xlink:href="#CMR17-36" transform="scale(0.996264)"/>
      </g>
     </g>
    </g>
    <g id="text_15">
     <!-- Aerodynamic Coefficients - Blade_0 -->
     <g transform="translate(14.482687 196.280864) rotate(-90) scale(0.1 -0.1)">
      <defs>
       <path id="NimbusSanL-Regu-41" d="M 3034 1408 
L 3514 0 
L 4179 0 
L 2541 4672 
L 1773 4672 
L 109 0 
L 742 0 
L 1235 1408 
L 3034 1408 
z
M 2867 1907 
L 1382 1907 
L 2150 4032 
L 2867 1907 
z
" transform="scale(0.015625)"/>
       <path id="NimbusSanL-Regu-64" d="M 3168 4672 
L 2637 4672 
L 2637 2937 
C 2413 3276 2054 3456 1606 3456 
C 736 3456 166 2759 166 1695 
C 166 568 723 -128 1626 -128 
C 2086 -128 2406 44 2694 460 
L 2694 19 
L 3168 19 
L 3168 4672 
z
M 1696 2956 
C 2272 2956 2637 2447 2637 1651 
C 2637 880 2266 371 1702 371 
C 1114 371 723 887 723 1663 
C 723 2440 1114 2956 1696 2956 
z
" transform="scale(0.015625)"/>
       <path id="NimbusSanL-Regu-79" d="M 2483 3328 
L 1555 724 
L 698 3328 
L 128 3328 
L 1261 -29 
L 1056 -558 
C 973 -794 851 -884 627 -884 
C 550 -884 461 -871 346 -845 
L 346 -1325 
C 454 -1383 563 -1408 704 -1408 
C 877 -1408 1062 -1351 1203 -1248 
C 1370 -1127 1466 -986 1568 -718 
L 3059 3328 
L 2483 3328 
z
" transform="scale(0.015625)"/>
       <path id="NimbusSanL-Regu-6d" d="M 448 3328 
L 448 0 
L 986 0 
L 986 2089 
C 986 2597 1338 2988 1773 2988 
C 2170 2988 2394 2744 2394 2315 
L 2394 0 
L 2931 0 
L 2931 2109 
C 2931 2597 3283 2988 3718 2988 
C 4109 2988 4339 2738 4339 2315 
L 4339 0 
L 4877 0 
L 4877 2520 
C 4877 3123 4531 3456 3904 3456 
C 3456 3456 3187 3321 2874 2943 
C 2675 3302 2406 3456 1971 3456 
C 1523 3456 1229 3289 941 2886 
L 941 3328 
L 448 3328 
z
" transform="scale(0.015625)"/>
       <path id="NimbusSanL-Regu-63" d="M 3014 2237 
C 2989 2561 2918 2771 2790 2956 
C 2560 3270 2157 3456 1690 3456 
C 787 3456 198 2740 198 1632 
C 198 555 774 -128 1683 -128 
C 2483 -128 2989 352 3053 1167 
L 2515 1167 
C 2426 632 2150 364 1696 364 
C 1107 364 755 842 755 1632 
C 755 2466 1101 2963 1683 2963 
C 2131 2963 2413 2701 2477 2237 
L 3014 2237 
z
" transform="scale(0.015625)"/>
       <path id="NimbusSanL-Regu-43" d="M 4237 3219 
C 4051 4236 3462 4736 2438 4736 
C 1811 4736 1306 4537 960 4154 
C 538 3696 307 3035 307 2284 
C 307 1522 544 867 986 415 
C 1344 44 1805 -128 2413 -128 
C 3552 -128 4192 485 4333 1712 
L 3718 1712 
C 3667 1394 3603 1178 3507 994 
C 3315 612 2918 396 2419 396 
C 1491 396 902 1134 902 2291 
C 902 3480 1466 4211 2368 4211 
C 2746 4211 3098 4096 3290 3918 
C 3462 3759 3558 3562 3629 3219 
L 4237 3219 
z
" transform="scale(0.015625)"/>
       <path id="NimbusSanL-Regu-66" d="M 1651 3328 
L 1094 3328 
L 1094 3860 
C 1094 4087 1222 4204 1466 4204 
C 1510 4204 1530 4204 1651 4198 
L 1651 4639 
C 1530 4665 1459 4672 1350 4672 
C 858 4672 563 4390 563 3905 
L 563 3328 
L 115 3328 
L 115 2892 
L 563 2892 
L 563 0 
L 1094 0 
L 1094 2892 
L 1651 2892 
L 1651 3328 
z
" transform="scale(0.015625)"/>
       <path id="NimbusSanL-Regu-2" d="M 1613 3328 
L 1056 3328 
L 1056 3860 
C 1056 4087 1184 4204 1427 4204 
C 1472 4204 1491 4204 1613 4198 
L 1613 4639 
C 1491 4665 1421 4672 1312 4672 
C 819 4672 525 4390 525 3905 
L 525 3328 
L 77 3328 
L 77 2892 
L 525 2892 
L 525 0 
L 1056 0 
L 1056 2892 
L 1613 2892 
L 1613 3328 
z
M 2790 3328 
L 2259 3328 
L 2259 0 
L 2790 0 
L 2790 3328 
z
M 2790 4672 
L 2259 4672 
L 2259 3999 
L 2790 3999 
L 2790 4672 
z
" transform="scale(0.015625)"/>
       <path id="NimbusSanL-Regu-73" d="M 2803 2428 
C 2797 3084 2362 3456 1587 3456 
C 806 3456 301 3052 301 2434 
C 301 1912 570 1663 1363 1472 
L 1862 1351 
C 2234 1262 2381 1129 2381 887 
C 2381 574 2067 364 1600 364 
C 1312 364 1069 447 934 587 
C 851 683 813 778 781 1014 
L 218 1014 
C 243 243 678 -128 1555 -128 
C 2400 -128 2938 288 2938 931 
C 2938 1428 2656 1702 1990 1861 
L 1478 1982 
C 1043 2084 858 2224 858 2459 
C 858 2765 1133 2963 1568 2963 
C 1997 2963 2227 2778 2240 2428 
L 2803 2428 
z
" transform="scale(0.015625)"/>
       <path id="NimbusSanL-Regu-2d" d="M 1818 1996 
L 294 1996 
L 294 1536 
L 1818 1536 
L 1818 1996 
z
" transform="scale(0.015625)"/>
       <path id="NimbusSanL-Regu-42" d="M 506 0 
L 2611 0 
C 3053 0 3379 121 3629 390 
C 3859 632 3987 961 3987 1321 
C 3987 1878 3731 2214 3136 2444 
C 3558 2643 3782 2994 3782 3476 
C 3782 3821 3654 4127 3411 4345 
C 3168 4569 2848 4672 2400 4672 
L 506 4672 
L 506 0 
z
M 1101 2636 
L 1101 4147 
L 2253 4147 
C 2586 4147 2771 4101 2931 3977 
C 3098 3847 3187 3652 3187 3391 
C 3187 3138 3098 2936 2931 2806 
C 2771 2682 2586 2636 2253 2636 
L 1101 2636 
z
M 1101 524 
L 1101 2112 
L 2554 2112 
C 2842 2112 3034 2042 3174 1890 
C 3315 1745 3392 1542 3392 1315 
C 3392 1093 3315 891 3174 746 
C 3034 594 2842 524 2554 524 
L 1101 524 
z
" transform="scale(0.015625)"/>
       <path id="NimbusSanL-Regu-6c" d="M 973 4672 
L 435 4672 
L 435 0 
L 973 0 
L 973 4672 
z
" transform="scale(0.015625)"/>
       <path id="NimbusSanL-Regu-30" d="M 1760 4544 
C 1338 4544 954 4358 717 4044 
C 422 3649 275 3043 275 2207 
C 275 683 787 -128 1760 -128 
C 2720 -128 3245 683 3245 2169 
C 3245 3049 3104 3636 2803 4044 
C 2566 4364 2189 4544 1760 4544 
z
M 1760 4044 
C 2368 4044 2669 3432 2669 2220 
C 2669 938 2374 339 1747 339 
C 1152 339 851 964 851 2201 
C 851 3438 1152 4044 1760 4044 
z
" transform="scale(0.015625)"/>
      </defs>
      <use xlink:href="#NimbusSanL-Regu-41" transform="scale(0.996264)"/>
      <use xlink:href="#NimbusSanL-Regu-65" transform="translate(66.450031 0) scale(0.996264)"/>
      <use xlink:href="#NimbusSanL-Regu-72" transform="translate(121.841708 0) scale(0.996264)"/>
      <use xlink:href="#NimbusSanL-Regu-6f" transform="translate(155.016938 0) scale(0.996264)"/>
      <use xlink:href="#NimbusSanL-Regu-64" transform="translate(210.408615 0) scale(0.996264)"/>
      <use xlink:href="#NimbusSanL-Regu-79" transform="translate(265.800292 0) scale(0.996264)"/>
      <use xlink:href="#NimbusSanL-Regu-6e" transform="translate(315.613492 0) scale(0.996264)"/>
      <use xlink:href="#NimbusSanL-Regu-61" transform="translate(371.005169 0) scale(0.996264)"/>
      <use xlink:href="#NimbusSanL-Regu-6d" transform="translate(426.396846 0) scale(0.996264)"/>
      <use xlink:href="#NimbusSanL-Regu-69" transform="translate(509.385276 0) scale(0.996264)"/>
      <use xlink:href="#NimbusSanL-Regu-63" transform="translate(531.502061 0) scale(0.996264)"/>
      <use xlink:href="#NimbusSanL-Regu-43" transform="translate(609.010431 0) scale(0.996264)"/>
      <use xlink:href="#NimbusSanL-Regu-6f" transform="translate(680.940416 0) scale(0.996264)"/>
      <use xlink:href="#NimbusSanL-Regu-65" transform="translate(736.332093 0) scale(0.996264)"/>
      <use xlink:href="#NimbusSanL-Regu-66" transform="translate(791.72377 0) scale(0.996264)"/>
      <use xlink:href="#NimbusSanL-Regu-2" transform="translate(819.418939 0) scale(0.996264)"/>
      <use xlink:href="#NimbusSanL-Regu-63" transform="translate(869.23214 0) scale(0.996264)"/>
      <use xlink:href="#NimbusSanL-Regu-69" transform="translate(919.04534 0) scale(0.996264)"/>
      <use xlink:href="#NimbusSanL-Regu-65" transform="translate(941.162125 0) scale(0.996264)"/>
      <use xlink:href="#NimbusSanL-Regu-6e" transform="translate(996.553802 0) scale(0.996264)"/>
      <use xlink:href="#NimbusSanL-Regu-74" transform="translate(1051.945479 0) scale(0.996264)"/>
      <use xlink:href="#NimbusSanL-Regu-73" transform="translate(1079.640648 0) scale(0.996264)"/>
      <use xlink:href="#NimbusSanL-Regu-2d" transform="translate(1157.149018 0) scale(0.996264)"/>
      <use xlink:href="#NimbusSanL-Regu-42" transform="translate(1218.019418 0) scale(0.996264)"/>
      <use xlink:href="#NimbusSanL-Regu-6c" transform="translate(1284.469449 0) scale(0.996264)"/>
      <use xlink:href="#NimbusSanL-Regu-61" transform="translate(1306.586233 0) scale(0.996264)"/>
      <use xlink:href="#NimbusSanL-Regu-64" transform="translate(1361.97791 0) scale(0.996264)"/>
      <use xlink:href="#NimbusSanL-Regu-65" transform="translate(1417.369587 0) scale(0.996264)"/>
      <use xlink:href="#NimbusSanL-Regu-30" transform="translate(1508.626829 0) scale(0.996264)"/>
      <path d="M 1478.738605 0 
L 1508.626829 0 
L 1508.626829 0.3985 
L 1478.738605 0.3985 
L 1478.738605 0 
z
"/>
     </g>
    </g>
   </g>
   <g id="line2d_14">
    <path d="M 47.804191 159.264805 
L 48.269401 35.106057 
L 48.618308 17.28 
L 48.734611 18.093027 
L 49.432426 38.920145 
L 49.548728 38.70542 
L 49.665031 39.053565 
L 49.897636 40.630833 
L 50.130241 41.034653 
L 50.362846 41.884716 
L 50.711753 44.242024 
L 50.944358 47.161285 
L 51.176963 52.695213 
L 51.409568 64.50338 
L 51.642173 75.767643 
L 51.874778 77.971358 
L 52.107383 82.001463 
L 52.456291 93.892447 
L 52.688896 108.513713 
L 53.037803 133.65239 
L 53.270408 136.508274 
L 53.503013 141.444517 
L 53.851921 155.435347 
L 54.666038 198.691861 
L 54.898643 199.738119 
L 55.131248 201.576857 
L 55.480156 206.975955 
L 55.829063 213.286857 
L 55.945366 214.043806 
L 56.061668 213.679337 
L 56.177971 212.245131 
L 56.875786 212.202195 
L 57.340996 212.651778 
L 57.457298 212.115226 
L 57.806206 208.920949 
L 58.155113 208.306238 
L 58.504021 207.138096 
L 58.852928 205.007751 
L 59.201836 200.913569 
L 59.434441 198.262839 
L 59.783348 197.286848 
L 60.015953 195.997727 
L 60.248558 193.68874 
L 60.597466 186.767405 
L 61.062676 173.838839 
L 61.411583 172.322226 
L 61.760491 169.293927 
L 62.109398 164.354974 
L 62.342003 158.708641 
L 63.156121 128.327528 
L 63.272423 127.473242 
L 63.388726 127.490893 
L 63.621331 129.037895 
L 63.853936 130.248381 
L 64.202843 130.642535 
L 64.551751 131.556615 
L 64.900658 133.368542 
L 65.133263 135.537657 
L 65.482171 139.88632 
L 65.714776 140.381541 
L 65.947381 141.296865 
L 66.179986 142.914553 
L 66.528893 147.566917 
L 66.877801 156.679113 
L 67.226708 166.846868 
L 67.459313 167.309015 
L 67.691918 168.149549 
L 68.040826 170.570906 
L 68.389733 174.855078 
L 68.738641 181.820797 
L 68.971246 185.743299 
L 69.203851 186.478268 
L 69.436456 187.767898 
L 69.785363 191.529305 
L 70.13427 198.819112 
L 70.483178 206.184492 
L 70.832085 207.380031 
L 71.180993 209.857961 
L 71.5299 214.225569 
L 71.878808 218.456601 
L 72.809228 218.846715 
L 72.92553 218.667526 
L 73.158135 217.519541 
L 73.39074 214.871318 
L 73.623345 212.617423 
L 73.972253 211.71438 
L 74.204858 210.510949 
L 74.553765 206.965207 
L 74.902673 200.737018 
L 75.367883 191.558877 
L 75.600488 190.838779 
L 75.949395 188.729598 
L 76.298303 185.000684 
L 76.879815 177.206412 
L 77.228723 176.539447 
L 77.57763 175.17833 
L 78.159143 171.321523 
L 78.391748 170.076493 
L 79.554773 169.93425 
L 79.787378 170.441345 
L 80.019983 170.909895 
L 80.485193 171.17743 
L 80.8341 171.648396 
L 81.183008 172.512914 
L 81.531915 173.640569 
L 81.997125 173.797875 
L 82.462335 174.220814 
L 83.16015 174.945131 
L 83.741663 175.087676 
L 84.09057 175.400407 
L 84.788385 176.237378 
L 85.369898 176.286033 
L 85.95141 176.317197 
L 86.300318 176.109625 
L 86.649225 175.766552 
L 87.230738 175.626835 
L 87.695948 175.309567 
L 88.044855 174.836893 
L 88.27746 174.614614 
L 88.975275 174.402232 
L 89.556788 174.038978 
L 89.789393 173.874887 
L 90.487208 173.681363 
L 90.952418 173.296947 
L 91.53393 172.635187 
L 91.99914 172.453152 
L 92.46435 172.024466 
L 92.92956 171.560928 
L 93.278468 171.561849 
L 94.092585 171.896731 
L 94.7904 172.077379 
L 95.371912 172.227765 
L 96.767542 172.284999 
L 97.465357 172.314511 
L 98.04687 172.447452 
L 98.395777 172.739259 
L 99.791407 174.579674 
L 100.256617 175.525097 
L 100.83813 177.360297 
L 101.419642 179.410419 
L 102.001155 179.619836 
L 102.466365 180.0646 
L 103.16418 180.882569 
L 104.443507 180.881115 
L 104.792415 180.376547 
L 105.257625 179.25467 
L 106.071742 176.519284 
L 106.304347 175.982253 
L 106.769557 175.721752 
L 107.118465 175.280831 
L 107.583675 174.215534 
L 107.81628 173.851559 
L 108.397792 173.620218 
L 109.560817 172.923813 
L 110.374935 173.01642 
L 110.723842 173.322486 
L 111.07275 174.062566 
L 111.305355 174.464687 
L 111.770565 174.670118 
L 112.119472 175.048504 
L 112.46838 175.769263 
L 112.817287 176.535825 
L 113.3988 176.820432 
L 113.86401 177.393915 
L 114.445522 178.345246 
L 115.143337 178.551156 
L 115.841152 178.771637 
L 116.771572 178.678584 
L 117.12048 178.468766 
L 117.353085 178.134721 
L 117.58569 177.842127 
L 118.167202 177.621185 
L 118.51611 177.263771 
L 118.865017 176.566949 
L 119.330227 175.385975 
L 119.795437 175.159596 
L 120.144344 174.759163 
L 120.493252 174.043497 
L 120.842159 173.317834 
L 121.423672 173.053489 
L 121.888882 172.529514 
L 122.470394 171.716911 
L 123.168209 171.537536 
L 123.866024 171.33464 
L 124.214932 171.579657 
L 124.447537 171.763454 
L 125.029049 171.910605 
L 125.494259 172.278708 
L 126.075772 172.910934 
L 126.657284 173.153374 
L 127.006192 173.517695 
L 127.355099 174.180211 
L 127.587704 174.499637 
L 128.169217 174.711969 
L 128.634427 175.145218 
L 129.332242 176.005181 
L 130.030057 176.166209 
L 131.076779 176.539218 
L 132.239804 176.518234 
L 132.472409 176.443029 
L 133.286527 176.303587 
L 133.751737 176.003508 
L 133.984342 175.862934 
L 134.682157 175.719746 
L 135.147367 175.421733 
L 135.728879 174.960124 
L 136.426694 174.743806 
L 137.706022 174.111915 
L 139.450559 174.040242 
L 140.148374 174.165341 
L 140.613584 174.307097 
L 141.427702 174.451981 
L 142.241819 174.681972 
L 144.335264 174.785975 
L 145.498289 174.892007 
L 147.475431 174.417874 
L 147.824339 174.342333 
L 148.754759 174.192539 
L 149.685179 173.945933 
L 151.778624 173.808663 
L 153.406859 174.160167 
L 157.361144 174.528888 
L 158.873076 174.436674 
L 159.338286 174.385548 
L 160.268706 174.248437 
L 161.548034 173.894184 
L 164.339294 173.643017 
L 167.363159 173.529799 
L 168.293579 173.47449 
L 169.340301 173.57109 
L 170.038116 173.703993 
L 173.294586 173.807158 
L 177.248871 174.527142 
L 178.062988 174.435671 
L 179.691223 174.189887 
L 181.784668 174.407211 
L 182.598786 174.485493 
L 184.808533 174.740537 
L 186.553071 174.922465 
L 188.065003 175.000304 
L 189.809541 174.984107 
L 195.973573 174.322348 
L 198.067018 174.336157 
L 200.50937 174.555708 
L 204.23105 174.705068 
L 206.324495 174.440315 
L 206.673403 174.38319 
L 207.720125 174.230621 
L 208.41794 174.093364 
L 211.558108 174.001799 
L 212.60483 174.364071 
L 212.953738 174.428097 
L 213.884158 174.559758 
L 215.279788 174.864343 
L 217.954745 174.806067 
L 218.536258 174.764709 
L 219.58298 174.620983 
L 220.04819 174.570196 
L 221.094912 174.414271 
L 221.792727 174.282836 
L 222.83945 174.132787 
L 223.30466 174.09263 
L 227.724155 174.035666 
L 228.42197 174.076733 
L 229.35239 174.209855 
L 229.8176 174.259445 
L 230.864322 174.400107 
L 231.329532 174.440632 
L 233.422977 174.630693 
L 236.097935 174.735796 
L 238.65659 174.623252 
L 243.773899 174.190604 
L 246.332554 174.239504 
L 248.891209 174.361227 
L 252.729192 174.512271 
L 257.148687 174.441566 
L 261.568182 174.325709 
L 270.872381 174.297499 
L 277.269019 174.223689 
L 298.668678 174.125064 
L 302.157753 174.181381 
L 315.997751 174.325727 
L 321.812875 174.401342 
L 352.167827 174.427083 
L 352.167827 174.427083 
" clip-path="url(#p9d0a5ea405)" style="fill: none; stroke: #1f77b4; stroke-width: 1.5; stroke-linecap: square"/>
   </g>
   <g id="line2d_15">
    <path d="M 47.804191 187.007119 
L 48.153098 154.073164 
L 48.502006 151.596483 
L 48.618308 151.687626 
L 48.850913 153.238854 
L 49.199821 155.495449 
L 49.316123 155.490006 
L 49.665031 154.404204 
L 49.897636 153.924426 
L 50.362846 153.712825 
L 50.711753 153.263453 
L 51.060661 152.373326 
L 51.409568 151.338229 
L 51.642173 151.515345 
L 52.107383 151.74308 
L 52.339988 152.095075 
L 52.572593 152.895072 
L 52.805198 154.734798 
L 53.037803 156.393562 
L 53.386711 157.064217 
L 53.619316 157.987559 
L 53.851921 159.633523 
L 54.317131 165.635 
L 54.549736 167.970451 
L 54.898643 168.471952 
L 55.131248 169.161967 
L 55.363853 170.489284 
L 55.945366 175.331558 
L 56.061668 175.483915 
L 56.177971 175.386982 
L 56.526878 175.788465 
L 56.759483 176.424896 
L 56.992088 177.857791 
L 57.340996 182.137275 
L 57.806206 187.274229 
L 58.038811 187.679134 
L 58.271416 188.454946 
L 58.620323 190.63083 
L 59.201836 196.437294 
L 59.318138 197.719594 
L 59.667046 197.962905 
L 60.015953 198.636287 
L 60.364861 199.810496 
L 60.713768 201.780494 
L 61.062676 203.904444 
L 61.411583 204.20778 
L 62.109398 205.128339 
L 62.225701 204.718236 
L 62.342003 203.519774 
L 62.574608 197.241707 
L 63.039818 181.995999 
L 63.272423 178.820768 
L 63.621331 177.376814 
L 63.853936 176.859163 
L 64.202843 176.669391 
L 64.551751 176.199829 
L 64.784356 175.573261 
L 65.133263 173.755097 
L 65.482171 172.020904 
L 65.831078 171.752476 
L 66.645196 170.822523 
L 66.761498 170.961665 
L 66.994103 171.882907 
L 67.343011 173.642015 
L 67.691918 173.984748 
L 68.040826 174.769792 
L 68.389733 176.37685 
L 68.738641 179.240992 
L 68.971246 180.624561 
L 69.320153 181.038319 
L 69.669061 181.857131 
L 70.017968 183.335472 
L 70.59948 186.189945 
L 70.948388 186.708361 
L 71.297295 187.910301 
L 71.646203 190.328187 
L 71.99511 192.970559 
L 72.344018 193.39898 
L 72.692925 194.363557 
L 73.158135 196.636963 
L 73.507043 198.6993 
L 73.972253 198.872164 
L 74.78637 199.529641 
L 74.902673 199.444445 
L 75.135278 198.726246 
L 75.367883 197.868852 
L 75.71679 197.542381 
L 76.065698 196.75546 
L 76.414605 195.013018 
L 76.996118 191.209309 
L 77.345025 190.563856 
L 77.693933 189.252032 
L 78.159143 186.232334 
L 78.391748 184.435411 
L 78.856958 184.145616 
L 79.322168 183.482974 
L 79.671075 183.040513 
L 79.787378 183.042719 
L 80.019983 183.193792 
L 80.601495 183.372987 
L 80.950403 183.736885 
L 81.29931 184.603963 
L 81.648218 185.624766 
L 82.113428 185.905576 
L 82.578638 186.585452 
L 83.16015 187.716189 
L 83.974268 187.901858 
L 84.439478 188.011207 
L 84.672083 187.828214 
L 85.137293 187.424862 
L 87.230738 187.561211 
L 87.695948 187.793727 
L 88.044855 188.154733 
L 88.27746 188.354911 
L 88.858973 188.501554 
L 89.324183 188.844434 
L 89.67309 189.128529 
L 90.952418 189.065458 
L 91.185023 188.881171 
L 91.417628 188.692366 
L 91.99914 188.535912 
L 92.46435 188.142445 
L 93.278468 187.16714 
L 93.627375 187.114828 
L 94.7904 187.204078 
L 95.604517 187.214123 
L 96.65124 187.082263 
L 97.11645 186.890428 
L 98.04687 186.699908 
L 98.51208 186.398098 
L 99.093592 185.746683 
L 100.024012 184.489422 
L 100.256617 184.441431 
L 100.489222 184.57658 
L 100.83813 185.129933 
L 101.30334 186.447475 
L 101.535945 186.882911 
L 102.001155 187.099768 
L 102.350062 187.493303 
L 102.69897 188.238144 
L 103.16418 189.578539 
L 103.62939 189.835411 
L 103.978297 190.264394 
L 104.443507 191.217449 
L 104.792415 191.86048 
L 105.02502 192.002099 
L 105.257625 191.931019 
L 105.606532 191.474712 
L 106.071742 190.351571 
L 106.304347 189.897138 
L 106.769557 189.664185 
L 107.118465 189.251617 
L 107.467372 188.493795 
L 107.81628 187.683948 
L 108.28149 187.466976 
L 108.7467 186.941194 
L 109.21191 186.017498 
L 109.444515 185.72903 
L 110.026027 185.546882 
L 110.723842 185.049269 
L 111.189052 184.843399 
L 112.46838 184.924604 
L 113.049892 185.071663 
L 113.747707 185.212499 
L 114.212917 185.524918 
L 114.445522 185.664787 
L 115.25964 185.844607 
L 116.422665 186.31086 
L 117.236782 186.569612 
L 117.701992 186.679586 
L 119.330227 186.638238 
L 120.260647 186.503037 
L 122.237789 185.599741 
L 122.470394 185.442352 
L 123.168209 185.286378 
L 123.749722 184.900453 
L 124.331234 184.414673 
L 125.377957 184.285217 
L 126.192074 184.231298 
L 127.122494 184.312832 
L 128.052914 184.55975 
L 128.634427 184.74865 
L 129.681149 185.235963 
L 130.378964 185.438505 
L 130.960477 185.605601 
L 133.519132 185.622687 
L 137.589719 184.689892 
L 139.566862 184.72073 
L 140.264677 184.896252 
L 140.613584 184.976812 
L 141.544004 185.144184 
L 142.241819 185.33207 
L 144.218962 185.442179 
L 145.033079 185.68481 
L 145.847196 185.911343 
L 147.010221 185.932845 
L 148.871061 185.799175 
L 149.917784 185.647332 
L 150.848204 185.431056 
L 151.778624 185.272178 
L 152.592741 185.330064 
L 153.174254 185.370963 
L 154.104674 185.509829 
L 154.453581 185.561331 
L 155.500304 185.701391 
L 156.314421 185.856349 
L 159.454589 185.995086 
L 160.501311 185.845144 
L 161.315429 185.669658 
L 168.177276 185.383246 
L 172.364166 185.493746 
L 174.690216 185.648577 
L 178.179291 185.757246 
L 182.598786 185.366523 
L 186.320466 185.351893 
L 192.949708 185.764701 
L 194.92685 185.527138 
L 195.39206 185.478257 
L 196.438783 185.327336 
L 197.020295 185.238926 
L 198.18332 185.082496 
L 198.764833 185.048687 
L 201.090883 185.054979 
L 205.62668 185.56153 
L 207.836428 185.592103 
L 213.302645 185.138733 
L 215.8613 185.239834 
L 222.257937 185.496411 
L 226.212222 185.365334 
L 227.724155 185.307415 
L 229.701297 185.257607 
L 234.702305 185.350602 
L 245.518437 185.352039 
L 257.264989 185.291668 
L 263.777929 185.295447 
L 267.848517 185.187335 
L 272.035406 185.263636 
L 338.79304 185.448903 
L 352.167827 185.416765 
L 352.167827 185.416765 
" clip-path="url(#p9d0a5ea405)" style="fill: none; stroke: #ff7f0e; stroke-width: 1.5; stroke-linecap: square"/>
   </g>
   <g id="patch_3">
    <path d="M 32.586009 228.96 
L 32.586009 7.2 
" style="fill: none; stroke: #000000; stroke-width: 0.8; stroke-linejoin: miter; stroke-linecap: square"/>
   </g>
   <g id="patch_4">
    <path d="M 367.386009 228.96 
L 367.386009 7.2 
" style="fill: none; stroke: #000000; stroke-width: 0.8; stroke-linejoin: miter; stroke-linecap: square"/>
   </g>
   <g id="patch_5">
    <path d="M 32.586009 228.96 
L 367.386009 228.96 
" style="fill: none; stroke: #000000; stroke-width: 0.8; stroke-linejoin: miter; stroke-linecap: square"/>
   </g>
   <g id="patch_6">
    <path d="M 32.586009 7.2 
L 367.386009 7.2 
" style="fill: none; stroke: #000000; stroke-width: 0.8; stroke-linejoin: miter; stroke-linecap: square"/>
   </g>
   <g id="legend_1">
    <g id="patch_7">
     <path d="M 314.000015 43.640613 
L 360.386009 43.640613 
Q 362.386009 43.640613 362.386009 41.640613 
L 362.386009 14.2 
Q 362.386009 12.2 360.386009 12.2 
L 314.000015 12.2 
Q 312.000015 12.2 312.000015 14.2 
L 312.000015 41.640613 
Q 312.000015 43.640613 314.000015 43.640613 
z
" style="fill: #ffffff; opacity: 0.8; stroke: #cccccc; stroke-linejoin: miter"/>
    </g>
    <g id="line2d_16">
     <path d="M 316.000015 19.79832 
L 326.000015 19.79832 
L 336.000015 19.79832 
" style="fill: none; stroke: #1f77b4; stroke-width: 1.5; stroke-linecap: square"/>
    </g>
    <g id="text_16">
     <!-- CD -->
     <g transform="translate(344.000015 23.29832) scale(0.1 -0.1)">
      <defs>
       <path id="NimbusSanL-Regu-44" d="M 570 0 
L 2368 0 
C 3546 0 4269 883 4269 2339 
C 4269 3788 3552 4672 2368 4672 
L 570 4672 
L 570 0 
z
M 1165 524 
L 1165 4147 
L 2266 4147 
C 3187 4147 3674 3525 3674 2332 
C 3674 1153 3187 524 2266 524 
L 1165 524 
z
" transform="scale(0.015625)"/>
      </defs>
      <use xlink:href="#NimbusSanL-Regu-43" transform="scale(0.996264)"/>
      <use xlink:href="#NimbusSanL-Regu-44" transform="translate(71.929985 0) scale(0.996264)"/>
     </g>
    </g>
    <g id="line2d_17">
     <path d="M 316.000015 34.018627 
L 326.000015 34.018627 
L 336.000015 34.018627 
" style="fill: none; stroke: #ff7f0e; stroke-width: 1.5; stroke-linecap: square"/>
    </g>
    <g id="text_17">
     <!-- CL -->
     <g transform="translate(344.000015 37.518627) scale(0.1 -0.1)">
      <defs>
       <path id="NimbusSanL-Regu-4c" d="M 1107 4672 
L 512 4672 
L 512 0 
L 3411 0 
L 3411 524 
L 1107 524 
L 1107 4672 
z
" transform="scale(0.015625)"/>
      </defs>
      <use xlink:href="#NimbusSanL-Regu-43" transform="scale(0.996264)"/>
      <use xlink:href="#NimbusSanL-Regu-4c" transform="translate(71.929985 0) scale(0.996264)"/>
     </g>
    </g>
   </g>
  </g>
 </g>
 <defs>
  <clipPath id="p9d0a5ea405">
   <rect x="32.586009" y="7.2" width="334.8" height="221.76"/>
  </clipPath>
 </defs>
</svg>
