<?xml version="1.0" encoding="utf-8" standalone="no"?>
<!DOCTYPE svg PUBLIC "-//W3C//DTD SVG 1.1//EN"
  "http://www.w3.org/Graphics/SVG/1.1/DTD/svg11.dtd">
<svg xmlns:xlink="http://www.w3.org/1999/xlink" width="379.567344pt" height="265.600613pt" viewBox="0 0 379.567344 265.600613" xmlns="http://www.w3.org/2000/svg" version="1.1">
 <metadata>
  <rdf:RDF xmlns:dc="http://purl.org/dc/elements/1.1/" xmlns:cc="http://creativecommons.org/ns#" xmlns:rdf="http://www.w3.org/1999/02/22-rdf-syntax-ns#">
   <cc:Work>
    <dc:type rdf:resource="http://purl.org/dc/dcmitype/StillImage"/>
    <dc:date>2025-08-02T14:08:54.218077</dc:date>
    <dc:format>image/svg+xml</dc:format>
    <dc:creator>
     <cc:Agent>
      <dc:title>Matplotlib v3.10.3, https://matplotlib.org/</dc:title>
     </cc:Agent>
    </dc:creator>
   </cc:Work>
  </rdf:RDF>
 </metadata>
 <defs>
  <style type="text/css">*{stroke-linejoin: round; stroke-linecap: butt}</style>
 </defs>
 <g id="figure_1">
  <g id="patch_1">
   <path d="M 0 265.600613 
L 379.567344 265.600613 
L 379.567344 0 
L 0 0 
z
" style="fill: #ffffff"/>
  </g>
  <g id="axes_1">
   <g id="patch_2">
    <path d="M 37.567344 228.96 
L 372.367344 228.96 
L 372.367344 7.2 
L 37.567344 7.2 
z
" style="fill: #ffffff"/>
   </g>
   <g id="matplotlib.axis_1">
    <g id="xtick_1">
     <g id="line2d_1">
      <defs>
       <path id="m263eea7050" d="M 0 0 
L 0 3.5 
" style="stroke: #000000; stroke-width: 0.8"/>
      </defs>
      <g>
       <use xlink:href="#m263eea7050" x="52.785526" y="228.96" style="stroke: #000000; stroke-width: 0.8"/>
      </g>
     </g>
     <g id="text_1">
      <!-- $\mathdefault{0}$ -->
      <g transform="translate(50.294859 243.05832) scale(0.1 -0.1)">
       <defs>
        <path id="CMR17-30" d="M 2688 2038 
C 2688 2430 2682 3099 2413 3613 
C 2176 4063 1798 4224 1466 4224 
C 1158 4224 768 4082 525 3620 
C 269 3137 243 2539 243 2038 
C 243 1671 250 1112 448 623 
C 723 -39 1216 -128 1466 -128 
C 1760 -128 2208 -7 2470 604 
C 2662 1048 2688 1568 2688 2038 
z
M 1466 -26 
C 1056 -26 813 328 723 816 
C 653 1196 653 1749 653 2109 
C 653 2604 653 3015 736 3407 
C 858 3954 1216 4121 1466 4121 
C 1728 4121 2067 3947 2189 3420 
C 2272 3054 2278 2623 2278 2109 
C 2278 1691 2278 1176 2202 797 
C 2067 96 1690 -26 1466 -26 
z
" transform="scale(0.015625)"/>
       </defs>
       <use xlink:href="#CMR17-30" transform="scale(0.996264)"/>
      </g>
     </g>
    </g>
    <g id="xtick_2">
     <g id="line2d_2">
      <g>
       <use xlink:href="#m263eea7050" x="110.936775" y="228.96" style="stroke: #000000; stroke-width: 0.8"/>
      </g>
     </g>
     <g id="text_2">
      <!-- $\mathdefault{500}$ -->
      <g transform="translate(103.464772 243.05832) scale(0.1 -0.1)">
       <defs>
        <path id="CMR17-35" d="M 730 3750 
C 794 3724 1056 3641 1325 3641 
C 1920 3641 2246 3961 2432 4140 
C 2432 4191 2432 4224 2394 4224 
C 2387 4224 2374 4224 2323 4198 
C 2099 4102 1837 4032 1517 4032 
C 1325 4032 1037 4055 723 4191 
C 653 4224 640 4224 634 4224 
C 602 4224 595 4217 595 4090 
L 595 2231 
C 595 2113 595 2080 659 2080 
C 691 2080 704 2093 736 2139 
C 941 2435 1222 2560 1542 2560 
C 1766 2560 2246 2415 2246 1293 
C 2246 1087 2246 716 2054 422 
C 1894 159 1645 25 1370 25 
C 947 25 518 319 403 812 
C 429 806 480 793 506 793 
C 589 793 749 838 749 1036 
C 749 1209 627 1280 506 1280 
C 358 1280 262 1190 262 1011 
C 262 454 704 -128 1382 -128 
C 2042 -128 2669 441 2669 1267 
C 2669 2054 2170 2662 1549 2662 
C 1222 2662 947 2540 730 2304 
L 730 3750 
z
" transform="scale(0.015625)"/>
       </defs>
       <use xlink:href="#CMR17-35" transform="scale(0.996264)"/>
       <use xlink:href="#CMR17-30" transform="translate(45.690477 0) scale(0.996264)"/>
       <use xlink:href="#CMR17-30" transform="translate(91.380954 0) scale(0.996264)"/>
      </g>
     </g>
    </g>
    <g id="xtick_3">
     <g id="line2d_3">
      <g>
       <use xlink:href="#m263eea7050" x="169.088024" y="228.96" style="stroke: #000000; stroke-width: 0.8"/>
      </g>
     </g>
     <g id="text_3">
      <!-- $\mathdefault{1000}$ -->
      <g transform="translate(159.125353 243.05832) scale(0.1 -0.1)">
       <defs>
        <path id="CMR17-31" d="M 1702 4083 
C 1702 4217 1696 4224 1606 4224 
C 1357 3927 979 3833 621 3820 
C 602 3820 570 3820 563 3808 
C 557 3795 557 3782 557 3648 
C 755 3648 1088 3686 1344 3839 
L 1344 467 
C 1344 243 1331 166 781 166 
L 589 166 
L 589 0 
C 896 6 1216 12 1523 12 
C 1830 12 2150 6 2458 0 
L 2458 166 
L 2266 166 
C 1715 166 1702 236 1702 467 
L 1702 4083 
z
" transform="scale(0.015625)"/>
       </defs>
       <use xlink:href="#CMR17-31" transform="scale(0.996264)"/>
       <use xlink:href="#CMR17-30" transform="translate(45.690477 0) scale(0.996264)"/>
       <use xlink:href="#CMR17-30" transform="translate(91.380954 0) scale(0.996264)"/>
       <use xlink:href="#CMR17-30" transform="translate(137.071431 0) scale(0.996264)"/>
      </g>
     </g>
    </g>
    <g id="xtick_4">
     <g id="line2d_4">
      <g>
       <use xlink:href="#m263eea7050" x="227.239273" y="228.96" style="stroke: #000000; stroke-width: 0.8"/>
      </g>
     </g>
     <g id="text_4">
      <!-- $\mathdefault{1500}$ -->
      <g transform="translate(217.276602 243.05832) scale(0.1 -0.1)">
       <use xlink:href="#CMR17-31" transform="scale(0.996264)"/>
       <use xlink:href="#CMR17-35" transform="translate(45.690477 0) scale(0.996264)"/>
       <use xlink:href="#CMR17-30" transform="translate(91.380954 0) scale(0.996264)"/>
       <use xlink:href="#CMR17-30" transform="translate(137.071431 0) scale(0.996264)"/>
      </g>
     </g>
    </g>
    <g id="xtick_5">
     <g id="line2d_5">
      <g>
       <use xlink:href="#m263eea7050" x="285.390522" y="228.96" style="stroke: #000000; stroke-width: 0.8"/>
      </g>
     </g>
     <g id="text_5">
      <!-- $\mathdefault{2000}$ -->
      <g transform="translate(275.427851 243.05832) scale(0.1 -0.1)">
       <defs>
        <path id="CMR17-32" d="M 2669 990 
L 2554 990 
C 2490 537 2438 460 2413 422 
C 2381 371 1920 371 1830 371 
L 602 371 
C 832 620 1280 1073 1824 1596 
C 2214 1966 2669 2400 2669 3033 
C 2669 3788 2067 4224 1395 4224 
C 691 4224 262 3603 262 3027 
C 262 2777 448 2745 525 2745 
C 589 2745 781 2783 781 3007 
C 781 3206 614 3264 525 3264 
C 486 3264 448 3257 422 3244 
C 544 3788 915 4057 1306 4057 
C 1862 4057 2227 3616 2227 3033 
C 2227 2477 1901 1998 1536 1583 
L 262 147 
L 262 0 
L 2515 0 
L 2669 990 
z
" transform="scale(0.015625)"/>
       </defs>
       <use xlink:href="#CMR17-32" transform="scale(0.996264)"/>
       <use xlink:href="#CMR17-30" transform="translate(45.690477 0) scale(0.996264)"/>
       <use xlink:href="#CMR17-30" transform="translate(91.380954 0) scale(0.996264)"/>
       <use xlink:href="#CMR17-30" transform="translate(137.071431 0) scale(0.996264)"/>
      </g>
     </g>
    </g>
    <g id="xtick_6">
     <g id="line2d_6">
      <g>
       <use xlink:href="#m263eea7050" x="343.54177" y="228.96" style="stroke: #000000; stroke-width: 0.8"/>
      </g>
     </g>
     <g id="text_6">
      <!-- $\mathdefault{2500}$ -->
      <g transform="translate(333.5791 243.05832) scale(0.1 -0.1)">
       <use xlink:href="#CMR17-32" transform="scale(0.996264)"/>
       <use xlink:href="#CMR17-35" transform="translate(45.690477 0) scale(0.996264)"/>
       <use xlink:href="#CMR17-30" transform="translate(91.380954 0) scale(0.996264)"/>
       <use xlink:href="#CMR17-30" transform="translate(137.071431 0) scale(0.996264)"/>
      </g>
     </g>
    </g>
    <g id="text_7">
     <!-- Iteration -->
     <g transform="translate(187.019968 256.278627) scale(0.1 -0.1)">
      <defs>
       <path id="NimbusSanL-Regu-49" d="M 1242 4672 
L 640 4672 
L 640 0 
L 1242 0 
L 1242 4672 
z
" transform="scale(0.015625)"/>
       <path id="NimbusSanL-Regu-74" d="M 1626 3328 
L 1075 3328 
L 1075 4249 
L 544 4249 
L 544 3328 
L 90 3328 
L 90 2892 
L 544 2892 
L 544 402 
C 544 64 774 -128 1190 -128 
C 1318 -128 1446 -116 1626 -84 
L 1626 364 
C 1555 345 1472 339 1370 339 
C 1139 339 1075 402 1075 634 
L 1075 2892 
L 1626 2892 
L 1626 3328 
z
" transform="scale(0.015625)"/>
       <path id="NimbusSanL-Regu-65" d="M 3283 1484 
C 3283 1998 3245 2311 3149 2565 
C 2931 3123 2419 3456 1792 3456 
C 858 3456 256 2734 256 1619 
C 256 545 838 -128 1779 -128 
C 2547 -128 3078 307 3213 1018 
L 2675 1018 
C 2528 588 2227 364 1798 364 
C 1459 364 1171 514 992 787 
C 864 974 819 1161 813 1484 
L 3283 1484 
z
M 826 1920 
C 870 2552 1248 2963 1786 2963 
C 2310 2963 2714 2519 2714 1959 
C 2714 1946 2714 1933 2707 1920 
L 826 1920 
z
" transform="scale(0.015625)"/>
       <path id="NimbusSanL-Regu-72" d="M 442 3328 
L 442 0 
L 979 0 
L 979 1727 
C 979 2203 1101 2514 1357 2698 
C 1523 2819 1683 2857 2054 2863 
L 2054 3404 
C 1965 3449 1920 3456 1850 3456 
C 1504 3456 1242 3251 934 2750 
L 934 3328 
L 442 3328 
z
" transform="scale(0.015625)"/>
       <path id="NimbusSanL-Regu-61" d="M 3424 332 
C 3366 320 3341 320 3309 320 
C 3123 320 3021 415 3021 581 
L 3021 2542 
C 3021 3135 2586 3456 1760 3456 
C 1274 3456 870 3315 646 3065 
C 493 2893 429 2702 416 2370 
L 954 2370 
C 998 2778 1242 2963 1741 2963 
C 2221 2963 2490 2784 2490 2466 
L 2490 2326 
C 2490 2103 2355 2007 1933 1956 
C 1178 1861 1062 1835 858 1753 
C 467 1593 269 1294 269 861 
C 269 256 691 -128 1370 -128 
C 1792 -128 2131 19 2509 364 
C 2547 25 2714 -128 3059 -128 
C 3168 -128 3251 -116 3424 -71 
L 3424 332 
z
M 2490 1071 
C 2490 893 2438 785 2278 638 
C 2061 441 1798 339 1485 339 
C 1069 339 826 536 826 874 
C 826 1224 1062 1402 1632 1485 
C 2195 1562 2310 1587 2490 1670 
L 2490 1071 
z
" transform="scale(0.015625)"/>
       <path id="NimbusSanL-Regu-69" d="M 960 3358 
L 429 3358 
L 429 0 
L 960 0 
L 960 3358 
z
M 960 4672 
L 422 4672 
L 422 3999 
L 960 3999 
L 960 4672 
z
" transform="scale(0.015625)"/>
       <path id="NimbusSanL-Regu-6f" d="M 1741 3456 
C 800 3456 230 2784 230 1663 
C 230 543 794 -128 1747 -128 
C 2688 -128 3264 543 3264 1638 
C 3264 2791 2707 3456 1741 3456 
z
M 1747 2963 
C 2349 2963 2707 2472 2707 1644 
C 2707 861 2336 364 1747 364 
C 1152 364 787 855 787 1663 
C 787 2466 1152 2963 1747 2963 
z
" transform="scale(0.015625)"/>
       <path id="NimbusSanL-Regu-6e" d="M 448 3328 
L 448 0 
L 986 0 
L 986 1835 
C 986 2539 1344 2988 1894 2988 
C 2317 2988 2586 2732 2586 2328 
L 2586 0 
L 3117 0 
L 3117 2539 
C 3117 3097 2701 3456 2054 3456 
C 1555 3456 1235 3263 941 2796 
L 941 3328 
L 448 3328 
z
" transform="scale(0.015625)"/>
      </defs>
      <use xlink:href="#NimbusSanL-Regu-49" transform="scale(0.996264)"/>
      <use xlink:href="#NimbusSanL-Regu-74" transform="translate(27.69517 0) scale(0.996264)"/>
      <use xlink:href="#NimbusSanL-Regu-65" transform="translate(55.390339 0) scale(0.996264)"/>
      <use xlink:href="#NimbusSanL-Regu-72" transform="translate(110.782016 0) scale(0.996264)"/>
      <use xlink:href="#NimbusSanL-Regu-61" transform="translate(142.961149 0) scale(0.996264)"/>
      <use xlink:href="#NimbusSanL-Regu-74" transform="translate(198.352826 0) scale(0.996264)"/>
      <use xlink:href="#NimbusSanL-Regu-69" transform="translate(226.047996 0) scale(0.996264)"/>
      <use xlink:href="#NimbusSanL-Regu-6f" transform="translate(248.16478 0) scale(0.996264)"/>
      <use xlink:href="#NimbusSanL-Regu-6e" transform="translate(303.556457 0) scale(0.996264)"/>
     </g>
    </g>
   </g>
   <g id="matplotlib.axis_2">
    <g id="ytick_1">
     <g id="line2d_7">
      <defs>
       <path id="ma24009f5ce" d="M 0 0 
L -3.5 0 
" style="stroke: #000000; stroke-width: 0.8"/>
      </defs>
      <g>
       <use xlink:href="#ma24009f5ce" x="37.567344" y="219.625758" style="stroke: #000000; stroke-width: 0.8"/>
      </g>
     </g>
     <g id="text_8">
      <!-- $\mathdefault{0}$ -->
      <g transform="translate(25.586009 223.174918) scale(0.1 -0.1)">
       <use xlink:href="#CMR17-30" transform="scale(0.996264)"/>
      </g>
     </g>
    </g>
    <g id="ytick_2">
     <g id="line2d_8">
      <g>
       <use xlink:href="#ma24009f5ce" x="37.567344" y="182.337841" style="stroke: #000000; stroke-width: 0.8"/>
      </g>
     </g>
     <g id="text_9">
      <!-- $\mathdefault{5}$ -->
      <g transform="translate(25.586009 185.887001) scale(0.1 -0.1)">
       <use xlink:href="#CMR17-35" transform="scale(0.996264)"/>
      </g>
     </g>
    </g>
    <g id="ytick_3">
     <g id="line2d_9">
      <g>
       <use xlink:href="#ma24009f5ce" x="37.567344" y="145.049923" style="stroke: #000000; stroke-width: 0.8"/>
      </g>
     </g>
     <g id="text_10">
      <!-- $\mathdefault{10}$ -->
      <g transform="translate(20.604674 148.599083) scale(0.1 -0.1)">
       <use xlink:href="#CMR17-31" transform="scale(0.996264)"/>
       <use xlink:href="#CMR17-30" transform="translate(45.690477 0) scale(0.996264)"/>
      </g>
     </g>
    </g>
    <g id="ytick_4">
     <g id="line2d_10">
      <g>
       <use xlink:href="#ma24009f5ce" x="37.567344" y="107.762005" style="stroke: #000000; stroke-width: 0.8"/>
      </g>
     </g>
     <g id="text_11">
      <!-- $\mathdefault{15}$ -->
      <g transform="translate(20.604674 111.311166) scale(0.1 -0.1)">
       <use xlink:href="#CMR17-31" transform="scale(0.996264)"/>
       <use xlink:href="#CMR17-35" transform="translate(45.690477 0) scale(0.996264)"/>
      </g>
     </g>
    </g>
    <g id="ytick_5">
     <g id="line2d_11">
      <g>
       <use xlink:href="#ma24009f5ce" x="37.567344" y="70.474088" style="stroke: #000000; stroke-width: 0.8"/>
      </g>
     </g>
     <g id="text_12">
      <!-- $\mathdefault{20}$ -->
      <g transform="translate(20.604674 74.023248) scale(0.1 -0.1)">
       <use xlink:href="#CMR17-32" transform="scale(0.996264)"/>
       <use xlink:href="#CMR17-30" transform="translate(45.690477 0) scale(0.996264)"/>
      </g>
     </g>
    </g>
    <g id="ytick_6">
     <g id="line2d_12">
      <g>
       <use xlink:href="#ma24009f5ce" x="37.567344" y="33.18617" style="stroke: #000000; stroke-width: 0.8"/>
      </g>
     </g>
     <g id="text_13">
      <!-- $\mathdefault{25}$ -->
      <g transform="translate(20.604674 36.73533) scale(0.1 -0.1)">
       <use xlink:href="#CMR17-32" transform="scale(0.996264)"/>
       <use xlink:href="#CMR17-35" transform="translate(45.690477 0) scale(0.996264)"/>
      </g>
     </g>
    </g>
    <g id="text_14">
     <!-- Average CFL - Blade_0 -->
     <g transform="translate(14.482687 168.77932) rotate(-90) scale(0.1 -0.1)">
      <defs>
       <path id="NimbusSanL-Regu-41" d="M 3034 1408 
L 3514 0 
L 4179 0 
L 2541 4672 
L 1773 4672 
L 109 0 
L 742 0 
L 1235 1408 
L 3034 1408 
z
M 2867 1907 
L 1382 1907 
L 2150 4032 
L 2867 1907 
z
" transform="scale(0.015625)"/>
       <path id="NimbusSanL-Regu-76" d="M 1824 0 
L 3110 3328 
L 2509 3328 
L 1562 629 
L 666 3328 
L 64 3328 
L 1242 0 
L 1824 0 
z
" transform="scale(0.015625)"/>
       <path id="NimbusSanL-Regu-67" d="M 2637 3359 
L 2637 2873 
C 2368 3270 2042 3456 1613 3456 
C 762 3456 186 2714 186 1632 
C 186 1084 333 638 608 320 
C 858 38 1216 -128 1568 -128 
C 1990 -128 2285 51 2586 473 
L 2586 300 
C 2586 -155 2528 -441 2394 -634 
C 2253 -841 1978 -960 1651 -960 
C 1408 -960 1190 -894 1043 -774 
C 922 -674 870 -581 838 -375 
L 294 -375 
C 352 -1031 845 -1408 1632 -1408 
C 2131 -1408 2560 -1248 2778 -980 
C 3034 -661 3130 -222 3130 568 
L 3130 3359 
L 2637 3359 
z
M 1670 2963 
C 2246 2963 2586 2479 2586 1644 
C 2586 848 2240 364 1677 364 
C 1094 364 742 855 742 1663 
C 742 2466 1101 2963 1670 2963 
z
" transform="scale(0.015625)"/>
       <path id="NimbusSanL-Regu-43" d="M 4237 3219 
C 4051 4236 3462 4736 2438 4736 
C 1811 4736 1306 4537 960 4154 
C 538 3696 307 3035 307 2284 
C 307 1522 544 867 986 415 
C 1344 44 1805 -128 2413 -128 
C 3552 -128 4192 485 4333 1712 
L 3718 1712 
C 3667 1394 3603 1178 3507 994 
C 3315 612 2918 396 2419 396 
C 1491 396 902 1134 902 2291 
C 902 3480 1466 4211 2368 4211 
C 2746 4211 3098 4096 3290 3918 
C 3462 3759 3558 3562 3629 3219 
L 4237 3219 
z
" transform="scale(0.015625)"/>
       <path id="NimbusSanL-Regu-46" d="M 1171 2112 
L 3398 2112 
L 3398 2636 
L 1171 2636 
L 1171 4147 
L 3706 4147 
L 3706 4672 
L 576 4672 
L 576 0 
L 1171 0 
L 1171 2112 
z
" transform="scale(0.015625)"/>
       <path id="NimbusSanL-Regu-4c" d="M 1107 4672 
L 512 4672 
L 512 0 
L 3411 0 
L 3411 524 
L 1107 524 
L 1107 4672 
z
" transform="scale(0.015625)"/>
       <path id="NimbusSanL-Regu-2d" d="M 1818 1996 
L 294 1996 
L 294 1536 
L 1818 1536 
L 1818 1996 
z
" transform="scale(0.015625)"/>
       <path id="NimbusSanL-Regu-42" d="M 506 0 
L 2611 0 
C 3053 0 3379 121 3629 390 
C 3859 632 3987 961 3987 1321 
C 3987 1878 3731 2214 3136 2444 
C 3558 2643 3782 2994 3782 3476 
C 3782 3821 3654 4127 3411 4345 
C 3168 4569 2848 4672 2400 4672 
L 506 4672 
L 506 0 
z
M 1101 2636 
L 1101 4147 
L 2253 4147 
C 2586 4147 2771 4101 2931 3977 
C 3098 3847 3187 3652 3187 3391 
C 3187 3138 3098 2936 2931 2806 
C 2771 2682 2586 2636 2253 2636 
L 1101 2636 
z
M 1101 524 
L 1101 2112 
L 2554 2112 
C 2842 2112 3034 2042 3174 1890 
C 3315 1745 3392 1542 3392 1315 
C 3392 1093 3315 891 3174 746 
C 3034 594 2842 524 2554 524 
L 1101 524 
z
" transform="scale(0.015625)"/>
       <path id="NimbusSanL-Regu-6c" d="M 973 4672 
L 435 4672 
L 435 0 
L 973 0 
L 973 4672 
z
" transform="scale(0.015625)"/>
       <path id="NimbusSanL-Regu-64" d="M 3168 4672 
L 2637 4672 
L 2637 2937 
C 2413 3276 2054 3456 1606 3456 
C 736 3456 166 2759 166 1695 
C 166 568 723 -128 1626 -128 
C 2086 -128 2406 44 2694 460 
L 2694 19 
L 3168 19 
L 3168 4672 
z
M 1696 2956 
C 2272 2956 2637 2447 2637 1651 
C 2637 880 2266 371 1702 371 
C 1114 371 723 887 723 1663 
C 723 2440 1114 2956 1696 2956 
z
" transform="scale(0.015625)"/>
       <path id="NimbusSanL-Regu-30" d="M 1760 4544 
C 1338 4544 954 4358 717 4044 
C 422 3649 275 3043 275 2207 
C 275 683 787 -128 1760 -128 
C 2720 -128 3245 683 3245 2169 
C 3245 3049 3104 3636 2803 4044 
C 2566 4364 2189 4544 1760 4544 
z
M 1760 4044 
C 2368 4044 2669 3432 2669 2220 
C 2669 938 2374 339 1747 339 
C 1152 339 851 964 851 2201 
C 851 3438 1152 4044 1760 4044 
z
" transform="scale(0.015625)"/>
      </defs>
      <use xlink:href="#NimbusSanL-Regu-41" transform="scale(0.996264)"/>
      <use xlink:href="#NimbusSanL-Regu-76" transform="translate(62.465918 0) scale(0.996264)"/>
      <use xlink:href="#NimbusSanL-Regu-65" transform="translate(109.788488 0) scale(0.996264)"/>
      <use xlink:href="#NimbusSanL-Regu-72" transform="translate(165.180165 0) scale(0.996264)"/>
      <use xlink:href="#NimbusSanL-Regu-61" transform="translate(197.359298 0) scale(0.996264)"/>
      <use xlink:href="#NimbusSanL-Regu-67" transform="translate(252.750975 0) scale(0.996264)"/>
      <use xlink:href="#NimbusSanL-Regu-65" transform="translate(308.142652 0) scale(0.996264)"/>
      <use xlink:href="#NimbusSanL-Regu-43" transform="translate(391.229499 0) scale(0.996264)"/>
      <use xlink:href="#NimbusSanL-Regu-46" transform="translate(463.159484 0) scale(0.996264)"/>
      <use xlink:href="#NimbusSanL-Regu-4c" transform="translate(524.031114 0) scale(0.996264)"/>
      <use xlink:href="#NimbusSanL-Regu-2d" transform="translate(607.117961 0) scale(0.996264)"/>
      <use xlink:href="#NimbusSanL-Regu-42" transform="translate(667.98836 0) scale(0.996264)"/>
      <use xlink:href="#NimbusSanL-Regu-6c" transform="translate(734.438391 0) scale(0.996264)"/>
      <use xlink:href="#NimbusSanL-Regu-61" transform="translate(756.555176 0) scale(0.996264)"/>
      <use xlink:href="#NimbusSanL-Regu-64" transform="translate(811.946853 0) scale(0.996264)"/>
      <use xlink:href="#NimbusSanL-Regu-65" transform="translate(867.33853 0) scale(0.996264)"/>
      <use xlink:href="#NimbusSanL-Regu-30" transform="translate(958.595772 0) scale(0.996264)"/>
      <path d="M 928.707548 0 
L 958.595772 0 
L 958.595772 0.3985 
L 928.707548 0.3985 
L 928.707548 0 
z
"/>
     </g>
    </g>
   </g>
   <g id="line2d_13">
    <path d="M 52.785526 113.277666 
L 53.018131 68.904141 
L 53.134434 204.553597 
L 53.483341 193.581063 
L 53.832249 174.620525 
L 54.181156 141.856714 
L 54.530064 85.950457 
L 54.646366 59.843724 
L 54.762669 203.647555 
L 55.111576 192.015423 
L 55.460484 171.915098 
L 55.809391 137.207643 
L 56.158299 78.003446 
L 56.390904 17.28 
L 56.507206 199.391183 
L 56.856114 184.660411 
L 57.205021 159.208847 
L 57.553929 115.391579 
L 57.786534 69.986558 
L 57.902836 204.661838 
L 58.251744 193.768104 
L 58.600651 174.943732 
L 58.949559 142.422627 
L 59.298466 86.961067 
L 59.414769 61.036754 
L 59.531071 203.766858 
L 59.879979 192.221578 
L 60.228886 172.27204 
L 60.577794 137.837574 
L 60.926701 78.677031 
L 61.043004 50.688891 
L 61.159306 202.732072 
L 61.508214 190.433468 
L 61.857121 169.18148 
L 62.206029 132.466012 
L 62.554936 69.167912 
L 62.671239 204.579974 
L 63.020146 193.626642 
L 63.369053 174.699286 
L 63.717961 141.995337 
L 64.066868 85.567571 
L 64.183171 58.871923 
L 64.299473 203.550375 
L 64.648381 191.847496 
L 64.997288 171.625046 
L 65.346196 136.703633 
L 65.695103 76.449899 
L 65.811406 47.884645 
L 65.927708 202.451647 
L 66.276616 189.948894 
L 66.625523 168.344137 
L 66.974431 131.012238 
L 67.439641 66.52226 
L 68.602666 66.52226 
L 68.718968 204.315409 
L 69.067876 193.169474 
L 69.416783 173.909299 
L 69.765691 140.627716 
L 70.114598 83.117141 
L 70.230901 55.815418 
L 70.347203 203.244724 
L 70.696111 191.319332 
L 71.045018 170.712253 
L 71.393926 135.103221 
L 71.859136 73.570813 
L 71.975438 73.570813 
L 72.091741 44.360776 
L 72.208043 202.09926 
L 72.556951 189.339969 
L 72.905858 167.291915 
L 73.254766 129.195169 
L 73.603673 63.389348 
L 73.719976 32.158844 
L 73.836278 200.879067 
L 74.185186 187.231476 
L 74.534093 163.648438 
L 74.883001 122.896948 
L 75.231908 52.507889 
L 75.348211 202.913971 
L 75.697118 190.74779 
L 76.046026 169.72463 
L 76.394933 133.396608 
L 76.743841 70.699738 
L 76.860143 204.733156 
L 77.209051 193.891342 
L 77.557958 175.156687 
L 77.906866 142.783203 
L 78.255773 86.90548 
L 78.372076 60.413007 
L 78.488378 203.704483 
L 78.837286 192.113795 
L 79.186193 172.085085 
L 79.535101 137.475475 
L 80.116613 49.320533 
L 80.232916 202.595236 
L 80.581823 190.197015 
L 80.930731 168.772891 
L 81.279638 131.752003 
L 81.628546 67.779909 
L 81.744848 204.441173 
L 82.093756 193.386796 
L 82.442663 174.284831 
L 82.791571 141.276635 
L 83.140478 84.238474 
L 83.256781 57.161017 
L 83.373083 203.379284 
L 83.721991 191.551851 
L 84.070898 171.114046 
L 84.419806 135.79752 
L 84.768713 74.770563 
L 84.885016 205.140239 
L 85.233923 194.594781 
L 85.582831 176.372229 
L 85.931738 144.883659 
L 86.280646 90.471411 
L 86.396948 64.642982 
L 86.513251 204.127481 
L 86.862158 192.844735 
L 87.211066 173.348149 
L 87.559973 139.65805 
L 87.90888 81.443734 
L 88.025183 53.825676 
L 88.141485 203.04575 
L 88.490393 190.975504 
L 88.8393 170.118119 
L 89.188208 134.076557 
L 89.653418 71.79972 
L 89.76972 71.79972 
L 89.886023 42.237623 
L 90.002325 201.886945 
L 90.351233 188.973088 
L 90.70014 166.657945 
L 91.049048 128.097377 
L 91.397955 61.464715 
L 91.514258 203.809654 
L 91.863165 192.29553 
L 92.212073 172.399124 
L 92.56098 138.018134 
L 92.909888 78.607783 
L 93.02619 50.404188 
L 93.142493 202.703601 
L 93.4914 190.384271 
L 93.840308 169.096468 
L 94.189215 132.311145 
L 94.538123 68.746106 
L 94.654425 204.537793 
L 95.003333 193.553755 
L 95.35224 174.573336 
L 95.701148 141.775172 
L 96.050055 85.099945 
L 96.166358 58.194783 
L 96.28266 203.482661 
L 96.631568 191.730486 
L 96.980475 171.422727 
L 97.329383 136.330921 
L 97.794593 75.692279 
L 98.492408 75.692279 
L 98.60871 46.905583 
L 98.725013 202.353741 
L 99.07392 189.779712 
L 99.422828 168.05179 
L 99.771735 130.505942 
L 100.120643 65.626715 
L 100.236945 204.225854 
L 100.585853 193.014724 
L 100.93476 173.64189 
L 101.283668 140.165635 
L 101.632575 82.318664 
L 101.748878 54.857246 
L 101.86518 203.148907 
L 102.214088 191.153759 
L 102.562995 170.426144 
L 102.911903 134.608825 
L 103.377113 72.716497 
L 106.284675 72.716497 
L 106.400978 204.934832 
L 106.749885 194.239838 
L 107.098793 175.758888 
L 107.4477 143.823807 
L 107.796608 88.639986 
L 107.91291 62.442831 
L 108.029213 203.907466 
L 108.37812 192.464548 
L 108.727028 172.691188 
L 109.075935 138.52282 
L 109.541145 79.479881 
L 110.936775 79.479881 
L 111.053078 51.450706 
L 111.16938 202.808253 
L 111.518288 190.565109 
L 111.867195 169.408957 
L 112.216103 132.851125 
L 112.56501 69.679192 
L 112.681312 204.631102 
L 113.03022 193.714992 
L 113.379127 174.851954 
L 113.728035 142.256624 
L 114.076942 85.931894 
L 114.193245 59.193121 
L 114.309547 203.582495 
L 114.658455 191.902999 
L 115.007362 171.72083 
L 115.35627 136.846041 
L 115.82148 76.582407 
L 115.937782 76.582407 
L 116.054085 47.973737 
L 116.170387 202.460556 
L 116.519295 189.964289 
L 116.868202 168.370739 
L 117.21711 131.057086 
L 117.566017 66.579092 
L 117.68232 204.321092 
L 118.031227 193.179294 
L 118.380135 173.926269 
L 118.729042 140.65704 
L 119.07795 83.167813 
L 119.194252 55.876224 
L 119.310555 203.250805 
L 119.659462 191.329839 
L 120.00837 170.73041 
L 120.357277 135.134596 
L 120.706185 73.625029 
L 120.822487 205.025685 
L 121.171395 194.396832 
L 121.520302 176.030174 
L 121.86921 144.292589 
L 122.218117 89.450042 
L 122.33442 63.414898 
L 122.450722 204.004672 
L 122.79963 192.632522 
L 123.148537 172.981445 
L 123.497445 139.024386 
L 124.078957 52.490752 
L 124.19526 202.912258 
L 124.544167 190.744829 
L 124.893075 169.719513 
L 125.241982 133.387766 
L 125.59089 70.606508 
L 125.707192 204.723833 
L 126.0561 193.875232 
L 126.405007 175.128849 
L 126.753915 142.735098 
L 127.102822 86.758698 
L 127.219125 60.185286 
L 127.335427 203.681711 
L 127.684335 192.074445 
L 128.033242 172.017088 
L 128.38215 137.357976 
L 128.84736 77.467031 
L 129.079965 77.467031 
L 129.196267 49.035286 
L 129.31257 202.566711 
L 129.661477 190.147725 
L 130.010385 168.687716 
L 130.359292 131.604822 
L 130.7082 67.525579 
L 130.824502 204.41574 
L 131.17341 193.342847 
L 131.522317 174.208888 
L 131.871225 141.145407 
L 132.220132 84.011711 
L 132.336435 56.888902 
L 132.452737 203.352073 
L 132.801645 191.50483 
L 133.150552 171.032793 
L 133.49946 135.657115 
L 134.080972 45.508379 
L 134.197275 202.21402 
L 134.546182 189.538275 
L 134.89509 167.634587 
L 135.243997 129.785015 
L 135.592905 64.380954 
L 135.709207 204.101278 
L 136.058115 192.799456 
L 136.407022 173.269908 
L 136.75593 139.522849 
L 137.104837 81.207931 
L 137.221139 53.524366 
L 137.337442 203.015619 
L 137.686349 190.923438 
L 138.035257 170.028148 
L 138.384164 133.921088 
L 138.733072 71.528088 
L 138.849374 204.815991 
L 139.198282 194.034481 
L 139.547189 175.404031 
L 139.896097 143.210614 
L 140.245004 87.580388 
L 140.361307 61.171314 
L 140.477609 203.780314 
L 140.826517 192.24483 
L 141.175424 172.311515 
L 141.524332 137.866746 
L 142.105844 50.09027 
L 142.222147 202.672209 
L 142.571054 190.330026 
L 142.919962 169.002733 
L 143.268869 132.14917 
L 143.617777 68.466214 
L 143.734079 204.509804 
L 144.082987 193.505389 
L 144.431894 174.48976 
L 144.780802 141.630753 
L 145.129709 84.85039 
L 145.246012 57.895316 
L 145.362314 203.452714 
L 145.711222 191.678738 
L 146.060129 171.333307 
L 146.409037 136.176403 
L 146.757944 75.425271 
L 146.874247 205.20571 
L 146.990549 202.3217 
L 147.106852 217.894223 
L 147.455759 216.633666 
L 147.804667 214.455423 
L 148.153574 210.691419 
L 148.502482 204.18722 
L 148.851389 192.947963 
L 149.200297 173.526529 
L 149.549204 139.966289 
L 150.014414 81.974196 
L 150.828532 81.974196 
L 150.944834 54.443883 
L 151.061137 203.107571 
L 151.410044 191.08233 
L 151.758952 170.302715 
L 152.107859 134.395539 
L 152.456767 72.347939 
L 152.573069 204.897976 
L 152.921977 194.176151 
L 153.270884 175.648837 
L 153.619792 143.633639 
L 153.968699 88.311376 
L 154.085002 62.048499 
L 154.201304 203.868032 
L 154.550212 192.396408 
L 154.899119 172.573441 
L 155.248027 138.319354 
L 155.713237 79.128291 
L 157.457774 79.128291 
L 157.574077 51.028798 
L 157.690379 202.766062 
L 158.039287 190.492204 
L 158.388194 169.282976 
L 158.737102 132.63343 
L 159.086009 69.303015 
L 159.202312 204.593484 
L 159.551219 193.649988 
L 159.900127 174.739628 
L 160.249034 142.062524 
L 160.597942 85.59649 
L 160.714244 58.790637 
L 160.830547 203.542246 
L 161.179454 191.833449 
L 161.528362 171.600648 
L 161.877269 136.638368 
L 162.226176 76.223548 
L 162.342479 205.285537 
L 162.691386 194.845856 
L 163.040294 176.806088 
L 163.389201 145.633368 
L 163.738109 91.766907 
L 163.854411 66.195137 
L 163.970714 204.282696 
L 164.319621 193.112947 
L 164.668529 173.81162 
L 165.017436 140.458928 
L 165.482646 82.825475 
L 165.715251 82.825475 
L 165.831554 55.465419 
L 165.947856 203.209724 
L 166.296764 191.258852 
L 166.645671 170.607744 
L 166.994579 134.922629 
L 167.343486 73.25875 
L 167.459789 204.989058 
L 167.808696 194.333539 
L 168.157604 175.920804 
L 168.390209 218.88 
L 169.320629 218.88 
L 169.669536 218.337088 
L 170.018444 217.398936 
L 170.367351 215.777809 
L 170.716259 212.976502 
L 171.065166 208.135843 
L 171.414074 199.771185 
L 171.762981 185.317056 
L 172.111889 160.340321 
L 172.460796 117.180522 
L 172.693401 72.104618 
L 172.809704 204.873644 
L 173.158611 194.134105 
L 173.507519 175.576182 
L 173.856426 143.50809 
L 174.321636 88.094427 
L 174.437939 88.094427 
L 174.554241 61.788161 
L 174.786846 218.047382 
L 174.903149 218.88 
L 175.484661 218.88 
L 175.833569 218.337088 
L 176.182476 217.398936 
L 176.531384 215.777809 
L 176.880291 212.976502 
L 177.229199 208.135843 
L 177.578106 199.771185 
L 177.927014 185.317056 
L 178.275921 160.340321 
L 178.624829 117.180522 
L 178.857434 72.104618 
L 178.973736 204.873644 
L 179.322644 194.134105 
L 179.671551 175.576182 
L 180.020459 143.50809 
L 180.369366 88.094427 
L 180.485669 61.788161 
L 180.601971 203.841999 
L 180.950879 192.351422 
L 181.299786 172.495704 
L 181.648694 138.185025 
L 182.113904 78.896171 
L 185.254071 78.896171 
L 185.370374 50.750254 
L 185.486676 202.738208 
L 185.835584 190.444071 
L 186.184491 169.199803 
L 186.533399 132.489707 
L 186.882306 69.054662 
L 186.998608 204.568649 
L 187.347516 193.607073 
L 187.696423 174.66547 
L 188.045331 141.93438 
L 188.394238 85.375057 
L 188.510541 58.524916 
L 188.626843 203.515674 
L 188.975751 191.787533 
L 189.324658 171.521305 
L 189.673566 136.501262 
L 190.255078 47.258804 
L 190.371381 202.389063 
L 190.720288 189.840749 
L 191.069196 168.157261 
L 191.418103 130.688196 
L 191.767011 65.94165 
L 191.883313 204.257348 
L 192.232221 193.069144 
L 192.581128 173.73593 
L 192.930036 140.328134 
L 193.278943 82.599464 
L 193.395246 55.194205 
L 193.511548 203.182603 
L 193.860456 191.211986 
L 194.209363 170.52676 
L 194.558271 134.782688 
L 195.023481 73.016933 
L 195.139783 73.016933 
L 195.256086 43.695169 
L 195.372388 202.032699 
L 195.721296 189.224952 
L 196.070203 167.093166 
L 196.419111 128.849438 
L 196.768018 62.764277 
L 196.884321 203.93961 
L 197.233228 192.520094 
L 197.582136 172.787171 
L 197.931043 138.68868 
L 198.279951 79.766486 
L 198.396253 51.794632 
L 198.512556 202.842646 
L 198.861463 190.62454 
L 199.210371 169.511652 
L 199.559278 133.028583 
L 199.908186 69.98584 
L 200.024488 204.661767 
L 200.373396 193.76798 
L 200.722303 174.943518 
L 201.071211 142.414847 
L 201.420118 86.205304 
L 201.536421 59.521213 
L 201.652723 203.615304 
L 202.001631 191.959693 
L 202.350538 171.818797 
L 202.699446 137.01533 
L 203.048353 76.874938 
L 203.164656 48.324773 
L 203.280958 202.49566 
L 203.629866 190.024948 
L 203.978773 168.475558 
L 204.327681 131.238213 
L 204.676588 66.89208 
L 204.792891 36.345344 
L 204.909193 201.297717 
L 205.258101 187.954903 
L 205.607008 164.89852 
L 205.955916 125.05709 
L 206.304823 56.2111 
L 206.421126 203.284292 
L 206.770033 191.387705 
L 207.118941 170.830403 
L 207.467848 135.307384 
L 207.933058 73.923607 
L 208.049361 73.923607 
L 208.165663 44.783177 
L 208.281966 202.1415 
L 208.630873 189.41296 
L 208.979781 167.418043 
L 209.328688 129.410827 
L 209.677596 63.734357 
L 209.793898 204.036618 
L 210.142806 192.687724 
L 210.491713 173.076835 
L 210.840621 139.189219 
L 211.189528 80.631419 
L 211.305831 52.832551 
L 211.422133 202.946438 
L 211.77104 190.803892 
L 212.119948 169.821573 
L 212.468855 133.564127 
L 212.817763 70.911259 
L 212.934065 41.168359 
L 213.050368 201.780018 
L 213.399275 188.78832 
L 213.748183 166.338664 
L 214.09709 127.54566 
L 214.445998 60.511349 
L 214.5623 203.714317 
L 214.911208 192.130788 
L 215.260115 172.11445 
L 215.609023 137.526218 
L 216.074233 77.757752 
L 217.469863 77.757752 
L 217.586165 49.384151 
L 217.702468 202.601598 
L 218.051375 190.208009 
L 218.400283 168.791887 
L 218.74919 131.784828 
L 219.2144 67.836631 
L 219.795913 67.836631 
L 219.912215 204.446846 
L 220.261123 193.396597 
L 220.61003 174.301768 
L 220.958938 141.305903 
L 221.307845 84.289048 
L 221.424148 57.221706 
L 221.54045 203.385353 
L 221.889358 191.562338 
L 222.238265 171.132168 
L 222.587173 135.828835 
L 222.93608 74.824674 
L 223.052383 205.14565 
L 223.40129 194.604131 
L 223.750198 176.388386 
L 224.099105 144.911579 
L 224.448013 90.519657 
L 224.564315 64.698437 
L 224.680618 204.133026 
L 225.029525 192.854317 
L 225.378433 173.364708 
L 225.72734 139.686663 
L 226.308853 53.864051 
L 226.425155 203.049588 
L 226.774063 190.982135 
L 227.12297 170.129578 
L 227.471878 134.096358 
L 227.820785 71.830955 
L 227.937088 204.846278 
L 228.285995 194.086816 
L 228.634903 175.494467 
L 228.98381 143.366886 
L 229.332718 87.850427 
L 229.44902 61.495361 
L 229.565323 203.812719 
L 229.91423 192.300826 
L 230.263138 172.408275 
L 230.612045 138.033947 
L 231.193558 50.436977 
L 231.30986 202.70688 
L 231.658768 190.389937 
L 232.007675 169.106259 
L 232.356583 132.328064 
L 232.70549 68.775342 
L 232.821793 204.540717 
L 233.1707 193.558806 
L 233.519608 174.582065 
L 233.868515 141.790257 
L 234.217423 85.126012 
L 234.333725 58.226062 
L 234.450028 203.485789 
L 234.798935 191.735891 
L 235.147843 171.432067 
L 235.49675 136.34706 
L 235.845658 75.720168 
L 235.96196 205.235199 
L 236.310868 194.758872 
L 236.659775 176.655779 
L 237.008682 145.373635 
L 237.35759 91.318089 
L 237.473892 65.656555 
L 237.590195 204.228838 
L 237.939102 193.01988 
L 238.28801 173.6508 
L 238.636917 140.181031 
L 239.102127 82.34527 
L 239.21843 82.34527 
L 239.334732 54.889172 
L 239.451035 203.1521 
L 239.799942 191.159276 
L 240.14885 170.435677 
L 240.497757 134.625298 
L 240.846665 72.744963 
L 240.962967 204.937679 
L 241.311875 194.244757 
L 241.660782 175.767388 
L 242.00969 143.838494 
L 242.358597 88.665366 
L 242.4749 62.473288 
L 242.591202 203.910511 
L 242.94011 192.469811 
L 243.289017 172.700282 
L 243.637925 138.538535 
L 244.103135 79.507037 
L 244.33574 79.507037 
L 244.452042 51.483292 
L 244.568345 202.811512 
L 244.917252 190.57074 
L 245.26616 169.418687 
L 245.615067 132.867939 
L 245.963975 69.708247 
L 246.080277 204.634007 
L 246.429185 193.720012 
L 246.778092 174.860629 
L 247.127 142.271615 
L 247.59221 85.957799 
L 247.708512 85.957799 
L 247.824815 59.224207 
L 247.941117 203.585603 
L 248.290025 191.90837 
L 248.638932 171.730112 
L 248.98784 136.862081 
L 249.45305 76.610124 
L 249.569352 76.610124 
L 249.685655 48.006997 
L 249.801957 202.463882 
L 250.150865 189.970036 
L 250.499772 168.380671 
L 250.84868 131.074247 
L 251.197587 66.608747 
L 251.31389 204.324057 
L 251.662797 193.184419 
L 252.011705 173.935124 
L 252.360612 140.672342 
L 252.70952 83.194254 
L 252.825822 55.907953 
L 252.942125 203.253978 
L 253.291032 191.335322 
L 253.63994 170.739884 
L 253.988847 135.150967 
L 254.337755 73.653319 
L 254.454057 205.028514 
L 254.802965 194.401721 
L 255.151872 176.038622 
L 255.50078 144.307186 
L 255.849687 89.475265 
L 255.96599 63.445166 
L 256.082292 204.007699 
L 256.4312 192.637752 
L 256.780107 172.990483 
L 257.129015 139.040003 
L 257.710527 52.523137 
L 257.82683 202.915496 
L 258.175737 190.750425 
L 258.524645 169.729183 
L 258.873552 133.404476 
L 259.22246 70.635383 
L 259.338762 204.726721 
L 259.68767 193.880221 
L 260.036577 175.137471 
L 260.385485 142.749997 
L 260.734392 86.784443 
L 260.850695 60.21618 
L 260.966997 203.6848 
L 261.315904 192.079783 
L 261.664812 172.026313 
L 262.013719 137.373917 
L 262.595232 49.06834 
L 262.711534 202.570017 
L 263.060442 190.153437 
L 263.409349 168.697586 
L 263.758257 131.621877 
L 264.107164 67.555051 
L 264.223467 204.418688 
L 264.572374 193.34794 
L 264.921282 174.217689 
L 265.270189 141.160614 
L 265.619097 84.037988 
L 265.735399 56.920434 
L 265.851702 203.355226 
L 266.200609 191.510278 
L 266.549517 171.042209 
L 266.898424 135.673385 
L 267.247332 74.556057 
L 267.363634 205.118788 
L 267.712542 194.557714 
L 268.061449 176.308178 
L 268.410357 144.772979 
L 268.759264 90.280156 
L 268.875567 64.411035 
L 268.991869 204.104286 
L 269.340777 192.804654 
L 269.689684 173.27889 
L 270.038592 139.53837 
L 270.620104 53.556551 
L 270.736407 203.018838 
L 271.085314 190.928999 
L 271.434222 170.037759 
L 271.783129 133.937695 
L 272.132037 71.556785 
L 272.248339 204.818861 
L 272.597247 194.03944 
L 272.946154 175.4126 
L 273.295062 143.22542 
L 273.643969 87.605974 
L 273.760272 61.202017 
L 273.876574 203.783384 
L 274.225482 192.250136 
L 274.574389 172.320683 
L 274.923297 137.882588 
L 275.272204 78.373559 
L 275.388507 50.12312 
L 275.504809 202.675494 
L 275.853717 190.335702 
L 276.202624 169.012542 
L 276.551532 132.16612 
L 276.900439 68.495503 
L 277.016742 204.512733 
L 277.365649 193.51045 
L 277.714557 174.498506 
L 278.063464 141.645866 
L 278.412372 84.876505 
L 278.528674 57.926654 
L 278.644977 203.455848 
L 278.993884 191.684153 
L 279.342792 171.342664 
L 279.691699 136.192572 
L 280.156909 75.453212 
L 280.273212 75.453212 
L 280.389514 46.618703 
L 280.505817 202.325053 
L 280.854724 189.730139 
L 281.203632 167.966129 
L 281.552539 130.357918 
L 281.901447 65.37093 
L 282.017749 204.200276 
L 282.366657 192.970524 
L 282.715564 173.565514 
L 283.064472 140.033655 
L 283.413379 82.090604 
L 283.529682 54.583573 
L 283.645984 203.12154 
L 283.994892 191.106469 
L 284.343799 170.344426 
L 284.692707 134.467616 
L 285.157917 72.472488 
L 285.855732 72.472488 
L 285.972034 204.910431 
L 286.320941 194.197673 
L 286.669849 175.686027 
L 287.018756 143.697903 
L 287.367664 88.422425 
L 287.483966 62.181758 
L 287.600269 203.881358 
L 287.949176 192.419435 
L 288.298084 172.613232 
L 288.646991 138.388112 
L 289.228504 51.171376 
L 289.344806 202.78032 
L 289.693714 190.516841 
L 290.042621 169.325549 
L 290.391529 132.706997 
L 290.740436 69.430139 
L 290.856739 204.606196 
L 291.205646 193.671955 
L 291.554554 174.777587 
L 291.903461 142.128118 
L 292.252369 85.709835 
L 292.368671 58.926651 
L 292.484974 203.555848 
L 292.833881 191.856953 
L 293.182789 171.641262 
L 293.531696 136.708548 
L 293.880604 76.34482 
L 293.996906 47.688632 
L 294.113209 202.432046 
L 294.462116 189.915023 
L 294.811024 168.285607 
L 295.159931 130.909978 
L 295.508839 66.324889 
L 295.625141 204.295671 
L 295.974049 193.135368 
L 296.322956 173.850364 
L 296.671864 140.525877 
L 297.020771 82.941164 
L 297.137074 55.604245 
L 297.253376 203.223607 
L 297.602284 191.282841 
L 297.951191 170.649197 
L 298.300099 134.99426 
L 298.765309 73.382529 
L 298.881611 73.382529 
L 298.997914 44.133883 
L 299.114216 202.076571 
L 299.463124 189.300762 
L 299.812031 167.224165 
L 300.160939 129.075806 
L 300.509846 63.15544 
L 300.626149 203.978727 
L 300.975056 192.587687 
L 301.323964 172.903972 
L 301.672871 138.890511 
L 302.021779 80.115251 
L 302.138081 52.213149 
L 302.254384 202.884497 
L 302.603291 190.696859 
L 302.952199 169.636621 
L 303.301106 133.244529 
L 303.650014 70.358994 
L 303.766316 204.699082 
L 304.115224 193.832462 
L 304.464131 175.054941 
L 304.813039 142.607387 
L 305.161946 86.538012 
L 305.278249 59.920463 
L 305.394551 203.655229 
L 305.743459 192.028683 
L 306.092366 171.938013 
L 306.441274 137.221334 
L 306.790181 77.230913 
L 306.906484 205.386274 
L 307.255391 195.019929 
L 307.604299 177.106885 
L 307.953206 146.153146 
L 308.302114 92.665084 
L 308.418416 67.272949 
L 308.534719 204.390477 
L 308.883626 193.299193 
L 309.232534 174.133453 
L 309.581441 141.015055 
L 310.162954 56.618604 
L 310.279256 203.325043 
L 310.628164 191.458122 
L 310.977071 170.952083 
L 311.325978 135.517647 
L 311.674886 74.286942 
L 311.791188 205.091877 
L 312.140096 194.511211 
L 312.489003 176.22782 
L 312.837911 144.634121 
L 313.186818 90.04021 
L 313.303121 64.1231 
L 313.419423 204.075493 
L 313.768331 192.754899 
L 314.117238 173.192913 
L 314.466146 139.389802 
L 314.815053 80.978026 
L 314.931356 205.760985 
L 315.280263 195.66743 
L 315.629171 178.225767 
L 315.978078 148.086574 
L 316.326986 96.006048 
L 316.443288 71.282106 
L 316.559591 204.791393 
L 316.908498 193.991975 
L 317.257406 175.330581 
L 317.606313 143.083692 
L 318.187826 60.908129 
L 318.304128 203.753995 
L 318.653036 192.199352 
L 319.001943 172.232928 
L 319.350851 137.730948 
L 319.699758 78.111526 
L 319.816061 205.474335 
L 320.164968 195.172099 
L 320.513876 177.369835 
L 320.862783 146.607523 
L 321.211691 93.450247 
L 321.327993 68.215145 
L 321.444296 204.484697 
L 321.793203 193.462004 
L 322.142111 174.414791 
L 322.491018 141.501208 
L 322.839926 84.626535 
L 322.956228 206.125836 
L 323.305136 196.297893 
L 323.654043 179.315206 
L 324.002951 149.969124 
L 324.351858 99.259094 
L 324.468161 75.185762 
L 324.584463 205.181759 
L 324.933371 194.666527 
L 325.282278 176.496206 
L 325.631186 145.097893 
L 326.212698 65.084776 
L 326.329001 204.17166 
L 326.677908 192.921077 
L 327.026816 173.480068 
L 327.375723 139.886006 
L 327.724631 81.835466 
L 327.840933 205.846729 
L 328.189841 195.815596 
L 328.538748 178.481798 
L 328.887656 148.528994 
L 329.236563 96.77055 
L 329.352866 72.199508 
L 329.469168 204.883133 
L 329.818076 194.150502 
L 330.166983 175.604516 
L 330.515891 143.557051 
L 330.864798 88.179033 
L 330.981101 61.889688 
L 331.097403 203.852151 
L 331.446311 192.368965 
L 331.795218 172.52602 
L 332.144126 138.23741 
L 332.609336 78.986693 
L 332.725638 78.986693 
L 332.841941 50.85888 
L 332.958243 202.749071 
L 333.307151 190.462842 
L 333.656058 169.232239 
L 334.004966 132.545756 
L 334.353873 69.151515 
L 334.470176 204.578334 
L 334.819083 193.623809 
L 335.167991 174.69439 
L 335.516898 141.984354 
L 336.09841 58.628542 
L 336.214713 203.526037 
L 336.56362 191.805439 
L 336.912528 171.552247 
L 337.261435 136.554731 
L 337.610343 76.079023 
L 337.726645 205.271085 
L 338.075553 194.820882 
L 338.42446 176.762933 
L 338.773368 145.558796 
L 339.122275 91.638047 
L 339.238578 66.040505 
L 339.35488 204.267233 
L 339.703788 193.086227 
L 340.052695 173.765447 
L 340.401603 140.379141 
L 340.866813 82.687604 
L 340.983115 82.687604 
L 341.099418 55.299973 
L 341.21572 203.19318 
L 341.564628 191.230263 
L 341.913535 170.558342 
L 342.262443 134.837262 
L 342.61135 73.111237 
L 342.727653 204.974306 
L 343.07656 194.308049 
L 343.425468 175.876757 
L 343.774375 144.027484 
L 344.123283 88.991939 
L 344.239585 62.865176 
L 344.355888 203.9497 
L 344.704795 192.53753 
L 345.053703 172.817299 
L 345.40261 138.740741 
L 345.751518 79.856448 
L 345.86782 205.648827 
L 346.216728 195.473622 
L 346.565635 177.890866 
L 346.914543 147.507864 
L 347.26345 95.006038 
L 347.379753 70.082093 
L 347.496055 204.671392 
L 347.844963 193.784613 
L 348.19387 174.972259 
L 348.542778 142.464512 
L 348.891685 86.291125 
L 349.007988 59.624198 
L 349.12429 203.625602 
L 349.473198 191.977489 
L 349.822105 171.849548 
L 350.171013 137.068467 
L 350.51992 76.96676 
L 350.636223 48.43496 
L 350.752525 202.506679 
L 351.101433 190.043988 
L 351.45034 168.50846 
L 351.799248 131.295067 
L 352.38076 36.463236 
L 352.497063 201.309506 
L 352.84597 187.975274 
L 353.194878 164.933722 
L 353.543785 125.11792 
L 353.892693 56.316213 
L 354.008995 203.294804 
L 354.357903 191.405869 
L 354.70681 170.86179 
L 355.055718 135.36162 
L 355.520928 74.017328 
L 356.335045 74.017328 
L 356.451348 205.064915 
L 356.800255 194.464622 
L 357.149163 176.147314 
L 357.149163 176.147314 
" clip-path="url(#p6e224c240c)" style="fill: none; stroke: #1f77b4; stroke-width: 1.5; stroke-linecap: square"/>
   </g>
   <g id="patch_3">
    <path d="M 37.567344 228.96 
L 37.567344 7.2 
" style="fill: none; stroke: #000000; stroke-width: 0.8; stroke-linejoin: miter; stroke-linecap: square"/>
   </g>
   <g id="patch_4">
    <path d="M 372.367344 228.96 
L 372.367344 7.2 
" style="fill: none; stroke: #000000; stroke-width: 0.8; stroke-linejoin: miter; stroke-linecap: square"/>
   </g>
   <g id="patch_5">
    <path d="M 37.567344 228.96 
L 372.367344 228.96 
" style="fill: none; stroke: #000000; stroke-width: 0.8; stroke-linejoin: miter; stroke-linecap: square"/>
   </g>
   <g id="patch_6">
    <path d="M 37.567344 7.2 
L 372.367344 7.2 
" style="fill: none; stroke: #000000; stroke-width: 0.8; stroke-linejoin: miter; stroke-linecap: square"/>
   </g>
   <g id="legend_1">
    <g id="patch_7">
     <path d="M 314.548024 29.420307 
L 365.367344 29.420307 
Q 367.367344 29.420307 367.367344 27.420307 
L 367.367344 14.2 
Q 367.367344 12.2 365.367344 12.2 
L 314.548024 12.2 
Q 312.548024 12.2 312.548024 14.2 
L 312.548024 27.420307 
Q 312.548024 29.420307 314.548024 29.420307 
z
" style="fill: #ffffff; opacity: 0.8; stroke: #cccccc; stroke-linejoin: miter"/>
    </g>
    <g id="line2d_14">
     <path d="M 316.548024 19.79832 
L 326.548024 19.79832 
L 336.548024 19.79832 
" style="fill: none; stroke: #1f77b4; stroke-width: 1.5; stroke-linecap: square"/>
    </g>
    <g id="text_15">
     <!-- CFL -->
     <g transform="translate(344.548024 23.29832) scale(0.1 -0.1)">
      <use xlink:href="#NimbusSanL-Regu-43" transform="scale(0.996264)"/>
      <use xlink:href="#NimbusSanL-Regu-46" transform="translate(71.929985 0) scale(0.996264)"/>
      <use xlink:href="#NimbusSanL-Regu-4c" transform="translate(132.801616 0) scale(0.996264)"/>
     </g>
    </g>
   </g>
  </g>
 </g>
 <defs>
  <clipPath id="p6e224c240c">
   <rect x="37.567344" y="7.2" width="334.8" height="221.76"/>
  </clipPath>
 </defs>
</svg>
