<?xml version="1.0" encoding="utf-8" standalone="no"?>
<!DOCTYPE svg PUBLIC "-//W3C//DTD SVG 1.1//EN"
  "http://www.w3.org/Graphics/SVG/1.1/DTD/svg11.dtd">
<svg xmlns:xlink="http://www.w3.org/1999/xlink" width="417.314698pt" height="265.600613pt" viewBox="0 0 417.314698 265.600613" xmlns="http://www.w3.org/2000/svg" version="1.1">
 <metadata>
  <rdf:RDF xmlns:dc="http://purl.org/dc/elements/1.1/" xmlns:cc="http://creativecommons.org/ns#" xmlns:rdf="http://www.w3.org/1999/02/22-rdf-syntax-ns#">
   <cc:Work>
    <dc:type rdf:resource="http://purl.org/dc/dcmitype/StillImage"/>
    <dc:date>2025-08-02T14:08:53.315751</dc:date>
    <dc:format>image/svg+xml</dc:format>
    <dc:creator>
     <cc:Agent>
      <dc:title>Matplotlib v3.10.3, https://matplotlib.org/</dc:title>
     </cc:Agent>
    </dc:creator>
   </cc:Work>
  </rdf:RDF>
 </metadata>
 <defs>
  <style type="text/css">*{stroke-linejoin: round; stroke-linecap: butt}</style>
 </defs>
 <g id="figure_1">
  <g id="patch_1">
   <path d="M 0 265.600613 
L 417.314698 265.600613 
L 417.314698 -0 
L 0 -0 
z
" style="fill: #ffffff"/>
  </g>
  <g id="axes_1">
   <g id="patch_2">
    <path d="M 40.150386 228.96 
L 374.950386 228.96 
L 374.950386 7.2 
L 40.150386 7.2 
z
" style="fill: #ffffff"/>
   </g>
   <g id="matplotlib.axis_1">
    <g id="xtick_1">
     <g id="line2d_1">
      <defs>
       <path id="mb2719270c1" d="M 0 0 
L 0 3.5 
" style="stroke: #000000; stroke-width: 0.8"/>
      </defs>
      <g>
       <use xlink:href="#mb2719270c1" x="55.368567" y="228.96" style="stroke: #000000; stroke-width: 0.8"/>
      </g>
     </g>
     <g id="text_1">
      <!-- $\mathdefault{0}$ -->
      <g transform="translate(52.8779 243.05832) scale(0.1 -0.1)">
       <defs>
        <path id="CMR17-30" d="M 2688 2038 
C 2688 2430 2682 3099 2413 3613 
C 2176 4063 1798 4224 1466 4224 
C 1158 4224 768 4082 525 3620 
C 269 3137 243 2539 243 2038 
C 243 1671 250 1112 448 623 
C 723 -39 1216 -128 1466 -128 
C 1760 -128 2208 -7 2470 604 
C 2662 1048 2688 1568 2688 2038 
z
M 1466 -26 
C 1056 -26 813 328 723 816 
C 653 1196 653 1749 653 2109 
C 653 2604 653 3015 736 3407 
C 858 3954 1216 4121 1466 4121 
C 1728 4121 2067 3947 2189 3420 
C 2272 3054 2278 2623 2278 2109 
C 2278 1691 2278 1176 2202 797 
C 2067 96 1690 -26 1466 -26 
z
" transform="scale(0.015625)"/>
       </defs>
       <use xlink:href="#CMR17-30" transform="scale(0.996264)"/>
      </g>
     </g>
    </g>
    <g id="xtick_2">
     <g id="line2d_2">
      <g>
       <use xlink:href="#mb2719270c1" x="113.519816" y="228.96" style="stroke: #000000; stroke-width: 0.8"/>
      </g>
     </g>
     <g id="text_2">
      <!-- $\mathdefault{500}$ -->
      <g transform="translate(106.047813 243.05832) scale(0.1 -0.1)">
       <defs>
        <path id="CMR17-35" d="M 730 3750 
C 794 3724 1056 3641 1325 3641 
C 1920 3641 2246 3961 2432 4140 
C 2432 4191 2432 4224 2394 4224 
C 2387 4224 2374 4224 2323 4198 
C 2099 4102 1837 4032 1517 4032 
C 1325 4032 1037 4055 723 4191 
C 653 4224 640 4224 634 4224 
C 602 4224 595 4217 595 4090 
L 595 2231 
C 595 2113 595 2080 659 2080 
C 691 2080 704 2093 736 2139 
C 941 2435 1222 2560 1542 2560 
C 1766 2560 2246 2415 2246 1293 
C 2246 1087 2246 716 2054 422 
C 1894 159 1645 25 1370 25 
C 947 25 518 319 403 812 
C 429 806 480 793 506 793 
C 589 793 749 838 749 1036 
C 749 1209 627 1280 506 1280 
C 358 1280 262 1190 262 1011 
C 262 454 704 -128 1382 -128 
C 2042 -128 2669 441 2669 1267 
C 2669 2054 2170 2662 1549 2662 
C 1222 2662 947 2540 730 2304 
L 730 3750 
z
" transform="scale(0.015625)"/>
       </defs>
       <use xlink:href="#CMR17-35" transform="scale(0.996264)"/>
       <use xlink:href="#CMR17-30" transform="translate(45.690477 0) scale(0.996264)"/>
       <use xlink:href="#CMR17-30" transform="translate(91.380954 0) scale(0.996264)"/>
      </g>
     </g>
    </g>
    <g id="xtick_3">
     <g id="line2d_3">
      <g>
       <use xlink:href="#mb2719270c1" x="171.671065" y="228.96" style="stroke: #000000; stroke-width: 0.8"/>
      </g>
     </g>
     <g id="text_3">
      <!-- $\mathdefault{1000}$ -->
      <g transform="translate(161.708395 243.05832) scale(0.1 -0.1)">
       <defs>
        <path id="CMR17-31" d="M 1702 4083 
C 1702 4217 1696 4224 1606 4224 
C 1357 3927 979 3833 621 3820 
C 602 3820 570 3820 563 3808 
C 557 3795 557 3782 557 3648 
C 755 3648 1088 3686 1344 3839 
L 1344 467 
C 1344 243 1331 166 781 166 
L 589 166 
L 589 0 
C 896 6 1216 12 1523 12 
C 1830 12 2150 6 2458 0 
L 2458 166 
L 2266 166 
C 1715 166 1702 236 1702 467 
L 1702 4083 
z
" transform="scale(0.015625)"/>
       </defs>
       <use xlink:href="#CMR17-31" transform="scale(0.996264)"/>
       <use xlink:href="#CMR17-30" transform="translate(45.690477 0) scale(0.996264)"/>
       <use xlink:href="#CMR17-30" transform="translate(91.380954 0) scale(0.996264)"/>
       <use xlink:href="#CMR17-30" transform="translate(137.071431 0) scale(0.996264)"/>
      </g>
     </g>
    </g>
    <g id="xtick_4">
     <g id="line2d_4">
      <g>
       <use xlink:href="#mb2719270c1" x="229.822314" y="228.96" style="stroke: #000000; stroke-width: 0.8"/>
      </g>
     </g>
     <g id="text_4">
      <!-- $\mathdefault{1500}$ -->
      <g transform="translate(219.859643 243.05832) scale(0.1 -0.1)">
       <use xlink:href="#CMR17-31" transform="scale(0.996264)"/>
       <use xlink:href="#CMR17-35" transform="translate(45.690477 0) scale(0.996264)"/>
       <use xlink:href="#CMR17-30" transform="translate(91.380954 0) scale(0.996264)"/>
       <use xlink:href="#CMR17-30" transform="translate(137.071431 0) scale(0.996264)"/>
      </g>
     </g>
    </g>
    <g id="xtick_5">
     <g id="line2d_5">
      <g>
       <use xlink:href="#mb2719270c1" x="287.973563" y="228.96" style="stroke: #000000; stroke-width: 0.8"/>
      </g>
     </g>
     <g id="text_5">
      <!-- $\mathdefault{2000}$ -->
      <g transform="translate(278.010892 243.05832) scale(0.1 -0.1)">
       <defs>
        <path id="CMR17-32" d="M 2669 990 
L 2554 990 
C 2490 537 2438 460 2413 422 
C 2381 371 1920 371 1830 371 
L 602 371 
C 832 620 1280 1073 1824 1596 
C 2214 1966 2669 2400 2669 3033 
C 2669 3788 2067 4224 1395 4224 
C 691 4224 262 3603 262 3027 
C 262 2777 448 2745 525 2745 
C 589 2745 781 2783 781 3007 
C 781 3206 614 3264 525 3264 
C 486 3264 448 3257 422 3244 
C 544 3788 915 4057 1306 4057 
C 1862 4057 2227 3616 2227 3033 
C 2227 2477 1901 1998 1536 1583 
L 262 147 
L 262 0 
L 2515 0 
L 2669 990 
z
" transform="scale(0.015625)"/>
       </defs>
       <use xlink:href="#CMR17-32" transform="scale(0.996264)"/>
       <use xlink:href="#CMR17-30" transform="translate(45.690477 0) scale(0.996264)"/>
       <use xlink:href="#CMR17-30" transform="translate(91.380954 0) scale(0.996264)"/>
       <use xlink:href="#CMR17-30" transform="translate(137.071431 0) scale(0.996264)"/>
      </g>
     </g>
    </g>
    <g id="xtick_6">
     <g id="line2d_6">
      <g>
       <use xlink:href="#mb2719270c1" x="346.124812" y="228.96" style="stroke: #000000; stroke-width: 0.8"/>
      </g>
     </g>
     <g id="text_6">
      <!-- $\mathdefault{2500}$ -->
      <g transform="translate(336.162141 243.05832) scale(0.1 -0.1)">
       <use xlink:href="#CMR17-32" transform="scale(0.996264)"/>
       <use xlink:href="#CMR17-35" transform="translate(45.690477 0) scale(0.996264)"/>
       <use xlink:href="#CMR17-30" transform="translate(91.380954 0) scale(0.996264)"/>
       <use xlink:href="#CMR17-30" transform="translate(137.071431 0) scale(0.996264)"/>
      </g>
     </g>
    </g>
    <g id="text_7">
     <!-- Iteration -->
     <g transform="translate(189.603009 256.278627) scale(0.1 -0.1)">
      <defs>
       <path id="NimbusSanL-Regu-49" d="M 1242 4672 
L 640 4672 
L 640 0 
L 1242 0 
L 1242 4672 
z
" transform="scale(0.015625)"/>
       <path id="NimbusSanL-Regu-74" d="M 1626 3328 
L 1075 3328 
L 1075 4249 
L 544 4249 
L 544 3328 
L 90 3328 
L 90 2892 
L 544 2892 
L 544 402 
C 544 64 774 -128 1190 -128 
C 1318 -128 1446 -116 1626 -84 
L 1626 364 
C 1555 345 1472 339 1370 339 
C 1139 339 1075 402 1075 634 
L 1075 2892 
L 1626 2892 
L 1626 3328 
z
" transform="scale(0.015625)"/>
       <path id="NimbusSanL-Regu-65" d="M 3283 1484 
C 3283 1998 3245 2311 3149 2565 
C 2931 3123 2419 3456 1792 3456 
C 858 3456 256 2734 256 1619 
C 256 545 838 -128 1779 -128 
C 2547 -128 3078 307 3213 1018 
L 2675 1018 
C 2528 588 2227 364 1798 364 
C 1459 364 1171 514 992 787 
C 864 974 819 1161 813 1484 
L 3283 1484 
z
M 826 1920 
C 870 2552 1248 2963 1786 2963 
C 2310 2963 2714 2519 2714 1959 
C 2714 1946 2714 1933 2707 1920 
L 826 1920 
z
" transform="scale(0.015625)"/>
       <path id="NimbusSanL-Regu-72" d="M 442 3328 
L 442 0 
L 979 0 
L 979 1727 
C 979 2203 1101 2514 1357 2698 
C 1523 2819 1683 2857 2054 2863 
L 2054 3404 
C 1965 3449 1920 3456 1850 3456 
C 1504 3456 1242 3251 934 2750 
L 934 3328 
L 442 3328 
z
" transform="scale(0.015625)"/>
       <path id="NimbusSanL-Regu-61" d="M 3424 332 
C 3366 320 3341 320 3309 320 
C 3123 320 3021 415 3021 581 
L 3021 2542 
C 3021 3135 2586 3456 1760 3456 
C 1274 3456 870 3315 646 3065 
C 493 2893 429 2702 416 2370 
L 954 2370 
C 998 2778 1242 2963 1741 2963 
C 2221 2963 2490 2784 2490 2466 
L 2490 2326 
C 2490 2103 2355 2007 1933 1956 
C 1178 1861 1062 1835 858 1753 
C 467 1593 269 1294 269 861 
C 269 256 691 -128 1370 -128 
C 1792 -128 2131 19 2509 364 
C 2547 25 2714 -128 3059 -128 
C 3168 -128 3251 -116 3424 -71 
L 3424 332 
z
M 2490 1071 
C 2490 893 2438 785 2278 638 
C 2061 441 1798 339 1485 339 
C 1069 339 826 536 826 874 
C 826 1224 1062 1402 1632 1485 
C 2195 1562 2310 1587 2490 1670 
L 2490 1071 
z
" transform="scale(0.015625)"/>
       <path id="NimbusSanL-Regu-69" d="M 960 3358 
L 429 3358 
L 429 0 
L 960 0 
L 960 3358 
z
M 960 4672 
L 422 4672 
L 422 3999 
L 960 3999 
L 960 4672 
z
" transform="scale(0.015625)"/>
       <path id="NimbusSanL-Regu-6f" d="M 1741 3456 
C 800 3456 230 2784 230 1663 
C 230 543 794 -128 1747 -128 
C 2688 -128 3264 543 3264 1638 
C 3264 2791 2707 3456 1741 3456 
z
M 1747 2963 
C 2349 2963 2707 2472 2707 1644 
C 2707 861 2336 364 1747 364 
C 1152 364 787 855 787 1663 
C 787 2466 1152 2963 1747 2963 
z
" transform="scale(0.015625)"/>
       <path id="NimbusSanL-Regu-6e" d="M 448 3328 
L 448 0 
L 986 0 
L 986 1835 
C 986 2539 1344 2988 1894 2988 
C 2317 2988 2586 2732 2586 2328 
L 2586 0 
L 3117 0 
L 3117 2539 
C 3117 3097 2701 3456 2054 3456 
C 1555 3456 1235 3263 941 2796 
L 941 3328 
L 448 3328 
z
" transform="scale(0.015625)"/>
      </defs>
      <use xlink:href="#NimbusSanL-Regu-49" transform="scale(0.996264)"/>
      <use xlink:href="#NimbusSanL-Regu-74" transform="translate(27.69517 0) scale(0.996264)"/>
      <use xlink:href="#NimbusSanL-Regu-65" transform="translate(55.390339 0) scale(0.996264)"/>
      <use xlink:href="#NimbusSanL-Regu-72" transform="translate(110.782016 0) scale(0.996264)"/>
      <use xlink:href="#NimbusSanL-Regu-61" transform="translate(142.961149 0) scale(0.996264)"/>
      <use xlink:href="#NimbusSanL-Regu-74" transform="translate(198.352826 0) scale(0.996264)"/>
      <use xlink:href="#NimbusSanL-Regu-69" transform="translate(226.047996 0) scale(0.996264)"/>
      <use xlink:href="#NimbusSanL-Regu-6f" transform="translate(248.16478 0) scale(0.996264)"/>
      <use xlink:href="#NimbusSanL-Regu-6e" transform="translate(303.556457 0) scale(0.996264)"/>
     </g>
    </g>
   </g>
   <g id="matplotlib.axis_2">
    <g id="ytick_1">
     <g id="line2d_7">
      <defs>
       <path id="m802b377e17" d="M 0 0 
L -3.5 0 
" style="stroke: #000000; stroke-width: 0.8"/>
      </defs>
      <g>
       <use xlink:href="#m802b377e17" x="40.150386" y="197.328146" style="stroke: #000000; stroke-width: 0.8"/>
      </g>
     </g>
     <g id="text_8">
      <!-- $\mathdefault{−6}$ -->
      <g transform="translate(20.420307 200.877306) scale(0.1 -0.1)">
       <defs>
        <path id="CMSY10-0" d="M 4218 1472 
C 4326 1472 4442 1472 4442 1600 
C 4442 1728 4326 1728 4218 1728 
L 755 1728 
C 646 1728 531 1728 531 1600 
C 531 1472 646 1472 755 1472 
L 4218 1472 
z
" transform="scale(0.015625)"/>
        <path id="CMR17-36" d="M 678 2198 
C 678 3712 1395 4076 1811 4076 
C 1946 4076 2272 4049 2400 3782 
C 2298 3782 2106 3782 2106 3558 
C 2106 3385 2246 3328 2336 3328 
C 2394 3328 2566 3353 2566 3571 
C 2566 3987 2246 4224 1805 4224 
C 1043 4224 243 3411 243 2011 
C 243 257 966 -128 1478 -128 
C 2099 -128 2688 431 2688 1295 
C 2688 2101 2170 2688 1517 2688 
C 1126 2688 838 2430 678 1979 
L 678 2198 
z
M 1478 25 
C 691 25 691 1212 691 1450 
C 691 1914 909 2585 1504 2585 
C 1613 2585 1926 2585 2138 2140 
C 2253 1889 2253 1624 2253 1302 
C 2253 954 2253 696 2118 438 
C 1978 173 1773 25 1478 25 
z
" transform="scale(0.015625)"/>
       </defs>
       <use xlink:href="#CMSY10-0" transform="scale(0.996264)"/>
       <use xlink:href="#CMR17-36" transform="translate(77.487468 0) scale(0.996264)"/>
      </g>
     </g>
    </g>
    <g id="ytick_2">
     <g id="line2d_8">
      <g>
       <use xlink:href="#m802b377e17" x="40.150386" y="154.519604" style="stroke: #000000; stroke-width: 0.8"/>
      </g>
     </g>
     <g id="text_9">
      <!-- $\mathdefault{−4}$ -->
      <g transform="translate(20.420307 158.068764) scale(0.1 -0.1)">
       <defs>
        <path id="CMR17-34" d="M 2150 4147 
C 2150 4281 2144 4288 2029 4288 
L 128 1254 
L 128 1088 
L 1779 1088 
L 1779 460 
C 1779 230 1766 166 1318 166 
L 1197 166 
L 1197 0 
C 1402 12 1747 12 1965 12 
C 2182 12 2528 12 2733 0 
L 2733 166 
L 2611 166 
C 2163 166 2150 230 2150 460 
L 2150 1088 
L 2803 1088 
L 2803 1254 
L 2150 1254 
L 2150 4147 
z
M 1798 3723 
L 1798 1254 
L 256 1254 
L 1798 3723 
z
" transform="scale(0.015625)"/>
       </defs>
       <use xlink:href="#CMSY10-0" transform="scale(0.996264)"/>
       <use xlink:href="#CMR17-34" transform="translate(77.487468 0) scale(0.996264)"/>
      </g>
     </g>
    </g>
    <g id="ytick_3">
     <g id="line2d_9">
      <g>
       <use xlink:href="#m802b377e17" x="40.150386" y="111.711061" style="stroke: #000000; stroke-width: 0.8"/>
      </g>
     </g>
     <g id="text_10">
      <!-- $\mathdefault{−2}$ -->
      <g transform="translate(20.420307 115.260221) scale(0.1 -0.1)">
       <use xlink:href="#CMSY10-0" transform="scale(0.996264)"/>
       <use xlink:href="#CMR17-32" transform="translate(77.487468 0) scale(0.996264)"/>
      </g>
     </g>
    </g>
    <g id="ytick_4">
     <g id="line2d_10">
      <g>
       <use xlink:href="#m802b377e17" x="40.150386" y="68.902519" style="stroke: #000000; stroke-width: 0.8"/>
      </g>
     </g>
     <g id="text_11">
      <!-- $\mathdefault{0}$ -->
      <g transform="translate(28.16905 72.451679) scale(0.1 -0.1)">
       <use xlink:href="#CMR17-30" transform="scale(0.996264)"/>
      </g>
     </g>
    </g>
    <g id="ytick_5">
     <g id="line2d_11">
      <g>
       <use xlink:href="#m802b377e17" x="40.150386" y="26.093977" style="stroke: #000000; stroke-width: 0.8"/>
      </g>
     </g>
     <g id="text_12">
      <!-- $\mathdefault{2}$ -->
      <g transform="translate(28.16905 29.643137) scale(0.1 -0.1)">
       <use xlink:href="#CMR17-32" transform="scale(0.996264)"/>
      </g>
     </g>
    </g>
    <g id="text_13">
     <!-- RMS residual - Blade_0 -->
     <g transform="translate(14.29832 169.700806) rotate(-90) scale(0.1 -0.1)">
      <defs>
       <path id="NimbusSanL-Regu-52" d="M 1190 2035 
L 2726 2035 
C 3258 2035 3494 1775 3494 1191 
L 3488 770 
C 3488 478 3539 192 3622 0 
L 4346 0 
L 4346 147 
C 4122 303 4077 471 4064 1101 
C 4058 1879 3936 2111 3430 2329 
C 3955 2585 4166 2907 4166 3432 
C 4166 4230 3661 4672 2746 4672 
L 595 4672 
L 595 0 
L 1190 0 
L 1190 2035 
z
M 1190 2560 
L 1190 4147 
L 2630 4147 
C 2963 4147 3155 4096 3302 3970 
C 3462 3837 3546 3628 3546 3350 
C 3546 2806 3264 2560 2630 2560 
L 1190 2560 
z
" transform="scale(0.015625)"/>
       <path id="NimbusSanL-Regu-4d" d="M 2995 0 
L 4307 3915 
L 4307 0 
L 4870 0 
L 4870 4672 
L 4045 4672 
L 2688 602 
L 1306 4672 
L 480 4672 
L 480 0 
L 1043 0 
L 1043 3915 
L 2368 0 
L 2995 0 
z
" transform="scale(0.015625)"/>
       <path id="NimbusSanL-Regu-53" d="M 3814 3295 
C 3808 4204 3181 4736 2106 4736 
C 1082 4736 448 4211 448 3372 
C 448 2806 749 2450 1363 2291 
L 2522 1986 
C 3110 1833 3379 1598 3379 1236 
C 3379 988 3245 733 3046 593 
C 2861 466 2566 396 2189 396 
C 1683 396 1338 517 1114 784 
C 941 988 864 1210 870 1496 
L 307 1496 
C 314 1070 397 790 582 536 
C 902 102 1440 -128 2150 -128 
C 2707 -128 3162 0 3462 230 
C 3776 479 3974 892 3974 1293 
C 3974 1865 3616 2284 2982 2456 
L 1811 2768 
C 1248 2920 1043 3098 1043 3454 
C 1043 3925 1459 4236 2086 4236 
C 2829 4236 3245 3899 3251 3295 
L 3814 3295 
z
" transform="scale(0.015625)"/>
       <path id="NimbusSanL-Regu-73" d="M 2803 2428 
C 2797 3084 2362 3456 1587 3456 
C 806 3456 301 3052 301 2434 
C 301 1912 570 1663 1363 1472 
L 1862 1351 
C 2234 1262 2381 1129 2381 887 
C 2381 574 2067 364 1600 364 
C 1312 364 1069 447 934 587 
C 851 683 813 778 781 1014 
L 218 1014 
C 243 243 678 -128 1555 -128 
C 2400 -128 2938 288 2938 931 
C 2938 1428 2656 1702 1990 1861 
L 1478 1982 
C 1043 2084 858 2224 858 2459 
C 858 2765 1133 2963 1568 2963 
C 1997 2963 2227 2778 2240 2428 
L 2803 2428 
z
" transform="scale(0.015625)"/>
       <path id="NimbusSanL-Regu-64" d="M 3168 4672 
L 2637 4672 
L 2637 2937 
C 2413 3276 2054 3456 1606 3456 
C 736 3456 166 2759 166 1695 
C 166 568 723 -128 1626 -128 
C 2086 -128 2406 44 2694 460 
L 2694 19 
L 3168 19 
L 3168 4672 
z
M 1696 2956 
C 2272 2956 2637 2447 2637 1651 
C 2637 880 2266 371 1702 371 
C 1114 371 723 887 723 1663 
C 723 2440 1114 2956 1696 2956 
z
" transform="scale(0.015625)"/>
       <path id="NimbusSanL-Regu-75" d="M 3085 19 
L 3085 3328 
L 2554 3328 
L 2554 1454 
C 2554 780 2195 339 1638 339 
C 1216 339 947 591 947 988 
L 947 3328 
L 416 3328 
L 416 780 
C 416 230 832 -128 1485 -128 
C 1978 -128 2291 44 2605 484 
L 2605 19 
L 3085 19 
z
" transform="scale(0.015625)"/>
       <path id="NimbusSanL-Regu-6c" d="M 973 4672 
L 435 4672 
L 435 0 
L 973 0 
L 973 4672 
z
" transform="scale(0.015625)"/>
       <path id="NimbusSanL-Regu-2d" d="M 1818 1996 
L 294 1996 
L 294 1536 
L 1818 1536 
L 1818 1996 
z
" transform="scale(0.015625)"/>
       <path id="NimbusSanL-Regu-42" d="M 506 0 
L 2611 0 
C 3053 0 3379 121 3629 390 
C 3859 632 3987 961 3987 1321 
C 3987 1878 3731 2214 3136 2444 
C 3558 2643 3782 2994 3782 3476 
C 3782 3821 3654 4127 3411 4345 
C 3168 4569 2848 4672 2400 4672 
L 506 4672 
L 506 0 
z
M 1101 2636 
L 1101 4147 
L 2253 4147 
C 2586 4147 2771 4101 2931 3977 
C 3098 3847 3187 3652 3187 3391 
C 3187 3138 3098 2936 2931 2806 
C 2771 2682 2586 2636 2253 2636 
L 1101 2636 
z
M 1101 524 
L 1101 2112 
L 2554 2112 
C 2842 2112 3034 2042 3174 1890 
C 3315 1745 3392 1542 3392 1315 
C 3392 1093 3315 891 3174 746 
C 3034 594 2842 524 2554 524 
L 1101 524 
z
" transform="scale(0.015625)"/>
       <path id="NimbusSanL-Regu-30" d="M 1760 4544 
C 1338 4544 954 4358 717 4044 
C 422 3649 275 3043 275 2207 
C 275 683 787 -128 1760 -128 
C 2720 -128 3245 683 3245 2169 
C 3245 3049 3104 3636 2803 4044 
C 2566 4364 2189 4544 1760 4544 
z
M 1760 4044 
C 2368 4044 2669 3432 2669 2220 
C 2669 938 2374 339 1747 339 
C 1152 339 851 964 851 2201 
C 851 3438 1152 4044 1760 4044 
z
" transform="scale(0.015625)"/>
      </defs>
      <use xlink:href="#NimbusSanL-Regu-52" transform="scale(0.996264)"/>
      <use xlink:href="#NimbusSanL-Regu-4d" transform="translate(71.929985 0) scale(0.996264)"/>
      <use xlink:href="#NimbusSanL-Regu-53" transform="translate(154.918415 0) scale(0.996264)"/>
      <use xlink:href="#NimbusSanL-Regu-72" transform="translate(249.063616 0) scale(0.996264)"/>
      <use xlink:href="#NimbusSanL-Regu-65" transform="translate(282.238846 0) scale(0.996264)"/>
      <use xlink:href="#NimbusSanL-Regu-73" transform="translate(337.630523 0) scale(0.996264)"/>
      <use xlink:href="#NimbusSanL-Regu-69" transform="translate(387.443723 0) scale(0.996264)"/>
      <use xlink:href="#NimbusSanL-Regu-64" transform="translate(409.560507 0) scale(0.996264)"/>
      <use xlink:href="#NimbusSanL-Regu-75" transform="translate(464.952184 0) scale(0.996264)"/>
      <use xlink:href="#NimbusSanL-Regu-61" transform="translate(520.343861 0) scale(0.996264)"/>
      <use xlink:href="#NimbusSanL-Regu-6c" transform="translate(575.735538 0) scale(0.996264)"/>
      <use xlink:href="#NimbusSanL-Regu-2d" transform="translate(625.547492 0) scale(0.996264)"/>
      <use xlink:href="#NimbusSanL-Regu-42" transform="translate(686.417892 0) scale(0.996264)"/>
      <use xlink:href="#NimbusSanL-Regu-6c" transform="translate(752.867923 0) scale(0.996264)"/>
      <use xlink:href="#NimbusSanL-Regu-61" transform="translate(774.984707 0) scale(0.996264)"/>
      <use xlink:href="#NimbusSanL-Regu-64" transform="translate(830.376384 0) scale(0.996264)"/>
      <use xlink:href="#NimbusSanL-Regu-65" transform="translate(885.768061 0) scale(0.996264)"/>
      <use xlink:href="#NimbusSanL-Regu-30" transform="translate(977.025303 0) scale(0.996264)"/>
      <path d="M 947.137079 0 
L 977.025303 0 
L 977.025303 0.3985 
L 947.137079 0.3985 
L 947.137079 0 
z
"/>
     </g>
    </g>
   </g>
   <g id="line2d_12">
    <path d="M 55.368567 135.503563 
L 55.717475 144.468226 
L 55.95008 147.782019 
L 56.182685 149.191852 
L 56.298987 149.280327 
L 56.531592 148.767182 
L 56.764197 148.586986 
L 56.996802 147.74895 
L 57.229407 146.722492 
L 57.34571 146.588367 
L 58.27613 149.180666 
L 58.392432 149.082432 
L 58.625037 147.774536 
L 59.20655 142.017537 
L 59.322852 142.05534 
L 59.555457 142.555003 
L 60.020667 145.007019 
L 60.485877 147.379787 
L 60.60218 147.289788 
L 60.834785 147.687021 
L 61.416297 149.105728 
L 61.648902 149.191453 
L 61.881507 148.954423 
L 62.230415 147.983846 
L 62.346717 148.154946 
L 62.92823 149.160891 
L 63.277137 148.942514 
L 63.509742 148.692641 
L 63.742347 147.945463 
L 63.85865 147.387889 
L 64.207557 148.001746 
L 64.440162 148.356523 
L 64.672767 148.366921 
L 65.137977 148.011264 
L 65.486885 147.47692 
L 65.71949 147.754371 
L 66.068397 148.310943 
L 66.417305 148.347725 
L 66.64991 148.190509 
L 66.882515 147.251193 
L 66.998817 146.444947 
L 67.231422 146.86401 
L 67.696632 147.919965 
L 67.929237 148.004693 
L 68.04554 147.927477 
L 68.278145 147.31254 
L 68.627052 145.49999 
L 68.859657 146.370372 
L 69.208565 147.885409 
L 69.557472 148.554466 
L 69.673775 148.536917 
L 70.138985 147.270008 
L 70.604195 148.197597 
L 70.8368 148.444479 
L 71.418312 147.994199 
L 71.650917 148.617401 
L 72.116127 150.352415 
L 72.465035 150.669945 
L 72.69764 150.611173 
L 72.930245 149.861257 
L 73.046547 149.20015 
L 73.279152 149.686281 
L 73.860665 151.731049 
L 74.09327 151.829987 
L 74.325875 151.197552 
L 74.907387 148.027328 
L 75.02369 148.20807 
L 75.4889 149.932197 
L 75.605202 149.803655 
L 76.186715 147.87182 
L 76.535622 145.921742 
L 76.651925 145.961664 
L 76.768227 146.164508 
L 77.000832 147.544932 
L 77.233437 149.272424 
L 77.582345 148.127914 
L 77.931252 149.198493 
L 78.047554 149.067033 
L 78.280159 149.743938 
L 78.629067 151.152359 
L 79.094277 151.624129 
L 79.559487 152.800742 
L 79.792092 153.03578 
L 80.373604 154.234707 
L 80.606209 154.261146 
L 80.955117 154.625095 
L 81.071419 154.496871 
L 81.304024 154.141174 
L 81.420327 154.167525 
L 81.652932 154.76438 
L 82.001839 155.826147 
L 82.467049 155.732081 
L 82.932259 154.569577 
L 83.048562 154.667721 
L 83.281167 155.33427 
L 83.630074 156.775326 
L 83.862679 156.858471 
L 84.095284 156.766527 
L 84.327889 156.263792 
L 84.444192 155.896546 
L 84.676797 156.094811 
L 84.909402 156.833892 
L 85.258309 157.955206 
L 85.490914 158.079968 
L 85.723519 157.871016 
L 86.072427 157.02771 
L 86.305032 157.270661 
L 86.537637 157.920874 
L 86.886544 159.194325 
L 87.119149 159.450165 
L 87.235452 159.392489 
L 87.468057 158.533935 
L 87.584359 157.916593 
L 87.816964 158.049497 
L 88.049569 158.514034 
L 88.514779 159.647643 
L 88.747384 159.695104 
L 88.979989 159.184208 
L 89.212594 158.365094 
L 89.445199 158.747546 
L 90.143014 160.236663 
L 90.375619 160.187271 
L 90.840829 159.406089 
L 90.957132 159.556863 
L 91.306039 160.285871 
L 91.654947 160.920614 
L 91.887552 161.069265 
L 92.003854 160.966033 
L 92.585367 159.42627 
L 92.817972 159.571981 
L 93.050577 160.051249 
L 93.399484 160.984695 
L 93.632089 161.108611 
L 94.097299 161.056617 
L 94.329904 160.904021 
L 94.562509 161.031158 
L 95.144022 161.809298 
L 95.725534 161.411924 
L 95.841837 161.322332 
L 96.074442 161.628215 
L 96.772257 163.032552 
L 97.004862 163.030732 
L 97.353769 162.36081 
L 97.470072 162.493693 
L 98.051584 163.23259 
L 98.516794 163.31806 
L 98.865702 162.842859 
L 98.982004 162.684959 
L 99.330912 163.21335 
L 99.912424 164.157535 
L 100.145029 164.149653 
L 100.610239 163.674742 
L 101.308054 164.226184 
L 101.424357 163.98356 
L 101.656962 164.424804 
L 102.238474 165.766006 
L 102.471079 165.673917 
L 102.703684 165.181985 
L 102.936289 164.464195 
L 103.285196 165.169876 
L 103.634104 165.955279 
L 103.983011 166.134083 
L 104.099314 166.071878 
L 104.331919 165.583619 
L 104.564524 164.915351 
L 105.494944 166.665733 
L 105.727549 166.677356 
L 105.960154 166.345025 
L 106.192759 165.957037 
L 106.425364 166.061484 
L 107.123179 166.929812 
L 107.588389 167.328094 
L 108.053599 168.160732 
L 108.635111 169.15119 
L 109.449229 170.081786 
L 109.798136 170.530767 
L 110.147044 170.459706 
L 110.379649 170.281539 
L 110.612254 169.847332 
L 110.728556 169.488696 
L 111.077464 169.810465 
L 111.542674 170.303552 
L 111.775279 170.295172 
L 112.007884 169.940476 
L 112.473094 168.886177 
L 112.705699 168.900994 
L 113.170909 168.976483 
L 113.636119 169.066231 
L 113.752421 169.138143 
L 113.868724 169.033487 
L 114.566539 170.851363 
L 114.915446 171.089514 
L 115.148051 170.668621 
L 115.380656 169.865689 
L 115.729564 170.654329 
L 116.194774 171.650527 
L 116.543681 171.960954 
L 116.659984 171.804195 
L 117.008891 170.422335 
L 117.125194 170.629236 
L 117.474101 171.717599 
L 117.823009 172.790944 
L 118.055614 172.969586 
L 118.171916 172.802215 
L 118.753429 171.126715 
L 118.869731 171.074316 
L 119.800151 173.227703 
L 119.916454 173.239677 
L 120.149059 172.857515 
L 120.381664 172.153257 
L 120.730571 172.6512 
L 121.195781 173.443359 
L 121.428386 173.565796 
L 121.660991 173.430191 
L 121.893596 172.990369 
L 122.009899 172.651284 
L 122.358806 173.065684 
L 122.940319 173.911509 
L 123.172924 173.924881 
L 123.405529 173.551683 
L 123.521831 173.188602 
L 123.870739 173.505934 
L 124.452251 174.20821 
L 124.684856 174.223865 
L 124.917461 173.838893 
L 125.150066 173.09822 
L 125.498974 173.602059 
L 125.964184 174.370387 
L 126.196789 174.505361 
L 126.313091 174.442755 
L 126.545696 173.928956 
L 126.894604 173.119906 
L 127.243511 173.875511 
L 127.708721 174.779245 
L 127.941326 174.903932 
L 128.173931 174.586494 
L 128.406536 173.934788 
L 128.755443 174.457096 
L 129.220653 175.233408 
L 129.453258 175.373626 
L 129.569561 175.326373 
L 129.802166 174.889807 
L 130.034771 174.110865 
L 130.383678 174.648758 
L 130.848888 175.519992 
L 131.081493 175.631571 
L 131.314098 175.341681 
L 131.895611 173.706133 
L 132.011913 173.619723 
L 132.360821 174.524651 
L 132.709728 175.433074 
L 133.058636 175.690941 
L 133.174938 175.544309 
L 133.407543 174.613589 
L 133.523846 173.990291 
L 133.756451 174.299282 
L 134.454266 175.605667 
L 134.686871 175.654348 
L 134.919476 175.093454 
L 135.152081 174.202574 
L 135.500988 174.933942 
L 135.849896 175.755718 
L 136.198803 176.130284 
L 136.315106 176.112285 
L 136.547711 175.552182 
L 136.780316 174.930412 
L 136.896618 174.751021 
L 137.245526 175.738371 
L 137.594433 176.648285 
L 137.943341 177.000635 
L 138.059643 176.924745 
L 138.292248 176.401441 
L 138.408551 176.04065 
L 138.757458 176.631679 
L 139.106366 177.157251 
L 139.455273 177.229868 
L 139.687878 177.006016 
L 140.036786 176.158096 
L 140.153088 176.304357 
L 140.967206 177.479658 
L 141.199811 177.442382 
L 141.432416 176.969654 
L 141.548718 176.58855 
L 141.897626 177.065553 
L 142.362836 177.779615 
L 142.595441 177.888575 
L 142.828046 177.677833 
L 143.176953 176.645172 
L 143.293256 176.803218 
L 144.107373 178.116138 
L 144.339978 178.075957 
L 144.572583 177.537634 
L 144.921491 176.699331 
L 145.735608 178.368004 
L 145.968213 178.492851 
L 146.084516 178.398844 
L 146.433423 177.403225 
L 146.549726 177.578303 
L 147.131238 178.576398 
L 147.596448 178.775118 
L 147.829053 178.347813 
L 148.061658 177.723911 
L 149.108381 179.196378 
L 149.224683 179.178944 
L 149.457288 178.77192 
L 149.573591 178.468957 
L 150.038801 178.712635 
L 150.736616 178.94619 
L 152.248548 179.646308 
L 152.597455 179.248028 
L 152.946363 178.823949 
L 153.178968 179.014373 
L 153.644178 179.491418 
L 153.76048 179.439273 
L 154.6909 180.607043 
L 154.923505 180.539396 
L 155.272413 179.815489 
L 155.388715 179.919521 
L 156.202833 180.77708 
L 156.435438 180.821611 
L 156.668043 180.49149 
L 156.900648 179.902599 
L 157.249555 180.433369 
L 157.598463 180.926549 
L 157.94737 181.13493 
L 158.063673 181.100797 
L 158.296278 180.675425 
L 158.528883 180.241752 
L 158.645185 180.248943 
L 159.691908 181.171318 
L 160.27342 181.422279 
L 160.389723 181.348934 
L 161.320143 182.362537 
L 161.552748 182.250417 
L 161.901655 181.476798 
L 162.017958 181.548425 
L 162.366865 181.960413 
L 162.832075 182.44631 
L 163.06468 182.421325 
L 163.413588 181.851638 
L 163.52989 181.642207 
L 163.878798 182.013046 
L 164.46031 182.77292 
L 164.692915 182.802563 
L 165.158125 182.417619 
L 165.623335 182.889871 
L 166.088545 183.282353 
L 166.32115 183.26659 
L 166.78636 182.898956 
L 167.600478 183.598816 
L 167.833083 183.588647 
L 168.065688 183.315105 
L 168.414595 182.869433 
L 168.763503 183.0315 
L 169.345015 183.802266 
L 169.693923 183.928524 
L 169.926528 183.654392 
L 170.159133 183.169973 
L 170.50804 183.538516 
L 170.97325 184.093155 
L 172.717788 184.141877 
L 174.578628 184.35262 
L 175.043838 184.338662 
L 175.392745 184.152331 
L 175.509048 184.020361 
L 176.55577 184.909233 
L 176.788375 184.744107 
L 177.137283 184.342517 
L 178.184005 184.675765 
L 179.114425 184.866107 
L 181.091567 185.556039 
L 181.556777 185.154449 
L 181.67308 184.955123 
L 182.6035 185.961756 
L 182.836105 185.951075 
L 183.06871 185.658465 
L 183.301315 185.1276 
L 183.650222 185.636286 
L 184.115432 186.269239 
L 184.348037 186.347112 
L 184.580642 186.003435 
L 185.045852 184.997698 
L 185.278457 185.218883 
L 185.743667 185.631963 
L 187.72081 186.495084 
L 188.069717 186.446049 
L 188.18602 186.195702 
L 188.883835 187.704288 
L 189.11644 187.873027 
L 189.232742 187.785405 
L 189.465347 186.991822 
L 189.697952 185.80335 
L 190.04686 186.527982 
L 190.51207 187.618979 
L 190.744675 187.832656 
L 190.860977 187.652686 
L 191.326187 185.569508 
L 191.44249 185.80709 
L 192.37291 188.261567 
L 192.489212 188.094751 
L 192.954422 186.306454 
L 193.070725 186.357988 
L 193.76854 188.628977 
L 194.117447 189.17464 
L 194.23375 188.958406 
L 194.582657 187.480182 
L 195.280472 189.360504 
L 195.745682 189.612925 
L 195.978287 188.898408 
L 196.210892 187.835598 
L 196.908707 189.466511 
L 197.257615 189.679179 
L 197.49022 188.978031 
L 198.071732 186.675133 
L 198.304337 187.310949 
L 198.88585 189.364928 
L 199.002152 189.518075 
L 199.118455 189.404146 
L 199.35106 188.116934 
L 199.583665 186.676938 
L 199.81627 187.161582 
L 200.630387 189.81929 
L 200.74669 189.702774 
L 201.2119 187.355185 
L 201.560807 188.847234 
L 201.909715 190.1106 
L 202.258622 190.726803 
L 202.374924 190.613124 
L 202.723832 188.739724 
L 203.421647 190.943819 
L 203.770554 191.03242 
L 203.886857 190.880966 
L 204.119462 189.855173 
L 204.352067 188.391024 
L 205.166184 190.593138 
L 205.282487 190.706188 
L 205.398789 190.610999 
L 205.631394 189.51418 
L 205.980302 187.120407 
L 206.212907 187.737423 
L 206.910722 190.272082 
L 207.027024 190.184261 
L 207.259629 188.701785 
L 207.608537 186.485147 
L 207.841142 187.36772 
L 208.422654 190.147686 
L 208.655259 190.526444 
L 208.887864 188.840804 
L 209.120469 187.52594 
L 209.469377 189.306697 
L 209.818284 190.747896 
L 210.283494 191.459464 
L 210.748704 189.238991 
L 210.865007 189.38977 
L 210.981309 189.113323 
L 211.446519 191.178893 
L 211.911729 192.091101 
L 212.028032 192.041368 
L 212.260637 190.919776 
L 212.493242 189.07926 
L 212.842149 189.810187 
L 213.423662 191.29731 
L 213.539964 191.258346 
L 213.772569 190.141687 
L 214.121477 187.665158 
L 214.354082 188.062101 
L 214.702989 189.586309 
L 215.051897 190.929697 
L 215.168199 190.954431 
L 215.400804 189.565608 
L 215.749712 187.42715 
L 215.982317 188.243991 
L 216.680132 191.565297 
L 216.796434 191.761913 
L 216.912737 191.30621 
L 217.261644 188.964709 
L 217.610552 190.669716 
L 217.959459 192.093898 
L 218.424669 192.889135 
L 218.889879 190.78562 
L 219.122484 190.865243 
L 219.471392 190.742956 
L 219.703997 190.649697 
L 220.052904 190.05614 
L 220.401812 189.354329 
L 220.634417 189.821624 
L 221.332232 191.863366 
L 221.448534 191.792114 
L 221.681139 190.748784 
L 222.030047 189.252462 
L 222.262652 189.660645 
L 223.658282 193.095268 
L 223.774584 192.964273 
L 224.123492 191.324767 
L 224.239794 190.75466 
L 225.170214 192.949839 
L 225.286517 192.985988 
L 225.402819 192.857265 
L 225.751727 191.471617 
L 225.868029 191.642933 
L 226.798449 193.250525 
L 226.914751 193.156973 
L 227.147356 192.489653 
L 227.379961 191.474802 
L 227.612566 191.695794 
L 227.845171 192.235292 
L 228.310381 193.691798 
L 228.426684 193.757123 
L 228.542986 193.603298 
L 229.124499 191.571168 
L 229.357104 191.972932 
L 230.171221 194.131959 
L 230.287524 193.875971 
L 230.636431 192.088595 
L 230.869036 192.528183 
L 231.566851 194.338819 
L 231.799456 194.385334 
L 232.032061 193.444128 
L 232.264666 192.301117 
L 232.613574 193.336479 
L 232.962481 194.271432 
L 233.311389 194.631976 
L 233.427691 194.568922 
L 233.660296 193.684359 
L 234.009204 192.482315 
L 234.358111 193.12945 
L 235.055926 194.797678 
L 235.172229 194.752513 
L 235.404834 194.198805 
L 235.637439 193.726852 
L 235.870044 193.750157 
L 236.102649 194.264234 
L 236.451556 195.31897 
L 236.684161 195.430149 
L 236.916766 194.939596 
L 237.149371 194.049337 
L 237.381976 194.102128 
L 237.614581 194.602819 
L 238.079791 196.170204 
L 238.312396 196.299986 
L 238.545001 195.73472 
L 238.661304 195.292615 
L 238.893909 195.444773 
L 239.126514 195.896907 
L 239.591724 197.035067 
L 239.824329 197.192498 
L 239.940631 197.066308 
L 240.289539 195.815043 
L 240.405841 196.00281 
L 241.219959 197.634084 
L 241.336261 197.684265 
L 241.452564 197.59126 
L 241.685169 196.697473 
L 241.917774 195.695446 
L 242.150379 195.154292 
L 242.266681 195.272081 
L 242.615589 195.829187 
L 243.080799 196.919905 
L 243.197101 196.99212 
L 243.313404 196.878648 
L 243.546009 196.062821 
L 243.778614 195.410235 
L 244.011219 195.395956 
L 244.243824 195.780407 
L 244.709034 196.831506 
L 244.825336 196.811581 
L 245.057941 196.180364 
L 245.290546 195.114803 
L 245.523151 195.184844 
L 245.755756 195.614826 
L 246.337269 197.298091 
L 246.453571 197.359372 
L 246.569874 197.246122 
L 247.035084 196.224251 
L 247.383991 196.929679 
L 248.198109 199.083303 
L 248.430714 199.312737 
L 248.663319 198.853261 
L 248.779621 198.482053 
L 249.128529 199.09535 
L 249.593739 199.907278 
L 249.942646 200.217388 
L 250.058949 200.097483 
L 250.640461 198.248078 
L 250.756764 198.444979 
L 251.454579 199.682429 
L 251.687183 199.775833 
L 251.919788 199.193607 
L 252.501301 196.897372 
L 252.850208 197.639717 
L 253.431721 199.02065 
L 253.548023 199.089936 
L 253.664326 198.969372 
L 253.896931 198.193864 
L 254.013233 197.631147 
L 254.362141 197.987852 
L 255.176258 199.54911 
L 255.408863 198.927106 
L 255.641468 197.980058 
L 255.990376 198.581959 
L 256.804493 200.811924 
L 256.920796 200.664807 
L 257.153401 199.654551 
L 257.269703 199.761562 
L 257.618611 200.259568 
L 258.200123 201.471386 
L 258.432728 201.626311 
L 258.665333 200.885203 
L 258.781636 200.281568 
L 259.246846 201.255178 
L 259.595753 201.787322 
L 259.944661 201.93843 
L 260.060963 201.73138 
L 260.526173 199.654606 
L 261.340291 201.474758 
L 261.572896 201.591912 
L 261.689198 201.406914 
L 261.921803 200.414013 
L 262.038106 199.723103 
L 262.387013 200.307461 
L 262.968526 201.387673 
L 263.084828 201.419506 
L 263.201131 201.257288 
L 263.433736 200.310821 
L 263.666341 199.040715 
L 264.015248 199.797928 
L 264.596761 201.512902 
L 264.713063 201.593696 
L 264.829366 201.41315 
L 265.410878 199.003048 
L 265.759786 200.187664 
L 266.224996 201.878731 
L 266.457601 202.181315 
L 266.573903 201.902526 
L 266.922811 200.077699 
L 267.271718 201.101653 
L 267.736928 202.468244 
L 267.969533 202.843386 
L 268.085836 202.784919 
L 268.318441 201.698795 
L 268.551046 200.53106 
L 269.365163 202.984635 
L 269.597768 203.29828 
L 269.714071 203.218548 
L 270.062978 201.434287 
L 270.179281 201.727529 
L 270.760793 203.17362 
L 271.226003 203.329759 
L 271.458608 202.611343 
L 271.691213 201.364511 
L 272.505331 203.071484 
L 272.737936 203.128482 
L 272.970541 202.570857 
L 273.435751 200.408949 
L 273.784658 201.426549 
L 274.249868 202.766627 
L 274.366171 202.904155 
L 274.482473 202.863047 
L 274.715078 202.054334 
L 274.947683 200.720707 
L 275.180288 201.102091 
L 275.994406 203.118354 
L 276.110708 202.914239 
L 276.575918 200.466059 
L 276.69222 200.707986 
L 277.041128 201.964391 
L 277.390035 203.189744 
L 277.62264 203.528838 
L 277.738943 203.367327 
L 278.204153 200.943846 
L 278.55306 202.293742 
L 278.901968 203.579351 
L 279.250875 204.182067 
L 279.367178 204.022735 
L 279.716085 202.172693 
L 280.646505 204.608034 
L 280.87911 204.787612 
L 280.995413 204.522276 
L 281.34432 202.85922 
L 282.158438 204.968132 
L 282.391043 205.238082 
L 282.507345 205.162983 
L 282.73995 204.288495 
L 282.972555 203.272476 
L 283.20516 202.806944 
L 283.554068 203.878871 
L 284.019278 205.245379 
L 284.251883 205.410885 
L 284.484488 204.560366 
L 284.717093 203.138827 
L 284.949698 203.449876 
L 285.298605 204.59888 
L 285.647513 205.534306 
L 285.763815 205.618123 
L 285.880118 205.447851 
L 286.345328 202.995164 
L 286.46163 203.186556 
L 286.694235 203.852994 
L 287.275748 205.846282 
L 287.39205 205.964115 
L 287.508353 205.800782 
L 287.973563 203.762965 
L 288.206168 204.112333 
L 289.136588 206.086684 
L 289.601798 206.964242 
L 289.834403 207.02244 
L 290.067008 206.324843 
L 290.299613 205.180806 
L 290.64852 205.772853 
L 291.230033 206.966954 
L 291.346335 206.981866 
L 291.57894 206.482421 
L 292.04415 204.573393 
L 292.276755 204.892321 
L 292.625663 206.040153 
L 292.97457 206.885583 
L 293.090873 206.882972 
L 293.323478 206.214514 
L 293.672385 205.067212 
L 293.90499 205.312628 
L 294.602805 207.209541 
L 294.719108 207.131813 
L 294.951713 206.210233 
L 295.184318 205.044207 
L 295.416923 205.249364 
L 295.649528 205.877826 
L 296.114738 207.492621 
L 296.347343 207.658716 
L 296.579948 206.729972 
L 296.812553 205.585114 
L 297.045158 205.936808 
L 297.394065 207.12521 
L 297.742973 208.23956 
L 297.975578 208.452037 
L 298.208183 207.528405 
L 298.324485 206.878409 
L 298.673393 207.300162 
L 299.48751 209.062192 
L 299.603813 208.828953 
L 299.95272 206.841147 
L 300.069023 206.96272 
L 300.301628 207.387197 
L 300.999443 209.289189 
L 301.115745 209.122094 
L 301.34835 207.920352 
L 301.580955 206.529779 
L 301.81356 206.057828 
L 302.162467 207.278539 
L 302.627677 209.039509 
L 302.860282 209.277879 
L 303.092887 208.046782 
L 303.325492 206.386278 
L 303.6744 207.390585 
L 304.255912 209.328773 
L 304.372215 209.514769 
L 304.488517 209.385246 
L 304.953727 206.573234 
L 305.07003 206.96881 
L 305.884147 209.951027 
L 306.00045 210.187278 
L 306.116752 210.027029 
L 306.46566 207.727009 
L 307.512382 210.874142 
L 307.628685 210.963836 
L 307.744987 210.638198 
L 308.093895 208.644436 
L 308.79171 211.061889 
L 309.25692 211.674734 
L 309.489525 210.562571 
L 309.605827 209.861481 
L 310.65255 212.017581 
L 310.768852 212.061403 
L 310.885155 211.875922 
L 311.234062 210.104389 
L 311.350365 210.307975 
L 312.280785 212.272889 
L 312.397087 212.255058 
L 312.629692 211.465815 
L 312.9786 209.973509 
L 313.211205 210.454603 
L 313.90902 212.299457 
L 314.025322 212.404626 
L 314.141625 212.339299 
L 314.37423 211.465663 
L 314.490532 210.833995 
L 314.723137 211.044619 
L 315.537255 212.491895 
L 315.653557 212.490263 
L 315.886162 211.979688 
L 316.118767 210.977034 
L 316.351372 211.303736 
L 317.049187 212.659532 
L 317.281792 212.748269 
L 317.514397 212.25624 
L 317.6307 211.799071 
L 317.979607 212.206922 
L 318.444817 212.896457 
L 318.793725 213.021461 
L 319.02633 212.709534 
L 319.258935 211.985521 
L 319.607842 212.500359 
L 320.073052 213.195493 
L 320.42196 213.292367 
L 320.654565 212.940098 
L 321.003472 212.090052 
L 321.35238 212.725221 
L 321.701287 213.353999 
L 322.050195 213.549572 
L 322.166497 213.519921 
L 322.399102 213.058251 
L 322.515405 212.669955 
L 322.864312 212.974089 
L 323.445825 213.597541 
L 323.67843 213.602172 
L 323.911035 213.262912 
L 324.14364 212.531417 
L 324.492547 212.885419 
L 324.957757 213.487585 
L 325.190362 213.574385 
L 325.306665 213.526468 
L 325.53927 213.041098 
L 325.655572 212.610853 
L 326.120782 212.944216 
L 326.585992 213.327637 
L 326.818597 213.310317 
L 327.051202 212.893162 
L 327.283807 211.977191 
L 327.400109 212.053809 
L 327.865319 212.60729 
L 328.214227 212.911895 
L 328.446832 212.859766 
L 328.679437 212.267839 
L 329.028344 210.900402 
L 329.377252 211.455591 
L 329.842462 212.27586 
L 330.075067 212.408559 
L 330.191369 212.312323 
L 330.423974 211.554214 
L 330.540277 210.964783 
L 330.889184 211.323746 
L 331.586999 212.308391 
L 331.703302 212.295188 
L 331.935907 211.742258 
L 332.168512 210.622939 
L 332.517419 211.087486 
L 333.215234 212.46815 
L 333.331537 212.458513 
L 333.564142 211.812621 
L 333.796747 210.649987 
L 334.145654 211.194285 
L 334.843469 212.954396 
L 334.959772 212.920745 
L 335.192377 212.150242 
L 335.424982 211.1972 
L 335.657587 211.009212 
L 336.006494 211.870691 
L 336.588007 213.693287 
L 336.704309 213.78944 
L 336.820612 213.69446 
L 337.053217 212.856704 
L 337.169519 212.272884 
L 337.402124 212.468003 
L 337.634729 212.918852 
L 338.216242 214.452847 
L 338.332544 214.438137 
L 338.565149 213.739598 
L 338.914057 212.372347 
L 339.146662 212.694986 
L 339.495569 213.790694 
L 339.844477 214.734565 
L 339.960779 214.799192 
L 340.077082 214.685177 
L 340.309687 213.848795 
L 340.425989 213.205069 
L 340.774897 213.491128 
L 341.123804 214.359176 
L 341.472712 215.03676 
L 341.589014 214.962371 
L 341.821619 214.20119 
L 342.054224 212.956718 
L 342.286829 213.137921 
L 342.519434 213.588938 
L 342.984644 214.899448 
L 343.100947 214.964418 
L 343.217249 214.834065 
L 343.449854 213.989423 
L 343.682459 213.001697 
L 343.915064 212.703802 
L 344.263972 213.340274 
L 344.845484 214.803962 
L 344.961787 214.787857 
L 345.194392 214.279175 
L 345.426997 213.3085 
L 345.775904 213.672519 
L 346.473719 215.048829 
L 346.590022 214.934312 
L 346.822627 214.153237 
L 347.055232 212.999048 
L 347.404139 213.360807 
L 347.753047 214.303565 
L 347.985652 214.834624 
L 348.101954 214.857619 
L 348.334559 214.288726 
L 348.567164 213.124469 
L 348.683467 213.200678 
L 349.032374 213.550523 
L 349.613887 214.75469 
L 349.730189 214.592363 
L 349.962794 213.573722 
L 350.195399 212.131519 
L 350.544307 212.528026 
L 350.893214 213.55183 
L 351.125819 214.274481 
L 351.242121 214.354425 
L 351.358424 214.099581 
L 351.707331 211.985333 
L 351.823634 211.223328 
L 352.172541 211.833226 
L 352.870356 214.088068 
L 352.986659 213.7577 
L 353.451869 210.73124 
L 353.800776 211.630941 
L 354.498591 214.313284 
L 354.614894 213.961569 
L 354.963801 211.581004 
L 355.196406 211.432151 
L 355.777919 213.708301 
L 356.126826 215.268426 
L 356.243129 215.43244 
L 356.359431 215.089912 
L 356.708339 213.353553 
L 357.289851 215.151409 
L 357.871364 217.109134 
L 357.987666 216.810984 
L 358.220271 215.670456 
L 358.336574 215.576134 
L 358.569179 216.090224 
L 359.034389 217.52069 
L 359.615901 218.517363 
L 359.732204 218.88 
L 359.732204 218.88 
" clip-path="url(#pefdd8c580c)" style="fill: none; stroke: #1f77b4; stroke-width: 1.5; stroke-linecap: square"/>
   </g>
   <g id="line2d_13">
    <path d="M 55.368567 103.447802 
L 55.48487 90.511788 
L 55.833777 97.660474 
L 56.182685 96.381811 
L 56.298987 96.616231 
L 56.647895 97.836221 
L 56.8805 96.940268 
L 57.34571 93.905252 
L 57.578315 94.452324 
L 58.159827 95.795903 
L 58.27613 95.814868 
L 58.625037 95.231654 
L 59.20655 93.030544 
L 59.788062 94.291221 
L 60.13697 95.824069 
L 60.253272 95.955843 
L 60.485877 95.738014 
L 60.60218 95.481752 
L 61.299995 96.52934 
L 61.5326 96.690396 
L 61.765205 96.565274 
L 61.99781 96.007123 
L 62.230415 94.746919 
L 62.92823 95.852412 
L 63.044532 95.84115 
L 63.277137 95.175622 
L 63.85865 92.473087 
L 64.672767 94.169967 
L 64.905372 93.936393 
L 65.25428 93.396105 
L 65.370582 92.986188 
L 66.417305 94.620489 
L 66.64991 94.45651 
L 66.882515 93.821688 
L 66.998817 93.297616 
L 67.58033 94.487794 
L 67.929237 95.234404 
L 68.161842 95.096959 
L 68.394447 94.616606 
L 68.627052 93.390514 
L 69.44117 94.517232 
L 69.557472 94.226832 
L 69.90638 91.945193 
L 70.255287 90.065093 
L 70.37159 90.238116 
L 70.604195 91.626663 
L 71.069405 95.624734 
L 71.30201 95.909699 
L 71.418312 95.965204 
L 72.348732 97.622398 
L 72.930245 96.962604 
L 73.046547 96.700982 
L 73.744362 97.713757 
L 73.976967 97.772858 
L 74.674782 97.069368 
L 75.4889 97.003437 
L 75.837807 97.499409 
L 76.070412 97.176795 
L 76.535622 96.141956 
L 76.768227 96.426395 
L 77.117135 95.539346 
L 77.233437 95.741812 
L 77.582345 97.601231 
L 77.81495 97.290806 
L 77.931252 97.351544 
L 78.163857 97.679139 
L 78.512764 97.718292 
L 78.745369 98.309637 
L 78.977974 98.89164 
L 79.443184 99.468964 
L 79.908394 100.031369 
L 80.140999 100.230297 
L 80.606209 100.969439 
L 81.071419 100.833572 
L 81.187722 100.888689 
L 81.536629 101.485778 
L 81.885537 101.781739 
L 82.234444 102.491667 
L 82.932259 101.823923 
L 83.281167 102.296922 
L 83.513772 102.439104 
L 83.862679 102.983446 
L 83.978982 102.862595 
L 84.444192 101.702783 
L 85.025704 102.446384 
L 85.490914 102.79143 
L 85.839822 102.101239 
L 86.072427 101.354101 
L 86.188729 101.519279 
L 86.653939 102.044094 
L 87.002847 102.080253 
L 87.351754 102.055692 
L 87.584359 102.451198 
L 88.863687 105.191729 
L 89.212594 105.084555 
L 89.910409 106.067933 
L 90.259317 106.077965 
L 90.608224 105.883008 
L 90.840829 105.576515 
L 91.422342 106.331353 
L 92.003854 107.594345 
L 92.469064 106.979656 
L 93.166879 108.366505 
L 93.748392 108.84423 
L 93.980997 108.762821 
L 94.213602 109.051773 
L 94.562509 109.590971 
L 94.795114 109.518985 
L 95.027719 109.52116 
L 95.492929 110.137617 
L 95.725534 109.785054 
L 95.841837 109.420007 
L 96.655954 110.117797 
L 96.888559 110.389602 
L 97.121164 110.173082 
L 97.353769 109.902439 
L 97.702677 110.335392 
L 98.516794 111.739063 
L 98.982004 112.049046 
L 99.563517 112.697702 
L 99.912424 112.892284 
L 100.261332 113.308801 
L 100.377634 113.153688 
L 100.610239 112.556131 
L 100.726542 112.500797 
L 100.959147 112.836218 
L 101.308054 113.516508 
L 101.424357 113.523011 
L 101.773264 113.899245 
L 102.005869 114.029778 
L 102.238474 114.435977 
L 102.471079 114.836976 
L 102.703684 114.464621 
L 102.936289 113.855431 
L 103.634104 114.515015 
L 103.983011 115.014843 
L 104.215616 114.966938 
L 104.448221 114.684084 
L 104.564524 114.433965 
L 105.029734 114.578002 
L 105.843851 115.325567 
L 106.076456 114.996896 
L 106.309061 114.69904 
L 106.541666 114.798441 
L 107.239481 115.698033 
L 107.704691 116.256281 
L 108.984019 116.920197 
L 109.332926 117.483084 
L 110.147044 118.937539 
L 110.379649 118.860254 
L 110.728556 118.546285 
L 111.891581 120.148071 
L 112.124186 119.726557 
L 112.356791 119.186341 
L 112.589396 119.07616 
L 113.636119 119.021395 
L 114.217631 119.060992 
L 114.566539 119.474201 
L 115.148051 120.21568 
L 115.613261 120.076839 
L 115.845866 120.198327 
L 116.194774 120.731722 
L 116.776286 121.636654 
L 116.892589 121.606845 
L 117.008891 121.46214 
L 117.823009 121.924595 
L 118.288219 122.431122 
L 118.404521 122.320698 
L 118.986034 120.967998 
L 119.451244 121.082963 
L 120.032756 121.408693 
L 120.265361 120.861242 
L 120.381664 120.419954 
L 121.428386 120.981983 
L 121.660991 120.862167 
L 122.009899 120.057237 
L 122.126201 120.167968 
L 123.289226 121.241859 
L 123.638134 121.117665 
L 124.452251 121.975869 
L 124.801159 122.320207 
L 125.033764 122.210041 
L 125.150066 122.042744 
L 125.615276 122.49242 
L 126.313091 123.320861 
L 126.545696 123.096807 
L 126.894604 122.345096 
L 127.243511 122.731584 
L 127.941326 123.962702 
L 128.173931 123.595818 
L 128.406536 122.708637 
L 128.522838 122.804851 
L 128.871746 123.293158 
L 129.336956 124.102605 
L 129.453258 124.075897 
L 129.685863 123.523009 
L 130.034771 122.237156 
L 130.383678 122.893018 
L 130.965191 124.065076 
L 131.081493 124.054951 
L 131.314098 123.563677 
L 131.663006 122.80255 
L 132.011913 123.256593 
L 132.942333 124.628545 
L 133.174938 124.576769 
L 133.523846 124.211619 
L 134.454266 125.235662 
L 134.686871 125.244654 
L 135.035778 124.86068 
L 135.152081 124.598791 
L 135.849896 125.39668 
L 136.198803 125.677089 
L 136.431408 125.544323 
L 136.780316 124.861325 
L 136.896618 124.583756 
L 137.361828 125.096141 
L 137.943341 126.066052 
L 138.175946 126.114707 
L 138.524853 125.792118 
L 138.990063 126.082133 
L 139.687878 126.818058 
L 139.920483 126.625496 
L 140.036786 126.460882 
L 140.734601 127.031288 
L 141.316113 127.592218 
L 141.665021 127.390885 
L 142.479138 127.866162 
L 142.828046 127.996635 
L 143.060651 127.817606 
L 143.176953 127.615619 
L 144.572583 128.309859 
L 145.037793 128.080845 
L 145.386701 128.18321 
L 146.317121 129.024423 
L 146.549726 128.84877 
L 146.898633 128.807556 
L 147.247541 129.131804 
L 147.596448 129.463387 
L 147.829053 129.400603 
L 148.177961 128.923558 
L 148.410566 128.976388 
L 148.759473 129.373701 
L 149.224683 129.877673 
L 149.457288 129.671885 
L 149.573591 129.441585 
L 149.922498 129.578899 
L 151.201826 129.676703 
L 152.597455 130.073989 
L 153.062665 129.714418 
L 153.411573 129.880813 
L 153.76048 129.968389 
L 155.388715 130.369699 
L 156.08653 130.473339 
L 156.668043 130.763243 
L 157.133253 130.547978 
L 157.365858 130.670879 
L 158.179975 131.4634 
L 158.761488 131.151218 
L 159.459303 131.706767 
L 159.80821 131.729453 
L 160.27342 131.549502 
L 160.389723 131.402773 
L 161.436445 131.923376 
L 161.552748 131.878433 
L 161.785353 131.352693 
L 161.901655 130.920708 
L 162.483168 131.316228 
L 162.948378 131.794385 
L 163.06468 131.741092 
L 163.297285 131.244061 
L 163.52989 130.597979 
L 163.9951 131.227802 
L 164.46031 131.902694 
L 164.576613 131.905543 
L 165.041823 131.350434 
L 165.623335 132.169858 
L 166.088545 132.745026 
L 166.553755 132.751904 
L 168.065688 134.261437 
L 168.414595 134.362965 
L 168.879805 134.201082 
L 169.57762 134.411015 
L 169.810225 134.423252 
L 170.04283 134.118634 
L 170.159133 133.804592 
L 170.856948 134.073526 
L 171.43846 134.115391 
L 174.113418 134.076277 
L 174.69493 133.751161 
L 175.392745 133.136105 
L 175.509048 132.969202 
L 176.55577 133.740852 
L 176.788375 133.636573 
L 177.137283 133.284539 
L 178.41661 133.486662 
L 179.81224 133.643569 
L 180.393752 133.876155 
L 182.13829 134.960965 
L 182.836105 135.283385 
L 183.185012 135.338716 
L 183.301315 135.189419 
L 183.99913 135.666563 
L 184.348037 135.745418 
L 184.580642 135.609845 
L 184.92955 134.847392 
L 185.278457 134.336295 
L 186.092575 133.734025 
L 186.441482 133.641799 
L 186.79039 133.802046 
L 187.371902 134.442496 
L 188.302322 135.528396 
L 189.000137 135.974483 
L 189.465347 136.526991 
L 189.58165 136.490424 
L 189.697952 136.309024 
L 190.163162 136.558044 
L 190.628372 136.63269 
L 190.860977 136.512277 
L 191.093582 136.115144 
L 191.326187 135.440353 
L 191.791397 135.878818 
L 192.140305 136.051127 
L 192.37291 135.889867 
L 193.070725 134.750238 
L 193.652237 135.319318 
L 194.117447 135.573678 
L 194.931565 135.752954 
L 195.280472 135.953618 
L 196.210892 136.755927 
L 197.141312 137.43342 
L 197.373917 137.709993 
L 197.49022 137.697276 
L 197.95543 136.935989 
L 198.071732 136.642314 
L 198.653245 137.408224 
L 198.88585 137.516387 
L 199.118455 137.191376 
L 199.583665 135.863817 
L 200.165177 136.697694 
L 200.514085 136.891668 
L 200.74669 136.516496 
L 201.095597 135.998848 
L 201.2119 135.910722 
L 201.560807 136.268159 
L 202.607529 137.268198 
L 202.840134 137.485499 
L 203.305344 137.474782 
L 203.537949 137.707462 
L 204.235764 139.139554 
L 204.584672 139.010852 
L 205.049882 138.872884 
L 205.282487 139.024961 
L 205.515092 139.220333 
L 205.631394 139.108622 
L 205.863999 138.306099 
L 205.980302 137.715672 
L 206.329209 138.111278 
L 206.678117 138.162965 
L 206.910722 137.932965 
L 207.259629 136.861308 
L 207.608537 135.609119 
L 207.957444 136.17534 
L 208.306352 136.459478 
L 208.422654 136.426972 
L 208.655259 136.017401 
L 209.004167 135.462949 
L 209.120469 135.344699 
L 209.469377 135.616637 
L 210.283494 136.063103 
L 210.632402 136.307234 
L 211.213914 136.647343 
L 211.679124 136.882116 
L 211.911729 137.279347 
L 212.260637 138.027491 
L 212.376939 138.011847 
L 212.493242 137.827817 
L 212.958452 138.259362 
L 213.656267 138.527561 
L 213.888872 138.014091 
L 214.121477 137.115344 
L 214.586687 137.898644 
L 214.935594 137.964753 
L 215.168199 137.665993 
L 215.749712 135.86379 
L 216.214922 136.523975 
L 216.563829 136.811331 
L 216.796434 136.62987 
L 217.261644 136.032601 
L 218.308367 136.860636 
L 218.773577 136.808489 
L 219.471392 136.394622 
L 220.285509 135.213419 
L 220.401812 134.901159 
L 220.983324 135.675567 
L 221.215929 135.753144 
L 221.448534 135.612646 
L 221.797442 134.977797 
L 222.030047 134.564978 
L 222.262652 134.551207 
L 222.611559 134.799805 
L 223.425677 135.776103 
L 223.774584 135.935886 
L 224.007189 135.847649 
L 224.356097 135.623834 
L 224.937609 136.089357 
L 225.402819 136.51675 
L 225.635424 136.349447 
L 225.751727 136.139481 
L 227.031054 136.772874 
L 227.379961 136.049964 
L 227.496264 136.162447 
L 228.310381 136.891357 
L 228.542986 136.924567 
L 228.775591 136.627465 
L 229.008196 136.350007 
L 229.124499 136.295846 
L 229.938616 137.284356 
L 230.171221 137.407577 
L 230.520129 137.243541 
L 230.636431 137.156307 
L 231.799456 138.019952 
L 232.032061 137.94967 
L 232.380969 137.664005 
L 232.846179 137.989363 
L 233.427691 138.49272 
L 233.660296 138.203704 
L 234.009204 137.45795 
L 235.172229 138.568336 
L 235.404834 138.058343 
L 235.521136 137.715364 
L 236.567859 138.79582 
L 236.684161 138.809928 
L 236.916766 138.504641 
L 237.149371 138.17625 
L 238.079791 139.320182 
L 238.312396 139.455914 
L 238.777606 139.238488 
L 239.824329 140.037527 
L 240.056934 139.973504 
L 240.405841 139.757252 
L 240.871051 140.047635 
L 241.336261 140.444518 
L 241.568866 140.259636 
L 242.150379 139.138416 
L 243.080799 140.046867 
L 243.313404 139.844519 
L 243.662311 139.002488 
L 243.778614 139.129059 
L 244.476429 139.968957 
L 244.709034 139.954149 
L 244.941639 139.67236 
L 245.290546 139.126367 
L 246.104664 140.111952 
L 246.453571 140.186992 
L 246.918781 139.986245 
L 247.500294 140.47478 
L 248.547016 141.613021 
L 248.895924 141.506968 
L 249.477436 141.990451 
L 249.942646 142.467692 
L 250.175251 142.373384 
L 250.407856 142.151574 
L 250.756764 142.196866 
L 251.687183 142.882503 
L 251.919788 142.66703 
L 252.501301 141.928083 
L 253.199116 142.353449 
L 253.548023 142.425756 
L 253.780628 142.300143 
L 254.129536 142.024348 
L 254.827351 142.547765 
L 255.059956 142.546594 
L 255.408863 142.221681 
L 255.641468 141.905736 
L 256.571888 142.934435 
L 256.804493 142.863443 
L 257.153401 142.478126 
L 257.618611 143.164209 
L 257.967518 143.575164 
L 258.200123 143.633569 
L 258.897938 143.528306 
L 259.712056 144.560721 
L 260.060963 144.585669 
L 260.526173 144.3274 
L 261.689198 145.36774 
L 261.921803 145.061095 
L 262.038106 144.79322 
L 262.619618 145.320181 
L 262.968526 145.620809 
L 263.201131 145.540844 
L 263.550038 144.723788 
L 263.666341 144.388694 
L 264.131551 144.990453 
L 264.480458 145.388387 
L 264.713063 145.367141 
L 264.945668 144.962045 
L 265.410878 144.086026 
L 266.341298 145.226856 
L 266.573903 145.078304 
L 266.922811 144.71083 
L 267.853231 145.704847 
L 268.551046 145.654773 
L 269.597768 146.65151 
L 270.411886 147.068477 
L 271.109701 147.690896 
L 271.574911 147.931531 
L 271.807516 147.974692 
L 272.389028 148.325352 
L 272.970541 148.773514 
L 273.552053 148.358063 
L 274.366171 148.886036 
L 274.598776 148.803399 
L 274.947683 148.033883 
L 275.063986 148.139719 
L 275.761801 148.621232 
L 275.994406 148.637378 
L 276.227011 148.386842 
L 276.575918 147.622103 
L 277.390035 148.371024 
L 277.62264 148.414578 
L 277.855245 148.170855 
L 278.204153 147.557137 
L 279.250875 148.494552 
L 279.48348 148.424815 
L 279.832388 148.26392 
L 280.297598 148.481243 
L 280.995413 148.982754 
L 281.228018 148.850204 
L 281.34432 148.723607 
L 282.623648 149.465477 
L 283.20516 149.00286 
L 283.902975 149.690684 
L 284.251883 149.756397 
L 284.60079 149.522297 
L 284.717093 149.386972 
L 285.414908 150.149688 
L 285.763815 150.275347 
L 285.99642 150.134296 
L 286.345328 149.643751 
L 287.159445 150.584336 
L 287.39205 150.70796 
L 287.624655 150.526187 
L 287.973563 150.168974 
L 288.32247 150.371204 
L 289.369193 151.23224 
L 289.834403 151.743035 
L 290.067008 151.648675 
L 290.299613 151.380412 
L 291.11373 152.414997 
L 291.346335 152.654817 
L 291.462638 152.609401 
L 292.04415 151.632633 
L 292.741965 152.634049 
L 292.97457 152.761566 
L 293.090873 152.684638 
L 293.556083 151.558164 
L 293.672385 151.727362 
L 294.253898 152.522488 
L 294.486503 152.632946 
L 294.602805 152.593959 
L 294.83541 152.163638 
L 295.184318 151.246226 
L 295.882133 152.141206 
L 296.23104 152.208448 
L 296.463645 151.865754 
L 296.812553 151.070204 
L 297.510368 151.903378 
L 297.859275 152.054229 
L 298.09188 151.847315 
L 298.324485 151.464818 
L 299.138603 152.284098 
L 299.48751 152.409287 
L 299.720115 152.213629 
L 299.95272 151.909135 
L 300.650535 152.721205 
L 301.115745 152.86327 
L 301.81356 152.508249 
L 302.395072 153.07041 
L 302.860282 153.165282 
L 303.20919 153.011503 
L 303.325492 152.862143 
L 303.907005 153.336609 
L 304.255912 153.384097 
L 304.60482 153.255325 
L 304.837425 153.040518 
L 304.953727 152.850156 
L 305.53524 153.330339 
L 306.00045 153.476675 
L 306.349357 153.402744 
L 306.46566 153.302411 
L 307.279777 153.872226 
L 307.977592 154.094188 
L 308.093895 154.066797 
L 308.79171 154.55613 
L 309.25692 154.932742 
L 309.72213 155.290116 
L 310.885155 155.963026 
L 311.11776 156.129162 
L 311.350365 156.137261 
L 312.397087 156.519523 
L 312.629692 156.575808 
L 312.862297 156.271948 
L 312.9786 155.981407 
L 314.257927 156.382788 
L 314.606835 156.005931 
L 315.537255 156.328709 
L 315.76986 156.228858 
L 316.23507 155.790446 
L 317.16549 156.431435 
L 317.514397 156.283003 
L 317.6307 156.182183 
L 318.793725 156.949844 
L 319.258935 156.922907 
L 320.189355 157.649592 
L 321.236077 157.923013 
L 321.81759 158.22977 
L 322.399102 158.195367 
L 322.515405 158.125074 
L 323.21322 158.446583 
L 323.794732 158.405349 
L 324.027337 158.183852 
L 324.14364 157.991533 
L 324.841455 158.303277 
L 325.306665 158.333482 
L 325.53927 158.13343 
L 325.655572 157.938467 
L 326.585992 158.281381 
L 326.934899 158.249464 
L 327.167504 157.968582 
L 327.283807 157.728145 
L 328.446832 158.350476 
L 328.679437 158.093762 
L 329.028344 157.3778 
L 329.842462 158.216876 
L 330.075067 158.460017 
L 330.191369 158.449489 
L 330.423974 157.954552 
L 330.540277 157.575955 
L 331.238092 158.182535 
L 331.819604 158.649826 
L 332.052209 157.969 
L 332.168512 157.522649 
L 332.866327 158.3555 
L 333.331537 159.019649 
L 333.447839 158.842515 
L 333.796747 157.433834 
L 333.913049 157.570104 
L 334.959772 158.975616 
L 335.192377 158.222831 
L 335.424982 157.508649 
L 335.657587 157.420156 
L 336.704309 158.653326 
L 336.820612 158.51568 
L 337.169519 157.548274 
L 338.332544 158.673136 
L 338.565149 158.265077 
L 338.797754 157.942926 
L 338.914057 157.922727 
L 339.611872 158.642414 
L 339.960779 158.930513 
L 340.077082 158.84778 
L 340.425989 158.249676 
L 341.705317 159.26212 
L 342.054224 158.656062 
L 342.635737 159.149468 
L 342.984644 159.374567 
L 343.217249 159.437212 
L 343.682459 158.615907 
L 344.961787 159.198227 
L 345.194392 158.796045 
L 345.426997 158.423269 
L 346.008509 158.788159 
L 346.357417 158.986111 
L 346.590022 159.129903 
L 346.822627 158.749819 
L 347.055232 158.310958 
L 347.520442 158.667985 
L 347.985652 158.771499 
L 348.218257 158.830146 
L 348.683467 158.254708 
L 349.148677 158.46296 
L 349.497584 158.447718 
L 349.730189 158.547247 
L 349.962794 158.27013 
L 350.195399 157.750085 
L 350.660609 158.100594 
L 351.242121 157.916605 
L 351.474726 157.713805 
L 351.823634 156.935513 
L 352.288844 157.37473 
L 352.521449 157.279264 
L 353.219264 156.635499 
L 353.451869 156.162303 
L 353.917079 156.65467 
L 354.149684 156.56593 
L 354.731196 156.27402 
L 355.080104 155.978969 
L 355.196406 155.793019 
L 355.545314 156.167937 
L 355.777919 156.213788 
L 356.126826 156.246307 
L 356.592036 156.668148 
L 356.708339 156.635698 
L 357.173549 157.088643 
L 357.755061 157.248766 
L 358.569179 158.312289 
L 358.918086 158.875078 
L 359.383296 159.646421 
L 359.732204 160.006518 
L 359.732204 160.006518 
" clip-path="url(#pefdd8c580c)" style="fill: none; stroke: #ff7f0e; stroke-width: 1.5; stroke-linecap: square"/>
   </g>
   <g id="line2d_14">
    <path d="M 55.368567 17.28 
L 55.601172 23.676316 
L 55.95008 29.642362 
L 56.182685 31.190729 
L 56.298987 31.293 
L 56.647895 30.562765 
L 56.764197 30.382486 
L 56.996802 29.321324 
L 57.229407 28.06511 
L 57.34571 27.979858 
L 58.159827 30.956534 
L 58.27613 31.098767 
L 58.392432 30.951707 
L 58.625037 29.478492 
L 59.20655 23.383274 
L 59.322852 23.454719 
L 59.555457 24.042772 
L 60.485877 28.935888 
L 60.60218 28.912175 
L 60.834785 29.386274 
L 61.416297 30.878431 
L 61.648902 30.987199 
L 61.765205 30.89979 
L 61.99781 30.321329 
L 62.230415 29.320667 
L 62.579322 30.199048 
L 62.811927 30.667905 
L 63.044532 30.620617 
L 63.509742 29.996204 
L 63.742347 29.202541 
L 63.85865 28.652931 
L 64.556465 29.989051 
L 64.78907 29.854709 
L 65.25428 29.299528 
L 65.370582 28.975722 
L 65.603187 29.240711 
L 66.1847 30.315071 
L 66.533607 30.258661 
L 66.64991 30.139204 
L 66.882515 29.201709 
L 66.998817 28.340135 
L 67.231422 28.876363 
L 67.696632 30.157549 
L 67.929237 30.177006 
L 68.161842 29.706035 
L 68.51075 27.826071 
L 68.627052 27.033264 
L 68.859657 28.060256 
L 69.208565 29.880765 
L 69.557472 30.477537 
L 69.673775 30.304128 
L 70.138985 28.638116 
L 70.604195 30.178935 
L 70.8368 30.3475 
L 71.30201 29.604545 
L 71.418312 29.732912 
L 71.650917 30.652031 
L 72.116127 32.991761 
L 72.348732 33.159724 
L 72.581337 32.975406 
L 72.813942 32.417952 
L 73.046547 30.99476 
L 73.279152 31.647036 
L 73.860665 34.21851 
L 73.976967 34.310465 
L 74.09327 34.194252 
L 74.325875 33.328644 
L 74.907387 29.727097 
L 75.02369 29.96295 
L 75.256295 31.101444 
L 75.4889 32.229762 
L 75.605202 32.117346 
L 76.186715 29.732083 
L 76.535622 27.488193 
L 76.651925 27.545228 
L 76.768227 27.774952 
L 77.000832 29.423545 
L 77.233437 31.617839 
L 77.582345 30.093219 
L 77.931252 31.290178 
L 78.047554 31.028003 
L 78.280159 31.854345 
L 78.629067 33.643712 
L 79.443184 34.921216 
L 79.908394 35.800195 
L 80.373604 37.118177 
L 80.722512 37.095073 
L 80.838814 37.120325 
L 80.955117 37.009229 
L 81.304024 36.278209 
L 81.420327 36.316857 
L 81.652932 36.959156 
L 82.001839 38.145112 
L 82.467049 37.888282 
L 82.932259 36.229349 
L 83.164864 36.662992 
L 83.746377 38.786444 
L 83.978982 38.694489 
L 84.211587 38.241951 
L 84.444192 37.535103 
L 84.676797 37.881022 
L 85.025704 39.335585 
L 85.258309 40.108788 
L 85.490914 40.274749 
L 85.723519 40.0416 
L 86.072427 39.304022 
L 86.421334 40.043083 
L 86.886544 41.810348 
L 87.119149 41.768523 
L 87.235452 41.687848 
L 87.468057 41.023306 
L 87.584359 40.487504 
L 87.816964 40.734905 
L 88.049569 41.322612 
L 88.398477 42.406165 
L 88.631082 42.479406 
L 88.747384 42.367349 
L 88.979989 41.688479 
L 89.212594 40.786803 
L 89.561502 41.692589 
L 89.910409 42.724144 
L 90.143014 42.852939 
L 90.491922 42.601397 
L 90.840829 41.95797 
L 91.306039 42.944899 
L 91.654947 43.574266 
L 91.887552 43.826787 
L 92.003854 43.775411 
L 92.236459 42.921233 
L 92.585367 41.744011 
L 92.701669 41.707063 
L 92.934274 42.063147 
L 93.515787 43.528488 
L 93.980997 43.563828 
L 94.329904 43.352371 
L 94.562509 43.567354 
L 95.027719 44.473549 
L 95.260324 44.345305 
L 95.841837 43.650194 
L 96.074442 44.105353 
L 96.772257 46.000475 
L 96.888559 46.004415 
L 97.121164 45.612623 
L 97.353769 45.107525 
L 98.284189 46.726064 
L 98.516794 46.668333 
L 98.982004 45.888523 
L 99.447214 46.960676 
L 99.796122 47.757321 
L 100.028727 47.823922 
L 100.261332 47.39807 
L 100.610239 46.785941 
L 100.842844 47.01831 
L 101.075449 47.207327 
L 101.308054 47.025121 
L 101.424357 46.669909 
L 101.773264 47.753224 
L 102.122172 49.140982 
L 102.238474 49.29459 
L 102.354777 49.259945 
L 102.587382 48.773996 
L 102.936289 47.558847 
L 103.285196 48.590082 
L 103.750406 50.027848 
L 103.983011 50.206818 
L 104.099314 50.153827 
L 104.331919 49.532755 
L 104.564524 48.708061 
L 104.913431 50.126747 
L 105.262339 51.424918 
L 105.494944 51.684151 
L 105.611246 51.700201 
L 105.727549 51.581067 
L 106.309061 50.243704 
L 106.541666 50.554768 
L 106.890574 51.008081 
L 107.588389 51.236079 
L 109.216624 53.244488 
L 110.030741 55.427423 
L 110.147044 55.404932 
L 110.379649 54.983266 
L 110.728556 53.813122 
L 111.077464 54.593658 
L 111.542674 56.00209 
L 111.775279 56.109883 
L 112.007884 55.557181 
L 112.473094 53.757704 
L 112.705699 53.763162 
L 113.054606 53.917204 
L 113.868724 53.492314 
L 114.566539 56.043772 
L 114.799144 56.252504 
L 114.915446 56.201453 
L 115.148051 55.345556 
L 115.380656 54.01945 
L 115.845866 55.458311 
L 116.194774 56.305222 
L 116.427379 56.629129 
L 116.543681 56.601538 
L 116.776286 55.695064 
L 117.008891 54.17015 
L 117.241496 54.807384 
L 117.939311 57.351176 
L 118.055614 57.336956 
L 118.288219 56.493803 
L 118.637126 54.733022 
L 118.869731 54.575383 
L 119.800151 57.571657 
L 119.916454 57.566469 
L 120.149059 56.97395 
L 120.381664 55.9659 
L 120.730571 56.721672 
L 121.195781 57.861963 
L 121.428386 57.9991 
L 121.660991 57.742514 
L 122.009899 56.562753 
L 122.126201 56.716117 
L 122.475109 57.494027 
L 122.824016 58.312317 
L 123.056621 58.456022 
L 123.172924 58.365123 
L 123.405529 57.743727 
L 123.521831 57.226271 
L 123.870739 57.705374 
L 124.452251 58.789556 
L 124.684856 58.737439 
L 124.917461 58.115034 
L 125.150066 57.074494 
L 125.498974 57.783976 
L 125.964184 58.84692 
L 126.196789 58.975222 
L 126.313091 58.84522 
L 126.545696 58.05518 
L 126.894604 56.829066 
L 127.243511 57.864572 
L 127.592419 58.882449 
L 127.825023 59.194329 
L 127.941326 59.220114 
L 128.057628 59.062114 
L 128.406536 57.66847 
L 128.522838 57.871794 
L 129.453258 59.679356 
L 129.569561 59.603951 
L 129.802166 58.931731 
L 130.034771 57.800046 
L 130.383678 58.603114 
L 130.848888 59.883098 
L 131.081493 60.058158 
L 131.197796 59.932321 
L 131.430401 59.06157 
L 131.779308 57.423844 
L 132.011913 57.223091 
L 132.360821 58.479005 
L 132.709728 59.756947 
L 132.942333 60.076404 
L 133.058636 60.079534 
L 133.174938 59.845366 
L 133.523846 57.724345 
L 133.640148 57.910531 
L 133.989056 58.951323 
L 134.337963 59.883154 
L 134.570568 60.094657 
L 134.686871 60.040373 
L 134.919476 59.224945 
L 135.152081 57.991269 
L 135.500988 59.021357 
L 135.966198 60.413308 
L 136.198803 60.697722 
L 136.315106 60.629827 
L 136.547711 59.725634 
L 136.896618 58.462064 
L 137.245526 59.797143 
L 137.594433 61.063121 
L 137.827038 61.451104 
L 137.943341 61.496062 
L 138.059643 61.334803 
L 138.408551 59.912515 
L 138.524853 60.130186 
L 139.222668 61.568487 
L 139.455273 61.539495 
L 139.687878 61.123785 
L 140.036786 59.850325 
L 140.385693 60.651587 
L 140.734601 61.429713 
L 141.083508 61.647116 
L 141.199811 61.532787 
L 141.432416 60.836072 
L 141.548718 60.30785 
L 141.897626 60.974244 
L 142.362836 61.872124 
L 142.595441 61.980318 
L 142.711743 61.89915 
L 142.944348 61.260869 
L 143.176953 60.232165 
L 143.525861 61.111188 
L 143.874768 61.959742 
L 144.223676 62.21067 
L 144.339978 62.125523 
L 144.572583 61.411658 
L 144.921491 60.293782 
L 145.735608 62.625076 
L 145.968213 62.806241 
L 146.084516 62.668267 
L 146.433423 61.243555 
L 146.549726 61.503024 
L 147.131238 62.958648 
L 147.480146 63.234637 
L 147.596448 63.177974 
L 147.829053 62.497442 
L 148.061658 61.577737 
L 148.992078 63.520006 
L 149.108381 63.59617 
L 149.224683 63.532419 
L 149.457288 62.888261 
L 149.573591 62.434903 
L 149.922498 62.798758 
L 150.620313 63.119392 
L 152.132246 64.181339 
L 152.364851 63.875861 
L 153.062665 62.661862 
L 153.644178 63.237788 
L 153.76048 63.118906 
L 154.6909 65.058926 
L 154.807203 65.024591 
L 155.039808 64.485138 
L 155.272413 63.661381 
L 155.62132 64.384023 
L 155.970228 65.18579 
L 156.319135 65.451334 
L 156.435438 65.388368 
L 156.668043 64.784141 
L 156.900648 63.904579 
L 157.249555 64.74891 
L 157.598463 65.543326 
L 157.94737 65.789215 
L 158.063673 65.676707 
L 158.645185 64.196901 
L 159.575605 65.049181 
L 160.27342 65.289592 
L 160.389723 65.144683 
L 161.20384 66.696496 
L 161.436445 66.700386 
L 161.66905 66.206772 
L 161.901655 65.307737 
L 162.250563 65.843927 
L 162.715773 66.69756 
L 162.948378 66.812593 
L 163.180983 66.511506 
L 163.52989 65.550138 
L 163.878798 66.174863 
L 164.344008 67.112674 
L 164.576613 67.287935 
L 164.692915 67.238306 
L 165.041823 66.552042 
L 165.158125 66.684054 
L 166.204848 67.952504 
L 166.437453 67.659938 
L 166.670058 67.093623 
L 167.600478 68.211084 
L 167.833083 68.150019 
L 168.065688 67.680287 
L 168.414595 66.863751 
L 168.6472 66.722377 
L 169.345015 68.120356 
L 169.57762 68.275753 
L 169.693923 68.248249 
L 169.926528 67.790716 
L 170.159133 67.036491 
L 170.50804 67.627203 
L 170.97325 68.453973 
L 171.90367 68.502262 
L 173.531905 68.652575 
L 174.69493 68.790531 
L 175.043838 68.694852 
L 175.392745 68.364413 
L 175.509048 68.149218 
L 176.439468 69.604149 
L 176.672073 69.493163 
L 177.253585 68.572256 
L 177.369887 68.537206 
L 177.602492 68.881441 
L 178.998122 69.260995 
L 180.975265 70.342775 
L 181.20787 70.123172 
L 181.556777 69.519662 
L 181.67308 69.165171 
L 182.487197 70.541748 
L 182.719802 70.59792 
L 182.952407 70.286742 
L 183.301315 69.091532 
L 183.417617 69.305051 
L 184.115432 70.689574 
L 184.348037 70.716432 
L 184.580642 70.140108 
L 185.045852 68.614306 
L 185.278457 68.817911 
L 185.743667 69.285442 
L 186.441482 69.882715 
L 187.022995 70.271663 
L 187.488205 70.361494 
L 187.953415 70.190313 
L 188.069717 70.107414 
L 188.18602 69.735342 
L 188.767532 71.669277 
L 189.11644 72.022165 
L 189.232742 71.869783 
L 189.465347 70.763636 
L 189.697952 69.22833 
L 190.04686 70.253227 
L 190.51207 71.731587 
L 190.744675 71.953243 
L 190.860977 71.659729 
L 191.326187 68.940276 
L 191.675095 70.310669 
L 192.140305 72.253462 
L 192.37291 72.568036 
L 192.489212 72.246363 
L 192.954422 69.833225 
L 193.070725 69.865347 
L 193.76854 73.167511 
L 194.117447 73.717785 
L 194.350052 72.479054 
L 194.582657 71.179818 
L 195.280472 73.914918 
L 195.62938 74.137077 
L 195.745682 74.008884 
L 195.978287 72.861672 
L 196.210892 71.35686 
L 196.792405 73.340913 
L 197.141312 73.685594 
L 197.257615 73.599556 
L 197.49022 72.604568 
L 197.95543 70.020585 
L 198.071732 69.654285 
L 198.42064 71.109827 
L 198.88585 73.042574 
L 199.002152 73.184533 
L 199.118455 72.987235 
L 199.467362 70.433461 
L 199.583665 69.711573 
L 199.81627 70.419964 
L 200.630387 73.78721 
L 200.74669 73.550675 
L 201.2119 70.611213 
L 201.560807 72.661736 
L 201.909715 74.428941 
L 202.258622 75.06051 
L 202.374924 74.780745 
L 202.723832 72.241797 
L 203.421647 75.200996 
L 203.770554 75.147216 
L 203.886857 74.866174 
L 204.235764 72.589194 
L 204.352067 71.620167 
L 205.049882 74.091204 
L 205.282487 74.333549 
L 205.398789 74.171979 
L 205.631394 72.813601 
L 205.980302 70.057246 
L 206.329209 71.447294 
L 206.794419 73.617969 
L 206.910722 73.857749 
L 207.027024 73.701765 
L 207.259629 71.910166 
L 207.608537 69.438414 
L 207.957444 71.438846 
L 208.422654 74.228708 
L 208.538957 74.601131 
L 208.655259 74.550502 
L 209.120469 70.772508 
L 209.469377 73.20423 
L 209.818284 75.336583 
L 210.167192 76.19925 
L 210.283494 75.970254 
L 210.632402 72.89821 
L 210.748704 72.843144 
L 210.865007 72.996714 
L 210.981309 72.585291 
L 211.446519 75.315249 
L 211.911729 76.199248 
L 212.028032 76.045728 
L 212.260637 74.51858 
L 212.493242 72.259661 
L 212.958452 73.587362 
L 213.423662 74.807779 
L 213.539964 74.724492 
L 213.772569 73.378403 
L 214.121477 70.562031 
L 214.354082 71.139043 
L 214.702989 72.988509 
L 215.051897 74.521595 
L 215.168199 74.495706 
L 215.400804 72.774613 
L 215.749712 70.359742 
L 215.982317 71.474097 
L 216.680132 75.742995 
L 216.796434 75.876747 
L 217.029039 73.763049 
L 217.261644 72.193357 
L 217.610552 74.5415 
L 217.959459 76.654145 
L 218.424669 77.432054 
L 218.889879 74.392835 
L 219.122484 74.458133 
L 219.471392 74.207619 
L 219.703997 74.038853 
L 220.285509 72.896278 
L 220.401812 72.504058 
L 220.750719 73.677367 
L 221.215929 75.664174 
L 221.332232 75.831894 
L 221.448534 75.691706 
L 221.681139 74.283762 
L 222.030047 72.444459 
L 222.146349 72.583604 
L 222.844164 74.743771 
L 223.425677 77.06232 
L 223.658282 77.192339 
L 223.774584 76.905416 
L 224.239794 73.90909 
L 225.053912 76.433033 
L 225.286517 76.498718 
L 225.402819 76.304579 
L 225.751727 74.643307 
L 225.868029 74.881988 
L 226.798449 76.75646 
L 226.914751 76.643914 
L 227.147356 75.863742 
L 227.379961 74.666706 
L 227.728869 75.278369 
L 228.426684 77.450292 
L 228.542986 77.299961 
L 228.775591 76.265625 
L 229.008196 75.220222 
L 229.124499 74.918687 
L 229.357104 75.507089 
L 230.054919 78.336133 
L 230.171221 78.337345 
L 230.287524 77.970745 
L 230.636431 75.574125 
L 230.869036 76.18357 
L 231.566851 78.567978 
L 231.683154 78.628434 
L 231.799456 78.479154 
L 232.032061 77.079928 
L 232.264666 75.597723 
L 232.729876 77.398813 
L 233.078784 78.212168 
L 233.311389 78.377774 
L 233.427691 78.211319 
L 234.009204 75.4583 
L 234.474414 76.614266 
L 234.939624 77.972841 
L 235.055926 78.067528 
L 235.172229 77.969486 
L 235.404834 77.213331 
L 235.521136 76.664956 
L 235.870044 76.749711 
L 236.102649 77.36141 
L 236.451556 78.668796 
L 236.684161 78.850772 
L 236.916766 78.174138 
L 237.149371 77.069631 
L 237.381976 77.194833 
L 237.614581 77.850099 
L 238.196094 80.366526 
L 238.312396 80.387837 
L 238.545001 79.478024 
L 238.661304 78.840012 
L 238.893909 79.068231 
L 239.126514 79.72218 
L 239.708026 81.973993 
L 239.824329 82.0127 
L 239.940631 81.671274 
L 240.289539 79.476754 
L 240.638446 80.528549 
L 241.103656 82.177881 
L 241.336261 82.383611 
L 241.452564 82.113704 
L 242.150379 78.402899 
L 242.499286 78.985103 
L 243.197101 80.583154 
L 243.313404 80.34071 
L 243.778614 78.345042 
L 244.011219 78.342978 
L 244.243824 78.77787 
L 244.709034 80.049677 
L 244.825336 80.052658 
L 245.057941 79.245187 
L 245.290546 77.903718 
L 245.523151 77.998416 
L 245.755756 78.481739 
L 246.337269 80.653917 
L 246.453571 80.747445 
L 246.569874 80.54424 
L 246.918781 79.153253 
L 247.035084 79.125048 
L 247.383991 80.041594 
L 248.314411 83.386911 
L 248.430714 83.3855 
L 248.663319 82.641685 
L 248.779621 82.141731 
L 249.128529 83.091967 
L 249.710041 84.847069 
L 249.826344 85.008582 
L 249.942646 84.974234 
L 250.175251 84.006344 
L 250.524159 82.440365 
L 250.640461 81.999221 
L 251.570881 84.064828 
L 251.687183 83.994017 
L 251.919788 83.04974 
L 252.384998 80.475835 
L 252.501301 80.063741 
L 252.850208 80.984777 
L 253.315418 82.37539 
L 253.548023 82.56801 
L 253.780628 81.845207 
L 254.013233 80.598321 
L 254.362141 81.048495 
L 254.711048 82.108959 
L 255.059956 82.974084 
L 255.176258 82.909393 
L 255.408863 81.982998 
L 255.641468 80.83831 
L 255.990376 81.547752 
L 256.804493 84.363262 
L 257.037098 83.449283 
L 257.153401 82.753987 
L 257.502308 83.22578 
L 257.851216 84.376973 
L 258.316426 85.751246 
L 258.432728 85.621238 
L 258.781636 83.616054 
L 258.897938 83.86713 
L 259.363148 85.340028 
L 259.712056 86.223946 
L 259.828358 86.379374 
L 259.944661 86.307377 
L 260.177266 85.110545 
L 260.526173 82.992609 
L 261.456593 85.667648 
L 261.572896 85.610063 
L 261.805501 84.59 
L 262.038106 82.902563 
L 262.387013 83.647338 
L 262.968526 84.992377 
L 263.084828 84.988418 
L 263.201131 84.732582 
L 263.550038 82.743211 
L 263.666341 81.982698 
L 264.015248 82.884328 
L 264.596761 84.838328 
L 264.713063 84.893151 
L 264.829366 84.642525 
L 265.410878 81.822855 
L 265.759786 83.222156 
L 266.224996 85.286196 
L 266.457601 85.645117 
L 266.690206 84.57543 
L 266.922811 83.129272 
L 267.271718 84.42184 
L 267.853231 86.659777 
L 267.969533 86.885665 
L 268.085836 86.785982 
L 268.434743 84.435888 
L 268.551046 83.826095 
L 269.481466 87.67527 
L 269.597768 87.868221 
L 269.714071 87.670989 
L 270.062978 85.053204 
L 270.877096 87.702631 
L 271.109701 87.857088 
L 271.226003 87.750702 
L 271.458608 86.553986 
L 271.691213 84.845394 
L 272.389028 87.020734 
L 272.621633 87.172129 
L 272.737936 87.111305 
L 272.970541 86.252651 
L 273.435751 83.468641 
L 273.784658 84.738255 
L 274.249868 86.316603 
L 274.366171 86.448192 
L 274.482473 86.355609 
L 274.715078 85.308553 
L 274.947683 83.716481 
L 275.296591 84.617393 
L 275.878103 86.60513 
L 275.994406 86.637934 
L 276.110708 86.365464 
L 276.575918 83.470355 
L 276.69222 83.806242 
L 277.041128 85.420093 
L 277.390035 86.984094 
L 277.62264 87.350864 
L 277.738943 87.102807 
L 278.204153 84.148999 
L 278.55306 85.979585 
L 278.901968 87.762285 
L 279.250875 88.437735 
L 279.367178 88.153821 
L 279.716085 85.736164 
L 280.646505 89.134703 
L 280.87911 89.248542 
L 281.111715 88.048 
L 281.34432 86.539 
L 282.042135 89.17586 
L 282.391043 89.567616 
L 282.507345 89.427225 
L 282.73995 88.187994 
L 283.088858 86.43863 
L 283.20516 86.04234 
L 283.67037 87.983251 
L 284.019278 89.09575 
L 284.13558 89.270964 
L 284.251883 89.219321 
L 284.484488 88.03296 
L 284.717093 86.219189 
L 284.949698 86.679781 
L 285.763815 89.24775 
L 285.880118 88.973127 
L 286.345328 85.96008 
L 286.46163 86.251771 
L 286.810538 87.771149 
L 287.159445 89.352816 
L 287.39205 89.671409 
L 287.508353 89.382041 
L 287.973563 86.865714 
L 288.206168 87.306149 
L 288.903983 89.122223 
L 289.369193 90.748239 
L 289.7181 91.229105 
L 289.834403 91.141756 
L 290.067008 90.220078 
L 290.299613 88.769671 
L 290.764823 90.025259 
L 291.11373 91.00973 
L 291.346335 91.131765 
L 291.57894 90.467643 
L 292.04415 88.001291 
L 292.276755 88.472895 
L 292.97457 90.936401 
L 293.090873 90.901853 
L 293.323478 90.000827 
L 293.556083 88.481341 
L 293.788688 88.674942 
L 294.021293 89.305467 
L 294.486503 91.08729 
L 294.602805 91.19051 
L 294.719108 91.036118 
L 294.951713 89.77779 
L 295.184318 88.281789 
L 295.416923 88.610848 
L 295.649528 89.410726 
L 296.114738 91.338219 
L 296.23104 91.506192 
L 296.347343 91.40176 
L 296.579948 90.091899 
L 296.812553 88.642906 
L 297.16146 89.523729 
L 297.859275 92.111621 
L 297.975578 91.998037 
L 298.324485 89.91225 
L 298.440788 90.074099 
L 298.673393 90.509485 
L 299.371208 92.650012 
L 299.48751 92.610786 
L 299.720115 91.570498 
L 299.95272 89.813427 
L 300.301628 90.54991 
L 300.999443 92.778311 
L 301.115745 92.52471 
L 301.81356 88.989997 
L 302.162467 90.531865 
L 302.627677 92.604324 
L 302.74398 92.849645 
L 302.860282 92.7836 
L 303.092887 91.291923 
L 303.325492 89.457439 
L 303.6744 90.787144 
L 304.13961 92.890257 
L 304.372215 93.373219 
L 304.488517 93.113785 
L 304.953727 89.719369 
L 305.418937 92.322477 
L 305.767845 93.757741 
L 306.00045 94.341594 
L 306.116752 94.004205 
L 306.46566 91.06369 
L 306.93087 93.515622 
L 307.279777 94.74778 
L 307.628685 95.355526 
L 307.86129 93.757405 
L 308.093895 92.118729 
L 308.79171 95.416576 
L 309.25692 96.068445 
L 309.489525 94.395088 
L 309.605827 93.459309 
L 310.536247 96.109798 
L 310.768852 96.235913 
L 310.885155 95.909632 
L 311.234062 93.466668 
L 311.58297 94.482138 
L 312.04818 95.861022 
L 312.280785 96.092969 
L 312.397087 96.004931 
L 312.629692 94.895855 
L 312.9786 93.019131 
L 313.327507 94.134253 
L 313.792717 95.744934 
L 314.025322 95.983273 
L 314.141625 95.837622 
L 314.37423 94.712607 
L 314.490532 93.968306 
L 314.723137 94.325823 
L 315.537255 96.238691 
L 315.653557 96.192748 
L 315.886162 95.4896 
L 316.118767 94.299273 
L 316.351372 94.809091 
L 317.049187 96.762501 
L 317.281792 96.829904 
L 317.514397 96.1343 
L 317.6307 95.551983 
L 317.979607 96.206011 
L 318.444817 97.262809 
L 318.793725 97.460356 
L 318.910027 97.33401 
L 319.142632 96.571289 
L 319.258935 96.039072 
L 319.607842 96.825939 
L 319.95675 97.691345 
L 320.305657 97.942952 
L 320.42196 97.930003 
L 320.538262 97.76761 
L 321.003472 96.150494 
L 321.468682 97.422269 
L 321.81759 98.004869 
L 322.050195 98.108264 
L 322.166497 98.060372 
L 322.399102 97.403897 
L 322.515405 96.856456 
L 322.864312 97.341763 
L 323.329522 98.114679 
L 323.562127 98.179048 
L 323.794732 97.99297 
L 324.027337 97.251356 
L 324.14364 96.733088 
L 324.492547 97.312343 
L 324.957757 98.199083 
L 325.190362 98.316368 
L 325.306665 98.261115 
L 325.53927 97.642961 
L 325.655572 97.089134 
L 326.00448 97.493776 
L 326.585992 98.324245 
L 326.818597 98.346177 
L 326.934899 98.172151 
L 327.167504 97.230678 
L 327.283807 96.534847 
L 327.632714 97.080452 
L 328.214227 98.111764 
L 328.330529 98.162637 
L 328.446832 98.080265 
L 328.679437 97.185986 
L 329.028344 95.179879 
L 329.377252 96.055315 
L 329.842462 97.343682 
L 330.075067 97.568262 
L 330.191369 97.40671 
L 330.423974 96.154737 
L 330.540277 95.24445 
L 330.889184 95.822249 
L 331.470697 97.169862 
L 331.586999 97.275218 
L 331.703302 97.225779 
L 331.935907 96.282288 
L 332.168512 94.57955 
L 332.517419 95.282552 
L 333.215234 97.223393 
L 333.331537 97.164159 
L 333.564142 96.088702 
L 333.796747 94.380862 
L 334.145654 95.163803 
L 334.843469 97.49831 
L 334.959772 97.39493 
L 335.192377 96.192406 
L 335.424982 94.84293 
L 335.657587 94.51812 
L 336.006494 95.697329 
L 336.588007 98.082522 
L 336.704309 98.181627 
L 336.820612 98.002507 
L 337.053217 96.763387 
L 337.169519 95.9592 
L 337.518427 96.499649 
L 338.216242 98.758981 
L 338.332544 98.696052 
L 338.565149 97.673987 
L 338.914057 95.802288 
L 339.146662 96.244183 
L 339.495569 97.562325 
L 339.844477 98.606214 
L 339.960779 98.647443 
L 340.077082 98.470476 
L 340.309687 97.35132 
L 340.425989 96.520605 
L 340.774897 96.919482 
L 341.472712 98.528207 
L 341.589014 98.403626 
L 341.821619 97.480745 
L 342.054224 95.994161 
L 342.403132 96.50348 
L 343.100947 98.180361 
L 343.217249 98.003984 
L 343.449854 97.052203 
L 343.682459 95.943378 
L 343.915064 95.569659 
L 344.263972 96.463828 
L 344.729182 97.986761 
L 344.845484 98.094317 
L 344.961787 98.048772 
L 345.194392 97.485044 
L 345.426997 96.44295 
L 345.775904 97.035593 
L 346.473719 98.669211 
L 346.590022 98.484796 
L 346.822627 97.529948 
L 347.055232 96.192154 
L 347.404139 96.771885 
L 348.101954 98.483531 
L 348.334559 97.775115 
L 348.567164 96.431115 
L 349.032374 97.092302 
L 349.613887 98.457611 
L 349.730189 98.200348 
L 350.079097 96.117197 
L 350.195399 95.241572 
L 350.544307 95.816066 
L 350.893214 97.052718 
L 351.125819 97.832419 
L 351.242121 97.867851 
L 351.474726 96.825788 
L 351.823634 94.188017 
L 352.172541 94.993895 
L 352.870356 97.495915 
L 352.986659 97.056874 
L 353.451869 93.569942 
L 353.800776 94.689373 
L 354.498591 97.702955 
L 354.614894 97.222428 
L 354.963801 94.416042 
L 355.196406 94.183294 
L 355.894221 97.490878 
L 356.126826 98.562095 
L 356.243129 98.674892 
L 356.475734 97.282367 
L 356.708339 96.044267 
L 357.406154 98.652693 
L 357.755061 100.159147 
L 357.871364 100.240929 
L 358.336574 98.044878 
L 358.569179 98.556211 
L 359.034389 99.853689 
L 359.266994 100.256161 
L 359.615901 101.079922 
L 359.732204 101.498182 
L 359.732204 101.498182 
" clip-path="url(#pefdd8c580c)" style="fill: none; stroke: #2ca02c; stroke-width: 1.5; stroke-linecap: square"/>
   </g>
   <g id="patch_3">
    <path d="M 40.150386 228.96 
L 40.150386 7.2 
" style="fill: none; stroke: #000000; stroke-width: 0.8; stroke-linejoin: miter; stroke-linecap: square"/>
   </g>
   <g id="patch_4">
    <path d="M 374.950386 228.96 
L 374.950386 7.2 
" style="fill: none; stroke: #000000; stroke-width: 0.8; stroke-linejoin: miter; stroke-linecap: square"/>
   </g>
   <g id="patch_5">
    <path d="M 40.150386 228.96 
L 374.950386 228.96 
" style="fill: none; stroke: #000000; stroke-width: 0.8; stroke-linejoin: miter; stroke-linecap: square"/>
   </g>
   <g id="patch_6">
    <path d="M 40.150386 7.2 
L 374.950386 7.2 
" style="fill: none; stroke: #000000; stroke-width: 0.8; stroke-linejoin: miter; stroke-linecap: square"/>
   </g>
   <g id="legend_1">
    <g id="patch_7">
     <path d="M 144.410035 43.640613 
L 270.690736 43.640613 
Q 272.690736 43.640613 272.690736 41.640613 
L 272.690736 14.2 
Q 272.690736 12.2 270.690736 12.2 
L 144.410035 12.2 
Q 142.410035 12.2 142.410035 14.2 
L 142.410035 41.640613 
Q 142.410035 43.640613 144.410035 43.640613 
z
" style="fill: #ffffff; opacity: 0.8; stroke: #cccccc; stroke-linejoin: miter"/>
    </g>
    <g id="line2d_15">
     <path d="M 146.410035 19.79832 
L 156.410035 19.79832 
L 166.410035 19.79832 
" style="fill: none; stroke: #1f77b4; stroke-width: 1.5; stroke-linecap: square"/>
    </g>
    <g id="text_14">
     <!-- $\rho$ -->
     <g transform="translate(174.410035 23.29832) scale(0.1 -0.1)">
      <defs>
       <path id="CMMI12-1a" d="M 198 -1085 
C 192 -1116 179 -1154 179 -1191 
C 179 -1287 256 -1351 352 -1351 
C 448 -1351 538 -1287 576 -1198 
C 602 -1141 781 -390 986 389 
C 1114 70 1350 -64 1600 -64 
C 2323 -64 3142 830 3142 1794 
C 3142 2477 2726 2816 2285 2816 
C 1722 2816 1037 2234 826 1385 
L 198 -1085 
z
M 1594 64 
C 1158 64 1050 568 1050 645 
C 1050 683 1210 1289 1229 1385 
C 1555 2656 2182 2687 2278 2687 
C 2566 2687 2726 2426 2726 2049 
C 2726 1724 2554 1091 2445 823 
C 2253 383 1920 64 1594 64 
z
" transform="scale(0.015625)"/>
      </defs>
      <use xlink:href="#CMMI12-1a" transform="scale(0.996264)"/>
     </g>
    </g>
    <g id="line2d_16">
     <path d="M 146.410035 34.018627 
L 156.410035 34.018627 
L 166.410035 34.018627 
" style="fill: none; stroke: #ff7f0e; stroke-width: 1.5; stroke-linecap: square"/>
    </g>
    <g id="text_15">
     <!-- $\rho u$ -->
     <g transform="translate(174.410035 37.518627) scale(0.1 -0.1)">
      <defs>
       <path id="CMMI12-75" d="M 2182 370 
C 2266 12 2573 -64 2726 -64 
C 2931 -64 3085 70 3187 287 
C 3296 517 3379 893 3379 913 
C 3379 944 3354 970 3315 970 
C 3258 970 3251 938 3226 842 
C 3110 402 2995 64 2739 64 
C 2547 64 2547 274 2547 357 
C 2547 504 2566 568 2630 836 
C 2675 1008 2720 1181 2758 1359 
L 3021 2400 
C 3066 2560 3066 2572 3066 2591 
C 3066 2687 2989 2752 2893 2752 
C 2707 2752 2662 2591 2624 2432 
C 2560 2183 2214 810 2170 587 
C 2163 587 1914 64 1446 64 
C 1114 64 1050 351 1050 587 
C 1050 951 1229 1462 1395 1890 
C 1472 2094 1504 2177 1504 2305 
C 1504 2579 1306 2816 998 2816 
C 410 2816 173 1890 173 1838 
C 173 1813 198 1781 243 1781 
C 301 1781 307 1807 333 1896 
C 486 2445 736 2687 979 2687 
C 1043 2687 1146 2681 1146 2477 
C 1146 2311 1075 2126 979 1883 
C 698 1123 666 881 666 689 
C 666 38 1158 -64 1421 -64 
C 1830 -64 2054 217 2182 370 
z
" transform="scale(0.015625)"/>
      </defs>
      <use xlink:href="#CMMI12-1a" transform="scale(0.996264)"/>
      <use xlink:href="#CMMI12-75" transform="translate(50.314373 0) scale(0.996264)"/>
     </g>
    </g>
    <g id="line2d_17">
     <path d="M 205.264062 19.79832 
L 215.264062 19.79832 
L 225.264062 19.79832 
" style="fill: none; stroke: #2ca02c; stroke-width: 1.5; stroke-linecap: square"/>
    </g>
    <g id="text_16">
     <!-- $\rho E$ -->
     <g transform="translate(233.264062 23.29832) scale(0.1 -0.1)">
      <defs>
       <path id="CMMI12-45" d="M 4448 1489 
C 4454 1508 4474 1553 4474 1578 
C 4474 1611 4448 1643 4410 1643 
C 4384 1643 4371 1636 4352 1617 
C 4339 1611 4339 1598 4282 1469 
C 3904 570 3629 185 2605 185 
L 1670 185 
C 1581 185 1568 185 1530 192 
C 1459 198 1453 211 1453 262 
C 1453 307 1466 346 1478 403 
L 1920 2176 
L 2554 2176 
C 3053 2176 3091 2066 3091 1874 
C 3091 1810 3091 1752 3046 1559 
C 3034 1534 3027 1508 3027 1489 
C 3027 1444 3059 1424 3098 1424 
C 3155 1424 3162 1469 3187 1559 
L 3552 3036 
C 3552 3068 3526 3099 3488 3099 
C 3430 3099 3424 3074 3398 2986 
C 3270 2500 3142 2361 2573 2361 
L 1965 2361 
L 2362 3913 
C 2419 4134 2432 4153 2694 4153 
L 3610 4153 
C 4397 4153 4557 3945 4557 3465 
C 4557 3459 4557 3282 4531 3074 
C 4525 3049 4518 3011 4518 2998 
C 4518 2948 4550 2929 4589 2929 
C 4634 2929 4659 2954 4672 3068 
L 4806 4172 
C 4806 4191 4819 4255 4819 4268 
C 4819 4339 4762 4339 4646 4339 
L 1523 4339 
C 1402 4339 1338 4339 1338 4223 
C 1338 4153 1382 4153 1491 4153 
C 1888 4153 1888 4109 1888 4039 
C 1888 4008 1882 3983 1862 3913 
L 998 474 
C 941 249 928 185 480 185 
C 358 185 294 185 294 70 
C 294 0 333 0 461 0 
L 3674 0 
C 3814 0 3821 6 3866 108 
L 4448 1489 
z
" transform="scale(0.015625)"/>
      </defs>
      <use xlink:href="#CMMI12-1a" transform="scale(0.996264)"/>
      <use xlink:href="#CMMI12-45" transform="translate(50.314373 0) scale(0.996264)"/>
     </g>
    </g>
    <g id="line2d_18">
     <path d="M 205.264062 34.018627 
L 215.264062 34.018627 
L 225.264062 34.018627 
" style="fill: none; stroke-dasharray: 3.7,1.6; stroke-dashoffset: 0; stroke: #808080"/>
    </g>
    <g id="text_17">
     <!-- Time [s] -->
     <g transform="translate(233.264062 37.518627) scale(0.1 -0.1)">
      <defs>
       <path id="NimbusSanL-Regu-54" d="M 2266 4147 
L 3795 4147 
L 3795 4672 
L 134 4672 
L 134 4147 
L 1670 4147 
L 1670 0 
L 2266 0 
L 2266 4147 
z
" transform="scale(0.015625)"/>
       <path id="NimbusSanL-Regu-6d" d="M 448 3328 
L 448 0 
L 986 0 
L 986 2089 
C 986 2597 1338 2988 1773 2988 
C 2170 2988 2394 2744 2394 2315 
L 2394 0 
L 2931 0 
L 2931 2109 
C 2931 2597 3283 2988 3718 2988 
C 4109 2988 4339 2738 4339 2315 
L 4339 0 
L 4877 0 
L 4877 2520 
C 4877 3123 4531 3456 3904 3456 
C 3456 3456 3187 3321 2874 2943 
C 2675 3302 2406 3456 1971 3456 
C 1523 3456 1229 3289 941 2886 
L 941 3328 
L 448 3328 
z
" transform="scale(0.015625)"/>
       <path id="NimbusSanL-Regu-5b" d="M 1600 4672 
L 410 4672 
L 410 -1357 
L 1600 -1357 
L 1600 -896 
L 941 -896 
L 941 4211 
L 1600 4211 
L 1600 4672 
z
" transform="scale(0.015625)"/>
       <path id="NimbusSanL-Regu-5d" d="M 147 -1357 
L 1338 -1357 
L 1338 4672 
L 147 4672 
L 147 4211 
L 806 4211 
L 806 -896 
L 147 -896 
L 147 -1357 
z
" transform="scale(0.015625)"/>
      </defs>
      <use xlink:href="#NimbusSanL-Regu-54" transform="scale(0.996264)"/>
      <use xlink:href="#NimbusSanL-Regu-69" transform="translate(60.871631 0) scale(0.996264)"/>
      <use xlink:href="#NimbusSanL-Regu-6d" transform="translate(82.988415 0) scale(0.996264)"/>
      <use xlink:href="#NimbusSanL-Regu-65" transform="translate(165.976845 0) scale(0.996264)"/>
      <use xlink:href="#NimbusSanL-Regu-5b" transform="translate(249.063692 0) scale(0.996264)"/>
      <use xlink:href="#NimbusSanL-Regu-73" transform="translate(276.758861 0) scale(0.996264)"/>
      <use xlink:href="#NimbusSanL-Regu-5d" transform="translate(326.572062 0) scale(0.996264)"/>
     </g>
    </g>
   </g>
  </g>
  <g id="axes_2">
   <g id="matplotlib.axis_3">
    <g id="ytick_6">
     <g id="line2d_19">
      <defs>
       <path id="mae40b3ff64" d="M 0 0 
L 3.5 0 
" style="stroke: #000000; stroke-width: 0.8"/>
      </defs>
      <g>
       <use xlink:href="#mae40b3ff64" x="374.950386" y="218.88" style="stroke: #000000; stroke-width: 0.8"/>
      </g>
     </g>
     <g id="text_18">
      <!-- $\mathdefault{0}$ -->
      <g transform="translate(381.950386 222.42916) scale(0.1 -0.1)">
       <use xlink:href="#CMR17-30" transform="scale(0.996264)"/>
      </g>
     </g>
    </g>
    <g id="ytick_7">
     <g id="line2d_20">
      <g>
       <use xlink:href="#mae40b3ff64" x="374.950386" y="172.924097" style="stroke: #000000; stroke-width: 0.8"/>
      </g>
     </g>
     <g id="text_19">
      <!-- $\mathdefault{50}$ -->
      <g transform="translate(381.950386 176.473257) scale(0.1 -0.1)">
       <use xlink:href="#CMR17-35" transform="scale(0.996264)"/>
       <use xlink:href="#CMR17-30" transform="translate(45.690477 0) scale(0.996264)"/>
      </g>
     </g>
    </g>
    <g id="ytick_8">
     <g id="line2d_21">
      <g>
       <use xlink:href="#mae40b3ff64" x="374.950386" y="126.968194" style="stroke: #000000; stroke-width: 0.8"/>
      </g>
     </g>
     <g id="text_20">
      <!-- $\mathdefault{100}$ -->
      <g transform="translate(381.950386 130.517354) scale(0.1 -0.1)">
       <use xlink:href="#CMR17-31" transform="scale(0.996264)"/>
       <use xlink:href="#CMR17-30" transform="translate(45.690477 0) scale(0.996264)"/>
       <use xlink:href="#CMR17-30" transform="translate(91.380954 0) scale(0.996264)"/>
      </g>
     </g>
    </g>
    <g id="ytick_9">
     <g id="line2d_22">
      <g>
       <use xlink:href="#mae40b3ff64" x="374.950386" y="81.012292" style="stroke: #000000; stroke-width: 0.8"/>
      </g>
     </g>
     <g id="text_21">
      <!-- $\mathdefault{150}$ -->
      <g transform="translate(381.950386 84.561452) scale(0.1 -0.1)">
       <use xlink:href="#CMR17-31" transform="scale(0.996264)"/>
       <use xlink:href="#CMR17-35" transform="translate(45.690477 0) scale(0.996264)"/>
       <use xlink:href="#CMR17-30" transform="translate(91.380954 0) scale(0.996264)"/>
      </g>
     </g>
    </g>
    <g id="ytick_10">
     <g id="line2d_23">
      <g>
       <use xlink:href="#mae40b3ff64" x="374.950386" y="35.056389" style="stroke: #000000; stroke-width: 0.8"/>
      </g>
     </g>
     <g id="text_22">
      <!-- $\mathdefault{200}$ -->
      <g transform="translate(381.950386 38.605549) scale(0.1 -0.1)">
       <use xlink:href="#CMR17-32" transform="scale(0.996264)"/>
       <use xlink:href="#CMR17-30" transform="translate(45.690477 0) scale(0.996264)"/>
       <use xlink:href="#CMR17-30" transform="translate(91.380954 0) scale(0.996264)"/>
      </g>
     </g>
    </g>
    <g id="text_23">
     <!-- Time [s] -->
     <g transform="translate(407.992712 135.793337) rotate(-90) scale(0.1 -0.1)">
      <use xlink:href="#NimbusSanL-Regu-54" transform="scale(0.996264)"/>
      <use xlink:href="#NimbusSanL-Regu-69" transform="translate(60.871631 0) scale(0.996264)"/>
      <use xlink:href="#NimbusSanL-Regu-6d" transform="translate(82.988415 0) scale(0.996264)"/>
      <use xlink:href="#NimbusSanL-Regu-65" transform="translate(165.976845 0) scale(0.996264)"/>
      <use xlink:href="#NimbusSanL-Regu-5b" transform="translate(249.063692 0) scale(0.996264)"/>
      <use xlink:href="#NimbusSanL-Regu-73" transform="translate(276.758861 0) scale(0.996264)"/>
      <use xlink:href="#NimbusSanL-Regu-5d" transform="translate(326.572062 0) scale(0.996264)"/>
     </g>
    </g>
   </g>
   <g id="line2d_24">
    <path d="M 55.368567 218.88 
L 359.732204 17.28 
" clip-path="url(#pefdd8c580c)" style="fill: none; stroke-dasharray: 3.7,1.6; stroke-dashoffset: 0; stroke: #808080"/>
   </g>
   <g id="patch_8">
    <path d="M 40.150386 228.96 
L 40.150386 7.2 
" style="fill: none; stroke: #000000; stroke-width: 0.8; stroke-linejoin: miter; stroke-linecap: square"/>
   </g>
   <g id="patch_9">
    <path d="M 374.950386 228.96 
L 374.950386 7.2 
" style="fill: none; stroke: #000000; stroke-width: 0.8; stroke-linejoin: miter; stroke-linecap: square"/>
   </g>
   <g id="patch_10">
    <path d="M 40.150386 228.96 
L 374.950386 228.96 
" style="fill: none; stroke: #000000; stroke-width: 0.8; stroke-linejoin: miter; stroke-linecap: square"/>
   </g>
   <g id="patch_11">
    <path d="M 40.150386 7.2 
L 374.950386 7.2 
" style="fill: none; stroke: #000000; stroke-width: 0.8; stroke-linejoin: miter; stroke-linecap: square"/>
   </g>
  </g>
 </g>
 <defs>
  <clipPath id="pefdd8c580c">
   <rect x="40.150386" y="7.2" width="334.8" height="221.76"/>
  </clipPath>
 </defs>
</svg>
