<?xml version="1.0" encoding="utf-8" standalone="no"?>
<!DOCTYPE svg PUBLIC "-//W3C//DTD SVG 1.1//EN"
  "http://www.w3.org/Graphics/SVG/1.1/DTD/svg11.dtd">
<svg xmlns:xlink="http://www.w3.org/1999/xlink" width="380.260684pt" height="265.600613pt" viewBox="0 0 380.260684 265.600613" xmlns="http://www.w3.org/2000/svg" version="1.1">
 <metadata>
  <rdf:RDF xmlns:dc="http://purl.org/dc/elements/1.1/" xmlns:cc="http://creativecommons.org/ns#" xmlns:rdf="http://www.w3.org/1999/02/22-rdf-syntax-ns#">
   <cc:Work>
    <dc:type rdf:resource="http://purl.org/dc/dcmitype/StillImage"/>
    <dc:date>2025-08-02T13:46:38.315796</dc:date>
    <dc:format>image/svg+xml</dc:format>
    <dc:creator>
     <cc:Agent>
      <dc:title>Matplotlib v3.10.3, https://matplotlib.org/</dc:title>
     </cc:Agent>
    </dc:creator>
   </cc:Work>
  </rdf:RDF>
 </metadata>
 <defs>
  <style type="text/css">*{stroke-linejoin: round; stroke-linecap: butt}</style>
 </defs>
 <g id="figure_1">
  <g id="patch_1">
   <path d="M 0 265.600613 
L 380.260684 265.600613 
L 380.260684 0 
L 0 0 
z
" style="fill: #ffffff"/>
  </g>
  <g id="axes_1">
   <g id="patch_2">
    <path d="M 32.586009 228.96 
L 367.386009 228.96 
L 367.386009 7.2 
L 32.586009 7.2 
z
" style="fill: #ffffff"/>
   </g>
   <g id="matplotlib.axis_1">
    <g id="xtick_1">
     <g id="line2d_1">
      <defs>
       <path id="mceb6459404" d="M 0 0 
L 0 3.5 
" style="stroke: #000000; stroke-width: 0.8"/>
      </defs>
      <g>
       <use xlink:href="#mceb6459404" x="47.804191" y="228.96" style="stroke: #000000; stroke-width: 0.8"/>
      </g>
     </g>
     <g id="text_1">
      <!-- $\mathdefault{0}$ -->
      <g transform="translate(45.313523 243.05832) scale(0.1 -0.1)">
       <defs>
        <path id="CMR17-30" d="M 2688 2038 
C 2688 2430 2682 3099 2413 3613 
C 2176 4063 1798 4224 1466 4224 
C 1158 4224 768 4082 525 3620 
C 269 3137 243 2539 243 2038 
C 243 1671 250 1112 448 623 
C 723 -39 1216 -128 1466 -128 
C 1760 -128 2208 -7 2470 604 
C 2662 1048 2688 1568 2688 2038 
z
M 1466 -26 
C 1056 -26 813 328 723 816 
C 653 1196 653 1749 653 2109 
C 653 2604 653 3015 736 3407 
C 858 3954 1216 4121 1466 4121 
C 1728 4121 2067 3947 2189 3420 
C 2272 3054 2278 2623 2278 2109 
C 2278 1691 2278 1176 2202 797 
C 2067 96 1690 -26 1466 -26 
z
" transform="scale(0.015625)"/>
       </defs>
       <use xlink:href="#CMR17-30" transform="scale(0.996264)"/>
      </g>
     </g>
    </g>
    <g id="xtick_2">
     <g id="line2d_2">
      <g>
       <use xlink:href="#mceb6459404" x="100.353161" y="228.96" style="stroke: #000000; stroke-width: 0.8"/>
      </g>
     </g>
     <g id="text_2">
      <!-- $\mathdefault{500}$ -->
      <g transform="translate(92.881158 243.05832) scale(0.1 -0.1)">
       <defs>
        <path id="CMR17-35" d="M 730 3750 
C 794 3724 1056 3641 1325 3641 
C 1920 3641 2246 3961 2432 4140 
C 2432 4191 2432 4224 2394 4224 
C 2387 4224 2374 4224 2323 4198 
C 2099 4102 1837 4032 1517 4032 
C 1325 4032 1037 4055 723 4191 
C 653 4224 640 4224 634 4224 
C 602 4224 595 4217 595 4090 
L 595 2231 
C 595 2113 595 2080 659 2080 
C 691 2080 704 2093 736 2139 
C 941 2435 1222 2560 1542 2560 
C 1766 2560 2246 2415 2246 1293 
C 2246 1087 2246 716 2054 422 
C 1894 159 1645 25 1370 25 
C 947 25 518 319 403 812 
C 429 806 480 793 506 793 
C 589 793 749 838 749 1036 
C 749 1209 627 1280 506 1280 
C 358 1280 262 1190 262 1011 
C 262 454 704 -128 1382 -128 
C 2042 -128 2669 441 2669 1267 
C 2669 2054 2170 2662 1549 2662 
C 1222 2662 947 2540 730 2304 
L 730 3750 
z
" transform="scale(0.015625)"/>
       </defs>
       <use xlink:href="#CMR17-35" transform="scale(0.996264)"/>
       <use xlink:href="#CMR17-30" transform="translate(45.690477 0) scale(0.996264)"/>
       <use xlink:href="#CMR17-30" transform="translate(91.380954 0) scale(0.996264)"/>
      </g>
     </g>
    </g>
    <g id="xtick_3">
     <g id="line2d_3">
      <g>
       <use xlink:href="#mceb6459404" x="152.902132" y="228.96" style="stroke: #000000; stroke-width: 0.8"/>
      </g>
     </g>
     <g id="text_3">
      <!-- $\mathdefault{1000}$ -->
      <g transform="translate(142.939461 243.05832) scale(0.1 -0.1)">
       <defs>
        <path id="CMR17-31" d="M 1702 4083 
C 1702 4217 1696 4224 1606 4224 
C 1357 3927 979 3833 621 3820 
C 602 3820 570 3820 563 3808 
C 557 3795 557 3782 557 3648 
C 755 3648 1088 3686 1344 3839 
L 1344 467 
C 1344 243 1331 166 781 166 
L 589 166 
L 589 0 
C 896 6 1216 12 1523 12 
C 1830 12 2150 6 2458 0 
L 2458 166 
L 2266 166 
C 1715 166 1702 236 1702 467 
L 1702 4083 
z
" transform="scale(0.015625)"/>
       </defs>
       <use xlink:href="#CMR17-31" transform="scale(0.996264)"/>
       <use xlink:href="#CMR17-30" transform="translate(45.690477 0) scale(0.996264)"/>
       <use xlink:href="#CMR17-30" transform="translate(91.380954 0) scale(0.996264)"/>
       <use xlink:href="#CMR17-30" transform="translate(137.071431 0) scale(0.996264)"/>
      </g>
     </g>
    </g>
    <g id="xtick_4">
     <g id="line2d_4">
      <g>
       <use xlink:href="#mceb6459404" x="205.451102" y="228.96" style="stroke: #000000; stroke-width: 0.8"/>
      </g>
     </g>
     <g id="text_4">
      <!-- $\mathdefault{1500}$ -->
      <g transform="translate(195.488432 243.05832) scale(0.1 -0.1)">
       <use xlink:href="#CMR17-31" transform="scale(0.996264)"/>
       <use xlink:href="#CMR17-35" transform="translate(45.690477 0) scale(0.996264)"/>
       <use xlink:href="#CMR17-30" transform="translate(91.380954 0) scale(0.996264)"/>
       <use xlink:href="#CMR17-30" transform="translate(137.071431 0) scale(0.996264)"/>
      </g>
     </g>
    </g>
    <g id="xtick_5">
     <g id="line2d_5">
      <g>
       <use xlink:href="#mceb6459404" x="258.000072" y="228.96" style="stroke: #000000; stroke-width: 0.8"/>
      </g>
     </g>
     <g id="text_5">
      <!-- $\mathdefault{2000}$ -->
      <g transform="translate(248.037402 243.05832) scale(0.1 -0.1)">
       <defs>
        <path id="CMR17-32" d="M 2669 990 
L 2554 990 
C 2490 537 2438 460 2413 422 
C 2381 371 1920 371 1830 371 
L 602 371 
C 832 620 1280 1073 1824 1596 
C 2214 1966 2669 2400 2669 3033 
C 2669 3788 2067 4224 1395 4224 
C 691 4224 262 3603 262 3027 
C 262 2777 448 2745 525 2745 
C 589 2745 781 2783 781 3007 
C 781 3206 614 3264 525 3264 
C 486 3264 448 3257 422 3244 
C 544 3788 915 4057 1306 4057 
C 1862 4057 2227 3616 2227 3033 
C 2227 2477 1901 1998 1536 1583 
L 262 147 
L 262 0 
L 2515 0 
L 2669 990 
z
" transform="scale(0.015625)"/>
       </defs>
       <use xlink:href="#CMR17-32" transform="scale(0.996264)"/>
       <use xlink:href="#CMR17-30" transform="translate(45.690477 0) scale(0.996264)"/>
       <use xlink:href="#CMR17-30" transform="translate(91.380954 0) scale(0.996264)"/>
       <use xlink:href="#CMR17-30" transform="translate(137.071431 0) scale(0.996264)"/>
      </g>
     </g>
    </g>
    <g id="xtick_6">
     <g id="line2d_6">
      <g>
       <use xlink:href="#mceb6459404" x="310.549043" y="228.96" style="stroke: #000000; stroke-width: 0.8"/>
      </g>
     </g>
     <g id="text_6">
      <!-- $\mathdefault{2500}$ -->
      <g transform="translate(300.586372 243.05832) scale(0.1 -0.1)">
       <use xlink:href="#CMR17-32" transform="scale(0.996264)"/>
       <use xlink:href="#CMR17-35" transform="translate(45.690477 0) scale(0.996264)"/>
       <use xlink:href="#CMR17-30" transform="translate(91.380954 0) scale(0.996264)"/>
       <use xlink:href="#CMR17-30" transform="translate(137.071431 0) scale(0.996264)"/>
      </g>
     </g>
    </g>
    <g id="xtick_7">
     <g id="line2d_7">
      <g>
       <use xlink:href="#mceb6459404" x="363.098013" y="228.96" style="stroke: #000000; stroke-width: 0.8"/>
      </g>
     </g>
     <g id="text_7">
      <!-- $\mathdefault{3000}$ -->
      <g transform="translate(353.135343 243.05832) scale(0.1 -0.1)">
       <defs>
        <path id="CMR17-33" d="M 1414 2176 
C 1984 2176 2234 1673 2234 1094 
C 2234 322 1824 25 1453 25 
C 1114 25 563 193 390 691 
C 422 678 454 678 486 678 
C 640 678 755 780 755 947 
C 755 1132 614 1216 486 1216 
C 378 1216 211 1164 211 927 
C 211 335 787 -128 1466 -128 
C 2176 -128 2720 432 2720 1087 
C 2720 1718 2208 2176 1600 2246 
C 2086 2347 2554 2776 2554 3353 
C 2554 3856 2048 4224 1472 4224 
C 890 4224 378 3862 378 3347 
C 378 3123 544 3084 627 3084 
C 762 3084 877 3167 877 3334 
C 877 3500 762 3584 627 3584 
C 602 3584 570 3584 544 3571 
C 730 3999 1235 4076 1459 4076 
C 1683 4076 2106 3966 2106 3347 
C 2106 3167 2080 2851 1862 2574 
C 1670 2329 1453 2316 1242 2297 
C 1210 2297 1062 2284 1037 2284 
C 992 2278 966 2272 966 2227 
C 966 2182 973 2176 1101 2176 
L 1414 2176 
z
" transform="scale(0.015625)"/>
       </defs>
       <use xlink:href="#CMR17-33" transform="scale(0.996264)"/>
       <use xlink:href="#CMR17-30" transform="translate(45.690477 0) scale(0.996264)"/>
       <use xlink:href="#CMR17-30" transform="translate(91.380954 0) scale(0.996264)"/>
       <use xlink:href="#CMR17-30" transform="translate(137.071431 0) scale(0.996264)"/>
      </g>
     </g>
    </g>
    <g id="text_8">
     <!-- Iteration -->
     <g transform="translate(182.038633 256.278627) scale(0.1 -0.1)">
      <defs>
       <path id="NimbusSanL-Regu-49" d="M 1242 4672 
L 640 4672 
L 640 0 
L 1242 0 
L 1242 4672 
z
" transform="scale(0.015625)"/>
       <path id="NimbusSanL-Regu-74" d="M 1626 3328 
L 1075 3328 
L 1075 4249 
L 544 4249 
L 544 3328 
L 90 3328 
L 90 2892 
L 544 2892 
L 544 402 
C 544 64 774 -128 1190 -128 
C 1318 -128 1446 -116 1626 -84 
L 1626 364 
C 1555 345 1472 339 1370 339 
C 1139 339 1075 402 1075 634 
L 1075 2892 
L 1626 2892 
L 1626 3328 
z
" transform="scale(0.015625)"/>
       <path id="NimbusSanL-Regu-65" d="M 3283 1484 
C 3283 1998 3245 2311 3149 2565 
C 2931 3123 2419 3456 1792 3456 
C 858 3456 256 2734 256 1619 
C 256 545 838 -128 1779 -128 
C 2547 -128 3078 307 3213 1018 
L 2675 1018 
C 2528 588 2227 364 1798 364 
C 1459 364 1171 514 992 787 
C 864 974 819 1161 813 1484 
L 3283 1484 
z
M 826 1920 
C 870 2552 1248 2963 1786 2963 
C 2310 2963 2714 2519 2714 1959 
C 2714 1946 2714 1933 2707 1920 
L 826 1920 
z
" transform="scale(0.015625)"/>
       <path id="NimbusSanL-Regu-72" d="M 442 3328 
L 442 0 
L 979 0 
L 979 1727 
C 979 2203 1101 2514 1357 2698 
C 1523 2819 1683 2857 2054 2863 
L 2054 3404 
C 1965 3449 1920 3456 1850 3456 
C 1504 3456 1242 3251 934 2750 
L 934 3328 
L 442 3328 
z
" transform="scale(0.015625)"/>
       <path id="NimbusSanL-Regu-61" d="M 3424 332 
C 3366 320 3341 320 3309 320 
C 3123 320 3021 415 3021 581 
L 3021 2542 
C 3021 3135 2586 3456 1760 3456 
C 1274 3456 870 3315 646 3065 
C 493 2893 429 2702 416 2370 
L 954 2370 
C 998 2778 1242 2963 1741 2963 
C 2221 2963 2490 2784 2490 2466 
L 2490 2326 
C 2490 2103 2355 2007 1933 1956 
C 1178 1861 1062 1835 858 1753 
C 467 1593 269 1294 269 861 
C 269 256 691 -128 1370 -128 
C 1792 -128 2131 19 2509 364 
C 2547 25 2714 -128 3059 -128 
C 3168 -128 3251 -116 3424 -71 
L 3424 332 
z
M 2490 1071 
C 2490 893 2438 785 2278 638 
C 2061 441 1798 339 1485 339 
C 1069 339 826 536 826 874 
C 826 1224 1062 1402 1632 1485 
C 2195 1562 2310 1587 2490 1670 
L 2490 1071 
z
" transform="scale(0.015625)"/>
       <path id="NimbusSanL-Regu-69" d="M 960 3358 
L 429 3358 
L 429 0 
L 960 0 
L 960 3358 
z
M 960 4672 
L 422 4672 
L 422 3999 
L 960 3999 
L 960 4672 
z
" transform="scale(0.015625)"/>
       <path id="NimbusSanL-Regu-6f" d="M 1741 3456 
C 800 3456 230 2784 230 1663 
C 230 543 794 -128 1747 -128 
C 2688 -128 3264 543 3264 1638 
C 3264 2791 2707 3456 1741 3456 
z
M 1747 2963 
C 2349 2963 2707 2472 2707 1644 
C 2707 861 2336 364 1747 364 
C 1152 364 787 855 787 1663 
C 787 2466 1152 2963 1747 2963 
z
" transform="scale(0.015625)"/>
       <path id="NimbusSanL-Regu-6e" d="M 448 3328 
L 448 0 
L 986 0 
L 986 1835 
C 986 2539 1344 2988 1894 2988 
C 2317 2988 2586 2732 2586 2328 
L 2586 0 
L 3117 0 
L 3117 2539 
C 3117 3097 2701 3456 2054 3456 
C 1555 3456 1235 3263 941 2796 
L 941 3328 
L 448 3328 
z
" transform="scale(0.015625)"/>
      </defs>
      <use xlink:href="#NimbusSanL-Regu-49" transform="scale(0.996264)"/>
      <use xlink:href="#NimbusSanL-Regu-74" transform="translate(27.69517 0) scale(0.996264)"/>
      <use xlink:href="#NimbusSanL-Regu-65" transform="translate(55.390339 0) scale(0.996264)"/>
      <use xlink:href="#NimbusSanL-Regu-72" transform="translate(110.782016 0) scale(0.996264)"/>
      <use xlink:href="#NimbusSanL-Regu-61" transform="translate(142.961149 0) scale(0.996264)"/>
      <use xlink:href="#NimbusSanL-Regu-74" transform="translate(198.352826 0) scale(0.996264)"/>
      <use xlink:href="#NimbusSanL-Regu-69" transform="translate(226.047996 0) scale(0.996264)"/>
      <use xlink:href="#NimbusSanL-Regu-6f" transform="translate(248.16478 0) scale(0.996264)"/>
      <use xlink:href="#NimbusSanL-Regu-6e" transform="translate(303.556457 0) scale(0.996264)"/>
     </g>
    </g>
   </g>
   <g id="matplotlib.axis_2">
    <g id="ytick_1">
     <g id="line2d_8">
      <defs>
       <path id="m86c0719192" d="M 0 0 
L -3.5 0 
" style="stroke: #000000; stroke-width: 0.8"/>
      </defs>
      <g>
       <use xlink:href="#m86c0719192" x="32.586009" y="202.796418" style="stroke: #000000; stroke-width: 0.8"/>
      </g>
     </g>
     <g id="text_9">
      <!-- $\mathdefault{0}$ -->
      <g transform="translate(20.604674 206.345578) scale(0.1 -0.1)">
       <use xlink:href="#CMR17-30" transform="scale(0.996264)"/>
      </g>
     </g>
    </g>
    <g id="ytick_2">
     <g id="line2d_9">
      <g>
       <use xlink:href="#m86c0719192" x="32.586009" y="171.229777" style="stroke: #000000; stroke-width: 0.8"/>
      </g>
     </g>
     <g id="text_10">
      <!-- $\mathdefault{1}$ -->
      <g transform="translate(20.604674 174.778937) scale(0.1 -0.1)">
       <use xlink:href="#CMR17-31" transform="scale(0.996264)"/>
      </g>
     </g>
    </g>
    <g id="ytick_3">
     <g id="line2d_10">
      <g>
       <use xlink:href="#m86c0719192" x="32.586009" y="139.663135" style="stroke: #000000; stroke-width: 0.8"/>
      </g>
     </g>
     <g id="text_11">
      <!-- $\mathdefault{2}$ -->
      <g transform="translate(20.604674 143.212295) scale(0.1 -0.1)">
       <use xlink:href="#CMR17-32" transform="scale(0.996264)"/>
      </g>
     </g>
    </g>
    <g id="ytick_4">
     <g id="line2d_11">
      <g>
       <use xlink:href="#m86c0719192" x="32.586009" y="108.096494" style="stroke: #000000; stroke-width: 0.8"/>
      </g>
     </g>
     <g id="text_12">
      <!-- $\mathdefault{3}$ -->
      <g transform="translate(20.604674 111.645654) scale(0.1 -0.1)">
       <use xlink:href="#CMR17-33" transform="scale(0.996264)"/>
      </g>
     </g>
    </g>
    <g id="ytick_5">
     <g id="line2d_12">
      <g>
       <use xlink:href="#m86c0719192" x="32.586009" y="76.529852" style="stroke: #000000; stroke-width: 0.8"/>
      </g>
     </g>
     <g id="text_13">
      <!-- $\mathdefault{4}$ -->
      <g transform="translate(20.604674 80.079012) scale(0.1 -0.1)">
       <defs>
        <path id="CMR17-34" d="M 2150 4147 
C 2150 4281 2144 4288 2029 4288 
L 128 1254 
L 128 1088 
L 1779 1088 
L 1779 460 
C 1779 230 1766 166 1318 166 
L 1197 166 
L 1197 0 
C 1402 12 1747 12 1965 12 
C 2182 12 2528 12 2733 0 
L 2733 166 
L 2611 166 
C 2163 166 2150 230 2150 460 
L 2150 1088 
L 2803 1088 
L 2803 1254 
L 2150 1254 
L 2150 4147 
z
M 1798 3723 
L 1798 1254 
L 256 1254 
L 1798 3723 
z
" transform="scale(0.015625)"/>
       </defs>
       <use xlink:href="#CMR17-34" transform="scale(0.996264)"/>
      </g>
     </g>
    </g>
    <g id="ytick_6">
     <g id="line2d_13">
      <g>
       <use xlink:href="#m86c0719192" x="32.586009" y="44.963211" style="stroke: #000000; stroke-width: 0.8"/>
      </g>
     </g>
     <g id="text_14">
      <!-- $\mathdefault{5}$ -->
      <g transform="translate(20.604674 48.512371) scale(0.1 -0.1)">
       <use xlink:href="#CMR17-35" transform="scale(0.996264)"/>
      </g>
     </g>
    </g>
    <g id="ytick_7">
     <g id="line2d_14">
      <g>
       <use xlink:href="#m86c0719192" x="32.586009" y="13.396569" style="stroke: #000000; stroke-width: 0.8"/>
      </g>
     </g>
     <g id="text_15">
      <!-- $\mathdefault{6}$ -->
      <g transform="translate(20.604674 16.945729) scale(0.1 -0.1)">
       <defs>
        <path id="CMR17-36" d="M 678 2198 
C 678 3712 1395 4076 1811 4076 
C 1946 4076 2272 4049 2400 3782 
C 2298 3782 2106 3782 2106 3558 
C 2106 3385 2246 3328 2336 3328 
C 2394 3328 2566 3353 2566 3571 
C 2566 3987 2246 4224 1805 4224 
C 1043 4224 243 3411 243 2011 
C 243 257 966 -128 1478 -128 
C 2099 -128 2688 431 2688 1295 
C 2688 2101 2170 2688 1517 2688 
C 1126 2688 838 2430 678 1979 
L 678 2198 
z
M 1478 25 
C 691 25 691 1212 691 1450 
C 691 1914 909 2585 1504 2585 
C 1613 2585 1926 2585 2138 2140 
C 2253 1889 2253 1624 2253 1302 
C 2253 954 2253 696 2118 438 
C 1978 173 1773 25 1478 25 
z
" transform="scale(0.015625)"/>
       </defs>
       <use xlink:href="#CMR17-36" transform="scale(0.996264)"/>
      </g>
     </g>
    </g>
    <g id="text_16">
     <!-- Aerodynamic Coefficients - Blade_0 -->
     <g transform="translate(14.482687 196.280864) rotate(-90) scale(0.1 -0.1)">
      <defs>
       <path id="NimbusSanL-Regu-41" d="M 3034 1408 
L 3514 0 
L 4179 0 
L 2541 4672 
L 1773 4672 
L 109 0 
L 742 0 
L 1235 1408 
L 3034 1408 
z
M 2867 1907 
L 1382 1907 
L 2150 4032 
L 2867 1907 
z
" transform="scale(0.015625)"/>
       <path id="NimbusSanL-Regu-64" d="M 3168 4672 
L 2637 4672 
L 2637 2937 
C 2413 3276 2054 3456 1606 3456 
C 736 3456 166 2759 166 1695 
C 166 568 723 -128 1626 -128 
C 2086 -128 2406 44 2694 460 
L 2694 19 
L 3168 19 
L 3168 4672 
z
M 1696 2956 
C 2272 2956 2637 2447 2637 1651 
C 2637 880 2266 371 1702 371 
C 1114 371 723 887 723 1663 
C 723 2440 1114 2956 1696 2956 
z
" transform="scale(0.015625)"/>
       <path id="NimbusSanL-Regu-79" d="M 2483 3328 
L 1555 724 
L 698 3328 
L 128 3328 
L 1261 -29 
L 1056 -558 
C 973 -794 851 -884 627 -884 
C 550 -884 461 -871 346 -845 
L 346 -1325 
C 454 -1383 563 -1408 704 -1408 
C 877 -1408 1062 -1351 1203 -1248 
C 1370 -1127 1466 -986 1568 -718 
L 3059 3328 
L 2483 3328 
z
" transform="scale(0.015625)"/>
       <path id="NimbusSanL-Regu-6d" d="M 448 3328 
L 448 0 
L 986 0 
L 986 2089 
C 986 2597 1338 2988 1773 2988 
C 2170 2988 2394 2744 2394 2315 
L 2394 0 
L 2931 0 
L 2931 2109 
C 2931 2597 3283 2988 3718 2988 
C 4109 2988 4339 2738 4339 2315 
L 4339 0 
L 4877 0 
L 4877 2520 
C 4877 3123 4531 3456 3904 3456 
C 3456 3456 3187 3321 2874 2943 
C 2675 3302 2406 3456 1971 3456 
C 1523 3456 1229 3289 941 2886 
L 941 3328 
L 448 3328 
z
" transform="scale(0.015625)"/>
       <path id="NimbusSanL-Regu-63" d="M 3014 2237 
C 2989 2561 2918 2771 2790 2956 
C 2560 3270 2157 3456 1690 3456 
C 787 3456 198 2740 198 1632 
C 198 555 774 -128 1683 -128 
C 2483 -128 2989 352 3053 1167 
L 2515 1167 
C 2426 632 2150 364 1696 364 
C 1107 364 755 842 755 1632 
C 755 2466 1101 2963 1683 2963 
C 2131 2963 2413 2701 2477 2237 
L 3014 2237 
z
" transform="scale(0.015625)"/>
       <path id="NimbusSanL-Regu-43" d="M 4237 3219 
C 4051 4236 3462 4736 2438 4736 
C 1811 4736 1306 4537 960 4154 
C 538 3696 307 3035 307 2284 
C 307 1522 544 867 986 415 
C 1344 44 1805 -128 2413 -128 
C 3552 -128 4192 485 4333 1712 
L 3718 1712 
C 3667 1394 3603 1178 3507 994 
C 3315 612 2918 396 2419 396 
C 1491 396 902 1134 902 2291 
C 902 3480 1466 4211 2368 4211 
C 2746 4211 3098 4096 3290 3918 
C 3462 3759 3558 3562 3629 3219 
L 4237 3219 
z
" transform="scale(0.015625)"/>
       <path id="NimbusSanL-Regu-66" d="M 1651 3328 
L 1094 3328 
L 1094 3860 
C 1094 4087 1222 4204 1466 4204 
C 1510 4204 1530 4204 1651 4198 
L 1651 4639 
C 1530 4665 1459 4672 1350 4672 
C 858 4672 563 4390 563 3905 
L 563 3328 
L 115 3328 
L 115 2892 
L 563 2892 
L 563 0 
L 1094 0 
L 1094 2892 
L 1651 2892 
L 1651 3328 
z
" transform="scale(0.015625)"/>
       <path id="NimbusSanL-Regu-2" d="M 1613 3328 
L 1056 3328 
L 1056 3860 
C 1056 4087 1184 4204 1427 4204 
C 1472 4204 1491 4204 1613 4198 
L 1613 4639 
C 1491 4665 1421 4672 1312 4672 
C 819 4672 525 4390 525 3905 
L 525 3328 
L 77 3328 
L 77 2892 
L 525 2892 
L 525 0 
L 1056 0 
L 1056 2892 
L 1613 2892 
L 1613 3328 
z
M 2790 3328 
L 2259 3328 
L 2259 0 
L 2790 0 
L 2790 3328 
z
M 2790 4672 
L 2259 4672 
L 2259 3999 
L 2790 3999 
L 2790 4672 
z
" transform="scale(0.015625)"/>
       <path id="NimbusSanL-Regu-73" d="M 2803 2428 
C 2797 3084 2362 3456 1587 3456 
C 806 3456 301 3052 301 2434 
C 301 1912 570 1663 1363 1472 
L 1862 1351 
C 2234 1262 2381 1129 2381 887 
C 2381 574 2067 364 1600 364 
C 1312 364 1069 447 934 587 
C 851 683 813 778 781 1014 
L 218 1014 
C 243 243 678 -128 1555 -128 
C 2400 -128 2938 288 2938 931 
C 2938 1428 2656 1702 1990 1861 
L 1478 1982 
C 1043 2084 858 2224 858 2459 
C 858 2765 1133 2963 1568 2963 
C 1997 2963 2227 2778 2240 2428 
L 2803 2428 
z
" transform="scale(0.015625)"/>
       <path id="NimbusSanL-Regu-2d" d="M 1818 1996 
L 294 1996 
L 294 1536 
L 1818 1536 
L 1818 1996 
z
" transform="scale(0.015625)"/>
       <path id="NimbusSanL-Regu-42" d="M 506 0 
L 2611 0 
C 3053 0 3379 121 3629 390 
C 3859 632 3987 961 3987 1321 
C 3987 1878 3731 2214 3136 2444 
C 3558 2643 3782 2994 3782 3476 
C 3782 3821 3654 4127 3411 4345 
C 3168 4569 2848 4672 2400 4672 
L 506 4672 
L 506 0 
z
M 1101 2636 
L 1101 4147 
L 2253 4147 
C 2586 4147 2771 4101 2931 3977 
C 3098 3847 3187 3652 3187 3391 
C 3187 3138 3098 2936 2931 2806 
C 2771 2682 2586 2636 2253 2636 
L 1101 2636 
z
M 1101 524 
L 1101 2112 
L 2554 2112 
C 2842 2112 3034 2042 3174 1890 
C 3315 1745 3392 1542 3392 1315 
C 3392 1093 3315 891 3174 746 
C 3034 594 2842 524 2554 524 
L 1101 524 
z
" transform="scale(0.015625)"/>
       <path id="NimbusSanL-Regu-6c" d="M 973 4672 
L 435 4672 
L 435 0 
L 973 0 
L 973 4672 
z
" transform="scale(0.015625)"/>
       <path id="NimbusSanL-Regu-30" d="M 1760 4544 
C 1338 4544 954 4358 717 4044 
C 422 3649 275 3043 275 2207 
C 275 683 787 -128 1760 -128 
C 2720 -128 3245 683 3245 2169 
C 3245 3049 3104 3636 2803 4044 
C 2566 4364 2189 4544 1760 4544 
z
M 1760 4044 
C 2368 4044 2669 3432 2669 2220 
C 2669 938 2374 339 1747 339 
C 1152 339 851 964 851 2201 
C 851 3438 1152 4044 1760 4044 
z
" transform="scale(0.015625)"/>
      </defs>
      <use xlink:href="#NimbusSanL-Regu-41" transform="scale(0.996264)"/>
      <use xlink:href="#NimbusSanL-Regu-65" transform="translate(66.450031 0) scale(0.996264)"/>
      <use xlink:href="#NimbusSanL-Regu-72" transform="translate(121.841708 0) scale(0.996264)"/>
      <use xlink:href="#NimbusSanL-Regu-6f" transform="translate(155.016938 0) scale(0.996264)"/>
      <use xlink:href="#NimbusSanL-Regu-64" transform="translate(210.408615 0) scale(0.996264)"/>
      <use xlink:href="#NimbusSanL-Regu-79" transform="translate(265.800292 0) scale(0.996264)"/>
      <use xlink:href="#NimbusSanL-Regu-6e" transform="translate(315.613492 0) scale(0.996264)"/>
      <use xlink:href="#NimbusSanL-Regu-61" transform="translate(371.005169 0) scale(0.996264)"/>
      <use xlink:href="#NimbusSanL-Regu-6d" transform="translate(426.396846 0) scale(0.996264)"/>
      <use xlink:href="#NimbusSanL-Regu-69" transform="translate(509.385276 0) scale(0.996264)"/>
      <use xlink:href="#NimbusSanL-Regu-63" transform="translate(531.502061 0) scale(0.996264)"/>
      <use xlink:href="#NimbusSanL-Regu-43" transform="translate(609.010431 0) scale(0.996264)"/>
      <use xlink:href="#NimbusSanL-Regu-6f" transform="translate(680.940416 0) scale(0.996264)"/>
      <use xlink:href="#NimbusSanL-Regu-65" transform="translate(736.332093 0) scale(0.996264)"/>
      <use xlink:href="#NimbusSanL-Regu-66" transform="translate(791.72377 0) scale(0.996264)"/>
      <use xlink:href="#NimbusSanL-Regu-2" transform="translate(819.418939 0) scale(0.996264)"/>
      <use xlink:href="#NimbusSanL-Regu-63" transform="translate(869.23214 0) scale(0.996264)"/>
      <use xlink:href="#NimbusSanL-Regu-69" transform="translate(919.04534 0) scale(0.996264)"/>
      <use xlink:href="#NimbusSanL-Regu-65" transform="translate(941.162125 0) scale(0.996264)"/>
      <use xlink:href="#NimbusSanL-Regu-6e" transform="translate(996.553802 0) scale(0.996264)"/>
      <use xlink:href="#NimbusSanL-Regu-74" transform="translate(1051.945479 0) scale(0.996264)"/>
      <use xlink:href="#NimbusSanL-Regu-73" transform="translate(1079.640648 0) scale(0.996264)"/>
      <use xlink:href="#NimbusSanL-Regu-2d" transform="translate(1157.149018 0) scale(0.996264)"/>
      <use xlink:href="#NimbusSanL-Regu-42" transform="translate(1218.019418 0) scale(0.996264)"/>
      <use xlink:href="#NimbusSanL-Regu-6c" transform="translate(1284.469449 0) scale(0.996264)"/>
      <use xlink:href="#NimbusSanL-Regu-61" transform="translate(1306.586233 0) scale(0.996264)"/>
      <use xlink:href="#NimbusSanL-Regu-64" transform="translate(1361.97791 0) scale(0.996264)"/>
      <use xlink:href="#NimbusSanL-Regu-65" transform="translate(1417.369587 0) scale(0.996264)"/>
      <use xlink:href="#NimbusSanL-Regu-30" transform="translate(1508.626829 0) scale(0.996264)"/>
      <path d="M 1478.738605 0 
L 1508.626829 0 
L 1508.626829 0.3985 
L 1478.738605 0.3985 
L 1478.738605 0 
z
"/>
     </g>
    </g>
   </g>
   <g id="line2d_15">
    <path d="M 47.804191 159.322121 
L 48.224583 34.918543 
L 48.539877 17.28 
L 48.644974 18.155988 
L 49.275562 39.058531 
L 49.38066 38.850093 
L 49.485758 39.206698 
L 49.695954 40.783241 
L 49.90615 41.185544 
L 50.221444 42.647682 
L 50.536737 45.603195 
L 50.746933 49.511829 
L 50.957129 57.389536 
L 51.272423 75.419773 
L 51.482619 77.588438 
L 51.692815 81.559349 
L 52.008109 93.298094 
L 52.323402 118.542167 
L 52.533598 132.739944 
L 52.848892 137.742431 
L 53.164186 148.867332 
L 53.584578 178.138271 
L 53.899872 198.06815 
L 54.215165 199.483501 
L 54.425361 201.35335 
L 54.740655 206.879886 
L 55.161047 214.405438 
L 55.266145 214.167333 
L 55.476341 212.770426 
L 56.00183 212.696904 
L 56.317124 213.007122 
L 56.422222 212.795358 
L 56.632418 210.686508 
L 56.842614 208.484331 
L 57.157908 207.812524 
L 57.473201 206.540708 
L 57.788495 204.272815 
L 58.103789 200.181145 
L 58.313985 197.597326 
L 58.629279 196.674521 
L 58.839475 195.456127 
L 59.049671 193.245716 
L 59.364964 186.413112 
L 59.785356 173.61676 
L 60.10065 172.153809 
L 60.415944 169.261105 
L 60.731238 164.621211 
L 60.941434 159.048046 
L 61.466923 137.462477 
L 61.782217 135.708644 
L 62.097511 132.240686 
L 62.623001 126.003478 
L 62.728099 126.192247 
L 62.938294 127.215705 
L 63.253588 127.640401 
L 63.568882 128.637895 
L 63.884176 130.607472 
L 64.19947 134.456351 
L 64.409666 136.748379 
L 64.619861 137.15935 
L 64.830057 137.928711 
L 65.145351 140.278454 
L 65.460645 145.374876 
L 65.775939 151.97184 
L 66.091233 153.166559 
L 66.406526 155.802288 
L 66.72182 160.67352 
L 67.352408 171.89362 
L 67.667702 173.243243 
L 67.982996 176.004286 
L 68.298289 180.807548 
L 68.508485 186.20886 
L 68.718681 190.774254 
L 69.033975 192.310791 
L 69.349269 195.801523 
L 69.664563 202.810578 
L 70.084954 212.778441 
L 70.400248 213.703401 
L 70.715542 215.445986 
L 71.241032 218.88 
L 71.34613 218.627306 
L 71.556326 216.996799 
L 71.871619 212.101915 
L 72.081815 209.202974 
L 72.397109 207.975496 
L 72.712403 205.349643 
L 73.027697 200.580906 
L 73.448088 192.804754 
L 73.763382 191.772945 
L 74.078676 189.539315 
L 74.39397 185.440857 
L 74.91946 176.605145 
L 75.234753 175.875037 
L 75.550047 174.412029 
L 76.285733 169.796287 
L 76.811223 169.461459 
L 77.231614 169.160156 
L 77.44181 169.348221 
L 77.757104 170.124596 
L 78.177496 170.420767 
L 78.49279 170.959948 
L 78.808083 171.962826 
L 79.543769 174.704007 
L 79.859063 175.254937 
L 80.279455 175.442609 
L 80.699846 175.897049 
L 81.330434 176.775938 
L 81.435532 176.77694 
L 81.645728 176.673918 
L 82.06612 176.628943 
L 82.381413 176.403264 
L 82.801805 175.79985 
L 83.012001 175.583838 
L 83.537491 175.438639 
L 83.957883 175.050995 
L 84.58847 174.198499 
L 85.324156 173.902356 
L 85.744548 173.596786 
L 86.270037 172.824757 
L 86.795527 171.88956 
L 87.63631 171.70652 
L 88.1618 171.626832 
L 88.371996 171.702743 
L 89.002584 171.815526 
L 89.422975 172.163753 
L 89.738269 172.493507 
L 90.368857 172.652654 
L 91.20964 173.041845 
L 92.26062 173.111448 
L 93.626893 173.401923 
L 94.257481 173.756178 
L 94.78297 173.941084 
L 95.203362 174.310425 
L 95.518656 174.614439 
L 96.149244 174.77178 
L 96.569635 175.089004 
L 96.884929 175.575328 
L 97.095125 175.856257 
L 97.620615 176.073435 
L 97.935909 176.430812 
L 98.251203 177.191007 
L 98.461398 177.62841 
L 98.88179 177.85106 
L 99.197084 178.221103 
L 99.512378 178.894419 
L 100.037867 180.156725 
L 100.563357 180.349933 
L 101.404141 180.761078 
L 102.350022 180.643979 
L 102.665316 180.366166 
L 102.875512 180.16396 
L 103.401002 180.004523 
L 103.716295 179.744065 
L 104.031589 179.199262 
L 104.346883 178.506625 
L 104.767275 178.302763 
L 105.082569 177.944401 
L 105.397862 177.26627 
L 105.713156 176.499141 
L 106.133548 176.285392 
L 106.448842 175.930893 
L 106.869234 175.048552 
L 107.184527 174.403996 
L 107.710017 174.183017 
L 108.760997 173.545584 
L 109.496682 173.589558 
L 109.706878 173.735766 
L 110.12727 174.14462 
L 110.547662 174.316331 
L 110.862955 174.636789 
L 111.178249 175.27611 
L 111.598641 176.347861 
L 112.019033 176.547708 
L 112.439424 177.047639 
L 113.070012 177.996345 
L 113.595502 178.206419 
L 114.436285 178.689404 
L 115.277069 178.614903 
L 115.592363 178.38575 
L 115.907657 177.975282 
L 116.433146 177.781806 
L 116.74844 177.45452 
L 117.063734 176.788358 
L 117.27393 176.41663 
L 117.694322 176.235363 
L 118.009615 175.91186 
L 118.324909 175.306865 
L 118.745301 174.213342 
L 119.165693 174.000743 
L 119.480987 173.636412 
L 119.901378 172.761877 
L 120.216672 172.16119 
L 120.742162 171.966537 
L 121.793141 171.373819 
L 122.633925 171.398579 
L 122.844121 171.558352 
L 123.054317 171.722713 
L 123.684904 171.909317 
L 124.000198 172.18602 
L 124.525688 172.777953 
L 125.051177 173.000632 
L 125.471569 173.478671 
L 125.997059 174.199819 
L 126.522549 174.448881 
L 126.94294 174.93554 
L 127.363332 175.524931 
L 127.99392 175.726208 
L 128.519409 176.167472 
L 128.729605 176.283313 
L 129.570389 176.437433 
L 130.200976 176.551307 
L 131.146858 176.465631 
L 131.56725 176.189499 
L 131.987641 175.931934 
L 132.618229 175.734389 
L 133.038621 175.375953 
L 133.248817 175.237971 
L 133.984502 175.065786 
L 134.509992 174.699347 
L 134.720188 174.597667 
L 135.666069 174.438315 
L 136.191559 174.430732 
L 137.242539 174.549599 
L 137.978224 174.742661 
L 138.71391 174.9236 
L 139.344497 175.107545 
L 141.76175 175.204458 
L 142.077044 175.147715 
L 142.917827 175.011971 
L 144.284101 174.563768 
L 145.545276 174.247704 
L 147.121745 174.077016 
L 148.698214 174.177267 
L 151.115467 174.55563 
L 152.061348 174.727759 
L 153.00723 174.843126 
L 153.742915 174.703628 
L 155.949972 174.011769 
L 158.051931 174.349992 
L 158.682518 174.426445 
L 160.469183 174.428679 
L 161.204869 174.339739 
L 163.096632 174.072118 
L 164.147611 173.968244 
L 165.093493 174.0469 
L 165.829178 174.430887 
L 166.459766 174.739866 
L 167.195452 174.893609 
L 168.036235 175.163423 
L 168.771921 175.33699 
L 169.402508 175.484118 
L 171.609565 175.516323 
L 178.125637 174.446715 
L 180.122498 174.472326 
L 182.329555 174.774905 
L 184.746808 174.946183 
L 186.428375 174.986644 
L 190.527194 174.754188 
L 192.944447 174.530827 
L 197.358561 174.389662 
L 199.565617 174.551731 
L 200.931891 174.689701 
L 204.925612 174.749966 
L 208.183649 174.614025 
L 213.648741 174.584099 
L 225.629907 174.566437 
L 231.200098 174.598155 
L 238.872247 174.648967 
L 267.248691 174.544092 
L 316.119234 174.445471 
L 349.119987 174.673187 
L 352.167827 174.65661 
L 352.167827 174.65661 
" clip-path="url(#pef11c1d8a3)" style="fill: none; stroke: #1f77b4; stroke-width: 1.5; stroke-linecap: square"/>
   </g>
   <g id="line2d_16">
    <path d="M 47.804191 186.662671 
L 48.119485 152.432086 
L 48.434779 149.620802 
L 48.539877 149.667682 
L 48.750072 151.282389 
L 49.065366 153.734502 
L 49.170464 153.745895 
L 49.485758 152.624035 
L 49.695954 152.146066 
L 50.116346 151.942321 
L 50.431639 151.506419 
L 50.746933 150.652826 
L 51.062227 149.749461 
L 51.272423 150.011284 
L 51.692815 150.281186 
L 51.903011 150.682403 
L 52.113207 151.562897 
L 52.323402 153.551155 
L 52.533598 155.334412 
L 52.848892 156.053402 
L 53.059088 157.043148 
L 53.374382 160.09462 
L 53.899872 167.631643 
L 54.215165 168.152075 
L 54.425361 168.873573 
L 54.635557 170.265841 
L 55.266145 175.754263 
L 55.371243 175.701813 
L 55.686537 176.108492 
L 55.896732 176.74221 
L 56.106928 178.138098 
L 56.52732 183.757539 
L 56.842614 186.924821 
L 57.05281 187.305666 
L 57.263006 188.050868 
L 57.578299 190.151259 
L 58.103789 195.966775 
L 58.313985 197.297716 
L 58.629279 197.656731 
L 58.944573 198.483142 
L 59.259866 199.79563 
L 59.57516 202.250174 
L 59.785356 203.420729 
L 60.10065 203.742362 
L 60.731238 204.7822 
L 60.836336 204.417726 
L 60.941434 203.294108 
L 61.151629 197.223221 
L 61.466923 188.395512 
L 61.782217 186.949125 
L 62.097511 184.060193 
L 62.728099 177.214481 
L 62.938294 176.822467 
L 63.463784 176.785081 
L 63.67398 176.583938 
L 63.884176 176.019663 
L 64.094372 174.746052 
L 64.409666 172.592598 
L 64.724959 172.204207 
L 65.145351 171.16993 
L 65.565743 170.123965 
L 65.775939 170.258122 
L 66.301429 170.468215 
L 66.511624 170.78935 
L 66.72182 171.454122 
L 66.932016 172.703324 
L 67.24731 174.982643 
L 67.562604 175.403893 
L 67.877898 176.312508 
L 68.193191 178.105361 
L 68.823779 182.617152 
L 69.139073 183.140585 
L 69.454367 184.183777 
L 69.769661 186.176241 
L 70.084954 188.749366 
L 70.400248 189.224925 
L 70.715542 190.373413 
L 71.030836 192.59214 
L 71.871619 199.961031 
L 72.081815 200.260751 
L 72.922599 200.175325 
L 73.132795 199.710334 
L 73.448088 198.396818 
L 73.763382 198.092685 
L 74.078676 197.371839 
L 74.39397 195.774204 
L 74.709264 192.450966 
L 74.91946 190.726015 
L 75.234753 190.194188 
L 75.550047 189.048733 
L 75.970439 186.346298 
L 76.285733 184.658839 
L 76.706125 184.300113 
L 77.546908 183.12789 
L 77.757104 183.307646 
L 78.177496 183.442804 
L 78.49279 183.748822 
L 78.808083 184.469799 
L 79.753965 187.620739 
L 80.384553 187.788935 
L 80.910042 187.991371 
L 81.120238 187.889899 
L 81.645728 187.47304 
L 82.276316 187.370431 
L 82.696707 187.30666 
L 83.327295 187.557483 
L 83.852785 187.804848 
L 84.273176 188.275816 
L 84.483372 188.470759 
L 85.008862 188.612115 
L 85.534352 189.02018 
L 85.849645 189.133607 
L 86.164939 188.845484 
L 86.585331 188.033897 
L 86.900625 187.531107 
L 87.426115 187.343696 
L 87.846506 186.954209 
L 88.371996 186.402615 
L 89.528073 186.364181 
L 89.843367 186.429851 
L 90.579053 186.56358 
L 91.104543 186.650269 
L 92.365718 186.520719 
L 92.891208 186.387841 
L 93.837089 186.231393 
L 94.152383 186.170464 
L 94.993166 186.027727 
L 95.30846 185.79231 
L 95.518656 185.636169 
L 96.149244 185.462772 
L 96.569635 185.119482 
L 96.990027 184.672011 
L 98.146105 184.757076 
L 98.566496 185.120137 
L 99.091986 185.358356 
L 99.40728 185.764049 
L 99.722574 186.661415 
L 100.037867 187.596115 
L 100.458259 187.860075 
L 100.773553 188.319352 
L 101.193945 189.475523 
L 101.404141 189.902019 
L 101.824532 190.098154 
L 102.244924 190.562677 
L 102.875512 191.461674 
L 104.031589 191.53845 
L 104.451981 191.16706 
L 104.872373 190.989387 
L 105.187667 190.650203 
L 105.50296 189.933183 
L 105.713156 189.526371 
L 106.133548 189.321045 
L 106.448842 188.962733 
L 106.764136 188.303709 
L 107.184527 187.205045 
L 107.604919 186.999952 
L 108.025311 186.509115 
L 108.655899 185.648605 
L 109.181388 185.454169 
L 110.232368 184.878675 
L 111.283347 184.882175 
L 111.808837 185.033649 
L 112.439424 185.189595 
L 113.280208 185.568948 
L 113.910796 185.785175 
L 114.646481 186.160442 
L 115.382167 186.353658 
L 116.117852 186.582755 
L 117.904517 186.592304 
L 118.430007 186.453394 
L 118.850399 186.277027 
L 119.480987 186.139584 
L 119.901378 185.856376 
L 120.216672 185.586788 
L 120.84726 185.437563 
L 121.372749 185.060069 
L 121.582945 184.93607 
L 122.318631 184.779358 
L 123.474708 184.368268 
L 125.051177 184.249105 
L 125.681765 184.395786 
L 125.891961 184.475614 
L 126.732744 184.634672 
L 127.153136 184.911881 
L 127.363332 185.026361 
L 128.099018 185.17553 
L 129.149997 185.512624 
L 131.251956 185.739184 
L 132.828425 185.390813 
L 133.459013 185.206969 
L 134.299796 185.03768 
L 134.930384 184.903109 
L 136.401755 184.939484 
L 137.242539 185.065189 
L 137.978224 185.2558 
L 138.71391 185.438572 
L 139.344497 185.643253 
L 140.185281 185.811501 
L 140.710771 185.89993 
L 143.548415 185.934332 
L 144.704492 185.794517 
L 145.124884 185.743993 
L 146.175863 185.578781 
L 146.596255 185.53123 
L 150.379781 185.435891 
L 153.848013 185.998768 
L 154.793895 185.649054 
L 155.634678 185.416147 
L 156.370364 185.463171 
L 157.421343 185.602354 
L 161.204869 185.867099 
L 162.781338 185.666061 
L 166.564864 185.243917 
L 168.561725 185.391288 
L 172.555447 185.812423 
L 175.498189 185.85735 
L 177.49505 185.691726 
L 178.230735 185.616623 
L 179.176617 185.457734 
L 180.647988 185.176763 
L 182.224457 185.150417 
L 186.113081 185.273696 
L 190.001705 185.526568 
L 194.100524 185.505322 
L 196.622875 185.363917 
L 197.88405 185.314274 
L 199.986009 185.255449 
L 218.693443 185.406172 
L 227.626768 185.360741 
L 232.881665 185.390696 
L 269.35065 185.382501 
L 284.484753 185.377589 
L 318.32629 185.444695 
L 339.76627 185.534123 
L 352.167827 185.503486 
L 352.167827 185.503486 
" clip-path="url(#pef11c1d8a3)" style="fill: none; stroke: #ff7f0e; stroke-width: 1.5; stroke-linecap: square"/>
   </g>
   <g id="patch_3">
    <path d="M 32.586009 228.96 
L 32.586009 7.2 
" style="fill: none; stroke: #000000; stroke-width: 0.8; stroke-linejoin: miter; stroke-linecap: square"/>
   </g>
   <g id="patch_4">
    <path d="M 367.386009 228.96 
L 367.386009 7.2 
" style="fill: none; stroke: #000000; stroke-width: 0.8; stroke-linejoin: miter; stroke-linecap: square"/>
   </g>
   <g id="patch_5">
    <path d="M 32.586009 228.96 
L 367.386009 228.96 
" style="fill: none; stroke: #000000; stroke-width: 0.8; stroke-linejoin: miter; stroke-linecap: square"/>
   </g>
   <g id="patch_6">
    <path d="M 32.586009 7.2 
L 367.386009 7.2 
" style="fill: none; stroke: #000000; stroke-width: 0.8; stroke-linejoin: miter; stroke-linecap: square"/>
   </g>
   <g id="legend_1">
    <g id="patch_7">
     <path d="M 314.000015 43.640613 
L 360.386009 43.640613 
Q 362.386009 43.640613 362.386009 41.640613 
L 362.386009 14.2 
Q 362.386009 12.2 360.386009 12.2 
L 314.000015 12.2 
Q 312.000015 12.2 312.000015 14.2 
L 312.000015 41.640613 
Q 312.000015 43.640613 314.000015 43.640613 
z
" style="fill: #ffffff; opacity: 0.8; stroke: #cccccc; stroke-linejoin: miter"/>
    </g>
    <g id="line2d_17">
     <path d="M 316.000015 19.79832 
L 326.000015 19.79832 
L 336.000015 19.79832 
" style="fill: none; stroke: #1f77b4; stroke-width: 1.5; stroke-linecap: square"/>
    </g>
    <g id="text_17">
     <!-- CD -->
     <g transform="translate(344.000015 23.29832) scale(0.1 -0.1)">
      <defs>
       <path id="NimbusSanL-Regu-44" d="M 570 0 
L 2368 0 
C 3546 0 4269 883 4269 2339 
C 4269 3788 3552 4672 2368 4672 
L 570 4672 
L 570 0 
z
M 1165 524 
L 1165 4147 
L 2266 4147 
C 3187 4147 3674 3525 3674 2332 
C 3674 1153 3187 524 2266 524 
L 1165 524 
z
" transform="scale(0.015625)"/>
      </defs>
      <use xlink:href="#NimbusSanL-Regu-43" transform="scale(0.996264)"/>
      <use xlink:href="#NimbusSanL-Regu-44" transform="translate(71.929985 0) scale(0.996264)"/>
     </g>
    </g>
    <g id="line2d_18">
     <path d="M 316.000015 34.018627 
L 326.000015 34.018627 
L 336.000015 34.018627 
" style="fill: none; stroke: #ff7f0e; stroke-width: 1.5; stroke-linecap: square"/>
    </g>
    <g id="text_18">
     <!-- CL -->
     <g transform="translate(344.000015 37.518627) scale(0.1 -0.1)">
      <defs>
       <path id="NimbusSanL-Regu-4c" d="M 1107 4672 
L 512 4672 
L 512 0 
L 3411 0 
L 3411 524 
L 1107 524 
L 1107 4672 
z
" transform="scale(0.015625)"/>
      </defs>
      <use xlink:href="#NimbusSanL-Regu-43" transform="scale(0.996264)"/>
      <use xlink:href="#NimbusSanL-Regu-4c" transform="translate(71.929985 0) scale(0.996264)"/>
     </g>
    </g>
   </g>
  </g>
 </g>
 <defs>
  <clipPath id="pef11c1d8a3">
   <rect x="32.586009" y="7.2" width="334.8" height="221.76"/>
  </clipPath>
 </defs>
</svg>
