<?xml version="1.0" encoding="utf-8" standalone="no"?>
<!DOCTYPE svg PUBLIC "-//W3C//DTD SVG 1.1//EN"
  "http://www.w3.org/Graphics/SVG/1.1/DTD/svg11.dtd">
<svg xmlns:xlink="http://www.w3.org/1999/xlink" width="385.242019pt" height="265.600613pt" viewBox="0 0 385.242019 265.600613" xmlns="http://www.w3.org/2000/svg" version="1.1">
 <metadata>
  <rdf:RDF xmlns:dc="http://purl.org/dc/elements/1.1/" xmlns:cc="http://creativecommons.org/ns#" xmlns:rdf="http://www.w3.org/1999/02/22-rdf-syntax-ns#">
   <cc:Work>
    <dc:type rdf:resource="http://purl.org/dc/dcmitype/StillImage"/>
    <dc:date>2025-08-02T13:46:38.080696</dc:date>
    <dc:format>image/svg+xml</dc:format>
    <dc:creator>
     <cc:Agent>
      <dc:title>Matplotlib v3.10.3, https://matplotlib.org/</dc:title>
     </cc:Agent>
    </dc:creator>
   </cc:Work>
  </rdf:RDF>
 </metadata>
 <defs>
  <style type="text/css">*{stroke-linejoin: round; stroke-linecap: butt}</style>
 </defs>
 <g id="figure_1">
  <g id="patch_1">
   <path d="M 0 265.600613 
L 385.242019 265.600613 
L 385.242019 0 
L 0 0 
z
" style="fill: #ffffff"/>
  </g>
  <g id="axes_1">
   <g id="patch_2">
    <path d="M 37.567344 228.96 
L 372.367344 228.96 
L 372.367344 7.2 
L 37.567344 7.2 
z
" style="fill: #ffffff"/>
   </g>
   <g id="matplotlib.axis_1">
    <g id="xtick_1">
     <g id="line2d_1">
      <defs>
       <path id="m9568494ad5" d="M 0 0 
L 0 3.5 
" style="stroke: #000000; stroke-width: 0.8"/>
      </defs>
      <g>
       <use xlink:href="#m9568494ad5" x="52.785526" y="228.96" style="stroke: #000000; stroke-width: 0.8"/>
      </g>
     </g>
     <g id="text_1">
      <!-- $\mathdefault{0}$ -->
      <g transform="translate(50.294859 243.05832) scale(0.1 -0.1)">
       <defs>
        <path id="CMR17-30" d="M 2688 2038 
C 2688 2430 2682 3099 2413 3613 
C 2176 4063 1798 4224 1466 4224 
C 1158 4224 768 4082 525 3620 
C 269 3137 243 2539 243 2038 
C 243 1671 250 1112 448 623 
C 723 -39 1216 -128 1466 -128 
C 1760 -128 2208 -7 2470 604 
C 2662 1048 2688 1568 2688 2038 
z
M 1466 -26 
C 1056 -26 813 328 723 816 
C 653 1196 653 1749 653 2109 
C 653 2604 653 3015 736 3407 
C 858 3954 1216 4121 1466 4121 
C 1728 4121 2067 3947 2189 3420 
C 2272 3054 2278 2623 2278 2109 
C 2278 1691 2278 1176 2202 797 
C 2067 96 1690 -26 1466 -26 
z
" transform="scale(0.015625)"/>
       </defs>
       <use xlink:href="#CMR17-30" transform="scale(0.996264)"/>
      </g>
     </g>
    </g>
    <g id="xtick_2">
     <g id="line2d_2">
      <g>
       <use xlink:href="#m9568494ad5" x="105.334497" y="228.96" style="stroke: #000000; stroke-width: 0.8"/>
      </g>
     </g>
     <g id="text_2">
      <!-- $\mathdefault{500}$ -->
      <g transform="translate(97.862494 243.05832) scale(0.1 -0.1)">
       <defs>
        <path id="CMR17-35" d="M 730 3750 
C 794 3724 1056 3641 1325 3641 
C 1920 3641 2246 3961 2432 4140 
C 2432 4191 2432 4224 2394 4224 
C 2387 4224 2374 4224 2323 4198 
C 2099 4102 1837 4032 1517 4032 
C 1325 4032 1037 4055 723 4191 
C 653 4224 640 4224 634 4224 
C 602 4224 595 4217 595 4090 
L 595 2231 
C 595 2113 595 2080 659 2080 
C 691 2080 704 2093 736 2139 
C 941 2435 1222 2560 1542 2560 
C 1766 2560 2246 2415 2246 1293 
C 2246 1087 2246 716 2054 422 
C 1894 159 1645 25 1370 25 
C 947 25 518 319 403 812 
C 429 806 480 793 506 793 
C 589 793 749 838 749 1036 
C 749 1209 627 1280 506 1280 
C 358 1280 262 1190 262 1011 
C 262 454 704 -128 1382 -128 
C 2042 -128 2669 441 2669 1267 
C 2669 2054 2170 2662 1549 2662 
C 1222 2662 947 2540 730 2304 
L 730 3750 
z
" transform="scale(0.015625)"/>
       </defs>
       <use xlink:href="#CMR17-35" transform="scale(0.996264)"/>
       <use xlink:href="#CMR17-30" transform="translate(45.690477 0) scale(0.996264)"/>
       <use xlink:href="#CMR17-30" transform="translate(91.380954 0) scale(0.996264)"/>
      </g>
     </g>
    </g>
    <g id="xtick_3">
     <g id="line2d_3">
      <g>
       <use xlink:href="#m9568494ad5" x="157.883467" y="228.96" style="stroke: #000000; stroke-width: 0.8"/>
      </g>
     </g>
     <g id="text_3">
      <!-- $\mathdefault{1000}$ -->
      <g transform="translate(147.920796 243.05832) scale(0.1 -0.1)">
       <defs>
        <path id="CMR17-31" d="M 1702 4083 
C 1702 4217 1696 4224 1606 4224 
C 1357 3927 979 3833 621 3820 
C 602 3820 570 3820 563 3808 
C 557 3795 557 3782 557 3648 
C 755 3648 1088 3686 1344 3839 
L 1344 467 
C 1344 243 1331 166 781 166 
L 589 166 
L 589 0 
C 896 6 1216 12 1523 12 
C 1830 12 2150 6 2458 0 
L 2458 166 
L 2266 166 
C 1715 166 1702 236 1702 467 
L 1702 4083 
z
" transform="scale(0.015625)"/>
       </defs>
       <use xlink:href="#CMR17-31" transform="scale(0.996264)"/>
       <use xlink:href="#CMR17-30" transform="translate(45.690477 0) scale(0.996264)"/>
       <use xlink:href="#CMR17-30" transform="translate(91.380954 0) scale(0.996264)"/>
       <use xlink:href="#CMR17-30" transform="translate(137.071431 0) scale(0.996264)"/>
      </g>
     </g>
    </g>
    <g id="xtick_4">
     <g id="line2d_4">
      <g>
       <use xlink:href="#m9568494ad5" x="210.432437" y="228.96" style="stroke: #000000; stroke-width: 0.8"/>
      </g>
     </g>
     <g id="text_4">
      <!-- $\mathdefault{1500}$ -->
      <g transform="translate(200.469767 243.05832) scale(0.1 -0.1)">
       <use xlink:href="#CMR17-31" transform="scale(0.996264)"/>
       <use xlink:href="#CMR17-35" transform="translate(45.690477 0) scale(0.996264)"/>
       <use xlink:href="#CMR17-30" transform="translate(91.380954 0) scale(0.996264)"/>
       <use xlink:href="#CMR17-30" transform="translate(137.071431 0) scale(0.996264)"/>
      </g>
     </g>
    </g>
    <g id="xtick_5">
     <g id="line2d_5">
      <g>
       <use xlink:href="#m9568494ad5" x="262.981408" y="228.96" style="stroke: #000000; stroke-width: 0.8"/>
      </g>
     </g>
     <g id="text_5">
      <!-- $\mathdefault{2000}$ -->
      <g transform="translate(253.018737 243.05832) scale(0.1 -0.1)">
       <defs>
        <path id="CMR17-32" d="M 2669 990 
L 2554 990 
C 2490 537 2438 460 2413 422 
C 2381 371 1920 371 1830 371 
L 602 371 
C 832 620 1280 1073 1824 1596 
C 2214 1966 2669 2400 2669 3033 
C 2669 3788 2067 4224 1395 4224 
C 691 4224 262 3603 262 3027 
C 262 2777 448 2745 525 2745 
C 589 2745 781 2783 781 3007 
C 781 3206 614 3264 525 3264 
C 486 3264 448 3257 422 3244 
C 544 3788 915 4057 1306 4057 
C 1862 4057 2227 3616 2227 3033 
C 2227 2477 1901 1998 1536 1583 
L 262 147 
L 262 0 
L 2515 0 
L 2669 990 
z
" transform="scale(0.015625)"/>
       </defs>
       <use xlink:href="#CMR17-32" transform="scale(0.996264)"/>
       <use xlink:href="#CMR17-30" transform="translate(45.690477 0) scale(0.996264)"/>
       <use xlink:href="#CMR17-30" transform="translate(91.380954 0) scale(0.996264)"/>
       <use xlink:href="#CMR17-30" transform="translate(137.071431 0) scale(0.996264)"/>
      </g>
     </g>
    </g>
    <g id="xtick_6">
     <g id="line2d_6">
      <g>
       <use xlink:href="#m9568494ad5" x="315.530378" y="228.96" style="stroke: #000000; stroke-width: 0.8"/>
      </g>
     </g>
     <g id="text_6">
      <!-- $\mathdefault{2500}$ -->
      <g transform="translate(305.567708 243.05832) scale(0.1 -0.1)">
       <use xlink:href="#CMR17-32" transform="scale(0.996264)"/>
       <use xlink:href="#CMR17-35" transform="translate(45.690477 0) scale(0.996264)"/>
       <use xlink:href="#CMR17-30" transform="translate(91.380954 0) scale(0.996264)"/>
       <use xlink:href="#CMR17-30" transform="translate(137.071431 0) scale(0.996264)"/>
      </g>
     </g>
    </g>
    <g id="xtick_7">
     <g id="line2d_7">
      <g>
       <use xlink:href="#m9568494ad5" x="368.079348" y="228.96" style="stroke: #000000; stroke-width: 0.8"/>
      </g>
     </g>
     <g id="text_7">
      <!-- $\mathdefault{3000}$ -->
      <g transform="translate(358.116678 243.05832) scale(0.1 -0.1)">
       <defs>
        <path id="CMR17-33" d="M 1414 2176 
C 1984 2176 2234 1673 2234 1094 
C 2234 322 1824 25 1453 25 
C 1114 25 563 193 390 691 
C 422 678 454 678 486 678 
C 640 678 755 780 755 947 
C 755 1132 614 1216 486 1216 
C 378 1216 211 1164 211 927 
C 211 335 787 -128 1466 -128 
C 2176 -128 2720 432 2720 1087 
C 2720 1718 2208 2176 1600 2246 
C 2086 2347 2554 2776 2554 3353 
C 2554 3856 2048 4224 1472 4224 
C 890 4224 378 3862 378 3347 
C 378 3123 544 3084 627 3084 
C 762 3084 877 3167 877 3334 
C 877 3500 762 3584 627 3584 
C 602 3584 570 3584 544 3571 
C 730 3999 1235 4076 1459 4076 
C 1683 4076 2106 3966 2106 3347 
C 2106 3167 2080 2851 1862 2574 
C 1670 2329 1453 2316 1242 2297 
C 1210 2297 1062 2284 1037 2284 
C 992 2278 966 2272 966 2227 
C 966 2182 973 2176 1101 2176 
L 1414 2176 
z
" transform="scale(0.015625)"/>
       </defs>
       <use xlink:href="#CMR17-33" transform="scale(0.996264)"/>
       <use xlink:href="#CMR17-30" transform="translate(45.690477 0) scale(0.996264)"/>
       <use xlink:href="#CMR17-30" transform="translate(91.380954 0) scale(0.996264)"/>
       <use xlink:href="#CMR17-30" transform="translate(137.071431 0) scale(0.996264)"/>
      </g>
     </g>
    </g>
    <g id="text_8">
     <!-- Iteration -->
     <g transform="translate(187.019968 256.278627) scale(0.1 -0.1)">
      <defs>
       <path id="NimbusSanL-Regu-49" d="M 1242 4672 
L 640 4672 
L 640 0 
L 1242 0 
L 1242 4672 
z
" transform="scale(0.015625)"/>
       <path id="NimbusSanL-Regu-74" d="M 1626 3328 
L 1075 3328 
L 1075 4249 
L 544 4249 
L 544 3328 
L 90 3328 
L 90 2892 
L 544 2892 
L 544 402 
C 544 64 774 -128 1190 -128 
C 1318 -128 1446 -116 1626 -84 
L 1626 364 
C 1555 345 1472 339 1370 339 
C 1139 339 1075 402 1075 634 
L 1075 2892 
L 1626 2892 
L 1626 3328 
z
" transform="scale(0.015625)"/>
       <path id="NimbusSanL-Regu-65" d="M 3283 1484 
C 3283 1998 3245 2311 3149 2565 
C 2931 3123 2419 3456 1792 3456 
C 858 3456 256 2734 256 1619 
C 256 545 838 -128 1779 -128 
C 2547 -128 3078 307 3213 1018 
L 2675 1018 
C 2528 588 2227 364 1798 364 
C 1459 364 1171 514 992 787 
C 864 974 819 1161 813 1484 
L 3283 1484 
z
M 826 1920 
C 870 2552 1248 2963 1786 2963 
C 2310 2963 2714 2519 2714 1959 
C 2714 1946 2714 1933 2707 1920 
L 826 1920 
z
" transform="scale(0.015625)"/>
       <path id="NimbusSanL-Regu-72" d="M 442 3328 
L 442 0 
L 979 0 
L 979 1727 
C 979 2203 1101 2514 1357 2698 
C 1523 2819 1683 2857 2054 2863 
L 2054 3404 
C 1965 3449 1920 3456 1850 3456 
C 1504 3456 1242 3251 934 2750 
L 934 3328 
L 442 3328 
z
" transform="scale(0.015625)"/>
       <path id="NimbusSanL-Regu-61" d="M 3424 332 
C 3366 320 3341 320 3309 320 
C 3123 320 3021 415 3021 581 
L 3021 2542 
C 3021 3135 2586 3456 1760 3456 
C 1274 3456 870 3315 646 3065 
C 493 2893 429 2702 416 2370 
L 954 2370 
C 998 2778 1242 2963 1741 2963 
C 2221 2963 2490 2784 2490 2466 
L 2490 2326 
C 2490 2103 2355 2007 1933 1956 
C 1178 1861 1062 1835 858 1753 
C 467 1593 269 1294 269 861 
C 269 256 691 -128 1370 -128 
C 1792 -128 2131 19 2509 364 
C 2547 25 2714 -128 3059 -128 
C 3168 -128 3251 -116 3424 -71 
L 3424 332 
z
M 2490 1071 
C 2490 893 2438 785 2278 638 
C 2061 441 1798 339 1485 339 
C 1069 339 826 536 826 874 
C 826 1224 1062 1402 1632 1485 
C 2195 1562 2310 1587 2490 1670 
L 2490 1071 
z
" transform="scale(0.015625)"/>
       <path id="NimbusSanL-Regu-69" d="M 960 3358 
L 429 3358 
L 429 0 
L 960 0 
L 960 3358 
z
M 960 4672 
L 422 4672 
L 422 3999 
L 960 3999 
L 960 4672 
z
" transform="scale(0.015625)"/>
       <path id="NimbusSanL-Regu-6f" d="M 1741 3456 
C 800 3456 230 2784 230 1663 
C 230 543 794 -128 1747 -128 
C 2688 -128 3264 543 3264 1638 
C 3264 2791 2707 3456 1741 3456 
z
M 1747 2963 
C 2349 2963 2707 2472 2707 1644 
C 2707 861 2336 364 1747 364 
C 1152 364 787 855 787 1663 
C 787 2466 1152 2963 1747 2963 
z
" transform="scale(0.015625)"/>
       <path id="NimbusSanL-Regu-6e" d="M 448 3328 
L 448 0 
L 986 0 
L 986 1835 
C 986 2539 1344 2988 1894 2988 
C 2317 2988 2586 2732 2586 2328 
L 2586 0 
L 3117 0 
L 3117 2539 
C 3117 3097 2701 3456 2054 3456 
C 1555 3456 1235 3263 941 2796 
L 941 3328 
L 448 3328 
z
" transform="scale(0.015625)"/>
      </defs>
      <use xlink:href="#NimbusSanL-Regu-49" transform="scale(0.996264)"/>
      <use xlink:href="#NimbusSanL-Regu-74" transform="translate(27.69517 0) scale(0.996264)"/>
      <use xlink:href="#NimbusSanL-Regu-65" transform="translate(55.390339 0) scale(0.996264)"/>
      <use xlink:href="#NimbusSanL-Regu-72" transform="translate(110.782016 0) scale(0.996264)"/>
      <use xlink:href="#NimbusSanL-Regu-61" transform="translate(142.961149 0) scale(0.996264)"/>
      <use xlink:href="#NimbusSanL-Regu-74" transform="translate(198.352826 0) scale(0.996264)"/>
      <use xlink:href="#NimbusSanL-Regu-69" transform="translate(226.047996 0) scale(0.996264)"/>
      <use xlink:href="#NimbusSanL-Regu-6f" transform="translate(248.16478 0) scale(0.996264)"/>
      <use xlink:href="#NimbusSanL-Regu-6e" transform="translate(303.556457 0) scale(0.996264)"/>
     </g>
    </g>
   </g>
   <g id="matplotlib.axis_2">
    <g id="ytick_1">
     <g id="line2d_8">
      <defs>
       <path id="m65d0dfeac1" d="M 0 0 
L -3.5 0 
" style="stroke: #000000; stroke-width: 0.8"/>
      </defs>
      <g>
       <use xlink:href="#m65d0dfeac1" x="37.567344" y="193.28541" style="stroke: #000000; stroke-width: 0.8"/>
      </g>
     </g>
     <g id="text_9">
      <!-- $\mathdefault{5}$ -->
      <g transform="translate(25.586009 196.83457) scale(0.1 -0.1)">
       <use xlink:href="#CMR17-35" transform="scale(0.996264)"/>
      </g>
     </g>
    </g>
    <g id="ytick_2">
     <g id="line2d_9">
      <g>
       <use xlink:href="#m65d0dfeac1" x="37.567344" y="153.580793" style="stroke: #000000; stroke-width: 0.8"/>
      </g>
     </g>
     <g id="text_10">
      <!-- $\mathdefault{10}$ -->
      <g transform="translate(20.604674 157.129953) scale(0.1 -0.1)">
       <use xlink:href="#CMR17-31" transform="scale(0.996264)"/>
       <use xlink:href="#CMR17-30" transform="translate(45.690477 0) scale(0.996264)"/>
      </g>
     </g>
    </g>
    <g id="ytick_3">
     <g id="line2d_10">
      <g>
       <use xlink:href="#m65d0dfeac1" x="37.567344" y="113.876177" style="stroke: #000000; stroke-width: 0.8"/>
      </g>
     </g>
     <g id="text_11">
      <!-- $\mathdefault{15}$ -->
      <g transform="translate(20.604674 117.425337) scale(0.1 -0.1)">
       <use xlink:href="#CMR17-31" transform="scale(0.996264)"/>
       <use xlink:href="#CMR17-35" transform="translate(45.690477 0) scale(0.996264)"/>
      </g>
     </g>
    </g>
    <g id="ytick_4">
     <g id="line2d_11">
      <g>
       <use xlink:href="#m65d0dfeac1" x="37.567344" y="74.17156" style="stroke: #000000; stroke-width: 0.8"/>
      </g>
     </g>
     <g id="text_12">
      <!-- $\mathdefault{20}$ -->
      <g transform="translate(20.604674 77.720721) scale(0.1 -0.1)">
       <use xlink:href="#CMR17-32" transform="scale(0.996264)"/>
       <use xlink:href="#CMR17-30" transform="translate(45.690477 0) scale(0.996264)"/>
      </g>
     </g>
    </g>
    <g id="ytick_5">
     <g id="line2d_12">
      <g>
       <use xlink:href="#m65d0dfeac1" x="37.567344" y="34.466944" style="stroke: #000000; stroke-width: 0.8"/>
      </g>
     </g>
     <g id="text_13">
      <!-- $\mathdefault{25}$ -->
      <g transform="translate(20.604674 38.016104) scale(0.1 -0.1)">
       <use xlink:href="#CMR17-32" transform="scale(0.996264)"/>
       <use xlink:href="#CMR17-35" transform="translate(45.690477 0) scale(0.996264)"/>
      </g>
     </g>
    </g>
    <g id="text_14">
     <!-- Average CFL - Blade_0 -->
     <g transform="translate(14.482687 168.77932) rotate(-90) scale(0.1 -0.1)">
      <defs>
       <path id="NimbusSanL-Regu-41" d="M 3034 1408 
L 3514 0 
L 4179 0 
L 2541 4672 
L 1773 4672 
L 109 0 
L 742 0 
L 1235 1408 
L 3034 1408 
z
M 2867 1907 
L 1382 1907 
L 2150 4032 
L 2867 1907 
z
" transform="scale(0.015625)"/>
       <path id="NimbusSanL-Regu-76" d="M 1824 0 
L 3110 3328 
L 2509 3328 
L 1562 629 
L 666 3328 
L 64 3328 
L 1242 0 
L 1824 0 
z
" transform="scale(0.015625)"/>
       <path id="NimbusSanL-Regu-67" d="M 2637 3359 
L 2637 2873 
C 2368 3270 2042 3456 1613 3456 
C 762 3456 186 2714 186 1632 
C 186 1084 333 638 608 320 
C 858 38 1216 -128 1568 -128 
C 1990 -128 2285 51 2586 473 
L 2586 300 
C 2586 -155 2528 -441 2394 -634 
C 2253 -841 1978 -960 1651 -960 
C 1408 -960 1190 -894 1043 -774 
C 922 -674 870 -581 838 -375 
L 294 -375 
C 352 -1031 845 -1408 1632 -1408 
C 2131 -1408 2560 -1248 2778 -980 
C 3034 -661 3130 -222 3130 568 
L 3130 3359 
L 2637 3359 
z
M 1670 2963 
C 2246 2963 2586 2479 2586 1644 
C 2586 848 2240 364 1677 364 
C 1094 364 742 855 742 1663 
C 742 2466 1101 2963 1670 2963 
z
" transform="scale(0.015625)"/>
       <path id="NimbusSanL-Regu-43" d="M 4237 3219 
C 4051 4236 3462 4736 2438 4736 
C 1811 4736 1306 4537 960 4154 
C 538 3696 307 3035 307 2284 
C 307 1522 544 867 986 415 
C 1344 44 1805 -128 2413 -128 
C 3552 -128 4192 485 4333 1712 
L 3718 1712 
C 3667 1394 3603 1178 3507 994 
C 3315 612 2918 396 2419 396 
C 1491 396 902 1134 902 2291 
C 902 3480 1466 4211 2368 4211 
C 2746 4211 3098 4096 3290 3918 
C 3462 3759 3558 3562 3629 3219 
L 4237 3219 
z
" transform="scale(0.015625)"/>
       <path id="NimbusSanL-Regu-46" d="M 1171 2112 
L 3398 2112 
L 3398 2636 
L 1171 2636 
L 1171 4147 
L 3706 4147 
L 3706 4672 
L 576 4672 
L 576 0 
L 1171 0 
L 1171 2112 
z
" transform="scale(0.015625)"/>
       <path id="NimbusSanL-Regu-4c" d="M 1107 4672 
L 512 4672 
L 512 0 
L 3411 0 
L 3411 524 
L 1107 524 
L 1107 4672 
z
" transform="scale(0.015625)"/>
       <path id="NimbusSanL-Regu-2d" d="M 1818 1996 
L 294 1996 
L 294 1536 
L 1818 1536 
L 1818 1996 
z
" transform="scale(0.015625)"/>
       <path id="NimbusSanL-Regu-42" d="M 506 0 
L 2611 0 
C 3053 0 3379 121 3629 390 
C 3859 632 3987 961 3987 1321 
C 3987 1878 3731 2214 3136 2444 
C 3558 2643 3782 2994 3782 3476 
C 3782 3821 3654 4127 3411 4345 
C 3168 4569 2848 4672 2400 4672 
L 506 4672 
L 506 0 
z
M 1101 2636 
L 1101 4147 
L 2253 4147 
C 2586 4147 2771 4101 2931 3977 
C 3098 3847 3187 3652 3187 3391 
C 3187 3138 3098 2936 2931 2806 
C 2771 2682 2586 2636 2253 2636 
L 1101 2636 
z
M 1101 524 
L 1101 2112 
L 2554 2112 
C 2842 2112 3034 2042 3174 1890 
C 3315 1745 3392 1542 3392 1315 
C 3392 1093 3315 891 3174 746 
C 3034 594 2842 524 2554 524 
L 1101 524 
z
" transform="scale(0.015625)"/>
       <path id="NimbusSanL-Regu-6c" d="M 973 4672 
L 435 4672 
L 435 0 
L 973 0 
L 973 4672 
z
" transform="scale(0.015625)"/>
       <path id="NimbusSanL-Regu-64" d="M 3168 4672 
L 2637 4672 
L 2637 2937 
C 2413 3276 2054 3456 1606 3456 
C 736 3456 166 2759 166 1695 
C 166 568 723 -128 1626 -128 
C 2086 -128 2406 44 2694 460 
L 2694 19 
L 3168 19 
L 3168 4672 
z
M 1696 2956 
C 2272 2956 2637 2447 2637 1651 
C 2637 880 2266 371 1702 371 
C 1114 371 723 887 723 1663 
C 723 2440 1114 2956 1696 2956 
z
" transform="scale(0.015625)"/>
       <path id="NimbusSanL-Regu-30" d="M 1760 4544 
C 1338 4544 954 4358 717 4044 
C 422 3649 275 3043 275 2207 
C 275 683 787 -128 1760 -128 
C 2720 -128 3245 683 3245 2169 
C 3245 3049 3104 3636 2803 4044 
C 2566 4364 2189 4544 1760 4544 
z
M 1760 4044 
C 2368 4044 2669 3432 2669 2220 
C 2669 938 2374 339 1747 339 
C 1152 339 851 964 851 2201 
C 851 3438 1152 4044 1760 4044 
z
" transform="scale(0.015625)"/>
      </defs>
      <use xlink:href="#NimbusSanL-Regu-41" transform="scale(0.996264)"/>
      <use xlink:href="#NimbusSanL-Regu-76" transform="translate(62.465918 0) scale(0.996264)"/>
      <use xlink:href="#NimbusSanL-Regu-65" transform="translate(109.788488 0) scale(0.996264)"/>
      <use xlink:href="#NimbusSanL-Regu-72" transform="translate(165.180165 0) scale(0.996264)"/>
      <use xlink:href="#NimbusSanL-Regu-61" transform="translate(197.359298 0) scale(0.996264)"/>
      <use xlink:href="#NimbusSanL-Regu-67" transform="translate(252.750975 0) scale(0.996264)"/>
      <use xlink:href="#NimbusSanL-Regu-65" transform="translate(308.142652 0) scale(0.996264)"/>
      <use xlink:href="#NimbusSanL-Regu-43" transform="translate(391.229499 0) scale(0.996264)"/>
      <use xlink:href="#NimbusSanL-Regu-46" transform="translate(463.159484 0) scale(0.996264)"/>
      <use xlink:href="#NimbusSanL-Regu-4c" transform="translate(524.031114 0) scale(0.996264)"/>
      <use xlink:href="#NimbusSanL-Regu-2d" transform="translate(607.117961 0) scale(0.996264)"/>
      <use xlink:href="#NimbusSanL-Regu-42" transform="translate(667.98836 0) scale(0.996264)"/>
      <use xlink:href="#NimbusSanL-Regu-6c" transform="translate(734.438391 0) scale(0.996264)"/>
      <use xlink:href="#NimbusSanL-Regu-61" transform="translate(756.555176 0) scale(0.996264)"/>
      <use xlink:href="#NimbusSanL-Regu-64" transform="translate(811.946853 0) scale(0.996264)"/>
      <use xlink:href="#NimbusSanL-Regu-65" transform="translate(867.33853 0) scale(0.996264)"/>
      <use xlink:href="#NimbusSanL-Regu-30" transform="translate(958.595772 0) scale(0.996264)"/>
      <path d="M 928.707548 0 
L 958.595772 0 
L 958.595772 0.3985 
L 928.707548 0.3985 
L 928.707548 0 
z
"/>
     </g>
    </g>
   </g>
   <g id="line2d_13">
    <path d="M 52.785526 119.741132 
L 52.995722 72.462933 
L 53.10082 216.937317 
L 53.205918 213.726775 
L 53.521212 199.703128 
L 53.836506 175.470266 
L 54.151799 133.595881 
L 54.467093 62.776582 
L 54.572191 215.968682 
L 54.677289 212.564413 
L 54.992583 197.694566 
L 55.307877 171.999472 
L 55.623171 127.799861 
L 55.938464 52.331732 
L 56.043562 17.28 
L 56.14866 211.419023 
L 56.253758 207.104823 
L 56.569052 188.260395 
L 56.884346 155.723509 
L 57.19964 99.817621 
L 57.304738 73.48146 
L 57.409836 217.039169 
L 57.514934 213.848998 
L 57.830227 199.91433 
L 58.145521 175.835223 
L 58.460815 134.33704 
L 58.776109 63.910984 
L 58.881207 216.082122 
L 58.986305 212.700541 
L 59.301599 197.929796 
L 59.616892 172.408068 
L 59.932186 128.417902 
L 60.24748 52.81449 
L 60.352578 214.972472 
L 60.457676 211.368962 
L 60.77297 195.628827 
L 61.088264 168.429874 
L 61.403557 121.458129 
L 61.613753 72.510386 
L 61.718851 216.942062 
L 61.823949 213.732469 
L 62.139243 199.712968 
L 62.454537 175.487269 
L 62.769831 133.635105 
L 63.085124 61.5023 
L 63.190222 215.841253 
L 63.29532 212.411499 
L 63.610614 197.430331 
L 63.925908 171.54466 
L 64.241202 126.864588 
L 64.556496 49.802916 
L 64.661594 214.671315 
L 64.766691 211.007573 
L 65.081985 195.004347 
L 65.397279 167.350772 
L 65.712573 119.568359 
L 66.027867 69.684573 
L 66.238063 69.684573 
L 66.343161 216.659481 
L 66.448258 213.393372 
L 66.763552 199.127007 
L 67.078846 174.474729 
L 67.39414 131.875594 
L 67.709434 58.268074 
L 67.814532 215.517831 
L 67.91963 212.023392 
L 68.234923 196.759682 
L 68.550217 170.383992 
L 68.865511 124.806799 
L 69.180805 46.049409 
L 69.285903 214.295964 
L 69.391001 210.557152 
L 69.706295 194.22602 
L 70.021588 166.005823 
L 70.336882 117.241323 
L 70.547078 66.311894 
L 70.652176 216.322213 
L 70.757274 212.98865 
L 71.072568 198.427649 
L 71.387862 173.266238 
L 71.703156 129.78732 
L 72.018449 54.672653 
L 72.123547 215.158289 
L 72.228645 211.591941 
L 72.543939 196.014136 
L 72.859233 169.095687 
L 73.174527 122.586808 
L 73.489821 42.274859 
L 73.594918 213.918509 
L 73.700016 210.104206 
L 74.01531 193.443329 
L 74.330604 164.653334 
L 74.645898 114.904221 
L 74.856094 62.961218 
L 74.961192 215.987145 
L 75.06629 212.586569 
L 75.381583 197.732852 
L 75.696877 172.06563 
L 76.012171 127.72009 
L 76.327465 81.483668 
L 76.747857 81.483668 
L 76.852955 51.243469 
L 76.958053 214.81537 
L 77.063151 211.180439 
L 77.378444 195.30306 
L 77.693738 167.866949 
L 78.009032 120.457348 
L 78.219228 70.955799 
L 78.324326 216.786603 
L 78.429424 213.545919 
L 78.744718 199.390609 
L 79.060011 174.930233 
L 79.375305 132.662704 
L 79.690599 59.624413 
L 79.795697 215.653465 
L 79.900795 212.186152 
L 80.216089 197.040932 
L 80.531383 170.869992 
L 80.846676 125.646608 
L 81.056872 78.415504 
L 81.16197 217.532574 
L 81.267068 214.441083 
L 81.582362 200.937453 
L 81.897656 177.60318 
L 82.21295 137.281556 
L 82.528243 67.60579 
L 82.633341 216.451602 
L 82.738439 213.143918 
L 83.053733 198.695951 
L 83.369027 173.729864 
L 83.684321 130.588466 
L 83.999615 85.53178 
L 84.525104 85.53178 
L 84.630202 56.040131 
L 84.7353 215.295036 
L 84.840398 211.756039 
L 85.155692 196.297696 
L 85.470986 169.585679 
L 85.78628 123.427315 
L 86.101573 75.220009 
L 86.311769 75.220009 
L 86.416867 43.666866 
L 86.521965 214.05771 
L 86.627063 210.271247 
L 86.942357 193.731975 
L 87.257651 165.152115 
L 87.572945 115.766115 
L 87.78314 64.187595 
L 87.888238 216.109783 
L 87.993336 212.733734 
L 88.30863 197.987154 
L 88.623924 172.505063 
L 88.939218 128.47201 
L 89.254512 52.382894 
L 89.35961 214.929313 
L 89.464708 211.31717 
L 89.780001 195.539331 
L 90.095295 168.275225 
L 90.410589 121.16285 
L 90.725883 71.958893 
L 91.671764 71.958893 
L 91.776862 216.886913 
L 91.88196 213.66629 
L 92.197254 199.59861 
L 92.512548 175.28966 
L 92.827842 133.283793 
L 93.143135 60.697655 
L 93.248233 215.760789 
L 93.353331 212.314941 
L 93.668625 197.26348 
L 93.983919 171.254554 
L 94.299213 126.311131 
L 94.509409 79.372417 
L 94.614507 217.628265 
L 94.719605 214.555913 
L 95.034898 201.135879 
L 95.350192 177.946059 
L 95.665486 137.874052 
L 95.98078 68.629623 
L 96.085878 216.553986 
L 96.190976 213.266778 
L 96.50627 198.908253 
L 96.821563 174.096722 
L 97.136857 131.222396 
L 97.452151 57.135562 
L 97.557249 215.40458 
L 97.662347 211.88749 
L 97.977641 196.524844 
L 98.292935 169.978192 
L 98.608228 124.105577 
L 98.818424 76.196419 
L 98.923522 217.310665 
L 99.02862 214.174793 
L 99.343914 200.477304 
L 99.659208 176.808042 
L 99.974502 135.907558 
L 100.289795 65.231521 
L 100.394893 216.214175 
L 100.499991 212.859005 
L 100.815285 198.203622 
L 101.130579 172.87912 
L 101.445873 129.118381 
L 101.866265 53.499824 
L 101.971362 215.041006 
L 102.07646 211.451202 
L 102.391754 195.770938 
L 102.707048 168.675441 
L 103.022342 121.854424 
L 103.232538 72.954759 
L 103.337636 216.986499 
L 103.442734 213.785794 
L 103.758027 199.805113 
L 104.073321 175.646496 
L 104.388615 133.900407 
L 104.809007 61.763164 
L 104.914105 215.86734 
L 105.019203 212.442803 
L 105.334497 197.484424 
L 105.64979 171.636345 
L 105.965084 126.970866 
L 106.17528 80.322436 
L 106.280378 217.723267 
L 106.385476 214.669915 
L 106.70077 201.332874 
L 107.016064 178.286468 
L 107.331357 138.462278 
L 107.646651 69.646077 
L 107.751749 216.655631 
L 107.856847 213.388752 
L 108.172141 199.119025 
L 108.487435 174.460936 
L 108.802729 131.851758 
L 109.118022 58.2231 
L 109.22312 215.513333 
L 109.328218 212.017995 
L 109.643512 196.750356 
L 109.958806 170.367877 
L 110.2741 124.778952 
L 110.484296 77.166079 
L 110.589394 217.407631 
L 110.694492 214.291152 
L 111.009785 200.678372 
L 111.325079 177.155488 
L 111.640373 136.507945 
L 111.955667 66.26899 
L 112.060765 216.317922 
L 112.165863 212.983502 
L 112.481157 198.418752 
L 112.79645 173.250865 
L 113.111744 129.760755 
L 113.32194 84.339876 
L 113.427038 218.125011 
L 113.532136 215.152008 
L 113.84743 202.165931 
L 114.162724 179.72599 
L 114.478017 140.949771 
L 114.793311 73.944466 
L 114.898409 217.08547 
L 115.003507 213.904559 
L 115.318801 200.010339 
L 115.634095 176.001126 
L 115.949389 134.513207 
L 116.36978 62.822083 
L 116.474878 215.973232 
L 116.579976 212.569873 
L 116.89527 197.704001 
L 117.210564 172.015775 
L 117.525858 127.626521 
L 117.736054 81.266579 
L 117.841152 217.817681 
L 117.946249 214.783212 
L 118.261543 201.528652 
L 118.576837 178.624772 
L 118.892131 139.046867 
L 119.207425 70.656246 
L 119.312523 216.756648 
L 119.417621 213.509972 
L 119.732914 199.328493 
L 120.048208 174.822898 
L 120.363502 132.477228 
L 120.678796 59.303912 
L 120.783894 215.621415 
L 120.888992 212.147692 
L 121.204286 196.974473 
L 121.519579 170.755151 
L 121.834873 125.448162 
L 122.045069 78.129742 
L 122.150167 217.503998 
L 122.255265 214.406792 
L 122.570559 200.878197 
L 122.885853 177.500786 
L 123.201146 137.10462 
L 123.51644 67.300044 
L 123.621538 216.421028 
L 123.726636 213.107228 
L 124.04193 198.632551 
L 124.357224 173.62031 
L 124.672518 130.399157 
L 124.987811 55.713004 
L 125.092909 215.262324 
L 125.198007 211.716783 
L 125.513301 196.229863 
L 125.828595 169.468464 
L 126.143889 123.224766 
L 126.354085 74.928052 
L 126.459183 217.183829 
L 126.564281 214.022589 
L 126.879574 200.214295 
L 127.194868 176.353563 
L 127.510162 135.122218 
L 127.825456 63.874454 
L 127.930554 216.078469 
L 128.035652 212.696157 
L 128.350946 197.922221 
L 128.666239 172.392859 
L 128.981533 128.278121 
L 129.191729 82.204883 
L 129.296827 217.911512 
L 129.401925 214.895809 
L 129.717219 201.723219 
L 130.032513 178.960983 
L 130.347806 139.62784 
L 130.6631 71.660168 
L 130.768198 216.85704 
L 130.873296 213.630443 
L 131.18859 199.536667 
L 131.503884 175.182621 
L 131.819178 133.09883 
L 132.134471 60.37804 
L 132.239569 215.728827 
L 132.344667 212.276588 
L 132.659961 197.197205 
L 132.975255 171.140031 
L 133.290549 126.113234 
L 133.500745 79.087445 
L 133.605843 217.599768 
L 133.710941 214.521716 
L 134.026234 201.076787 
L 134.341528 177.843949 
L 134.656822 137.697605 
L 134.972116 68.324722 
L 135.077214 216.523496 
L 135.182312 213.230189 
L 135.497606 198.845028 
L 135.812899 173.98747 
L 136.128193 131.03361 
L 136.443487 86.172787 
L 136.548585 86.172787 
L 136.653683 56.809339 
L 136.758781 215.371957 
L 136.863879 211.848344 
L 137.179173 196.457199 
L 137.494466 169.8613 
L 137.80976 123.903588 
L 138.019956 75.905556 
L 138.125054 217.281579 
L 138.230152 214.13989 
L 138.545446 200.41699 
L 138.86074 176.70382 
L 139.176033 135.727462 
L 139.491327 64.920316 
L 139.596425 216.183055 
L 139.701523 212.821661 
L 140.016817 198.139091 
L 140.332111 172.76761 
L 140.647405 128.925691 
L 141.067796 53.166856 
L 141.172894 215.007709 
L 141.277992 211.411246 
L 141.593286 195.701893 
L 141.90858 168.556133 
L 142.223874 121.648259 
L 142.43407 72.657881 
L 142.539168 216.956812 
L 142.644266 213.750169 
L 142.959559 199.743552 
L 143.274853 175.54012 
L 143.590147 133.716588 
L 143.905441 61.445525 
L 144.010539 215.835576 
L 144.115637 212.404686 
L 144.430931 197.418558 
L 144.746224 171.52253 
L 145.061518 126.774193 
L 145.271714 80.039226 
L 145.376812 217.694946 
L 145.48191 214.63593 
L 145.797204 201.274148 
L 146.112498 178.184989 
L 146.427791 138.286922 
L 146.743085 69.343062 
L 146.848183 216.62533 
L 146.953281 213.35239 
L 147.268575 199.056192 
L 147.583869 174.35236 
L 147.899163 131.664139 
L 148.319554 57.898894 
L 148.424652 215.480913 
L 148.52975 211.97909 
L 148.845044 196.683129 
L 149.160338 170.251708 
L 149.475632 124.578212 
L 149.685828 76.877014 
L 149.790925 217.378725 
L 149.896023 214.256465 
L 150.211317 200.618432 
L 150.526611 177.051911 
L 150.841905 136.328964 
L 151.157199 65.95971 
L 151.262297 216.286994 
L 151.367395 212.946388 
L 151.682688 198.35462 
L 151.997982 173.140044 
L 152.313276 129.569257 
L 152.523472 84.064119 
L 152.62857 218.097435 
L 152.733668 215.118917 
L 153.048962 202.10875 
L 153.364255 179.627181 
L 153.679549 140.77903 
L 153.994843 73.649424 
L 154.099941 217.055966 
L 154.205039 213.869154 
L 154.520333 199.949159 
L 154.835627 175.895408 
L 155.15092 134.330525 
L 155.466214 62.506409 
L 155.571312 215.941664 
L 155.67641 212.531992 
L 155.991704 197.638543 
L 156.306998 171.902664 
L 156.622292 127.431064 
L 156.937585 80.98512 
L 161.666993 80.98512 
L 161.772091 217.789535 
L 161.877189 214.749437 
L 162.192483 201.470289 
L 162.507776 178.52392 
L 162.82307 138.872595 
L 163.138364 70.355105 
L 163.243462 216.726534 
L 163.34856 213.473835 
L 163.663854 199.266049 
L 163.979147 174.714993 
L 164.294441 132.29077 
L 164.609735 87.983097 
L 165.450519 87.983097 
L 165.555617 58.981711 
L 165.660715 215.589195 
L 165.765812 212.109028 
L 166.081106 196.907662 
L 166.3964 170.639701 
L 166.711694 125.248664 
L 166.92189 77.842465 
L 167.026988 217.47527 
L 167.132086 214.372319 
L 167.44738 200.818628 
L 167.762673 177.39785 
L 168.077967 136.926745 
L 168.393261 66.992677 
L 168.498359 216.390291 
L 168.603457 213.070344 
L 168.918751 198.568816 
L 169.234045 173.510175 
L 169.549338 130.208843 
L 169.864632 84.985122 
L 171.02071 84.985122 
L 171.125807 55.384141 
L 171.230905 215.229438 
L 171.336003 211.67732 
L 171.651297 196.16167 
L 171.966591 169.350626 
L 172.281885 123.021144 
L 172.492081 74.634835 
L 172.597179 217.154507 
L 172.702277 213.987403 
L 173.01757 200.153494 
L 173.332864 176.248498 
L 173.648158 134.940666 
L 173.963452 63.560732 
L 174.06855 216.047097 
L 174.173648 212.658511 
L 174.488942 197.857167 
L 174.804235 172.280447 
L 175.119529 128.083873 
L 175.434823 51.712193 
L 175.539921 214.862243 
L 175.645019 211.236686 
L 175.960313 195.400255 
L 176.275607 168.034901 
L 176.5909 120.74757 
L 176.801096 71.360889 
L 176.906194 216.827112 
L 177.011292 213.59453 
L 177.326586 199.474608 
L 177.64188 175.075384 
L 177.957174 132.913525 
L 178.272467 60.057832 
L 178.377565 215.696807 
L 178.482663 212.238163 
L 178.797957 197.130806 
L 179.113251 171.025294 
L 179.428545 125.914969 
L 179.638741 78.801945 
L 179.743839 217.571218 
L 179.848937 214.487456 
L 180.16423 201.017585 
L 180.479524 177.741649 
L 180.794818 137.52083 
L 181.110112 68.019255 
L 181.21521 216.492949 
L 181.320308 213.193534 
L 181.635602 198.781687 
L 181.950895 173.878016 
L 182.266189 130.844473 
L 182.581483 56.482511 
L 182.686581 215.339274 
L 182.791679 211.809124 
L 183.106973 196.389428 
L 183.422267 169.744192 
L 183.73756 123.701225 
L 184.052854 75.614152 
L 185.629323 75.614152 
L 185.734421 217.252439 
L 185.839519 214.104921 
L 186.154813 200.356565 
L 186.470107 176.599405 
L 186.785401 135.547033 
L 187.100694 64.608534 
L 187.205792 216.151877 
L 187.31089 212.784247 
L 187.626184 198.07444 
L 187.941478 172.655893 
L 188.256772 128.732644 
L 188.466968 82.859396 
L 188.572066 217.976963 
L 188.677164 214.97435 
L 188.992457 201.858939 
L 189.307751 179.195507 
L 189.623045 140.033097 
L 189.938339 72.360453 
L 190.043437 216.927069 
L 190.148535 213.714477 
L 190.463829 199.681878 
L 190.779122 175.433546 
L 191.094416 133.532428 
L 191.40971 61.127297 
L 191.514808 215.803753 
L 191.619906 212.366499 
L 191.9352 197.352571 
L 192.250494 171.408503 
L 192.565787 126.577154 
L 192.986179 49.108584 
L 193.091277 214.601882 
L 193.196375 210.924253 
L 193.511669 194.86037 
L 193.826963 167.101981 
L 194.142256 119.135484 
L 194.352452 69.039485 
L 194.45755 216.594972 
L 194.562648 213.315961 
L 194.877942 198.993242 
L 195.193236 174.243583 
L 195.50853 131.476172 
L 195.823824 57.574087 
L 195.928921 215.448432 
L 196.034019 211.940113 
L 196.349313 196.615777 
L 196.664607 170.135324 
L 196.979901 124.3771 
L 197.190097 76.587413 
L 197.295195 217.349765 
L 197.400293 214.221712 
L 197.715586 200.55838 
L 198.03088 176.948142 
L 198.346174 136.14965 
L 198.661468 65.649857 
L 198.766566 216.256009 
L 198.871664 212.909206 
L 199.186958 198.290368 
L 199.502251 173.029018 
L 199.817545 129.377404 
L 200.237937 53.947415 
L 200.343035 215.085765 
L 200.448133 211.504913 
L 200.763427 195.86375 
L 201.078721 168.835821 
L 201.394014 122.131561 
L 201.60421 73.353836 
L 201.709308 217.026407 
L 201.814406 213.833683 
L 202.1297 199.887866 
L 202.444994 175.789493 
L 202.760288 134.147505 
L 203.075581 62.190149 
L 203.180679 215.910038 
L 203.285777 212.494041 
L 203.601071 197.572963 
L 203.916365 171.789342 
L 204.231659 127.235244 
L 204.546953 80.70314 
L 205.17754 80.70314 
L 205.282638 217.761337 
L 205.387736 214.7156 
L 205.70303 201.411817 
L 206.018324 178.422881 
L 206.333618 138.698 
L 206.648911 70.053405 
L 206.754009 216.696364 
L 206.859107 213.437632 
L 207.174401 199.203488 
L 207.489695 174.606889 
L 207.804989 132.103965 
L 208.225381 58.658913 
L 208.330478 215.556915 
L 208.435576 212.070292 
L 208.75087 196.840726 
L 209.066164 170.524036 
L 209.381458 125.048796 
L 209.591654 77.554654 
L 209.696752 217.446489 
L 209.80185 214.337781 
L 210.117143 200.758947 
L 210.432437 177.294722 
L 210.747731 136.748541 
L 211.063025 66.68474 
L 211.168123 216.359497 
L 211.273221 213.033392 
L 211.588515 198.504962 
L 211.903808 173.399835 
L 212.219102 130.018176 
L 212.534396 55.054669 
L 212.639494 215.19649 
L 212.744592 211.637783 
L 213.059886 196.09335 
L 213.37518 169.232571 
L 213.690473 122.817143 
L 213.900669 74.341075 
L 214.005767 217.125131 
L 214.110865 213.952152 
L 214.426159 200.092579 
L 214.741453 176.143238 
L 215.056747 134.758777 
L 215.372041 63.246428 
L 215.477138 216.015666 
L 215.582236 212.620794 
L 215.89753 197.791993 
L 216.212824 172.167826 
L 216.528118 127.889264 
L 216.738314 81.644929 
L 216.843412 217.855516 
L 216.94851 214.828614 
L 217.263803 201.607107 
L 217.579097 178.760341 
L 217.894391 139.281131 
L 218.209685 71.061055 
L 218.314783 216.797129 
L 218.419881 213.558549 
L 218.735175 199.412435 
L 219.050468 174.967948 
L 219.365762 132.727875 
L 219.786154 59.73703 
L 219.891252 215.664726 
L 219.99635 212.199666 
L 220.311644 197.064285 
L 220.626938 170.910345 
L 220.942231 125.716337 
L 221.152427 78.515914 
L 221.257525 217.542615 
L 221.362623 214.453133 
L 221.677917 200.958274 
L 221.993211 177.639159 
L 222.308505 137.343728 
L 222.623798 67.713222 
L 222.728896 216.462346 
L 222.833994 213.15681 
L 223.149288 198.718228 
L 223.464582 173.768359 
L 223.779876 130.654985 
L 223.990072 85.627568 
L 224.09517 218.25378 
L 224.200268 215.306531 
L 224.515561 202.432947 
L 224.830855 180.187393 
L 225.146149 141.747076 
L 225.461443 75.322208 
L 225.566541 217.223244 
L 225.671639 214.069888 
L 225.986933 200.296027 
L 226.302226 176.494796 
L 226.61752 135.366269 
L 226.932814 64.296174 
L 227.037912 216.120641 
L 227.14301 212.746764 
L 227.458304 198.009669 
L 227.773598 172.543969 
L 228.088891 128.539239 
L 228.299087 82.580893 
L 228.404185 217.949113 
L 228.509283 214.94093 
L 228.824577 201.801188 
L 229.139871 179.095714 
L 229.455165 139.860655 
L 229.770458 72.062473 
L 229.875556 216.897271 
L 229.980654 213.67872 
L 230.295948 199.620089 
L 230.611242 175.326774 
L 230.926536 133.347927 
L 231.24183 60.808479 
L 231.346928 215.771871 
L 231.452025 212.32824 
L 231.767319 197.28646 
L 232.082613 171.294265 
L 232.397907 126.379751 
L 232.713201 79.471229 
L 234.710062 79.471229 
L 234.81516 217.638146 
L 234.920257 214.56777 
L 235.235551 201.156368 
L 235.550845 177.981466 
L 235.866139 137.935234 
L 236.181433 68.735345 
L 236.286531 216.564558 
L 236.391629 213.279464 
L 236.706922 198.930175 
L 237.022216 174.134604 
L 237.33751 131.287857 
L 237.547706 86.538902 
L 237.652804 218.344914 
L 237.757902 215.415891 
L 238.073196 202.621921 
L 238.38849 180.51394 
L 238.703783 142.31135 
L 239.019077 76.297274 
L 239.124175 217.320751 
L 239.229273 214.186896 
L 239.544567 200.498217 
L 239.859861 176.84418 
L 240.175155 135.970004 
L 240.490448 65.339428 
L 240.595546 216.224966 
L 240.700644 212.871954 
L 241.015938 198.225998 
L 241.331232 172.917786 
L 241.646526 129.185195 
L 241.856722 83.511069 
L 241.96182 218.04213 
L 242.066917 215.052551 
L 242.382211 201.994069 
L 242.697505 179.429013 
L 243.012799 140.436596 
L 243.328093 73.057699 
L 243.433191 216.996793 
L 243.538289 213.798147 
L 243.853582 199.826459 
L 244.168876 175.683382 
L 244.48417 133.964144 
L 244.799464 90.392756 
L 245.00966 90.392756 
L 245.114758 61.873302 
L 245.219856 215.878354 
L 245.324954 212.456019 
L 245.640247 197.507262 
L 245.955541 171.67581 
L 246.270835 127.039061 
L 246.481031 80.420636 
L 246.586129 217.733087 
L 246.691227 214.681699 
L 247.006521 201.353237 
L 247.321814 178.321655 
L 247.637108 138.523081 
L 247.952402 69.751146 
L 248.0575 216.666138 
L 248.162598 213.40136 
L 248.477892 199.140812 
L 248.793186 174.498584 
L 249.108479 131.916814 
L 249.318675 87.444601 
L 249.423773 218.435483 
L 249.528871 215.524575 
L 249.844165 202.809727 
L 250.159459 180.838469 
L 250.474753 142.872135 
L 250.790047 77.26631 
L 250.895144 217.417654 
L 251.000242 214.30318 
L 251.315536 200.699156 
L 251.63083 177.191403 
L 251.946124 136.570006 
L 252.261418 66.376231 
L 252.366516 216.328646 
L 252.471614 212.996371 
L 252.786907 198.440989 
L 253.102201 173.289291 
L 253.417495 129.827156 
L 253.627691 84.435493 
L 253.732789 218.134573 
L 253.837887 215.163482 
L 254.153181 202.185758 
L 254.468474 179.760251 
L 254.783768 141.008974 
L 255.099062 74.046769 
L 255.20416 217.0957 
L 255.309258 213.916835 
L 255.624552 200.031552 
L 255.939846 176.037783 
L 256.255139 134.576551 
L 256.570433 91.274622 
L 256.675531 91.274622 
L 256.780629 62.931541 
L 256.885727 215.984177 
L 256.990825 212.583008 
L 257.306119 197.726698 
L 257.621413 172.054996 
L 257.936707 127.694294 
L 258.146902 81.364172 
L 258.252 217.827441 
L 258.357098 214.794924 
L 258.672392 201.548889 
L 258.987686 178.659741 
L 259.30298 139.107294 
L 259.618274 70.760665 
L 259.723372 216.76709 
L 259.828469 213.522503 
L 260.143763 199.350146 
L 260.459057 174.860313 
L 260.774351 132.541882 
L 261.194743 59.415632 
L 261.299841 215.632587 
L 261.404939 212.161099 
L 261.720232 196.99764 
L 262.035526 170.795183 
L 262.35082 125.517337 
L 262.561016 78.229353 
L 262.666114 217.513959 
L 262.771212 214.418745 
L 263.086506 200.898853 
L 263.401799 177.536479 
L 263.717093 137.166297 
L 264.032387 67.406622 
L 264.137485 216.431686 
L 264.242583 213.120017 
L 264.557877 198.654651 
L 264.873171 173.658498 
L 265.188464 130.465146 
L 265.39866 85.354199 
L 265.503758 218.226443 
L 265.608856 215.273727 
L 265.92415 202.376261 
L 266.239444 180.08944 
L 266.554738 141.577813 
L 266.870031 75.029723 
L 266.975129 217.193996 
L 267.080227 214.03479 
L 267.395521 200.235377 
L 267.710815 176.389993 
L 268.026109 135.18517 
L 268.341403 92.151033 
L 268.446501 92.151033 
L 268.551599 63.983234 
L 268.656696 216.089347 
L 268.761794 212.709211 
L 269.077088 197.944778 
L 269.392382 172.431837 
L 269.707676 128.345475 
L 269.917872 82.301873 
L 270.02297 217.921211 
L 270.128068 214.907448 
L 270.443361 201.743331 
L 270.758655 178.995736 
L 271.073949 139.687893 
L 271.389243 71.763941 
L 271.494341 216.867417 
L 271.599439 213.642896 
L 271.914733 199.558185 
L 272.230026 175.219805 
L 272.54532 133.163084 
L 272.965712 60.48907 
L 273.07081 215.73993 
L 273.175908 212.289911 
L 273.491202 197.220228 
L 273.806496 171.179814 
L 274.121789 126.18198 
L 274.331985 79.18644 
L 274.437083 217.609667 
L 274.542181 214.533596 
L 274.857475 201.097315 
L 275.172769 177.879421 
L 275.488063 137.7589 
L 275.803356 68.43064 
L 275.908454 216.534087 
L 276.013552 213.2429 
L 276.328846 198.866992 
L 276.64414 174.025423 
L 276.959434 131.099192 
L 277.16963 86.267224 
L 277.274728 218.317746 
L 277.379826 215.38329 
L 277.695119 202.565586 
L 278.010413 180.416593 
L 278.325707 142.143135 
L 278.641001 76.006598 
L 278.746099 217.291683 
L 278.851197 214.152015 
L 279.166491 200.437942 
L 279.481784 176.740025 
L 279.797078 135.790025 
L 280.112372 93.022024 
L 280.848058 93.022024 
L 280.953156 65.028424 
L 281.058253 216.193866 
L 281.163351 212.834634 
L 281.478645 198.161508 
L 281.793939 172.806347 
L 282.109233 128.992629 
L 282.319429 83.233774 
L 282.424527 218.014401 
L 282.529625 215.019276 
L 282.844918 201.93657 
L 283.160212 179.329653 
L 283.475506 140.264902 
L 283.7908 72.761012 
L 283.895898 216.967125 
L 284.000996 213.762544 
L 284.31629 199.764938 
L 284.631583 175.577073 
L 284.946877 133.780444 
L 285.367269 61.555868 
L 285.472367 215.84661 
L 285.577465 212.417927 
L 285.892759 197.441439 
L 286.208053 171.562068 
L 286.523346 126.842514 
L 286.733542 80.137609 
L 286.83864 217.704784 
L 286.943738 214.647736 
L 287.259032 201.294549 
L 287.574326 178.220241 
L 287.88962 138.347838 
L 288.204913 69.448325 
L 288.310011 216.635856 
L 288.415109 213.365022 
L 288.730403 199.078019 
L 289.045697 174.390078 
L 289.360991 131.729316 
L 289.571187 87.174603 
L 289.676285 218.408484 
L 289.781383 215.492175 
L 290.096676 202.75374 
L 290.41197 180.741724 
L 290.727264 142.704959 
L 291.042558 76.977431 
L 291.147656 217.388766 
L 291.252754 214.268515 
L 291.568048 200.639254 
L 291.883341 177.087893 
L 292.198635 136.391139 
L 292.513929 66.06715 
L 292.619027 216.297738 
L 292.724125 212.959281 
L 293.039419 198.376898 
L 293.354713 173.178542 
L 293.670006 129.635781 
L 293.880202 84.159913 
L 293.9853 218.107015 
L 294.090398 215.130412 
L 294.405692 202.128614 
L 294.720986 179.661506 
L 295.03628 140.838343 
L 295.351573 73.751917 
L 295.456671 217.066215 
L 295.561769 213.881453 
L 295.877063 199.970412 
L 296.192357 175.932133 
L 296.507651 134.393986 
L 296.928043 62.61607 
L 297.03314 215.95263 
L 297.138238 212.545151 
L 297.453532 197.661282 
L 297.768826 171.941957 
L 298.08412 127.498963 
L 298.294316 81.082895 
L 298.399414 217.799313 
L 298.504512 214.76117 
L 298.819805 201.490563 
L 299.135099 178.558954 
L 299.450393 138.933134 
L 299.765687 70.459717 
L 299.870785 216.736995 
L 299.975883 213.486389 
L 300.291177 199.287741 
L 300.60647 174.752478 
L 300.921764 132.355543 
L 301.237058 88.07637 
L 301.552352 88.07637 
L 301.65745 59.093639 
L 301.762548 215.600387 
L 301.867646 212.12246 
L 302.18294 196.930871 
L 302.498233 170.679807 
L 302.813527 125.317967 
L 303.023723 77.942261 
L 303.128821 217.485249 
L 303.233919 214.384294 
L 303.549213 200.839321 
L 303.864507 177.433608 
L 304.1798 136.988536 
L 304.495094 67.099452 
L 304.600192 216.400969 
L 304.70529 213.083157 
L 305.020584 198.590957 
L 305.335878 173.548434 
L 305.651172 130.274955 
L 305.861367 85.080324 
L 305.966465 218.199056 
L 306.071563 215.240862 
L 306.386857 202.31947 
L 306.702151 179.991306 
L 307.017445 141.408237 
L 307.332739 74.736695 
L 307.437837 217.164693 
L 307.542935 213.999626 
L 307.858228 200.174615 
L 308.173522 176.284996 
L 308.488816 135.003734 
L 308.699012 91.889766 
L 308.80411 218.88 
L 308.909208 216.057995 
L 309.224502 203.731476 
L 309.539795 182.431252 
L 309.855089 145.624464 
L 310.170383 82.022335 
L 310.275481 217.893257 
L 310.380579 214.873903 
L 310.695873 201.685366 
L 311.011167 178.895573 
L 311.32646 139.514811 
L 311.641754 71.464854 
L 311.746852 216.837509 
L 311.85195 213.607005 
L 312.167244 199.496166 
L 312.482538 175.112637 
L 312.797832 132.977897 
L 313.113125 88.972561 
L 313.218223 88.972561 
L 313.323321 60.169067 
L 313.428419 215.70793 
L 313.533517 212.251511 
L 313.848811 197.153872 
L 314.164105 171.065152 
L 314.479399 125.983844 
L 314.689595 78.901123 
L 314.794692 217.581136 
L 314.89979 214.499358 
L 315.215084 201.038151 
L 315.530378 177.777186 
L 315.845672 137.582239 
L 316.160966 68.12537 
L 316.266064 216.50356 
L 316.371162 213.206267 
L 316.686455 198.803691 
L 317.001749 173.916039 
L 317.317043 130.910176 
L 317.527239 85.995043 
L 317.632337 218.290528 
L 317.737435 215.350628 
L 318.052729 202.509146 
L 318.368022 180.319066 
L 318.683316 141.974607 
L 318.99861 75.715382 
L 319.103708 217.262562 
L 319.208806 214.117069 
L 319.5241 200.377556 
L 319.839394 176.635677 
L 320.154687 135.609712 
L 320.469981 92.762373 
L 323.412724 92.762373 
L 323.517822 64.716843 
L 323.622919 216.162708 
L 323.728017 212.797244 
L 324.043311 198.096899 
L 324.358605 172.694702 
L 324.673899 128.799706 
L 324.884095 82.955965 
L 324.989193 217.98662 
L 325.094291 214.985939 
L 325.409584 201.878963 
L 325.724878 179.230109 
L 326.040172 140.09289 
L 326.355466 72.463776 
L 326.460564 216.937401 
L 326.565662 213.726876 
L 326.880956 199.703303 
L 327.196249 175.470568 
L 327.511543 133.596403 
L 327.826837 61.237845 
L 327.931935 215.814808 
L 328.037033 212.379764 
L 328.352327 197.375494 
L 328.667621 171.448114 
L 328.982914 126.645603 
L 329.298208 79.854056 
L 329.403306 79.854056 
L 329.508404 49.226862 
L 329.613502 214.61371 
L 329.7186 210.938446 
L 330.033894 194.884896 
L 330.349188 167.144362 
L 330.664481 119.208719 
L 330.874677 69.144943 
L 330.979775 216.605518 
L 331.084873 213.328616 
L 331.400167 199.01511 
L 331.715461 174.281371 
L 332.030755 131.541469 
L 332.451146 57.68692 
L 332.556244 215.459715 
L 332.661342 211.953653 
L 332.976636 196.639174 
L 333.29193 170.175754 
L 333.607224 124.446964 
L 333.81742 76.688016 
L 333.922518 217.359825 
L 334.027616 214.233785 
L 334.342909 200.579241 
L 334.658203 176.98419 
L 334.973497 136.211941 
L 335.288791 65.757496 
L 335.393889 216.266773 
L 335.498987 212.922122 
L 335.814281 198.312688 
L 336.129574 173.067587 
L 336.444868 129.444051 
L 336.760162 83.883822 
L 336.86526 83.883822 
L 336.970358 54.062581 
L 337.075456 215.097282 
L 337.180554 211.518733 
L 337.495848 195.887631 
L 337.811141 168.877088 
L 338.126435 122.202868 
L 338.336631 73.456519 
L 338.441729 217.036675 
L 338.546827 213.846005 
L 338.862121 199.909158 
L 339.177415 175.826286 
L 339.492709 134.211083 
L 339.808002 62.300013 
L 339.9131 215.921025 
L 340.018198 212.507224 
L 340.333492 197.595745 
L 340.648786 171.828708 
L 340.96408 127.303269 
L 341.174276 80.801096 
L 341.279374 217.771133 
L 341.384471 214.727354 
L 341.699765 201.432129 
L 342.015059 178.457981 
L 342.330353 138.758652 
L 342.645647 70.158212 
L 342.750745 216.706845 
L 342.855843 213.450208 
L 343.171136 199.225221 
L 343.48643 174.644443 
L 343.801724 132.168858 
L 344.117018 58.771048 
L 344.222116 215.568128 
L 344.327214 212.083749 
L 344.642508 196.863979 
L 344.957801 170.564216 
L 345.273095 125.118227 
L 345.483291 77.654636 
L 345.588389 217.456487 
L 345.693487 214.349779 
L 346.008781 200.779679 
L 346.324075 177.330547 
L 346.639368 136.810447 
L 346.954662 66.791713 
L 347.05976 216.370195 
L 347.164858 213.046228 
L 347.480152 198.527144 
L 347.795446 173.438165 
L 348.11074 130.084411 
L 348.426033 55.169123 
L 348.531131 215.207936 
L 348.636229 211.651518 
L 348.951523 196.117084 
L 349.266817 169.273582 
L 349.582111 122.88801 
L 349.792307 74.443123 
L 349.897405 217.135336 
L 350.002503 213.964398 
L 350.317796 200.11374 
L 350.63309 176.179804 
L 350.948384 134.821963 
L 351.263678 63.355612 
L 351.368776 216.026585 
L 351.473874 212.633896 
L 351.789168 197.814634 
L 352.104461 172.206949 
L 352.419755 127.956868 
L 352.735049 51.492729 
L 352.840147 214.840296 
L 352.945245 211.21035 
L 353.260539 195.354747 
L 353.575833 167.956263 
L 353.891126 120.611684 
L 354.20642 71.165213 
L 356.938967 71.165213 
L 357.044065 216.807545 
L 357.149163 213.571048 
" clip-path="url(#p9712b5d331)" style="fill: none; stroke: #1f77b4; stroke-width: 1.5; stroke-linecap: square"/>
   </g>
   <g id="patch_3">
    <path d="M 37.567344 228.96 
L 37.567344 7.2 
" style="fill: none; stroke: #000000; stroke-width: 0.8; stroke-linejoin: miter; stroke-linecap: square"/>
   </g>
   <g id="patch_4">
    <path d="M 372.367344 228.96 
L 372.367344 7.2 
" style="fill: none; stroke: #000000; stroke-width: 0.8; stroke-linejoin: miter; stroke-linecap: square"/>
   </g>
   <g id="patch_5">
    <path d="M 37.567344 228.96 
L 372.367344 228.96 
" style="fill: none; stroke: #000000; stroke-width: 0.8; stroke-linejoin: miter; stroke-linecap: square"/>
   </g>
   <g id="patch_6">
    <path d="M 37.567344 7.2 
L 372.367344 7.2 
" style="fill: none; stroke: #000000; stroke-width: 0.8; stroke-linejoin: miter; stroke-linecap: square"/>
   </g>
   <g id="legend_1">
    <g id="patch_7">
     <path d="M 314.548024 29.420307 
L 365.367344 29.420307 
Q 367.367344 29.420307 367.367344 27.420307 
L 367.367344 14.2 
Q 367.367344 12.2 365.367344 12.2 
L 314.548024 12.2 
Q 312.548024 12.2 312.548024 14.2 
L 312.548024 27.420307 
Q 312.548024 29.420307 314.548024 29.420307 
z
" style="fill: #ffffff; opacity: 0.8; stroke: #cccccc; stroke-linejoin: miter"/>
    </g>
    <g id="line2d_14">
     <path d="M 316.548024 19.79832 
L 326.548024 19.79832 
L 336.548024 19.79832 
" style="fill: none; stroke: #1f77b4; stroke-width: 1.5; stroke-linecap: square"/>
    </g>
    <g id="text_15">
     <!-- CFL -->
     <g transform="translate(344.548024 23.29832) scale(0.1 -0.1)">
      <use xlink:href="#NimbusSanL-Regu-43" transform="scale(0.996264)"/>
      <use xlink:href="#NimbusSanL-Regu-46" transform="translate(71.929985 0) scale(0.996264)"/>
      <use xlink:href="#NimbusSanL-Regu-4c" transform="translate(132.801616 0) scale(0.996264)"/>
     </g>
    </g>
   </g>
  </g>
 </g>
 <defs>
  <clipPath id="p9712b5d331">
   <rect x="37.567344" y="7.2" width="334.8" height="221.76"/>
  </clipPath>
 </defs>
</svg>
