<?xml version="1.0" encoding="utf-8" standalone="no"?>
<!DOCTYPE svg PUBLIC "-//W3C//DTD SVG 1.1//EN"
  "http://www.w3.org/Graphics/SVG/1.1/DTD/svg11.dtd">
<svg xmlns:xlink="http://www.w3.org/1999/xlink" width="374.586009pt" height="265.600613pt" viewBox="0 0 374.586009 265.600613" xmlns="http://www.w3.org/2000/svg" version="1.1">
 <metadata>
  <rdf:RDF xmlns:dc="http://purl.org/dc/elements/1.1/" xmlns:cc="http://creativecommons.org/ns#" xmlns:rdf="http://www.w3.org/1999/02/22-rdf-syntax-ns#">
   <cc:Work>
    <dc:type rdf:resource="http://purl.org/dc/dcmitype/StillImage"/>
    <dc:date>2025-08-02T14:31:31.721358</dc:date>
    <dc:format>image/svg+xml</dc:format>
    <dc:creator>
     <cc:Agent>
      <dc:title>Matplotlib v3.10.3, https://matplotlib.org/</dc:title>
     </cc:Agent>
    </dc:creator>
   </cc:Work>
  </rdf:RDF>
 </metadata>
 <defs>
  <style type="text/css">*{stroke-linejoin: round; stroke-linecap: butt}</style>
 </defs>
 <g id="figure_1">
  <g id="patch_1">
   <path d="M 0 265.600613 
L 374.586009 265.600613 
L 374.586009 0 
L 0 0 
z
" style="fill: #ffffff"/>
  </g>
  <g id="axes_1">
   <g id="patch_2">
    <path d="M 32.586009 228.96 
L 367.386009 228.96 
L 367.386009 7.2 
L 32.586009 7.2 
z
" style="fill: #ffffff"/>
   </g>
   <g id="matplotlib.axis_1">
    <g id="xtick_1">
     <g id="line2d_1">
      <defs>
       <path id="m900b61414f" d="M 0 0 
L 0 3.5 
" style="stroke: #000000; stroke-width: 0.8"/>
      </defs>
      <g>
       <use xlink:href="#m900b61414f" x="47.804191" y="228.96" style="stroke: #000000; stroke-width: 0.8"/>
      </g>
     </g>
     <g id="text_1">
      <!-- $\mathdefault{0}$ -->
      <g transform="translate(45.313523 243.05832) scale(0.1 -0.1)">
       <defs>
        <path id="CMR17-30" d="M 2688 2038 
C 2688 2430 2682 3099 2413 3613 
C 2176 4063 1798 4224 1466 4224 
C 1158 4224 768 4082 525 3620 
C 269 3137 243 2539 243 2038 
C 243 1671 250 1112 448 623 
C 723 -39 1216 -128 1466 -128 
C 1760 -128 2208 -7 2470 604 
C 2662 1048 2688 1568 2688 2038 
z
M 1466 -26 
C 1056 -26 813 328 723 816 
C 653 1196 653 1749 653 2109 
C 653 2604 653 3015 736 3407 
C 858 3954 1216 4121 1466 4121 
C 1728 4121 2067 3947 2189 3420 
C 2272 3054 2278 2623 2278 2109 
C 2278 1691 2278 1176 2202 797 
C 2067 96 1690 -26 1466 -26 
z
" transform="scale(0.015625)"/>
       </defs>
       <use xlink:href="#CMR17-30" transform="scale(0.996264)"/>
      </g>
     </g>
    </g>
    <g id="xtick_2">
     <g id="line2d_2">
      <g>
       <use xlink:href="#m900b61414f" x="97.798218" y="228.96" style="stroke: #000000; stroke-width: 0.8"/>
      </g>
     </g>
     <g id="text_2">
      <!-- $\mathdefault{500}$ -->
      <g transform="translate(90.326215 243.05832) scale(0.1 -0.1)">
       <defs>
        <path id="CMR17-35" d="M 730 3750 
C 794 3724 1056 3641 1325 3641 
C 1920 3641 2246 3961 2432 4140 
C 2432 4191 2432 4224 2394 4224 
C 2387 4224 2374 4224 2323 4198 
C 2099 4102 1837 4032 1517 4032 
C 1325 4032 1037 4055 723 4191 
C 653 4224 640 4224 634 4224 
C 602 4224 595 4217 595 4090 
L 595 2231 
C 595 2113 595 2080 659 2080 
C 691 2080 704 2093 736 2139 
C 941 2435 1222 2560 1542 2560 
C 1766 2560 2246 2415 2246 1293 
C 2246 1087 2246 716 2054 422 
C 1894 159 1645 25 1370 25 
C 947 25 518 319 403 812 
C 429 806 480 793 506 793 
C 589 793 749 838 749 1036 
C 749 1209 627 1280 506 1280 
C 358 1280 262 1190 262 1011 
C 262 454 704 -128 1382 -128 
C 2042 -128 2669 441 2669 1267 
C 2669 2054 2170 2662 1549 2662 
C 1222 2662 947 2540 730 2304 
L 730 3750 
z
" transform="scale(0.015625)"/>
       </defs>
       <use xlink:href="#CMR17-35" transform="scale(0.996264)"/>
       <use xlink:href="#CMR17-30" transform="translate(45.690477 0) scale(0.996264)"/>
       <use xlink:href="#CMR17-30" transform="translate(91.380954 0) scale(0.996264)"/>
      </g>
     </g>
    </g>
    <g id="xtick_3">
     <g id="line2d_3">
      <g>
       <use xlink:href="#m900b61414f" x="147.792245" y="228.96" style="stroke: #000000; stroke-width: 0.8"/>
      </g>
     </g>
     <g id="text_3">
      <!-- $\mathdefault{1000}$ -->
      <g transform="translate(137.829574 243.05832) scale(0.1 -0.1)">
       <defs>
        <path id="CMR17-31" d="M 1702 4083 
C 1702 4217 1696 4224 1606 4224 
C 1357 3927 979 3833 621 3820 
C 602 3820 570 3820 563 3808 
C 557 3795 557 3782 557 3648 
C 755 3648 1088 3686 1344 3839 
L 1344 467 
C 1344 243 1331 166 781 166 
L 589 166 
L 589 0 
C 896 6 1216 12 1523 12 
C 1830 12 2150 6 2458 0 
L 2458 166 
L 2266 166 
C 1715 166 1702 236 1702 467 
L 1702 4083 
z
" transform="scale(0.015625)"/>
       </defs>
       <use xlink:href="#CMR17-31" transform="scale(0.996264)"/>
       <use xlink:href="#CMR17-30" transform="translate(45.690477 0) scale(0.996264)"/>
       <use xlink:href="#CMR17-30" transform="translate(91.380954 0) scale(0.996264)"/>
       <use xlink:href="#CMR17-30" transform="translate(137.071431 0) scale(0.996264)"/>
      </g>
     </g>
    </g>
    <g id="xtick_4">
     <g id="line2d_4">
      <g>
       <use xlink:href="#m900b61414f" x="197.786272" y="228.96" style="stroke: #000000; stroke-width: 0.8"/>
      </g>
     </g>
     <g id="text_4">
      <!-- $\mathdefault{1500}$ -->
      <g transform="translate(187.823601 243.05832) scale(0.1 -0.1)">
       <use xlink:href="#CMR17-31" transform="scale(0.996264)"/>
       <use xlink:href="#CMR17-35" transform="translate(45.690477 0) scale(0.996264)"/>
       <use xlink:href="#CMR17-30" transform="translate(91.380954 0) scale(0.996264)"/>
       <use xlink:href="#CMR17-30" transform="translate(137.071431 0) scale(0.996264)"/>
      </g>
     </g>
    </g>
    <g id="xtick_5">
     <g id="line2d_5">
      <g>
       <use xlink:href="#m900b61414f" x="247.780299" y="228.96" style="stroke: #000000; stroke-width: 0.8"/>
      </g>
     </g>
     <g id="text_5">
      <!-- $\mathdefault{2000}$ -->
      <g transform="translate(237.817628 243.05832) scale(0.1 -0.1)">
       <defs>
        <path id="CMR17-32" d="M 2669 990 
L 2554 990 
C 2490 537 2438 460 2413 422 
C 2381 371 1920 371 1830 371 
L 602 371 
C 832 620 1280 1073 1824 1596 
C 2214 1966 2669 2400 2669 3033 
C 2669 3788 2067 4224 1395 4224 
C 691 4224 262 3603 262 3027 
C 262 2777 448 2745 525 2745 
C 589 2745 781 2783 781 3007 
C 781 3206 614 3264 525 3264 
C 486 3264 448 3257 422 3244 
C 544 3788 915 4057 1306 4057 
C 1862 4057 2227 3616 2227 3033 
C 2227 2477 1901 1998 1536 1583 
L 262 147 
L 262 0 
L 2515 0 
L 2669 990 
z
" transform="scale(0.015625)"/>
       </defs>
       <use xlink:href="#CMR17-32" transform="scale(0.996264)"/>
       <use xlink:href="#CMR17-30" transform="translate(45.690477 0) scale(0.996264)"/>
       <use xlink:href="#CMR17-30" transform="translate(91.380954 0) scale(0.996264)"/>
       <use xlink:href="#CMR17-30" transform="translate(137.071431 0) scale(0.996264)"/>
      </g>
     </g>
    </g>
    <g id="xtick_6">
     <g id="line2d_6">
      <g>
       <use xlink:href="#m900b61414f" x="297.774326" y="228.96" style="stroke: #000000; stroke-width: 0.8"/>
      </g>
     </g>
     <g id="text_6">
      <!-- $\mathdefault{2500}$ -->
      <g transform="translate(287.811655 243.05832) scale(0.1 -0.1)">
       <use xlink:href="#CMR17-32" transform="scale(0.996264)"/>
       <use xlink:href="#CMR17-35" transform="translate(45.690477 0) scale(0.996264)"/>
       <use xlink:href="#CMR17-30" transform="translate(91.380954 0) scale(0.996264)"/>
       <use xlink:href="#CMR17-30" transform="translate(137.071431 0) scale(0.996264)"/>
      </g>
     </g>
    </g>
    <g id="xtick_7">
     <g id="line2d_7">
      <g>
       <use xlink:href="#m900b61414f" x="347.768353" y="228.96" style="stroke: #000000; stroke-width: 0.8"/>
      </g>
     </g>
     <g id="text_7">
      <!-- $\mathdefault{3000}$ -->
      <g transform="translate(337.805682 243.05832) scale(0.1 -0.1)">
       <defs>
        <path id="CMR17-33" d="M 1414 2176 
C 1984 2176 2234 1673 2234 1094 
C 2234 322 1824 25 1453 25 
C 1114 25 563 193 390 691 
C 422 678 454 678 486 678 
C 640 678 755 780 755 947 
C 755 1132 614 1216 486 1216 
C 378 1216 211 1164 211 927 
C 211 335 787 -128 1466 -128 
C 2176 -128 2720 432 2720 1087 
C 2720 1718 2208 2176 1600 2246 
C 2086 2347 2554 2776 2554 3353 
C 2554 3856 2048 4224 1472 4224 
C 890 4224 378 3862 378 3347 
C 378 3123 544 3084 627 3084 
C 762 3084 877 3167 877 3334 
C 877 3500 762 3584 627 3584 
C 602 3584 570 3584 544 3571 
C 730 3999 1235 4076 1459 4076 
C 1683 4076 2106 3966 2106 3347 
C 2106 3167 2080 2851 1862 2574 
C 1670 2329 1453 2316 1242 2297 
C 1210 2297 1062 2284 1037 2284 
C 992 2278 966 2272 966 2227 
C 966 2182 973 2176 1101 2176 
L 1414 2176 
z
" transform="scale(0.015625)"/>
       </defs>
       <use xlink:href="#CMR17-33" transform="scale(0.996264)"/>
       <use xlink:href="#CMR17-30" transform="translate(45.690477 0) scale(0.996264)"/>
       <use xlink:href="#CMR17-30" transform="translate(91.380954 0) scale(0.996264)"/>
       <use xlink:href="#CMR17-30" transform="translate(137.071431 0) scale(0.996264)"/>
      </g>
     </g>
    </g>
    <g id="text_8">
     <!-- Iteration -->
     <g transform="translate(182.038633 256.278627) scale(0.1 -0.1)">
      <defs>
       <path id="NimbusSanL-Regu-49" d="M 1242 4672 
L 640 4672 
L 640 0 
L 1242 0 
L 1242 4672 
z
" transform="scale(0.015625)"/>
       <path id="NimbusSanL-Regu-74" d="M 1626 3328 
L 1075 3328 
L 1075 4249 
L 544 4249 
L 544 3328 
L 90 3328 
L 90 2892 
L 544 2892 
L 544 402 
C 544 64 774 -128 1190 -128 
C 1318 -128 1446 -116 1626 -84 
L 1626 364 
C 1555 345 1472 339 1370 339 
C 1139 339 1075 402 1075 634 
L 1075 2892 
L 1626 2892 
L 1626 3328 
z
" transform="scale(0.015625)"/>
       <path id="NimbusSanL-Regu-65" d="M 3283 1484 
C 3283 1998 3245 2311 3149 2565 
C 2931 3123 2419 3456 1792 3456 
C 858 3456 256 2734 256 1619 
C 256 545 838 -128 1779 -128 
C 2547 -128 3078 307 3213 1018 
L 2675 1018 
C 2528 588 2227 364 1798 364 
C 1459 364 1171 514 992 787 
C 864 974 819 1161 813 1484 
L 3283 1484 
z
M 826 1920 
C 870 2552 1248 2963 1786 2963 
C 2310 2963 2714 2519 2714 1959 
C 2714 1946 2714 1933 2707 1920 
L 826 1920 
z
" transform="scale(0.015625)"/>
       <path id="NimbusSanL-Regu-72" d="M 442 3328 
L 442 0 
L 979 0 
L 979 1727 
C 979 2203 1101 2514 1357 2698 
C 1523 2819 1683 2857 2054 2863 
L 2054 3404 
C 1965 3449 1920 3456 1850 3456 
C 1504 3456 1242 3251 934 2750 
L 934 3328 
L 442 3328 
z
" transform="scale(0.015625)"/>
       <path id="NimbusSanL-Regu-61" d="M 3424 332 
C 3366 320 3341 320 3309 320 
C 3123 320 3021 415 3021 581 
L 3021 2542 
C 3021 3135 2586 3456 1760 3456 
C 1274 3456 870 3315 646 3065 
C 493 2893 429 2702 416 2370 
L 954 2370 
C 998 2778 1242 2963 1741 2963 
C 2221 2963 2490 2784 2490 2466 
L 2490 2326 
C 2490 2103 2355 2007 1933 1956 
C 1178 1861 1062 1835 858 1753 
C 467 1593 269 1294 269 861 
C 269 256 691 -128 1370 -128 
C 1792 -128 2131 19 2509 364 
C 2547 25 2714 -128 3059 -128 
C 3168 -128 3251 -116 3424 -71 
L 3424 332 
z
M 2490 1071 
C 2490 893 2438 785 2278 638 
C 2061 441 1798 339 1485 339 
C 1069 339 826 536 826 874 
C 826 1224 1062 1402 1632 1485 
C 2195 1562 2310 1587 2490 1670 
L 2490 1071 
z
" transform="scale(0.015625)"/>
       <path id="NimbusSanL-Regu-69" d="M 960 3358 
L 429 3358 
L 429 0 
L 960 0 
L 960 3358 
z
M 960 4672 
L 422 4672 
L 422 3999 
L 960 3999 
L 960 4672 
z
" transform="scale(0.015625)"/>
       <path id="NimbusSanL-Regu-6f" d="M 1741 3456 
C 800 3456 230 2784 230 1663 
C 230 543 794 -128 1747 -128 
C 2688 -128 3264 543 3264 1638 
C 3264 2791 2707 3456 1741 3456 
z
M 1747 2963 
C 2349 2963 2707 2472 2707 1644 
C 2707 861 2336 364 1747 364 
C 1152 364 787 855 787 1663 
C 787 2466 1152 2963 1747 2963 
z
" transform="scale(0.015625)"/>
       <path id="NimbusSanL-Regu-6e" d="M 448 3328 
L 448 0 
L 986 0 
L 986 1835 
C 986 2539 1344 2988 1894 2988 
C 2317 2988 2586 2732 2586 2328 
L 2586 0 
L 3117 0 
L 3117 2539 
C 3117 3097 2701 3456 2054 3456 
C 1555 3456 1235 3263 941 2796 
L 941 3328 
L 448 3328 
z
" transform="scale(0.015625)"/>
      </defs>
      <use xlink:href="#NimbusSanL-Regu-49" transform="scale(0.996264)"/>
      <use xlink:href="#NimbusSanL-Regu-74" transform="translate(27.69517 0) scale(0.996264)"/>
      <use xlink:href="#NimbusSanL-Regu-65" transform="translate(55.390339 0) scale(0.996264)"/>
      <use xlink:href="#NimbusSanL-Regu-72" transform="translate(110.782016 0) scale(0.996264)"/>
      <use xlink:href="#NimbusSanL-Regu-61" transform="translate(142.961149 0) scale(0.996264)"/>
      <use xlink:href="#NimbusSanL-Regu-74" transform="translate(198.352826 0) scale(0.996264)"/>
      <use xlink:href="#NimbusSanL-Regu-69" transform="translate(226.047996 0) scale(0.996264)"/>
      <use xlink:href="#NimbusSanL-Regu-6f" transform="translate(248.16478 0) scale(0.996264)"/>
      <use xlink:href="#NimbusSanL-Regu-6e" transform="translate(303.556457 0) scale(0.996264)"/>
     </g>
    </g>
   </g>
   <g id="matplotlib.axis_2">
    <g id="ytick_1">
     <g id="line2d_8">
      <defs>
       <path id="mde3cedb89d" d="M 0 0 
L -3.5 0 
" style="stroke: #000000; stroke-width: 0.8"/>
      </defs>
      <g>
       <use xlink:href="#mde3cedb89d" x="32.586009" y="202.638056" style="stroke: #000000; stroke-width: 0.8"/>
      </g>
     </g>
     <g id="text_9">
      <!-- $\mathdefault{0}$ -->
      <g transform="translate(20.604674 206.187216) scale(0.1 -0.1)">
       <use xlink:href="#CMR17-30" transform="scale(0.996264)"/>
      </g>
     </g>
    </g>
    <g id="ytick_2">
     <g id="line2d_9">
      <g>
       <use xlink:href="#mde3cedb89d" x="32.586009" y="171.739374" style="stroke: #000000; stroke-width: 0.8"/>
      </g>
     </g>
     <g id="text_10">
      <!-- $\mathdefault{1}$ -->
      <g transform="translate(20.604674 175.288534) scale(0.1 -0.1)">
       <use xlink:href="#CMR17-31" transform="scale(0.996264)"/>
      </g>
     </g>
    </g>
    <g id="ytick_3">
     <g id="line2d_10">
      <g>
       <use xlink:href="#mde3cedb89d" x="32.586009" y="140.840692" style="stroke: #000000; stroke-width: 0.8"/>
      </g>
     </g>
     <g id="text_11">
      <!-- $\mathdefault{2}$ -->
      <g transform="translate(20.604674 144.389852) scale(0.1 -0.1)">
       <use xlink:href="#CMR17-32" transform="scale(0.996264)"/>
      </g>
     </g>
    </g>
    <g id="ytick_4">
     <g id="line2d_11">
      <g>
       <use xlink:href="#mde3cedb89d" x="32.586009" y="109.942009" style="stroke: #000000; stroke-width: 0.8"/>
      </g>
     </g>
     <g id="text_12">
      <!-- $\mathdefault{3}$ -->
      <g transform="translate(20.604674 113.491169) scale(0.1 -0.1)">
       <use xlink:href="#CMR17-33" transform="scale(0.996264)"/>
      </g>
     </g>
    </g>
    <g id="ytick_5">
     <g id="line2d_12">
      <g>
       <use xlink:href="#mde3cedb89d" x="32.586009" y="79.043327" style="stroke: #000000; stroke-width: 0.8"/>
      </g>
     </g>
     <g id="text_13">
      <!-- $\mathdefault{4}$ -->
      <g transform="translate(20.604674 82.592487) scale(0.1 -0.1)">
       <defs>
        <path id="CMR17-34" d="M 2150 4147 
C 2150 4281 2144 4288 2029 4288 
L 128 1254 
L 128 1088 
L 1779 1088 
L 1779 460 
C 1779 230 1766 166 1318 166 
L 1197 166 
L 1197 0 
C 1402 12 1747 12 1965 12 
C 2182 12 2528 12 2733 0 
L 2733 166 
L 2611 166 
C 2163 166 2150 230 2150 460 
L 2150 1088 
L 2803 1088 
L 2803 1254 
L 2150 1254 
L 2150 4147 
z
M 1798 3723 
L 1798 1254 
L 256 1254 
L 1798 3723 
z
" transform="scale(0.015625)"/>
       </defs>
       <use xlink:href="#CMR17-34" transform="scale(0.996264)"/>
      </g>
     </g>
    </g>
    <g id="ytick_6">
     <g id="line2d_13">
      <g>
       <use xlink:href="#mde3cedb89d" x="32.586009" y="48.144645" style="stroke: #000000; stroke-width: 0.8"/>
      </g>
     </g>
     <g id="text_14">
      <!-- $\mathdefault{5}$ -->
      <g transform="translate(20.604674 51.693805) scale(0.1 -0.1)">
       <use xlink:href="#CMR17-35" transform="scale(0.996264)"/>
      </g>
     </g>
    </g>
    <g id="ytick_7">
     <g id="line2d_14">
      <g>
       <use xlink:href="#mde3cedb89d" x="32.586009" y="17.245963" style="stroke: #000000; stroke-width: 0.8"/>
      </g>
     </g>
     <g id="text_15">
      <!-- $\mathdefault{6}$ -->
      <g transform="translate(20.604674 20.795123) scale(0.1 -0.1)">
       <defs>
        <path id="CMR17-36" d="M 678 2198 
C 678 3712 1395 4076 1811 4076 
C 1946 4076 2272 4049 2400 3782 
C 2298 3782 2106 3782 2106 3558 
C 2106 3385 2246 3328 2336 3328 
C 2394 3328 2566 3353 2566 3571 
C 2566 3987 2246 4224 1805 4224 
C 1043 4224 243 3411 243 2011 
C 243 257 966 -128 1478 -128 
C 2099 -128 2688 431 2688 1295 
C 2688 2101 2170 2688 1517 2688 
C 1126 2688 838 2430 678 1979 
L 678 2198 
z
M 1478 25 
C 691 25 691 1212 691 1450 
C 691 1914 909 2585 1504 2585 
C 1613 2585 1926 2585 2138 2140 
C 2253 1889 2253 1624 2253 1302 
C 2253 954 2253 696 2118 438 
C 1978 173 1773 25 1478 25 
z
" transform="scale(0.015625)"/>
       </defs>
       <use xlink:href="#CMR17-36" transform="scale(0.996264)"/>
      </g>
     </g>
    </g>
    <g id="text_16">
     <!-- Aerodynamic Coefficients - Blade_0 -->
     <g transform="translate(14.482687 196.280864) rotate(-90) scale(0.1 -0.1)">
      <defs>
       <path id="NimbusSanL-Regu-41" d="M 3034 1408 
L 3514 0 
L 4179 0 
L 2541 4672 
L 1773 4672 
L 109 0 
L 742 0 
L 1235 1408 
L 3034 1408 
z
M 2867 1907 
L 1382 1907 
L 2150 4032 
L 2867 1907 
z
" transform="scale(0.015625)"/>
       <path id="NimbusSanL-Regu-64" d="M 3168 4672 
L 2637 4672 
L 2637 2937 
C 2413 3276 2054 3456 1606 3456 
C 736 3456 166 2759 166 1695 
C 166 568 723 -128 1626 -128 
C 2086 -128 2406 44 2694 460 
L 2694 19 
L 3168 19 
L 3168 4672 
z
M 1696 2956 
C 2272 2956 2637 2447 2637 1651 
C 2637 880 2266 371 1702 371 
C 1114 371 723 887 723 1663 
C 723 2440 1114 2956 1696 2956 
z
" transform="scale(0.015625)"/>
       <path id="NimbusSanL-Regu-79" d="M 2483 3328 
L 1555 724 
L 698 3328 
L 128 3328 
L 1261 -29 
L 1056 -558 
C 973 -794 851 -884 627 -884 
C 550 -884 461 -871 346 -845 
L 346 -1325 
C 454 -1383 563 -1408 704 -1408 
C 877 -1408 1062 -1351 1203 -1248 
C 1370 -1127 1466 -986 1568 -718 
L 3059 3328 
L 2483 3328 
z
" transform="scale(0.015625)"/>
       <path id="NimbusSanL-Regu-6d" d="M 448 3328 
L 448 0 
L 986 0 
L 986 2089 
C 986 2597 1338 2988 1773 2988 
C 2170 2988 2394 2744 2394 2315 
L 2394 0 
L 2931 0 
L 2931 2109 
C 2931 2597 3283 2988 3718 2988 
C 4109 2988 4339 2738 4339 2315 
L 4339 0 
L 4877 0 
L 4877 2520 
C 4877 3123 4531 3456 3904 3456 
C 3456 3456 3187 3321 2874 2943 
C 2675 3302 2406 3456 1971 3456 
C 1523 3456 1229 3289 941 2886 
L 941 3328 
L 448 3328 
z
" transform="scale(0.015625)"/>
       <path id="NimbusSanL-Regu-63" d="M 3014 2237 
C 2989 2561 2918 2771 2790 2956 
C 2560 3270 2157 3456 1690 3456 
C 787 3456 198 2740 198 1632 
C 198 555 774 -128 1683 -128 
C 2483 -128 2989 352 3053 1167 
L 2515 1167 
C 2426 632 2150 364 1696 364 
C 1107 364 755 842 755 1632 
C 755 2466 1101 2963 1683 2963 
C 2131 2963 2413 2701 2477 2237 
L 3014 2237 
z
" transform="scale(0.015625)"/>
       <path id="NimbusSanL-Regu-43" d="M 4237 3219 
C 4051 4236 3462 4736 2438 4736 
C 1811 4736 1306 4537 960 4154 
C 538 3696 307 3035 307 2284 
C 307 1522 544 867 986 415 
C 1344 44 1805 -128 2413 -128 
C 3552 -128 4192 485 4333 1712 
L 3718 1712 
C 3667 1394 3603 1178 3507 994 
C 3315 612 2918 396 2419 396 
C 1491 396 902 1134 902 2291 
C 902 3480 1466 4211 2368 4211 
C 2746 4211 3098 4096 3290 3918 
C 3462 3759 3558 3562 3629 3219 
L 4237 3219 
z
" transform="scale(0.015625)"/>
       <path id="NimbusSanL-Regu-66" d="M 1651 3328 
L 1094 3328 
L 1094 3860 
C 1094 4087 1222 4204 1466 4204 
C 1510 4204 1530 4204 1651 4198 
L 1651 4639 
C 1530 4665 1459 4672 1350 4672 
C 858 4672 563 4390 563 3905 
L 563 3328 
L 115 3328 
L 115 2892 
L 563 2892 
L 563 0 
L 1094 0 
L 1094 2892 
L 1651 2892 
L 1651 3328 
z
" transform="scale(0.015625)"/>
       <path id="NimbusSanL-Regu-2" d="M 1613 3328 
L 1056 3328 
L 1056 3860 
C 1056 4087 1184 4204 1427 4204 
C 1472 4204 1491 4204 1613 4198 
L 1613 4639 
C 1491 4665 1421 4672 1312 4672 
C 819 4672 525 4390 525 3905 
L 525 3328 
L 77 3328 
L 77 2892 
L 525 2892 
L 525 0 
L 1056 0 
L 1056 2892 
L 1613 2892 
L 1613 3328 
z
M 2790 3328 
L 2259 3328 
L 2259 0 
L 2790 0 
L 2790 3328 
z
M 2790 4672 
L 2259 4672 
L 2259 3999 
L 2790 3999 
L 2790 4672 
z
" transform="scale(0.015625)"/>
       <path id="NimbusSanL-Regu-73" d="M 2803 2428 
C 2797 3084 2362 3456 1587 3456 
C 806 3456 301 3052 301 2434 
C 301 1912 570 1663 1363 1472 
L 1862 1351 
C 2234 1262 2381 1129 2381 887 
C 2381 574 2067 364 1600 364 
C 1312 364 1069 447 934 587 
C 851 683 813 778 781 1014 
L 218 1014 
C 243 243 678 -128 1555 -128 
C 2400 -128 2938 288 2938 931 
C 2938 1428 2656 1702 1990 1861 
L 1478 1982 
C 1043 2084 858 2224 858 2459 
C 858 2765 1133 2963 1568 2963 
C 1997 2963 2227 2778 2240 2428 
L 2803 2428 
z
" transform="scale(0.015625)"/>
       <path id="NimbusSanL-Regu-2d" d="M 1818 1996 
L 294 1996 
L 294 1536 
L 1818 1536 
L 1818 1996 
z
" transform="scale(0.015625)"/>
       <path id="NimbusSanL-Regu-42" d="M 506 0 
L 2611 0 
C 3053 0 3379 121 3629 390 
C 3859 632 3987 961 3987 1321 
C 3987 1878 3731 2214 3136 2444 
C 3558 2643 3782 2994 3782 3476 
C 3782 3821 3654 4127 3411 4345 
C 3168 4569 2848 4672 2400 4672 
L 506 4672 
L 506 0 
z
M 1101 2636 
L 1101 4147 
L 2253 4147 
C 2586 4147 2771 4101 2931 3977 
C 3098 3847 3187 3652 3187 3391 
C 3187 3138 3098 2936 2931 2806 
C 2771 2682 2586 2636 2253 2636 
L 1101 2636 
z
M 1101 524 
L 1101 2112 
L 2554 2112 
C 2842 2112 3034 2042 3174 1890 
C 3315 1745 3392 1542 3392 1315 
C 3392 1093 3315 891 3174 746 
C 3034 594 2842 524 2554 524 
L 1101 524 
z
" transform="scale(0.015625)"/>
       <path id="NimbusSanL-Regu-6c" d="M 973 4672 
L 435 4672 
L 435 0 
L 973 0 
L 973 4672 
z
" transform="scale(0.015625)"/>
       <path id="NimbusSanL-Regu-30" d="M 1760 4544 
C 1338 4544 954 4358 717 4044 
C 422 3649 275 3043 275 2207 
C 275 683 787 -128 1760 -128 
C 2720 -128 3245 683 3245 2169 
C 3245 3049 3104 3636 2803 4044 
C 2566 4364 2189 4544 1760 4544 
z
M 1760 4044 
C 2368 4044 2669 3432 2669 2220 
C 2669 938 2374 339 1747 339 
C 1152 339 851 964 851 2201 
C 851 3438 1152 4044 1760 4044 
z
" transform="scale(0.015625)"/>
      </defs>
      <use xlink:href="#NimbusSanL-Regu-41" transform="scale(0.996264)"/>
      <use xlink:href="#NimbusSanL-Regu-65" transform="translate(66.450031 0) scale(0.996264)"/>
      <use xlink:href="#NimbusSanL-Regu-72" transform="translate(121.841708 0) scale(0.996264)"/>
      <use xlink:href="#NimbusSanL-Regu-6f" transform="translate(155.016938 0) scale(0.996264)"/>
      <use xlink:href="#NimbusSanL-Regu-64" transform="translate(210.408615 0) scale(0.996264)"/>
      <use xlink:href="#NimbusSanL-Regu-79" transform="translate(265.800292 0) scale(0.996264)"/>
      <use xlink:href="#NimbusSanL-Regu-6e" transform="translate(315.613492 0) scale(0.996264)"/>
      <use xlink:href="#NimbusSanL-Regu-61" transform="translate(371.005169 0) scale(0.996264)"/>
      <use xlink:href="#NimbusSanL-Regu-6d" transform="translate(426.396846 0) scale(0.996264)"/>
      <use xlink:href="#NimbusSanL-Regu-69" transform="translate(509.385276 0) scale(0.996264)"/>
      <use xlink:href="#NimbusSanL-Regu-63" transform="translate(531.502061 0) scale(0.996264)"/>
      <use xlink:href="#NimbusSanL-Regu-43" transform="translate(609.010431 0) scale(0.996264)"/>
      <use xlink:href="#NimbusSanL-Regu-6f" transform="translate(680.940416 0) scale(0.996264)"/>
      <use xlink:href="#NimbusSanL-Regu-65" transform="translate(736.332093 0) scale(0.996264)"/>
      <use xlink:href="#NimbusSanL-Regu-66" transform="translate(791.72377 0) scale(0.996264)"/>
      <use xlink:href="#NimbusSanL-Regu-2" transform="translate(819.418939 0) scale(0.996264)"/>
      <use xlink:href="#NimbusSanL-Regu-63" transform="translate(869.23214 0) scale(0.996264)"/>
      <use xlink:href="#NimbusSanL-Regu-69" transform="translate(919.04534 0) scale(0.996264)"/>
      <use xlink:href="#NimbusSanL-Regu-65" transform="translate(941.162125 0) scale(0.996264)"/>
      <use xlink:href="#NimbusSanL-Regu-6e" transform="translate(996.553802 0) scale(0.996264)"/>
      <use xlink:href="#NimbusSanL-Regu-74" transform="translate(1051.945479 0) scale(0.996264)"/>
      <use xlink:href="#NimbusSanL-Regu-73" transform="translate(1079.640648 0) scale(0.996264)"/>
      <use xlink:href="#NimbusSanL-Regu-2d" transform="translate(1157.149018 0) scale(0.996264)"/>
      <use xlink:href="#NimbusSanL-Regu-42" transform="translate(1218.019418 0) scale(0.996264)"/>
      <use xlink:href="#NimbusSanL-Regu-6c" transform="translate(1284.469449 0) scale(0.996264)"/>
      <use xlink:href="#NimbusSanL-Regu-61" transform="translate(1306.586233 0) scale(0.996264)"/>
      <use xlink:href="#NimbusSanL-Regu-64" transform="translate(1361.97791 0) scale(0.996264)"/>
      <use xlink:href="#NimbusSanL-Regu-65" transform="translate(1417.369587 0) scale(0.996264)"/>
      <use xlink:href="#NimbusSanL-Regu-30" transform="translate(1508.626829 0) scale(0.996264)"/>
      <path d="M 1478.738605 0 
L 1508.626829 0 
L 1508.626829 0.3985 
L 1478.738605 0.3985 
L 1478.738605 0 
z
"/>
     </g>
    </g>
   </g>
   <g id="line2d_15">
    <path d="M 47.804191 159.53604 
L 48.204143 35.306949 
L 48.504107 17.28 
L 48.604095 18.040283 
L 49.204024 38.849443 
L 49.304012 38.626393 
L 49.404 38.968979 
L 49.603976 40.56256 
L 49.803952 40.970644 
L 50.103916 42.459362 
L 50.40388 45.504839 
L 50.603856 49.548879 
L 50.803833 57.667763 
L 51.103797 83.461559 
L 51.303773 95.434635 
L 51.503749 97.849509 
L 51.803713 105.600283 
L 52.103677 122.251218 
L 52.703606 167.221888 
L 53.00357 172.750638 
L 53.303534 183.687023 
L 53.803474 205.729332 
L 54.00345 207.020004 
L 54.303414 207.644327 
L 54.503391 208.573119 
L 55.003331 212.488574 
L 55.103319 212.186724 
L 55.403283 209.527199 
L 56.003211 209.350634 
L 56.203187 209.409539 
L 56.303176 209.20302 
L 56.503152 207.479869 
L 56.703128 205.649523 
L 57.003092 205.042121 
L 57.303056 203.805397 
L 57.503032 202.218792 
L 57.703008 199.216109 
L 58.002972 189.11947 
L 58.202949 183.596288 
L 58.502913 181.814689 
L 58.802877 178.380035 
L 59.202829 170.799029 
L 59.602781 162.023634 
L 59.902745 161.032878 
L 60.102722 159.672855 
L 60.302698 157.067864 
L 60.502674 151.95656 
L 60.902626 137.116702 
L 61.20259 136.042788 
L 61.602542 135.721577 
L 61.902507 135.209926 
L 62.202471 134.227748 
L 62.502435 132.486636 
L 63.202351 127.555044 
L 63.302339 127.841845 
L 63.502315 129.990948 
L 63.702292 131.874382 
L 64.002256 132.461018 
L 64.30222 133.767574 
L 64.602184 136.299262 
L 65.102124 141.755978 
L 65.402088 142.744988 
L 65.702053 145.028732 
L 66.002017 149.849851 
L 66.501957 159.748204 
L 66.801921 161.332647 
L 67.101885 164.546163 
L 67.501838 172.36819 
L 67.801802 178.580981 
L 68.101766 179.647031 
L 68.40173 181.997852 
L 68.701694 186.726443 
L 69.201635 197.162502 
L 69.501599 199.053045 
L 69.801563 203.078901 
L 70.201515 213.164087 
L 70.401491 215.928624 
L 70.701455 216.611872 
L 71.401372 218.88 
L 71.50136 218.746348 
L 72.0013 217.024527 
L 72.301264 216.034704 
L 72.601228 213.620603 
L 73.001181 206.986503 
L 73.201157 204.209544 
L 73.501121 203.084846 
L 73.801085 200.497815 
L 74.201037 193.771403 
L 74.501001 188.620247 
L 74.800966 187.779998 
L 75.10093 185.940111 
L 75.400894 182.50836 
L 75.900834 175.124649 
L 76.200798 174.522219 
L 76.500762 173.322291 
L 77.200679 169.523926 
L 78.000583 169.551762 
L 78.200559 169.78881 
L 78.7005 170.752835 
L 79.000464 170.95901 
L 79.300428 171.41412 
L 80.000344 172.709859 
L 80.500285 172.936317 
L 80.800249 173.339821 
L 81.100213 174.156905 
L 81.400177 175.168784 
L 81.900117 175.384375 
L 82.899998 176.078831 
L 83.499926 175.987486 
L 83.79989 175.755422 
L 84.299831 175.146234 
L 84.699783 174.988287 
L 85.199723 174.49641 
L 85.599675 174.125948 
L 86.699544 174.104842 
L 86.999508 174.160125 
L 88.099377 174.139202 
L 88.299353 174.00198 
L 88.899281 173.8215 
L 90.199126 173.194995 
L 92.098899 173.028271 
L 92.698827 172.397623 
L 93.198767 172.12467 
L 93.59872 171.846793 
L 94.09866 171.911416 
L 94.498612 172.051586 
L 94.798576 172.397741 
L 95.298517 173.337629 
L 95.698469 173.592227 
L 96.098421 174.185874 
L 96.498373 174.859033 
L 97.098302 175.063957 
L 97.598242 175.531506 
L 97.898206 175.86363 
L 98.498134 176.047936 
L 98.798098 176.319479 
L 99.098063 176.927712 
L 99.398027 177.598041 
L 99.797979 177.796771 
L 100.097943 178.135959 
L 100.497895 179.024324 
L 100.697872 179.352165 
L 101.197812 179.566971 
L 101.597764 179.97126 
L 102.097704 180.50533 
L 103.197573 180.547507 
L 103.397549 180.441249 
L 103.997477 180.301466 
L 104.297441 180.063279 
L 104.597406 179.481507 
L 104.797382 179.108119 
L 105.197334 178.910877 
L 105.497298 178.555026 
L 105.797262 177.834553 
L 106.297203 176.326948 
L 106.597167 176.070845 
L 106.897131 175.550352 
L 107.297083 174.237465 
L 107.697035 172.705691 
L 108.296964 172.492037 
L 108.896892 172.20813 
L 109.196856 172.299086 
L 109.696796 172.432726 
L 109.996761 172.728267 
L 110.296725 173.524104 
L 110.496701 174.007283 
L 110.896653 174.249803 
L 111.196617 174.674493 
L 111.496581 175.457779 
L 111.796546 176.298513 
L 112.196498 176.519894 
L 112.496462 176.885207 
L 112.896414 177.762989 
L 113.196378 178.364054 
L 113.696319 178.555924 
L 114.496223 179.08834 
L 114.796187 179.006547 
L 115.296127 178.881681 
L 115.596092 178.621205 
L 116.19602 177.864653 
L 116.595972 177.586318 
L 116.895936 177.100848 
L 117.1959 176.117075 
L 117.395877 175.577773 
L 117.795829 175.315232 
L 118.095793 174.856955 
L 118.495745 173.696575 
L 118.695721 173.262888 
L 119.095673 173.063957 
L 119.495626 172.579339 
L 120.195542 171.484564 
L 120.79547 171.240207 
L 121.295411 170.990401 
L 122.295291 171.276908 
L 122.595255 171.591233 
L 122.895219 172.024609 
L 123.39516 172.209387 
L 123.695124 172.500907 
L 123.995088 173.083932 
L 124.295052 173.76705 
L 124.794993 174.032103 
L 125.194945 174.591984 
L 125.794873 175.653967 
L 126.294813 175.914778 
L 126.694766 176.388181 
L 126.99473 176.70872 
L 127.694646 176.888161 
L 128.494551 177.143542 
L 129.394443 177.063361 
L 129.894383 176.899604 
L 130.494312 176.727255 
L 130.794276 176.46195 
L 131.09424 176.102889 
L 131.694168 175.887848 
L 132.09412 175.461071 
L 132.594061 174.831254 
L 133.094001 174.618083 
L 133.493953 174.215608 
L 133.793917 173.922917 
L 134.493834 173.742648 
L 135.393726 173.389277 
L 136.393607 173.430341 
L 136.993535 173.87266 
L 138.193392 174.805412 
L 138.693332 174.959634 
L 139.893189 174.916736 
L 140.693093 174.823473 
L 141.393009 174.646446 
L 141.692974 174.584335 
L 142.592866 174.439115 
L 143.192794 174.369221 
L 148.592149 174.233116 
L 153.69154 174.160555 
L 154.991385 173.803182 
L 156.29123 173.828399 
L 158.091015 174.03985 
L 158.890919 174.187413 
L 165.490131 174.558066 
L 166.190047 174.639993 
L 167.089939 174.805375 
L 167.58988 174.845867 
L 170.689509 174.892758 
L 174.389067 174.504441 
L 176.388828 174.559112 
L 177.288721 174.696841 
L 177.988637 174.799874 
L 178.88853 174.944007 
L 179.288482 174.988923 
L 180.388351 175.136664 
L 181.088267 175.199524 
L 183.887932 175.228637 
L 185.387753 175.031667 
L 187.387514 174.68325 
L 187.787467 174.63399 
L 189.787228 174.418014 
L 191.687001 174.21918 
L 196.286451 174.247111 
L 198.186224 174.491017 
L 199.086117 174.634336 
L 202.885663 174.70301 
L 204.885424 174.565436 
L 209.084922 174.239078 
L 212.484516 174.378332 
L 213.984337 174.496823 
L 217.483919 174.666344 
L 223.08325 174.592387 
L 223.983142 174.547688 
L 228.282628 174.279278 
L 230.982306 174.374795 
L 234.481888 174.581427 
L 236.681625 174.498789 
L 239.381302 174.204377 
L 243.880765 174.089627 
L 255.179415 174.228077 
L 258.079069 174.32858 
L 262.978483 174.621871 
L 264.778268 174.645635 
L 269.677683 174.53768 
L 274.177145 174.520762 
L 285.475795 174.559903 
L 352.167827 174.33596 
L 352.167827 174.33596 
" clip-path="url(#p512f0b8eb0)" style="fill: none; stroke: #1f77b4; stroke-width: 1.5; stroke-linecap: square"/>
   </g>
   <g id="line2d_16">
    <path d="M 47.804191 187.746577 
L 48.104155 156.026096 
L 48.404119 153.884345 
L 48.504107 154.024661 
L 48.804071 156.473589 
L 49.004048 157.595064 
L 49.104036 157.572342 
L 49.404 156.524824 
L 49.603976 156.049906 
L 50.003928 155.834304 
L 50.303892 155.375862 
L 50.603856 154.459054 
L 50.903821 153.307665 
L 51.003809 153.30729 
L 51.403761 154.464883 
L 51.703725 154.874369 
L 51.903701 155.459672 
L 52.103677 156.549564 
L 52.303653 158.607987 
L 52.603618 161.889602 
L 52.903582 162.642315 
L 53.203546 164.427562 
L 53.803474 170.735805 
L 53.903462 170.65511 
L 54.203426 170.911529 
L 54.403403 171.281666 
L 54.603379 172.158038 
L 55.203307 177.457364 
L 55.403283 178.623533 
L 55.603259 179.142537 
L 55.803235 180.174814 
L 56.103199 183.666757 
L 56.703128 192.959079 
L 56.903104 193.286776 
L 57.203068 194.363483 
L 57.60302 196.982696 
L 58.202949 201.479855 
L 58.502913 201.790795 
L 58.802877 202.56192 
L 59.402805 204.841314 
L 59.602781 203.946311 
L 59.902745 203.453814 
L 60.102722 202.752187 
L 60.302698 201.280556 
L 60.502674 197.990271 
L 61.002614 186.006765 
L 61.20259 185.525457 
L 61.602542 185.287646 
L 61.902507 184.904816 
L 62.202471 184.142457 
L 62.502435 182.714137 
L 63.302339 177.972138 
L 63.502315 177.501967 
L 63.702292 176.877144 
L 64.202232 176.895946 
L 64.402208 176.515589 
L 64.702172 175.0892 
L 65.002136 173.502104 
L 65.402088 173.217252 
L 66.002017 172.626175 
L 66.102005 172.734254 
L 66.501957 173.672392 
L 66.801921 173.956972 
L 67.101885 174.642799 
L 67.40185 176.046797 
L 67.801802 178.541653 
L 68.201754 178.984854 
L 68.501718 179.730221 
L 68.90167 181.551735 
L 69.101646 182.2335 
L 69.501599 182.545798 
L 69.801563 183.151536 
L 70.101527 184.568129 
L 70.401491 186.647436 
L 70.701455 187.044337 
L 71.001419 187.972635 
L 71.301384 189.830663 
L 71.901312 194.499625 
L 72.201276 195.029634 
L 72.50124 196.073878 
L 73.301145 199.413351 
L 73.801085 199.699537 
L 74.101049 199.74868 
L 74.301025 199.325138 
L 74.501001 198.736927 
L 74.800966 198.511864 
L 75.10093 197.975367 
L 75.400894 196.725745 
L 75.700858 193.887306 
L 75.900834 192.290219 
L 76.200798 191.784695 
L 76.500762 190.690736 
L 76.900715 187.959415 
L 77.300667 185.221342 
L 77.600631 184.972742 
L 78.000583 184.285826 
L 78.400535 183.704328 
L 78.800488 183.771677 
L 79.20044 183.931314 
L 79.500404 184.307413 
L 79.800368 185.154739 
L 80.000344 185.546737 
L 80.400297 185.762349 
L 80.800249 186.310061 
L 81.500165 187.60802 
L 83.29995 187.797103 
L 83.899878 187.555217 
L 84.199843 187.531721 
L 84.999747 187.690272 
L 85.299711 188.027615 
L 85.599675 188.465812 
L 86.099616 188.647812 
L 86.499568 189.025156 
L 86.89952 189.402265 
L 88.099377 189.401459 
L 88.299353 189.256855 
L 88.899281 189.073583 
L 89.399221 188.657288 
L 89.799174 188.29294 
L 92.198887 187.928858 
L 92.598839 187.634726 
L 93.098779 187.462055 
L 93.498732 187.05252 
L 93.798696 186.717542 
L 94.5986 186.502394 
L 95.398505 186.283179 
L 96.098421 186.123816 
L 96.798337 185.705976 
L 97.298278 185.429754 
L 97.998194 184.834776 
L 98.998075 184.819758 
L 99.198051 185.115957 
L 99.398027 185.406467 
L 99.897967 185.638132 
L 100.197931 186.027781 
L 100.497895 186.857257 
L 100.697872 187.332117 
L 101.097824 187.567884 
L 101.397788 187.980628 
L 101.697752 188.755259 
L 102.097704 190.098869 
L 102.497656 190.348142 
L 102.897609 190.957393 
L 103.397549 191.952817 
L 103.997477 192.171234 
L 104.597406 192.481965 
L 104.89737 192.408379 
L 105.497298 192.23821 
L 105.797262 191.892655 
L 105.997238 191.381001 
L 106.197214 190.944977 
L 106.597167 190.716319 
L 106.897131 190.303597 
L 107.197095 189.512865 
L 107.897011 187.207325 
L 108.296964 186.882157 
L 108.696916 186.170155 
L 109.096868 185.36501 
L 109.596808 185.172508 
L 110.096749 184.710391 
L 110.496701 184.418096 
L 111.596569 184.447926 
L 111.796546 184.53558 
L 112.496462 184.67932 
L 112.896414 185.010635 
L 113.196378 185.363317 
L 113.796307 185.56497 
L 114.196259 185.956981 
L 114.696199 186.623847 
L 115.296127 186.790784 
L 116.296008 187.220234 
L 117.595853 187.248652 
L 118.295769 187.110208 
L 118.995685 186.853511 
L 119.595614 186.633088 
L 120.395518 186.147921 
L 120.895458 185.922655 
L 121.295411 185.507385 
L 121.595375 185.233092 
L 122.195303 185.092251 
L 123.295172 184.682622 
L 124.794993 184.570551 
L 125.394921 184.714362 
L 125.794873 184.882614 
L 126.494789 185.054196 
L 127.294694 185.376226 
L 127.99461 185.601268 
L 128.494551 185.797616 
L 129.394443 185.962592 
L 129.894383 186.028909 
L 131.994132 185.989156 
L 135.493714 185.122034 
L 136.693571 185.167293 
L 137.493475 185.557428 
L 138.79332 186.247516 
L 141.792962 186.192815 
L 142.692854 186.039501 
L 143.092806 185.988261 
L 144.092687 185.836341 
L 144.592627 185.792187 
L 147.892233 185.718208 
L 153.091612 186.236343 
L 154.891397 186.111618 
L 162.390501 185.880354 
L 163.890322 185.762123 
L 165.890083 185.784485 
L 168.189808 185.92958 
L 170.989473 186.198116 
L 172.989235 186.094718 
L 174.589043 185.910924 
L 175.7889 185.774296 
L 176.28884 185.735047 
L 181.488219 185.58717 
L 186.787586 185.900434 
L 189.68724 185.855445 
L 196.686403 185.513494 
L 201.185866 185.723995 
L 202.885663 185.786401 
L 209.784838 185.702152 
L 218.483799 185.615057 
L 227.282748 185.682396 
L 228.882557 185.622506 
L 235.581756 185.66767 
L 237.581517 185.677539 
L 262.778507 185.701557 
L 266.978005 185.764537 
L 274.077157 185.764621 
L 285.275819 185.721773 
L 295.774565 185.658451 
L 335.169858 185.623273 
L 352.167827 185.654276 
L 352.167827 185.654276 
" clip-path="url(#p512f0b8eb0)" style="fill: none; stroke: #ff7f0e; stroke-width: 1.5; stroke-linecap: square"/>
   </g>
   <g id="patch_3">
    <path d="M 32.586009 228.96 
L 32.586009 7.2 
" style="fill: none; stroke: #000000; stroke-width: 0.8; stroke-linejoin: miter; stroke-linecap: square"/>
   </g>
   <g id="patch_4">
    <path d="M 367.386009 228.96 
L 367.386009 7.2 
" style="fill: none; stroke: #000000; stroke-width: 0.8; stroke-linejoin: miter; stroke-linecap: square"/>
   </g>
   <g id="patch_5">
    <path d="M 32.586009 228.96 
L 367.386009 228.96 
" style="fill: none; stroke: #000000; stroke-width: 0.8; stroke-linejoin: miter; stroke-linecap: square"/>
   </g>
   <g id="patch_6">
    <path d="M 32.586009 7.2 
L 367.386009 7.2 
" style="fill: none; stroke: #000000; stroke-width: 0.8; stroke-linejoin: miter; stroke-linecap: square"/>
   </g>
   <g id="legend_1">
    <g id="patch_7">
     <path d="M 314.000015 43.640613 
L 360.386009 43.640613 
Q 362.386009 43.640613 362.386009 41.640613 
L 362.386009 14.2 
Q 362.386009 12.2 360.386009 12.2 
L 314.000015 12.2 
Q 312.000015 12.2 312.000015 14.2 
L 312.000015 41.640613 
Q 312.000015 43.640613 314.000015 43.640613 
z
" style="fill: #ffffff; opacity: 0.8; stroke: #cccccc; stroke-linejoin: miter"/>
    </g>
    <g id="line2d_17">
     <path d="M 316.000015 19.79832 
L 326.000015 19.79832 
L 336.000015 19.79832 
" style="fill: none; stroke: #1f77b4; stroke-width: 1.5; stroke-linecap: square"/>
    </g>
    <g id="text_17">
     <!-- CD -->
     <g transform="translate(344.000015 23.29832) scale(0.1 -0.1)">
      <defs>
       <path id="NimbusSanL-Regu-44" d="M 570 0 
L 2368 0 
C 3546 0 4269 883 4269 2339 
C 4269 3788 3552 4672 2368 4672 
L 570 4672 
L 570 0 
z
M 1165 524 
L 1165 4147 
L 2266 4147 
C 3187 4147 3674 3525 3674 2332 
C 3674 1153 3187 524 2266 524 
L 1165 524 
z
" transform="scale(0.015625)"/>
      </defs>
      <use xlink:href="#NimbusSanL-Regu-43" transform="scale(0.996264)"/>
      <use xlink:href="#NimbusSanL-Regu-44" transform="translate(71.929985 0) scale(0.996264)"/>
     </g>
    </g>
    <g id="line2d_18">
     <path d="M 316.000015 34.018627 
L 326.000015 34.018627 
L 336.000015 34.018627 
" style="fill: none; stroke: #ff7f0e; stroke-width: 1.5; stroke-linecap: square"/>
    </g>
    <g id="text_18">
     <!-- CL -->
     <g transform="translate(344.000015 37.518627) scale(0.1 -0.1)">
      <defs>
       <path id="NimbusSanL-Regu-4c" d="M 1107 4672 
L 512 4672 
L 512 0 
L 3411 0 
L 3411 524 
L 1107 524 
L 1107 4672 
z
" transform="scale(0.015625)"/>
      </defs>
      <use xlink:href="#NimbusSanL-Regu-43" transform="scale(0.996264)"/>
      <use xlink:href="#NimbusSanL-Regu-4c" transform="translate(71.929985 0) scale(0.996264)"/>
     </g>
    </g>
   </g>
  </g>
 </g>
 <defs>
  <clipPath id="p512f0b8eb0">
   <rect x="32.586009" y="7.2" width="334.8" height="221.76"/>
  </clipPath>
 </defs>
</svg>
