<?xml version="1.0" encoding="utf-8" standalone="no"?>
<!DOCTYPE svg PUBLIC "-//W3C//DTD SVG 1.1//EN"
  "http://www.w3.org/Graphics/SVG/1.1/DTD/svg11.dtd">
<svg xmlns:xlink="http://www.w3.org/1999/xlink" width="379.567344pt" height="266.15979pt" viewBox="0 0 379.567344 266.15979" xmlns="http://www.w3.org/2000/svg" version="1.1">
 <metadata>
  <rdf:RDF xmlns:dc="http://purl.org/dc/elements/1.1/" xmlns:cc="http://creativecommons.org/ns#" xmlns:rdf="http://www.w3.org/1999/02/22-rdf-syntax-ns#">
   <cc:Work>
    <dc:type rdf:resource="http://purl.org/dc/dcmitype/StillImage"/>
    <dc:date>2025-08-02T14:31:31.435806</dc:date>
    <dc:format>image/svg+xml</dc:format>
    <dc:creator>
     <cc:Agent>
      <dc:title>Matplotlib v3.10.3, https://matplotlib.org/</dc:title>
     </cc:Agent>
    </dc:creator>
   </cc:Work>
  </rdf:RDF>
 </metadata>
 <defs>
  <style type="text/css">*{stroke-linejoin: round; stroke-linecap: butt}</style>
 </defs>
 <g id="figure_1">
  <g id="patch_1">
   <path d="M 0 266.15979 
L 379.567344 266.15979 
L 379.567344 -0 
L 0 -0 
z
" style="fill: #ffffff"/>
  </g>
  <g id="axes_1">
   <g id="patch_2">
    <path d="M 37.567344 229.519177 
L 372.367344 229.519177 
L 372.367344 7.759177 
L 37.567344 7.759177 
z
" style="fill: #ffffff"/>
   </g>
   <g id="matplotlib.axis_1">
    <g id="xtick_1">
     <g id="line2d_1">
      <defs>
       <path id="m20efea8a4d" d="M 0 0 
L 0 3.5 
" style="stroke: #000000; stroke-width: 0.8"/>
      </defs>
      <g>
       <use xlink:href="#m20efea8a4d" x="52.785526" y="229.519177" style="stroke: #000000; stroke-width: 0.8"/>
      </g>
     </g>
     <g id="text_1">
      <!-- $\mathdefault{0}$ -->
      <g transform="translate(50.294859 243.617497) scale(0.1 -0.1)">
       <defs>
        <path id="CMR17-30" d="M 2688 2038 
C 2688 2430 2682 3099 2413 3613 
C 2176 4063 1798 4224 1466 4224 
C 1158 4224 768 4082 525 3620 
C 269 3137 243 2539 243 2038 
C 243 1671 250 1112 448 623 
C 723 -39 1216 -128 1466 -128 
C 1760 -128 2208 -7 2470 604 
C 2662 1048 2688 1568 2688 2038 
z
M 1466 -26 
C 1056 -26 813 328 723 816 
C 653 1196 653 1749 653 2109 
C 653 2604 653 3015 736 3407 
C 858 3954 1216 4121 1466 4121 
C 1728 4121 2067 3947 2189 3420 
C 2272 3054 2278 2623 2278 2109 
C 2278 1691 2278 1176 2202 797 
C 2067 96 1690 -26 1466 -26 
z
" transform="scale(0.015625)"/>
       </defs>
       <use xlink:href="#CMR17-30" transform="scale(0.996264)"/>
      </g>
     </g>
    </g>
    <g id="xtick_2">
     <g id="line2d_2">
      <g>
       <use xlink:href="#m20efea8a4d" x="102.779553" y="229.519177" style="stroke: #000000; stroke-width: 0.8"/>
      </g>
     </g>
     <g id="text_2">
      <!-- $\mathdefault{500}$ -->
      <g transform="translate(95.30755 243.617497) scale(0.1 -0.1)">
       <defs>
        <path id="CMR17-35" d="M 730 3750 
C 794 3724 1056 3641 1325 3641 
C 1920 3641 2246 3961 2432 4140 
C 2432 4191 2432 4224 2394 4224 
C 2387 4224 2374 4224 2323 4198 
C 2099 4102 1837 4032 1517 4032 
C 1325 4032 1037 4055 723 4191 
C 653 4224 640 4224 634 4224 
C 602 4224 595 4217 595 4090 
L 595 2231 
C 595 2113 595 2080 659 2080 
C 691 2080 704 2093 736 2139 
C 941 2435 1222 2560 1542 2560 
C 1766 2560 2246 2415 2246 1293 
C 2246 1087 2246 716 2054 422 
C 1894 159 1645 25 1370 25 
C 947 25 518 319 403 812 
C 429 806 480 793 506 793 
C 589 793 749 838 749 1036 
C 749 1209 627 1280 506 1280 
C 358 1280 262 1190 262 1011 
C 262 454 704 -128 1382 -128 
C 2042 -128 2669 441 2669 1267 
C 2669 2054 2170 2662 1549 2662 
C 1222 2662 947 2540 730 2304 
L 730 3750 
z
" transform="scale(0.015625)"/>
       </defs>
       <use xlink:href="#CMR17-35" transform="scale(0.996264)"/>
       <use xlink:href="#CMR17-30" transform="translate(45.690477 0) scale(0.996264)"/>
       <use xlink:href="#CMR17-30" transform="translate(91.380954 0) scale(0.996264)"/>
      </g>
     </g>
    </g>
    <g id="xtick_3">
     <g id="line2d_3">
      <g>
       <use xlink:href="#m20efea8a4d" x="152.77358" y="229.519177" style="stroke: #000000; stroke-width: 0.8"/>
      </g>
     </g>
     <g id="text_3">
      <!-- $\mathdefault{1000}$ -->
      <g transform="translate(142.81091 243.617497) scale(0.1 -0.1)">
       <defs>
        <path id="CMR17-31" d="M 1702 4083 
C 1702 4217 1696 4224 1606 4224 
C 1357 3927 979 3833 621 3820 
C 602 3820 570 3820 563 3808 
C 557 3795 557 3782 557 3648 
C 755 3648 1088 3686 1344 3839 
L 1344 467 
C 1344 243 1331 166 781 166 
L 589 166 
L 589 0 
C 896 6 1216 12 1523 12 
C 1830 12 2150 6 2458 0 
L 2458 166 
L 2266 166 
C 1715 166 1702 236 1702 467 
L 1702 4083 
z
" transform="scale(0.015625)"/>
       </defs>
       <use xlink:href="#CMR17-31" transform="scale(0.996264)"/>
       <use xlink:href="#CMR17-30" transform="translate(45.690477 0) scale(0.996264)"/>
       <use xlink:href="#CMR17-30" transform="translate(91.380954 0) scale(0.996264)"/>
       <use xlink:href="#CMR17-30" transform="translate(137.071431 0) scale(0.996264)"/>
      </g>
     </g>
    </g>
    <g id="xtick_4">
     <g id="line2d_4">
      <g>
       <use xlink:href="#m20efea8a4d" x="202.767607" y="229.519177" style="stroke: #000000; stroke-width: 0.8"/>
      </g>
     </g>
     <g id="text_4">
      <!-- $\mathdefault{1500}$ -->
      <g transform="translate(192.804937 243.617497) scale(0.1 -0.1)">
       <use xlink:href="#CMR17-31" transform="scale(0.996264)"/>
       <use xlink:href="#CMR17-35" transform="translate(45.690477 0) scale(0.996264)"/>
       <use xlink:href="#CMR17-30" transform="translate(91.380954 0) scale(0.996264)"/>
       <use xlink:href="#CMR17-30" transform="translate(137.071431 0) scale(0.996264)"/>
      </g>
     </g>
    </g>
    <g id="xtick_5">
     <g id="line2d_5">
      <g>
       <use xlink:href="#m20efea8a4d" x="252.761634" y="229.519177" style="stroke: #000000; stroke-width: 0.8"/>
      </g>
     </g>
     <g id="text_5">
      <!-- $\mathdefault{2000}$ -->
      <g transform="translate(242.798964 243.617497) scale(0.1 -0.1)">
       <defs>
        <path id="CMR17-32" d="M 2669 990 
L 2554 990 
C 2490 537 2438 460 2413 422 
C 2381 371 1920 371 1830 371 
L 602 371 
C 832 620 1280 1073 1824 1596 
C 2214 1966 2669 2400 2669 3033 
C 2669 3788 2067 4224 1395 4224 
C 691 4224 262 3603 262 3027 
C 262 2777 448 2745 525 2745 
C 589 2745 781 2783 781 3007 
C 781 3206 614 3264 525 3264 
C 486 3264 448 3257 422 3244 
C 544 3788 915 4057 1306 4057 
C 1862 4057 2227 3616 2227 3033 
C 2227 2477 1901 1998 1536 1583 
L 262 147 
L 262 0 
L 2515 0 
L 2669 990 
z
" transform="scale(0.015625)"/>
       </defs>
       <use xlink:href="#CMR17-32" transform="scale(0.996264)"/>
       <use xlink:href="#CMR17-30" transform="translate(45.690477 0) scale(0.996264)"/>
       <use xlink:href="#CMR17-30" transform="translate(91.380954 0) scale(0.996264)"/>
       <use xlink:href="#CMR17-30" transform="translate(137.071431 0) scale(0.996264)"/>
      </g>
     </g>
    </g>
    <g id="xtick_6">
     <g id="line2d_6">
      <g>
       <use xlink:href="#m20efea8a4d" x="302.755661" y="229.519177" style="stroke: #000000; stroke-width: 0.8"/>
      </g>
     </g>
     <g id="text_6">
      <!-- $\mathdefault{2500}$ -->
      <g transform="translate(292.792991 243.617497) scale(0.1 -0.1)">
       <use xlink:href="#CMR17-32" transform="scale(0.996264)"/>
       <use xlink:href="#CMR17-35" transform="translate(45.690477 0) scale(0.996264)"/>
       <use xlink:href="#CMR17-30" transform="translate(91.380954 0) scale(0.996264)"/>
       <use xlink:href="#CMR17-30" transform="translate(137.071431 0) scale(0.996264)"/>
      </g>
     </g>
    </g>
    <g id="xtick_7">
     <g id="line2d_7">
      <g>
       <use xlink:href="#m20efea8a4d" x="352.749688" y="229.519177" style="stroke: #000000; stroke-width: 0.8"/>
      </g>
     </g>
     <g id="text_7">
      <!-- $\mathdefault{3000}$ -->
      <g transform="translate(342.787018 243.617497) scale(0.1 -0.1)">
       <defs>
        <path id="CMR17-33" d="M 1414 2176 
C 1984 2176 2234 1673 2234 1094 
C 2234 322 1824 25 1453 25 
C 1114 25 563 193 390 691 
C 422 678 454 678 486 678 
C 640 678 755 780 755 947 
C 755 1132 614 1216 486 1216 
C 378 1216 211 1164 211 927 
C 211 335 787 -128 1466 -128 
C 2176 -128 2720 432 2720 1087 
C 2720 1718 2208 2176 1600 2246 
C 2086 2347 2554 2776 2554 3353 
C 2554 3856 2048 4224 1472 4224 
C 890 4224 378 3862 378 3347 
C 378 3123 544 3084 627 3084 
C 762 3084 877 3167 877 3334 
C 877 3500 762 3584 627 3584 
C 602 3584 570 3584 544 3571 
C 730 3999 1235 4076 1459 4076 
C 1683 4076 2106 3966 2106 3347 
C 2106 3167 2080 2851 1862 2574 
C 1670 2329 1453 2316 1242 2297 
C 1210 2297 1062 2284 1037 2284 
C 992 2278 966 2272 966 2227 
C 966 2182 973 2176 1101 2176 
L 1414 2176 
z
" transform="scale(0.015625)"/>
       </defs>
       <use xlink:href="#CMR17-33" transform="scale(0.996264)"/>
       <use xlink:href="#CMR17-30" transform="translate(45.690477 0) scale(0.996264)"/>
       <use xlink:href="#CMR17-30" transform="translate(91.380954 0) scale(0.996264)"/>
       <use xlink:href="#CMR17-30" transform="translate(137.071431 0) scale(0.996264)"/>
      </g>
     </g>
    </g>
    <g id="text_8">
     <!-- Iteration -->
     <g transform="translate(187.019968 256.837804) scale(0.1 -0.1)">
      <defs>
       <path id="NimbusSanL-Regu-49" d="M 1242 4672 
L 640 4672 
L 640 0 
L 1242 0 
L 1242 4672 
z
" transform="scale(0.015625)"/>
       <path id="NimbusSanL-Regu-74" d="M 1626 3328 
L 1075 3328 
L 1075 4249 
L 544 4249 
L 544 3328 
L 90 3328 
L 90 2892 
L 544 2892 
L 544 402 
C 544 64 774 -128 1190 -128 
C 1318 -128 1446 -116 1626 -84 
L 1626 364 
C 1555 345 1472 339 1370 339 
C 1139 339 1075 402 1075 634 
L 1075 2892 
L 1626 2892 
L 1626 3328 
z
" transform="scale(0.015625)"/>
       <path id="NimbusSanL-Regu-65" d="M 3283 1484 
C 3283 1998 3245 2311 3149 2565 
C 2931 3123 2419 3456 1792 3456 
C 858 3456 256 2734 256 1619 
C 256 545 838 -128 1779 -128 
C 2547 -128 3078 307 3213 1018 
L 2675 1018 
C 2528 588 2227 364 1798 364 
C 1459 364 1171 514 992 787 
C 864 974 819 1161 813 1484 
L 3283 1484 
z
M 826 1920 
C 870 2552 1248 2963 1786 2963 
C 2310 2963 2714 2519 2714 1959 
C 2714 1946 2714 1933 2707 1920 
L 826 1920 
z
" transform="scale(0.015625)"/>
       <path id="NimbusSanL-Regu-72" d="M 442 3328 
L 442 0 
L 979 0 
L 979 1727 
C 979 2203 1101 2514 1357 2698 
C 1523 2819 1683 2857 2054 2863 
L 2054 3404 
C 1965 3449 1920 3456 1850 3456 
C 1504 3456 1242 3251 934 2750 
L 934 3328 
L 442 3328 
z
" transform="scale(0.015625)"/>
       <path id="NimbusSanL-Regu-61" d="M 3424 332 
C 3366 320 3341 320 3309 320 
C 3123 320 3021 415 3021 581 
L 3021 2542 
C 3021 3135 2586 3456 1760 3456 
C 1274 3456 870 3315 646 3065 
C 493 2893 429 2702 416 2370 
L 954 2370 
C 998 2778 1242 2963 1741 2963 
C 2221 2963 2490 2784 2490 2466 
L 2490 2326 
C 2490 2103 2355 2007 1933 1956 
C 1178 1861 1062 1835 858 1753 
C 467 1593 269 1294 269 861 
C 269 256 691 -128 1370 -128 
C 1792 -128 2131 19 2509 364 
C 2547 25 2714 -128 3059 -128 
C 3168 -128 3251 -116 3424 -71 
L 3424 332 
z
M 2490 1071 
C 2490 893 2438 785 2278 638 
C 2061 441 1798 339 1485 339 
C 1069 339 826 536 826 874 
C 826 1224 1062 1402 1632 1485 
C 2195 1562 2310 1587 2490 1670 
L 2490 1071 
z
" transform="scale(0.015625)"/>
       <path id="NimbusSanL-Regu-69" d="M 960 3358 
L 429 3358 
L 429 0 
L 960 0 
L 960 3358 
z
M 960 4672 
L 422 4672 
L 422 3999 
L 960 3999 
L 960 4672 
z
" transform="scale(0.015625)"/>
       <path id="NimbusSanL-Regu-6f" d="M 1741 3456 
C 800 3456 230 2784 230 1663 
C 230 543 794 -128 1747 -128 
C 2688 -128 3264 543 3264 1638 
C 3264 2791 2707 3456 1741 3456 
z
M 1747 2963 
C 2349 2963 2707 2472 2707 1644 
C 2707 861 2336 364 1747 364 
C 1152 364 787 855 787 1663 
C 787 2466 1152 2963 1747 2963 
z
" transform="scale(0.015625)"/>
       <path id="NimbusSanL-Regu-6e" d="M 448 3328 
L 448 0 
L 986 0 
L 986 1835 
C 986 2539 1344 2988 1894 2988 
C 2317 2988 2586 2732 2586 2328 
L 2586 0 
L 3117 0 
L 3117 2539 
C 3117 3097 2701 3456 2054 3456 
C 1555 3456 1235 3263 941 2796 
L 941 3328 
L 448 3328 
z
" transform="scale(0.015625)"/>
      </defs>
      <use xlink:href="#NimbusSanL-Regu-49" transform="scale(0.996264)"/>
      <use xlink:href="#NimbusSanL-Regu-74" transform="translate(27.69517 0) scale(0.996264)"/>
      <use xlink:href="#NimbusSanL-Regu-65" transform="translate(55.390339 0) scale(0.996264)"/>
      <use xlink:href="#NimbusSanL-Regu-72" transform="translate(110.782016 0) scale(0.996264)"/>
      <use xlink:href="#NimbusSanL-Regu-61" transform="translate(142.961149 0) scale(0.996264)"/>
      <use xlink:href="#NimbusSanL-Regu-74" transform="translate(198.352826 0) scale(0.996264)"/>
      <use xlink:href="#NimbusSanL-Regu-69" transform="translate(226.047996 0) scale(0.996264)"/>
      <use xlink:href="#NimbusSanL-Regu-6f" transform="translate(248.16478 0) scale(0.996264)"/>
      <use xlink:href="#NimbusSanL-Regu-6e" transform="translate(303.556457 0) scale(0.996264)"/>
     </g>
    </g>
   </g>
   <g id="matplotlib.axis_2">
    <g id="ytick_1">
     <g id="line2d_8">
      <defs>
       <path id="mb7252f4238" d="M 0 0 
L -3.5 0 
" style="stroke: #000000; stroke-width: 0.8"/>
      </defs>
      <g>
       <use xlink:href="#mb7252f4238" x="37.567344" y="221.956121" style="stroke: #000000; stroke-width: 0.8"/>
      </g>
     </g>
     <g id="text_9">
      <!-- $\mathdefault{0}$ -->
      <g transform="translate(25.586009 225.505281) scale(0.1 -0.1)">
       <use xlink:href="#CMR17-30" transform="scale(0.996264)"/>
      </g>
     </g>
    </g>
    <g id="ytick_2">
     <g id="line2d_9">
      <g>
       <use xlink:href="#mb7252f4238" x="37.567344" y="179.714729" style="stroke: #000000; stroke-width: 0.8"/>
      </g>
     </g>
     <g id="text_10">
      <!-- $\mathdefault{5}$ -->
      <g transform="translate(25.586009 183.263889) scale(0.1 -0.1)">
       <use xlink:href="#CMR17-35" transform="scale(0.996264)"/>
      </g>
     </g>
    </g>
    <g id="ytick_3">
     <g id="line2d_10">
      <g>
       <use xlink:href="#mb7252f4238" x="37.567344" y="137.473336" style="stroke: #000000; stroke-width: 0.8"/>
      </g>
     </g>
     <g id="text_11">
      <!-- $\mathdefault{10}$ -->
      <g transform="translate(20.604674 141.022497) scale(0.1 -0.1)">
       <use xlink:href="#CMR17-31" transform="scale(0.996264)"/>
       <use xlink:href="#CMR17-30" transform="translate(45.690477 0) scale(0.996264)"/>
      </g>
     </g>
    </g>
    <g id="ytick_4">
     <g id="line2d_11">
      <g>
       <use xlink:href="#mb7252f4238" x="37.567344" y="95.231944" style="stroke: #000000; stroke-width: 0.8"/>
      </g>
     </g>
     <g id="text_12">
      <!-- $\mathdefault{15}$ -->
      <g transform="translate(20.604674 98.781104) scale(0.1 -0.1)">
       <use xlink:href="#CMR17-31" transform="scale(0.996264)"/>
       <use xlink:href="#CMR17-35" transform="translate(45.690477 0) scale(0.996264)"/>
      </g>
     </g>
    </g>
    <g id="ytick_5">
     <g id="line2d_12">
      <g>
       <use xlink:href="#mb7252f4238" x="37.567344" y="52.990552" style="stroke: #000000; stroke-width: 0.8"/>
      </g>
     </g>
     <g id="text_13">
      <!-- $\mathdefault{20}$ -->
      <g transform="translate(20.604674 56.539712) scale(0.1 -0.1)">
       <use xlink:href="#CMR17-32" transform="scale(0.996264)"/>
       <use xlink:href="#CMR17-30" transform="translate(45.690477 0) scale(0.996264)"/>
      </g>
     </g>
    </g>
    <g id="ytick_6">
     <g id="line2d_13">
      <g>
       <use xlink:href="#mb7252f4238" x="37.567344" y="10.74916" style="stroke: #000000; stroke-width: 0.8"/>
      </g>
     </g>
     <g id="text_14">
      <!-- $\mathdefault{25}$ -->
      <g transform="translate(20.604674 14.29832) scale(0.1 -0.1)">
       <use xlink:href="#CMR17-32" transform="scale(0.996264)"/>
       <use xlink:href="#CMR17-35" transform="translate(45.690477 0) scale(0.996264)"/>
      </g>
     </g>
    </g>
    <g id="text_15">
     <!-- Average CFL - Blade_0 -->
     <g transform="translate(14.482687 169.338497) rotate(-90) scale(0.1 -0.1)">
      <defs>
       <path id="NimbusSanL-Regu-41" d="M 3034 1408 
L 3514 0 
L 4179 0 
L 2541 4672 
L 1773 4672 
L 109 0 
L 742 0 
L 1235 1408 
L 3034 1408 
z
M 2867 1907 
L 1382 1907 
L 2150 4032 
L 2867 1907 
z
" transform="scale(0.015625)"/>
       <path id="NimbusSanL-Regu-76" d="M 1824 0 
L 3110 3328 
L 2509 3328 
L 1562 629 
L 666 3328 
L 64 3328 
L 1242 0 
L 1824 0 
z
" transform="scale(0.015625)"/>
       <path id="NimbusSanL-Regu-67" d="M 2637 3359 
L 2637 2873 
C 2368 3270 2042 3456 1613 3456 
C 762 3456 186 2714 186 1632 
C 186 1084 333 638 608 320 
C 858 38 1216 -128 1568 -128 
C 1990 -128 2285 51 2586 473 
L 2586 300 
C 2586 -155 2528 -441 2394 -634 
C 2253 -841 1978 -960 1651 -960 
C 1408 -960 1190 -894 1043 -774 
C 922 -674 870 -581 838 -375 
L 294 -375 
C 352 -1031 845 -1408 1632 -1408 
C 2131 -1408 2560 -1248 2778 -980 
C 3034 -661 3130 -222 3130 568 
L 3130 3359 
L 2637 3359 
z
M 1670 2963 
C 2246 2963 2586 2479 2586 1644 
C 2586 848 2240 364 1677 364 
C 1094 364 742 855 742 1663 
C 742 2466 1101 2963 1670 2963 
z
" transform="scale(0.015625)"/>
       <path id="NimbusSanL-Regu-43" d="M 4237 3219 
C 4051 4236 3462 4736 2438 4736 
C 1811 4736 1306 4537 960 4154 
C 538 3696 307 3035 307 2284 
C 307 1522 544 867 986 415 
C 1344 44 1805 -128 2413 -128 
C 3552 -128 4192 485 4333 1712 
L 3718 1712 
C 3667 1394 3603 1178 3507 994 
C 3315 612 2918 396 2419 396 
C 1491 396 902 1134 902 2291 
C 902 3480 1466 4211 2368 4211 
C 2746 4211 3098 4096 3290 3918 
C 3462 3759 3558 3562 3629 3219 
L 4237 3219 
z
" transform="scale(0.015625)"/>
       <path id="NimbusSanL-Regu-46" d="M 1171 2112 
L 3398 2112 
L 3398 2636 
L 1171 2636 
L 1171 4147 
L 3706 4147 
L 3706 4672 
L 576 4672 
L 576 0 
L 1171 0 
L 1171 2112 
z
" transform="scale(0.015625)"/>
       <path id="NimbusSanL-Regu-4c" d="M 1107 4672 
L 512 4672 
L 512 0 
L 3411 0 
L 3411 524 
L 1107 524 
L 1107 4672 
z
" transform="scale(0.015625)"/>
       <path id="NimbusSanL-Regu-2d" d="M 1818 1996 
L 294 1996 
L 294 1536 
L 1818 1536 
L 1818 1996 
z
" transform="scale(0.015625)"/>
       <path id="NimbusSanL-Regu-42" d="M 506 0 
L 2611 0 
C 3053 0 3379 121 3629 390 
C 3859 632 3987 961 3987 1321 
C 3987 1878 3731 2214 3136 2444 
C 3558 2643 3782 2994 3782 3476 
C 3782 3821 3654 4127 3411 4345 
C 3168 4569 2848 4672 2400 4672 
L 506 4672 
L 506 0 
z
M 1101 2636 
L 1101 4147 
L 2253 4147 
C 2586 4147 2771 4101 2931 3977 
C 3098 3847 3187 3652 3187 3391 
C 3187 3138 3098 2936 2931 2806 
C 2771 2682 2586 2636 2253 2636 
L 1101 2636 
z
M 1101 524 
L 1101 2112 
L 2554 2112 
C 2842 2112 3034 2042 3174 1890 
C 3315 1745 3392 1542 3392 1315 
C 3392 1093 3315 891 3174 746 
C 3034 594 2842 524 2554 524 
L 1101 524 
z
" transform="scale(0.015625)"/>
       <path id="NimbusSanL-Regu-6c" d="M 973 4672 
L 435 4672 
L 435 0 
L 973 0 
L 973 4672 
z
" transform="scale(0.015625)"/>
       <path id="NimbusSanL-Regu-64" d="M 3168 4672 
L 2637 4672 
L 2637 2937 
C 2413 3276 2054 3456 1606 3456 
C 736 3456 166 2759 166 1695 
C 166 568 723 -128 1626 -128 
C 2086 -128 2406 44 2694 460 
L 2694 19 
L 3168 19 
L 3168 4672 
z
M 1696 2956 
C 2272 2956 2637 2447 2637 1651 
C 2637 880 2266 371 1702 371 
C 1114 371 723 887 723 1663 
C 723 2440 1114 2956 1696 2956 
z
" transform="scale(0.015625)"/>
       <path id="NimbusSanL-Regu-30" d="M 1760 4544 
C 1338 4544 954 4358 717 4044 
C 422 3649 275 3043 275 2207 
C 275 683 787 -128 1760 -128 
C 2720 -128 3245 683 3245 2169 
C 3245 3049 3104 3636 2803 4044 
C 2566 4364 2189 4544 1760 4544 
z
M 1760 4044 
C 2368 4044 2669 3432 2669 2220 
C 2669 938 2374 339 1747 339 
C 1152 339 851 964 851 2201 
C 851 3438 1152 4044 1760 4044 
z
" transform="scale(0.015625)"/>
      </defs>
      <use xlink:href="#NimbusSanL-Regu-41" transform="scale(0.996264)"/>
      <use xlink:href="#NimbusSanL-Regu-76" transform="translate(62.465918 0) scale(0.996264)"/>
      <use xlink:href="#NimbusSanL-Regu-65" transform="translate(109.788488 0) scale(0.996264)"/>
      <use xlink:href="#NimbusSanL-Regu-72" transform="translate(165.180165 0) scale(0.996264)"/>
      <use xlink:href="#NimbusSanL-Regu-61" transform="translate(197.359298 0) scale(0.996264)"/>
      <use xlink:href="#NimbusSanL-Regu-67" transform="translate(252.750975 0) scale(0.996264)"/>
      <use xlink:href="#NimbusSanL-Regu-65" transform="translate(308.142652 0) scale(0.996264)"/>
      <use xlink:href="#NimbusSanL-Regu-43" transform="translate(391.229499 0) scale(0.996264)"/>
      <use xlink:href="#NimbusSanL-Regu-46" transform="translate(463.159484 0) scale(0.996264)"/>
      <use xlink:href="#NimbusSanL-Regu-4c" transform="translate(524.031114 0) scale(0.996264)"/>
      <use xlink:href="#NimbusSanL-Regu-2d" transform="translate(607.117961 0) scale(0.996264)"/>
      <use xlink:href="#NimbusSanL-Regu-42" transform="translate(667.98836 0) scale(0.996264)"/>
      <use xlink:href="#NimbusSanL-Regu-6c" transform="translate(734.438391 0) scale(0.996264)"/>
      <use xlink:href="#NimbusSanL-Regu-61" transform="translate(756.555176 0) scale(0.996264)"/>
      <use xlink:href="#NimbusSanL-Regu-64" transform="translate(811.946853 0) scale(0.996264)"/>
      <use xlink:href="#NimbusSanL-Regu-65" transform="translate(867.33853 0) scale(0.996264)"/>
      <use xlink:href="#NimbusSanL-Regu-30" transform="translate(958.595772 0) scale(0.996264)"/>
      <path d="M 928.707548 0 
L 958.595772 0 
L 958.595772 0.3985 
L 928.707548 0.3985 
L 928.707548 0 
z
"/>
     </g>
    </g>
   </g>
   <g id="line2d_14">
    <path d="M 52.785526 101.492629 
L 52.985502 51.26064 
L 53.08549 204.886573 
L 53.185478 201.472663 
L 53.485443 186.560706 
L 53.785407 160.792844 
L 54.085371 116.292404 
L 54.385335 41.05076 
L 54.485323 203.865585 
L 54.585311 200.247477 
L 54.885275 184.443585 
L 55.185239 157.134459 
L 55.485204 110.178729 
L 55.885156 30.059338 
L 56.085132 30.059338 
L 56.18512 202.766442 
L 56.285108 198.928507 
L 56.585072 182.164404 
L 56.885036 153.196034 
L 57.185001 103.313565 
L 57.384977 51.852068 
L 57.484965 204.945715 
L 57.584953 201.543634 
L 57.884917 186.683344 
L 58.184881 161.007228 
L 58.484845 116.810467 
L 58.784809 41.474274 
L 58.884797 203.907936 
L 58.984786 200.298299 
L 59.28475 184.531405 
L 59.584714 157.287837 
L 59.884678 110.303046 
L 60.184642 29.464721 
L 60.28463 202.706981 
L 60.384618 198.857153 
L 60.684582 182.041104 
L 60.984547 152.982972 
L 61.284511 102.784919 
L 61.484487 50.48378 
L 61.584475 204.808887 
L 61.684463 201.37944 
L 61.984427 186.399616 
L 62.284391 160.514481 
L 62.584355 115.809803 
L 62.984308 38.706353 
L 63.084296 203.631144 
L 63.184284 199.966149 
L 63.484248 183.957449 
L 63.784212 156.294416 
L 64.084176 108.510764 
L 64.38414 25.954934 
L 64.484129 202.356002 
L 64.584117 198.435978 
L 64.884081 181.313315 
L 65.184045 151.725352 
L 65.484009 100.597352 
L 65.683985 47.207058 
L 65.783973 204.481214 
L 65.883961 200.986233 
L 65.983949 196.792256 
L 66.083937 219.439177 
L 66.183925 218.935788 
L 66.48389 216.736986 
L 66.783854 212.937456 
L 67.083818 206.371868 
L 67.383782 195.026532 
L 67.683746 175.421792 
L 67.98371 141.5448 
L 68.283675 83.01488 
L 68.483651 21.931963 
L 68.583639 201.953705 
L 68.683627 197.953222 
L 68.983591 180.479111 
L 69.283555 150.283849 
L 69.583519 98.106435 
L 69.783495 43.620936 
L 69.883483 204.122602 
L 69.983471 200.555899 
L 70.283436 184.976537 
L 70.5834 158.0554 
L 70.883364 111.535675 
L 71.183328 31.150451 
L 71.283316 202.875554 
L 71.383304 199.05944 
L 71.683268 182.390657 
L 71.983233 153.586999 
L 72.283197 103.815558 
L 72.583161 17.839177 
L 72.683149 201.544426 
L 72.783137 197.462087 
L 73.083101 179.630431 
L 73.383065 148.817329 
L 73.683029 95.572289 
L 73.883006 39.973253 
L 73.982994 203.757834 
L 74.082982 200.118177 
L 74.382946 184.220153 
L 74.68291 156.748369 
L 74.982874 109.277126 
L 75.18285 59.773163 
L 75.282838 205.737825 
L 75.382826 202.494166 
L 75.682791 188.325863 
L 75.982755 163.843035 
L 76.282719 121.544855 
L 76.582683 48.595648 
L 76.682671 204.620073 
L 76.782659 201.152864 
L 77.082623 186.008093 
L 77.382587 159.837929 
L 77.682552 114.62006 
L 77.982516 36.55559 
L 78.082504 203.416068 
L 78.182492 199.708057 
L 78.482456 183.511467 
L 78.78242 155.523758 
L 79.082384 107.160999 
L 79.282361 56.651145 
L 79.382349 205.425623 
L 79.482337 202.119524 
L 79.782301 187.678481 
L 80.082265 162.724359 
L 80.382229 119.603637 
L 80.682193 45.091029 
L 80.782181 204.269611 
L 80.882169 200.73231 
L 81.182134 185.281375 
L 81.482098 158.582161 
L 81.782062 112.445917 
L 82.082026 32.72249 
L 82.182014 203.032758 
L 82.282002 199.248085 
L 82.581966 182.716635 
L 82.88193 154.150289 
L 83.181895 104.787644 
L 83.381871 53.238512 
L 83.481859 205.08436 
L 83.581847 201.710008 
L 83.881811 186.970837 
L 84.181775 161.501551 
L 84.481739 117.490625 
L 84.781703 41.458851 
L 84.881692 203.906394 
L 84.98168 200.296448 
L 85.281644 184.528207 
L 85.581608 157.280686 
L 85.881572 110.196969 
L 86.281524 28.840044 
L 86.381512 202.644513 
L 86.4815 198.782191 
L 86.781465 181.911571 
L 87.081429 152.759139 
L 87.381393 102.383736 
L 87.581369 49.771887 
L 87.681357 204.737697 
L 87.781345 201.294013 
L 88.081309 186.251998 
L 88.381273 160.259397 
L 88.681238 115.344181 
L 88.981202 37.73069 
L 89.08119 203.533578 
L 89.181178 199.849069 
L 89.481142 183.755135 
L 89.781106 155.944818 
L 90.08107 107.88859 
L 90.381035 24.847427 
L 90.481023 202.245251 
L 90.581011 198.303077 
L 90.880975 181.083662 
L 91.180939 151.328512 
L 91.480903 99.911613 
L 91.680879 46.212029 
L 91.780867 204.381712 
L 91.880855 200.86683 
L 92.180819 185.513826 
L 92.480784 158.983835 
L 92.780748 113.140012 
L 93.080712 33.921884 
L 93.1807 203.152697 
L 93.280688 199.392012 
L 93.580652 182.965341 
L 93.880616 154.580054 
L 94.180581 105.530278 
L 94.580533 20.772264 
L 94.680521 201.837735 
L 94.780509 197.814058 
L 95.080473 180.238636 
L 95.380437 149.868307 
L 95.680401 97.388379 
L 95.880377 42.578573 
L 95.980366 204.018366 
L 96.080354 200.430815 
L 96.380318 184.760392 
L 96.680282 157.681902 
L 96.980246 110.890271 
L 97.28021 30.034333 
L 97.380198 202.763942 
L 97.480186 198.925506 
L 97.78015 182.159219 
L 98.080115 153.187074 
L 98.380079 103.123208 
L 98.580055 50.836727 
L 98.680043 204.844181 
L 98.780031 201.421793 
L 99.079995 186.472803 
L 99.379959 160.640948 
L 99.679924 116.003502 
L 99.979888 38.869996 
L 100.079876 203.647508 
L 100.179864 199.985786 
L 100.479828 183.991382 
L 100.779792 156.353052 
L 101.079756 108.594018 
L 101.279732 58.714693 
L 101.37972 205.631978 
L 101.479708 202.367149 
L 101.779673 188.106378 
L 102.079637 163.463766 
L 102.379601 120.881331 
L 102.679565 47.298885 
L 102.779553 204.490397 
L 102.879541 200.997252 
L 103.179505 185.739196 
L 103.47947 159.373275 
L 103.779434 113.812964 
L 104.179386 35.084745 
L 104.279374 203.268983 
L 104.379362 199.531556 
L 104.679326 183.206472 
L 104.97929 154.996728 
L 105.279255 106.250291 
L 105.479231 55.339725 
L 105.579219 205.294481 
L 105.679207 201.962153 
L 105.979171 187.406545 
L 106.279135 162.254454 
L 106.579099 118.79164 
L 106.879063 43.687899 
L 106.979051 204.129298 
L 107.07904 200.563934 
L 107.379004 184.990422 
L 107.678968 158.079394 
L 107.978932 111.577136 
L 108.178908 63.010383 
L 108.278896 206.061547 
L 108.378884 202.882632 
L 108.678848 188.997133 
L 108.978813 165.002989 
L 109.278777 123.54111 
L 109.578741 51.894981 
L 109.678729 204.950007 
L 109.778717 201.548784 
L 110.078681 186.692243 
L 110.378645 161.02014 
L 110.678609 116.658746 
L 110.978574 40.002257 
L 111.078562 203.760734 
L 111.17855 200.121657 
L 111.478514 184.226167 
L 111.778478 156.758761 
L 112.078442 109.295084 
L 112.378406 59.724228 
L 112.478394 59.724228 
L 112.578382 27.277849 
L 112.678371 202.488294 
L 112.778359 198.594728 
L 113.078323 181.587634 
L 113.378287 152.199376 
L 113.678251 101.416466 
L 113.878227 48.379018 
L 113.978215 204.59841 
L 114.078203 201.126868 
L 114.378167 185.963173 
L 114.678132 159.760307 
L 114.978096 114.481754 
L 115.27806 36.240415 
L 115.378048 203.38455 
L 115.478036 199.670236 
L 115.778 183.446112 
L 116.077964 155.410826 
L 116.377929 106.965851 
L 116.577905 56.370132 
L 116.677893 205.397522 
L 116.777881 202.085802 
L 117.077845 187.62021 
L 117.377809 162.623667 
L 117.677773 119.429641 
L 117.977737 44.790364 
L 118.077725 204.239545 
L 118.177714 200.69623 
L 118.477678 185.219029 
L 118.777642 158.474427 
L 119.077606 112.259754 
L 119.477558 32.400799 
L 119.577546 203.000588 
L 119.677534 199.209482 
L 119.977498 182.649929 
L 120.277463 154.035022 
L 120.577427 104.588462 
L 120.777403 52.946691 
L 120.877391 205.055178 
L 120.977379 201.674989 
L 121.277343 186.910325 
L 121.577307 161.396987 
L 121.877272 117.309937 
L 122.177236 41.127515 
L 122.277224 203.87326 
L 122.377212 200.256688 
L 122.677176 184.459501 
L 122.97714 157.161962 
L 123.277104 109.991814 
L 123.47708 60.727519 
L 123.577068 205.833261 
L 123.677056 202.608689 
L 123.977021 188.523758 
L 124.276985 164.184998 
L 124.576949 122.12762 
L 124.876913 49.452472 
L 124.976901 204.705756 
L 125.076889 201.255683 
L 125.376853 186.185764 
L 125.676818 160.144945 
L 125.976782 115.146408 
L 126.376734 37.388938 
L 126.476722 203.499402 
L 126.57671 199.808059 
L 126.876674 183.68427 
L 127.176638 155.822362 
L 127.476603 107.676986 
L 127.676579 57.394167 
L 127.776567 205.499925 
L 127.876555 202.208686 
L 128.176519 187.832554 
L 128.476483 162.990597 
L 128.776447 120.063696 
L 129.076411 45.886011 
L 129.176399 204.34911 
L 129.276388 200.827708 
L 129.576352 185.446223 
L 129.876316 158.867017 
L 130.17628 112.93815 
L 130.476244 33.573067 
L 130.576232 203.117815 
L 130.67622 199.350154 
L 130.976184 182.893011 
L 131.276149 154.455066 
L 131.576113 105.314299 
L 131.776089 53.991897 
L 131.876077 205.159698 
L 131.976065 201.800414 
L 132.276029 187.127059 
L 132.575993 161.771503 
L 132.875957 117.957101 
L 133.175922 42.245814 
L 133.27591 203.98509 
L 133.375898 200.390884 
L 133.675862 184.691392 
L 133.975826 157.562669 
L 134.27579 110.684236 
L 134.475766 61.724606 
L 134.575754 205.932969 
L 134.675742 202.728339 
L 134.975707 188.730514 
L 135.275671 164.542272 
L 135.575635 122.74499 
L 135.875599 50.519288 
L 135.975587 204.812437 
L 136.075575 201.383701 
L 136.375539 186.406979 
L 136.675504 160.527204 
L 136.975468 115.806952 
L 137.275432 38.530358 
L 137.37542 203.613544 
L 137.475408 199.945029 
L 137.775372 183.920954 
L 138.075336 156.231353 
L 138.3753 108.383723 
L 138.575277 58.411868 
L 138.675265 205.601695 
L 138.775253 202.33081 
L 139.075217 188.043584 
L 139.375181 163.355258 
L 139.675145 120.69383 
L 139.975109 46.974882 
L 140.075097 204.457997 
L 140.175085 200.958372 
L 140.47505 185.672011 
L 140.775014 159.257179 
L 141.074978 113.61235 
L 141.374942 65.941091 
L 143.574679 65.941091 
L 143.674667 34.738085 
L 143.774655 203.234317 
L 143.874643 199.489956 
L 144.174608 183.134589 
L 144.474572 154.872514 
L 144.774536 106.035648 
L 144.974512 55.03064 
L 145.0745 205.263573 
L 145.174488 201.925063 
L 145.474452 187.342453 
L 145.774416 162.143703 
L 146.074381 118.600263 
L 146.374345 43.357198 
L 146.474333 204.096228 
L 146.574321 200.52425 
L 146.874285 184.921848 
L 147.174249 157.960898 
L 147.474213 111.372375 
L 147.674189 62.715527 
L 147.774177 206.032061 
L 147.874166 202.847249 
L 148.17413 188.935991 
L 148.474094 164.897337 
L 148.774058 123.358542 
L 149.074022 51.579505 
L 149.17401 204.918459 
L 149.273998 201.510927 
L 149.573962 186.626826 
L 149.873927 160.907099 
L 150.173891 116.463411 
L 150.473855 39.664719 
L 150.573843 203.72698 
L 150.673831 200.081152 
L 150.973795 184.156176 
L 151.273759 156.637816 
L 151.573724 109.086089 
L 151.7737 59.423276 
L 151.873688 205.702836 
L 151.973676 202.452179 
L 152.27364 188.25331 
L 152.573604 163.717664 
L 152.873568 121.320067 
L 153.173532 48.05702 
L 153.27352 204.566211 
L 153.373509 201.088229 
L 153.673473 185.896403 
L 153.973437 159.644929 
L 154.273401 114.282381 
L 154.473377 66.905936 
L 154.573365 206.451102 
L 154.673353 203.350098 
L 154.973317 189.804914 
L 155.273282 166.398836 
L 155.573246 125.953133 
L 155.87321 56.062958 
L 155.973198 205.366804 
L 156.073186 202.048941 
L 156.37315 187.556514 
L 156.673114 162.513601 
L 156.973078 119.239447 
L 157.273043 44.461708 
L 157.373031 204.206679 
L 157.473019 200.656791 
L 157.772983 185.150879 
L 158.072947 158.356664 
L 158.372911 112.056259 
L 158.672875 63.70032 
L 160.372672 63.70032 
L 160.47266 206.130541 
L 160.572648 202.965425 
L 160.872613 189.140198 
L 161.172577 165.250206 
L 161.472541 123.9683 
L 161.772505 52.633166 
L 161.872493 205.023825 
L 161.972481 201.637366 
L 162.272445 186.845313 
L 162.572409 161.284645 
L 162.872374 117.11581 
L 163.172338 70.986074 
L 163.372314 70.986074 
L 163.472302 40.792064 
L 163.57229 203.839715 
L 163.672278 200.216434 
L 163.972242 184.389942 
L 164.272206 157.041764 
L 164.572171 109.784112 
L 164.772147 60.428428 
L 164.872135 205.803351 
L 164.972123 202.572798 
L 165.272087 188.461738 
L 165.572051 164.077828 
L 165.872015 121.942431 
L 166.171979 49.132465 
L 166.271967 204.673755 
L 166.371956 201.217282 
L 166.67192 186.119407 
L 166.971884 160.03028 
L 167.271848 114.948268 
L 167.571812 67.864813 
L 167.771788 67.864813 
L 167.871776 37.046552 
L 167.971764 203.465164 
L 168.071752 199.766972 
L 168.371717 183.613273 
L 168.671681 155.699679 
L 168.971645 107.46499 
L 169.171621 57.088892 
L 169.271609 205.469398 
L 169.371597 202.172053 
L 169.671561 187.769252 
L 169.971525 162.881212 
L 170.27149 119.874678 
L 170.571454 45.559388 
L 170.671442 204.316447 
L 170.77143 200.788513 
L 171.071394 185.378494 
L 171.371358 158.749982 
L 171.671322 112.735913 
L 172.071275 33.223602 
L 172.171263 203.082869 
L 172.271251 199.308218 
L 172.571215 182.820546 
L 172.871179 154.329847 
L 173.171143 105.09792 
L 173.471107 53.680311 
L 174.470988 53.680311 
L 174.570976 205.12854 
L 174.670964 201.763024 
L 174.970928 187.062449 
L 175.270892 161.659856 
L 175.570857 117.764175 
L 175.870821 41.912438 
L 175.970809 203.951752 
L 176.070797 200.350879 
L 176.370761 184.622263 
L 176.670725 157.443214 
L 176.970689 110.477818 
L 177.270653 61.427365 
L 177.97057 61.427365 
L 178.070558 29.321614 
L 178.170546 202.69267 
L 178.270534 198.83998 
L 178.570498 182.011429 
L 178.870462 152.931694 
L 179.170426 102.681912 
L 179.370403 50.201259 
L 179.470391 204.780635 
L 179.570379 201.345537 
L 179.870343 186.341033 
L 180.170307 160.413249 
L 180.470271 115.610038 
L 180.770235 38.190089 
L 180.870223 203.579518 
L 180.970211 199.904197 
L 181.270176 183.850396 
L 181.57014 156.109429 
L 181.870104 108.173038 
L 182.170068 58.108481 
L 182.470032 58.108481 
L 182.57002 205.571357 
L 182.670008 202.294404 
L 182.969973 187.980674 
L 183.269937 163.246549 
L 183.569901 120.505981 
L 183.869865 46.650279 
L 183.969853 204.425537 
L 184.069841 200.91942 
L 184.369805 185.604701 
L 184.669769 159.140868 
L 184.969734 113.411364 
L 185.269698 65.651671 
L 185.369686 65.651671 
L 185.469674 34.390782 
L 185.569662 203.199587 
L 185.66965 199.44828 
L 185.969614 183.062572 
L 186.269578 154.748069 
L 186.569542 105.820607 
L 186.769519 54.72098 
L 186.869507 205.232607 
L 186.969495 201.887904 
L 187.269459 187.278242 
L 187.569423 162.032746 
L 187.869387 118.40853 
L 188.169351 43.025884 
L 188.269339 204.063097 
L 188.369327 200.484492 
L 188.669292 184.853147 
L 188.969256 157.842182 
L 189.26922 111.167234 
L 189.669172 30.512925 
L 189.76916 202.811801 
L 189.869148 198.982937 
L 190.169112 182.25846 
L 190.469077 153.358562 
L 190.769041 103.41954 
L 190.969017 51.263444 
L 191.069005 204.886853 
L 191.168993 201.472999 
L 191.468957 186.561287 
L 191.768921 160.793849 
L 192.068885 116.267714 
L 192.36885 39.326555 
L 192.468838 203.693164 
L 192.568826 200.040573 
L 192.86879 184.086054 
L 193.168754 156.516645 
L 193.468718 108.876707 
L 193.668694 59.121765 
L 193.768682 205.672685 
L 193.86867 202.415998 
L 194.168635 188.190789 
L 194.468599 163.609627 
L 194.768563 121.13338 
L 195.068527 47.734424 
L 195.168515 204.533951 
L 195.268503 201.049517 
L 195.568467 185.82951 
L 195.868431 159.529337 
L 196.168396 114.082638 
L 196.46836 35.550743 
L 196.568348 203.315583 
L 196.668336 199.587475 
L 196.9683 183.303102 
L 197.268264 155.163704 
L 197.568228 106.538824 
L 197.768204 55.755214 
L 197.868193 205.33603 
L 197.968181 202.012012 
L 198.268145 187.492701 
L 198.568109 162.403331 
L 198.868073 119.0489 
L 199.168037 44.132443 
L 199.268025 204.173753 
L 199.368013 200.617279 
L 199.667978 185.082603 
L 199.967942 158.238682 
L 200.267906 111.852386 
L 200.467882 63.406743 
L 200.56787 206.101183 
L 200.667858 202.930195 
L 200.967822 189.079322 
L 201.267786 165.145012 
L 201.567751 123.786525 
L 201.867715 52.31906 
L 201.967703 204.992415 
L 202.067691 201.599673 
L 202.367655 186.78018 
L 202.667619 161.172095 
L 202.967583 116.921324 
L 203.267547 70.706013 
L 203.467524 70.706013 
L 203.567512 40.455992 
L 203.6675 203.806108 
L 203.767488 200.176105 
L 204.067452 184.320254 
L 204.367416 156.921343 
L 204.66738 109.576025 
L 204.867356 60.128782 
L 204.967344 205.773387 
L 205.067332 202.53684 
L 205.367297 188.399604 
L 205.667261 163.97046 
L 205.967225 121.756898 
L 206.267189 48.811864 
L 206.367177 204.641695 
L 206.467165 201.17881 
L 206.767129 186.052928 
L 207.067094 159.915403 
L 207.367058 114.749761 
L 207.667022 36.703531 
L 207.76701 203.430862 
L 207.866998 199.72581 
L 208.166962 183.542144 
L 208.466926 155.576768 
L 208.76689 107.2526 
L 208.966867 56.783051 
L 209.066855 205.438814 
L 209.166843 202.135352 
L 209.466807 187.705833 
L 209.766771 162.771623 
L 210.066735 119.685309 
L 210.366699 45.232159 
L 210.466687 204.283725 
L 210.566675 200.749245 
L 210.86664 185.31064 
L 211.166604 158.63273 
L 211.466568 112.533302 
L 211.766532 64.387261 
L 213.366341 64.387261 
L 213.466329 32.873489 
L 213.566317 203.047858 
L 213.666305 199.266205 
L 213.966269 182.747946 
L 214.266233 154.204395 
L 214.566198 104.881139 
L 214.766174 53.368147 
L 214.866162 205.097323 
L 214.96615 201.725564 
L 215.266114 186.997719 
L 215.566078 161.548002 
L 215.866042 117.570891 
L 216.166006 41.578444 
L 216.265994 203.918353 
L 216.365983 200.310799 
L 216.665947 184.553006 
L 216.965911 157.323538 
L 217.265875 110.271018 
L 217.565839 61.129572 
L 217.965791 61.129572 
L 218.065779 205.873466 
L 218.165768 202.656935 
L 218.465732 188.607128 
L 218.765696 164.329061 
L 219.06566 122.376561 
L 219.365624 49.882641 
L 219.465612 204.748773 
L 219.5656 201.307303 
L 219.865564 186.274964 
L 220.165529 160.299082 
L 220.465493 115.412758 
L 220.765457 68.533678 
L 220.865445 68.533678 
L 220.965433 37.84919 
L 221.065421 203.545428 
L 221.165409 199.863289 
L 221.465373 183.779707 
L 221.765337 155.987279 
L 222.065302 107.961962 
L 222.265278 57.804532 
L 222.365266 205.540962 
L 222.465254 202.25793 
L 222.765218 187.917647 
L 223.065182 163.137638 
L 223.365146 120.317783 
L 223.66511 46.325074 
L 223.765099 204.393016 
L 223.865087 200.880395 
L 224.165051 185.537267 
L 224.465015 159.024341 
L 224.764979 113.210006 
L 225.164931 34.042834 
L 225.264919 203.164792 
L 225.364907 199.406526 
L 225.664872 182.990422 
L 225.964836 154.623393 
L 226.2648 105.605167 
L 226.464776 54.410747 
L 226.564764 205.201583 
L 226.664752 201.850676 
L 226.964716 187.213912 
L 227.26468 161.921584 
L 227.564645 118.216441 
L 227.864609 72.570982 
L 227.964597 72.570982 
L 228.064585 42.693955 
L 228.164573 204.029904 
L 228.264561 200.444661 
L 228.564525 184.784318 
L 228.864489 157.723246 
L 229.164453 110.961712 
L 229.36443 62.124173 
L 229.464418 205.972926 
L 229.564406 202.776287 
L 229.86437 188.813368 
L 230.164334 164.685444 
L 230.464298 122.992391 
L 230.764262 50.946796 
L 230.86425 204.855188 
L 230.964238 201.435002 
L 231.264203 186.495627 
L 231.564167 160.680388 
L 231.864131 116.071654 
L 232.264083 38.987763 
L 232.364071 203.659285 
L 232.464059 199.999918 
L 232.764023 184.015802 
L 233.063988 156.39525 
L 233.363952 108.666936 
L 233.563928 58.819695 
L 233.663916 205.642478 
L 233.763904 202.37975 
L 234.063868 188.128152 
L 234.363832 163.50139 
L 234.663796 120.946346 
L 234.963761 47.41123 
L 235.063749 204.501632 
L 235.163737 201.010734 
L 235.463701 185.762492 
L 235.763665 159.413531 
L 236.063629 113.882525 
L 236.463581 35.204947 
L 236.563569 203.281003 
L 236.663557 199.54598 
L 236.963522 183.231397 
L 237.263486 155.039799 
L 237.56345 106.324716 
L 237.763426 55.446899 
L 237.863414 205.305198 
L 237.963402 201.975014 
L 238.263366 187.428768 
L 238.563331 162.292856 
L 238.863295 118.857999 
L 239.163259 43.802567 
L 239.263247 204.140765 
L 239.363235 200.577694 
L 239.663199 185.0142 
L 239.963163 158.120481 
L 240.263127 111.648136 
L 240.563092 63.112622 
L 242.362877 63.112622 
L 242.462865 31.343923 
L 242.562853 202.894901 
L 242.662841 199.082657 
L 242.962805 182.430775 
L 243.262769 153.656324 
L 243.562733 103.934072 
L 243.762709 52.00437 
L 243.862697 204.960946 
L 243.962685 201.561911 
L 244.26265 186.714926 
L 244.562614 161.059336 
L 244.862578 116.726476 
L 245.162542 40.119295 
L 245.26253 203.772438 
L 245.362518 200.135702 
L 245.662482 184.250437 
L 245.962447 156.800699 
L 246.262411 109.367551 
L 246.562375 59.828581 
L 246.762351 59.828581 
L 246.862339 27.403073 
L 246.962327 202.500816 
L 247.062315 198.609755 
L 247.362279 181.613601 
L 247.662243 152.244246 
L 247.962208 101.494001 
L 248.162184 48.490669 
L 248.262172 204.609576 
L 248.36216 201.140266 
L 248.662124 185.986325 
L 248.962088 159.800313 
L 249.262052 114.550885 
L 249.562016 36.359874 
L 249.662005 203.396496 
L 249.761993 199.684571 
L 250.061957 183.470883 
L 250.361921 155.45363 
L 250.661885 107.039816 
L 250.861861 56.476643 
L 250.961849 205.408173 
L 251.061837 202.098583 
L 251.361801 187.642296 
L 251.661766 162.661832 
L 251.96173 119.495589 
L 252.261694 44.904323 
L 252.361682 204.250941 
L 252.46167 200.709905 
L 252.761634 185.24266 
L 253.061598 158.51526 
L 253.361563 112.330314 
L 253.761515 32.522727 
L 253.861503 203.012781 
L 253.961491 199.224113 
L 254.261455 182.675212 
L 254.561419 154.078711 
L 254.861383 104.663956 
L 255.061359 53.055404 
L 255.161347 205.066049 
L 255.261336 201.688035 
L 255.5613 186.932868 
L 255.861264 161.43594 
L 256.161228 117.377249 
L 256.461192 41.24383 
L 256.56118 203.884892 
L 256.661168 200.270646 
L 256.961132 184.48362 
L 257.261097 157.20364 
L 257.561061 110.063833 
L 257.861025 60.831227 
L 259.760798 60.831227 
L 259.860786 28.606248 
L 259.960774 202.621133 
L 260.060762 198.754136 
L 260.360726 181.863091 
L 260.66069 152.675366 
L 260.960655 102.238976 
L 261.260619 49.563432 
L 262.360487 49.563432 
L 262.460475 204.716852 
L 262.560463 201.268998 
L 262.860428 186.208773 
L 263.160392 160.184704 
L 263.460356 115.215112 
L 263.76032 37.507658 
L 263.860308 203.511274 
L 263.960296 199.822305 
L 264.26026 183.708887 
L 264.560225 155.864902 
L 264.860189 107.750494 
L 265.060165 57.500018 
L 265.160153 205.51051 
L 265.260141 202.221388 
L 265.560105 187.854503 
L 265.860069 163.028526 
L 266.160033 120.129237 
L 266.459998 45.999265 
L 266.559986 204.360435 
L 266.659974 200.841298 
L 266.959938 185.469707 
L 267.259902 158.907598 
L 267.559866 113.008274 
L 267.959818 33.694241 
L 268.059806 203.129933 
L 268.159795 199.364695 
L 268.459759 182.918137 
L 268.759723 154.498485 
L 269.059687 105.389327 
L 269.259663 54.099938 
L 269.359651 205.170502 
L 269.459639 201.813379 
L 269.759603 187.149463 
L 270.059568 161.810215 
L 270.359532 118.023996 
L 270.659496 42.36141 
L 270.759484 203.99665 
L 270.859472 200.404755 
L 271.159436 184.715361 
L 271.4594 157.604089 
L 271.759364 110.75581 
L 272.059329 61.827673 
L 272.159317 61.827673 
L 272.259305 29.801983 
L 272.359293 202.740707 
L 272.459281 198.897624 
L 272.759245 182.111039 
L 273.059209 153.103819 
L 273.359173 102.979343 
L 273.559149 50.629561 
L 273.659137 204.823465 
L 273.759126 201.396934 
L 274.05909 186.429845 
L 274.359054 160.566717 
L 274.659018 115.875231 
L 274.958982 38.648343 
L 275.05897 203.625343 
L 275.158958 199.959187 
L 275.458922 183.94542 
L 275.758887 156.27363 
L 276.058851 108.456776 
L 276.358815 58.517065 
L 276.458803 58.517065 
L 276.558791 25.829254 
L 276.658779 202.343434 
L 276.758767 198.420897 
L 277.058731 181.287254 
L 277.358695 151.680318 
L 277.65866 100.519534 
L 277.858636 47.087436 
L 277.958624 204.469252 
L 278.058612 200.971879 
L 278.358576 185.69535 
L 278.65854 159.297509 
L 278.958504 113.68204 
L 279.258469 34.85851 
L 279.358457 203.24636 
L 279.458445 199.504407 
L 279.758409 183.15956 
L 280.058373 154.915664 
L 280.358337 106.110212 
L 280.558313 55.138012 
L 280.658301 205.27431 
L 280.758289 201.937948 
L 281.058253 187.364718 
L 281.358218 162.182176 
L 281.658182 118.666744 
L 281.958146 43.472079 
L 282.058134 204.107716 
L 282.158122 200.538036 
L 282.458086 184.94567 
L 282.75805 158.002061 
L 283.058015 111.443506 
L 283.257991 62.817956 
L 283.357979 206.042304 
L 283.457967 202.859541 
L 283.757931 188.957231 
L 284.057895 164.934039 
L 284.357859 123.421964 
L 284.657823 51.689097 
L 284.757811 204.929418 
L 284.8578 201.524078 
L 285.157764 186.649551 
L 285.457728 160.946368 
L 285.757692 116.531268 
L 286.057656 39.781975 
L 286.157644 203.738706 
L 286.257632 200.095223 
L 286.557596 184.18049 
L 286.857561 156.67983 
L 287.157525 109.158691 
L 287.557477 27.042162 
L 287.657465 202.464725 
L 287.757453 198.566446 
L 288.057417 181.538762 
L 288.357381 152.114925 
L 288.657346 101.270535 
L 288.857322 48.168878 
L 288.95731 204.577396 
L 289.057298 201.101652 
L 289.357262 185.919598 
L 289.657226 159.685009 
L 289.95719 114.35164 
L 290.257154 36.015579 
L 290.357142 203.362066 
L 290.457131 199.643256 
L 290.757095 183.39949 
L 291.057059 155.330263 
L 291.357023 106.826638 
L 291.556999 56.169666 
L 291.656987 205.377475 
L 291.756975 202.061746 
L 292.056939 187.578641 
L 292.356904 162.551836 
L 292.656868 119.305518 
L 292.956832 44.575878 
L 293.05682 204.218096 
L 293.156808 200.670492 
L 293.456772 185.174554 
L 293.756736 158.397573 
L 294.0567 112.12695 
L 294.356665 63.802115 
L 295.556521 63.802115 
L 295.656509 32.171314 
L 295.756497 202.97764 
L 295.856485 199.181944 
L 296.15645 182.602343 
L 296.456414 153.952793 
L 296.756378 104.446371 
L 296.956354 52.742081 
L 297.056342 205.034717 
L 297.15633 201.650436 
L 297.456294 186.867897 
L 297.756258 161.323671 
L 298.056223 117.183247 
L 298.356187 71.083183 
L 298.556163 71.083183 
L 298.656151 40.908595 
L 298.756139 203.851368 
L 298.856127 200.230418 
L 299.156091 184.414106 
L 299.456055 157.083519 
L 299.75602 109.856265 
L 299.955996 60.532328 
L 300.055984 205.813741 
L 300.155972 202.585266 
L 300.455936 188.483283 
L 300.7559 164.115057 
L 301.055864 122.006763 
L 301.355828 49.243631 
L 301.455816 204.684872 
L 301.555805 201.230622 
L 301.855769 186.142459 
L 302.155733 160.070113 
L 302.455697 115.017099 
L 302.755661 67.96393 
L 302.855649 67.96393 
L 302.955637 37.165492 
L 303.055625 203.477058 
L 303.155613 199.781245 
L 303.455578 183.637936 
L 303.755542 155.742297 
L 304.055506 107.538634 
L 304.255482 57.19494 
L 304.35547 205.480003 
L 304.455458 202.184779 
L 304.755422 187.791242 
L 305.055386 162.919211 
L 305.355351 119.94034 
L 305.655315 45.672852 
L 305.755303 204.327794 
L 305.855291 200.802128 
L 306.155255 185.402022 
L 306.455219 158.790638 
L 306.755183 112.806167 
L 307.055148 64.780188 
L 307.155136 64.780188 
L 307.255124 33.345001 
L 307.355112 203.095009 
L 307.4551 199.322786 
L 307.755064 182.845719 
L 308.055028 154.373346 
L 308.354992 105.173087 
L 308.554968 53.788552 
L 308.654956 205.139364 
L 308.754944 201.776012 
L 309.054909 187.084894 
L 309.354873 161.69864 
L 309.654837 117.831195 
L 309.954801 42.028248 
L 310.054789 203.963333 
L 310.154777 200.364776 
L 310.454741 184.646277 
L 310.754706 157.484711 
L 311.05467 110.549525 
L 311.254646 61.530622 
L 311.354634 205.913571 
L 311.454622 202.705061 
L 311.754586 188.690289 
L 312.05455 164.472764 
L 312.354514 122.624881 
L 312.654479 50.311738 
L 312.754467 204.791682 
L 312.854455 201.358795 
L 313.154419 186.363941 
L 313.454383 160.452835 
L 313.754347 115.678443 
L 314.054311 38.308294 
L 314.154299 203.591338 
L 314.254287 199.918381 
L 314.554252 183.874907 
L 314.854216 156.151784 
L 315.15418 108.246227 
L 315.354156 58.213873 
L 315.454144 205.581896 
L 315.554132 202.307051 
L 315.854096 188.002528 
L 316.15406 163.284313 
L 316.454025 120.571237 
L 316.753989 46.763042 
L 316.853977 204.436813 
L 316.953965 200.932951 
L 317.253929 185.628084 
L 317.553893 159.181273 
L 317.853857 113.481184 
L 318.153822 34.51143 
L 318.25381 203.211652 
L 318.353798 199.462758 
L 318.653762 183.08759 
L 318.953726 154.791299 
L 319.25369 105.895309 
L 319.453666 54.828552 
L 319.553654 205.243364 
L 319.653642 201.900812 
L 319.953606 187.300548 
L 320.253571 162.071291 
L 320.553535 118.475135 
L 320.853499 43.140977 
L 320.953487 204.074606 
L 321.053475 200.498303 
L 321.353439 184.877013 
L 321.653403 157.883422 
L 321.953368 111.238497 
L 322.153344 62.522743 
L 322.253332 206.012783 
L 322.35332 202.824115 
L 322.653284 188.896015 
L 322.953248 164.828259 
L 323.253212 123.239175 
L 323.553176 51.373239 
L 323.653164 204.897833 
L 323.753153 201.486175 
L 324.053117 186.584054 
L 324.353081 160.83319 
L 324.653045 116.335697 
L 325.052997 39.444028 
L 325.152985 203.704911 
L 325.252973 200.05467 
L 325.552938 184.110413 
L 325.852902 156.558738 
L 326.152866 108.949444 
L 326.352842 59.226506 
L 326.45283 205.683159 
L 326.552818 202.428567 
L 326.852782 188.212508 
L 327.152746 163.647157 
L 327.452711 121.198232 
L 327.752675 47.846489 
L 327.852663 204.545158 
L 327.952651 201.062965 
L 328.252615 185.852748 
L 328.552579 159.569492 
L 328.852543 114.152026 
L 329.152507 66.718224 
L 329.252495 66.718224 
L 329.352484 35.670645 
L 329.452472 203.327573 
L 329.55246 199.601864 
L 329.852424 183.327964 
L 330.152388 155.206667 
L 330.452352 106.613064 
L 330.652328 55.86212 
L 330.752316 205.346721 
L 330.852304 202.024841 
L 331.152269 187.514869 
L 331.452233 162.441637 
L 331.752197 119.115093 
L 332.052161 44.246825 
L 332.152149 204.185191 
L 332.252137 200.631005 
L 332.552101 185.106321 
L 332.852065 158.279667 
L 333.15203 111.923209 
L 333.352006 63.508727 
L 333.451994 206.111381 
L 333.551982 202.942434 
L 333.851946 189.100469 
L 334.15191 165.181555 
L 334.451874 123.849671 
L 334.751838 52.428176 
L 334.851827 205.003326 
L 334.951815 201.612767 
L 335.251779 186.802806 
L 335.551743 161.211193 
L 335.851707 116.988886 
L 336.151671 70.803302 
L 336.251659 70.803302 
L 336.351647 40.572739 
L 336.451635 203.817782 
L 336.551623 200.190115 
L 336.851588 184.344463 
L 337.151552 156.963175 
L 337.451516 109.648311 
L 337.651492 60.232875 
L 337.75148 205.783796 
L 337.851468 202.549331 
L 338.151432 188.421189 
L 338.451396 164.007758 
L 338.751361 121.82135 
L 339.051325 48.923236 
L 339.151313 204.652832 
L 339.251301 201.192175 
L 339.551265 186.076022 
L 339.851229 159.95531 
L 340.151193 114.81872 
L 340.351169 67.678263 
L 340.451158 206.528335 
L 340.551146 203.442778 
L 340.85111 189.965064 
L 341.151074 166.675575 
L 341.451038 126.431338 
L 341.751002 56.889296 
L 341.85099 205.449438 
L 341.950978 202.148102 
L 342.250943 187.727864 
L 342.550907 162.809693 
L 342.850871 119.751093 
L 343.150835 74.780881 
L 343.350811 74.780881 
L 343.450799 45.345834 
L 343.550787 204.295092 
L 343.650775 200.762886 
L 343.950739 185.334212 
L 344.250704 158.673462 
L 344.550668 112.603686 
L 344.750644 64.488615 
L 344.850632 206.20937 
L 344.95062 203.06002 
L 345.250584 189.303659 
L 345.550548 165.532666 
L 345.850512 124.456391 
L 346.150477 53.476589 
L 346.250465 205.108167 
L 346.350453 201.738577 
L 346.650417 187.020205 
L 346.950381 161.586858 
L 347.250345 117.638035 
L 347.650297 41.694469 
L 347.750285 203.929956 
L 347.850274 200.324722 
L 348.150238 184.577065 
L 348.450202 157.365112 
L 348.750166 110.342857 
L 348.950142 61.233021 
L 349.05013 205.883811 
L 349.150118 202.669349 
L 349.450082 188.628579 
L 349.750047 164.366128 
L 350.050011 122.440614 
L 350.349975 49.993325 
L 350.449963 204.759841 
L 350.549951 201.320585 
L 350.849915 186.297915 
L 351.149879 160.338742 
L 351.449843 115.48129 
L 351.749808 37.967613 
L 351.849796 203.55727 
L 351.949784 199.8775 
L 352.249748 183.804264 
L 352.549712 156.029712 
L 352.849676 108.035286 
L 353.049652 57.910119 
L 353.14964 205.551521 
L 353.249628 202.270601 
L 353.549593 187.939542 
L 353.849557 163.175472 
L 354.149521 120.383161 
L 354.449485 46.438046 
L 354.549473 204.404313 
L 354.649461 200.893952 
L 354.949425 185.560693 
L 355.24939 159.064821 
L 355.549354 113.279955 
L 355.849318 65.462442 
L 355.949306 65.462442 
L 356.049294 34.163706 
L 356.149282 203.176879 
L 356.24927 199.421031 
L 356.549234 183.015486 
L 356.849198 154.666703 
L 357.149163 105.680007 
L 357.149163 105.680007 
" clip-path="url(#p958e233076)" style="fill: none; stroke: #1f77b4; stroke-width: 1.5; stroke-linecap: square"/>
   </g>
   <g id="patch_3">
    <path d="M 37.567344 229.519177 
L 37.567344 7.759177 
" style="fill: none; stroke: #000000; stroke-width: 0.8; stroke-linejoin: miter; stroke-linecap: square"/>
   </g>
   <g id="patch_4">
    <path d="M 372.367344 229.519177 
L 372.367344 7.759177 
" style="fill: none; stroke: #000000; stroke-width: 0.8; stroke-linejoin: miter; stroke-linecap: square"/>
   </g>
   <g id="patch_5">
    <path d="M 37.567344 229.519177 
L 372.367344 229.519177 
" style="fill: none; stroke: #000000; stroke-width: 0.8; stroke-linejoin: miter; stroke-linecap: square"/>
   </g>
   <g id="patch_6">
    <path d="M 37.567344 7.759177 
L 372.367344 7.759177 
" style="fill: none; stroke: #000000; stroke-width: 0.8; stroke-linejoin: miter; stroke-linecap: square"/>
   </g>
   <g id="legend_1">
    <g id="patch_7">
     <path d="M 314.548024 29.979484 
L 365.367344 29.979484 
Q 367.367344 29.979484 367.367344 27.979484 
L 367.367344 14.759177 
Q 367.367344 12.759177 365.367344 12.759177 
L 314.548024 12.759177 
Q 312.548024 12.759177 312.548024 14.759177 
L 312.548024 27.979484 
Q 312.548024 29.979484 314.548024 29.979484 
z
" style="fill: #ffffff; opacity: 0.8; stroke: #cccccc; stroke-linejoin: miter"/>
    </g>
    <g id="line2d_15">
     <path d="M 316.548024 20.357497 
L 326.548024 20.357497 
L 336.548024 20.357497 
" style="fill: none; stroke: #1f77b4; stroke-width: 1.5; stroke-linecap: square"/>
    </g>
    <g id="text_16">
     <!-- CFL -->
     <g transform="translate(344.548024 23.857497) scale(0.1 -0.1)">
      <use xlink:href="#NimbusSanL-Regu-43" transform="scale(0.996264)"/>
      <use xlink:href="#NimbusSanL-Regu-46" transform="translate(71.929985 0) scale(0.996264)"/>
      <use xlink:href="#NimbusSanL-Regu-4c" transform="translate(132.801616 0) scale(0.996264)"/>
     </g>
    </g>
   </g>
  </g>
 </g>
 <defs>
  <clipPath id="p958e233076">
   <rect x="37.567344" y="7.759177" width="334.8" height="221.76"/>
  </clipPath>
 </defs>
</svg>
