<?xml version="1.0" encoding="utf-8" standalone="no"?>
<!DOCTYPE svg PUBLIC "-//W3C//DTD SVG 1.1//EN"
  "http://www.w3.org/Graphics/SVG/1.1/DTD/svg11.dtd">
<svg xmlns:xlink="http://www.w3.org/1999/xlink" width="384.341086pt" height="265.600613pt" viewBox="0 0 384.341086 265.600613" xmlns="http://www.w3.org/2000/svg" version="1.1">
 <metadata>
  <rdf:RDF xmlns:dc="http://purl.org/dc/elements/1.1/" xmlns:cc="http://creativecommons.org/ns#" xmlns:rdf="http://www.w3.org/1999/02/22-rdf-syntax-ns#">
   <cc:Work>
    <dc:type rdf:resource="http://purl.org/dc/dcmitype/StillImage"/>
    <dc:date>2025-08-02T14:17:40.525992</dc:date>
    <dc:format>image/svg+xml</dc:format>
    <dc:creator>
     <cc:Agent>
      <dc:title>Matplotlib v3.10.3, https://matplotlib.org/</dc:title>
     </cc:Agent>
    </dc:creator>
   </cc:Work>
  </rdf:RDF>
 </metadata>
 <defs>
  <style type="text/css">*{stroke-linejoin: round; stroke-linecap: butt}</style>
 </defs>
 <g id="figure_1">
  <g id="patch_1">
   <path d="M 0 265.600613 
L 384.341086 265.600613 
L 384.341086 0 
L 0 0 
z
" style="fill: #ffffff"/>
  </g>
  <g id="axes_1">
   <g id="patch_2">
    <path d="M 32.586009 228.96 
L 367.386009 228.96 
L 367.386009 7.2 
L 32.586009 7.2 
z
" style="fill: #ffffff"/>
   </g>
   <g id="matplotlib.axis_1">
    <g id="xtick_1">
     <g id="line2d_1">
      <defs>
       <path id="mdffaeea2ef" d="M 0 0 
L 0 3.5 
" style="stroke: #000000; stroke-width: 0.8"/>
      </defs>
      <g>
       <use xlink:href="#mdffaeea2ef" x="47.804191" y="228.96" style="stroke: #000000; stroke-width: 0.8"/>
      </g>
     </g>
     <g id="text_1">
      <!-- $\mathdefault{0}$ -->
      <g transform="translate(45.313523 243.05832) scale(0.1 -0.1)">
       <defs>
        <path id="CMR17-30" d="M 2688 2038 
C 2688 2430 2682 3099 2413 3613 
C 2176 4063 1798 4224 1466 4224 
C 1158 4224 768 4082 525 3620 
C 269 3137 243 2539 243 2038 
C 243 1671 250 1112 448 623 
C 723 -39 1216 -128 1466 -128 
C 1760 -128 2208 -7 2470 604 
C 2662 1048 2688 1568 2688 2038 
z
M 1466 -26 
C 1056 -26 813 328 723 816 
C 653 1196 653 1749 653 2109 
C 653 2604 653 3015 736 3407 
C 858 3954 1216 4121 1466 4121 
C 1728 4121 2067 3947 2189 3420 
C 2272 3054 2278 2623 2278 2109 
C 2278 1691 2278 1176 2202 797 
C 2067 96 1690 -26 1466 -26 
z
" transform="scale(0.015625)"/>
       </defs>
       <use xlink:href="#CMR17-30" transform="scale(0.996264)"/>
      </g>
     </g>
    </g>
    <g id="xtick_2">
     <g id="line2d_2">
      <g>
       <use xlink:href="#mdffaeea2ef" x="101.033228" y="228.96" style="stroke: #000000; stroke-width: 0.8"/>
      </g>
     </g>
     <g id="text_2">
      <!-- $\mathdefault{500}$ -->
      <g transform="translate(93.561226 243.05832) scale(0.1 -0.1)">
       <defs>
        <path id="CMR17-35" d="M 730 3750 
C 794 3724 1056 3641 1325 3641 
C 1920 3641 2246 3961 2432 4140 
C 2432 4191 2432 4224 2394 4224 
C 2387 4224 2374 4224 2323 4198 
C 2099 4102 1837 4032 1517 4032 
C 1325 4032 1037 4055 723 4191 
C 653 4224 640 4224 634 4224 
C 602 4224 595 4217 595 4090 
L 595 2231 
C 595 2113 595 2080 659 2080 
C 691 2080 704 2093 736 2139 
C 941 2435 1222 2560 1542 2560 
C 1766 2560 2246 2415 2246 1293 
C 2246 1087 2246 716 2054 422 
C 1894 159 1645 25 1370 25 
C 947 25 518 319 403 812 
C 429 806 480 793 506 793 
C 589 793 749 838 749 1036 
C 749 1209 627 1280 506 1280 
C 358 1280 262 1190 262 1011 
C 262 454 704 -128 1382 -128 
C 2042 -128 2669 441 2669 1267 
C 2669 2054 2170 2662 1549 2662 
C 1222 2662 947 2540 730 2304 
L 730 3750 
z
" transform="scale(0.015625)"/>
       </defs>
       <use xlink:href="#CMR17-35" transform="scale(0.996264)"/>
       <use xlink:href="#CMR17-30" transform="translate(45.690477 0) scale(0.996264)"/>
       <use xlink:href="#CMR17-30" transform="translate(91.380954 0) scale(0.996264)"/>
      </g>
     </g>
    </g>
    <g id="xtick_3">
     <g id="line2d_3">
      <g>
       <use xlink:href="#mdffaeea2ef" x="154.262266" y="228.96" style="stroke: #000000; stroke-width: 0.8"/>
      </g>
     </g>
     <g id="text_3">
      <!-- $\mathdefault{1000}$ -->
      <g transform="translate(144.299595 243.05832) scale(0.1 -0.1)">
       <defs>
        <path id="CMR17-31" d="M 1702 4083 
C 1702 4217 1696 4224 1606 4224 
C 1357 3927 979 3833 621 3820 
C 602 3820 570 3820 563 3808 
C 557 3795 557 3782 557 3648 
C 755 3648 1088 3686 1344 3839 
L 1344 467 
C 1344 243 1331 166 781 166 
L 589 166 
L 589 0 
C 896 6 1216 12 1523 12 
C 1830 12 2150 6 2458 0 
L 2458 166 
L 2266 166 
C 1715 166 1702 236 1702 467 
L 1702 4083 
z
" transform="scale(0.015625)"/>
       </defs>
       <use xlink:href="#CMR17-31" transform="scale(0.996264)"/>
       <use xlink:href="#CMR17-30" transform="translate(45.690477 0) scale(0.996264)"/>
       <use xlink:href="#CMR17-30" transform="translate(91.380954 0) scale(0.996264)"/>
       <use xlink:href="#CMR17-30" transform="translate(137.071431 0) scale(0.996264)"/>
      </g>
     </g>
    </g>
    <g id="xtick_4">
     <g id="line2d_4">
      <g>
       <use xlink:href="#mdffaeea2ef" x="207.491303" y="228.96" style="stroke: #000000; stroke-width: 0.8"/>
      </g>
     </g>
     <g id="text_4">
      <!-- $\mathdefault{1500}$ -->
      <g transform="translate(197.528633 243.05832) scale(0.1 -0.1)">
       <use xlink:href="#CMR17-31" transform="scale(0.996264)"/>
       <use xlink:href="#CMR17-35" transform="translate(45.690477 0) scale(0.996264)"/>
       <use xlink:href="#CMR17-30" transform="translate(91.380954 0) scale(0.996264)"/>
       <use xlink:href="#CMR17-30" transform="translate(137.071431 0) scale(0.996264)"/>
      </g>
     </g>
    </g>
    <g id="xtick_5">
     <g id="line2d_5">
      <g>
       <use xlink:href="#mdffaeea2ef" x="260.720341" y="228.96" style="stroke: #000000; stroke-width: 0.8"/>
      </g>
     </g>
     <g id="text_5">
      <!-- $\mathdefault{2000}$ -->
      <g transform="translate(250.75767 243.05832) scale(0.1 -0.1)">
       <defs>
        <path id="CMR17-32" d="M 2669 990 
L 2554 990 
C 2490 537 2438 460 2413 422 
C 2381 371 1920 371 1830 371 
L 602 371 
C 832 620 1280 1073 1824 1596 
C 2214 1966 2669 2400 2669 3033 
C 2669 3788 2067 4224 1395 4224 
C 691 4224 262 3603 262 3027 
C 262 2777 448 2745 525 2745 
C 589 2745 781 2783 781 3007 
C 781 3206 614 3264 525 3264 
C 486 3264 448 3257 422 3244 
C 544 3788 915 4057 1306 4057 
C 1862 4057 2227 3616 2227 3033 
C 2227 2477 1901 1998 1536 1583 
L 262 147 
L 262 0 
L 2515 0 
L 2669 990 
z
" transform="scale(0.015625)"/>
       </defs>
       <use xlink:href="#CMR17-32" transform="scale(0.996264)"/>
       <use xlink:href="#CMR17-30" transform="translate(45.690477 0) scale(0.996264)"/>
       <use xlink:href="#CMR17-30" transform="translate(91.380954 0) scale(0.996264)"/>
       <use xlink:href="#CMR17-30" transform="translate(137.071431 0) scale(0.996264)"/>
      </g>
     </g>
    </g>
    <g id="xtick_6">
     <g id="line2d_6">
      <g>
       <use xlink:href="#mdffaeea2ef" x="313.949378" y="228.96" style="stroke: #000000; stroke-width: 0.8"/>
      </g>
     </g>
     <g id="text_6">
      <!-- $\mathdefault{2500}$ -->
      <g transform="translate(303.986708 243.05832) scale(0.1 -0.1)">
       <use xlink:href="#CMR17-32" transform="scale(0.996264)"/>
       <use xlink:href="#CMR17-35" transform="translate(45.690477 0) scale(0.996264)"/>
       <use xlink:href="#CMR17-30" transform="translate(91.380954 0) scale(0.996264)"/>
       <use xlink:href="#CMR17-30" transform="translate(137.071431 0) scale(0.996264)"/>
      </g>
     </g>
    </g>
    <g id="xtick_7">
     <g id="line2d_7">
      <g>
       <use xlink:href="#mdffaeea2ef" x="367.178416" y="228.96" style="stroke: #000000; stroke-width: 0.8"/>
      </g>
     </g>
     <g id="text_7">
      <!-- $\mathdefault{3000}$ -->
      <g transform="translate(357.215745 243.05832) scale(0.1 -0.1)">
       <defs>
        <path id="CMR17-33" d="M 1414 2176 
C 1984 2176 2234 1673 2234 1094 
C 2234 322 1824 25 1453 25 
C 1114 25 563 193 390 691 
C 422 678 454 678 486 678 
C 640 678 755 780 755 947 
C 755 1132 614 1216 486 1216 
C 378 1216 211 1164 211 927 
C 211 335 787 -128 1466 -128 
C 2176 -128 2720 432 2720 1087 
C 2720 1718 2208 2176 1600 2246 
C 2086 2347 2554 2776 2554 3353 
C 2554 3856 2048 4224 1472 4224 
C 890 4224 378 3862 378 3347 
C 378 3123 544 3084 627 3084 
C 762 3084 877 3167 877 3334 
C 877 3500 762 3584 627 3584 
C 602 3584 570 3584 544 3571 
C 730 3999 1235 4076 1459 4076 
C 1683 4076 2106 3966 2106 3347 
C 2106 3167 2080 2851 1862 2574 
C 1670 2329 1453 2316 1242 2297 
C 1210 2297 1062 2284 1037 2284 
C 992 2278 966 2272 966 2227 
C 966 2182 973 2176 1101 2176 
L 1414 2176 
z
" transform="scale(0.015625)"/>
       </defs>
       <use xlink:href="#CMR17-33" transform="scale(0.996264)"/>
       <use xlink:href="#CMR17-30" transform="translate(45.690477 0) scale(0.996264)"/>
       <use xlink:href="#CMR17-30" transform="translate(91.380954 0) scale(0.996264)"/>
       <use xlink:href="#CMR17-30" transform="translate(137.071431 0) scale(0.996264)"/>
      </g>
     </g>
    </g>
    <g id="text_8">
     <!-- Iteration -->
     <g transform="translate(182.038633 256.278627) scale(0.1 -0.1)">
      <defs>
       <path id="NimbusSanL-Regu-49" d="M 1242 4672 
L 640 4672 
L 640 0 
L 1242 0 
L 1242 4672 
z
" transform="scale(0.015625)"/>
       <path id="NimbusSanL-Regu-74" d="M 1626 3328 
L 1075 3328 
L 1075 4249 
L 544 4249 
L 544 3328 
L 90 3328 
L 90 2892 
L 544 2892 
L 544 402 
C 544 64 774 -128 1190 -128 
C 1318 -128 1446 -116 1626 -84 
L 1626 364 
C 1555 345 1472 339 1370 339 
C 1139 339 1075 402 1075 634 
L 1075 2892 
L 1626 2892 
L 1626 3328 
z
" transform="scale(0.015625)"/>
       <path id="NimbusSanL-Regu-65" d="M 3283 1484 
C 3283 1998 3245 2311 3149 2565 
C 2931 3123 2419 3456 1792 3456 
C 858 3456 256 2734 256 1619 
C 256 545 838 -128 1779 -128 
C 2547 -128 3078 307 3213 1018 
L 2675 1018 
C 2528 588 2227 364 1798 364 
C 1459 364 1171 514 992 787 
C 864 974 819 1161 813 1484 
L 3283 1484 
z
M 826 1920 
C 870 2552 1248 2963 1786 2963 
C 2310 2963 2714 2519 2714 1959 
C 2714 1946 2714 1933 2707 1920 
L 826 1920 
z
" transform="scale(0.015625)"/>
       <path id="NimbusSanL-Regu-72" d="M 442 3328 
L 442 0 
L 979 0 
L 979 1727 
C 979 2203 1101 2514 1357 2698 
C 1523 2819 1683 2857 2054 2863 
L 2054 3404 
C 1965 3449 1920 3456 1850 3456 
C 1504 3456 1242 3251 934 2750 
L 934 3328 
L 442 3328 
z
" transform="scale(0.015625)"/>
       <path id="NimbusSanL-Regu-61" d="M 3424 332 
C 3366 320 3341 320 3309 320 
C 3123 320 3021 415 3021 581 
L 3021 2542 
C 3021 3135 2586 3456 1760 3456 
C 1274 3456 870 3315 646 3065 
C 493 2893 429 2702 416 2370 
L 954 2370 
C 998 2778 1242 2963 1741 2963 
C 2221 2963 2490 2784 2490 2466 
L 2490 2326 
C 2490 2103 2355 2007 1933 1956 
C 1178 1861 1062 1835 858 1753 
C 467 1593 269 1294 269 861 
C 269 256 691 -128 1370 -128 
C 1792 -128 2131 19 2509 364 
C 2547 25 2714 -128 3059 -128 
C 3168 -128 3251 -116 3424 -71 
L 3424 332 
z
M 2490 1071 
C 2490 893 2438 785 2278 638 
C 2061 441 1798 339 1485 339 
C 1069 339 826 536 826 874 
C 826 1224 1062 1402 1632 1485 
C 2195 1562 2310 1587 2490 1670 
L 2490 1071 
z
" transform="scale(0.015625)"/>
       <path id="NimbusSanL-Regu-69" d="M 960 3358 
L 429 3358 
L 429 0 
L 960 0 
L 960 3358 
z
M 960 4672 
L 422 4672 
L 422 3999 
L 960 3999 
L 960 4672 
z
" transform="scale(0.015625)"/>
       <path id="NimbusSanL-Regu-6f" d="M 1741 3456 
C 800 3456 230 2784 230 1663 
C 230 543 794 -128 1747 -128 
C 2688 -128 3264 543 3264 1638 
C 3264 2791 2707 3456 1741 3456 
z
M 1747 2963 
C 2349 2963 2707 2472 2707 1644 
C 2707 861 2336 364 1747 364 
C 1152 364 787 855 787 1663 
C 787 2466 1152 2963 1747 2963 
z
" transform="scale(0.015625)"/>
       <path id="NimbusSanL-Regu-6e" d="M 448 3328 
L 448 0 
L 986 0 
L 986 1835 
C 986 2539 1344 2988 1894 2988 
C 2317 2988 2586 2732 2586 2328 
L 2586 0 
L 3117 0 
L 3117 2539 
C 3117 3097 2701 3456 2054 3456 
C 1555 3456 1235 3263 941 2796 
L 941 3328 
L 448 3328 
z
" transform="scale(0.015625)"/>
      </defs>
      <use xlink:href="#NimbusSanL-Regu-49" transform="scale(0.996264)"/>
      <use xlink:href="#NimbusSanL-Regu-74" transform="translate(27.69517 0) scale(0.996264)"/>
      <use xlink:href="#NimbusSanL-Regu-65" transform="translate(55.390339 0) scale(0.996264)"/>
      <use xlink:href="#NimbusSanL-Regu-72" transform="translate(110.782016 0) scale(0.996264)"/>
      <use xlink:href="#NimbusSanL-Regu-61" transform="translate(142.961149 0) scale(0.996264)"/>
      <use xlink:href="#NimbusSanL-Regu-74" transform="translate(198.352826 0) scale(0.996264)"/>
      <use xlink:href="#NimbusSanL-Regu-69" transform="translate(226.047996 0) scale(0.996264)"/>
      <use xlink:href="#NimbusSanL-Regu-6f" transform="translate(248.16478 0) scale(0.996264)"/>
      <use xlink:href="#NimbusSanL-Regu-6e" transform="translate(303.556457 0) scale(0.996264)"/>
     </g>
    </g>
   </g>
   <g id="matplotlib.axis_2">
    <g id="ytick_1">
     <g id="line2d_8">
      <defs>
       <path id="m889272da08" d="M 0 0 
L -3.5 0 
" style="stroke: #000000; stroke-width: 0.8"/>
      </defs>
      <g>
       <use xlink:href="#m889272da08" x="32.586009" y="201.217081" style="stroke: #000000; stroke-width: 0.8"/>
      </g>
     </g>
     <g id="text_9">
      <!-- $\mathdefault{0}$ -->
      <g transform="translate(20.604674 204.766241) scale(0.1 -0.1)">
       <use xlink:href="#CMR17-30" transform="scale(0.996264)"/>
      </g>
     </g>
    </g>
    <g id="ytick_2">
     <g id="line2d_9">
      <g>
       <use xlink:href="#m889272da08" x="32.586009" y="170.37092" style="stroke: #000000; stroke-width: 0.8"/>
      </g>
     </g>
     <g id="text_10">
      <!-- $\mathdefault{1}$ -->
      <g transform="translate(20.604674 173.92008) scale(0.1 -0.1)">
       <use xlink:href="#CMR17-31" transform="scale(0.996264)"/>
      </g>
     </g>
    </g>
    <g id="ytick_3">
     <g id="line2d_10">
      <g>
       <use xlink:href="#m889272da08" x="32.586009" y="139.52476" style="stroke: #000000; stroke-width: 0.8"/>
      </g>
     </g>
     <g id="text_11">
      <!-- $\mathdefault{2}$ -->
      <g transform="translate(20.604674 143.07392) scale(0.1 -0.1)">
       <use xlink:href="#CMR17-32" transform="scale(0.996264)"/>
      </g>
     </g>
    </g>
    <g id="ytick_4">
     <g id="line2d_11">
      <g>
       <use xlink:href="#m889272da08" x="32.586009" y="108.678599" style="stroke: #000000; stroke-width: 0.8"/>
      </g>
     </g>
     <g id="text_12">
      <!-- $\mathdefault{3}$ -->
      <g transform="translate(20.604674 112.227759) scale(0.1 -0.1)">
       <use xlink:href="#CMR17-33" transform="scale(0.996264)"/>
      </g>
     </g>
    </g>
    <g id="ytick_5">
     <g id="line2d_12">
      <g>
       <use xlink:href="#m889272da08" x="32.586009" y="77.832438" style="stroke: #000000; stroke-width: 0.8"/>
      </g>
     </g>
     <g id="text_13">
      <!-- $\mathdefault{4}$ -->
      <g transform="translate(20.604674 81.381599) scale(0.1 -0.1)">
       <defs>
        <path id="CMR17-34" d="M 2150 4147 
C 2150 4281 2144 4288 2029 4288 
L 128 1254 
L 128 1088 
L 1779 1088 
L 1779 460 
C 1779 230 1766 166 1318 166 
L 1197 166 
L 1197 0 
C 1402 12 1747 12 1965 12 
C 2182 12 2528 12 2733 0 
L 2733 166 
L 2611 166 
C 2163 166 2150 230 2150 460 
L 2150 1088 
L 2803 1088 
L 2803 1254 
L 2150 1254 
L 2150 4147 
z
M 1798 3723 
L 1798 1254 
L 256 1254 
L 1798 3723 
z
" transform="scale(0.015625)"/>
       </defs>
       <use xlink:href="#CMR17-34" transform="scale(0.996264)"/>
      </g>
     </g>
    </g>
    <g id="ytick_6">
     <g id="line2d_13">
      <g>
       <use xlink:href="#m889272da08" x="32.586009" y="46.986278" style="stroke: #000000; stroke-width: 0.8"/>
      </g>
     </g>
     <g id="text_14">
      <!-- $\mathdefault{5}$ -->
      <g transform="translate(20.604674 50.535438) scale(0.1 -0.1)">
       <use xlink:href="#CMR17-35" transform="scale(0.996264)"/>
      </g>
     </g>
    </g>
    <g id="ytick_7">
     <g id="line2d_14">
      <g>
       <use xlink:href="#m889272da08" x="32.586009" y="16.140117" style="stroke: #000000; stroke-width: 0.8"/>
      </g>
     </g>
     <g id="text_15">
      <!-- $\mathdefault{6}$ -->
      <g transform="translate(20.604674 19.689277) scale(0.1 -0.1)">
       <defs>
        <path id="CMR17-36" d="M 678 2198 
C 678 3712 1395 4076 1811 4076 
C 1946 4076 2272 4049 2400 3782 
C 2298 3782 2106 3782 2106 3558 
C 2106 3385 2246 3328 2336 3328 
C 2394 3328 2566 3353 2566 3571 
C 2566 3987 2246 4224 1805 4224 
C 1043 4224 243 3411 243 2011 
C 243 257 966 -128 1478 -128 
C 2099 -128 2688 431 2688 1295 
C 2688 2101 2170 2688 1517 2688 
C 1126 2688 838 2430 678 1979 
L 678 2198 
z
M 1478 25 
C 691 25 691 1212 691 1450 
C 691 1914 909 2585 1504 2585 
C 1613 2585 1926 2585 2138 2140 
C 2253 1889 2253 1624 2253 1302 
C 2253 954 2253 696 2118 438 
C 1978 173 1773 25 1478 25 
z
" transform="scale(0.015625)"/>
       </defs>
       <use xlink:href="#CMR17-36" transform="scale(0.996264)"/>
      </g>
     </g>
    </g>
    <g id="text_16">
     <!-- Aerodynamic Coefficients - Blade_0 -->
     <g transform="translate(14.482687 196.280864) rotate(-90) scale(0.1 -0.1)">
      <defs>
       <path id="NimbusSanL-Regu-41" d="M 3034 1408 
L 3514 0 
L 4179 0 
L 2541 4672 
L 1773 4672 
L 109 0 
L 742 0 
L 1235 1408 
L 3034 1408 
z
M 2867 1907 
L 1382 1907 
L 2150 4032 
L 2867 1907 
z
" transform="scale(0.015625)"/>
       <path id="NimbusSanL-Regu-64" d="M 3168 4672 
L 2637 4672 
L 2637 2937 
C 2413 3276 2054 3456 1606 3456 
C 736 3456 166 2759 166 1695 
C 166 568 723 -128 1626 -128 
C 2086 -128 2406 44 2694 460 
L 2694 19 
L 3168 19 
L 3168 4672 
z
M 1696 2956 
C 2272 2956 2637 2447 2637 1651 
C 2637 880 2266 371 1702 371 
C 1114 371 723 887 723 1663 
C 723 2440 1114 2956 1696 2956 
z
" transform="scale(0.015625)"/>
       <path id="NimbusSanL-Regu-79" d="M 2483 3328 
L 1555 724 
L 698 3328 
L 128 3328 
L 1261 -29 
L 1056 -558 
C 973 -794 851 -884 627 -884 
C 550 -884 461 -871 346 -845 
L 346 -1325 
C 454 -1383 563 -1408 704 -1408 
C 877 -1408 1062 -1351 1203 -1248 
C 1370 -1127 1466 -986 1568 -718 
L 3059 3328 
L 2483 3328 
z
" transform="scale(0.015625)"/>
       <path id="NimbusSanL-Regu-6d" d="M 448 3328 
L 448 0 
L 986 0 
L 986 2089 
C 986 2597 1338 2988 1773 2988 
C 2170 2988 2394 2744 2394 2315 
L 2394 0 
L 2931 0 
L 2931 2109 
C 2931 2597 3283 2988 3718 2988 
C 4109 2988 4339 2738 4339 2315 
L 4339 0 
L 4877 0 
L 4877 2520 
C 4877 3123 4531 3456 3904 3456 
C 3456 3456 3187 3321 2874 2943 
C 2675 3302 2406 3456 1971 3456 
C 1523 3456 1229 3289 941 2886 
L 941 3328 
L 448 3328 
z
" transform="scale(0.015625)"/>
       <path id="NimbusSanL-Regu-63" d="M 3014 2237 
C 2989 2561 2918 2771 2790 2956 
C 2560 3270 2157 3456 1690 3456 
C 787 3456 198 2740 198 1632 
C 198 555 774 -128 1683 -128 
C 2483 -128 2989 352 3053 1167 
L 2515 1167 
C 2426 632 2150 364 1696 364 
C 1107 364 755 842 755 1632 
C 755 2466 1101 2963 1683 2963 
C 2131 2963 2413 2701 2477 2237 
L 3014 2237 
z
" transform="scale(0.015625)"/>
       <path id="NimbusSanL-Regu-43" d="M 4237 3219 
C 4051 4236 3462 4736 2438 4736 
C 1811 4736 1306 4537 960 4154 
C 538 3696 307 3035 307 2284 
C 307 1522 544 867 986 415 
C 1344 44 1805 -128 2413 -128 
C 3552 -128 4192 485 4333 1712 
L 3718 1712 
C 3667 1394 3603 1178 3507 994 
C 3315 612 2918 396 2419 396 
C 1491 396 902 1134 902 2291 
C 902 3480 1466 4211 2368 4211 
C 2746 4211 3098 4096 3290 3918 
C 3462 3759 3558 3562 3629 3219 
L 4237 3219 
z
" transform="scale(0.015625)"/>
       <path id="NimbusSanL-Regu-66" d="M 1651 3328 
L 1094 3328 
L 1094 3860 
C 1094 4087 1222 4204 1466 4204 
C 1510 4204 1530 4204 1651 4198 
L 1651 4639 
C 1530 4665 1459 4672 1350 4672 
C 858 4672 563 4390 563 3905 
L 563 3328 
L 115 3328 
L 115 2892 
L 563 2892 
L 563 0 
L 1094 0 
L 1094 2892 
L 1651 2892 
L 1651 3328 
z
" transform="scale(0.015625)"/>
       <path id="NimbusSanL-Regu-2" d="M 1613 3328 
L 1056 3328 
L 1056 3860 
C 1056 4087 1184 4204 1427 4204 
C 1472 4204 1491 4204 1613 4198 
L 1613 4639 
C 1491 4665 1421 4672 1312 4672 
C 819 4672 525 4390 525 3905 
L 525 3328 
L 77 3328 
L 77 2892 
L 525 2892 
L 525 0 
L 1056 0 
L 1056 2892 
L 1613 2892 
L 1613 3328 
z
M 2790 3328 
L 2259 3328 
L 2259 0 
L 2790 0 
L 2790 3328 
z
M 2790 4672 
L 2259 4672 
L 2259 3999 
L 2790 3999 
L 2790 4672 
z
" transform="scale(0.015625)"/>
       <path id="NimbusSanL-Regu-73" d="M 2803 2428 
C 2797 3084 2362 3456 1587 3456 
C 806 3456 301 3052 301 2434 
C 301 1912 570 1663 1363 1472 
L 1862 1351 
C 2234 1262 2381 1129 2381 887 
C 2381 574 2067 364 1600 364 
C 1312 364 1069 447 934 587 
C 851 683 813 778 781 1014 
L 218 1014 
C 243 243 678 -128 1555 -128 
C 2400 -128 2938 288 2938 931 
C 2938 1428 2656 1702 1990 1861 
L 1478 1982 
C 1043 2084 858 2224 858 2459 
C 858 2765 1133 2963 1568 2963 
C 1997 2963 2227 2778 2240 2428 
L 2803 2428 
z
" transform="scale(0.015625)"/>
       <path id="NimbusSanL-Regu-2d" d="M 1818 1996 
L 294 1996 
L 294 1536 
L 1818 1536 
L 1818 1996 
z
" transform="scale(0.015625)"/>
       <path id="NimbusSanL-Regu-42" d="M 506 0 
L 2611 0 
C 3053 0 3379 121 3629 390 
C 3859 632 3987 961 3987 1321 
C 3987 1878 3731 2214 3136 2444 
C 3558 2643 3782 2994 3782 3476 
C 3782 3821 3654 4127 3411 4345 
C 3168 4569 2848 4672 2400 4672 
L 506 4672 
L 506 0 
z
M 1101 2636 
L 1101 4147 
L 2253 4147 
C 2586 4147 2771 4101 2931 3977 
C 3098 3847 3187 3652 3187 3391 
C 3187 3138 3098 2936 2931 2806 
C 2771 2682 2586 2636 2253 2636 
L 1101 2636 
z
M 1101 524 
L 1101 2112 
L 2554 2112 
C 2842 2112 3034 2042 3174 1890 
C 3315 1745 3392 1542 3392 1315 
C 3392 1093 3315 891 3174 746 
C 3034 594 2842 524 2554 524 
L 1101 524 
z
" transform="scale(0.015625)"/>
       <path id="NimbusSanL-Regu-6c" d="M 973 4672 
L 435 4672 
L 435 0 
L 973 0 
L 973 4672 
z
" transform="scale(0.015625)"/>
       <path id="NimbusSanL-Regu-30" d="M 1760 4544 
C 1338 4544 954 4358 717 4044 
C 422 3649 275 3043 275 2207 
C 275 683 787 -128 1760 -128 
C 2720 -128 3245 683 3245 2169 
C 3245 3049 3104 3636 2803 4044 
C 2566 4364 2189 4544 1760 4544 
z
M 1760 4044 
C 2368 4044 2669 3432 2669 2220 
C 2669 938 2374 339 1747 339 
C 1152 339 851 964 851 2201 
C 851 3438 1152 4044 1760 4044 
z
" transform="scale(0.015625)"/>
      </defs>
      <use xlink:href="#NimbusSanL-Regu-41" transform="scale(0.996264)"/>
      <use xlink:href="#NimbusSanL-Regu-65" transform="translate(66.450031 0) scale(0.996264)"/>
      <use xlink:href="#NimbusSanL-Regu-72" transform="translate(121.841708 0) scale(0.996264)"/>
      <use xlink:href="#NimbusSanL-Regu-6f" transform="translate(155.016938 0) scale(0.996264)"/>
      <use xlink:href="#NimbusSanL-Regu-64" transform="translate(210.408615 0) scale(0.996264)"/>
      <use xlink:href="#NimbusSanL-Regu-79" transform="translate(265.800292 0) scale(0.996264)"/>
      <use xlink:href="#NimbusSanL-Regu-6e" transform="translate(315.613492 0) scale(0.996264)"/>
      <use xlink:href="#NimbusSanL-Regu-61" transform="translate(371.005169 0) scale(0.996264)"/>
      <use xlink:href="#NimbusSanL-Regu-6d" transform="translate(426.396846 0) scale(0.996264)"/>
      <use xlink:href="#NimbusSanL-Regu-69" transform="translate(509.385276 0) scale(0.996264)"/>
      <use xlink:href="#NimbusSanL-Regu-63" transform="translate(531.502061 0) scale(0.996264)"/>
      <use xlink:href="#NimbusSanL-Regu-43" transform="translate(609.010431 0) scale(0.996264)"/>
      <use xlink:href="#NimbusSanL-Regu-6f" transform="translate(680.940416 0) scale(0.996264)"/>
      <use xlink:href="#NimbusSanL-Regu-65" transform="translate(736.332093 0) scale(0.996264)"/>
      <use xlink:href="#NimbusSanL-Regu-66" transform="translate(791.72377 0) scale(0.996264)"/>
      <use xlink:href="#NimbusSanL-Regu-2" transform="translate(819.418939 0) scale(0.996264)"/>
      <use xlink:href="#NimbusSanL-Regu-63" transform="translate(869.23214 0) scale(0.996264)"/>
      <use xlink:href="#NimbusSanL-Regu-69" transform="translate(919.04534 0) scale(0.996264)"/>
      <use xlink:href="#NimbusSanL-Regu-65" transform="translate(941.162125 0) scale(0.996264)"/>
      <use xlink:href="#NimbusSanL-Regu-6e" transform="translate(996.553802 0) scale(0.996264)"/>
      <use xlink:href="#NimbusSanL-Regu-74" transform="translate(1051.945479 0) scale(0.996264)"/>
      <use xlink:href="#NimbusSanL-Regu-73" transform="translate(1079.640648 0) scale(0.996264)"/>
      <use xlink:href="#NimbusSanL-Regu-2d" transform="translate(1157.149018 0) scale(0.996264)"/>
      <use xlink:href="#NimbusSanL-Regu-42" transform="translate(1218.019418 0) scale(0.996264)"/>
      <use xlink:href="#NimbusSanL-Regu-6c" transform="translate(1284.469449 0) scale(0.996264)"/>
      <use xlink:href="#NimbusSanL-Regu-61" transform="translate(1306.586233 0) scale(0.996264)"/>
      <use xlink:href="#NimbusSanL-Regu-64" transform="translate(1361.97791 0) scale(0.996264)"/>
      <use xlink:href="#NimbusSanL-Regu-65" transform="translate(1417.369587 0) scale(0.996264)"/>
      <use xlink:href="#NimbusSanL-Regu-30" transform="translate(1508.626829 0) scale(0.996264)"/>
      <path d="M 1478.738605 0 
L 1508.626829 0 
L 1508.626829 0.3985 
L 1478.738605 0.3985 
L 1478.738605 0 
z
"/>
     </g>
    </g>
   </g>
   <g id="line2d_15">
    <path d="M 47.804191 158.349369 
L 48.230023 35.060262 
L 48.549397 17.28 
L 48.655856 18.065543 
L 49.294604 38.73266 
L 49.401062 38.515173 
L 49.50752 38.85607 
L 49.720436 40.423714 
L 49.933352 40.825677 
L 50.252727 42.2901 
L 50.572101 45.271967 
L 50.785017 49.227002 
L 50.997933 57.200477 
L 51.317307 75.482695 
L 51.530224 77.683028 
L 51.74314 81.712002 
L 52.062514 93.608217 
L 52.381888 119.038421 
L 52.594804 133.204273 
L 52.914179 138.166795 
L 53.233553 149.151485 
L 53.659385 177.932878 
L 53.872301 192.587986 
L 54.191675 194.394979 
L 54.51105 198.063143 
L 54.830424 205.14771 
L 55.149798 212.403843 
L 55.256256 213.211819 
L 55.362714 212.722469 
L 55.57563 210.936738 
L 56.107921 210.795177 
L 56.533753 211.410212 
L 56.640211 211.047991 
L 56.959585 208.357742 
L 57.27896 207.881106 
L 57.598334 206.9671 
L 57.917708 205.247746 
L 58.449998 201.524441 
L 58.769373 200.864861 
L 59.088747 199.416136 
L 59.301663 197.359586 
L 59.514579 193.398564 
L 60.04687 179.408609 
L 60.366244 177.015777 
L 60.685618 172.575387 
L 61.11145 163.216038 
L 61.537283 149.487355 
L 61.750199 148.376964 
L 61.963115 146.328692 
L 62.282489 140.385747 
L 62.81478 127.297708 
L 63.559986 126.980485 
L 63.772902 127.373993 
L 63.985818 128.503888 
L 64.305193 131.898505 
L 64.624567 135.252497 
L 64.837483 135.609881 
L 65.050399 136.301137 
L 65.369773 138.481414 
L 65.689148 143.31981 
L 66.008522 149.65591 
L 66.327896 150.823625 
L 66.64727 153.427316 
L 66.966644 158.364142 
L 67.605393 169.981784 
L 67.924767 171.357763 
L 68.244141 174.180516 
L 68.563516 179.115969 
L 69.095806 189.079442 
L 69.308722 190.165225 
L 69.628096 193.426218 
L 69.947471 200.068026 
L 70.373303 210.363248 
L 70.692677 211.394742 
L 71.012051 213.389787 
L 71.6508 218.88 
L 71.863716 218.517155 
L 72.18309 218.232621 
L 72.396006 217.803319 
L 72.608922 216.85265 
L 72.821839 214.850463 
L 73.354129 208.991482 
L 73.673503 207.689075 
L 73.992877 204.731541 
L 74.312252 199.175078 
L 74.738084 190.549897 
L 75.057458 189.420557 
L 75.376832 186.933227 
L 75.696207 182.515376 
L 76.228497 173.690679 
L 76.547871 173.006077 
L 76.867245 171.588888 
L 77.612452 167.577187 
L 78.464117 167.396308 
L 78.677033 167.692642 
L 78.996407 168.97707 
L 79.528697 171.245761 
L 79.95453 171.42076 
L 80.380362 171.917277 
L 80.806194 172.804139 
L 81.01911 173.065017 
L 81.444943 173.24671 
L 81.764317 173.588994 
L 82.509523 174.704624 
L 83.25473 175.005239 
L 83.78702 175.333337 
L 83.999936 175.245347 
L 84.532227 175.139035 
L 84.958059 174.7985 
L 85.703266 173.880996 
L 86.342014 173.658537 
L 86.767846 173.257118 
L 86.980763 173.080855 
L 87.619511 172.903748 
L 88.045343 172.545446 
L 88.364718 171.95872 
L 89.003466 170.800014 
L 89.32284 170.549886 
L 89.642214 170.541753 
L 89.961589 170.587906 
L 90.600337 170.702062 
L 91.664918 171.0622 
L 92.516582 171.333402 
L 92.835957 171.378124 
L 93.687621 171.498813 
L 94.006995 171.737097 
L 94.539286 172.566572 
L 95.284492 174.188539 
L 95.497409 174.528151 
L 96.029699 174.771088 
L 96.349073 175.14456 
L 96.668447 175.871663 
L 96.881364 176.272208 
L 97.307196 176.471107 
L 97.62657 176.810181 
L 97.945944 177.428648 
L 98.691151 179.219388 
L 99.010525 179.506418 
L 99.329899 179.501016 
L 99.649273 179.230827 
L 100.075106 178.439621 
L 100.500938 177.195203 
L 100.713854 176.710566 
L 101.139687 176.463546 
L 101.459061 176.028511 
L 101.778435 175.214324 
L 102.097809 174.325155 
L 102.523641 174.084587 
L 102.843016 173.692851 
L 103.268848 172.747368 
L 103.588222 172.082004 
L 104.120513 171.863116 
L 104.972177 171.370971 
L 105.185093 171.583765 
L 105.610926 172.097403 
L 106.036758 172.321404 
L 106.356132 172.739111 
L 106.675506 173.577912 
L 106.888423 174.040497 
L 107.314255 174.268062 
L 107.633629 174.662699 
L 107.953003 175.406895 
L 108.378836 176.650958 
L 108.804668 176.86787 
L 109.2305 177.352979 
L 109.762791 177.990957 
L 110.933829 178.03329 
L 111.359662 177.706213 
L 111.891952 177.486057 
L 112.211326 177.119038 
L 112.530701 176.332328 
L 112.956533 175.146604 
L 113.382365 174.910635 
L 113.701739 174.486427 
L 114.021114 173.718234 
L 114.340488 172.932236 
L 114.76632 172.732441 
L 115.192152 172.23865 
L 115.617985 171.341295 
L 115.830901 171.042462 
L 116.363191 170.854587 
L 117.427772 170.280129 
L 118.279437 170.310747 
L 118.492353 170.460338 
L 118.705269 170.614808 
L 119.344017 170.790195 
L 119.76985 171.186357 
L 120.30214 171.882127 
L 120.727972 172.063382 
L 121.153805 172.526756 
L 121.579637 173.191223 
L 122.111927 173.371604 
L 122.53776 173.757879 
L 123.176508 174.502227 
L 123.708798 174.687452 
L 124.241089 175.119948 
L 124.666921 175.436854 
L 126.583166 175.39644 
L 127.221915 175.201975 
L 127.860663 174.846222 
L 128.392954 174.664516 
L 128.818786 174.289771 
L 129.244618 173.854902 
L 129.883367 173.708672 
L 131.054406 173.27615 
L 133.077109 173.105717 
L 138.293555 173.644132 
L 139.145219 173.546079 
L 139.464594 173.491889 
L 140.422716 173.336198 
L 140.955007 173.216026 
L 141.806671 173.049261 
L 142.44542 172.875134 
L 143.403542 172.697462 
L 143.935833 172.629442 
L 151.387898 172.714735 
L 151.707272 172.778329 
L 152.558937 172.922073 
L 153.517059 173.186843 
L 154.262266 173.405749 
L 154.58164 173.467884 
L 155.646221 173.633004 
L 156.284969 173.668152 
L 157.136634 173.585854 
L 157.88184 173.105592 
L 159.159337 172.274676 
L 159.798086 172.135304 
L 161.288499 172.296357 
L 161.607873 172.35486 
L 162.459538 172.492328 
L 163.41766 172.779487 
L 164.056409 172.974965 
L 165.227448 173.490914 
L 165.866196 173.461888 
L 166.292028 173.417847 
L 167.143693 173.280142 
L 167.675983 173.167227 
L 168.527648 173.006007 
L 169.166396 172.86305 
L 171.508474 172.813515 
L 172.253681 172.907752 
L 172.998887 173.089683 
L 173.424719 173.239856 
L 174.169926 173.384218 
L 175.340965 173.748621 
L 177.470126 174.098068 
L 178.854081 174.011975 
L 179.49283 173.898272 
L 180.238036 173.71923 
L 180.983243 173.430017 
L 181.728449 173.253736 
L 182.367198 173.094803 
L 185.02865 173.010094 
L 185.773856 173.160935 
L 186.519063 173.334924 
L 186.944895 173.448435 
L 187.79656 173.578687 
L 188.648224 173.74743 
L 190.777386 173.793919 
L 192.587173 173.416454 
L 192.906547 173.345137 
L 193.758212 173.204202 
L 194.39696 173.079562 
L 196.739038 173.065369 
L 198.548825 173.477404 
L 199.187574 173.737174 
L 200.039238 173.880899 
L 200.784445 174.004754 
L 203.126522 174.044259 
L 203.978187 174.000175 
L 205.787974 173.757676 
L 208.023594 173.303664 
L 208.875258 173.155472 
L 209.620465 172.993442 
L 210.47213 172.824294 
L 211.110878 172.714243 
L 215.262743 172.640071 
L 217.178988 172.774404 
L 220.692105 173.159101 
L 221.543769 173.243784 
L 225.37626 173.353715 
L 228.037712 173.241721 
L 229.528125 173.171099 
L 231.550828 173.17508 
L 233.999364 173.313606 
L 235.276861 173.38997 
L 237.406022 173.474931 
L 247.945372 173.437313 
L 255.716811 173.494272 
L 258.058889 173.396797 
L 259.975134 173.24657 
L 264.765748 172.917518 
L 281.373207 173.135659 
L 283.076537 173.203038 
L 339.925149 173.30223 
L 352.167827 173.194845 
L 352.167827 173.194845 
" clip-path="url(#pe384791fdd)" style="fill: none; stroke: #1f77b4; stroke-width: 1.5; stroke-linecap: square"/>
   </g>
   <g id="line2d_16">
    <path d="M 47.804191 186.076471 
L 48.123565 153.864084 
L 48.442939 151.534307 
L 48.549397 151.643222 
L 48.762314 153.162791 
L 49.081688 155.331631 
L 49.188146 155.320006 
L 49.50752 154.258651 
L 49.720436 153.786206 
L 50.146269 153.575506 
L 50.465643 153.126781 
L 50.785017 152.234704 
L 51.104391 151.156336 
L 51.317307 151.29282 
L 51.74314 151.499073 
L 51.956056 151.828884 
L 52.168972 152.59139 
L 52.381888 154.360749 
L 52.594804 155.958245 
L 52.914179 156.607682 
L 53.127095 157.502829 
L 53.446469 160.283487 
L 53.978759 166.397405 
L 54.298134 167.059612 
L 54.51105 167.937993 
L 54.830424 170.609516 
L 55.149798 173.628031 
L 55.256256 173.960698 
L 55.362714 173.740507 
L 55.469172 173.105552 
L 55.788547 173.371949 
L 56.001463 173.826224 
L 56.214379 174.993075 
L 56.533753 178.793486 
L 56.959585 183.901189 
L 57.172502 184.365996 
L 57.385418 185.233143 
L 57.704792 187.721929 
L 58.34354 194.47104 
L 58.662915 194.883325 
L 58.982289 195.815887 
L 59.408121 197.962808 
L 59.727495 200.579337 
L 59.940411 201.803833 
L 60.259786 202.135743 
L 60.57916 202.86598 
L 61.004992 203.961636 
L 61.11145 203.692991 
L 61.324366 200.413564 
L 61.537283 196.093188 
L 61.856657 194.629924 
L 62.069573 192.644845 
L 62.388947 187.074574 
L 62.81478 177.866004 
L 63.772902 177.196668 
L 63.985818 176.795491 
L 64.198734 175.43461 
L 64.624567 172.485271 
L 64.943941 172.172575 
L 65.369773 171.263455 
L 65.795606 170.342329 
L 66.11498 170.442386 
L 66.540812 170.581867 
L 66.753728 170.836572 
L 66.966644 171.374553 
L 67.179561 172.389129 
L 67.498935 174.240689 
L 67.818309 174.577348 
L 68.137683 175.295187 
L 68.457057 176.717413 
L 69.095806 180.313511 
L 69.41518 180.71459 
L 69.734554 181.489059 
L 70.053929 182.955972 
L 70.373303 185.019227 
L 70.692677 185.416999 
L 71.012051 186.401129 
L 71.331426 188.459319 
L 71.6508 192.1142 
L 71.863716 193.744569 
L 72.18309 194.207831 
L 72.502464 195.215157 
L 73.354129 198.410571 
L 73.779961 198.63738 
L 74.205794 198.867731 
L 74.41871 198.625012 
L 74.844542 197.373703 
L 75.163916 196.967265 
L 75.48329 195.997828 
L 75.802665 193.819554 
L 76.228497 189.285518 
L 76.547871 188.709575 
L 76.867245 187.476603 
L 77.293078 184.681643 
L 77.612452 183.070037 
L 78.038284 182.747978 
L 78.783491 181.927962 
L 78.996407 182.28669 
L 79.422239 183.772223 
L 79.635155 184.262969 
L 80.060988 184.51704 
L 80.48682 185.13214 
L 80.912652 185.86356 
L 81.764317 186.05062 
L 82.296607 186.20239 
L 82.509523 186.148761 
L 84.958059 186.349928 
L 85.277433 186.686383 
L 85.596808 187.125242 
L 86.129098 187.313022 
L 86.767846 187.862692 
L 86.980763 187.972163 
L 88.364718 187.998729 
L 88.79055 187.372065 
L 89.429298 186.366881 
L 89.855131 186.112636 
L 91.877834 186.052435 
L 92.410124 185.991201 
L 92.942415 185.848214 
L 93.687621 185.697298 
L 94.006995 185.443625 
L 94.645744 184.596396 
L 95.39095 183.57368 
L 96.668447 183.570785 
L 96.881364 183.717953 
L 97.520112 183.90129 
L 97.839486 184.22077 
L 98.052402 184.671131 
L 98.691151 187.168068 
L 99.436357 189.980029 
L 99.86219 190.802651 
L 100.075106 190.914518 
L 100.288022 190.818914 
L 100.500938 190.524764 
L 100.713854 190.233545 
L 101.246145 189.991011 
L 101.565519 189.59504 
L 101.884893 188.775069 
L 102.097809 188.317808 
L 102.523641 188.088254 
L 102.843016 187.696813 
L 103.16239 186.999817 
L 103.588222 185.886324 
L 104.014055 185.68373 
L 104.439887 185.208021 
L 105.39801 183.730276 
L 107.740087 183.70475 
L 108.165919 183.961341 
L 108.378836 184.10289 
L 109.017584 184.248656 
L 109.443416 184.545327 
L 109.762791 184.805817 
L 110.507997 184.986048 
L 111.040287 185.35095 
L 111.253204 185.454963 
L 112.211326 185.635389 
L 112.743617 185.729105 
L 115.29861 185.165633 
L 116.150275 184.69885 
L 116.682565 184.467776 
L 117.427772 184.026692 
L 118.06652 183.82915 
L 118.918185 183.443136 
L 121.047347 183.30944 
L 122.857134 183.822239 
L 123.07005 183.911636 
L 123.921715 184.066816 
L 125.092753 184.439878 
L 127.115457 184.483741 
L 128.818786 184.128588 
L 129.351076 183.92044 
L 130.202741 183.767288 
L 130.841489 183.65325 
L 132.970651 183.670756 
L 134.780438 184.077788 
L 134.993354 184.158877 
L 135.845019 184.299594 
L 136.803142 184.545608 
L 137.548348 184.732934 
L 138.080639 184.83237 
L 140.74209 184.869674 
L 141.913129 184.738241 
L 142.44542 184.63827 
L 143.403542 184.469716 
L 143.935833 184.371237 
L 150.962066 184.228197 
L 152.133104 184.171555 
L 153.942892 184.288421 
L 158.414131 184.915003 
L 159.691628 184.433689 
L 160.330376 184.313018 
L 163.41766 184.254876 
L 164.269325 184.415608 
L 165.65328 184.875105 
L 166.611403 184.913869 
L 168.42119 184.814516 
L 172.466597 184.17186 
L 174.276384 184.107111 
L 175.979713 184.338181 
L 176.299087 184.386526 
L 177.25721 184.519697 
L 178.002417 184.654052 
L 181.089701 184.790457 
L 181.941365 184.641342 
L 182.26074 184.583996 
L 183.112404 184.454467 
L 184.389901 184.129554 
L 186.625521 183.901178 
L 192.906547 184.548434 
L 195.461541 184.46115 
L 196.739038 184.374017 
L 200.890903 184.107628 
L 204.084645 184.190938 
L 209.939839 184.422689 
L 213.346498 184.293881 
L 215.475659 184.178919 
L 220.692105 184.179534 
L 222.821266 184.29831 
L 231.44437 184.399613 
L 237.831855 184.256376 
L 242.51601 184.209234 
L 247.838914 184.301886 
L 250.28745 184.162653 
L 251.671405 184.106301 
L 253.374734 184.147756 
L 254.439314 184.1976 
L 258.271805 184.455078 
L 261.465547 184.380053 
L 268.278864 184.088047 
L 272.004897 184.22063 
L 274.772807 184.242922 
L 283.715285 184.216828 
L 289.464021 184.32923 
L 297.874209 184.347806 
L 300.748577 184.391784 
L 315.759166 184.360846 
L 323.104773 184.328974 
L 330.769754 184.335591 
L 352.167827 184.226975 
L 352.167827 184.226975 
" clip-path="url(#pe384791fdd)" style="fill: none; stroke: #ff7f0e; stroke-width: 1.5; stroke-linecap: square"/>
   </g>
   <g id="patch_3">
    <path d="M 32.586009 228.96 
L 32.586009 7.2 
" style="fill: none; stroke: #000000; stroke-width: 0.8; stroke-linejoin: miter; stroke-linecap: square"/>
   </g>
   <g id="patch_4">
    <path d="M 367.386009 228.96 
L 367.386009 7.2 
" style="fill: none; stroke: #000000; stroke-width: 0.8; stroke-linejoin: miter; stroke-linecap: square"/>
   </g>
   <g id="patch_5">
    <path d="M 32.586009 228.96 
L 367.386009 228.96 
" style="fill: none; stroke: #000000; stroke-width: 0.8; stroke-linejoin: miter; stroke-linecap: square"/>
   </g>
   <g id="patch_6">
    <path d="M 32.586009 7.2 
L 367.386009 7.2 
" style="fill: none; stroke: #000000; stroke-width: 0.8; stroke-linejoin: miter; stroke-linecap: square"/>
   </g>
   <g id="legend_1">
    <g id="patch_7">
     <path d="M 314.000015 43.640613 
L 360.386009 43.640613 
Q 362.386009 43.640613 362.386009 41.640613 
L 362.386009 14.2 
Q 362.386009 12.2 360.386009 12.2 
L 314.000015 12.2 
Q 312.000015 12.2 312.000015 14.2 
L 312.000015 41.640613 
Q 312.000015 43.640613 314.000015 43.640613 
z
" style="fill: #ffffff; opacity: 0.8; stroke: #cccccc; stroke-linejoin: miter"/>
    </g>
    <g id="line2d_17">
     <path d="M 316.000015 19.79832 
L 326.000015 19.79832 
L 336.000015 19.79832 
" style="fill: none; stroke: #1f77b4; stroke-width: 1.5; stroke-linecap: square"/>
    </g>
    <g id="text_17">
     <!-- CD -->
     <g transform="translate(344.000015 23.29832) scale(0.1 -0.1)">
      <defs>
       <path id="NimbusSanL-Regu-44" d="M 570 0 
L 2368 0 
C 3546 0 4269 883 4269 2339 
C 4269 3788 3552 4672 2368 4672 
L 570 4672 
L 570 0 
z
M 1165 524 
L 1165 4147 
L 2266 4147 
C 3187 4147 3674 3525 3674 2332 
C 3674 1153 3187 524 2266 524 
L 1165 524 
z
" transform="scale(0.015625)"/>
      </defs>
      <use xlink:href="#NimbusSanL-Regu-43" transform="scale(0.996264)"/>
      <use xlink:href="#NimbusSanL-Regu-44" transform="translate(71.929985 0) scale(0.996264)"/>
     </g>
    </g>
    <g id="line2d_18">
     <path d="M 316.000015 34.018627 
L 326.000015 34.018627 
L 336.000015 34.018627 
" style="fill: none; stroke: #ff7f0e; stroke-width: 1.5; stroke-linecap: square"/>
    </g>
    <g id="text_18">
     <!-- CL -->
     <g transform="translate(344.000015 37.518627) scale(0.1 -0.1)">
      <defs>
       <path id="NimbusSanL-Regu-4c" d="M 1107 4672 
L 512 4672 
L 512 0 
L 3411 0 
L 3411 524 
L 1107 524 
L 1107 4672 
z
" transform="scale(0.015625)"/>
      </defs>
      <use xlink:href="#NimbusSanL-Regu-43" transform="scale(0.996264)"/>
      <use xlink:href="#NimbusSanL-Regu-4c" transform="translate(71.929985 0) scale(0.996264)"/>
     </g>
    </g>
   </g>
  </g>
 </g>
 <defs>
  <clipPath id="pe384791fdd">
   <rect x="32.586009" y="7.2" width="334.8" height="221.76"/>
  </clipPath>
 </defs>
</svg>
