<?xml version="1.0" encoding="utf-8" standalone="no"?>
<!DOCTYPE svg PUBLIC "-//W3C//DTD SVG 1.1//EN"
  "http://www.w3.org/Graphics/SVG/1.1/DTD/svg11.dtd">
<svg xmlns:xlink="http://www.w3.org/1999/xlink" width="389.322422pt" height="265.600613pt" viewBox="0 0 389.322422 265.600613" xmlns="http://www.w3.org/2000/svg" version="1.1">
 <metadata>
  <rdf:RDF xmlns:dc="http://purl.org/dc/elements/1.1/" xmlns:cc="http://creativecommons.org/ns#" xmlns:rdf="http://www.w3.org/1999/02/22-rdf-syntax-ns#">
   <cc:Work>
    <dc:type rdf:resource="http://purl.org/dc/dcmitype/StillImage"/>
    <dc:date>2025-08-02T14:17:40.285121</dc:date>
    <dc:format>image/svg+xml</dc:format>
    <dc:creator>
     <cc:Agent>
      <dc:title>Matplotlib v3.10.3, https://matplotlib.org/</dc:title>
     </cc:Agent>
    </dc:creator>
   </cc:Work>
  </rdf:RDF>
 </metadata>
 <defs>
  <style type="text/css">*{stroke-linejoin: round; stroke-linecap: butt}</style>
 </defs>
 <g id="figure_1">
  <g id="patch_1">
   <path d="M 0 265.600613 
L 389.322422 265.600613 
L 389.322422 0 
L 0 0 
z
" style="fill: #ffffff"/>
  </g>
  <g id="axes_1">
   <g id="patch_2">
    <path d="M 37.567344 228.96 
L 372.367344 228.96 
L 372.367344 7.2 
L 37.567344 7.2 
z
" style="fill: #ffffff"/>
   </g>
   <g id="matplotlib.axis_1">
    <g id="xtick_1">
     <g id="line2d_1">
      <defs>
       <path id="m89e3fe4c78" d="M 0 0 
L 0 3.5 
" style="stroke: #000000; stroke-width: 0.8"/>
      </defs>
      <g>
       <use xlink:href="#m89e3fe4c78" x="52.785526" y="228.96" style="stroke: #000000; stroke-width: 0.8"/>
      </g>
     </g>
     <g id="text_1">
      <!-- $\mathdefault{0}$ -->
      <g transform="translate(50.294859 243.05832) scale(0.1 -0.1)">
       <defs>
        <path id="CMR17-30" d="M 2688 2038 
C 2688 2430 2682 3099 2413 3613 
C 2176 4063 1798 4224 1466 4224 
C 1158 4224 768 4082 525 3620 
C 269 3137 243 2539 243 2038 
C 243 1671 250 1112 448 623 
C 723 -39 1216 -128 1466 -128 
C 1760 -128 2208 -7 2470 604 
C 2662 1048 2688 1568 2688 2038 
z
M 1466 -26 
C 1056 -26 813 328 723 816 
C 653 1196 653 1749 653 2109 
C 653 2604 653 3015 736 3407 
C 858 3954 1216 4121 1466 4121 
C 1728 4121 2067 3947 2189 3420 
C 2272 3054 2278 2623 2278 2109 
C 2278 1691 2278 1176 2202 797 
C 2067 96 1690 -26 1466 -26 
z
" transform="scale(0.015625)"/>
       </defs>
       <use xlink:href="#CMR17-30" transform="scale(0.996264)"/>
      </g>
     </g>
    </g>
    <g id="xtick_2">
     <g id="line2d_2">
      <g>
       <use xlink:href="#m89e3fe4c78" x="106.014564" y="228.96" style="stroke: #000000; stroke-width: 0.8"/>
      </g>
     </g>
     <g id="text_2">
      <!-- $\mathdefault{500}$ -->
      <g transform="translate(98.542561 243.05832) scale(0.1 -0.1)">
       <defs>
        <path id="CMR17-35" d="M 730 3750 
C 794 3724 1056 3641 1325 3641 
C 1920 3641 2246 3961 2432 4140 
C 2432 4191 2432 4224 2394 4224 
C 2387 4224 2374 4224 2323 4198 
C 2099 4102 1837 4032 1517 4032 
C 1325 4032 1037 4055 723 4191 
C 653 4224 640 4224 634 4224 
C 602 4224 595 4217 595 4090 
L 595 2231 
C 595 2113 595 2080 659 2080 
C 691 2080 704 2093 736 2139 
C 941 2435 1222 2560 1542 2560 
C 1766 2560 2246 2415 2246 1293 
C 2246 1087 2246 716 2054 422 
C 1894 159 1645 25 1370 25 
C 947 25 518 319 403 812 
C 429 806 480 793 506 793 
C 589 793 749 838 749 1036 
C 749 1209 627 1280 506 1280 
C 358 1280 262 1190 262 1011 
C 262 454 704 -128 1382 -128 
C 2042 -128 2669 441 2669 1267 
C 2669 2054 2170 2662 1549 2662 
C 1222 2662 947 2540 730 2304 
L 730 3750 
z
" transform="scale(0.015625)"/>
       </defs>
       <use xlink:href="#CMR17-35" transform="scale(0.996264)"/>
       <use xlink:href="#CMR17-30" transform="translate(45.690477 0) scale(0.996264)"/>
       <use xlink:href="#CMR17-30" transform="translate(91.380954 0) scale(0.996264)"/>
      </g>
     </g>
    </g>
    <g id="xtick_3">
     <g id="line2d_3">
      <g>
       <use xlink:href="#m89e3fe4c78" x="159.243601" y="228.96" style="stroke: #000000; stroke-width: 0.8"/>
      </g>
     </g>
     <g id="text_3">
      <!-- $\mathdefault{1000}$ -->
      <g transform="translate(149.280931 243.05832) scale(0.1 -0.1)">
       <defs>
        <path id="CMR17-31" d="M 1702 4083 
C 1702 4217 1696 4224 1606 4224 
C 1357 3927 979 3833 621 3820 
C 602 3820 570 3820 563 3808 
C 557 3795 557 3782 557 3648 
C 755 3648 1088 3686 1344 3839 
L 1344 467 
C 1344 243 1331 166 781 166 
L 589 166 
L 589 0 
C 896 6 1216 12 1523 12 
C 1830 12 2150 6 2458 0 
L 2458 166 
L 2266 166 
C 1715 166 1702 236 1702 467 
L 1702 4083 
z
" transform="scale(0.015625)"/>
       </defs>
       <use xlink:href="#CMR17-31" transform="scale(0.996264)"/>
       <use xlink:href="#CMR17-30" transform="translate(45.690477 0) scale(0.996264)"/>
       <use xlink:href="#CMR17-30" transform="translate(91.380954 0) scale(0.996264)"/>
       <use xlink:href="#CMR17-30" transform="translate(137.071431 0) scale(0.996264)"/>
      </g>
     </g>
    </g>
    <g id="xtick_4">
     <g id="line2d_4">
      <g>
       <use xlink:href="#m89e3fe4c78" x="212.472639" y="228.96" style="stroke: #000000; stroke-width: 0.8"/>
      </g>
     </g>
     <g id="text_4">
      <!-- $\mathdefault{1500}$ -->
      <g transform="translate(202.509968 243.05832) scale(0.1 -0.1)">
       <use xlink:href="#CMR17-31" transform="scale(0.996264)"/>
       <use xlink:href="#CMR17-35" transform="translate(45.690477 0) scale(0.996264)"/>
       <use xlink:href="#CMR17-30" transform="translate(91.380954 0) scale(0.996264)"/>
       <use xlink:href="#CMR17-30" transform="translate(137.071431 0) scale(0.996264)"/>
      </g>
     </g>
    </g>
    <g id="xtick_5">
     <g id="line2d_5">
      <g>
       <use xlink:href="#m89e3fe4c78" x="265.701676" y="228.96" style="stroke: #000000; stroke-width: 0.8"/>
      </g>
     </g>
     <g id="text_5">
      <!-- $\mathdefault{2000}$ -->
      <g transform="translate(255.739006 243.05832) scale(0.1 -0.1)">
       <defs>
        <path id="CMR17-32" d="M 2669 990 
L 2554 990 
C 2490 537 2438 460 2413 422 
C 2381 371 1920 371 1830 371 
L 602 371 
C 832 620 1280 1073 1824 1596 
C 2214 1966 2669 2400 2669 3033 
C 2669 3788 2067 4224 1395 4224 
C 691 4224 262 3603 262 3027 
C 262 2777 448 2745 525 2745 
C 589 2745 781 2783 781 3007 
C 781 3206 614 3264 525 3264 
C 486 3264 448 3257 422 3244 
C 544 3788 915 4057 1306 4057 
C 1862 4057 2227 3616 2227 3033 
C 2227 2477 1901 1998 1536 1583 
L 262 147 
L 262 0 
L 2515 0 
L 2669 990 
z
" transform="scale(0.015625)"/>
       </defs>
       <use xlink:href="#CMR17-32" transform="scale(0.996264)"/>
       <use xlink:href="#CMR17-30" transform="translate(45.690477 0) scale(0.996264)"/>
       <use xlink:href="#CMR17-30" transform="translate(91.380954 0) scale(0.996264)"/>
       <use xlink:href="#CMR17-30" transform="translate(137.071431 0) scale(0.996264)"/>
      </g>
     </g>
    </g>
    <g id="xtick_6">
     <g id="line2d_6">
      <g>
       <use xlink:href="#m89e3fe4c78" x="318.930714" y="228.96" style="stroke: #000000; stroke-width: 0.8"/>
      </g>
     </g>
     <g id="text_6">
      <!-- $\mathdefault{2500}$ -->
      <g transform="translate(308.968043 243.05832) scale(0.1 -0.1)">
       <use xlink:href="#CMR17-32" transform="scale(0.996264)"/>
       <use xlink:href="#CMR17-35" transform="translate(45.690477 0) scale(0.996264)"/>
       <use xlink:href="#CMR17-30" transform="translate(91.380954 0) scale(0.996264)"/>
       <use xlink:href="#CMR17-30" transform="translate(137.071431 0) scale(0.996264)"/>
      </g>
     </g>
    </g>
    <g id="xtick_7">
     <g id="line2d_7">
      <g>
       <use xlink:href="#m89e3fe4c78" x="372.159751" y="228.96" style="stroke: #000000; stroke-width: 0.8"/>
      </g>
     </g>
     <g id="text_7">
      <!-- $\mathdefault{3000}$ -->
      <g transform="translate(362.197081 243.05832) scale(0.1 -0.1)">
       <defs>
        <path id="CMR17-33" d="M 1414 2176 
C 1984 2176 2234 1673 2234 1094 
C 2234 322 1824 25 1453 25 
C 1114 25 563 193 390 691 
C 422 678 454 678 486 678 
C 640 678 755 780 755 947 
C 755 1132 614 1216 486 1216 
C 378 1216 211 1164 211 927 
C 211 335 787 -128 1466 -128 
C 2176 -128 2720 432 2720 1087 
C 2720 1718 2208 2176 1600 2246 
C 2086 2347 2554 2776 2554 3353 
C 2554 3856 2048 4224 1472 4224 
C 890 4224 378 3862 378 3347 
C 378 3123 544 3084 627 3084 
C 762 3084 877 3167 877 3334 
C 877 3500 762 3584 627 3584 
C 602 3584 570 3584 544 3571 
C 730 3999 1235 4076 1459 4076 
C 1683 4076 2106 3966 2106 3347 
C 2106 3167 2080 2851 1862 2574 
C 1670 2329 1453 2316 1242 2297 
C 1210 2297 1062 2284 1037 2284 
C 992 2278 966 2272 966 2227 
C 966 2182 973 2176 1101 2176 
L 1414 2176 
z
" transform="scale(0.015625)"/>
       </defs>
       <use xlink:href="#CMR17-33" transform="scale(0.996264)"/>
       <use xlink:href="#CMR17-30" transform="translate(45.690477 0) scale(0.996264)"/>
       <use xlink:href="#CMR17-30" transform="translate(91.380954 0) scale(0.996264)"/>
       <use xlink:href="#CMR17-30" transform="translate(137.071431 0) scale(0.996264)"/>
      </g>
     </g>
    </g>
    <g id="text_8">
     <!-- Iteration -->
     <g transform="translate(187.019968 256.278627) scale(0.1 -0.1)">
      <defs>
       <path id="NimbusSanL-Regu-49" d="M 1242 4672 
L 640 4672 
L 640 0 
L 1242 0 
L 1242 4672 
z
" transform="scale(0.015625)"/>
       <path id="NimbusSanL-Regu-74" d="M 1626 3328 
L 1075 3328 
L 1075 4249 
L 544 4249 
L 544 3328 
L 90 3328 
L 90 2892 
L 544 2892 
L 544 402 
C 544 64 774 -128 1190 -128 
C 1318 -128 1446 -116 1626 -84 
L 1626 364 
C 1555 345 1472 339 1370 339 
C 1139 339 1075 402 1075 634 
L 1075 2892 
L 1626 2892 
L 1626 3328 
z
" transform="scale(0.015625)"/>
       <path id="NimbusSanL-Regu-65" d="M 3283 1484 
C 3283 1998 3245 2311 3149 2565 
C 2931 3123 2419 3456 1792 3456 
C 858 3456 256 2734 256 1619 
C 256 545 838 -128 1779 -128 
C 2547 -128 3078 307 3213 1018 
L 2675 1018 
C 2528 588 2227 364 1798 364 
C 1459 364 1171 514 992 787 
C 864 974 819 1161 813 1484 
L 3283 1484 
z
M 826 1920 
C 870 2552 1248 2963 1786 2963 
C 2310 2963 2714 2519 2714 1959 
C 2714 1946 2714 1933 2707 1920 
L 826 1920 
z
" transform="scale(0.015625)"/>
       <path id="NimbusSanL-Regu-72" d="M 442 3328 
L 442 0 
L 979 0 
L 979 1727 
C 979 2203 1101 2514 1357 2698 
C 1523 2819 1683 2857 2054 2863 
L 2054 3404 
C 1965 3449 1920 3456 1850 3456 
C 1504 3456 1242 3251 934 2750 
L 934 3328 
L 442 3328 
z
" transform="scale(0.015625)"/>
       <path id="NimbusSanL-Regu-61" d="M 3424 332 
C 3366 320 3341 320 3309 320 
C 3123 320 3021 415 3021 581 
L 3021 2542 
C 3021 3135 2586 3456 1760 3456 
C 1274 3456 870 3315 646 3065 
C 493 2893 429 2702 416 2370 
L 954 2370 
C 998 2778 1242 2963 1741 2963 
C 2221 2963 2490 2784 2490 2466 
L 2490 2326 
C 2490 2103 2355 2007 1933 1956 
C 1178 1861 1062 1835 858 1753 
C 467 1593 269 1294 269 861 
C 269 256 691 -128 1370 -128 
C 1792 -128 2131 19 2509 364 
C 2547 25 2714 -128 3059 -128 
C 3168 -128 3251 -116 3424 -71 
L 3424 332 
z
M 2490 1071 
C 2490 893 2438 785 2278 638 
C 2061 441 1798 339 1485 339 
C 1069 339 826 536 826 874 
C 826 1224 1062 1402 1632 1485 
C 2195 1562 2310 1587 2490 1670 
L 2490 1071 
z
" transform="scale(0.015625)"/>
       <path id="NimbusSanL-Regu-69" d="M 960 3358 
L 429 3358 
L 429 0 
L 960 0 
L 960 3358 
z
M 960 4672 
L 422 4672 
L 422 3999 
L 960 3999 
L 960 4672 
z
" transform="scale(0.015625)"/>
       <path id="NimbusSanL-Regu-6f" d="M 1741 3456 
C 800 3456 230 2784 230 1663 
C 230 543 794 -128 1747 -128 
C 2688 -128 3264 543 3264 1638 
C 3264 2791 2707 3456 1741 3456 
z
M 1747 2963 
C 2349 2963 2707 2472 2707 1644 
C 2707 861 2336 364 1747 364 
C 1152 364 787 855 787 1663 
C 787 2466 1152 2963 1747 2963 
z
" transform="scale(0.015625)"/>
       <path id="NimbusSanL-Regu-6e" d="M 448 3328 
L 448 0 
L 986 0 
L 986 1835 
C 986 2539 1344 2988 1894 2988 
C 2317 2988 2586 2732 2586 2328 
L 2586 0 
L 3117 0 
L 3117 2539 
C 3117 3097 2701 3456 2054 3456 
C 1555 3456 1235 3263 941 2796 
L 941 3328 
L 448 3328 
z
" transform="scale(0.015625)"/>
      </defs>
      <use xlink:href="#NimbusSanL-Regu-49" transform="scale(0.996264)"/>
      <use xlink:href="#NimbusSanL-Regu-74" transform="translate(27.69517 0) scale(0.996264)"/>
      <use xlink:href="#NimbusSanL-Regu-65" transform="translate(55.390339 0) scale(0.996264)"/>
      <use xlink:href="#NimbusSanL-Regu-72" transform="translate(110.782016 0) scale(0.996264)"/>
      <use xlink:href="#NimbusSanL-Regu-61" transform="translate(142.961149 0) scale(0.996264)"/>
      <use xlink:href="#NimbusSanL-Regu-74" transform="translate(198.352826 0) scale(0.996264)"/>
      <use xlink:href="#NimbusSanL-Regu-69" transform="translate(226.047996 0) scale(0.996264)"/>
      <use xlink:href="#NimbusSanL-Regu-6f" transform="translate(248.16478 0) scale(0.996264)"/>
      <use xlink:href="#NimbusSanL-Regu-6e" transform="translate(303.556457 0) scale(0.996264)"/>
     </g>
    </g>
   </g>
   <g id="matplotlib.axis_2">
    <g id="ytick_1">
     <g id="line2d_8">
      <defs>
       <path id="m3ebfbd5856" d="M 0 0 
L -3.5 0 
" style="stroke: #000000; stroke-width: 0.8"/>
      </defs>
      <g>
       <use xlink:href="#m3ebfbd5856" x="37.567344" y="219.626026" style="stroke: #000000; stroke-width: 0.8"/>
      </g>
     </g>
     <g id="text_9">
      <!-- $\mathdefault{0}$ -->
      <g transform="translate(25.586009 223.175186) scale(0.1 -0.1)">
       <use xlink:href="#CMR17-30" transform="scale(0.996264)"/>
      </g>
     </g>
    </g>
    <g id="ytick_2">
     <g id="line2d_9">
      <g>
       <use xlink:href="#m3ebfbd5856" x="37.567344" y="182.324727" style="stroke: #000000; stroke-width: 0.8"/>
      </g>
     </g>
     <g id="text_10">
      <!-- $\mathdefault{5}$ -->
      <g transform="translate(25.586009 185.873887) scale(0.1 -0.1)">
       <use xlink:href="#CMR17-35" transform="scale(0.996264)"/>
      </g>
     </g>
    </g>
    <g id="ytick_3">
     <g id="line2d_10">
      <g>
       <use xlink:href="#m3ebfbd5856" x="37.567344" y="145.023427" style="stroke: #000000; stroke-width: 0.8"/>
      </g>
     </g>
     <g id="text_11">
      <!-- $\mathdefault{10}$ -->
      <g transform="translate(20.604674 148.572587) scale(0.1 -0.1)">
       <use xlink:href="#CMR17-31" transform="scale(0.996264)"/>
       <use xlink:href="#CMR17-30" transform="translate(45.690477 0) scale(0.996264)"/>
      </g>
     </g>
    </g>
    <g id="ytick_4">
     <g id="line2d_11">
      <g>
       <use xlink:href="#m3ebfbd5856" x="37.567344" y="107.722128" style="stroke: #000000; stroke-width: 0.8"/>
      </g>
     </g>
     <g id="text_12">
      <!-- $\mathdefault{15}$ -->
      <g transform="translate(20.604674 111.271288) scale(0.1 -0.1)">
       <use xlink:href="#CMR17-31" transform="scale(0.996264)"/>
       <use xlink:href="#CMR17-35" transform="translate(45.690477 0) scale(0.996264)"/>
      </g>
     </g>
    </g>
    <g id="ytick_5">
     <g id="line2d_12">
      <g>
       <use xlink:href="#m3ebfbd5856" x="37.567344" y="70.420829" style="stroke: #000000; stroke-width: 0.8"/>
      </g>
     </g>
     <g id="text_13">
      <!-- $\mathdefault{20}$ -->
      <g transform="translate(20.604674 73.969989) scale(0.1 -0.1)">
       <use xlink:href="#CMR17-32" transform="scale(0.996264)"/>
       <use xlink:href="#CMR17-30" transform="translate(45.690477 0) scale(0.996264)"/>
      </g>
     </g>
    </g>
    <g id="ytick_6">
     <g id="line2d_13">
      <g>
       <use xlink:href="#m3ebfbd5856" x="37.567344" y="33.119529" style="stroke: #000000; stroke-width: 0.8"/>
      </g>
     </g>
     <g id="text_14">
      <!-- $\mathdefault{25}$ -->
      <g transform="translate(20.604674 36.66869) scale(0.1 -0.1)">
       <use xlink:href="#CMR17-32" transform="scale(0.996264)"/>
       <use xlink:href="#CMR17-35" transform="translate(45.690477 0) scale(0.996264)"/>
      </g>
     </g>
    </g>
    <g id="text_15">
     <!-- Average CFL - Blade_0 -->
     <g transform="translate(14.482687 168.77932) rotate(-90) scale(0.1 -0.1)">
      <defs>
       <path id="NimbusSanL-Regu-41" d="M 3034 1408 
L 3514 0 
L 4179 0 
L 2541 4672 
L 1773 4672 
L 109 0 
L 742 0 
L 1235 1408 
L 3034 1408 
z
M 2867 1907 
L 1382 1907 
L 2150 4032 
L 2867 1907 
z
" transform="scale(0.015625)"/>
       <path id="NimbusSanL-Regu-76" d="M 1824 0 
L 3110 3328 
L 2509 3328 
L 1562 629 
L 666 3328 
L 64 3328 
L 1242 0 
L 1824 0 
z
" transform="scale(0.015625)"/>
       <path id="NimbusSanL-Regu-67" d="M 2637 3359 
L 2637 2873 
C 2368 3270 2042 3456 1613 3456 
C 762 3456 186 2714 186 1632 
C 186 1084 333 638 608 320 
C 858 38 1216 -128 1568 -128 
C 1990 -128 2285 51 2586 473 
L 2586 300 
C 2586 -155 2528 -441 2394 -634 
C 2253 -841 1978 -960 1651 -960 
C 1408 -960 1190 -894 1043 -774 
C 922 -674 870 -581 838 -375 
L 294 -375 
C 352 -1031 845 -1408 1632 -1408 
C 2131 -1408 2560 -1248 2778 -980 
C 3034 -661 3130 -222 3130 568 
L 3130 3359 
L 2637 3359 
z
M 1670 2963 
C 2246 2963 2586 2479 2586 1644 
C 2586 848 2240 364 1677 364 
C 1094 364 742 855 742 1663 
C 742 2466 1101 2963 1670 2963 
z
" transform="scale(0.015625)"/>
       <path id="NimbusSanL-Regu-43" d="M 4237 3219 
C 4051 4236 3462 4736 2438 4736 
C 1811 4736 1306 4537 960 4154 
C 538 3696 307 3035 307 2284 
C 307 1522 544 867 986 415 
C 1344 44 1805 -128 2413 -128 
C 3552 -128 4192 485 4333 1712 
L 3718 1712 
C 3667 1394 3603 1178 3507 994 
C 3315 612 2918 396 2419 396 
C 1491 396 902 1134 902 2291 
C 902 3480 1466 4211 2368 4211 
C 2746 4211 3098 4096 3290 3918 
C 3462 3759 3558 3562 3629 3219 
L 4237 3219 
z
" transform="scale(0.015625)"/>
       <path id="NimbusSanL-Regu-46" d="M 1171 2112 
L 3398 2112 
L 3398 2636 
L 1171 2636 
L 1171 4147 
L 3706 4147 
L 3706 4672 
L 576 4672 
L 576 0 
L 1171 0 
L 1171 2112 
z
" transform="scale(0.015625)"/>
       <path id="NimbusSanL-Regu-4c" d="M 1107 4672 
L 512 4672 
L 512 0 
L 3411 0 
L 3411 524 
L 1107 524 
L 1107 4672 
z
" transform="scale(0.015625)"/>
       <path id="NimbusSanL-Regu-2d" d="M 1818 1996 
L 294 1996 
L 294 1536 
L 1818 1536 
L 1818 1996 
z
" transform="scale(0.015625)"/>
       <path id="NimbusSanL-Regu-42" d="M 506 0 
L 2611 0 
C 3053 0 3379 121 3629 390 
C 3859 632 3987 961 3987 1321 
C 3987 1878 3731 2214 3136 2444 
C 3558 2643 3782 2994 3782 3476 
C 3782 3821 3654 4127 3411 4345 
C 3168 4569 2848 4672 2400 4672 
L 506 4672 
L 506 0 
z
M 1101 2636 
L 1101 4147 
L 2253 4147 
C 2586 4147 2771 4101 2931 3977 
C 3098 3847 3187 3652 3187 3391 
C 3187 3138 3098 2936 2931 2806 
C 2771 2682 2586 2636 2253 2636 
L 1101 2636 
z
M 1101 524 
L 1101 2112 
L 2554 2112 
C 2842 2112 3034 2042 3174 1890 
C 3315 1745 3392 1542 3392 1315 
C 3392 1093 3315 891 3174 746 
C 3034 594 2842 524 2554 524 
L 1101 524 
z
" transform="scale(0.015625)"/>
       <path id="NimbusSanL-Regu-6c" d="M 973 4672 
L 435 4672 
L 435 0 
L 973 0 
L 973 4672 
z
" transform="scale(0.015625)"/>
       <path id="NimbusSanL-Regu-64" d="M 3168 4672 
L 2637 4672 
L 2637 2937 
C 2413 3276 2054 3456 1606 3456 
C 736 3456 166 2759 166 1695 
C 166 568 723 -128 1626 -128 
C 2086 -128 2406 44 2694 460 
L 2694 19 
L 3168 19 
L 3168 4672 
z
M 1696 2956 
C 2272 2956 2637 2447 2637 1651 
C 2637 880 2266 371 1702 371 
C 1114 371 723 887 723 1663 
C 723 2440 1114 2956 1696 2956 
z
" transform="scale(0.015625)"/>
       <path id="NimbusSanL-Regu-30" d="M 1760 4544 
C 1338 4544 954 4358 717 4044 
C 422 3649 275 3043 275 2207 
C 275 683 787 -128 1760 -128 
C 2720 -128 3245 683 3245 2169 
C 3245 3049 3104 3636 2803 4044 
C 2566 4364 2189 4544 1760 4544 
z
M 1760 4044 
C 2368 4044 2669 3432 2669 2220 
C 2669 938 2374 339 1747 339 
C 1152 339 851 964 851 2201 
C 851 3438 1152 4044 1760 4044 
z
" transform="scale(0.015625)"/>
      </defs>
      <use xlink:href="#NimbusSanL-Regu-41" transform="scale(0.996264)"/>
      <use xlink:href="#NimbusSanL-Regu-76" transform="translate(62.465918 0) scale(0.996264)"/>
      <use xlink:href="#NimbusSanL-Regu-65" transform="translate(109.788488 0) scale(0.996264)"/>
      <use xlink:href="#NimbusSanL-Regu-72" transform="translate(165.180165 0) scale(0.996264)"/>
      <use xlink:href="#NimbusSanL-Regu-61" transform="translate(197.359298 0) scale(0.996264)"/>
      <use xlink:href="#NimbusSanL-Regu-67" transform="translate(252.750975 0) scale(0.996264)"/>
      <use xlink:href="#NimbusSanL-Regu-65" transform="translate(308.142652 0) scale(0.996264)"/>
      <use xlink:href="#NimbusSanL-Regu-43" transform="translate(391.229499 0) scale(0.996264)"/>
      <use xlink:href="#NimbusSanL-Regu-46" transform="translate(463.159484 0) scale(0.996264)"/>
      <use xlink:href="#NimbusSanL-Regu-4c" transform="translate(524.031114 0) scale(0.996264)"/>
      <use xlink:href="#NimbusSanL-Regu-2d" transform="translate(607.117961 0) scale(0.996264)"/>
      <use xlink:href="#NimbusSanL-Regu-42" transform="translate(667.98836 0) scale(0.996264)"/>
      <use xlink:href="#NimbusSanL-Regu-6c" transform="translate(734.438391 0) scale(0.996264)"/>
      <use xlink:href="#NimbusSanL-Regu-61" transform="translate(756.555176 0) scale(0.996264)"/>
      <use xlink:href="#NimbusSanL-Regu-64" transform="translate(811.946853 0) scale(0.996264)"/>
      <use xlink:href="#NimbusSanL-Regu-65" transform="translate(867.33853 0) scale(0.996264)"/>
      <use xlink:href="#NimbusSanL-Regu-30" transform="translate(958.595772 0) scale(0.996264)"/>
      <path d="M 928.707548 0 
L 958.595772 0 
L 958.595772 0.3985 
L 928.707548 0.3985 
L 928.707548 0 
z
"/>
     </g>
    </g>
   </g>
   <g id="line2d_14">
    <path d="M 52.785526 113.242326 
L 52.998442 68.862196 
L 53.1049 204.549643 
L 53.211359 201.534366 
L 53.530733 188.363638 
L 53.850107 165.60462 
L 54.169481 126.295441 
L 54.488855 59.822567 
L 54.595313 203.64568 
L 54.701772 200.449611 
L 55.021146 186.489181 
L 55.34052 162.365557 
L 55.659894 120.892915 
L 55.979268 50.120501 
L 56.085727 17.28 
L 56.192185 199.391423 
L 56.298643 195.344503 
L 56.618017 177.667554 
L 56.937391 147.144182 
L 57.256765 94.697848 
L 57.363223 69.990205 
L 57.469681 204.662444 
L 57.57614 201.669727 
L 57.895514 188.597542 
L 58.214888 166.008806 
L 58.534262 127.082894 
L 58.747178 86.96539 
L 58.853636 206.359962 
L 58.960095 203.70675 
L 59.279469 192.117516 
L 59.598843 172.092689 
L 59.918217 137.564724 
L 60.237591 78.263354 
L 60.34405 50.222027 
L 60.450508 202.685626 
L 60.556966 199.297546 
L 60.87634 184.498413 
L 61.195714 158.92551 
L 61.515088 114.773588 
L 61.728004 68.776283 
L 61.834463 204.541052 
L 61.940921 201.524057 
L 62.260295 188.345823 
L 62.579669 165.573836 
L 62.899043 126.23368 
L 63.111959 85.246769 
L 63.218418 206.1881 
L 63.324876 203.500515 
L 63.64425 191.761143 
L 63.963624 171.475509 
L 64.282998 136.454484 
L 64.602373 76.049439 
L 64.708831 47.411444 
L 64.815289 202.404568 
L 64.921747 198.960276 
L 65.241121 183.91561 
L 65.560495 157.919792 
L 65.879869 113.012387 
L 66.305702 35.453506 
L 66.41216 201.208774 
L 66.518618 197.525324 
L 66.837992 181.436012 
L 67.157366 153.633682 
L 67.476741 105.591256 
L 67.689657 55.438353 
L 67.796115 203.207259 
L 67.902573 199.923505 
L 68.221947 185.58007 
L 68.541321 160.794614 
L 68.860696 117.965347 
L 69.18007 73.239408 
L 69.286528 73.239408 
L 69.392986 43.96748 
L 69.499444 202.060171 
L 69.605902 198.547 
L 69.925276 183.20147 
L 70.24465 156.684393 
L 70.564025 110.862884 
L 70.776941 63.007102 
L 70.883399 203.964134 
L 70.989857 200.831755 
L 71.309231 187.149526 
L 71.628605 163.506634 
L 71.94798 122.651717 
L 72.267354 52.064108 
L 72.373812 202.869834 
L 72.48027 199.518596 
L 72.799644 184.880387 
L 73.119019 159.585561 
L 73.438393 115.881461 
L 73.757767 40.388402 
L 73.864225 201.702264 
L 73.970683 198.117511 
L 74.290057 182.459312 
L 74.609432 155.401945 
L 74.928806 108.646814 
L 75.141722 59.828958 
L 75.24818 203.646319 
L 75.354638 200.450378 
L 75.674012 186.490506 
L 75.993387 162.367847 
L 76.312761 120.691404 
L 76.632135 48.859629 
L 76.738593 202.549386 
L 76.845051 199.134058 
L 77.164425 184.215906 
L 77.4838 158.437338 
L 77.803174 113.898848 
L 78.01609 67.446987 
L 78.122548 204.408122 
L 78.229006 201.364541 
L 78.54838 188.07018 
L 78.867755 165.097525 
L 79.187129 125.400776 
L 79.506503 56.821551 
L 79.612961 203.345578 
L 79.719419 200.089489 
L 80.038793 185.86689 
L 80.358168 161.290239 
L 80.677542 118.821786 
L 80.996916 45.4363 
L 81.103374 202.207053 
L 81.209832 198.723259 
L 81.529206 183.506044 
L 81.848581 157.210698 
L 82.167955 111.772339 
L 82.380871 64.316716 
L 82.487329 204.095095 
L 82.593787 200.988909 
L 82.913161 187.421088 
L 83.232536 163.975892 
L 83.55191 123.462595 
L 83.871284 81.150685 
L 84.297116 81.150685 
L 84.403574 53.461594 
L 84.510033 203.009583 
L 84.616491 199.686294 
L 84.935865 185.170169 
L 85.255239 160.086306 
L 85.574613 116.741389 
L 85.787529 71.479225 
L 85.893988 204.811346 
L 86.000446 201.84841 
L 86.31982 188.906305 
L 86.639194 166.542349 
L 86.958568 127.897432 
L 87.277942 61.125884 
L 87.384401 203.776012 
L 87.490859 200.606009 
L 87.810233 186.759436 
L 88.129607 162.832559 
L 88.448981 121.486915 
L 88.768356 50.041643 
L 88.874814 202.667588 
L 88.981272 199.2759 
L 89.300646 184.461008 
L 89.62002 158.860875 
L 89.939394 114.623846 
L 90.365227 38.182259 
L 90.471685 201.481649 
L 90.578143 197.852774 
L 90.897517 182.001846 
L 91.216891 154.611444 
L 91.536265 107.280828 
L 91.749182 57.848941 
L 91.85564 203.448317 
L 91.962098 200.212776 
L 92.281472 186.07993 
L 92.600846 161.658371 
L 92.92022 119.457919 
L 93.239595 75.383952 
L 94.517092 75.383952 
L 94.62355 46.535537 
L 94.730008 202.316977 
L 94.836466 198.855167 
L 95.15584 183.733982 
L 95.475214 157.604574 
L 95.794588 112.452957 
L 96.007505 65.296807 
L 96.113963 204.193104 
L 96.220421 201.10652 
L 96.539795 187.624319 
L 96.859169 164.327077 
L 97.178543 124.069441 
L 97.497918 54.504248 
L 97.604376 203.113848 
L 97.710834 199.811413 
L 98.030208 185.386374 
L 98.349582 160.459907 
L 98.668957 117.386973 
L 98.988331 72.40179 
L 100.15937 72.40179 
L 100.265828 42.956943 
L 100.372286 201.959118 
L 100.478744 198.425736 
L 100.798118 182.991925 
L 101.117492 156.322299 
L 101.436866 110.237186 
L 101.649783 62.106097 
L 101.756241 203.874033 
L 101.862699 200.723634 
L 102.182073 186.962693 
L 102.501447 163.183787 
L 102.820821 122.093838 
L 103.140196 79.179675 
L 105.375815 79.179675 
L 105.482273 51.090405 
L 105.588731 202.772464 
L 105.695189 199.401751 
L 106.014564 184.67848 
L 106.333938 159.236666 
L 106.653312 115.273211 
L 106.866228 69.357973 
L 106.972686 204.599221 
L 107.079144 201.59386 
L 107.398519 188.466443 
L 107.717893 165.782266 
L 108.037267 126.584008 
L 108.356641 58.84942 
L 108.463099 203.548365 
L 108.569557 200.332833 
L 108.888932 186.287389 
L 109.208306 162.016861 
L 109.52768 120.077389 
L 109.847054 76.275989 
L 110.166429 76.275989 
L 110.272887 47.605981 
L 110.379345 202.424022 
L 110.485803 198.983621 
L 110.805177 183.95595 
L 111.124551 157.988134 
L 111.443926 113.115748 
L 111.656842 66.251226 
L 111.7633 204.288546 
L 111.869758 201.22105 
L 112.189132 187.822228 
L 112.508506 164.669062 
L 112.82788 124.660393 
L 113.147255 55.525411 
L 113.253713 203.215965 
L 113.360171 199.933952 
L 113.679545 185.598123 
L 113.998919 160.825809 
L 114.318294 118.019251 
L 114.53121 73.31227 
L 114.637668 204.99465 
L 114.744126 202.068375 
L 115.0635 189.286405 
L 115.382874 167.199162 
L 115.702249 129.032405 
L 116.021623 63.080248 
L 116.128081 203.971448 
L 116.234539 200.840533 
L 116.553913 187.164694 
L 116.873287 163.532843 
L 117.192662 122.697007 
L 117.512036 80.048238 
L 117.618494 80.048238 
L 117.724952 52.132681 
L 117.83141 202.876691 
L 117.937868 199.526825 
L 118.257242 184.894606 
L 118.576617 159.610132 
L 118.895991 115.918561 
L 119.108907 70.287277 
L 119.215365 204.692151 
L 119.321823 201.705376 
L 119.641197 188.659143 
L 119.960572 166.115252 
L 120.279946 127.159409 
L 120.59932 59.843711 
L 120.705778 203.647795 
L 120.812236 200.452148 
L 121.13161 186.493565 
L 121.450985 162.373134 
L 121.770359 120.693028 
L 121.983275 77.162509 
L 122.089733 205.379674 
L 122.196191 202.530404 
L 122.515565 190.084791 
L 122.83494 168.578772 
L 123.154314 131.416371 
L 123.473688 67.199743 
L 123.580146 204.383398 
L 123.686604 201.334872 
L 124.005978 188.018912 
L 124.325353 165.008933 
L 124.644727 125.247689 
L 124.964101 56.54026 
L 125.070559 203.317449 
L 125.177017 200.055734 
L 125.496391 185.808562 
L 125.815766 161.189447 
L 126.13514 118.647618 
L 126.348056 74.217119 
L 126.454514 205.085135 
L 126.560972 202.176957 
L 126.880346 189.474035 
L 127.199721 167.523386 
L 127.519095 129.592663 
L 127.838469 64.048375 
L 127.944927 204.068261 
L 128.051385 200.956708 
L 128.370759 187.365444 
L 128.690134 163.879741 
L 129.009508 123.296445 
L 129.328882 80.91143 
L 129.43534 80.91143 
L 129.541798 53.168511 
L 129.648256 202.980274 
L 129.754714 199.651124 
L 130.074089 185.109396 
L 130.393463 159.981289 
L 130.712837 116.55992 
L 130.925753 71.210833 
L 131.032211 204.784507 
L 131.138669 201.816203 
L 131.458044 188.850652 
L 131.777418 166.446179 
L 132.096792 127.73125 
L 132.416166 60.831854 
L 132.522624 203.746609 
L 132.629082 200.570725 
L 132.948457 186.698466 
L 133.267831 162.727203 
L 133.587205 121.30486 
L 134.013037 49.727051 
L 134.119495 202.636129 
L 134.225954 199.238149 
L 134.545328 184.395775 
L 134.864702 158.748152 
L 135.184076 114.429059 
L 135.396992 68.142394 
L 135.50345 204.477663 
L 135.609909 201.44799 
L 135.929283 188.21438 
L 136.248657 165.346702 
L 136.568031 125.831354 
L 136.887405 57.548832 
L 136.993864 203.418307 
L 137.100322 200.176763 
L 137.419696 186.017699 
L 137.73907 161.550837 
L 138.058444 119.2721 
L 138.27136 75.116372 
L 138.377818 205.175061 
L 138.484277 202.284867 
L 138.803651 189.660504 
L 139.123025 167.845604 
L 139.442399 130.149457 
L 139.761773 65.010515 
L 139.868232 204.164475 
L 139.97469 201.072165 
L 140.294064 187.564954 
L 140.613438 164.224493 
L 140.932812 123.892177 
L 141.145728 81.769283 
L 141.252187 205.840352 
L 141.358645 203.083217 
L 141.678019 191.040052 
L 141.997393 170.229463 
L 142.316767 134.268764 
L 142.636141 72.128678 
L 142.7426 204.876291 
L 142.849058 201.926344 
L 143.168432 189.040976 
L 143.487806 166.775059 
L 143.80718 128.299556 
L 144.126555 61.813886 
L 144.233013 203.844812 
L 144.339471 200.688569 
L 144.658845 186.902101 
L 144.978219 163.079083 
L 145.297593 121.912908 
L 145.51051 78.919136 
L 145.616968 205.555337 
L 145.723426 202.741199 
L 146.0428 190.449045 
L 146.362174 169.208203 
L 146.681548 132.504029 
L 147.000923 69.079215 
L 147.107381 204.571345 
L 147.213839 201.560409 
L 147.533213 188.408639 
L 147.852587 165.682382 
L 148.171961 126.411409 
L 148.491336 58.551167 
L 148.597794 203.51854 
L 148.704252 200.297043 
L 148.81071 217.692346 
L 148.917168 217.30561 
L 149.236542 215.616348 
L 149.449458 218.88 
L 150.407581 218.88 
L 150.726955 218.336893 
L 151.046329 217.398404 
L 151.365704 215.776696 
L 151.685078 212.974383 
L 151.791536 218.88 
L 151.897994 218.730795 
L 152.11091 218.88 
L 153.281949 218.88 
L 153.601323 218.336893 
L 153.920697 217.398404 
L 154.240072 215.776696 
L 154.559446 212.974383 
L 154.87882 208.131988 
L 155.198194 199.764328 
L 155.517569 185.305011 
L 155.836943 160.319312 
L 156.156317 117.144024 
L 156.369233 72.051944 
L 156.475691 204.868618 
L 156.582149 201.917136 
L 156.901524 189.025064 
L 157.220898 166.747564 
L 157.540272 128.252044 
L 157.859646 61.731785 
L 157.966104 203.836602 
L 158.072562 200.678717 
L 158.391937 186.885076 
L 158.711311 163.049665 
L 159.030685 121.862074 
L 159.243601 78.845935 
L 159.350059 205.548017 
L 159.456517 202.732415 
L 159.775892 190.433866 
L 160.095266 169.181974 
L 160.41464 132.458704 
L 160.734014 69.000894 
L 160.840472 204.563513 
L 160.94693 201.55101 
L 161.266305 188.392399 
L 161.585679 165.654318 
L 161.905053 126.362914 
L 162.224427 85.327145 
L 164.779421 85.327145 
L 164.885879 58.467369 
L 164.992337 203.51016 
L 165.098795 200.286987 
L 165.41817 186.208167 
L 165.737544 161.879965 
L 166.056918 119.840833 
L 166.269834 75.935349 
L 166.376292 205.256958 
L 166.48275 202.383145 
L 166.802125 189.830327 
L 167.121499 168.139058 
L 167.440873 130.656546 
L 167.760247 65.886764 
L 167.866705 204.2521 
L 167.973163 201.177315 
L 168.292538 187.746653 
L 168.611912 164.538469 
L 168.931286 124.434727 
L 169.25066 82.550556 
L 170.741073 82.550556 
L 170.847531 55.135462 
L 170.953989 203.17697 
L 171.060448 199.887158 
L 171.379822 185.517263 
L 171.699196 160.686083 
L 172.01857 117.777804 
L 172.231486 72.964587 
L 172.337944 204.959882 
L 172.444402 202.026653 
L 172.763777 189.21431 
L 173.083151 167.074581 
L 173.402525 128.817129 
L 173.721899 62.708251 
L 173.828357 203.934249 
L 173.934816 200.795893 
L 174.25419 187.087556 
L 174.573564 163.39955 
L 174.892938 122.466676 
L 175.212312 51.734669 
L 175.318771 202.83689 
L 175.425229 199.479063 
L 175.744603 184.812074 
L 176.063977 159.467517 
L 176.383351 115.672123 
L 176.596267 69.932406 
L 176.702725 204.656664 
L 176.809184 201.662792 
L 177.128558 188.585557 
L 177.447932 165.988095 
L 177.767306 126.939682 
L 178.08668 59.464023 
L 178.193139 203.609826 
L 178.299597 200.406586 
L 178.618971 186.414833 
L 178.938345 162.237085 
L 179.257719 120.457936 
L 179.577094 48.263566 
L 179.683552 202.48978 
L 179.79001 199.062531 
L 180.109384 184.092306 
L 180.428758 158.223758 
L 180.748132 113.522907 
L 180.961048 66.837535 
L 181.067507 204.347177 
L 181.173965 201.291407 
L 181.493339 187.943805 
L 181.812713 164.879147 
L 182.132087 125.02342 
L 182.451462 56.152722 
L 182.55792 203.278696 
L 182.664378 200.00923 
L 182.983752 185.728202 
L 183.303126 161.050586 
L 183.6225 118.407665 
L 183.941875 44.720698 
L 184.048333 202.135493 
L 184.154791 198.637387 
L 184.474165 183.357657 
L 184.793539 156.954285 
L 185.112913 111.329257 
L 185.538746 32.489209 
L 185.645204 200.912344 
L 185.751662 197.169608 
L 186.071036 180.821336 
L 186.39041 152.571521 
L 186.709785 103.755842 
L 186.922701 52.772961 
L 187.029159 202.940719 
L 187.135617 199.603658 
L 187.454991 185.027374 
L 187.774365 159.839556 
L 188.093739 116.315006 
L 188.413114 70.858157 
L 188.519572 70.858157 
L 188.62603 41.104583 
L 188.732488 201.773882 
L 188.838946 198.203453 
L 189.15832 182.60782 
L 189.477694 155.658565 
L 189.797069 109.090254 
L 190.222901 28.620212 
L 190.329359 200.525445 
L 190.435817 196.705328 
L 190.755191 180.01906 
L 191.074566 151.185189 
L 191.39394 101.36026 
L 191.606856 49.323324 
L 191.713314 202.595756 
L 191.819772 199.189702 
L 192.139146 184.312058 
L 192.458521 158.603489 
L 192.777895 114.179081 
L 193.097269 37.413706 
L 193.203727 201.404794 
L 193.310185 197.760548 
L 193.629559 181.842479 
L 193.948934 154.336057 
L 194.268308 106.80496 
L 194.481224 57.163691 
L 194.587682 203.379792 
L 194.69414 200.130546 
L 195.013514 185.937836 
L 195.332889 161.412834 
L 195.652263 119.03363 
L 196.078095 45.802366 
L 196.184553 202.24366 
L 196.291011 198.767187 
L 196.610385 183.581952 
L 196.92976 157.341866 
L 197.249134 111.998997 
L 197.568508 33.646521 
L 197.674966 201.028075 
L 197.781424 197.308485 
L 198.100799 181.061316 
L 198.420173 152.986207 
L 198.739547 104.472418 
L 198.952463 53.804831 
L 199.058921 203.043906 
L 199.165379 199.727483 
L 199.484754 185.241343 
L 199.804128 160.209294 
L 200.123502 116.953913 
L 200.442876 71.778183 
L 200.655792 71.778183 
L 200.76225 204.841242 
L 200.868708 201.884285 
L 201.188083 188.968297 
L 201.507457 166.649471 
L 201.826831 128.082538 
L 202.146205 61.43888 
L 202.252663 203.807311 
L 202.359122 200.643568 
L 202.678496 186.824339 
L 202.99787 162.944711 
L 203.317244 121.680714 
L 203.636618 78.584777 
L 203.743077 78.584777 
L 203.849535 50.376528 
L 203.955993 202.701076 
L 204.062451 199.316086 
L 204.381825 184.53045 
L 204.701199 158.980871 
L 205.020573 114.831198 
L 205.23349 68.721473 
L 205.339948 204.535571 
L 205.446406 201.51748 
L 205.76578 188.334458 
L 206.085154 165.554196 
L 206.404528 126.189904 
L 206.723903 58.168408 
L 206.830361 203.480264 
L 206.936819 200.251112 
L 207.256193 186.146174 
L 207.575567 161.772842 
L 207.894941 119.655724 
L 208.107858 75.668792 
L 208.214316 205.230303 
L 208.320774 202.351158 
L 208.640148 189.775054 
L 208.959522 168.043546 
L 209.278896 130.491501 
L 209.598271 65.601567 
L 209.704729 204.22358 
L 209.811187 201.143091 
L 210.130561 187.687514 
L 210.449935 164.436277 
L 210.769309 124.258141 
L 211.195142 54.83032 
L 211.3016 203.146455 
L 211.408058 199.850541 
L 211.727432 185.453988 
L 212.046806 160.576745 
L 212.366181 117.588868 
L 212.579097 72.692519 
L 212.685555 204.932675 
L 212.792013 201.994005 
L 213.111387 189.157894 
L 213.430761 166.977094 
L 213.750136 128.648671 
L 214.06951 62.417157 
L 214.175968 203.905139 
L 214.282426 200.760962 
L 214.6018 187.027195 
L 214.921174 163.295246 
L 215.240549 122.286438 
L 215.666381 51.423218 
L 215.772839 202.805745 
L 215.879297 199.441689 
L 216.198671 184.747492 
L 216.518046 159.355919 
L 216.83742 115.479281 
L 217.050336 69.654713 
L 217.156794 204.628895 
L 217.263252 201.629468 
L 217.582626 188.527975 
L 217.902 165.888593 
L 218.221375 126.767742 
L 218.540749 59.166911 
L 218.647207 203.580114 
L 218.753665 200.370932 
L 219.073039 186.353224 
L 219.392414 162.130624 
L 219.711788 120.273971 
L 219.924704 76.559067 
L 220.031162 205.31933 
L 220.13762 202.457991 
L 220.456994 189.959661 
L 220.776369 168.362548 
L 221.095743 131.042736 
L 221.415117 66.554101 
L 221.521575 204.318833 
L 221.628033 201.257395 
L 221.947407 187.885032 
L 222.266782 164.777588 
L 222.586156 124.847925 
L 222.799072 83.14556 
L 222.90553 205.977979 
L 223.011988 203.24837 
L 223.331362 191.325437 
L 223.650737 170.722608 
L 223.970111 135.120919 
L 224.289485 73.601201 
L 224.395943 205.023543 
L 224.502401 202.103047 
L 224.821775 189.346318 
L 225.14115 167.302691 
L 225.460524 129.211303 
L 225.886356 63.389385 
L 225.992814 204.002362 
L 226.099272 200.877629 
L 226.418646 187.228796 
L 226.738021 163.643613 
L 227.057395 122.888416 
L 227.270311 80.323867 
L 227.376769 205.69581 
L 227.483227 202.909767 
L 227.802601 190.74033 
L 228.121976 169.711544 
L 228.44135 133.373801 
L 228.760724 70.582181 
L 228.867182 204.721642 
L 228.97364 201.740765 
L 229.293015 188.720294 
L 229.612389 166.220922 
L 229.931763 127.342006 
L 230.251137 60.159239 
L 230.357595 203.679347 
L 230.464053 200.490012 
L 230.783428 186.558993 
L 231.102802 162.486193 
L 231.422176 120.888395 
L 231.635092 77.443837 
L 231.74155 205.407807 
L 231.848008 202.564163 
L 232.167383 190.143127 
L 232.486757 168.679577 
L 232.806131 131.590562 
L 233.125505 67.500745 
L 233.231963 204.413498 
L 233.338421 201.370992 
L 233.657796 188.081328 
L 233.97717 165.116787 
L 234.296544 125.434061 
L 234.615918 56.862311 
L 234.722376 203.349655 
L 234.828834 200.09438 
L 235.148209 185.875342 
L 235.467583 161.304844 
L 235.786957 118.847024 
L 235.999873 74.504263 
L 236.106331 205.11385 
L 236.212789 202.211414 
L 236.532164 189.533577 
L 236.851538 167.626275 
L 237.170912 129.770455 
L 237.490286 64.3556 
L 237.596744 204.098983 
L 237.703202 200.993575 
L 238.022577 187.42915 
L 238.341951 163.989825 
L 238.661325 123.486671 
L 239.087157 53.49722 
L 239.193615 203.013145 
L 239.300074 199.690569 
L 239.619448 185.177557 
L 239.938822 160.099071 
L 240.258196 116.763448 
L 240.471112 71.503914 
L 240.57757 204.813815 
L 240.684029 201.851373 
L 241.003403 188.911425 
L 241.322777 166.551195 
L 241.642151 127.912718 
L 241.961525 61.145431 
L 242.067984 203.777966 
L 242.174442 200.608355 
L 242.493816 186.76349 
L 242.81319 162.839563 
L 243.132564 121.499019 
L 243.558397 50.062557 
L 243.664855 202.669679 
L 243.771313 199.27841 
L 244.090687 184.465345 
L 244.410061 158.868369 
L 244.729435 114.636795 
L 244.942352 68.441534 
L 245.04881 204.507577 
L 245.155268 201.483887 
L 245.474642 188.27641 
L 245.794016 165.453889 
L 246.11339 126.016573 
L 246.432765 57.868892 
L 246.539223 203.450313 
L 246.645681 200.21517 
L 246.965055 186.084067 
L 247.284429 161.66552 
L 247.603803 119.470272 
L 247.923178 75.40174 
L 248.029636 75.40174 
L 248.136094 46.556883 
L 248.242552 202.319112 
L 248.34901 198.857729 
L 248.668384 183.738409 
L 248.987758 157.612223 
L 249.307133 112.466174 
L 249.520049 65.31584 
L 249.626507 204.195007 
L 249.732965 201.108804 
L 250.052339 187.628266 
L 250.371713 164.333896 
L 250.691088 124.081226 
L 251.010462 54.524612 
L 251.11692 203.115885 
L 251.223378 199.813856 
L 251.542752 185.390597 
L 251.862126 160.467204 
L 252.181501 117.399582 
L 252.394417 72.419947 
L 252.500875 204.905418 
L 252.607333 201.961296 
L 252.926707 189.101373 
L 253.246081 166.879426 
L 253.565456 128.479902 
L 253.88483 62.125523 
L 253.991288 203.875976 
L 254.097746 200.725966 
L 254.41712 186.966722 
L 254.736494 163.190748 
L 255.055869 122.105866 
L 255.375243 51.111189 
L 255.481701 202.774542 
L 255.588159 199.404246 
L 255.907533 184.682789 
L 256.226907 159.244113 
L 256.546282 115.286081 
L 256.972114 39.326601 
L 257.078572 201.596083 
L 257.18503 197.990095 
L 257.504404 182.239137 
L 257.823779 155.021482 
L 258.143153 107.989374 
L 258.356069 58.869247 
L 258.462527 203.550348 
L 258.568985 200.335213 
L 258.888359 186.2915 
L 259.207734 162.023966 
L 259.527108 120.089666 
L 259.846482 47.627196 
L 259.95294 202.426143 
L 260.059398 198.986166 
L 260.378772 183.960349 
L 260.698147 157.995735 
L 261.017521 113.128884 
L 261.230437 66.270141 
L 261.336895 204.290438 
L 261.443353 201.22332 
L 261.762727 187.82615 
L 262.082102 164.67584 
L 262.401476 124.672104 
L 262.72085 55.545649 
L 262.827308 203.217988 
L 262.933766 199.936381 
L 263.25314 185.602319 
L 263.572515 160.83306 
L 263.891889 118.031782 
L 264.104805 73.330314 
L 264.211263 204.996455 
L 264.317721 202.070541 
L 264.637095 189.290147 
L 264.95647 167.205627 
L 265.275844 129.043577 
L 265.595218 63.099554 
L 265.701676 203.973379 
L 265.808134 200.842849 
L 266.127508 187.168697 
L 266.446883 163.539761 
L 266.766257 122.70896 
L 267.192089 52.153337 
L 267.298547 202.878757 
L 267.405005 199.529303 
L 267.72438 184.898889 
L 268.043754 159.617534 
L 268.363128 115.931351 
L 268.576044 70.305694 
L 268.682502 204.693993 
L 268.78896 201.707586 
L 269.108335 188.662962 
L 269.427709 166.121851 
L 269.747083 127.170812 
L 270.066457 59.863417 
L 270.172915 203.649765 
L 270.279373 200.454513 
L 270.598748 186.497651 
L 270.918122 162.380194 
L 271.237496 120.705229 
L 271.450412 77.180079 
L 271.55687 205.381431 
L 271.663328 202.532512 
L 271.982703 190.088434 
L 272.302077 168.585068 
L 272.621451 131.42725 
L 272.940825 67.218541 
L 273.047283 204.385277 
L 273.153741 201.337128 
L 273.473116 188.02281 
L 273.79249 165.015669 
L 274.111864 125.259328 
L 274.431238 56.560373 
L 274.537696 203.319461 
L 274.644154 200.058148 
L 274.963529 185.812732 
L 275.282903 161.196654 
L 275.602277 118.660071 
L 275.921651 45.156856 
L 276.028109 202.179109 
L 276.134568 198.689726 
L 276.453942 183.448099 
L 276.773316 157.110568 
L 277.09269 111.599315 
L 277.412064 64.067562 
L 277.518522 64.067562 
L 277.624981 32.955869 
L 277.731439 200.95901 
L 277.837897 197.225607 
L 278.157271 180.918102 
L 278.476645 152.738734 
L 278.796019 104.044785 
L 279.008936 53.189039 
L 279.115394 202.982327 
L 279.221852 199.653588 
L 279.541226 185.113652 
L 279.8606 159.988644 
L 280.179974 116.572631 
L 280.605807 41.549759 
L 280.712265 201.818399 
L 280.818723 198.256874 
L 281.138097 182.700131 
L 281.457471 155.81808 
L 281.776845 109.365895 
L 281.989762 60.851437 
L 282.09622 203.748567 
L 282.202678 200.573075 
L 282.522052 186.702527 
L 282.841426 162.73422 
L 283.1608 121.316986 
L 283.373717 78.061008 
L 283.480175 205.469524 
L 283.586633 202.638224 
L 283.906007 190.271104 
L 284.225381 168.90072 
L 284.544755 131.972698 
L 284.86413 68.161075 
L 284.970588 204.479531 
L 285.077046 201.450232 
L 285.39642 188.218254 
L 285.715794 165.353396 
L 286.035168 125.842921 
L 286.461001 57.56882 
L 286.567459 203.420305 
L 286.673917 200.179161 
L 286.993291 186.021844 
L 287.312665 161.557999 
L 287.63204 119.284476 
L 287.844956 75.134194 
L 287.951414 205.176843 
L 288.057872 202.287006 
L 288.377246 189.6642 
L 288.69662 167.85199 
L 289.015995 130.160492 
L 289.335369 65.029583 
L 289.441827 204.166382 
L 289.548285 201.074453 
L 289.867659 187.568908 
L 290.187033 164.231325 
L 290.506408 123.903983 
L 290.93224 54.218336 
L 291.038698 203.085257 
L 291.145156 199.777103 
L 291.46453 185.327087 
L 291.783905 160.35746 
L 292.103279 117.209944 
L 292.316195 72.146868 
L 292.422653 204.87811 
L 292.529111 201.928527 
L 292.848485 189.044748 
L 293.16786 166.781577 
L 293.487234 128.310819 
L 293.806608 61.833348 
L 293.913066 203.846758 
L 294.019524 200.690905 
L 294.338898 186.906136 
L 294.658273 163.086057 
L 294.977647 121.924959 
L 295.297021 78.936489 
L 295.403479 78.936489 
L 295.509937 50.798582 
L 295.616395 202.743282 
L 295.722853 199.366733 
L 296.042228 184.617967 
L 296.361602 159.1321 
L 296.680976 115.092522 
L 296.893892 69.097781 
L 297.00035 204.573201 
L 297.106808 201.562637 
L 297.426183 188.412489 
L 297.745557 165.689034 
L 298.064931 126.422904 
L 298.384305 58.571032 
L 298.490763 203.520527 
L 298.597221 200.299427 
L 298.916596 186.229662 
L 299.23597 161.91711 
L 299.555344 119.905019 
L 299.874718 76.027775 
L 299.981176 76.027775 
L 300.087634 47.308125 
L 300.194092 202.394236 
L 300.300551 198.947878 
L 300.619925 183.894186 
L 300.939299 157.881407 
L 301.258673 112.931324 
L 301.471589 65.985655 
L 301.578047 204.261989 
L 301.684506 201.189181 
L 302.00388 187.767159 
L 302.323254 164.573903 
L 302.642628 124.495958 
L 302.962002 55.241268 
L 303.06846 203.18755 
L 303.174919 199.899855 
L 303.494293 185.539203 
L 303.813667 160.723995 
L 304.133041 117.843317 
L 304.345957 73.058925 
L 304.452415 204.969316 
L 304.558874 202.037974 
L 304.878248 189.233872 
L 305.197622 167.108384 
L 305.516996 128.87554 
L 305.83637 62.809186 
L 305.942828 203.944342 
L 306.049287 200.808005 
L 306.368661 187.108486 
L 306.688035 163.435717 
L 307.007409 122.529172 
L 307.433242 51.842662 
L 307.5397 202.84769 
L 307.646158 199.492022 
L 307.965532 184.834468 
L 308.284906 159.506213 
L 308.60428 115.73899 
L 308.817197 70.028694 
L 308.923655 204.666293 
L 309.030113 201.674346 
L 309.349487 188.605523 
L 309.668861 166.022597 
L 309.988235 126.999301 
L 310.30761 59.567045 
L 310.414068 203.620128 
L 310.520526 200.418948 
L 310.8399 186.436196 
L 311.159274 162.273999 
L 311.478648 120.521724 
L 311.798023 76.915831 
L 311.904481 76.915831 
L 312.010939 48.373792 
L 312.117397 202.500803 
L 312.223855 199.075758 
L 312.543229 184.115163 
L 312.862603 158.263254 
L 313.181978 113.591156 
L 313.394894 66.935814 
L 313.501352 204.357005 
L 313.60781 201.303201 
L 313.927184 187.964184 
L 314.246558 164.914362 
L 314.565933 125.084271 
L 314.991765 56.257874 
L 315.098223 203.289211 
L 315.204681 200.021848 
L 315.524055 185.750006 
L 315.843429 161.088263 
L 316.162804 118.472772 
L 316.37572 73.96534 
L 316.482178 205.059957 
L 316.588636 202.146744 
L 316.90801 189.421826 
L 317.227384 167.433169 
L 317.546759 129.436769 
L 317.866133 63.778989 
L 317.972591 204.041322 
L 318.079049 200.924382 
L 318.398423 187.309584 
L 318.717797 163.783215 
L 319.037172 123.129649 
L 319.356546 52.880286 
L 319.463004 202.951452 
L 319.569462 199.616537 
L 319.888836 185.049629 
L 320.208211 159.878013 
L 320.527585 116.381459 
L 320.846959 70.953849 
L 322.230914 70.953849 
L 322.337372 204.758808 
L 322.44383 201.785365 
L 322.763204 188.797363 
L 323.082579 166.354097 
L 323.401953 127.572133 
L 323.721327 60.556899 
L 323.827785 203.719113 
L 323.934243 200.537731 
L 324.253617 186.641452 
L 324.572992 162.628682 
L 324.892366 121.134615 
L 325.318198 49.432868 
L 325.424656 202.60671 
L 325.531114 199.202847 
L 325.850489 184.334773 
L 326.169863 158.64274 
L 326.489237 114.246908 
L 326.702153 67.880097 
L 326.808611 204.451433 
L 326.915069 201.416514 
L 327.234443 188.15999 
L 327.553818 165.252716 
L 327.873192 125.668946 
L 328.192566 57.268192 
L 328.299024 203.390243 
L 328.405482 200.143086 
L 328.724857 185.959506 
L 329.044231 161.450279 
L 329.363605 119.098335 
L 329.576521 74.86615 
L 329.682979 205.150038 
L 329.789437 202.254841 
L 330.108812 189.608618 
L 330.428186 167.755945 
L 330.74756 129.994527 
L 331.066934 64.742795 
L 331.173392 204.137703 
L 331.27985 201.040038 
L 331.599225 187.509439 
L 331.918599 164.128564 
L 332.237973 123.726412 
L 332.663805 53.911493 
L 332.770263 203.054573 
L 332.876721 199.740282 
L 333.196096 185.26346 
L 333.51547 160.247513 
L 333.834844 117.019955 
L 334.04776 71.873283 
L 334.154218 204.850752 
L 334.260676 201.895697 
L 334.580051 188.988017 
L 334.899425 166.683547 
L 335.218799 128.141422 
L 335.538173 61.540631 
L 335.644631 203.817486 
L 335.751089 200.655779 
L 336.070464 186.845438 
L 336.389838 162.981171 
L 336.709212 121.743716 
L 337.028586 50.485394 
L 337.135044 202.711963 
L 337.241503 199.32915 
L 337.560877 184.553025 
L 337.880251 159.01988 
L 338.199625 114.898605 
L 338.412541 68.81854 
L 338.518999 204.545277 
L 338.625458 201.529128 
L 338.944832 188.354586 
L 339.264206 165.588977 
L 339.58358 126.250006 
L 339.902954 58.272263 
L 340.009412 203.49065 
L 340.115871 200.263574 
L 340.435245 186.16771 
L 340.754619 161.810055 
L 341.073993 119.720029 
L 341.499826 46.988463 
L 341.606284 202.36227 
L 341.712742 198.909518 
L 342.032116 183.827901 
L 342.35149 157.766866 
L 342.670864 112.733397 
L 342.883781 65.70064 
L 342.990239 204.233487 
L 343.096697 201.15498 
L 343.416071 187.708058 
L 343.735445 164.471777 
L 344.054819 124.319484 
L 344.374194 54.936322 
L 344.480652 203.157056 
L 344.58711 199.863262 
L 344.906484 185.475969 
L 345.225858 160.614727 
L 345.545232 117.654502 
L 345.758149 72.787032 
L 345.864607 204.942127 
L 345.971065 202.005347 
L 346.290439 189.177492 
L 346.609813 167.010959 
L 346.929187 128.707191 
L 347.248562 62.518279 
L 347.35502 203.915251 
L 347.461478 200.773096 
L 347.780852 187.048164 
L 348.100226 163.33148 
L 348.4196 122.34905 
L 348.845433 51.531412 
L 348.951891 202.816565 
L 349.058349 199.454672 
L 349.377723 184.769927 
L 349.697097 159.394687 
L 350.016472 115.546271 
L 350.229388 69.751179 
L 350.335846 204.638541 
L 350.442304 201.641044 
L 350.761678 188.547978 
L 351.081052 165.923159 
L 351.400427 126.827471 
L 351.719801 59.270124 
L 351.826259 203.590436 
L 351.932717 200.383318 
L 352.252091 186.374626 
L 352.571465 162.167607 
L 352.89084 120.337878 
L 353.103756 76.651093 
L 353.210214 205.328533 
L 353.316672 202.469034 
L 353.636046 189.978744 
L 353.95542 168.395522 
L 354.274795 131.099716 
L 354.594169 66.652562 
L 354.700627 204.32868 
L 354.807085 201.26921 
L 355.126459 187.905448 
L 355.445833 164.812868 
L 355.765208 124.908889 
L 356.19104 55.954813 
L 356.297498 203.258905 
L 356.403956 199.98548 
L 356.72333 185.687163 
L 357.042704 160.979671 
L 357.149163 149.2504 
L 357.149163 149.2504 
" clip-path="url(#p7436ec6984)" style="fill: none; stroke: #1f77b4; stroke-width: 1.5; stroke-linecap: square"/>
   </g>
   <g id="patch_3">
    <path d="M 37.567344 228.96 
L 37.567344 7.2 
" style="fill: none; stroke: #000000; stroke-width: 0.8; stroke-linejoin: miter; stroke-linecap: square"/>
   </g>
   <g id="patch_4">
    <path d="M 372.367344 228.96 
L 372.367344 7.2 
" style="fill: none; stroke: #000000; stroke-width: 0.8; stroke-linejoin: miter; stroke-linecap: square"/>
   </g>
   <g id="patch_5">
    <path d="M 37.567344 228.96 
L 372.367344 228.96 
" style="fill: none; stroke: #000000; stroke-width: 0.8; stroke-linejoin: miter; stroke-linecap: square"/>
   </g>
   <g id="patch_6">
    <path d="M 37.567344 7.2 
L 372.367344 7.2 
" style="fill: none; stroke: #000000; stroke-width: 0.8; stroke-linejoin: miter; stroke-linecap: square"/>
   </g>
   <g id="legend_1">
    <g id="patch_7">
     <path d="M 314.548024 29.420307 
L 365.367344 29.420307 
Q 367.367344 29.420307 367.367344 27.420307 
L 367.367344 14.2 
Q 367.367344 12.2 365.367344 12.2 
L 314.548024 12.2 
Q 312.548024 12.2 312.548024 14.2 
L 312.548024 27.420307 
Q 312.548024 29.420307 314.548024 29.420307 
z
" style="fill: #ffffff; opacity: 0.8; stroke: #cccccc; stroke-linejoin: miter"/>
    </g>
    <g id="line2d_15">
     <path d="M 316.548024 19.79832 
L 326.548024 19.79832 
L 336.548024 19.79832 
" style="fill: none; stroke: #1f77b4; stroke-width: 1.5; stroke-linecap: square"/>
    </g>
    <g id="text_16">
     <!-- CFL -->
     <g transform="translate(344.548024 23.29832) scale(0.1 -0.1)">
      <use xlink:href="#NimbusSanL-Regu-43" transform="scale(0.996264)"/>
      <use xlink:href="#NimbusSanL-Regu-46" transform="translate(71.929985 0) scale(0.996264)"/>
      <use xlink:href="#NimbusSanL-Regu-4c" transform="translate(132.801616 0) scale(0.996264)"/>
     </g>
    </g>
   </g>
  </g>
 </g>
 <defs>
  <clipPath id="p7436ec6984">
   <rect x="37.567344" y="7.2" width="334.8" height="221.76"/>
  </clipPath>
 </defs>
</svg>
