<?xml version="1.0" encoding="utf-8" standalone="no"?>
<!DOCTYPE svg PUBLIC "-//W3C//DTD SVG 1.1//EN"
  "http://www.w3.org/Graphics/SVG/1.1/DTD/svg11.dtd">
<svg xmlns:xlink="http://www.w3.org/1999/xlink" width="374.586009pt" height="265.600613pt" viewBox="0 0 374.586009 265.600613" xmlns="http://www.w3.org/2000/svg" version="1.1">
 <metadata>
  <rdf:RDF xmlns:dc="http://purl.org/dc/elements/1.1/" xmlns:cc="http://creativecommons.org/ns#" xmlns:rdf="http://www.w3.org/1999/02/22-rdf-syntax-ns#">
   <cc:Work>
    <dc:type rdf:resource="http://purl.org/dc/dcmitype/StillImage"/>
    <dc:date>2025-08-02T14:21:32.794195</dc:date>
    <dc:format>image/svg+xml</dc:format>
    <dc:creator>
     <cc:Agent>
      <dc:title>Matplotlib v3.10.3, https://matplotlib.org/</dc:title>
     </cc:Agent>
    </dc:creator>
   </cc:Work>
  </rdf:RDF>
 </metadata>
 <defs>
  <style type="text/css">*{stroke-linejoin: round; stroke-linecap: butt}</style>
 </defs>
 <g id="figure_1">
  <g id="patch_1">
   <path d="M 0 265.600613 
L 374.586009 265.600613 
L 374.586009 0 
L 0 0 
z
" style="fill: #ffffff"/>
  </g>
  <g id="axes_1">
   <g id="patch_2">
    <path d="M 32.586009 228.96 
L 367.386009 228.96 
L 367.386009 7.2 
L 32.586009 7.2 
z
" style="fill: #ffffff"/>
   </g>
   <g id="matplotlib.axis_1">
    <g id="xtick_1">
     <g id="line2d_1">
      <defs>
       <path id="m642fc6d45b" d="M 0 0 
L 0 3.5 
" style="stroke: #000000; stroke-width: 0.8"/>
      </defs>
      <g>
       <use xlink:href="#m642fc6d45b" x="47.804191" y="228.96" style="stroke: #000000; stroke-width: 0.8"/>
      </g>
     </g>
     <g id="text_1">
      <!-- $\mathdefault{0}$ -->
      <g transform="translate(45.313523 243.05832) scale(0.1 -0.1)">
       <defs>
        <path id="CMR17-30" d="M 2688 2038 
C 2688 2430 2682 3099 2413 3613 
C 2176 4063 1798 4224 1466 4224 
C 1158 4224 768 4082 525 3620 
C 269 3137 243 2539 243 2038 
C 243 1671 250 1112 448 623 
C 723 -39 1216 -128 1466 -128 
C 1760 -128 2208 -7 2470 604 
C 2662 1048 2688 1568 2688 2038 
z
M 1466 -26 
C 1056 -26 813 328 723 816 
C 653 1196 653 1749 653 2109 
C 653 2604 653 3015 736 3407 
C 858 3954 1216 4121 1466 4121 
C 1728 4121 2067 3947 2189 3420 
C 2272 3054 2278 2623 2278 2109 
C 2278 1691 2278 1176 2202 797 
C 2067 96 1690 -26 1466 -26 
z
" transform="scale(0.015625)"/>
       </defs>
       <use xlink:href="#CMR17-30" transform="scale(0.996264)"/>
      </g>
     </g>
    </g>
    <g id="xtick_2">
     <g id="line2d_2">
      <g>
       <use xlink:href="#m642fc6d45b" x="109.466192" y="228.96" style="stroke: #000000; stroke-width: 0.8"/>
      </g>
     </g>
     <g id="text_2">
      <!-- $\mathdefault{500}$ -->
      <g transform="translate(101.994189 243.05832) scale(0.1 -0.1)">
       <defs>
        <path id="CMR17-35" d="M 730 3750 
C 794 3724 1056 3641 1325 3641 
C 1920 3641 2246 3961 2432 4140 
C 2432 4191 2432 4224 2394 4224 
C 2387 4224 2374 4224 2323 4198 
C 2099 4102 1837 4032 1517 4032 
C 1325 4032 1037 4055 723 4191 
C 653 4224 640 4224 634 4224 
C 602 4224 595 4217 595 4090 
L 595 2231 
C 595 2113 595 2080 659 2080 
C 691 2080 704 2093 736 2139 
C 941 2435 1222 2560 1542 2560 
C 1766 2560 2246 2415 2246 1293 
C 2246 1087 2246 716 2054 422 
C 1894 159 1645 25 1370 25 
C 947 25 518 319 403 812 
C 429 806 480 793 506 793 
C 589 793 749 838 749 1036 
C 749 1209 627 1280 506 1280 
C 358 1280 262 1190 262 1011 
C 262 454 704 -128 1382 -128 
C 2042 -128 2669 441 2669 1267 
C 2669 2054 2170 2662 1549 2662 
C 1222 2662 947 2540 730 2304 
L 730 3750 
z
" transform="scale(0.015625)"/>
       </defs>
       <use xlink:href="#CMR17-35" transform="scale(0.996264)"/>
       <use xlink:href="#CMR17-30" transform="translate(45.690477 0) scale(0.996264)"/>
       <use xlink:href="#CMR17-30" transform="translate(91.380954 0) scale(0.996264)"/>
      </g>
     </g>
    </g>
    <g id="xtick_3">
     <g id="line2d_3">
      <g>
       <use xlink:href="#m642fc6d45b" x="171.128193" y="228.96" style="stroke: #000000; stroke-width: 0.8"/>
      </g>
     </g>
     <g id="text_3">
      <!-- $\mathdefault{1000}$ -->
      <g transform="translate(161.165522 243.05832) scale(0.1 -0.1)">
       <defs>
        <path id="CMR17-31" d="M 1702 4083 
C 1702 4217 1696 4224 1606 4224 
C 1357 3927 979 3833 621 3820 
C 602 3820 570 3820 563 3808 
C 557 3795 557 3782 557 3648 
C 755 3648 1088 3686 1344 3839 
L 1344 467 
C 1344 243 1331 166 781 166 
L 589 166 
L 589 0 
C 896 6 1216 12 1523 12 
C 1830 12 2150 6 2458 0 
L 2458 166 
L 2266 166 
C 1715 166 1702 236 1702 467 
L 1702 4083 
z
" transform="scale(0.015625)"/>
       </defs>
       <use xlink:href="#CMR17-31" transform="scale(0.996264)"/>
       <use xlink:href="#CMR17-30" transform="translate(45.690477 0) scale(0.996264)"/>
       <use xlink:href="#CMR17-30" transform="translate(91.380954 0) scale(0.996264)"/>
       <use xlink:href="#CMR17-30" transform="translate(137.071431 0) scale(0.996264)"/>
      </g>
     </g>
    </g>
    <g id="xtick_4">
     <g id="line2d_4">
      <g>
       <use xlink:href="#m642fc6d45b" x="232.790194" y="228.96" style="stroke: #000000; stroke-width: 0.8"/>
      </g>
     </g>
     <g id="text_4">
      <!-- $\mathdefault{1500}$ -->
      <g transform="translate(222.827523 243.05832) scale(0.1 -0.1)">
       <use xlink:href="#CMR17-31" transform="scale(0.996264)"/>
       <use xlink:href="#CMR17-35" transform="translate(45.690477 0) scale(0.996264)"/>
       <use xlink:href="#CMR17-30" transform="translate(91.380954 0) scale(0.996264)"/>
       <use xlink:href="#CMR17-30" transform="translate(137.071431 0) scale(0.996264)"/>
      </g>
     </g>
    </g>
    <g id="xtick_5">
     <g id="line2d_5">
      <g>
       <use xlink:href="#m642fc6d45b" x="294.452194" y="228.96" style="stroke: #000000; stroke-width: 0.8"/>
      </g>
     </g>
     <g id="text_5">
      <!-- $\mathdefault{2000}$ -->
      <g transform="translate(284.489524 243.05832) scale(0.1 -0.1)">
       <defs>
        <path id="CMR17-32" d="M 2669 990 
L 2554 990 
C 2490 537 2438 460 2413 422 
C 2381 371 1920 371 1830 371 
L 602 371 
C 832 620 1280 1073 1824 1596 
C 2214 1966 2669 2400 2669 3033 
C 2669 3788 2067 4224 1395 4224 
C 691 4224 262 3603 262 3027 
C 262 2777 448 2745 525 2745 
C 589 2745 781 2783 781 3007 
C 781 3206 614 3264 525 3264 
C 486 3264 448 3257 422 3244 
C 544 3788 915 4057 1306 4057 
C 1862 4057 2227 3616 2227 3033 
C 2227 2477 1901 1998 1536 1583 
L 262 147 
L 262 0 
L 2515 0 
L 2669 990 
z
" transform="scale(0.015625)"/>
       </defs>
       <use xlink:href="#CMR17-32" transform="scale(0.996264)"/>
       <use xlink:href="#CMR17-30" transform="translate(45.690477 0) scale(0.996264)"/>
       <use xlink:href="#CMR17-30" transform="translate(91.380954 0) scale(0.996264)"/>
       <use xlink:href="#CMR17-30" transform="translate(137.071431 0) scale(0.996264)"/>
      </g>
     </g>
    </g>
    <g id="xtick_6">
     <g id="line2d_6">
      <g>
       <use xlink:href="#m642fc6d45b" x="356.114195" y="228.96" style="stroke: #000000; stroke-width: 0.8"/>
      </g>
     </g>
     <g id="text_6">
      <!-- $\mathdefault{2500}$ -->
      <g transform="translate(346.151525 243.05832) scale(0.1 -0.1)">
       <use xlink:href="#CMR17-32" transform="scale(0.996264)"/>
       <use xlink:href="#CMR17-35" transform="translate(45.690477 0) scale(0.996264)"/>
       <use xlink:href="#CMR17-30" transform="translate(91.380954 0) scale(0.996264)"/>
       <use xlink:href="#CMR17-30" transform="translate(137.071431 0) scale(0.996264)"/>
      </g>
     </g>
    </g>
    <g id="text_7">
     <!-- Iteration -->
     <g transform="translate(182.038633 256.278627) scale(0.1 -0.1)">
      <defs>
       <path id="NimbusSanL-Regu-49" d="M 1242 4672 
L 640 4672 
L 640 0 
L 1242 0 
L 1242 4672 
z
" transform="scale(0.015625)"/>
       <path id="NimbusSanL-Regu-74" d="M 1626 3328 
L 1075 3328 
L 1075 4249 
L 544 4249 
L 544 3328 
L 90 3328 
L 90 2892 
L 544 2892 
L 544 402 
C 544 64 774 -128 1190 -128 
C 1318 -128 1446 -116 1626 -84 
L 1626 364 
C 1555 345 1472 339 1370 339 
C 1139 339 1075 402 1075 634 
L 1075 2892 
L 1626 2892 
L 1626 3328 
z
" transform="scale(0.015625)"/>
       <path id="NimbusSanL-Regu-65" d="M 3283 1484 
C 3283 1998 3245 2311 3149 2565 
C 2931 3123 2419 3456 1792 3456 
C 858 3456 256 2734 256 1619 
C 256 545 838 -128 1779 -128 
C 2547 -128 3078 307 3213 1018 
L 2675 1018 
C 2528 588 2227 364 1798 364 
C 1459 364 1171 514 992 787 
C 864 974 819 1161 813 1484 
L 3283 1484 
z
M 826 1920 
C 870 2552 1248 2963 1786 2963 
C 2310 2963 2714 2519 2714 1959 
C 2714 1946 2714 1933 2707 1920 
L 826 1920 
z
" transform="scale(0.015625)"/>
       <path id="NimbusSanL-Regu-72" d="M 442 3328 
L 442 0 
L 979 0 
L 979 1727 
C 979 2203 1101 2514 1357 2698 
C 1523 2819 1683 2857 2054 2863 
L 2054 3404 
C 1965 3449 1920 3456 1850 3456 
C 1504 3456 1242 3251 934 2750 
L 934 3328 
L 442 3328 
z
" transform="scale(0.015625)"/>
       <path id="NimbusSanL-Regu-61" d="M 3424 332 
C 3366 320 3341 320 3309 320 
C 3123 320 3021 415 3021 581 
L 3021 2542 
C 3021 3135 2586 3456 1760 3456 
C 1274 3456 870 3315 646 3065 
C 493 2893 429 2702 416 2370 
L 954 2370 
C 998 2778 1242 2963 1741 2963 
C 2221 2963 2490 2784 2490 2466 
L 2490 2326 
C 2490 2103 2355 2007 1933 1956 
C 1178 1861 1062 1835 858 1753 
C 467 1593 269 1294 269 861 
C 269 256 691 -128 1370 -128 
C 1792 -128 2131 19 2509 364 
C 2547 25 2714 -128 3059 -128 
C 3168 -128 3251 -116 3424 -71 
L 3424 332 
z
M 2490 1071 
C 2490 893 2438 785 2278 638 
C 2061 441 1798 339 1485 339 
C 1069 339 826 536 826 874 
C 826 1224 1062 1402 1632 1485 
C 2195 1562 2310 1587 2490 1670 
L 2490 1071 
z
" transform="scale(0.015625)"/>
       <path id="NimbusSanL-Regu-69" d="M 960 3358 
L 429 3358 
L 429 0 
L 960 0 
L 960 3358 
z
M 960 4672 
L 422 4672 
L 422 3999 
L 960 3999 
L 960 4672 
z
" transform="scale(0.015625)"/>
       <path id="NimbusSanL-Regu-6f" d="M 1741 3456 
C 800 3456 230 2784 230 1663 
C 230 543 794 -128 1747 -128 
C 2688 -128 3264 543 3264 1638 
C 3264 2791 2707 3456 1741 3456 
z
M 1747 2963 
C 2349 2963 2707 2472 2707 1644 
C 2707 861 2336 364 1747 364 
C 1152 364 787 855 787 1663 
C 787 2466 1152 2963 1747 2963 
z
" transform="scale(0.015625)"/>
       <path id="NimbusSanL-Regu-6e" d="M 448 3328 
L 448 0 
L 986 0 
L 986 1835 
C 986 2539 1344 2988 1894 2988 
C 2317 2988 2586 2732 2586 2328 
L 2586 0 
L 3117 0 
L 3117 2539 
C 3117 3097 2701 3456 2054 3456 
C 1555 3456 1235 3263 941 2796 
L 941 3328 
L 448 3328 
z
" transform="scale(0.015625)"/>
      </defs>
      <use xlink:href="#NimbusSanL-Regu-49" transform="scale(0.996264)"/>
      <use xlink:href="#NimbusSanL-Regu-74" transform="translate(27.69517 0) scale(0.996264)"/>
      <use xlink:href="#NimbusSanL-Regu-65" transform="translate(55.390339 0) scale(0.996264)"/>
      <use xlink:href="#NimbusSanL-Regu-72" transform="translate(110.782016 0) scale(0.996264)"/>
      <use xlink:href="#NimbusSanL-Regu-61" transform="translate(142.961149 0) scale(0.996264)"/>
      <use xlink:href="#NimbusSanL-Regu-74" transform="translate(198.352826 0) scale(0.996264)"/>
      <use xlink:href="#NimbusSanL-Regu-69" transform="translate(226.047996 0) scale(0.996264)"/>
      <use xlink:href="#NimbusSanL-Regu-6f" transform="translate(248.16478 0) scale(0.996264)"/>
      <use xlink:href="#NimbusSanL-Regu-6e" transform="translate(303.556457 0) scale(0.996264)"/>
     </g>
    </g>
   </g>
   <g id="matplotlib.axis_2">
    <g id="ytick_1">
     <g id="line2d_7">
      <defs>
       <path id="m18e5580878" d="M 0 0 
L -3.5 0 
" style="stroke: #000000; stroke-width: 0.8"/>
      </defs>
      <g>
       <use xlink:href="#m18e5580878" x="32.586009" y="202.224301" style="stroke: #000000; stroke-width: 0.8"/>
      </g>
     </g>
     <g id="text_8">
      <!-- $\mathdefault{0}$ -->
      <g transform="translate(20.604674 205.773461) scale(0.1 -0.1)">
       <use xlink:href="#CMR17-30" transform="scale(0.996264)"/>
      </g>
     </g>
    </g>
    <g id="ytick_2">
     <g id="line2d_8">
      <g>
       <use xlink:href="#m18e5580878" x="32.586009" y="171.271395" style="stroke: #000000; stroke-width: 0.8"/>
      </g>
     </g>
     <g id="text_9">
      <!-- $\mathdefault{1}$ -->
      <g transform="translate(20.604674 174.820555) scale(0.1 -0.1)">
       <use xlink:href="#CMR17-31" transform="scale(0.996264)"/>
      </g>
     </g>
    </g>
    <g id="ytick_3">
     <g id="line2d_9">
      <g>
       <use xlink:href="#m18e5580878" x="32.586009" y="140.318489" style="stroke: #000000; stroke-width: 0.8"/>
      </g>
     </g>
     <g id="text_10">
      <!-- $\mathdefault{2}$ -->
      <g transform="translate(20.604674 143.867649) scale(0.1 -0.1)">
       <use xlink:href="#CMR17-32" transform="scale(0.996264)"/>
      </g>
     </g>
    </g>
    <g id="ytick_4">
     <g id="line2d_10">
      <g>
       <use xlink:href="#m18e5580878" x="32.586009" y="109.365583" style="stroke: #000000; stroke-width: 0.8"/>
      </g>
     </g>
     <g id="text_11">
      <!-- $\mathdefault{3}$ -->
      <g transform="translate(20.604674 112.914744) scale(0.1 -0.1)">
       <defs>
        <path id="CMR17-33" d="M 1414 2176 
C 1984 2176 2234 1673 2234 1094 
C 2234 322 1824 25 1453 25 
C 1114 25 563 193 390 691 
C 422 678 454 678 486 678 
C 640 678 755 780 755 947 
C 755 1132 614 1216 486 1216 
C 378 1216 211 1164 211 927 
C 211 335 787 -128 1466 -128 
C 2176 -128 2720 432 2720 1087 
C 2720 1718 2208 2176 1600 2246 
C 2086 2347 2554 2776 2554 3353 
C 2554 3856 2048 4224 1472 4224 
C 890 4224 378 3862 378 3347 
C 378 3123 544 3084 627 3084 
C 762 3084 877 3167 877 3334 
C 877 3500 762 3584 627 3584 
C 602 3584 570 3584 544 3571 
C 730 3999 1235 4076 1459 4076 
C 1683 4076 2106 3966 2106 3347 
C 2106 3167 2080 2851 1862 2574 
C 1670 2329 1453 2316 1242 2297 
C 1210 2297 1062 2284 1037 2284 
C 992 2278 966 2272 966 2227 
C 966 2182 973 2176 1101 2176 
L 1414 2176 
z
" transform="scale(0.015625)"/>
       </defs>
       <use xlink:href="#CMR17-33" transform="scale(0.996264)"/>
      </g>
     </g>
    </g>
    <g id="ytick_5">
     <g id="line2d_11">
      <g>
       <use xlink:href="#m18e5580878" x="32.586009" y="78.412678" style="stroke: #000000; stroke-width: 0.8"/>
      </g>
     </g>
     <g id="text_12">
      <!-- $\mathdefault{4}$ -->
      <g transform="translate(20.604674 81.961838) scale(0.1 -0.1)">
       <defs>
        <path id="CMR17-34" d="M 2150 4147 
C 2150 4281 2144 4288 2029 4288 
L 128 1254 
L 128 1088 
L 1779 1088 
L 1779 460 
C 1779 230 1766 166 1318 166 
L 1197 166 
L 1197 0 
C 1402 12 1747 12 1965 12 
C 2182 12 2528 12 2733 0 
L 2733 166 
L 2611 166 
C 2163 166 2150 230 2150 460 
L 2150 1088 
L 2803 1088 
L 2803 1254 
L 2150 1254 
L 2150 4147 
z
M 1798 3723 
L 1798 1254 
L 256 1254 
L 1798 3723 
z
" transform="scale(0.015625)"/>
       </defs>
       <use xlink:href="#CMR17-34" transform="scale(0.996264)"/>
      </g>
     </g>
    </g>
    <g id="ytick_6">
     <g id="line2d_12">
      <g>
       <use xlink:href="#m18e5580878" x="32.586009" y="47.459772" style="stroke: #000000; stroke-width: 0.8"/>
      </g>
     </g>
     <g id="text_13">
      <!-- $\mathdefault{5}$ -->
      <g transform="translate(20.604674 51.008932) scale(0.1 -0.1)">
       <use xlink:href="#CMR17-35" transform="scale(0.996264)"/>
      </g>
     </g>
    </g>
    <g id="ytick_7">
     <g id="line2d_13">
      <g>
       <use xlink:href="#m18e5580878" x="32.586009" y="16.506866" style="stroke: #000000; stroke-width: 0.8"/>
      </g>
     </g>
     <g id="text_14">
      <!-- $\mathdefault{6}$ -->
      <g transform="translate(20.604674 20.056026) scale(0.1 -0.1)">
       <defs>
        <path id="CMR17-36" d="M 678 2198 
C 678 3712 1395 4076 1811 4076 
C 1946 4076 2272 4049 2400 3782 
C 2298 3782 2106 3782 2106 3558 
C 2106 3385 2246 3328 2336 3328 
C 2394 3328 2566 3353 2566 3571 
C 2566 3987 2246 4224 1805 4224 
C 1043 4224 243 3411 243 2011 
C 243 257 966 -128 1478 -128 
C 2099 -128 2688 431 2688 1295 
C 2688 2101 2170 2688 1517 2688 
C 1126 2688 838 2430 678 1979 
L 678 2198 
z
M 1478 25 
C 691 25 691 1212 691 1450 
C 691 1914 909 2585 1504 2585 
C 1613 2585 1926 2585 2138 2140 
C 2253 1889 2253 1624 2253 1302 
C 2253 954 2253 696 2118 438 
C 1978 173 1773 25 1478 25 
z
" transform="scale(0.015625)"/>
       </defs>
       <use xlink:href="#CMR17-36" transform="scale(0.996264)"/>
      </g>
     </g>
    </g>
    <g id="text_15">
     <!-- Aerodynamic Coefficients - Blade_0 -->
     <g transform="translate(14.482687 196.280864) rotate(-90) scale(0.1 -0.1)">
      <defs>
       <path id="NimbusSanL-Regu-41" d="M 3034 1408 
L 3514 0 
L 4179 0 
L 2541 4672 
L 1773 4672 
L 109 0 
L 742 0 
L 1235 1408 
L 3034 1408 
z
M 2867 1907 
L 1382 1907 
L 2150 4032 
L 2867 1907 
z
" transform="scale(0.015625)"/>
       <path id="NimbusSanL-Regu-64" d="M 3168 4672 
L 2637 4672 
L 2637 2937 
C 2413 3276 2054 3456 1606 3456 
C 736 3456 166 2759 166 1695 
C 166 568 723 -128 1626 -128 
C 2086 -128 2406 44 2694 460 
L 2694 19 
L 3168 19 
L 3168 4672 
z
M 1696 2956 
C 2272 2956 2637 2447 2637 1651 
C 2637 880 2266 371 1702 371 
C 1114 371 723 887 723 1663 
C 723 2440 1114 2956 1696 2956 
z
" transform="scale(0.015625)"/>
       <path id="NimbusSanL-Regu-79" d="M 2483 3328 
L 1555 724 
L 698 3328 
L 128 3328 
L 1261 -29 
L 1056 -558 
C 973 -794 851 -884 627 -884 
C 550 -884 461 -871 346 -845 
L 346 -1325 
C 454 -1383 563 -1408 704 -1408 
C 877 -1408 1062 -1351 1203 -1248 
C 1370 -1127 1466 -986 1568 -718 
L 3059 3328 
L 2483 3328 
z
" transform="scale(0.015625)"/>
       <path id="NimbusSanL-Regu-6d" d="M 448 3328 
L 448 0 
L 986 0 
L 986 2089 
C 986 2597 1338 2988 1773 2988 
C 2170 2988 2394 2744 2394 2315 
L 2394 0 
L 2931 0 
L 2931 2109 
C 2931 2597 3283 2988 3718 2988 
C 4109 2988 4339 2738 4339 2315 
L 4339 0 
L 4877 0 
L 4877 2520 
C 4877 3123 4531 3456 3904 3456 
C 3456 3456 3187 3321 2874 2943 
C 2675 3302 2406 3456 1971 3456 
C 1523 3456 1229 3289 941 2886 
L 941 3328 
L 448 3328 
z
" transform="scale(0.015625)"/>
       <path id="NimbusSanL-Regu-63" d="M 3014 2237 
C 2989 2561 2918 2771 2790 2956 
C 2560 3270 2157 3456 1690 3456 
C 787 3456 198 2740 198 1632 
C 198 555 774 -128 1683 -128 
C 2483 -128 2989 352 3053 1167 
L 2515 1167 
C 2426 632 2150 364 1696 364 
C 1107 364 755 842 755 1632 
C 755 2466 1101 2963 1683 2963 
C 2131 2963 2413 2701 2477 2237 
L 3014 2237 
z
" transform="scale(0.015625)"/>
       <path id="NimbusSanL-Regu-43" d="M 4237 3219 
C 4051 4236 3462 4736 2438 4736 
C 1811 4736 1306 4537 960 4154 
C 538 3696 307 3035 307 2284 
C 307 1522 544 867 986 415 
C 1344 44 1805 -128 2413 -128 
C 3552 -128 4192 485 4333 1712 
L 3718 1712 
C 3667 1394 3603 1178 3507 994 
C 3315 612 2918 396 2419 396 
C 1491 396 902 1134 902 2291 
C 902 3480 1466 4211 2368 4211 
C 2746 4211 3098 4096 3290 3918 
C 3462 3759 3558 3562 3629 3219 
L 4237 3219 
z
" transform="scale(0.015625)"/>
       <path id="NimbusSanL-Regu-66" d="M 1651 3328 
L 1094 3328 
L 1094 3860 
C 1094 4087 1222 4204 1466 4204 
C 1510 4204 1530 4204 1651 4198 
L 1651 4639 
C 1530 4665 1459 4672 1350 4672 
C 858 4672 563 4390 563 3905 
L 563 3328 
L 115 3328 
L 115 2892 
L 563 2892 
L 563 0 
L 1094 0 
L 1094 2892 
L 1651 2892 
L 1651 3328 
z
" transform="scale(0.015625)"/>
       <path id="NimbusSanL-Regu-2" d="M 1613 3328 
L 1056 3328 
L 1056 3860 
C 1056 4087 1184 4204 1427 4204 
C 1472 4204 1491 4204 1613 4198 
L 1613 4639 
C 1491 4665 1421 4672 1312 4672 
C 819 4672 525 4390 525 3905 
L 525 3328 
L 77 3328 
L 77 2892 
L 525 2892 
L 525 0 
L 1056 0 
L 1056 2892 
L 1613 2892 
L 1613 3328 
z
M 2790 3328 
L 2259 3328 
L 2259 0 
L 2790 0 
L 2790 3328 
z
M 2790 4672 
L 2259 4672 
L 2259 3999 
L 2790 3999 
L 2790 4672 
z
" transform="scale(0.015625)"/>
       <path id="NimbusSanL-Regu-73" d="M 2803 2428 
C 2797 3084 2362 3456 1587 3456 
C 806 3456 301 3052 301 2434 
C 301 1912 570 1663 1363 1472 
L 1862 1351 
C 2234 1262 2381 1129 2381 887 
C 2381 574 2067 364 1600 364 
C 1312 364 1069 447 934 587 
C 851 683 813 778 781 1014 
L 218 1014 
C 243 243 678 -128 1555 -128 
C 2400 -128 2938 288 2938 931 
C 2938 1428 2656 1702 1990 1861 
L 1478 1982 
C 1043 2084 858 2224 858 2459 
C 858 2765 1133 2963 1568 2963 
C 1997 2963 2227 2778 2240 2428 
L 2803 2428 
z
" transform="scale(0.015625)"/>
       <path id="NimbusSanL-Regu-2d" d="M 1818 1996 
L 294 1996 
L 294 1536 
L 1818 1536 
L 1818 1996 
z
" transform="scale(0.015625)"/>
       <path id="NimbusSanL-Regu-42" d="M 506 0 
L 2611 0 
C 3053 0 3379 121 3629 390 
C 3859 632 3987 961 3987 1321 
C 3987 1878 3731 2214 3136 2444 
C 3558 2643 3782 2994 3782 3476 
C 3782 3821 3654 4127 3411 4345 
C 3168 4569 2848 4672 2400 4672 
L 506 4672 
L 506 0 
z
M 1101 2636 
L 1101 4147 
L 2253 4147 
C 2586 4147 2771 4101 2931 3977 
C 3098 3847 3187 3652 3187 3391 
C 3187 3138 3098 2936 2931 2806 
C 2771 2682 2586 2636 2253 2636 
L 1101 2636 
z
M 1101 524 
L 1101 2112 
L 2554 2112 
C 2842 2112 3034 2042 3174 1890 
C 3315 1745 3392 1542 3392 1315 
C 3392 1093 3315 891 3174 746 
C 3034 594 2842 524 2554 524 
L 1101 524 
z
" transform="scale(0.015625)"/>
       <path id="NimbusSanL-Regu-6c" d="M 973 4672 
L 435 4672 
L 435 0 
L 973 0 
L 973 4672 
z
" transform="scale(0.015625)"/>
       <path id="NimbusSanL-Regu-30" d="M 1760 4544 
C 1338 4544 954 4358 717 4044 
C 422 3649 275 3043 275 2207 
C 275 683 787 -128 1760 -128 
C 2720 -128 3245 683 3245 2169 
C 3245 3049 3104 3636 2803 4044 
C 2566 4364 2189 4544 1760 4544 
z
M 1760 4044 
C 2368 4044 2669 3432 2669 2220 
C 2669 938 2374 339 1747 339 
C 1152 339 851 964 851 2201 
C 851 3438 1152 4044 1760 4044 
z
" transform="scale(0.015625)"/>
      </defs>
      <use xlink:href="#NimbusSanL-Regu-41" transform="scale(0.996264)"/>
      <use xlink:href="#NimbusSanL-Regu-65" transform="translate(66.450031 0) scale(0.996264)"/>
      <use xlink:href="#NimbusSanL-Regu-72" transform="translate(121.841708 0) scale(0.996264)"/>
      <use xlink:href="#NimbusSanL-Regu-6f" transform="translate(155.016938 0) scale(0.996264)"/>
      <use xlink:href="#NimbusSanL-Regu-64" transform="translate(210.408615 0) scale(0.996264)"/>
      <use xlink:href="#NimbusSanL-Regu-79" transform="translate(265.800292 0) scale(0.996264)"/>
      <use xlink:href="#NimbusSanL-Regu-6e" transform="translate(315.613492 0) scale(0.996264)"/>
      <use xlink:href="#NimbusSanL-Regu-61" transform="translate(371.005169 0) scale(0.996264)"/>
      <use xlink:href="#NimbusSanL-Regu-6d" transform="translate(426.396846 0) scale(0.996264)"/>
      <use xlink:href="#NimbusSanL-Regu-69" transform="translate(509.385276 0) scale(0.996264)"/>
      <use xlink:href="#NimbusSanL-Regu-63" transform="translate(531.502061 0) scale(0.996264)"/>
      <use xlink:href="#NimbusSanL-Regu-43" transform="translate(609.010431 0) scale(0.996264)"/>
      <use xlink:href="#NimbusSanL-Regu-6f" transform="translate(680.940416 0) scale(0.996264)"/>
      <use xlink:href="#NimbusSanL-Regu-65" transform="translate(736.332093 0) scale(0.996264)"/>
      <use xlink:href="#NimbusSanL-Regu-66" transform="translate(791.72377 0) scale(0.996264)"/>
      <use xlink:href="#NimbusSanL-Regu-2" transform="translate(819.418939 0) scale(0.996264)"/>
      <use xlink:href="#NimbusSanL-Regu-63" transform="translate(869.23214 0) scale(0.996264)"/>
      <use xlink:href="#NimbusSanL-Regu-69" transform="translate(919.04534 0) scale(0.996264)"/>
      <use xlink:href="#NimbusSanL-Regu-65" transform="translate(941.162125 0) scale(0.996264)"/>
      <use xlink:href="#NimbusSanL-Regu-6e" transform="translate(996.553802 0) scale(0.996264)"/>
      <use xlink:href="#NimbusSanL-Regu-74" transform="translate(1051.945479 0) scale(0.996264)"/>
      <use xlink:href="#NimbusSanL-Regu-73" transform="translate(1079.640648 0) scale(0.996264)"/>
      <use xlink:href="#NimbusSanL-Regu-2d" transform="translate(1157.149018 0) scale(0.996264)"/>
      <use xlink:href="#NimbusSanL-Regu-42" transform="translate(1218.019418 0) scale(0.996264)"/>
      <use xlink:href="#NimbusSanL-Regu-6c" transform="translate(1284.469449 0) scale(0.996264)"/>
      <use xlink:href="#NimbusSanL-Regu-61" transform="translate(1306.586233 0) scale(0.996264)"/>
      <use xlink:href="#NimbusSanL-Regu-64" transform="translate(1361.97791 0) scale(0.996264)"/>
      <use xlink:href="#NimbusSanL-Regu-65" transform="translate(1417.369587 0) scale(0.996264)"/>
      <use xlink:href="#NimbusSanL-Regu-30" transform="translate(1508.626829 0) scale(0.996264)"/>
      <path d="M 1478.738605 0 
L 1508.626829 0 
L 1508.626829 0.3985 
L 1478.738605 0.3985 
L 1478.738605 0 
z
"/>
     </g>
    </g>
   </g>
   <g id="line2d_14">
    <path d="M 47.804191 159.154173 
L 48.297487 35.196116 
L 48.544135 20.313916 
L 48.667459 17.28 
L 48.790783 18.059441 
L 49.530727 38.835183 
L 49.654051 38.613676 
L 49.777375 38.953856 
L 49.900699 40.449308 
L 50.147347 40.685496 
L 50.393995 41.30022 
L 50.763967 43.187917 
L 51.010615 45.42143 
L 51.257263 49.409495 
L 51.503911 57.435561 
L 51.873883 75.86026 
L 52.120531 78.081494 
L 52.367179 82.147383 
L 52.613827 89.123673 
L 52.860475 100.561947 
L 53.107123 119.809091 
L 53.230447 133.135649 
L 53.477095 135.330334 
L 53.723743 139.096077 
L 53.970391 145.539669 
L 54.340363 162.85965 
L 54.956983 198.635898 
L 55.326955 199.992471 
L 55.573603 201.77084 
L 55.943575 207.010908 
L 56.313547 213.193647 
L 56.436871 213.961162 
L 56.560195 213.636742 
L 56.806843 211.790226 
L 56.930167 210.207923 
L 57.300139 210.286621 
L 57.546787 210.560034 
L 58.040083 211.386916 
L 58.163407 210.965765 
L 58.410055 208.500046 
L 58.533379 206.63109 
L 58.903351 206.109896 
L 59.273323 205.228748 
L 59.643295 203.612606 
L 59.889943 201.538029 
L 60.136591 197.323081 
L 60.259915 193.740423 
L 60.506563 193.061902 
L 60.753211 191.88809 
L 60.999859 189.86984 
L 61.369831 184.37617 
L 61.739803 175.028245 
L 62.109775 165.998847 
L 62.479747 164.622749 
L 62.849719 161.877176 
L 63.219691 156.799557 
L 63.466339 149.585483 
L 63.959635 129.985739 
L 64.206283 127.116073 
L 64.329607 127.23512 
L 64.576255 128.030101 
L 64.946227 128.383367 
L 65.316199 129.192807 
L 65.686171 130.834462 
L 66.302791 134.126947 
L 66.672763 134.704083 
L 66.919411 135.474912 
L 67.166059 136.799234 
L 67.412707 139.126917 
L 67.659355 143.495391 
L 67.782679 146.924145 
L 68.152651 147.832513 
L 68.399299 149.01928 
L 68.769271 152.383258 
L 69.139243 158.387411 
L 69.632539 167.306729 
L 70.002511 168.28438 
L 70.372483 170.35611 
L 70.742455 174.126276 
L 71.112427 180.216925 
L 71.482399 187.558606 
L 71.729047 188.370621 
L 71.975695 189.814137 
L 72.222343 192.264795 
L 72.592315 198.804261 
L 73.455583 217.844099 
L 73.702231 218.88 
L 73.825555 218.452179 
L 74.072203 216.074235 
L 74.442175 209.726165 
L 75.675415 183.415519 
L 75.922063 182.887706 
L 76.292035 181.299155 
L 76.662007 178.433292 
L 77.278627 173.010052 
L 77.648599 172.616027 
L 78.018571 171.871969 
L 78.635191 170.356259 
L 78.758515 170.313411 
L 79.005163 170.684188 
L 79.375135 171.47059 
L 79.745107 171.670613 
L 80.115079 172.109638 
L 80.608375 173.13312 
L 80.855023 173.76284 
L 81.471643 173.96563 
L 81.964939 174.395774 
L 82.581559 174.972809 
L 83.198179 175.121902 
L 83.568151 175.423298 
L 84.184771 176.085685 
L 84.431419 175.991863 
L 85.294687 175.964224 
L 85.787983 175.862218 
L 86.28128 175.346029 
L 87.637844 173.704016 
L 88.377788 173.515857 
L 88.871084 173.135941 
L 89.487704 172.507943 
L 90.104324 172.280384 
L 91.21424 171.621732 
L 92.200832 171.610997 
L 93.0641 171.947393 
L 93.68072 172.163316 
L 94.420664 172.452753 
L 97.133792 172.46102 
L 97.503764 172.6156 
L 97.750412 172.751645 
L 98.490356 172.907415 
L 98.983652 173.238409 
L 99.84692 173.981674 
L 100.586864 174.172633 
L 100.956836 174.426014 
L 101.326808 174.778366 
L 101.943428 174.937922 
L 102.3134 175.190477 
L 102.683372 175.726669 
L 103.053344 176.446389 
L 103.54664 176.660951 
L 103.916612 177.030372 
L 104.286584 177.709051 
L 104.656556 178.394687 
L 105.273176 178.643959 
L 105.766472 179.119848 
L 106.383092 179.828213 
L 108.602924 179.93598 
L 109.09622 179.764512 
L 109.466192 179.38708 
L 109.71284 179.132789 
L 110.32946 178.933686 
L 110.699432 178.61468 
L 111.069404 177.955164 
L 111.439376 177.134035 
L 111.932672 176.896227 
L 112.302644 176.49114 
L 112.672616 175.757271 
L 113.535884 173.47101 
L 114.275828 173.288356 
L 115.139096 172.996449 
L 116.002364 173.085096 
L 116.372336 173.293904 
L 116.618984 173.619302 
L 116.988956 174.26035 
L 117.482252 174.452103 
L 117.852224 174.800235 
L 118.222196 175.455987 
L 118.592168 176.165608 
L 119.208788 176.43384 
L 119.702084 176.977844 
L 120.318704 177.866942 
L 121.058648 178.065941 
L 121.798592 178.367199 
L 123.031832 178.055005 
L 123.401804 177.714469 
L 123.771776 177.239971 
L 124.388396 177.033913 
L 124.758368 176.699961 
L 125.12834 176.032831 
L 125.498312 175.219032 
L 125.991608 174.993183 
L 126.36158 174.597747 
L 126.731552 173.907614 
L 127.718144 171.708571 
L 128.088116 171.336166 
L 128.458088 171.24652 
L 128.82806 171.435508 
L 129.321356 172.061946 
L 129.814652 172.804892 
L 130.431272 173.029243 
L 130.801244 173.372434 
L 131.171216 173.966422 
L 131.417864 174.255551 
L 132.034484 174.45064 
L 132.52778 174.866917 
L 133.1444 175.569214 
L 133.884344 175.736508 
L 135.240908 176.225574 
L 135.734204 176.026134 
L 136.597472 175.582352 
L 137.214092 175.394283 
L 137.707388 175.007914 
L 137.954036 174.846462 
L 138.69398 174.689567 
L 139.3106 174.293787 
L 139.680572 174.072321 
L 140.913812 173.890249 
L 141.900404 173.892835 
L 142.640348 174.000132 
L 143.256968 174.136217 
L 144.120236 174.304277 
L 144.86018 174.50426 
L 145.846772 174.677603 
L 146.586716 174.802745 
L 148.066604 174.78591 
L 148.436576 174.726464 
L 149.423168 174.576209 
L 150.163112 174.359939 
L 151.02638 174.187458 
L 152.012972 173.887854 
L 152.87624 173.679652 
L 153.616184 173.468686 
L 156.575961 173.45855 
L 157.069257 173.50749 
L 158.055849 173.631888 
L 158.919117 173.806041 
L 159.905709 174.001611 
L 160.275681 174.059465 
L 161.632245 174.220821 
L 162.495513 174.253738 
L 164.468697 174.201152 
L 166.441881 173.851923 
L 167.305149 173.601273 
L 168.291741 173.433082 
L 168.908361 173.353123 
L 171.744813 173.359311 
L 174.211293 173.834536 
L 179.144253 173.78024 
L 179.884197 173.965123 
L 181.857381 174.700691 
L 182.843973 174.893839 
L 183.337269 174.944745 
L 186.297045 174.993662 
L 187.160313 174.901739 
L 188.023581 174.745727 
L 188.393553 174.690273 
L 189.503469 174.55713 
L 190.366737 174.414136 
L 196.039641 174.125004 
L 204.179025 174.544034 
L 206.645505 174.39629 
L 208.002069 174.325181 
L 212.688381 174.068704 
L 218.484609 174.02443 
L 225.020781 174.029185 
L 229.830418 173.982369 
L 232.913518 174.105913 
L 235.74997 174.296677 
L 244.136002 174.252284 
L 246.355834 174.188053 
L 270.89731 174.056597 
L 278.050102 174.008366 
L 282.489766 173.966343 
L 299.261831 173.953375 
L 323.803307 174.073819 
L 328.366295 174.120607 
L 343.781795 174.202749 
L 352.167827 174.196095 
L 352.167827 174.196095 
" clip-path="url(#p1b2bf5913c)" style="fill: none; stroke: #1f77b4; stroke-width: 1.5; stroke-linecap: square"/>
   </g>
   <g id="line2d_15">
    <path d="M 47.804191 187.122566 
L 48.174163 154.981652 
L 48.420811 153.089412 
L 48.544135 152.706849 
L 48.667459 152.825528 
L 48.914107 154.341517 
L 49.284079 156.481992 
L 49.407403 156.466268 
L 49.777375 155.406101 
L 49.900699 154.958551 
L 50.517319 154.719025 
L 50.887291 154.267295 
L 51.257263 153.366307 
L 51.627235 152.26828 
L 51.997207 152.424058 
L 52.367179 152.593735 
L 52.613827 152.915535 
L 52.860475 153.665497 
L 53.107123 155.421492 
L 53.230447 156.888004 
L 53.600419 157.374765 
L 53.847067 158.035808 
L 54.093715 159.236433 
L 54.463687 162.77591 
L 54.956983 168.034024 
L 55.326955 168.493621 
L 55.573603 169.125867 
L 55.820251 170.353752 
L 56.436871 174.916471 
L 56.683519 175.349687 
L 57.546787 178.941836 
L 57.916759 183.31133 
L 58.533379 191.641687 
L 58.780027 191.83959 
L 59.026675 192.299265 
L 59.396647 193.761004 
L 59.889943 197.077999 
L 60.383239 200.240299 
L 60.753211 200.53485 
L 61.123183 201.239267 
L 61.493155 202.561822 
L 61.986451 204.531753 
L 62.603071 204.344322 
L 62.849719 204.031564 
L 63.096367 203.03803 
L 63.343015 200.014118 
L 63.589663 192.360738 
L 63.959635 180.941603 
L 64.206283 178.012128 
L 64.452931 177.247387 
L 65.069551 177.347547 
L 65.439523 177.064597 
L 65.686171 176.577365 
L 65.932819 175.541922 
L 66.056143 174.721747 
L 66.426115 174.506285 
L 66.796087 174.03525 
L 67.166059 173.206992 
L 67.782679 171.688509 
L 68.769271 171.746061 
L 69.015919 172.018687 
L 69.262567 172.679265 
L 69.632539 174.109913 
L 70.002511 174.38742 
L 70.372483 174.994528 
L 70.742455 176.248771 
L 71.112427 178.527791 
L 71.482399 180.94328 
L 71.852371 181.334138 
L 72.222343 182.11101 
L 72.592315 183.492826 
L 72.962287 186.031414 
L 74.318851 197.965632 
L 74.565499 198.73321 
L 74.688823 198.87274 
L 74.812147 198.839848 
L 75.058795 198.235166 
L 75.428767 196.029983 
L 75.552091 194.753866 
L 75.922063 194.417917 
L 76.168711 193.946237 
L 76.538683 192.601024 
L 76.908655 190.13255 
L 77.278627 187.666753 
L 77.648599 187.272772 
L 78.018571 186.451352 
L 79.005163 183.489442 
L 79.128487 183.521556 
L 79.375135 183.722297 
L 79.868431 183.880549 
L 80.238403 184.228515 
L 80.608375 184.975498 
L 80.978347 185.748327 
L 81.471643 185.948662 
L 81.964939 186.442996 
L 82.828207 187.506284 
L 83.444827 187.707151 
L 84.061447 187.937503 
L 84.678067 187.792015 
L 86.034631 187.789983 
L 86.527928 188.121758 
L 87.761168 189.085001 
L 88.994408 189.020264 
L 89.487704 188.706563 
L 90.104324 188.485398 
L 90.474296 188.134258 
L 90.967592 187.507591 
L 91.707536 187.280178 
L 92.694128 186.792871 
L 96.76382 186.539011 
L 99.106976 186.188868 
L 99.476948 185.887858 
L 99.723596 185.713511 
L 100.46354 185.520298 
L 100.956836 185.160347 
L 101.326808 184.907848 
L 102.806696 184.835069 
L 103.053344 184.996557 
L 103.793288 185.197114 
L 104.16326 185.537532 
L 104.409908 185.998767 
L 104.656556 186.37823 
L 105.149852 186.571254 
L 105.519824 186.918259 
L 105.889796 187.59733 
L 106.383092 188.855342 
L 106.876388 189.099844 
L 107.24636 189.51236 
L 107.739656 190.46801 
L 107.986304 190.780338 
L 108.602924 190.974925 
L 109.836164 191.566276 
L 110.699432 191.444992 
L 111.069404 191.101763 
L 111.439376 190.512976 
L 111.932672 190.322116 
L 112.302644 189.975619 
L 112.672616 189.29891 
L 113.41256 187.043413 
L 113.535884 186.640639 
L 114.152504 186.419747 
L 114.6458 185.953357 
L 115.26242 185.187115 
L 116.002364 184.997052 
L 116.988956 184.618448 
L 118.222196 184.72358 
L 118.715492 184.88625 
L 119.57876 185.055583 
L 120.072056 185.388685 
L 120.318704 185.535106 
L 121.181972 185.722573 
L 121.675268 186.037883 
L 122.168564 186.382229 
L 123.155156 186.55862 
L 124.018424 186.726028 
L 125.251664 186.679349 
L 125.621636 186.605982 
L 126.484904 186.460612 
L 126.9782 186.143219 
L 128.951384 184.38942 
L 129.568004 184.207791 
L 131.047892 184.308123 
L 131.664512 184.443689 
L 132.52778 184.623442 
L 133.514372 184.967195 
L 134.254316 185.158326 
L 135.364232 185.525445 
L 135.980852 185.447763 
L 136.720796 185.332669 
L 137.584064 185.152197 
L 138.07736 185.017546 
L 139.063952 184.863375 
L 140.050544 184.655047 
L 142.3937 184.584107 
L 144.366884 184.936318 
L 144.736856 185.0114 
L 145.723448 185.160068 
L 146.833364 185.421031 
L 147.696632 185.613905 
L 148.436576 185.764418 
L 151.273028 185.735469 
L 152.136296 185.634352 
L 152.999564 185.473345 
L 153.616184 185.317915 
L 154.849424 185.161381 
L 155.466044 185.12039 
L 158.179173 185.12855 
L 159.042441 185.217455 
L 159.905709 185.370114 
L 160.275681 185.426136 
L 161.385597 185.563142 
L 162.248865 185.692219 
L 164.961993 185.756048 
L 165.701937 185.716208 
L 166.688529 185.570065 
L 167.428473 185.485479 
L 171.251517 185.355335 
L 172.238109 185.507996 
L 173.717997 185.742074 
L 174.704589 185.666886 
L 175.321209 185.625932 
L 177.294393 185.432748 
L 181.117437 185.141783 
L 187.036989 185.631124 
L 191.106681 185.664686 
L 198.506121 185.088882 
L 204.179025 185.144849 
L 212.688381 185.347632 
L 216.511425 185.185306 
L 223.417569 185.073307 
L 229.460446 185.193755 
L 241.546198 185.236843 
L 300.248423 185.170412 
L 332.189339 185.28548 
L 352.167827 185.275725 
L 352.167827 185.275725 
" clip-path="url(#p1b2bf5913c)" style="fill: none; stroke: #ff7f0e; stroke-width: 1.5; stroke-linecap: square"/>
   </g>
   <g id="patch_3">
    <path d="M 32.586009 228.96 
L 32.586009 7.2 
" style="fill: none; stroke: #000000; stroke-width: 0.8; stroke-linejoin: miter; stroke-linecap: square"/>
   </g>
   <g id="patch_4">
    <path d="M 367.386009 228.96 
L 367.386009 7.2 
" style="fill: none; stroke: #000000; stroke-width: 0.8; stroke-linejoin: miter; stroke-linecap: square"/>
   </g>
   <g id="patch_5">
    <path d="M 32.586009 228.96 
L 367.386009 228.96 
" style="fill: none; stroke: #000000; stroke-width: 0.8; stroke-linejoin: miter; stroke-linecap: square"/>
   </g>
   <g id="patch_6">
    <path d="M 32.586009 7.2 
L 367.386009 7.2 
" style="fill: none; stroke: #000000; stroke-width: 0.8; stroke-linejoin: miter; stroke-linecap: square"/>
   </g>
   <g id="legend_1">
    <g id="patch_7">
     <path d="M 314.000015 43.640613 
L 360.386009 43.640613 
Q 362.386009 43.640613 362.386009 41.640613 
L 362.386009 14.2 
Q 362.386009 12.2 360.386009 12.2 
L 314.000015 12.2 
Q 312.000015 12.2 312.000015 14.2 
L 312.000015 41.640613 
Q 312.000015 43.640613 314.000015 43.640613 
z
" style="fill: #ffffff; opacity: 0.8; stroke: #cccccc; stroke-linejoin: miter"/>
    </g>
    <g id="line2d_16">
     <path d="M 316.000015 19.79832 
L 326.000015 19.79832 
L 336.000015 19.79832 
" style="fill: none; stroke: #1f77b4; stroke-width: 1.5; stroke-linecap: square"/>
    </g>
    <g id="text_16">
     <!-- CD -->
     <g transform="translate(344.000015 23.29832) scale(0.1 -0.1)">
      <defs>
       <path id="NimbusSanL-Regu-44" d="M 570 0 
L 2368 0 
C 3546 0 4269 883 4269 2339 
C 4269 3788 3552 4672 2368 4672 
L 570 4672 
L 570 0 
z
M 1165 524 
L 1165 4147 
L 2266 4147 
C 3187 4147 3674 3525 3674 2332 
C 3674 1153 3187 524 2266 524 
L 1165 524 
z
" transform="scale(0.015625)"/>
      </defs>
      <use xlink:href="#NimbusSanL-Regu-43" transform="scale(0.996264)"/>
      <use xlink:href="#NimbusSanL-Regu-44" transform="translate(71.929985 0) scale(0.996264)"/>
     </g>
    </g>
    <g id="line2d_17">
     <path d="M 316.000015 34.018627 
L 326.000015 34.018627 
L 336.000015 34.018627 
" style="fill: none; stroke: #ff7f0e; stroke-width: 1.5; stroke-linecap: square"/>
    </g>
    <g id="text_17">
     <!-- CL -->
     <g transform="translate(344.000015 37.518627) scale(0.1 -0.1)">
      <defs>
       <path id="NimbusSanL-Regu-4c" d="M 1107 4672 
L 512 4672 
L 512 0 
L 3411 0 
L 3411 524 
L 1107 524 
L 1107 4672 
z
" transform="scale(0.015625)"/>
      </defs>
      <use xlink:href="#NimbusSanL-Regu-43" transform="scale(0.996264)"/>
      <use xlink:href="#NimbusSanL-Regu-4c" transform="translate(71.929985 0) scale(0.996264)"/>
     </g>
    </g>
   </g>
  </g>
 </g>
 <defs>
  <clipPath id="p1b2bf5913c">
   <rect x="32.586009" y="7.2" width="334.8" height="221.76"/>
  </clipPath>
 </defs>
</svg>
