<?xml version="1.0" encoding="utf-8" standalone="no"?>
<!DOCTYPE svg PUBLIC "-//W3C//DTD SVG 1.1//EN"
  "http://www.w3.org/Graphics/SVG/1.1/DTD/svg11.dtd">
<svg xmlns:xlink="http://www.w3.org/1999/xlink" width="379.567344pt" height="265.600613pt" viewBox="0 0 379.567344 265.600613" xmlns="http://www.w3.org/2000/svg" version="1.1">
 <metadata>
  <rdf:RDF xmlns:dc="http://purl.org/dc/elements/1.1/" xmlns:cc="http://creativecommons.org/ns#" xmlns:rdf="http://www.w3.org/1999/02/22-rdf-syntax-ns#">
   <cc:Work>
    <dc:type rdf:resource="http://purl.org/dc/dcmitype/StillImage"/>
    <dc:date>2025-08-02T14:21:32.537984</dc:date>
    <dc:format>image/svg+xml</dc:format>
    <dc:creator>
     <cc:Agent>
      <dc:title>Matplotlib v3.10.3, https://matplotlib.org/</dc:title>
     </cc:Agent>
    </dc:creator>
   </cc:Work>
  </rdf:RDF>
 </metadata>
 <defs>
  <style type="text/css">*{stroke-linejoin: round; stroke-linecap: butt}</style>
 </defs>
 <g id="figure_1">
  <g id="patch_1">
   <path d="M 0 265.600613 
L 379.567344 265.600613 
L 379.567344 0 
L 0 0 
z
" style="fill: #ffffff"/>
  </g>
  <g id="axes_1">
   <g id="patch_2">
    <path d="M 37.567344 228.96 
L 372.367344 228.96 
L 372.367344 7.2 
L 37.567344 7.2 
z
" style="fill: #ffffff"/>
   </g>
   <g id="matplotlib.axis_1">
    <g id="xtick_1">
     <g id="line2d_1">
      <defs>
       <path id="m2377600414" d="M 0 0 
L 0 3.5 
" style="stroke: #000000; stroke-width: 0.8"/>
      </defs>
      <g>
       <use xlink:href="#m2377600414" x="52.785526" y="228.96" style="stroke: #000000; stroke-width: 0.8"/>
      </g>
     </g>
     <g id="text_1">
      <!-- $\mathdefault{0}$ -->
      <g transform="translate(50.294859 243.05832) scale(0.1 -0.1)">
       <defs>
        <path id="CMR17-30" d="M 2688 2038 
C 2688 2430 2682 3099 2413 3613 
C 2176 4063 1798 4224 1466 4224 
C 1158 4224 768 4082 525 3620 
C 269 3137 243 2539 243 2038 
C 243 1671 250 1112 448 623 
C 723 -39 1216 -128 1466 -128 
C 1760 -128 2208 -7 2470 604 
C 2662 1048 2688 1568 2688 2038 
z
M 1466 -26 
C 1056 -26 813 328 723 816 
C 653 1196 653 1749 653 2109 
C 653 2604 653 3015 736 3407 
C 858 3954 1216 4121 1466 4121 
C 1728 4121 2067 3947 2189 3420 
C 2272 3054 2278 2623 2278 2109 
C 2278 1691 2278 1176 2202 797 
C 2067 96 1690 -26 1466 -26 
z
" transform="scale(0.015625)"/>
       </defs>
       <use xlink:href="#CMR17-30" transform="scale(0.996264)"/>
      </g>
     </g>
    </g>
    <g id="xtick_2">
     <g id="line2d_2">
      <g>
       <use xlink:href="#m2377600414" x="114.447527" y="228.96" style="stroke: #000000; stroke-width: 0.8"/>
      </g>
     </g>
     <g id="text_2">
      <!-- $\mathdefault{500}$ -->
      <g transform="translate(106.975524 243.05832) scale(0.1 -0.1)">
       <defs>
        <path id="CMR17-35" d="M 730 3750 
C 794 3724 1056 3641 1325 3641 
C 1920 3641 2246 3961 2432 4140 
C 2432 4191 2432 4224 2394 4224 
C 2387 4224 2374 4224 2323 4198 
C 2099 4102 1837 4032 1517 4032 
C 1325 4032 1037 4055 723 4191 
C 653 4224 640 4224 634 4224 
C 602 4224 595 4217 595 4090 
L 595 2231 
C 595 2113 595 2080 659 2080 
C 691 2080 704 2093 736 2139 
C 941 2435 1222 2560 1542 2560 
C 1766 2560 2246 2415 2246 1293 
C 2246 1087 2246 716 2054 422 
C 1894 159 1645 25 1370 25 
C 947 25 518 319 403 812 
C 429 806 480 793 506 793 
C 589 793 749 838 749 1036 
C 749 1209 627 1280 506 1280 
C 358 1280 262 1190 262 1011 
C 262 454 704 -128 1382 -128 
C 2042 -128 2669 441 2669 1267 
C 2669 2054 2170 2662 1549 2662 
C 1222 2662 947 2540 730 2304 
L 730 3750 
z
" transform="scale(0.015625)"/>
       </defs>
       <use xlink:href="#CMR17-35" transform="scale(0.996264)"/>
       <use xlink:href="#CMR17-30" transform="translate(45.690477 0) scale(0.996264)"/>
       <use xlink:href="#CMR17-30" transform="translate(91.380954 0) scale(0.996264)"/>
      </g>
     </g>
    </g>
    <g id="xtick_3">
     <g id="line2d_3">
      <g>
       <use xlink:href="#m2377600414" x="176.109528" y="228.96" style="stroke: #000000; stroke-width: 0.8"/>
      </g>
     </g>
     <g id="text_3">
      <!-- $\mathdefault{1000}$ -->
      <g transform="translate(166.146857 243.05832) scale(0.1 -0.1)">
       <defs>
        <path id="CMR17-31" d="M 1702 4083 
C 1702 4217 1696 4224 1606 4224 
C 1357 3927 979 3833 621 3820 
C 602 3820 570 3820 563 3808 
C 557 3795 557 3782 557 3648 
C 755 3648 1088 3686 1344 3839 
L 1344 467 
C 1344 243 1331 166 781 166 
L 589 166 
L 589 0 
C 896 6 1216 12 1523 12 
C 1830 12 2150 6 2458 0 
L 2458 166 
L 2266 166 
C 1715 166 1702 236 1702 467 
L 1702 4083 
z
" transform="scale(0.015625)"/>
       </defs>
       <use xlink:href="#CMR17-31" transform="scale(0.996264)"/>
       <use xlink:href="#CMR17-30" transform="translate(45.690477 0) scale(0.996264)"/>
       <use xlink:href="#CMR17-30" transform="translate(91.380954 0) scale(0.996264)"/>
       <use xlink:href="#CMR17-30" transform="translate(137.071431 0) scale(0.996264)"/>
      </g>
     </g>
    </g>
    <g id="xtick_4">
     <g id="line2d_4">
      <g>
       <use xlink:href="#m2377600414" x="237.771529" y="228.96" style="stroke: #000000; stroke-width: 0.8"/>
      </g>
     </g>
     <g id="text_4">
      <!-- $\mathdefault{1500}$ -->
      <g transform="translate(227.808858 243.05832) scale(0.1 -0.1)">
       <use xlink:href="#CMR17-31" transform="scale(0.996264)"/>
       <use xlink:href="#CMR17-35" transform="translate(45.690477 0) scale(0.996264)"/>
       <use xlink:href="#CMR17-30" transform="translate(91.380954 0) scale(0.996264)"/>
       <use xlink:href="#CMR17-30" transform="translate(137.071431 0) scale(0.996264)"/>
      </g>
     </g>
    </g>
    <g id="xtick_5">
     <g id="line2d_5">
      <g>
       <use xlink:href="#m2377600414" x="299.43353" y="228.96" style="stroke: #000000; stroke-width: 0.8"/>
      </g>
     </g>
     <g id="text_5">
      <!-- $\mathdefault{2000}$ -->
      <g transform="translate(289.470859 243.05832) scale(0.1 -0.1)">
       <defs>
        <path id="CMR17-32" d="M 2669 990 
L 2554 990 
C 2490 537 2438 460 2413 422 
C 2381 371 1920 371 1830 371 
L 602 371 
C 832 620 1280 1073 1824 1596 
C 2214 1966 2669 2400 2669 3033 
C 2669 3788 2067 4224 1395 4224 
C 691 4224 262 3603 262 3027 
C 262 2777 448 2745 525 2745 
C 589 2745 781 2783 781 3007 
C 781 3206 614 3264 525 3264 
C 486 3264 448 3257 422 3244 
C 544 3788 915 4057 1306 4057 
C 1862 4057 2227 3616 2227 3033 
C 2227 2477 1901 1998 1536 1583 
L 262 147 
L 262 0 
L 2515 0 
L 2669 990 
z
" transform="scale(0.015625)"/>
       </defs>
       <use xlink:href="#CMR17-32" transform="scale(0.996264)"/>
       <use xlink:href="#CMR17-30" transform="translate(45.690477 0) scale(0.996264)"/>
       <use xlink:href="#CMR17-30" transform="translate(91.380954 0) scale(0.996264)"/>
       <use xlink:href="#CMR17-30" transform="translate(137.071431 0) scale(0.996264)"/>
      </g>
     </g>
    </g>
    <g id="xtick_6">
     <g id="line2d_6">
      <g>
       <use xlink:href="#m2377600414" x="361.095531" y="228.96" style="stroke: #000000; stroke-width: 0.8"/>
      </g>
     </g>
     <g id="text_6">
      <!-- $\mathdefault{2500}$ -->
      <g transform="translate(351.13286 243.05832) scale(0.1 -0.1)">
       <use xlink:href="#CMR17-32" transform="scale(0.996264)"/>
       <use xlink:href="#CMR17-35" transform="translate(45.690477 0) scale(0.996264)"/>
       <use xlink:href="#CMR17-30" transform="translate(91.380954 0) scale(0.996264)"/>
       <use xlink:href="#CMR17-30" transform="translate(137.071431 0) scale(0.996264)"/>
      </g>
     </g>
    </g>
    <g id="text_7">
     <!-- Iteration -->
     <g transform="translate(187.019968 256.278627) scale(0.1 -0.1)">
      <defs>
       <path id="NimbusSanL-Regu-49" d="M 1242 4672 
L 640 4672 
L 640 0 
L 1242 0 
L 1242 4672 
z
" transform="scale(0.015625)"/>
       <path id="NimbusSanL-Regu-74" d="M 1626 3328 
L 1075 3328 
L 1075 4249 
L 544 4249 
L 544 3328 
L 90 3328 
L 90 2892 
L 544 2892 
L 544 402 
C 544 64 774 -128 1190 -128 
C 1318 -128 1446 -116 1626 -84 
L 1626 364 
C 1555 345 1472 339 1370 339 
C 1139 339 1075 402 1075 634 
L 1075 2892 
L 1626 2892 
L 1626 3328 
z
" transform="scale(0.015625)"/>
       <path id="NimbusSanL-Regu-65" d="M 3283 1484 
C 3283 1998 3245 2311 3149 2565 
C 2931 3123 2419 3456 1792 3456 
C 858 3456 256 2734 256 1619 
C 256 545 838 -128 1779 -128 
C 2547 -128 3078 307 3213 1018 
L 2675 1018 
C 2528 588 2227 364 1798 364 
C 1459 364 1171 514 992 787 
C 864 974 819 1161 813 1484 
L 3283 1484 
z
M 826 1920 
C 870 2552 1248 2963 1786 2963 
C 2310 2963 2714 2519 2714 1959 
C 2714 1946 2714 1933 2707 1920 
L 826 1920 
z
" transform="scale(0.015625)"/>
       <path id="NimbusSanL-Regu-72" d="M 442 3328 
L 442 0 
L 979 0 
L 979 1727 
C 979 2203 1101 2514 1357 2698 
C 1523 2819 1683 2857 2054 2863 
L 2054 3404 
C 1965 3449 1920 3456 1850 3456 
C 1504 3456 1242 3251 934 2750 
L 934 3328 
L 442 3328 
z
" transform="scale(0.015625)"/>
       <path id="NimbusSanL-Regu-61" d="M 3424 332 
C 3366 320 3341 320 3309 320 
C 3123 320 3021 415 3021 581 
L 3021 2542 
C 3021 3135 2586 3456 1760 3456 
C 1274 3456 870 3315 646 3065 
C 493 2893 429 2702 416 2370 
L 954 2370 
C 998 2778 1242 2963 1741 2963 
C 2221 2963 2490 2784 2490 2466 
L 2490 2326 
C 2490 2103 2355 2007 1933 1956 
C 1178 1861 1062 1835 858 1753 
C 467 1593 269 1294 269 861 
C 269 256 691 -128 1370 -128 
C 1792 -128 2131 19 2509 364 
C 2547 25 2714 -128 3059 -128 
C 3168 -128 3251 -116 3424 -71 
L 3424 332 
z
M 2490 1071 
C 2490 893 2438 785 2278 638 
C 2061 441 1798 339 1485 339 
C 1069 339 826 536 826 874 
C 826 1224 1062 1402 1632 1485 
C 2195 1562 2310 1587 2490 1670 
L 2490 1071 
z
" transform="scale(0.015625)"/>
       <path id="NimbusSanL-Regu-69" d="M 960 3358 
L 429 3358 
L 429 0 
L 960 0 
L 960 3358 
z
M 960 4672 
L 422 4672 
L 422 3999 
L 960 3999 
L 960 4672 
z
" transform="scale(0.015625)"/>
       <path id="NimbusSanL-Regu-6f" d="M 1741 3456 
C 800 3456 230 2784 230 1663 
C 230 543 794 -128 1747 -128 
C 2688 -128 3264 543 3264 1638 
C 3264 2791 2707 3456 1741 3456 
z
M 1747 2963 
C 2349 2963 2707 2472 2707 1644 
C 2707 861 2336 364 1747 364 
C 1152 364 787 855 787 1663 
C 787 2466 1152 2963 1747 2963 
z
" transform="scale(0.015625)"/>
       <path id="NimbusSanL-Regu-6e" d="M 448 3328 
L 448 0 
L 986 0 
L 986 1835 
C 986 2539 1344 2988 1894 2988 
C 2317 2988 2586 2732 2586 2328 
L 2586 0 
L 3117 0 
L 3117 2539 
C 3117 3097 2701 3456 2054 3456 
C 1555 3456 1235 3263 941 2796 
L 941 3328 
L 448 3328 
z
" transform="scale(0.015625)"/>
      </defs>
      <use xlink:href="#NimbusSanL-Regu-49" transform="scale(0.996264)"/>
      <use xlink:href="#NimbusSanL-Regu-74" transform="translate(27.69517 0) scale(0.996264)"/>
      <use xlink:href="#NimbusSanL-Regu-65" transform="translate(55.390339 0) scale(0.996264)"/>
      <use xlink:href="#NimbusSanL-Regu-72" transform="translate(110.782016 0) scale(0.996264)"/>
      <use xlink:href="#NimbusSanL-Regu-61" transform="translate(142.961149 0) scale(0.996264)"/>
      <use xlink:href="#NimbusSanL-Regu-74" transform="translate(198.352826 0) scale(0.996264)"/>
      <use xlink:href="#NimbusSanL-Regu-69" transform="translate(226.047996 0) scale(0.996264)"/>
      <use xlink:href="#NimbusSanL-Regu-6f" transform="translate(248.16478 0) scale(0.996264)"/>
      <use xlink:href="#NimbusSanL-Regu-6e" transform="translate(303.556457 0) scale(0.996264)"/>
     </g>
    </g>
   </g>
   <g id="matplotlib.axis_2">
    <g id="ytick_1">
     <g id="line2d_7">
      <defs>
       <path id="md02d6be423" d="M 0 0 
L -3.5 0 
" style="stroke: #000000; stroke-width: 0.8"/>
      </defs>
      <g>
       <use xlink:href="#md02d6be423" x="37.567344" y="193.539868" style="stroke: #000000; stroke-width: 0.8"/>
      </g>
     </g>
     <g id="text_8">
      <!-- $\mathdefault{5}$ -->
      <g transform="translate(25.586009 197.089028) scale(0.1 -0.1)">
       <use xlink:href="#CMR17-35" transform="scale(0.996264)"/>
      </g>
     </g>
    </g>
    <g id="ytick_2">
     <g id="line2d_8">
      <g>
       <use xlink:href="#md02d6be423" x="37.567344" y="153.694373" style="stroke: #000000; stroke-width: 0.8"/>
      </g>
     </g>
     <g id="text_9">
      <!-- $\mathdefault{10}$ -->
      <g transform="translate(20.604674 157.243534) scale(0.1 -0.1)">
       <use xlink:href="#CMR17-31" transform="scale(0.996264)"/>
       <use xlink:href="#CMR17-30" transform="translate(45.690477 0) scale(0.996264)"/>
      </g>
     </g>
    </g>
    <g id="ytick_3">
     <g id="line2d_9">
      <g>
       <use xlink:href="#md02d6be423" x="37.567344" y="113.848879" style="stroke: #000000; stroke-width: 0.8"/>
      </g>
     </g>
     <g id="text_10">
      <!-- $\mathdefault{15}$ -->
      <g transform="translate(20.604674 117.398039) scale(0.1 -0.1)">
       <use xlink:href="#CMR17-31" transform="scale(0.996264)"/>
       <use xlink:href="#CMR17-35" transform="translate(45.690477 0) scale(0.996264)"/>
      </g>
     </g>
    </g>
    <g id="ytick_4">
     <g id="line2d_10">
      <g>
       <use xlink:href="#md02d6be423" x="37.567344" y="74.003384" style="stroke: #000000; stroke-width: 0.8"/>
      </g>
     </g>
     <g id="text_11">
      <!-- $\mathdefault{20}$ -->
      <g transform="translate(20.604674 77.552544) scale(0.1 -0.1)">
       <use xlink:href="#CMR17-32" transform="scale(0.996264)"/>
       <use xlink:href="#CMR17-30" transform="translate(45.690477 0) scale(0.996264)"/>
      </g>
     </g>
    </g>
    <g id="ytick_5">
     <g id="line2d_11">
      <g>
       <use xlink:href="#md02d6be423" x="37.567344" y="34.157889" style="stroke: #000000; stroke-width: 0.8"/>
      </g>
     </g>
     <g id="text_12">
      <!-- $\mathdefault{25}$ -->
      <g transform="translate(20.604674 37.70705) scale(0.1 -0.1)">
       <use xlink:href="#CMR17-32" transform="scale(0.996264)"/>
       <use xlink:href="#CMR17-35" transform="translate(45.690477 0) scale(0.996264)"/>
      </g>
     </g>
    </g>
    <g id="text_13">
     <!-- Average CFL - Blade_0 -->
     <g transform="translate(14.482687 168.77932) rotate(-90) scale(0.1 -0.1)">
      <defs>
       <path id="NimbusSanL-Regu-41" d="M 3034 1408 
L 3514 0 
L 4179 0 
L 2541 4672 
L 1773 4672 
L 109 0 
L 742 0 
L 1235 1408 
L 3034 1408 
z
M 2867 1907 
L 1382 1907 
L 2150 4032 
L 2867 1907 
z
" transform="scale(0.015625)"/>
       <path id="NimbusSanL-Regu-76" d="M 1824 0 
L 3110 3328 
L 2509 3328 
L 1562 629 
L 666 3328 
L 64 3328 
L 1242 0 
L 1824 0 
z
" transform="scale(0.015625)"/>
       <path id="NimbusSanL-Regu-67" d="M 2637 3359 
L 2637 2873 
C 2368 3270 2042 3456 1613 3456 
C 762 3456 186 2714 186 1632 
C 186 1084 333 638 608 320 
C 858 38 1216 -128 1568 -128 
C 1990 -128 2285 51 2586 473 
L 2586 300 
C 2586 -155 2528 -441 2394 -634 
C 2253 -841 1978 -960 1651 -960 
C 1408 -960 1190 -894 1043 -774 
C 922 -674 870 -581 838 -375 
L 294 -375 
C 352 -1031 845 -1408 1632 -1408 
C 2131 -1408 2560 -1248 2778 -980 
C 3034 -661 3130 -222 3130 568 
L 3130 3359 
L 2637 3359 
z
M 1670 2963 
C 2246 2963 2586 2479 2586 1644 
C 2586 848 2240 364 1677 364 
C 1094 364 742 855 742 1663 
C 742 2466 1101 2963 1670 2963 
z
" transform="scale(0.015625)"/>
       <path id="NimbusSanL-Regu-43" d="M 4237 3219 
C 4051 4236 3462 4736 2438 4736 
C 1811 4736 1306 4537 960 4154 
C 538 3696 307 3035 307 2284 
C 307 1522 544 867 986 415 
C 1344 44 1805 -128 2413 -128 
C 3552 -128 4192 485 4333 1712 
L 3718 1712 
C 3667 1394 3603 1178 3507 994 
C 3315 612 2918 396 2419 396 
C 1491 396 902 1134 902 2291 
C 902 3480 1466 4211 2368 4211 
C 2746 4211 3098 4096 3290 3918 
C 3462 3759 3558 3562 3629 3219 
L 4237 3219 
z
" transform="scale(0.015625)"/>
       <path id="NimbusSanL-Regu-46" d="M 1171 2112 
L 3398 2112 
L 3398 2636 
L 1171 2636 
L 1171 4147 
L 3706 4147 
L 3706 4672 
L 576 4672 
L 576 0 
L 1171 0 
L 1171 2112 
z
" transform="scale(0.015625)"/>
       <path id="NimbusSanL-Regu-4c" d="M 1107 4672 
L 512 4672 
L 512 0 
L 3411 0 
L 3411 524 
L 1107 524 
L 1107 4672 
z
" transform="scale(0.015625)"/>
       <path id="NimbusSanL-Regu-2d" d="M 1818 1996 
L 294 1996 
L 294 1536 
L 1818 1536 
L 1818 1996 
z
" transform="scale(0.015625)"/>
       <path id="NimbusSanL-Regu-42" d="M 506 0 
L 2611 0 
C 3053 0 3379 121 3629 390 
C 3859 632 3987 961 3987 1321 
C 3987 1878 3731 2214 3136 2444 
C 3558 2643 3782 2994 3782 3476 
C 3782 3821 3654 4127 3411 4345 
C 3168 4569 2848 4672 2400 4672 
L 506 4672 
L 506 0 
z
M 1101 2636 
L 1101 4147 
L 2253 4147 
C 2586 4147 2771 4101 2931 3977 
C 3098 3847 3187 3652 3187 3391 
C 3187 3138 3098 2936 2931 2806 
C 2771 2682 2586 2636 2253 2636 
L 1101 2636 
z
M 1101 524 
L 1101 2112 
L 2554 2112 
C 2842 2112 3034 2042 3174 1890 
C 3315 1745 3392 1542 3392 1315 
C 3392 1093 3315 891 3174 746 
C 3034 594 2842 524 2554 524 
L 1101 524 
z
" transform="scale(0.015625)"/>
       <path id="NimbusSanL-Regu-6c" d="M 973 4672 
L 435 4672 
L 435 0 
L 973 0 
L 973 4672 
z
" transform="scale(0.015625)"/>
       <path id="NimbusSanL-Regu-64" d="M 3168 4672 
L 2637 4672 
L 2637 2937 
C 2413 3276 2054 3456 1606 3456 
C 736 3456 166 2759 166 1695 
C 166 568 723 -128 1626 -128 
C 2086 -128 2406 44 2694 460 
L 2694 19 
L 3168 19 
L 3168 4672 
z
M 1696 2956 
C 2272 2956 2637 2447 2637 1651 
C 2637 880 2266 371 1702 371 
C 1114 371 723 887 723 1663 
C 723 2440 1114 2956 1696 2956 
z
" transform="scale(0.015625)"/>
       <path id="NimbusSanL-Regu-30" d="M 1760 4544 
C 1338 4544 954 4358 717 4044 
C 422 3649 275 3043 275 2207 
C 275 683 787 -128 1760 -128 
C 2720 -128 3245 683 3245 2169 
C 3245 3049 3104 3636 2803 4044 
C 2566 4364 2189 4544 1760 4544 
z
M 1760 4044 
C 2368 4044 2669 3432 2669 2220 
C 2669 938 2374 339 1747 339 
C 1152 339 851 964 851 2201 
C 851 3438 1152 4044 1760 4044 
z
" transform="scale(0.015625)"/>
      </defs>
      <use xlink:href="#NimbusSanL-Regu-41" transform="scale(0.996264)"/>
      <use xlink:href="#NimbusSanL-Regu-76" transform="translate(62.465918 0) scale(0.996264)"/>
      <use xlink:href="#NimbusSanL-Regu-65" transform="translate(109.788488 0) scale(0.996264)"/>
      <use xlink:href="#NimbusSanL-Regu-72" transform="translate(165.180165 0) scale(0.996264)"/>
      <use xlink:href="#NimbusSanL-Regu-61" transform="translate(197.359298 0) scale(0.996264)"/>
      <use xlink:href="#NimbusSanL-Regu-67" transform="translate(252.750975 0) scale(0.996264)"/>
      <use xlink:href="#NimbusSanL-Regu-65" transform="translate(308.142652 0) scale(0.996264)"/>
      <use xlink:href="#NimbusSanL-Regu-43" transform="translate(391.229499 0) scale(0.996264)"/>
      <use xlink:href="#NimbusSanL-Regu-46" transform="translate(463.159484 0) scale(0.996264)"/>
      <use xlink:href="#NimbusSanL-Regu-4c" transform="translate(524.031114 0) scale(0.996264)"/>
      <use xlink:href="#NimbusSanL-Regu-2d" transform="translate(607.117961 0) scale(0.996264)"/>
      <use xlink:href="#NimbusSanL-Regu-42" transform="translate(667.98836 0) scale(0.996264)"/>
      <use xlink:href="#NimbusSanL-Regu-6c" transform="translate(734.438391 0) scale(0.996264)"/>
      <use xlink:href="#NimbusSanL-Regu-61" transform="translate(756.555176 0) scale(0.996264)"/>
      <use xlink:href="#NimbusSanL-Regu-64" transform="translate(811.946853 0) scale(0.996264)"/>
      <use xlink:href="#NimbusSanL-Regu-65" transform="translate(867.33853 0) scale(0.996264)"/>
      <use xlink:href="#NimbusSanL-Regu-30" transform="translate(958.595772 0) scale(0.996264)"/>
      <path d="M 928.707548 0 
L 958.595772 0 
L 958.595772 0.3985 
L 928.707548 0.3985 
L 928.707548 0 
z
"/>
     </g>
    </g>
   </g>
   <g id="line2d_12">
    <path d="M 52.785526 119.746951 
L 53.032174 72.342955 
L 53.155498 217.281122 
L 53.52547 205.557235 
L 53.895442 185.298357 
L 54.265414 150.291017 
L 54.635386 90.579144 
L 54.75871 62.693717 
L 54.882034 216.316198 
L 55.252006 203.889846 
L 55.621978 182.41711 
L 55.99195 145.343612 
L 56.361922 82.101748 
L 56.60857 17.28 
L 56.731894 211.774826 
L 57.101866 196.042356 
L 57.471838 168.860077 
L 57.84181 122.067122 
L 58.088458 73.573424 
L 58.211782 217.404169 
L 58.581754 205.76986 
L 58.951726 185.665773 
L 59.321698 150.934163 
L 59.69167 91.706298 
L 59.814994 64.038625 
L 59.938318 216.450689 
L 60.30829 204.122246 
L 60.678262 182.819609 
L 61.048234 146.050789 
L 61.54153 82.893055 
L 61.664854 82.893055 
L 61.788178 53.005214 
L 61.911502 215.347348 
L 62.281474 202.215673 
L 62.651446 179.524139 
L 63.021418 140.313168 
L 63.39139 72.686747 
L 63.514714 217.315501 
L 63.884686 205.616642 
L 64.254658 185.401013 
L 64.62463 150.474356 
L 64.994602 90.240531 
L 65.117926 61.687723 
L 65.24125 216.215599 
L 65.611222 203.716011 
L 65.981194 182.116857 
L 66.351166 144.815977 
L 66.721138 80.460059 
L 66.844462 49.920408 
L 66.967786 215.038867 
L 67.337758 201.682618 
L 67.70773 178.603021 
L 68.077702 138.721476 
L 68.570998 69.806166 
L 69.310942 69.806166 
L 69.434266 217.027443 
L 69.804238 205.118877 
L 70.17421 184.540876 
L 70.544182 148.98209 
L 70.914154 87.536508 
L 71.037478 218.800477 
L 71.40745 208.182681 
L 71.777422 189.835128 
L 72.147394 158.130557 
L 72.517366 103.345058 
L 72.64069 77.336998 
L 72.764014 217.780526 
L 73.133986 206.420205 
L 73.503958 186.789571 
L 73.873931 152.867834 
L 74.243903 94.251073 
L 74.367227 66.424215 
L 74.490551 216.689248 
L 74.860523 204.534476 
L 75.230495 183.531031 
L 75.600467 147.237078 
L 75.970439 84.54313 
L 76.217087 19.085274 
L 76.340411 211.955354 
L 76.710383 196.354307 
L 77.080355 169.395699 
L 77.450327 122.811224 
L 77.820299 74.161922 
L 80.286779 74.161922 
L 80.410103 42.317233 
L 80.533427 214.27855 
L 80.903399 200.36879 
L 81.273371 176.332725 
L 81.643343 134.798405 
L 82.013315 63.027099 
L 82.136639 216.349536 
L 82.506611 203.947455 
L 82.876583 182.516658 
L 83.246555 145.484241 
L 83.739851 81.492224 
L 83.986499 81.492224 
L 84.109823 51.113596 
L 84.233147 215.158186 
L 84.603119 201.888801 
L 84.973091 178.959305 
L 85.343063 139.337135 
L 85.713035 70.870025 
L 85.836359 217.133829 
L 86.206331 205.302712 
L 86.576303 184.858543 
L 86.946275 149.531018 
L 87.316247 88.488538 
L 87.439571 59.525454 
L 87.562895 215.999372 
L 87.932867 203.34237 
L 88.302839 181.471072 
L 88.672811 143.677469 
L 89.042783 78.372183 
L 89.166107 47.373528 
L 89.289431 214.784179 
L 89.659403 201.242518 
L 90.029375 177.842526 
L 90.399347 137.407342 
L 90.892643 67.535342 
L 92.372531 67.535342 
L 92.495855 216.800361 
L 92.865827 204.726479 
L 93.235799 183.862812 
L 93.605771 147.810395 
L 93.975743 85.511818 
L 94.099067 55.93711 
L 94.222391 215.640537 
L 94.592363 202.722305 
L 94.962335 180.399598 
L 95.332307 141.825962 
L 95.702279 75.170718 
L 95.825603 217.563898 
L 96.195575 206.045872 
L 96.565547 186.142723 
L 96.935519 151.750081 
L 97.305491 92.319596 
L 97.428815 64.106443 
L 97.552139 216.457471 
L 97.922111 204.133965 
L 98.292083 182.838948 
L 98.662055 146.041158 
L 99.032027 82.454577 
L 99.155351 52.26842 
L 99.278675 215.273668 
L 99.648647 202.088355 
L 100.018619 179.304133 
L 100.388591 139.932999 
L 100.758563 71.899677 
L 100.881887 217.236794 
L 101.251859 205.480636 
L 101.621831 185.165995 
L 101.991803 150.062296 
L 102.361775 89.403104 
L 102.485099 60.606652 
L 102.608423 216.107492 
L 102.978395 203.529201 
L 103.348367 181.793916 
L 103.718339 144.235343 
L 104.211635 79.334129 
L 104.334959 79.334129 
L 104.458283 48.523882 
L 104.581607 214.899215 
L 104.951579 201.441299 
L 105.321551 178.18602 
L 105.691523 138.000899 
L 106.061495 68.561009 
L 106.184819 216.902927 
L 106.554791 204.903714 
L 106.924763 184.169075 
L 107.294735 148.339617 
L 107.664707 86.426314 
L 107.788031 57.034504 
L 107.911355 215.750277 
L 108.281327 202.911934 
L 108.651299 180.727278 
L 109.021271 142.392193 
L 109.391243 76.149166 
L 109.514567 217.661743 
L 109.884539 206.214948 
L 110.254511 186.434886 
L 110.624483 152.254939 
L 110.994455 93.19199 
L 111.117779 65.153315 
L 111.241103 216.562158 
L 111.611075 204.314865 
L 111.981047 183.151543 
L 112.351019 146.581321 
L 112.720991 83.387979 
L 112.844315 218.385624 
L 113.214287 207.465815 
L 113.584259 188.596384 
L 113.954231 155.990008 
L 114.324203 99.646189 
L 114.447527 72.898354 
L 114.570851 217.336662 
L 114.940823 205.653208 
L 115.310795 185.464199 
L 115.680767 150.577591 
L 116.050739 90.293534 
L 116.174063 61.675168 
L 116.297387 216.214343 
L 116.667359 203.713841 
L 117.037331 182.112973 
L 117.407303 144.786674 
L 117.900599 80.286828 
L 118.270571 80.286828 
L 118.393895 49.667122 
L 118.517219 215.013539 
L 118.887191 201.638851 
L 119.257163 178.52739 
L 119.627135 138.590786 
L 119.997107 69.580334 
L 120.120431 217.00486 
L 120.490403 205.079854 
L 120.860375 184.473443 
L 121.230347 148.865566 
L 121.600319 87.335153 
L 121.723643 58.125111 
L 121.846967 215.859338 
L 122.216939 203.100391 
L 122.586911 181.052932 
L 122.956883 142.954923 
L 123.326855 77.121562 
L 123.450179 217.758983 
L 123.820151 206.382978 
L 124.190123 186.725242 
L 124.560095 152.756674 
L 124.930067 94.058989 
L 125.053391 66.193714 
L 125.176715 216.666198 
L 125.546687 204.494646 
L 125.916659 183.462204 
L 126.286631 147.118144 
L 126.903251 54.501658 
L 127.026575 215.496992 
L 127.396547 202.474259 
L 127.766519 179.970975 
L 128.136491 141.0853 
L 128.506463 73.890855 
L 128.629787 217.435912 
L 128.999759 205.824712 
L 129.369731 185.760558 
L 129.739703 151.0897 
L 130.109675 91.178458 
L 130.232999 62.737077 
L 130.356323 216.320534 
L 130.726295 203.897339 
L 131.096267 182.430057 
L 131.466239 145.334595 
L 131.959535 81.233637 
L 134.426015 81.233637 
L 134.549339 50.803291 
L 134.672663 215.127156 
L 135.042635 201.835181 
L 135.412607 178.866648 
L 135.782579 139.177024 
L 136.152551 70.593354 
L 136.275875 217.106162 
L 136.645847 205.254904 
L 137.015819 184.775929 
L 137.385791 149.388262 
L 137.755763 88.238372 
L 137.879087 59.208974 
L 138.002411 215.967724 
L 138.372383 203.287683 
L 138.742355 181.376572 
L 139.112327 143.514172 
L 139.605623 78.087945 
L 140.962187 78.087945 
L 141.085511 47.028462 
L 141.208835 214.749673 
L 141.578807 201.18289 
L 141.948779 177.73949 
L 142.318751 137.229295 
L 142.688723 67.227678 
L 142.812047 216.769594 
L 143.182019 204.673315 
L 143.551992 183.770944 
L 143.921964 147.651647 
L 144.291936 85.237502 
L 144.41526 55.60793 
L 144.538584 215.607619 
L 144.908556 202.665422 
L 145.278528 180.301306 
L 145.6485 141.656112 
L 146.018472 74.877218 
L 146.141796 217.534548 
L 146.511768 205.995155 
L 146.88174 186.055084 
L 147.251712 151.598642 
L 147.621684 92.057909 
L 147.745008 63.792418 
L 147.868332 216.426068 
L 148.238304 204.079702 
L 148.608276 182.745181 
L 148.978248 145.879128 
L 149.34822 82.174589 
L 149.471544 218.264285 
L 149.841516 207.256141 
L 150.211488 188.234068 
L 150.58146 155.363925 
L 150.951432 98.564318 
L 151.074756 71.600109 
L 151.19808 217.206837 
L 151.568052 205.428871 
L 151.938024 185.076545 
L 152.307996 149.907726 
L 152.801292 89.136006 
L 152.924616 89.136006 
L 153.04794 60.286134 
L 153.171264 216.07544 
L 153.541236 203.473816 
L 153.911208 181.69821 
L 154.28118 144.069963 
L 154.651152 79.048352 
L 154.774476 217.951662 
L 155.144448 206.715927 
L 155.51442 187.300578 
L 155.884392 153.750855 
L 156.254364 95.776934 
L 156.377688 68.255248 
L 156.501012 216.872351 
L 156.870984 204.850879 
L 157.240956 184.077775 
L 157.610928 148.181851 
L 158.227548 56.70736 
L 158.350872 215.717562 
L 158.720844 202.855404 
L 159.090816 180.629594 
L 159.460788 142.223394 
L 159.83076 75.857481 
L 159.954084 217.632574 
L 160.324056 206.164545 
L 160.694028 186.347789 
L 161.064 152.104436 
L 161.433972 92.931921 
L 161.557296 64.841232 
L 161.68062 216.53095 
L 162.050592 204.260937 
L 162.420564 183.058355 
L 162.790536 146.420293 
L 163.160508 83.109723 
L 163.283832 53.054595 
L 163.407156 215.352286 
L 163.777128 202.224206 
L 164.1471 179.538884 
L 164.517072 140.338648 
L 164.887044 72.600639 
L 165.010368 217.30689 
L 165.38034 205.601762 
L 165.750312 185.375301 
L 166.120284 150.423977 
L 166.490256 90.028088 
L 166.61358 61.356633 
L 166.736904 216.18249 
L 167.106876 203.658798 
L 167.476848 182.017859 
L 167.84682 144.622317 
L 168.216792 80.002819 
L 168.340116 218.047108 
L 168.710088 206.880859 
L 169.08006 187.585581 
L 169.450032 154.243339 
L 169.820004 96.627946 
L 169.943328 69.276463 
L 170.066652 216.974473 
L 170.436624 205.027345 
L 170.806596 184.382708 
L 171.176568 148.708775 
L 171.793188 57.799991 
L 171.916512 215.826825 
L 172.286484 203.04421 
L 172.656456 180.955852 
L 173.026428 142.787167 
L 173.3964 76.831681 
L 173.519724 217.729995 
L 173.889696 206.332887 
L 174.259668 186.638684 
L 174.62964 152.607102 
L 174.999612 93.800528 
L 175.122936 65.883561 
L 175.24626 216.635182 
L 175.616232 204.441051 
L 175.986204 183.369593 
L 176.356176 146.958112 
L 176.849472 84.039074 
L 179.5626 84.039074 
L 179.685924 54.169816 
L 179.809248 215.463808 
L 180.17922 202.416916 
L 180.549192 179.871887 
L 180.919164 140.914077 
L 181.289136 73.594981 
L 181.41246 217.406325 
L 181.782432 205.773585 
L 182.152404 185.67221 
L 182.522376 150.937035 
L 182.892348 90.914653 
L 183.015672 62.420511 
L 183.138996 216.288878 
L 183.508968 203.842636 
L 183.87894 182.335532 
L 184.248912 145.171255 
L 184.742208 80.951384 
L 186.098772 80.951384 
L 186.222096 50.464588 
L 186.34542 215.093285 
L 186.715392 201.776653 
L 187.085364 178.765512 
L 187.455336 139.002261 
L 187.825308 70.291363 
L 187.948632 217.075963 
L 188.318604 205.202719 
L 188.688576 184.685755 
L 189.058548 149.232441 
L 189.42852 87.969114 
L 189.551844 58.885864 
L 189.675168 215.935413 
L 190.04514 203.231849 
L 190.415112 181.280092 
L 190.785084 143.347454 
L 191.401704 46.682756 
L 191.525028 214.715102 
L 191.895 201.123152 
L 192.264972 177.636263 
L 192.634944 137.050918 
L 193.004916 66.919443 
L 193.12824 216.738771 
L 193.498212 204.620052 
L 193.868184 183.678905 
L 194.238156 147.492605 
L 194.608128 84.962677 
L 194.731452 55.278139 
L 194.854776 215.57464 
L 195.224748 202.608435 
L 195.59472 180.202831 
L 195.964692 141.485948 
L 196.334664 74.583173 
L 196.457988 217.505144 
L 196.82796 205.944344 
L 197.197932 185.967283 
L 197.567904 151.446921 
L 197.937876 91.795736 
L 198.0612 63.47781 
L 198.184524 216.394607 
L 198.554496 204.025338 
L 198.924468 182.651239 
L 199.29444 145.716798 
L 199.664412 81.894082 
L 199.787736 51.595826 
L 199.91106 215.206409 
L 200.281032 201.972131 
L 200.651004 179.103298 
L 201.020976 139.585955 
L 201.390948 71.299986 
L 201.514272 217.176825 
L 201.884244 205.37701 
L 202.254216 184.986928 
L 202.624188 149.752868 
L 202.99416 88.868412 
L 203.117484 59.965022 
L 203.240808 216.043329 
L 203.61078 203.418328 
L 203.980752 181.602327 
L 204.350724 143.904276 
L 204.720696 78.762045 
L 204.84402 217.923031 
L 205.213992 206.666453 
L 205.583964 187.215088 
L 205.953936 153.603127 
L 206.323908 95.52166 
L 206.447232 67.948919 
L 206.570556 216.841718 
L 206.940528 204.797945 
L 207.3105 183.986305 
L 207.680472 148.023792 
L 208.050444 85.880568 
L 208.173768 56.379609 
L 208.297092 215.684787 
L 208.667064 202.798768 
L 209.037036 180.531728 
L 209.407008 142.054282 
L 209.900304 75.565255 
L 210.023628 75.565255 
L 210.146952 44.001233 
L 210.270276 214.44695 
L 210.640248 200.659785 
L 211.01022 176.835565 
L 211.380192 135.667312 
L 211.750164 64.52857 
L 211.873488 216.499683 
L 212.24346 204.206909 
L 212.613432 182.964995 
L 212.983404 146.258967 
L 213.353377 82.830951 
L 213.476701 52.720068 
L 213.600025 215.318833 
L 213.969997 202.1664 
L 214.339969 179.438995 
L 214.709941 140.166039 
L 215.079913 72.302371 
L 215.203237 217.277064 
L 215.573209 205.550222 
L 215.943181 185.286239 
L 216.313153 150.270077 
L 216.683125 89.762149 
L 216.806449 61.037507 
L 216.929773 216.150577 
L 217.299745 203.603653 
L 217.669717 181.922569 
L 218.039689 144.457655 
L 218.532985 79.718283 
L 218.902957 79.718283 
L 219.026281 48.984867 
L 219.149605 214.945313 
L 219.519577 201.520957 
L 219.889549 178.32367 
L 220.259521 138.238757 
L 220.629493 68.972029 
L 220.752817 216.944029 
L 221.122789 204.974739 
L 221.492761 184.291804 
L 221.862733 148.551694 
L 222.232705 86.792783 
L 222.356029 57.474267 
L 222.479353 215.794253 
L 222.849325 202.987925 
L 223.219297 180.858591 
L 223.589269 142.619101 
L 224.082565 76.541262 
L 224.575861 76.541262 
L 224.699185 217.700953 
L 225.069157 206.282702 
L 225.439129 186.551965 
L 225.809101 152.457252 
L 226.179073 93.541588 
L 226.302397 65.572832 
L 226.425721 216.60411 
L 226.795693 204.387357 
L 227.165665 183.27681 
L 227.535637 146.797783 
L 228.028933 83.762025 
L 228.522229 83.762025 
L 228.645553 53.837358 
L 228.768877 215.430562 
L 229.138849 202.359467 
L 229.508821 179.772616 
L 229.878793 140.742536 
L 230.248765 73.298558 
L 230.372089 217.376682 
L 230.742061 205.722363 
L 231.112033 185.583699 
L 231.482005 150.784088 
L 231.851977 90.650359 
L 231.975301 62.103359 
L 232.098625 216.257162 
L 232.468597 203.787832 
L 232.838569 182.24083 
L 233.208541 145.007611 
L 233.578513 80.668607 
L 233.701837 218.113687 
L 234.071809 206.995907 
L 234.441781 187.784384 
L 234.811753 154.586871 
L 235.181725 97.22157 
L 235.305049 69.988811 
L 235.428373 217.045708 
L 235.798345 205.150439 
L 236.168317 184.595414 
L 236.538289 149.076331 
L 237.031585 87.699356 
L 238.758121 87.699356 
L 238.881445 58.562155 
L 239.004769 215.903042 
L 239.374741 203.175912 
L 239.744713 181.183432 
L 240.114685 143.180427 
L 240.484657 77.511234 
L 240.607981 217.79795 
L 240.977953 206.450313 
L 241.347925 186.841597 
L 241.717897 152.957736 
L 242.087869 94.406424 
L 242.211193 66.610636 
L 242.334517 216.70789 
L 242.704489 204.56669 
L 243.074461 183.586696 
L 243.444433 147.333267 
L 243.814405 84.687342 
L 243.937729 218.515561 
L 244.307701 207.690345 
L 244.677673 188.984371 
L 245.047645 156.66045 
L 245.417617 100.804713 
L 245.540941 74.288583 
L 245.664265 217.475685 
L 246.034237 205.893439 
L 246.404209 185.879319 
L 246.774181 151.294919 
L 247.267477 91.533076 
L 247.390801 91.533076 
L 247.514125 63.162619 
L 247.637449 216.363088 
L 248.007421 203.970873 
L 248.377393 182.557124 
L 248.747365 145.554166 
L 249.117337 81.613055 
L 249.240661 218.208132 
L 249.610633 207.159108 
L 249.980605 188.066394 
L 250.350577 155.074185 
L 250.720549 98.063648 
L 250.843873 70.999305 
L 250.967197 217.146757 
L 251.337169 205.325052 
L 251.707141 184.897146 
L 252.077113 149.597724 
L 252.447085 88.600323 
L 252.570409 59.643315 
L 252.693733 216.011158 
L 253.063705 203.362737 
L 253.433677 181.506265 
L 253.803649 143.738282 
L 254.296945 78.475208 
L 255.653509 78.475208 
L 255.776833 217.894347 
L 256.146805 206.616888 
L 256.516777 187.129438 
L 256.886749 153.455125 
L 257.256721 95.265912 
L 257.380045 67.642022 
L 257.503369 216.811029 
L 257.873341 204.744913 
L 258.243313 183.894666 
L 258.613285 147.86544 
L 258.983257 85.606936 
L 259.106581 218.60752 
L 259.476553 207.84925 
L 259.846525 189.258961 
L 260.216497 157.13494 
L 260.586469 101.624633 
L 260.709793 75.272487 
L 260.833117 217.574075 
L 261.203089 206.063458 
L 261.573061 186.173111 
L 261.943033 151.802592 
L 262.313005 92.410334 
L 262.436329 64.215328 
L 262.559653 216.468359 
L 262.929625 204.152781 
L 263.299597 182.871461 
L 263.669569 146.097341 
L 264.162865 82.551661 
L 269.095825 82.551661 
L 269.219149 52.384921 
L 269.342473 215.285318 
L 269.712445 202.108486 
L 270.082417 179.33892 
L 270.452389 139.99311 
L 270.822361 72.00355 
L 270.945685 217.247181 
L 271.315657 205.498586 
L 271.685629 185.197012 
L 272.055601 150.115892 
L 272.425573 89.495718 
L 272.548897 60.717789 
L 272.672221 216.118605 
L 273.042193 203.548406 
L 273.412165 181.827101 
L 273.782137 144.292687 
L 274.152109 79.433219 
L 274.275433 217.990148 
L 274.645405 206.782432 
L 275.015377 187.415499 
L 275.385349 153.949438 
L 275.755321 96.120085 
L 275.878645 68.66703 
L 276.001969 216.913529 
L 276.371941 204.922035 
L 276.741913 184.200732 
L 277.111885 148.394321 
L 277.605181 86.520843 
L 277.851829 86.520843 
L 277.975153 57.147938 
L 278.098477 215.76162 
L 278.468449 202.931536 
L 278.838421 180.76115 
L 279.208393 142.450723 
L 279.578365 76.250305 
L 279.701689 217.671857 
L 280.071661 206.232425 
L 280.441633 186.465086 
L 280.811605 152.307124 
L 281.181577 93.282167 
L 281.304901 65.261528 
L 281.428225 216.572979 
L 281.798197 204.333564 
L 282.168169 183.183855 
L 282.538141 146.637157 
L 282.908113 83.484463 
L 283.031438 53.504283 
L 283.154762 215.397255 
L 283.524734 202.301912 
L 283.894706 179.67316 
L 284.264678 140.570676 
L 284.63465 73.001585 
L 284.757974 217.346985 
L 285.127946 205.671046 
L 285.497918 185.495023 
L 285.86789 150.630856 
L 286.237862 90.385575 
L 286.361186 61.785618 
L 286.48451 216.225388 
L 286.854482 203.732927 
L 287.224454 182.145953 
L 287.594426 144.843663 
L 287.964398 80.385307 
L 288.087722 218.085357 
L 288.457694 206.946953 
L 288.827666 187.699791 
L 289.197638 154.440694 
L 289.56761 96.968976 
L 289.690934 69.685698 
L 289.814258 217.015396 
L 290.18423 205.098061 
L 290.554202 184.504905 
L 290.924174 148.919932 
L 291.540794 58.237845 
L 291.664118 215.870611 
L 292.03409 203.119872 
L 292.404062 181.086594 
L 292.774034 143.01309 
L 293.144006 77.222076 
L 293.26733 217.769034 
L 293.637302 206.400347 
L 294.007274 186.755255 
L 294.377246 152.808537 
L 294.747218 94.148608 
L 294.870542 66.301257 
L 294.993866 216.676952 
L 295.363838 204.513229 
L 295.73381 183.494316 
L 296.103782 147.173634 
L 296.473754 84.411496 
L 296.597078 218.487976 
L 296.96705 207.642678 
L 297.337022 188.902004 
L 297.706994 156.518119 
L 298.076966 100.558766 
L 298.20029 73.993447 
L 298.323614 217.446171 
L 298.693586 205.84244 
L 299.063558 185.791192 
L 299.43353 151.142635 
L 299.803502 91.26993 
L 299.926826 62.846843 
L 300.05015 216.331511 
L 300.420122 203.916307 
L 300.790094 182.462834 
L 301.160066 145.391232 
L 301.530038 81.331506 
L 301.653362 218.179977 
L 302.023334 207.110456 
L 302.393306 187.982324 
L 302.763278 154.928912 
L 303.13325 97.812616 
L 303.256574 70.698067 
L 303.379898 217.116633 
L 303.74987 205.272998 
L 304.119842 184.807197 
L 304.489814 149.442292 
L 304.98311 88.331736 
L 306.21635 88.331736 
L 306.339674 218.88 
L 306.709646 208.320096 
L 307.079618 190.072582 
L 307.44959 158.540877 
L 307.819562 104.054092 
L 307.942886 78.187838 
L 308.06621 217.86561 
L 308.436182 206.56723 
L 308.806154 187.04363 
L 309.176126 153.306849 
L 309.669422 95.009691 
L 309.792746 95.009691 
L 309.91607 67.334556 
L 310.039394 216.780282 
L 310.409366 204.691783 
L 310.779338 183.802858 
L 311.14931 147.706794 
L 311.519282 85.332796 
L 311.642606 218.580106 
L 312.012578 207.801879 
L 312.38255 189.177103 
L 312.752522 156.99349 
L 313.122494 101.380207 
L 313.245818 74.979175 
L 313.369142 217.544744 
L 313.739114 206.012774 
L 314.109086 186.085529 
L 314.479058 151.651249 
L 315.095678 63.901506 
L 315.219002 216.436977 
L 315.588974 204.098552 
L 315.958946 182.777754 
L 316.328918 145.935415 
L 316.69889 82.271853 
L 316.822214 218.274012 
L 317.192186 207.272948 
L 317.562158 188.263111 
L 317.93213 155.414111 
L 318.302102 98.65104 
L 318.425426 71.704175 
L 318.54875 217.217244 
L 318.918722 205.446853 
L 319.288694 185.107619 
L 319.658666 149.961421 
L 320.151962 89.228792 
L 320.275286 89.228792 
L 320.39861 60.397478 
L 320.521934 216.086574 
L 320.891906 203.493056 
L 321.261878 181.731457 
L 321.63185 144.127414 
L 322.001822 79.147627 
L 322.125146 217.961589 
L 322.495118 206.733082 
L 322.86509 187.330222 
L 323.235062 153.802079 
L 323.605034 95.865448 
L 323.728358 68.361465 
L 323.851682 216.882973 
L 324.221654 204.869233 
L 324.591626 184.109491 
L 324.961598 148.236656 
L 325.33157 86.248398 
L 325.454894 218.671666 
L 325.824866 207.960095 
L 326.194838 189.4505 
L 326.56481 157.465921 
L 326.934782 102.196567 
L 327.058106 75.958808 
L 327.18143 217.642707 
L 327.551402 206.182054 
L 327.921374 186.378045 
L 328.291346 152.156718 
L 328.661318 93.022265 
L 328.784642 64.949645 
L 328.907966 216.541791 
L 329.277938 204.279671 
L 329.64791 183.090727 
L 330.017882 146.476232 
L 330.387854 83.206385 
L 330.511178 218.367465 
L 330.88115 207.434435 
L 331.251122 188.54216 
L 331.621094 155.896309 
L 331.991066 99.484278 
L 332.11439 72.704061 
L 332.237714 217.317233 
L 332.607686 205.619634 
L 332.977658 185.406183 
L 333.34763 150.47734 
L 333.96425 61.467288 
L 334.087574 216.193555 
L 334.457546 203.677919 
L 334.827518 182.050901 
L 335.19749 144.679412 
L 335.567462 80.10148 
L 335.690786 218.056974 
L 336.060758 206.897908 
L 336.43073 187.615041 
L 336.800702 154.294246 
L 337.170674 96.715913 
L 337.293998 69.382023 
L 337.417322 216.985029 
L 337.787294 205.045586 
L 338.157266 184.414228 
L 338.527238 148.763242 
L 339.143858 57.912933 
L 339.267182 215.83812 
L 339.637154 203.063727 
L 340.007126 180.989576 
L 340.377098 142.845443 
L 340.74707 76.932382 
L 340.870394 217.740065 
L 341.240366 206.350288 
L 341.610338 186.668753 
L 341.98031 152.659061 
L 342.350282 93.890313 
L 342.473606 65.991303 
L 342.59693 216.645957 
L 342.966902 204.459669 
L 343.336874 183.401764 
L 343.706846 147.013705 
L 344.200142 84.135138 
L 345.68003 84.135138 
L 345.803354 54.285093 
L 345.926678 215.475336 
L 346.29665 202.436836 
L 346.666622 179.906309 
L 347.036594 140.973557 
L 347.406566 73.697763 
L 347.52989 217.416603 
L 347.899862 205.791346 
L 348.269834 185.702901 
L 348.639806 150.990069 
L 349.009778 91.006295 
L 349.133102 62.530481 
L 349.256426 216.299875 
L 349.626398 203.861639 
L 349.99637 182.368369 
L 350.366342 145.227997 
L 350.736314 81.049434 
L 350.859638 50.582249 
L 350.982962 215.105051 
L 351.352934 201.796985 
L 351.722906 178.800645 
L 352.092878 139.062971 
L 352.586174 70.39627 
L 356.285895 70.39627 
L 356.409219 217.086453 
L 356.779191 205.220847 
L 357.149163 184.71708 
L 357.149163 184.71708 
" clip-path="url(#p3318e4e231)" style="fill: none; stroke: #1f77b4; stroke-width: 1.5; stroke-linecap: square"/>
   </g>
   <g id="patch_3">
    <path d="M 37.567344 228.96 
L 37.567344 7.2 
" style="fill: none; stroke: #000000; stroke-width: 0.8; stroke-linejoin: miter; stroke-linecap: square"/>
   </g>
   <g id="patch_4">
    <path d="M 372.367344 228.96 
L 372.367344 7.2 
" style="fill: none; stroke: #000000; stroke-width: 0.8; stroke-linejoin: miter; stroke-linecap: square"/>
   </g>
   <g id="patch_5">
    <path d="M 37.567344 228.96 
L 372.367344 228.96 
" style="fill: none; stroke: #000000; stroke-width: 0.8; stroke-linejoin: miter; stroke-linecap: square"/>
   </g>
   <g id="patch_6">
    <path d="M 37.567344 7.2 
L 372.367344 7.2 
" style="fill: none; stroke: #000000; stroke-width: 0.8; stroke-linejoin: miter; stroke-linecap: square"/>
   </g>
   <g id="legend_1">
    <g id="patch_7">
     <path d="M 314.548024 29.420307 
L 365.367344 29.420307 
Q 367.367344 29.420307 367.367344 27.420307 
L 367.367344 14.2 
Q 367.367344 12.2 365.367344 12.2 
L 314.548024 12.2 
Q 312.548024 12.2 312.548024 14.2 
L 312.548024 27.420307 
Q 312.548024 29.420307 314.548024 29.420307 
z
" style="fill: #ffffff; opacity: 0.8; stroke: #cccccc; stroke-linejoin: miter"/>
    </g>
    <g id="line2d_13">
     <path d="M 316.548024 19.79832 
L 326.548024 19.79832 
L 336.548024 19.79832 
" style="fill: none; stroke: #1f77b4; stroke-width: 1.5; stroke-linecap: square"/>
    </g>
    <g id="text_14">
     <!-- CFL -->
     <g transform="translate(344.548024 23.29832) scale(0.1 -0.1)">
      <use xlink:href="#NimbusSanL-Regu-43" transform="scale(0.996264)"/>
      <use xlink:href="#NimbusSanL-Regu-46" transform="translate(71.929985 0) scale(0.996264)"/>
      <use xlink:href="#NimbusSanL-Regu-4c" transform="translate(132.801616 0) scale(0.996264)"/>
     </g>
    </g>
   </g>
  </g>
 </g>
 <defs>
  <clipPath id="p3318e4e231">
   <rect x="37.567344" y="7.2" width="334.8" height="221.76"/>
  </clipPath>
 </defs>
</svg>
