<?xml version="1.0" encoding="utf-8" standalone="no"?>
<!DOCTYPE svg PUBLIC "-//W3C//DTD SVG 1.1//EN"
  "http://www.w3.org/Graphics/SVG/1.1/DTD/svg11.dtd">
<svg xmlns:xlink="http://www.w3.org/1999/xlink" width="417.314698pt" height="265.600613pt" viewBox="0 0 417.314698 265.600613" xmlns="http://www.w3.org/2000/svg" version="1.1">
 <metadata>
  <rdf:RDF xmlns:dc="http://purl.org/dc/elements/1.1/" xmlns:cc="http://creativecommons.org/ns#" xmlns:rdf="http://www.w3.org/1999/02/22-rdf-syntax-ns#">
   <cc:Work>
    <dc:type rdf:resource="http://purl.org/dc/dcmitype/StillImage"/>
    <dc:date>2025-08-02T14:21:31.845743</dc:date>
    <dc:format>image/svg+xml</dc:format>
    <dc:creator>
     <cc:Agent>
      <dc:title>Matplotlib v3.10.3, https://matplotlib.org/</dc:title>
     </cc:Agent>
    </dc:creator>
   </cc:Work>
  </rdf:RDF>
 </metadata>
 <defs>
  <style type="text/css">*{stroke-linejoin: round; stroke-linecap: butt}</style>
 </defs>
 <g id="figure_1">
  <g id="patch_1">
   <path d="M 0 265.600613 
L 417.314698 265.600613 
L 417.314698 0 
L 0 0 
z
" style="fill: #ffffff"/>
  </g>
  <g id="axes_1">
   <g id="patch_2">
    <path d="M 40.150386 228.96 
L 374.950386 228.96 
L 374.950386 7.2 
L 40.150386 7.2 
z
" style="fill: #ffffff"/>
   </g>
   <g id="matplotlib.axis_1">
    <g id="xtick_1">
     <g id="line2d_1">
      <defs>
       <path id="m96d3047b1e" d="M 0 0 
L 0 3.5 
" style="stroke: #000000; stroke-width: 0.8"/>
      </defs>
      <g>
       <use xlink:href="#m96d3047b1e" x="55.368567" y="228.96" style="stroke: #000000; stroke-width: 0.8"/>
      </g>
     </g>
     <g id="text_1">
      <!-- $\mathdefault{0}$ -->
      <g transform="translate(52.8779 243.05832) scale(0.1 -0.1)">
       <defs>
        <path id="CMR17-30" d="M 2688 2038 
C 2688 2430 2682 3099 2413 3613 
C 2176 4063 1798 4224 1466 4224 
C 1158 4224 768 4082 525 3620 
C 269 3137 243 2539 243 2038 
C 243 1671 250 1112 448 623 
C 723 -39 1216 -128 1466 -128 
C 1760 -128 2208 -7 2470 604 
C 2662 1048 2688 1568 2688 2038 
z
M 1466 -26 
C 1056 -26 813 328 723 816 
C 653 1196 653 1749 653 2109 
C 653 2604 653 3015 736 3407 
C 858 3954 1216 4121 1466 4121 
C 1728 4121 2067 3947 2189 3420 
C 2272 3054 2278 2623 2278 2109 
C 2278 1691 2278 1176 2202 797 
C 2067 96 1690 -26 1466 -26 
z
" transform="scale(0.015625)"/>
       </defs>
       <use xlink:href="#CMR17-30" transform="scale(0.996264)"/>
      </g>
     </g>
    </g>
    <g id="xtick_2">
     <g id="line2d_2">
      <g>
       <use xlink:href="#m96d3047b1e" x="117.030568" y="228.96" style="stroke: #000000; stroke-width: 0.8"/>
      </g>
     </g>
     <g id="text_2">
      <!-- $\mathdefault{500}$ -->
      <g transform="translate(109.558565 243.05832) scale(0.1 -0.1)">
       <defs>
        <path id="CMR17-35" d="M 730 3750 
C 794 3724 1056 3641 1325 3641 
C 1920 3641 2246 3961 2432 4140 
C 2432 4191 2432 4224 2394 4224 
C 2387 4224 2374 4224 2323 4198 
C 2099 4102 1837 4032 1517 4032 
C 1325 4032 1037 4055 723 4191 
C 653 4224 640 4224 634 4224 
C 602 4224 595 4217 595 4090 
L 595 2231 
C 595 2113 595 2080 659 2080 
C 691 2080 704 2093 736 2139 
C 941 2435 1222 2560 1542 2560 
C 1766 2560 2246 2415 2246 1293 
C 2246 1087 2246 716 2054 422 
C 1894 159 1645 25 1370 25 
C 947 25 518 319 403 812 
C 429 806 480 793 506 793 
C 589 793 749 838 749 1036 
C 749 1209 627 1280 506 1280 
C 358 1280 262 1190 262 1011 
C 262 454 704 -128 1382 -128 
C 2042 -128 2669 441 2669 1267 
C 2669 2054 2170 2662 1549 2662 
C 1222 2662 947 2540 730 2304 
L 730 3750 
z
" transform="scale(0.015625)"/>
       </defs>
       <use xlink:href="#CMR17-35" transform="scale(0.996264)"/>
       <use xlink:href="#CMR17-30" transform="translate(45.690477 0) scale(0.996264)"/>
       <use xlink:href="#CMR17-30" transform="translate(91.380954 0) scale(0.996264)"/>
      </g>
     </g>
    </g>
    <g id="xtick_3">
     <g id="line2d_3">
      <g>
       <use xlink:href="#m96d3047b1e" x="178.692569" y="228.96" style="stroke: #000000; stroke-width: 0.8"/>
      </g>
     </g>
     <g id="text_3">
      <!-- $\mathdefault{1000}$ -->
      <g transform="translate(168.729899 243.05832) scale(0.1 -0.1)">
       <defs>
        <path id="CMR17-31" d="M 1702 4083 
C 1702 4217 1696 4224 1606 4224 
C 1357 3927 979 3833 621 3820 
C 602 3820 570 3820 563 3808 
C 557 3795 557 3782 557 3648 
C 755 3648 1088 3686 1344 3839 
L 1344 467 
C 1344 243 1331 166 781 166 
L 589 166 
L 589 0 
C 896 6 1216 12 1523 12 
C 1830 12 2150 6 2458 0 
L 2458 166 
L 2266 166 
C 1715 166 1702 236 1702 467 
L 1702 4083 
z
" transform="scale(0.015625)"/>
       </defs>
       <use xlink:href="#CMR17-31" transform="scale(0.996264)"/>
       <use xlink:href="#CMR17-30" transform="translate(45.690477 0) scale(0.996264)"/>
       <use xlink:href="#CMR17-30" transform="translate(91.380954 0) scale(0.996264)"/>
       <use xlink:href="#CMR17-30" transform="translate(137.071431 0) scale(0.996264)"/>
      </g>
     </g>
    </g>
    <g id="xtick_4">
     <g id="line2d_4">
      <g>
       <use xlink:href="#m96d3047b1e" x="240.35457" y="228.96" style="stroke: #000000; stroke-width: 0.8"/>
      </g>
     </g>
     <g id="text_4">
      <!-- $\mathdefault{1500}$ -->
      <g transform="translate(230.3919 243.05832) scale(0.1 -0.1)">
       <use xlink:href="#CMR17-31" transform="scale(0.996264)"/>
       <use xlink:href="#CMR17-35" transform="translate(45.690477 0) scale(0.996264)"/>
       <use xlink:href="#CMR17-30" transform="translate(91.380954 0) scale(0.996264)"/>
       <use xlink:href="#CMR17-30" transform="translate(137.071431 0) scale(0.996264)"/>
      </g>
     </g>
    </g>
    <g id="xtick_5">
     <g id="line2d_5">
      <g>
       <use xlink:href="#m96d3047b1e" x="302.016571" y="228.96" style="stroke: #000000; stroke-width: 0.8"/>
      </g>
     </g>
     <g id="text_5">
      <!-- $\mathdefault{2000}$ -->
      <g transform="translate(292.0539 243.05832) scale(0.1 -0.1)">
       <defs>
        <path id="CMR17-32" d="M 2669 990 
L 2554 990 
C 2490 537 2438 460 2413 422 
C 2381 371 1920 371 1830 371 
L 602 371 
C 832 620 1280 1073 1824 1596 
C 2214 1966 2669 2400 2669 3033 
C 2669 3788 2067 4224 1395 4224 
C 691 4224 262 3603 262 3027 
C 262 2777 448 2745 525 2745 
C 589 2745 781 2783 781 3007 
C 781 3206 614 3264 525 3264 
C 486 3264 448 3257 422 3244 
C 544 3788 915 4057 1306 4057 
C 1862 4057 2227 3616 2227 3033 
C 2227 2477 1901 1998 1536 1583 
L 262 147 
L 262 0 
L 2515 0 
L 2669 990 
z
" transform="scale(0.015625)"/>
       </defs>
       <use xlink:href="#CMR17-32" transform="scale(0.996264)"/>
       <use xlink:href="#CMR17-30" transform="translate(45.690477 0) scale(0.996264)"/>
       <use xlink:href="#CMR17-30" transform="translate(91.380954 0) scale(0.996264)"/>
       <use xlink:href="#CMR17-30" transform="translate(137.071431 0) scale(0.996264)"/>
      </g>
     </g>
    </g>
    <g id="xtick_6">
     <g id="line2d_6">
      <g>
       <use xlink:href="#m96d3047b1e" x="363.678572" y="228.96" style="stroke: #000000; stroke-width: 0.8"/>
      </g>
     </g>
     <g id="text_6">
      <!-- $\mathdefault{2500}$ -->
      <g transform="translate(353.715901 243.05832) scale(0.1 -0.1)">
       <use xlink:href="#CMR17-32" transform="scale(0.996264)"/>
       <use xlink:href="#CMR17-35" transform="translate(45.690477 0) scale(0.996264)"/>
       <use xlink:href="#CMR17-30" transform="translate(91.380954 0) scale(0.996264)"/>
       <use xlink:href="#CMR17-30" transform="translate(137.071431 0) scale(0.996264)"/>
      </g>
     </g>
    </g>
    <g id="text_7">
     <!-- Iteration -->
     <g transform="translate(189.603009 256.278627) scale(0.1 -0.1)">
      <defs>
       <path id="NimbusSanL-Regu-49" d="M 1242 4672 
L 640 4672 
L 640 0 
L 1242 0 
L 1242 4672 
z
" transform="scale(0.015625)"/>
       <path id="NimbusSanL-Regu-74" d="M 1626 3328 
L 1075 3328 
L 1075 4249 
L 544 4249 
L 544 3328 
L 90 3328 
L 90 2892 
L 544 2892 
L 544 402 
C 544 64 774 -128 1190 -128 
C 1318 -128 1446 -116 1626 -84 
L 1626 364 
C 1555 345 1472 339 1370 339 
C 1139 339 1075 402 1075 634 
L 1075 2892 
L 1626 2892 
L 1626 3328 
z
" transform="scale(0.015625)"/>
       <path id="NimbusSanL-Regu-65" d="M 3283 1484 
C 3283 1998 3245 2311 3149 2565 
C 2931 3123 2419 3456 1792 3456 
C 858 3456 256 2734 256 1619 
C 256 545 838 -128 1779 -128 
C 2547 -128 3078 307 3213 1018 
L 2675 1018 
C 2528 588 2227 364 1798 364 
C 1459 364 1171 514 992 787 
C 864 974 819 1161 813 1484 
L 3283 1484 
z
M 826 1920 
C 870 2552 1248 2963 1786 2963 
C 2310 2963 2714 2519 2714 1959 
C 2714 1946 2714 1933 2707 1920 
L 826 1920 
z
" transform="scale(0.015625)"/>
       <path id="NimbusSanL-Regu-72" d="M 442 3328 
L 442 0 
L 979 0 
L 979 1727 
C 979 2203 1101 2514 1357 2698 
C 1523 2819 1683 2857 2054 2863 
L 2054 3404 
C 1965 3449 1920 3456 1850 3456 
C 1504 3456 1242 3251 934 2750 
L 934 3328 
L 442 3328 
z
" transform="scale(0.015625)"/>
       <path id="NimbusSanL-Regu-61" d="M 3424 332 
C 3366 320 3341 320 3309 320 
C 3123 320 3021 415 3021 581 
L 3021 2542 
C 3021 3135 2586 3456 1760 3456 
C 1274 3456 870 3315 646 3065 
C 493 2893 429 2702 416 2370 
L 954 2370 
C 998 2778 1242 2963 1741 2963 
C 2221 2963 2490 2784 2490 2466 
L 2490 2326 
C 2490 2103 2355 2007 1933 1956 
C 1178 1861 1062 1835 858 1753 
C 467 1593 269 1294 269 861 
C 269 256 691 -128 1370 -128 
C 1792 -128 2131 19 2509 364 
C 2547 25 2714 -128 3059 -128 
C 3168 -128 3251 -116 3424 -71 
L 3424 332 
z
M 2490 1071 
C 2490 893 2438 785 2278 638 
C 2061 441 1798 339 1485 339 
C 1069 339 826 536 826 874 
C 826 1224 1062 1402 1632 1485 
C 2195 1562 2310 1587 2490 1670 
L 2490 1071 
z
" transform="scale(0.015625)"/>
       <path id="NimbusSanL-Regu-69" d="M 960 3358 
L 429 3358 
L 429 0 
L 960 0 
L 960 3358 
z
M 960 4672 
L 422 4672 
L 422 3999 
L 960 3999 
L 960 4672 
z
" transform="scale(0.015625)"/>
       <path id="NimbusSanL-Regu-6f" d="M 1741 3456 
C 800 3456 230 2784 230 1663 
C 230 543 794 -128 1747 -128 
C 2688 -128 3264 543 3264 1638 
C 3264 2791 2707 3456 1741 3456 
z
M 1747 2963 
C 2349 2963 2707 2472 2707 1644 
C 2707 861 2336 364 1747 364 
C 1152 364 787 855 787 1663 
C 787 2466 1152 2963 1747 2963 
z
" transform="scale(0.015625)"/>
       <path id="NimbusSanL-Regu-6e" d="M 448 3328 
L 448 0 
L 986 0 
L 986 1835 
C 986 2539 1344 2988 1894 2988 
C 2317 2988 2586 2732 2586 2328 
L 2586 0 
L 3117 0 
L 3117 2539 
C 3117 3097 2701 3456 2054 3456 
C 1555 3456 1235 3263 941 2796 
L 941 3328 
L 448 3328 
z
" transform="scale(0.015625)"/>
      </defs>
      <use xlink:href="#NimbusSanL-Regu-49" transform="scale(0.996264)"/>
      <use xlink:href="#NimbusSanL-Regu-74" transform="translate(27.69517 0) scale(0.996264)"/>
      <use xlink:href="#NimbusSanL-Regu-65" transform="translate(55.390339 0) scale(0.996264)"/>
      <use xlink:href="#NimbusSanL-Regu-72" transform="translate(110.782016 0) scale(0.996264)"/>
      <use xlink:href="#NimbusSanL-Regu-61" transform="translate(142.961149 0) scale(0.996264)"/>
      <use xlink:href="#NimbusSanL-Regu-74" transform="translate(198.352826 0) scale(0.996264)"/>
      <use xlink:href="#NimbusSanL-Regu-69" transform="translate(226.047996 0) scale(0.996264)"/>
      <use xlink:href="#NimbusSanL-Regu-6f" transform="translate(248.16478 0) scale(0.996264)"/>
      <use xlink:href="#NimbusSanL-Regu-6e" transform="translate(303.556457 0) scale(0.996264)"/>
     </g>
    </g>
   </g>
   <g id="matplotlib.axis_2">
    <g id="ytick_1">
     <g id="line2d_7">
      <defs>
       <path id="me4b7468a14" d="M 0 0 
L -3.5 0 
" style="stroke: #000000; stroke-width: 0.8"/>
      </defs>
      <g>
       <use xlink:href="#me4b7468a14" x="40.150386" y="197.433772" style="stroke: #000000; stroke-width: 0.8"/>
      </g>
     </g>
     <g id="text_8">
      <!-- $\mathdefault{−6}$ -->
      <g transform="translate(20.420307 200.982933) scale(0.1 -0.1)">
       <defs>
        <path id="CMSY10-0" d="M 4218 1472 
C 4326 1472 4442 1472 4442 1600 
C 4442 1728 4326 1728 4218 1728 
L 755 1728 
C 646 1728 531 1728 531 1600 
C 531 1472 646 1472 755 1472 
L 4218 1472 
z
" transform="scale(0.015625)"/>
        <path id="CMR17-36" d="M 678 2198 
C 678 3712 1395 4076 1811 4076 
C 1946 4076 2272 4049 2400 3782 
C 2298 3782 2106 3782 2106 3558 
C 2106 3385 2246 3328 2336 3328 
C 2394 3328 2566 3353 2566 3571 
C 2566 3987 2246 4224 1805 4224 
C 1043 4224 243 3411 243 2011 
C 243 257 966 -128 1478 -128 
C 2099 -128 2688 431 2688 1295 
C 2688 2101 2170 2688 1517 2688 
C 1126 2688 838 2430 678 1979 
L 678 2198 
z
M 1478 25 
C 691 25 691 1212 691 1450 
C 691 1914 909 2585 1504 2585 
C 1613 2585 1926 2585 2138 2140 
C 2253 1889 2253 1624 2253 1302 
C 2253 954 2253 696 2118 438 
C 1978 173 1773 25 1478 25 
z
" transform="scale(0.015625)"/>
       </defs>
       <use xlink:href="#CMSY10-0" transform="scale(0.996264)"/>
       <use xlink:href="#CMR17-36" transform="translate(77.487468 0) scale(0.996264)"/>
      </g>
     </g>
    </g>
    <g id="ytick_2">
     <g id="line2d_8">
      <g>
       <use xlink:href="#me4b7468a14" x="40.150386" y="154.606048" style="stroke: #000000; stroke-width: 0.8"/>
      </g>
     </g>
     <g id="text_9">
      <!-- $\mathdefault{−4}$ -->
      <g transform="translate(20.420307 158.155208) scale(0.1 -0.1)">
       <defs>
        <path id="CMR17-34" d="M 2150 4147 
C 2150 4281 2144 4288 2029 4288 
L 128 1254 
L 128 1088 
L 1779 1088 
L 1779 460 
C 1779 230 1766 166 1318 166 
L 1197 166 
L 1197 0 
C 1402 12 1747 12 1965 12 
C 2182 12 2528 12 2733 0 
L 2733 166 
L 2611 166 
C 2163 166 2150 230 2150 460 
L 2150 1088 
L 2803 1088 
L 2803 1254 
L 2150 1254 
L 2150 4147 
z
M 1798 3723 
L 1798 1254 
L 256 1254 
L 1798 3723 
z
" transform="scale(0.015625)"/>
       </defs>
       <use xlink:href="#CMSY10-0" transform="scale(0.996264)"/>
       <use xlink:href="#CMR17-34" transform="translate(77.487468 0) scale(0.996264)"/>
      </g>
     </g>
    </g>
    <g id="ytick_3">
     <g id="line2d_9">
      <g>
       <use xlink:href="#me4b7468a14" x="40.150386" y="111.778324" style="stroke: #000000; stroke-width: 0.8"/>
      </g>
     </g>
     <g id="text_10">
      <!-- $\mathdefault{−2}$ -->
      <g transform="translate(20.420307 115.327484) scale(0.1 -0.1)">
       <use xlink:href="#CMSY10-0" transform="scale(0.996264)"/>
       <use xlink:href="#CMR17-32" transform="translate(77.487468 0) scale(0.996264)"/>
      </g>
     </g>
    </g>
    <g id="ytick_4">
     <g id="line2d_10">
      <g>
       <use xlink:href="#me4b7468a14" x="40.150386" y="68.9506" style="stroke: #000000; stroke-width: 0.8"/>
      </g>
     </g>
     <g id="text_11">
      <!-- $\mathdefault{0}$ -->
      <g transform="translate(28.16905 72.49976) scale(0.1 -0.1)">
       <use xlink:href="#CMR17-30" transform="scale(0.996264)"/>
      </g>
     </g>
    </g>
    <g id="ytick_5">
     <g id="line2d_11">
      <g>
       <use xlink:href="#me4b7468a14" x="40.150386" y="26.122876" style="stroke: #000000; stroke-width: 0.8"/>
      </g>
     </g>
     <g id="text_12">
      <!-- $\mathdefault{2}$ -->
      <g transform="translate(28.16905 29.672036) scale(0.1 -0.1)">
       <use xlink:href="#CMR17-32" transform="scale(0.996264)"/>
      </g>
     </g>
    </g>
    <g id="text_13">
     <!-- RMS residual - Blade_0 -->
     <g transform="translate(14.29832 169.700806) rotate(-90) scale(0.1 -0.1)">
      <defs>
       <path id="NimbusSanL-Regu-52" d="M 1190 2035 
L 2726 2035 
C 3258 2035 3494 1775 3494 1191 
L 3488 770 
C 3488 478 3539 192 3622 0 
L 4346 0 
L 4346 147 
C 4122 303 4077 471 4064 1101 
C 4058 1879 3936 2111 3430 2329 
C 3955 2585 4166 2907 4166 3432 
C 4166 4230 3661 4672 2746 4672 
L 595 4672 
L 595 0 
L 1190 0 
L 1190 2035 
z
M 1190 2560 
L 1190 4147 
L 2630 4147 
C 2963 4147 3155 4096 3302 3970 
C 3462 3837 3546 3628 3546 3350 
C 3546 2806 3264 2560 2630 2560 
L 1190 2560 
z
" transform="scale(0.015625)"/>
       <path id="NimbusSanL-Regu-4d" d="M 2995 0 
L 4307 3915 
L 4307 0 
L 4870 0 
L 4870 4672 
L 4045 4672 
L 2688 602 
L 1306 4672 
L 480 4672 
L 480 0 
L 1043 0 
L 1043 3915 
L 2368 0 
L 2995 0 
z
" transform="scale(0.015625)"/>
       <path id="NimbusSanL-Regu-53" d="M 3814 3295 
C 3808 4204 3181 4736 2106 4736 
C 1082 4736 448 4211 448 3372 
C 448 2806 749 2450 1363 2291 
L 2522 1986 
C 3110 1833 3379 1598 3379 1236 
C 3379 988 3245 733 3046 593 
C 2861 466 2566 396 2189 396 
C 1683 396 1338 517 1114 784 
C 941 988 864 1210 870 1496 
L 307 1496 
C 314 1070 397 790 582 536 
C 902 102 1440 -128 2150 -128 
C 2707 -128 3162 0 3462 230 
C 3776 479 3974 892 3974 1293 
C 3974 1865 3616 2284 2982 2456 
L 1811 2768 
C 1248 2920 1043 3098 1043 3454 
C 1043 3925 1459 4236 2086 4236 
C 2829 4236 3245 3899 3251 3295 
L 3814 3295 
z
" transform="scale(0.015625)"/>
       <path id="NimbusSanL-Regu-73" d="M 2803 2428 
C 2797 3084 2362 3456 1587 3456 
C 806 3456 301 3052 301 2434 
C 301 1912 570 1663 1363 1472 
L 1862 1351 
C 2234 1262 2381 1129 2381 887 
C 2381 574 2067 364 1600 364 
C 1312 364 1069 447 934 587 
C 851 683 813 778 781 1014 
L 218 1014 
C 243 243 678 -128 1555 -128 
C 2400 -128 2938 288 2938 931 
C 2938 1428 2656 1702 1990 1861 
L 1478 1982 
C 1043 2084 858 2224 858 2459 
C 858 2765 1133 2963 1568 2963 
C 1997 2963 2227 2778 2240 2428 
L 2803 2428 
z
" transform="scale(0.015625)"/>
       <path id="NimbusSanL-Regu-64" d="M 3168 4672 
L 2637 4672 
L 2637 2937 
C 2413 3276 2054 3456 1606 3456 
C 736 3456 166 2759 166 1695 
C 166 568 723 -128 1626 -128 
C 2086 -128 2406 44 2694 460 
L 2694 19 
L 3168 19 
L 3168 4672 
z
M 1696 2956 
C 2272 2956 2637 2447 2637 1651 
C 2637 880 2266 371 1702 371 
C 1114 371 723 887 723 1663 
C 723 2440 1114 2956 1696 2956 
z
" transform="scale(0.015625)"/>
       <path id="NimbusSanL-Regu-75" d="M 3085 19 
L 3085 3328 
L 2554 3328 
L 2554 1454 
C 2554 780 2195 339 1638 339 
C 1216 339 947 591 947 988 
L 947 3328 
L 416 3328 
L 416 780 
C 416 230 832 -128 1485 -128 
C 1978 -128 2291 44 2605 484 
L 2605 19 
L 3085 19 
z
" transform="scale(0.015625)"/>
       <path id="NimbusSanL-Regu-6c" d="M 973 4672 
L 435 4672 
L 435 0 
L 973 0 
L 973 4672 
z
" transform="scale(0.015625)"/>
       <path id="NimbusSanL-Regu-2d" d="M 1818 1996 
L 294 1996 
L 294 1536 
L 1818 1536 
L 1818 1996 
z
" transform="scale(0.015625)"/>
       <path id="NimbusSanL-Regu-42" d="M 506 0 
L 2611 0 
C 3053 0 3379 121 3629 390 
C 3859 632 3987 961 3987 1321 
C 3987 1878 3731 2214 3136 2444 
C 3558 2643 3782 2994 3782 3476 
C 3782 3821 3654 4127 3411 4345 
C 3168 4569 2848 4672 2400 4672 
L 506 4672 
L 506 0 
z
M 1101 2636 
L 1101 4147 
L 2253 4147 
C 2586 4147 2771 4101 2931 3977 
C 3098 3847 3187 3652 3187 3391 
C 3187 3138 3098 2936 2931 2806 
C 2771 2682 2586 2636 2253 2636 
L 1101 2636 
z
M 1101 524 
L 1101 2112 
L 2554 2112 
C 2842 2112 3034 2042 3174 1890 
C 3315 1745 3392 1542 3392 1315 
C 3392 1093 3315 891 3174 746 
C 3034 594 2842 524 2554 524 
L 1101 524 
z
" transform="scale(0.015625)"/>
       <path id="NimbusSanL-Regu-30" d="M 1760 4544 
C 1338 4544 954 4358 717 4044 
C 422 3649 275 3043 275 2207 
C 275 683 787 -128 1760 -128 
C 2720 -128 3245 683 3245 2169 
C 3245 3049 3104 3636 2803 4044 
C 2566 4364 2189 4544 1760 4544 
z
M 1760 4044 
C 2368 4044 2669 3432 2669 2220 
C 2669 938 2374 339 1747 339 
C 1152 339 851 964 851 2201 
C 851 3438 1152 4044 1760 4044 
z
" transform="scale(0.015625)"/>
      </defs>
      <use xlink:href="#NimbusSanL-Regu-52" transform="scale(0.996264)"/>
      <use xlink:href="#NimbusSanL-Regu-4d" transform="translate(71.929985 0) scale(0.996264)"/>
      <use xlink:href="#NimbusSanL-Regu-53" transform="translate(154.918415 0) scale(0.996264)"/>
      <use xlink:href="#NimbusSanL-Regu-72" transform="translate(249.063616 0) scale(0.996264)"/>
      <use xlink:href="#NimbusSanL-Regu-65" transform="translate(282.238846 0) scale(0.996264)"/>
      <use xlink:href="#NimbusSanL-Regu-73" transform="translate(337.630523 0) scale(0.996264)"/>
      <use xlink:href="#NimbusSanL-Regu-69" transform="translate(387.443723 0) scale(0.996264)"/>
      <use xlink:href="#NimbusSanL-Regu-64" transform="translate(409.560507 0) scale(0.996264)"/>
      <use xlink:href="#NimbusSanL-Regu-75" transform="translate(464.952184 0) scale(0.996264)"/>
      <use xlink:href="#NimbusSanL-Regu-61" transform="translate(520.343861 0) scale(0.996264)"/>
      <use xlink:href="#NimbusSanL-Regu-6c" transform="translate(575.735538 0) scale(0.996264)"/>
      <use xlink:href="#NimbusSanL-Regu-2d" transform="translate(625.547492 0) scale(0.996264)"/>
      <use xlink:href="#NimbusSanL-Regu-42" transform="translate(686.417892 0) scale(0.996264)"/>
      <use xlink:href="#NimbusSanL-Regu-6c" transform="translate(752.867923 0) scale(0.996264)"/>
      <use xlink:href="#NimbusSanL-Regu-61" transform="translate(774.984707 0) scale(0.996264)"/>
      <use xlink:href="#NimbusSanL-Regu-64" transform="translate(830.376384 0) scale(0.996264)"/>
      <use xlink:href="#NimbusSanL-Regu-65" transform="translate(885.768061 0) scale(0.996264)"/>
      <use xlink:href="#NimbusSanL-Regu-30" transform="translate(977.025303 0) scale(0.996264)"/>
      <path d="M 947.137079 0 
L 977.025303 0 
L 977.025303 0.3985 
L 947.137079 0.3985 
L 947.137079 0 
z
"/>
     </g>
    </g>
   </g>
   <g id="line2d_12">
    <path d="M 55.368567 135.553012 
L 55.738539 144.509192 
L 55.985187 147.813731 
L 56.231835 149.232385 
L 56.355159 149.328957 
L 56.601807 148.82156 
L 56.848455 148.640426 
L 57.095103 147.805432 
L 57.341751 146.800926 
L 57.465075 146.675259 
L 58.451668 149.256766 
L 58.574992 149.145732 
L 58.82164 147.822483 
L 59.43826 142.062645 
L 59.561584 142.092297 
L 59.684908 142.237889 
L 59.931556 143.107747 
L 60.794824 147.41327 
L 60.918148 147.365483 
L 61.164796 147.769473 
L 61.781416 149.165676 
L 62.028064 149.254821 
L 62.274712 149.006254 
L 62.644684 148.052472 
L 62.768008 148.22463 
L 63.261304 149.172417 
L 63.507952 149.156166 
L 64.001248 148.741031 
L 64.617868 147.298737 
L 64.98784 147.844235 
L 65.357812 148.3179 
L 65.851108 148.444026 
L 66.097756 148.106846 
L 66.22108 147.745219 
L 66.467728 147.952531 
L 67.084348 148.768562 
L 67.330996 148.666948 
L 67.577644 148.2555 
L 67.824292 147.01828 
L 67.947616 146.211344 
L 68.194264 146.707902 
L 68.68756 147.973892 
L 68.934208 148.119868 
L 69.057532 148.063338 
L 69.30418 147.510369 
L 69.674152 145.580167 
L 70.044124 147.22162 
L 70.414096 148.472417 
L 70.660744 149.079043 
L 70.784068 149.122492 
L 71.15404 148.592317 
L 71.400688 148.580749 
L 71.647336 148.467984 
L 71.893984 148.562837 
L 72.140632 148.256158 
L 72.38728 148.678318 
L 73.0039 150.402953 
L 73.250548 150.423444 
L 73.497196 150.2085 
L 73.743844 149.619777 
L 73.990492 149.921267 
L 74.730436 151.628798 
L 74.85376 151.632192 
L 74.977084 151.524042 
L 75.223732 150.85698 
L 75.47038 149.922218 
L 75.717028 150.299048 
L 76.210324 151.536272 
L 76.456972 151.594128 
L 76.580296 151.526324 
L 76.826944 150.948992 
L 77.073592 149.579822 
L 77.196916 148.588525 
L 77.443564 149.072917 
L 77.813536 150.163333 
L 78.060184 149.744194 
L 78.430156 149.123077 
L 78.676804 147.812138 
L 79.046776 145.647353 
L 79.1701 145.677722 
L 79.293424 145.880929 
L 79.540072 147.354873 
L 79.78672 149.29282 
L 80.156692 148.161183 
L 81.759904 153.548914 
L 82.129876 153.958804 
L 82.499848 154.424527 
L 83.239792 155.374472 
L 83.48644 155.788806 
L 84.10306 157.865326 
L 84.349708 157.909626 
L 84.473032 157.802492 
L 84.843004 156.64328 
L 84.966328 156.737369 
L 85.212976 157.252991 
L 85.706272 158.956845 
L 85.95292 159.215208 
L 86.076244 159.214847 
L 86.322892 158.680299 
L 86.692864 157.674266 
L 86.939512 157.332496 
L 87.18616 157.689306 
L 87.556132 159.21877 
L 87.80278 160.046956 
L 88.049428 160.274927 
L 88.172752 160.166126 
L 88.542724 159.010087 
L 88.666048 159.135813 
L 88.912696 159.616802 
L 89.405992 160.827403 
L 89.65264 160.983511 
L 89.899288 160.808071 
L 90.26926 160.130693 
L 90.639232 160.632593 
L 91.132528 161.508706 
L 91.379176 161.589216 
L 91.5025 161.473284 
L 92.11912 159.844143 
L 92.365768 160.100784 
L 92.859064 161.014926 
L 93.229036 161.200419 
L 93.475684 161.365138 
L 93.845656 161.225639 
L 95.20222 162.734635 
L 95.942164 164.253696 
L 96.312136 164.412626 
L 96.558784 164.190331 
L 96.928756 163.550431 
L 97.422052 164.39153 
L 97.915348 165.175669 
L 98.038672 165.230888 
L 98.28532 164.944994 
L 98.531968 164.516893 
L 98.90194 164.911147 
L 99.641884 166.375286 
L 99.888532 166.170323 
L 100.381828 165.220763 
L 100.628476 165.435002 
L 101.245096 166.695668 
L 101.491744 166.525568 
L 101.861716 165.469751 
L 101.98504 165.074496 
L 102.231688 165.52078 
L 102.848308 166.879443 
L 103.094956 167.004217 
L 103.21828 166.920028 
L 103.588252 165.964692 
L 103.711576 166.132732 
L 104.45152 167.328052 
L 104.698168 167.403395 
L 104.944816 167.153148 
L 105.314788 166.262713 
L 106.424704 168.048196 
L 106.671352 168.046386 
L 107.287972 167.243515 
L 107.657944 167.988523 
L 108.027916 168.768583 
L 108.397888 169.022286 
L 108.644536 168.778646 
L 108.891184 168.147589 
L 109.137832 168.482029 
L 109.877776 169.875752 
L 110.124424 169.888455 
L 110.61772 169.225821 
L 110.987692 169.949051 
L 111.480988 170.928958 
L 111.727636 170.953227 
L 111.974284 170.54649 
L 112.220932 170.023693 
L 112.714228 170.642424 
L 112.960876 170.929538 
L 113.207524 170.921068 
L 113.577496 170.612415 
L 113.947468 169.813849 
L 114.070792 169.910356 
L 114.93406 170.574252 
L 115.180708 170.38104 
L 115.55068 169.46875 
L 115.674004 169.568034 
L 116.043976 170.062505 
L 116.537272 170.655146 
L 116.660596 170.659823 
L 116.907244 170.27825 
L 117.277216 169.110128 
L 117.647188 169.872713 
L 118.01716 170.652685 
L 118.263808 170.875573 
L 118.387132 170.881149 
L 118.510456 170.744689 
L 118.880428 169.575892 
L 119.003752 169.140518 
L 119.373724 170.189601 
L 119.743696 171.035988 
L 120.113668 171.317872 
L 120.236992 171.206971 
L 120.853612 169.944926 
L 121.346908 170.593096 
L 122.086852 172.568571 
L 122.3335 172.813237 
L 122.456824 172.691765 
L 122.703472 171.754443 
L 122.826796 171.156444 
L 123.073444 171.571219 
L 123.813388 173.406699 
L 123.936712 173.39597 
L 124.18336 172.855728 
L 124.553332 171.673445 
L 124.79998 172.125758 
L 125.4166 173.506066 
L 125.663248 173.611656 
L 125.909896 173.319652 
L 126.156544 172.783955 
L 126.526516 173.224484 
L 127.019812 173.975156 
L 127.26646 174.084112 
L 127.513108 173.932706 
L 128.006404 173.380063 
L 128.376377 173.849064 
L 128.869673 174.43854 
L 129.116321 174.465575 
L 129.362969 174.131491 
L 129.732941 173.261393 
L 130.102913 173.855143 
L 130.596209 174.697675 
L 130.842857 174.836186 
L 130.966181 174.76294 
L 131.212829 174.231403 
L 131.336153 173.831963 
L 131.706125 174.222801 
L 132.199421 174.879079 
L 132.446069 175.004945 
L 132.569393 174.958152 
L 132.816041 174.502685 
L 133.062689 173.769083 
L 133.432661 174.285882 
L 133.925957 175.061517 
L 134.172605 175.177081 
L 134.295929 175.106687 
L 134.542577 174.612349 
L 134.789225 174.02844 
L 135.035873 173.965031 
L 135.652493 174.501812 
L 136.515761 174.527959 
L 137.255705 174.609984 
L 137.379029 174.464321 
L 137.872325 175.577693 
L 138.242297 176.118065 
L 138.488945 176.266865 
L 138.612269 176.145589 
L 138.982241 174.843202 
L 139.105565 174.984565 
L 140.092157 176.483233 
L 140.215481 176.48489 
L 140.462129 176.016066 
L 140.708777 175.256669 
L 141.078749 175.96911 
L 141.572045 177.032175 
L 141.818693 177.282285 
L 141.942017 177.235401 
L 142.188665 176.721471 
L 142.435313 176.219734 
L 142.558637 176.223057 
L 143.175257 176.757209 
L 143.791877 176.690026 
L 143.915201 176.575138 
L 144.778469 178.05959 
L 145.025117 178.097507 
L 145.271765 177.688234 
L 145.518413 176.887217 
L 145.765061 177.246407 
L 146.258357 178.173042 
L 146.628329 178.347195 
L 146.751653 178.284399 
L 146.998301 177.790408 
L 147.244949 177.048604 
L 147.614921 177.846591 
L 147.984893 178.576395 
L 148.354865 178.82818 
L 148.478189 178.764581 
L 148.848161 177.879019 
L 148.971485 178.047765 
L 149.711429 179.161369 
L 150.081401 179.306589 
L 150.328049 178.965778 
L 150.574697 178.448566 
L 151.561289 179.732299 
L 151.807937 179.814069 
L 152.054585 179.481725 
L 152.177909 179.232442 
L 152.671205 179.680478 
L 153.287825 180.224169 
L 153.534473 180.159539 
L 154.027769 179.591839 
L 154.397741 180.001392 
L 154.891037 180.604233 
L 155.137685 180.640669 
L 155.384333 180.334958 
L 155.630981 179.892543 
L 155.877629 179.782681 
L 156.247601 180.358918 
L 156.617573 180.922878 
L 156.987545 181.116516 
L 157.234193 180.874539 
L 157.480841 180.282252 
L 157.850813 180.64889 
L 158.220785 181.097271 
L 158.590757 181.244397 
L 158.837405 181.117655 
L 159.207377 180.315911 
L 159.330701 180.447516 
L 160.070645 181.306708 
L 160.440617 181.3881 
L 160.687265 180.976987 
L 161.057237 180.315014 
L 162.167153 181.856775 
L 162.290477 181.81247 
L 162.537125 181.372689 
L 162.660449 181.079165 
L 163.030421 181.493112 
L 163.523717 182.08816 
L 163.893689 182.19009 
L 164.140337 181.878678 
L 164.386985 181.343108 
L 164.756957 181.763716 
L 165.250253 182.353407 
L 165.496901 182.432746 
L 165.743549 182.263262 
L 166.113521 181.569425 
L 166.483493 182.036743 
L 166.976789 182.685081 
L 167.223437 182.780508 
L 167.470085 182.595923 
L 167.716733 182.159824 
L 168.086705 182.440483 
L 168.580001 182.91718 
L 168.826649 182.981872 
L 169.073297 182.814055 
L 169.443269 182.292393 
L 169.813241 182.55355 
L 170.429861 183.145523 
L 170.676509 183.162614 
L 171.169805 182.81901 
L 171.539777 183.04735 
L 172.156397 183.487779 
L 172.403045 183.441589 
L 172.896341 183.033889 
L 173.882933 183.736079 
L 174.129581 183.57624 
L 174.622877 182.899546 
L 175.116173 183.622859 
L 175.486145 183.986063 
L 175.732793 184.054713 
L 175.979441 183.784586 
L 176.226089 183.294618 
L 176.596061 183.65496 
L 177.089357 184.207778 
L 177.336005 184.328224 
L 177.582653 184.160641 
L 177.952625 183.524242 
L 178.445921 184.160388 
L 178.939217 184.665564 
L 179.185865 184.719581 
L 179.802485 184.254358 
L 180.665753 184.928434 
L 181.529021 185.057657 
L 182.392289 185.116994 
L 182.515613 184.980258 
L 183.625529 186.473986 
L 183.872177 185.962132 
L 184.118825 185.169809 
L 184.488797 185.804318 
L 184.982093 186.730076 
L 185.228741 186.968348 
L 185.352065 186.922116 
L 185.845361 185.562636 
L 186.831953 187.334437 
L 186.955277 187.421211 
L 187.078601 187.336438 
L 187.571897 186.242698 
L 188.065193 186.68618 
L 188.558489 186.776061 
L 188.928461 186.681412 
L 189.051785 186.477654 
L 189.791729 187.604372 
L 190.038377 187.760813 
L 190.161701 187.706032 
L 190.408349 187.160016 
L 190.654997 186.266851 
L 190.901645 186.579936 
L 191.641589 187.931505 
L 191.764913 187.966575 
L 191.888237 187.805905 
L 192.381533 186.206962 
L 192.628181 186.66378 
L 193.368125 188.463305 
L 193.491449 188.520803 
L 193.614773 188.300483 
L 193.984745 186.879301 
L 194.231393 186.935106 
L 195.094661 188.96307 
L 195.341309 189.135127 
L 195.587957 188.405431 
L 195.834605 187.852617 
L 196.451225 189.162183 
L 197.067845 189.636289 
L 197.561141 188.702391 
L 198.054438 189.480351 
L 198.671058 189.941493 
L 198.794382 189.889372 
L 199.04103 189.465075 
L 199.164354 189.142174 
L 199.65765 189.517735 
L 200.150946 190.016912 
L 200.397594 189.98995 
L 200.644242 189.548527 
L 200.89089 188.764565 
L 201.014214 188.824386 
L 201.260862 189.146761 
L 201.877482 190.351159 
L 202.000806 190.390983 
L 202.12413 190.271102 
L 202.494102 189.106715 
L 202.617426 188.679465 
L 202.864074 189.054308 
L 203.604018 190.997579 
L 203.727342 191.048301 
L 203.850666 190.843449 
L 204.220638 189.492796 
L 204.467286 189.901254 
L 205.20723 191.621912 
L 205.330554 191.740792 
L 205.453878 191.689753 
L 205.947174 190.22447 
L 206.933766 192.139442 
L 207.05709 192.244776 
L 207.180414 192.182616 
L 207.550386 191.236323 
L 208.29033 192.310719 
L 208.783626 192.502317 
L 209.030274 192.134567 
L 209.276922 191.49286 
L 210.016866 192.39723 
L 210.386838 192.546171 
L 210.633486 192.254728 
L 210.880134 191.524515 
L 211.003458 190.955565 
L 211.37343 191.52755 
L 211.866726 192.443742 
L 212.113374 192.532919 
L 212.360022 191.972292 
L 212.853318 190.399954 
L 212.976642 190.225958 
L 213.346614 191.275292 
L 213.83991 192.734862 
L 213.963234 192.91598 
L 214.086558 192.881661 
L 214.333206 191.935861 
L 214.579854 190.796385 
L 214.949826 191.641118 
L 215.566446 193.35862 
L 215.68977 193.500721 
L 215.813094 193.344852 
L 216.30639 191.349261 
L 217.292982 194.035217 
L 217.416306 194.186094 
L 217.53963 193.977486 
L 217.909602 192.419847 
L 218.649546 194.231811 
L 219.142842 194.704429 
L 219.38949 193.930666 
L 219.636138 193.20408 
L 220.252758 194.694769 
L 220.869378 195.028672 
L 221.609322 193.4414 
L 221.732646 193.489355 
L 221.85597 193.404052 
L 222.842562 195.615798 
L 222.965886 195.5673 
L 223.212534 194.787922 
L 223.459182 193.509884 
L 223.70583 193.814343 
L 224.199126 195.225164 
L 224.445774 195.741324 
L 224.569098 195.788537 
L 224.692422 195.560804 
L 225.185718 193.330892 
L 225.432366 193.855014 
L 226.17231 196.110863 
L 226.295634 196.161902 
L 226.418958 195.839715 
L 226.78893 193.975008 
L 226.912254 193.967779 
L 228.392142 197.307724 
L 228.515466 197.38914 
L 228.63879 197.257728 
L 229.132086 195.840914 
L 229.625382 197.341115 
L 230.242002 197.855673 
L 230.365326 197.801687 
L 230.858622 196.653187 
L 231.475242 196.88636 
L 232.215186 198.205387 
L 232.461834 198.460224 
L 232.585158 198.461356 
L 232.831806 198.017196 
L 233.078454 197.097639 
L 233.201778 197.142057 
L 233.448426 197.381243 
L 234.18837 198.675782 
L 234.311694 198.57694 
L 234.558342 197.908896 
L 234.80499 197.00639 
L 235.051638 197.166569 
L 235.298286 197.71882 
L 235.668258 198.732154 
L 235.914906 198.929681 
L 236.03823 198.746836 
L 236.408202 197.436017 
L 236.65485 197.661326 
L 237.024822 198.496439 
L 237.394794 199.178309 
L 237.641442 199.226412 
L 237.88809 198.506063 
L 238.134738 197.849904 
L 238.628034 198.867733 
L 238.998006 199.429855 
L 239.244654 199.630069 
L 239.367978 199.583192 
L 239.861274 198.616857 
L 240.35457 199.081904 
L 240.847866 199.193903 
L 241.217838 199.032841 
L 241.834458 198.740252 
L 242.697726 199.895966 
L 242.82105 199.870966 
L 243.067698 199.359853 
L 243.314346 198.399986 
L 243.684318 198.791014 
L 244.424262 199.962666 
L 244.547586 199.885222 
L 244.794234 199.183809 
L 245.040882 198.268407 
L 245.410854 198.853125 
L 246.027474 200.140741 
L 246.150798 200.214728 
L 246.274122 200.107873 
L 246.644094 198.850627 
L 246.767418 199.011895 
L 247.260714 199.977574 
L 247.630686 200.548474 
L 247.877334 200.630765 
L 248.123982 200.033458 
L 248.37063 199.208889 
L 249.357222 200.989127 
L 249.60387 200.993586 
L 249.850518 200.360088 
L 250.097166 199.738873 
L 250.22049 199.677433 
L 250.343814 199.487174 
L 251.207082 201.286645 
L 251.45373 201.367147 
L 251.700378 200.880352 
L 251.947026 199.887268 
L 252.316998 200.435419 
L 252.810294 201.235105 
L 253.056942 201.342613 
L 253.180266 201.192226 
L 253.426914 200.409933 
L 253.673562 199.294372 
L 254.043534 200.004315 
L 254.53683 201.056841 
L 254.783478 201.189114 
L 254.906802 200.975913 
L 255.400098 198.771655 
L 255.523422 199.029143 
L 256.38669 201.177492 
L 256.510014 201.202895 
L 256.633338 200.931118 
L 257.126634 198.950032 
L 257.373282 199.261109 
L 257.866578 199.915718 
L 258.483198 200.567956 
L 258.976494 201.896412 
L 259.46979 202.496093 
L 259.716438 202.619753 
L 259.963086 202.103544 
L 260.209734 201.206232 
L 260.949678 202.733076 
L 261.442974 203.027406 
L 261.689622 202.536756 
L 261.812946 202.090135 
L 262.306242 202.758635 
L 262.799538 203.442647 
L 263.046186 203.455762 
L 263.292834 202.998509 
L 263.539482 202.090552 
L 263.78613 202.338439 
L 264.156102 203.159025 
L 264.526074 203.826403 
L 264.649398 203.870994 
L 264.772722 203.762649 
L 265.01937 203.03062 
L 265.266018 202.014418 
L 265.512666 202.315725 
L 266.375934 204.076033 
L 266.499258 203.904124 
L 267.115878 202.103914 
L 267.48585 202.463369 
L 268.102471 202.951207 
L 269.705683 203.850267 
L 271.062247 204.257756 
L 271.925515 204.348489 
L 272.048839 204.127828 
L 273.035431 206.276959 
L 273.158755 206.245628 
L 273.405403 205.412819 
L 273.652051 204.341491 
L 274.022023 205.345487 
L 274.391995 206.321563 
L 274.761967 206.810522 
L 274.885291 206.703966 
L 275.378587 204.855918 
L 276.365179 207.620433 
L 276.488503 207.769908 
L 276.611827 207.633239 
L 276.981799 206.101882 
L 277.845067 208.234442 
L 278.215039 208.610739 
L 278.338363 208.379973 
L 278.708335 206.989155 
L 279.448279 208.700074 
L 279.941575 209.089129 
L 280.188223 208.410445 
L 280.434871 207.619279 
L 280.804843 207.262217 
L 281.791435 209.346271 
L 281.914759 209.314674 
L 282.161407 208.693999 
L 282.408055 207.430526 
L 282.654703 207.691148 
L 283.517971 209.218772 
L 283.641295 209.056252 
L 283.887943 208.181841 
L 284.134591 207.00287 
L 284.381239 207.42821 
L 285.121183 209.287494 
L 285.244507 209.30625 
L 285.367831 209.079481 
L 285.861127 206.880391 
L 286.231099 208.058684 
L 286.601071 209.216025 
L 286.971043 209.679246 
L 287.094367 209.383799 
L 287.464339 207.628374 
L 288.574255 210.209224 
L 288.697579 210.159655 
L 289.190875 208.34226 
L 289.807495 210.157455 
L 290.424115 210.688111 
L 290.794087 209.496354 
L 291.534031 210.76184 
L 292.027327 211.034346 
L 292.273975 210.607386 
L 292.520623 209.957838 
L 293.507215 211.022694 
L 293.753863 211.062528 
L 294.000511 210.714749 
L 294.370483 210.078931 
L 294.740455 210.397101 
L 295.357075 211.232466 
L 295.603723 211.28817 
L 295.850371 211.00847 
L 296.097019 210.765431 
L 296.343667 210.802064 
L 296.713639 211.331949 
L 297.083611 211.653323 
L 297.330259 211.649728 
L 297.946879 211.1763 
L 298.193527 211.36825 
L 298.686823 212.050816 
L 298.933471 212.138698 
L 299.180119 211.96301 
L 299.426767 211.770284 
L 299.796739 211.850556 
L 300.413359 212.391848 
L 300.660007 212.369836 
L 300.906655 212.077817 
L 301.029979 211.820357 
L 301.523275 212.012236 
L 302.016571 212.522119 
L 302.263219 212.533126 
L 302.509867 212.295609 
L 302.879839 211.797534 
L 303.249811 212.074835 
L 303.743107 212.62844 
L 303.989755 212.597509 
L 304.236403 212.243896 
L 304.359727 211.983462 
L 304.853023 212.284732 
L 305.469643 212.801056 
L 305.716291 212.702328 
L 306.086263 212.108469 
L 306.579559 212.604875 
L 307.072855 213.103965 
L 307.319503 213.159064 
L 307.936123 212.804191 
L 308.922715 213.787626 
L 310.279279 214.69313 
L 310.525927 214.532327 
L 310.772575 214.209108 
L 311.882491 214.959872 
L 312.129139 214.798731 
L 312.745759 214.004324 
L 313.732351 214.862125 
L 313.978999 214.713313 
L 314.225647 214.291535 
L 314.348971 213.976021 
L 315.458887 214.806375 
L 315.705535 214.528757 
L 316.075507 213.607839 
L 316.198831 213.728804 
L 317.185423 214.687536 
L 317.432071 214.364593 
L 317.925367 213.279713 
L 318.911959 214.578299 
L 319.158607 214.345779 
L 319.528579 213.32504 
L 319.651903 213.465006 
L 320.638495 214.561117 
L 320.885143 214.162749 
L 321.255115 212.936333 
L 321.871735 213.853016 
L 322.241707 214.291008 
L 322.365031 214.273284 
L 322.611679 213.813508 
L 322.981651 212.775002 
L 323.228299 212.555039 
L 324.091567 213.821802 
L 324.338215 213.831062 
L 324.584863 213.392197 
L 324.831511 212.727506 
L 325.941427 213.794652 
L 326.064751 213.730037 
L 326.311399 213.206095 
L 326.558047 212.532903 
L 327.667963 213.706528 
L 327.791287 213.649759 
L 328.037935 213.154867 
L 328.161259 212.816605 
L 328.654555 213.296828 
L 329.024527 213.613614 
L 329.394499 213.679616 
L 329.641147 213.295728 
L 329.887795 212.556298 
L 330.257767 212.987337 
L 330.751063 213.532448 
L 330.997711 213.609835 
L 331.121035 213.560163 
L 331.367683 213.083096 
L 331.614331 212.246871 
L 331.984303 212.732971 
L 332.477599 213.410163 
L 332.724247 213.484738 
L 332.847571 213.396614 
L 333.094219 212.78495 
L 333.217543 212.343163 
L 333.587515 212.681485 
L 334.204135 213.413249 
L 334.450783 213.413669 
L 334.697431 212.94109 
L 334.944079 212.067031 
L 335.314051 212.512059 
L 335.807347 213.311046 
L 336.053995 213.44715 
L 336.177319 213.405981 
L 336.423967 212.867275 
L 336.793939 211.80122 
L 337.163911 212.425273 
L 337.657208 213.390675 
L 337.903856 213.551594 
L 338.02718 213.492246 
L 338.273828 212.869568 
L 338.397152 212.368855 
L 338.767124 212.735045 
L 339.507068 213.841176 
L 339.630392 213.823379 
L 339.87704 213.301966 
L 340.123688 212.210629 
L 340.49366 212.70007 
L 341.11028 214.028918 
L 341.233604 214.093927 
L 341.356928 214.011637 
L 341.603576 213.258947 
L 341.973548 211.850131 
L 342.34352 212.650553 
L 342.96014 214.396446 
L 343.083464 214.446116 
L 343.206788 214.294879 
L 343.453436 213.287833 
L 343.57676 212.62593 
L 343.946732 213.223307 
L 344.686676 215.159044 
L 344.81 215.08769 
L 345.056648 214.138358 
L 345.303296 212.878774 
L 345.673268 213.551415 
L 346.413212 215.625502 
L 346.536536 215.500093 
L 346.783184 214.470756 
L 347.029832 213.537565 
L 347.27648 213.515579 
L 348.139748 213.998576 
L 348.386396 213.862367 
L 348.50972 213.742957 
L 348.633044 213.403702 
L 349.003016 213.916972 
L 349.619636 215.559621 
L 349.74296 215.479898 
L 349.989608 214.795013 
L 350.35958 213.370628 
L 350.606228 213.47798 
L 350.852876 214.158828 
L 351.222848 215.314105 
L 351.346172 215.286126 
L 351.59282 214.563205 
L 352.086116 212.658245 
L 352.20944 212.731421 
L 352.456088 213.318211 
L 352.949384 215.104469 
L 353.072708 215.100099 
L 353.319356 214.277983 
L 353.689328 212.269225 
L 353.935976 212.502517 
L 354.182624 213.21889 
L 354.67592 215.048804 
L 354.799244 215.086026 
L 354.922568 214.797077 
L 355.415864 212.733812 
L 355.539188 212.703187 
L 355.785836 213.030939 
L 356.402456 214.09973 
L 357.882344 215.823989 
L 359.238908 217.542967 
L 359.732204 218.88 
L 359.732204 218.88 
" clip-path="url(#pfb4b033d6f)" style="fill: none; stroke: #1f77b4; stroke-width: 1.5; stroke-linecap: square"/>
   </g>
   <g id="line2d_13">
    <path d="M 55.368567 103.806046 
L 55.491891 90.629094 
L 55.861863 97.722991 
L 56.231835 96.428845 
L 56.355159 96.66053 
L 56.725131 97.881226 
L 56.971779 96.989704 
L 57.465075 94.012736 
L 57.835047 94.863791 
L 58.451668 95.884598 
L 58.82164 95.280705 
L 59.43826 93.050921 
L 60.05488 94.275938 
L 60.424852 95.855152 
L 60.548176 95.995453 
L 60.794824 95.776424 
L 60.918148 95.544599 
L 61.658092 96.553546 
L 61.90474 96.720667 
L 62.151388 96.605224 
L 62.398036 96.060052 
L 62.644684 94.830667 
L 63.384628 95.906193 
L 63.507952 95.898062 
L 63.7546 95.25802 
L 64.37122 92.930554 
L 64.617868 92.242495 
L 64.98784 93.036482 
L 65.481136 94.07519 
L 65.727784 94.132369 
L 65.974432 94.016295 
L 66.22108 93.457408 
L 67.207672 94.942273 
L 67.45432 94.761307 
L 67.700968 94.392913 
L 67.947616 93.673286 
L 68.564236 94.907882 
L 68.934208 95.749837 
L 69.180856 95.378555 
L 69.427504 94.571626 
L 69.674152 92.827127 
L 69.797476 92.979487 
L 70.414096 93.571896 
L 70.53742 93.433574 
L 70.784068 92.210667 
L 71.15404 90.421875 
L 71.277364 90.359921 
L 71.400688 90.745469 
L 71.77066 93.657886 
L 72.140632 95.950355 
L 72.633928 97.013029 
L 73.127224 97.685442 
L 73.62052 96.765998 
L 73.743844 96.815628 
L 74.23714 97.39206 
L 74.730436 97.779703 
L 75.223732 97.238578 
L 75.47038 96.901544 
L 76.456972 97.762133 
L 76.70362 97.480365 
L 77.196916 96.864952 
L 77.443564 96.896713 
L 77.690212 96.750799 
L 77.93686 96.983844 
L 78.183508 97.237273 
L 78.306832 97.201401 
L 78.676804 96.615854 
L 79.046776 95.920108 
L 79.293424 96.245726 
L 79.663396 95.271934 
L 79.78672 95.517819 
L 80.156692 97.499372 
L 80.40334 97.161311 
L 80.649988 97.785435 
L 81.143284 99.253993 
L 82.623172 102.429966 
L 82.993144 102.486194 
L 83.116468 102.429946 
L 83.239792 102.16892 
L 83.609764 102.555239 
L 83.856412 102.675912 
L 84.226384 103.135219 
L 84.349708 102.954399 
L 84.71968 101.934804 
L 84.843004 101.792515 
L 85.459624 102.702167 
L 85.706272 102.866915 
L 85.829596 102.828607 
L 86.076244 102.370766 
L 86.56954 101.29897 
L 86.692864 101.309056 
L 86.939512 102.06681 
L 88.049428 105.336563 
L 88.666048 105.673684 
L 89.159344 106.430807 
L 89.405992 106.504896 
L 90.392584 106.392929 
L 91.132528 107.329632 
L 91.5025 107.924691 
L 91.749148 107.612532 
L 91.995796 107.200789 
L 92.612416 108.508965 
L 92.982388 108.896853 
L 93.105712 108.843994 
L 93.475684 108.195415 
L 93.599008 108.29712 
L 94.092304 109.587857 
L 94.338952 109.541771 
L 94.708924 109.295882 
L 94.955572 109.408178 
L 95.572192 110.589279 
L 96.188812 111.761901 
L 96.682108 112.056339 
L 98.28532 114.049794 
L 98.408644 113.859943 
L 98.531968 113.430391 
L 98.90194 113.848658 
L 99.51856 114.110539 
L 99.765208 114.522388 
L 99.888532 114.420834 
L 100.258504 113.78784 
L 100.628476 114.550785 
L 101.121772 114.805926 
L 101.36842 115.320013 
L 101.491744 115.284579 
L 101.98504 114.263335 
L 102.971632 115.336376 
L 103.21828 115.255878 
L 103.711576 114.815989 
L 104.081548 114.972876 
L 104.821492 115.574606 
L 105.06814 115.478063 
L 105.438112 115.11476 
L 105.808084 115.180221 
L 106.178056 115.561477 
L 106.548028 115.928106 
L 106.794676 115.604783 
L 107.041324 115.153309 
L 107.287972 115.211866 
L 108.521212 116.944424 
L 108.76786 116.762688 
L 108.891184 116.574175 
L 109.507804 117.136703 
L 110.124424 117.696064 
L 110.371072 117.362169 
L 110.61772 116.699266 
L 110.987692 117.256179 
L 111.727636 118.597419 
L 111.974284 118.078451 
L 112.220932 117.280037 
L 112.590904 117.861923 
L 113.207524 118.984081 
L 113.330848 119.005398 
L 113.577496 118.615441 
L 113.947468 117.86356 
L 115.057384 119.618302 
L 115.304032 119.504008 
L 115.55068 119.15074 
L 116.1673 119.658097 
L 116.78392 120.366006 
L 117.030568 120.023054 
L 117.277216 119.329209 
L 117.770512 119.590665 
L 118.263808 120.170695 
L 118.510456 120.117196 
L 118.880428 119.46027 
L 119.003752 119.14561 
L 119.497048 119.357618 
L 120.236992 120.138717 
L 120.48364 120.041999 
L 120.730288 119.78287 
L 120.976936 119.884919 
L 121.470232 120.454466 
L 121.840204 120.86251 
L 122.703472 122.228944 
L 122.95012 122.137085 
L 123.56674 122.027117 
L 123.813388 122.318078 
L 124.18336 122.873529 
L 124.306684 122.771881 
L 124.676656 121.955715 
L 125.169952 121.835706 
L 125.4166 121.985467 
L 125.786572 122.218712 
L 126.03322 121.731216 
L 126.156544 121.285671 
L 127.389784 121.501956 
L 127.636432 121.238273 
L 127.88308 120.675072 
L 128.623025 121.319011 
L 129.239645 121.861107 
L 129.732941 121.577721 
L 130.226237 122.197588 
L 130.966181 123.347179 
L 131.212829 123.335919 
L 131.336153 123.185831 
L 131.829449 123.605951 
L 132.446069 124.331245 
L 132.692717 124.19982 
L 132.939365 123.695248 
L 133.062689 123.285462 
L 133.432661 123.590899 
L 134.172605 124.593452 
L 134.419253 124.117691 
L 135.035873 122.437538 
L 135.282521 122.451625 
L 135.899141 122.682043 
L 136.145789 122.790766 
L 136.515761 123.268226 
L 137.255705 124.314546 
L 137.379029 124.304219 
L 138.242297 125.385764 
L 138.488945 125.449993 
L 138.858917 125.140334 
L 138.982241 124.920122 
L 140.092157 125.886195 
L 140.338805 125.684114 
L 140.585453 125.221999 
L 140.708777 124.861832 
L 141.202073 125.381552 
L 141.818693 126.217481 
L 142.065341 126.14837 
L 142.558637 125.495126 
L 142.805285 125.741617 
L 143.421905 126.53033 
L 143.791877 126.739393 
L 144.161849 126.830667 
L 144.655145 127.146612 
L 145.395089 127.711917 
L 145.641737 127.660124 
L 146.135033 127.815487 
L 146.998301 128.407044 
L 147.368273 128.142443 
L 147.738245 128.245491 
L 148.724837 129.067118 
L 148.971485 128.953689 
L 149.341457 128.964346 
L 149.834753 129.450736 
L 150.204725 129.65608 
L 150.451373 129.473022 
L 150.698021 129.207081 
L 151.067993 129.253439 
L 151.931261 129.957818 
L 152.301233 129.728698 
L 152.794529 129.920307 
L 153.534473 130.336879 
L 153.781121 130.224629 
L 153.904445 130.064736 
L 154.644389 130.372895 
L 155.507657 130.50838 
L 156.000953 130.256186 
L 156.494249 130.376939 
L 156.864221 130.701554 
L 157.234193 131.057748 
L 157.727489 131.04914 
L 158.220785 131.093732 
L 158.960729 131.4524 
L 159.577349 131.193858 
L 159.823997 131.305128 
L 160.440617 131.793908 
L 160.687265 131.741279 
L 161.057237 131.24616 
L 161.427209 131.41215 
L 161.797181 131.976963 
L 162.167153 132.460164 
L 162.413801 132.50758 
L 162.783773 132.318587 
L 163.153745 132.525273 
L 163.770365 133.031435 
L 164.017013 133.000017 
L 164.263661 132.769193 
L 164.386985 132.533419 
L 165.126929 132.797423 
L 165.620225 132.790663 
L 165.866873 132.503508 
L 166.113521 131.728789 
L 166.236845 131.784839 
L 167.346761 132.165399 
L 167.593409 131.578756 
L 167.716733 131.125197 
L 168.333353 131.626055 
L 168.826649 132.058247 
L 169.073297 131.787462 
L 169.443269 131.009613 
L 169.936565 131.769414 
L 170.429861 132.552935 
L 170.553185 132.579653 
L 171.046481 132.118756 
L 171.539777 132.811426 
L 172.156397 133.658747 
L 172.773017 133.82564 
L 173.759609 134.613577 
L 174.129581 134.70962 
L 174.376229 134.613864 
L 174.746201 134.348779 
L 175.856117 134.426502 
L 176.102765 134.124576 
L 176.226089 133.83233 
L 176.966033 134.116537 
L 177.336005 134.126733 
L 177.582653 133.940218 
L 177.952625 133.237475 
L 178.075949 133.337951 
L 178.939217 133.909146 
L 179.185865 133.870107 
L 179.925809 133.482588 
L 182.145641 134.462978 
L 182.392289 134.421453 
L 182.515613 134.291069 
L 183.255557 134.900305 
L 183.625529 135.008589 
L 183.872177 134.792028 
L 184.118825 134.229135 
L 184.982093 134.852937 
L 185.228741 134.801298 
L 185.598713 134.375521 
L 185.845361 133.960768 
L 186.708629 134.663371 
L 186.955277 134.607595 
L 187.571897 134.254677 
L 187.941869 134.367481 
L 188.435165 134.735518 
L 189.668405 136.000309 
L 190.038377 136.443258 
L 190.408349 136.879383 
L 190.901645 136.942368 
L 191.764913 137.279482 
L 192.011561 137.098005 
L 192.381533 136.221799 
L 192.504857 136.336561 
L 193.121477 136.638881 
L 193.368125 136.634079 
L 193.614773 136.328247 
L 194.231393 134.927302 
L 194.354717 135.063675 
L 195.217985 135.767792 
L 195.464633 135.533847 
L 195.834605 134.822013 
L 195.957929 134.923039 
L 196.327901 135.297563 
L 196.821197 135.877696 
L 197.067845 135.895562 
L 197.561141 135.523581 
L 198.177762 136.436005 
L 198.794382 137.233604 
L 199.164354 137.275365 
L 200.27427 138.828228 
L 200.520918 139.07179 
L 200.89089 139.20445 
L 201.260862 139.575734 
L 201.877482 139.942876 
L 202.12413 140.025807 
L 202.370778 139.773478 
L 202.617426 139.211093 
L 202.74075 139.288119 
L 203.727342 139.437078 
L 203.97399 139.027838 
L 204.343962 138.200675 
L 204.960582 138.31739 
L 205.330554 138.452385 
L 205.577202 138.185293 
L 205.947174 137.198138 
L 206.070498 137.262942 
L 206.563794 137.582153 
L 207.05709 137.967998 
L 207.303738 137.871298 
L 207.550386 137.569053 
L 208.413654 138.086186 
L 209.030274 138.557295 
L 209.52357 138.751136 
L 210.386838 139.350188 
L 210.75681 139.757022 
L 210.880134 139.786878 
L 211.003458 139.693707 
L 211.37343 139.919838 
L 212.113374 140.074316 
L 212.360022 140.136514 
L 212.483346 140.01677 
L 212.976642 138.851302 
L 213.593262 139.289897 
L 214.086558 139.38927 
L 214.333206 138.999434 
L 214.579854 138.159718 
L 215.443122 138.973832 
L 215.68977 138.963063 
L 216.059742 138.48931 
L 216.30639 138.041008 
L 217.292982 139.225628 
L 217.53963 139.165106 
L 217.909602 138.94309 
L 219.38949 140.228308 
L 220.00611 140.600535 
L 220.62273 141.227579 
L 221.116026 141.707562 
L 221.979294 141.891892 
L 222.719238 142.367195 
L 222.965886 142.571717 
L 223.08921 142.543529 
L 223.335858 142.114445 
L 223.459182 141.73895 
L 223.952478 141.939808 
L 224.692422 142.02668 
L 225.062394 141.305029 
L 225.185718 140.982614 
L 226.048986 141.621271 
L 226.295634 141.538377 
L 227.158902 140.485177 
L 227.528874 140.612552 
L 228.392142 141.243091 
L 228.885438 141.018104 
L 229.132086 140.974796 
L 230.611974 141.965392 
L 230.858622 142.075674 
L 231.598566 142.622279 
L 232.461834 143.283943 
L 232.831806 143.519884 
L 233.201778 143.372993 
L 233.695074 143.449712 
L 234.065046 143.54475 
L 234.435018 143.630126 
L 234.681666 143.366339 
L 234.80499 143.144309 
L 235.298286 143.402861 
L 236.03823 143.52152 
L 236.531526 143.157579 
L 237.518118 143.532763 
L 237.88809 143.37483 
L 238.134738 143.196773 
L 239.367978 143.738582 
L 240.847866 143.455352 
L 241.341162 143.146012 
L 241.834458 142.797635 
L 242.451078 143.050278 
L 242.82105 143.03762 
L 243.067698 142.832582 
L 243.314346 142.381112 
L 244.05429 142.77568 
L 244.424262 142.784794 
L 244.67091 142.627912 
L 245.040882 142.058206 
L 245.164206 142.176886 
L 245.90415 142.764867 
L 246.150798 142.774222 
L 246.52077 142.486245 
L 246.644094 142.343962 
L 247.75401 143.126821 
L 248.123982 143.050779 
L 248.37063 142.890669 
L 249.480546 143.682185 
L 249.727194 143.675854 
L 250.22049 143.523598 
L 250.467138 143.600074 
L 251.577054 144.209911 
L 251.823702 144.11201 
L 251.947026 143.996977 
L 253.180266 144.375393 
L 253.426914 144.239804 
L 253.673562 143.962784 
L 254.660154 144.310522 
L 254.906802 144.262584 
L 255.276774 143.889985 
L 255.400098 143.719598 
L 256.263366 144.063081 
L 256.633338 144.002807 
L 257.496606 143.671501 
L 257.989902 143.849886 
L 258.976494 144.368546 
L 259.346466 144.560904 
L 260.209734 145.320802 
L 261.073002 145.545727 
L 261.566298 146.049158 
L 262.55289 146.037234 
L 263.292834 146.200454 
L 263.662806 146.006492 
L 264.526074 146.181355 
L 264.772722 146.142865 
L 265.142694 145.809436 
L 265.266018 145.629376 
L 265.759314 145.859913 
L 266.25261 145.80609 
L 266.86923 145.496039 
L 267.609174 145.028373 
L 268.102471 145.126275 
L 268.719091 145.484188 
L 269.212387 146.07618 
L 270.198979 147.733203 
L 270.938923 148.786691 
L 271.432219 149.078404 
L 271.925515 149.046695 
L 272.048839 148.946871 
L 272.542135 149.257009 
L 273.035431 149.277132 
L 273.775375 149.216835 
L 274.391995 149.406711 
L 275.378587 149.400509 
L 276.118531 149.763442 
L 276.611827 150.029631 
L 277.105123 150.329675 
L 278.091715 150.868611 
L 278.708335 151.403626 
L 279.571603 151.89357 
L 280.311547 152.651538 
L 280.681519 152.846521 
L 281.174815 153.182421 
L 282.038083 153.795875 
L 282.531379 153.563342 
L 283.271323 154.039992 
L 283.641295 154.163783 
L 284.011267 153.785032 
L 284.134591 153.61681 
L 284.874535 154.19167 
L 285.121183 154.284912 
L 285.367831 154.121654 
L 285.861127 153.502395 
L 286.847719 154.32818 
L 287.217691 154.054817 
L 287.464339 153.86903 
L 288.697579 154.490881 
L 289.314199 154.284277 
L 289.807495 154.596653 
L 290.177467 154.79025 
L 290.547439 154.695564 
L 290.917411 154.600861 
L 292.027327 154.901849 
L 292.397299 154.712145 
L 292.520623 154.607344 
L 293.013919 154.796572 
L 293.630539 154.725318 
L 294.000511 154.600129 
L 294.493807 154.325494 
L 294.863779 154.365986 
L 295.480399 154.26488 
L 295.850371 154.287088 
L 295.973695 154.211036 
L 296.466991 154.365267 
L 297.083611 154.338365 
L 297.453583 154.463833 
L 297.823555 154.4088 
L 298.316851 154.549369 
L 298.686823 154.66596 
L 299.180119 154.927054 
L 299.426767 154.93636 
L 300.783331 155.588832 
L 301.153303 155.48776 
L 302.386543 156.083379 
L 302.879839 155.722782 
L 303.743107 156.258302 
L 303.989755 156.240612 
L 304.483051 155.791573 
L 305.469643 156.246221 
L 305.716291 156.121097 
L 306.086263 155.622383 
L 307.072855 156.20188 
L 307.319503 156.156462 
L 307.936123 155.780867 
L 308.799391 155.93064 
L 309.169363 156.066365 
L 309.909307 156.485058 
L 310.279279 156.522527 
L 310.895899 156.390803 
L 311.759167 156.801841 
L 312.005815 156.772005 
L 312.745759 156.365225 
L 313.362379 156.75325 
L 313.732351 156.774317 
L 314.102323 156.55059 
L 314.348971 156.332015 
L 315.212239 156.705973 
L 315.582211 156.650177 
L 315.952183 156.252665 
L 316.075507 156.074071 
L 316.692127 156.432353 
L 317.062099 156.422318 
L 317.432071 156.187034 
L 317.925367 155.645232 
L 318.418663 156.036205 
L 318.788635 156.046096 
L 319.281931 155.8057 
L 319.528579 155.606505 
L 320.145199 155.994209 
L 320.638495 155.954936 
L 321.131791 155.661661 
L 321.255115 155.538766 
L 321.871735 155.942371 
L 322.488355 155.884295 
L 323.351623 155.684356 
L 323.844919 155.963951 
L 324.708187 156.045305 
L 324.831511 155.980048 
L 325.571455 156.347521 
L 326.804695 156.518051 
L 327.421315 156.789779 
L 328.037935 156.968569 
L 328.284583 156.984554 
L 329.641147 157.515442 
L 330.011119 157.448847 
L 330.874387 157.884015 
L 331.244359 158.069125 
L 331.491007 157.842418 
L 331.614331 157.660138 
L 332.477599 158.151768 
L 332.847571 158.435776 
L 333.094219 158.162485 
L 333.217543 157.899428 
L 334.204135 158.356064 
L 334.450783 158.534443 
L 334.574107 158.496936 
L 334.820755 158.061612 
L 334.944079 157.765616 
L 335.807347 158.322797 
L 336.177319 158.597284 
L 336.423967 158.194001 
L 336.793939 157.470949 
L 338.02718 158.481599 
L 338.397152 157.659262 
L 338.520476 157.7432 
L 339.630392 158.569355 
L 339.87704 158.23761 
L 340.123688 157.690072 
L 341.233604 158.706474 
L 341.356928 158.664015 
L 341.973548 157.520172 
L 342.713492 158.328102 
L 343.083464 158.539023 
L 343.330112 158.120908 
L 343.57676 157.613052 
L 344.686676 158.592153 
L 344.81 158.563736 
L 345.303296 157.637299 
L 345.42662 157.790563 
L 346.166564 158.57864 
L 346.413212 158.777592 
L 346.536536 158.680881 
L 346.906508 157.961689 
L 347.029832 157.972179 
L 347.646452 158.449841 
L 348.756368 158.819756 
L 349.12634 159.107049 
L 349.496312 159.276519 
L 349.74296 159.430428 
L 349.989608 159.109702 
L 350.236256 158.752157 
L 350.852876 159.349057 
L 351.222848 159.553487 
L 351.346172 159.619766 
L 351.469496 159.528525 
L 351.962792 158.49077 
L 352.456088 159.103059 
L 353.072708 159.160412 
L 353.319356 158.70479 
L 353.689328 157.983636 
L 354.182624 158.667163 
L 354.552596 158.676779 
L 354.799244 158.587829 
L 355.662512 157.584942 
L 356.772428 157.166031 
L 357.389048 157.211531 
L 358.37564 157.552116 
L 359.238908 158.119469 
L 359.732204 158.487655 
L 359.732204 158.487655 
" clip-path="url(#pfb4b033d6f)" style="fill: none; stroke: #ff7f0e; stroke-width: 1.5; stroke-linecap: square"/>
   </g>
   <g id="line2d_14">
    <path d="M 55.368567 17.28 
L 55.615215 23.67151 
L 55.985187 29.627474 
L 56.231835 31.183638 
L 56.355159 31.291776 
L 56.725131 30.561557 
L 56.848455 30.381601 
L 57.095103 29.326727 
L 57.341751 28.095245 
L 57.465075 28.017943 
L 58.328343 30.977403 
L 58.451668 31.117207 
L 58.574992 30.960801 
L 58.82164 29.467533 
L 59.43826 23.348556 
L 59.561584 23.413907 
L 59.684908 23.593797 
L 59.931556 24.60225 
L 60.794824 28.90692 
L 60.918148 28.916345 
L 61.164796 29.398429 
L 61.781416 30.856459 
L 62.028064 30.977674 
L 62.151388 30.889583 
L 62.398036 30.299954 
L 62.644684 29.329011 
L 63.014656 30.207202 
L 63.261304 30.66879 
L 63.384628 30.695985 
L 63.7546 30.315859 
L 64.001248 29.983643 
L 64.617868 28.572538 
L 64.98784 29.291295 
L 65.357812 29.906506 
L 65.727784 30.065711 
L 65.974432 29.908977 
L 66.22108 29.354341 
L 66.467728 29.698633 
L 67.084348 30.840074 
L 67.330996 30.698581 
L 67.577644 30.245412 
L 67.824292 28.909285 
L 67.947616 27.996302 
L 68.194264 28.607745 
L 68.68756 30.143009 
L 68.934208 30.221736 
L 69.180856 29.764017 
L 69.427504 28.640331 
L 69.674152 26.991426 
L 70.044124 28.922116 
L 70.414096 30.412082 
L 70.660744 30.870354 
L 70.784068 30.721682 
L 71.030716 29.952414 
L 71.15404 29.98421 
L 71.400688 30.379601 
L 72.017308 30.150192 
L 72.140632 29.89944 
L 72.38728 30.550446 
L 73.0039 32.885141 
L 73.250548 32.765634 
L 73.497196 32.342119 
L 73.743844 31.579372 
L 73.990492 32.020637 
L 74.607112 33.929886 
L 74.730436 33.962192 
L 74.977084 33.672726 
L 75.223732 32.798074 
L 75.47038 31.632409 
L 75.717028 32.21987 
L 76.210324 34.062739 
L 76.456972 34.124966 
L 76.70362 33.608175 
L 76.950268 32.371283 
L 77.196916 30.276137 
L 77.32024 30.474589 
L 77.566888 31.487623 
L 77.813536 32.409615 
L 77.93686 32.281659 
L 78.55348 30.475076 
L 79.046776 27.135619 
L 79.1701 27.187462 
L 79.293424 27.418317 
L 79.540072 29.159863 
L 79.78672 31.534769 
L 80.156692 30.002953 
L 80.526664 31.461071 
L 80.649988 31.60033 
L 80.896636 32.456557 
L 81.389932 35.072412 
L 81.883228 35.958099 
L 82.376524 36.202926 
L 83.116468 36.917592 
L 83.239792 36.895824 
L 83.48644 37.441245 
L 84.10306 39.672405 
L 84.349708 39.6418 
L 84.596356 39.12736 
L 84.843004 38.404161 
L 85.089652 38.919253 
L 85.829596 41.499453 
L 86.076244 41.366589 
L 86.322892 40.929516 
L 86.692864 40.004246 
L 86.939512 39.639737 
L 87.18616 40.137767 
L 87.926104 42.768722 
L 88.049428 42.776297 
L 88.296076 42.34951 
L 88.542724 41.549798 
L 88.912696 42.388138 
L 89.282668 43.383997 
L 89.529316 43.420053 
L 90.145936 42.941096 
L 90.26926 42.653578 
L 90.639232 43.208963 
L 91.132528 44.01934 
L 91.379176 44.170989 
L 91.5025 44.111468 
L 91.749148 43.236436 
L 91.995796 42.154336 
L 92.242444 42.28162 
L 92.489092 42.715284 
L 92.73574 43.161748 
L 93.229036 43.373983 
L 93.475684 43.652117 
L 93.845656 43.438792 
L 94.338952 43.960345 
L 94.5856 43.894712 
L 94.832248 44.087911 
L 95.20222 44.993976 
L 96.065488 47.885937 
L 96.312136 47.984775 
L 96.558784 47.575904 
L 96.928756 46.728532 
L 97.545376 48.328869 
L 97.915348 48.982003 
L 98.038672 48.933429 
L 98.28532 48.309975 
L 98.531968 47.623735 
L 98.90194 48.24887 
L 99.51856 50.257597 
L 99.641884 50.183587 
L 99.888532 49.603914 
L 100.258504 48.267051 
L 100.381828 48.328726 
L 100.628476 48.683254 
L 101.245096 50.376227 
L 101.491744 49.926992 
L 101.98504 48.129841 
L 102.355012 49.249613 
L 102.724984 50.604547 
L 102.971632 50.957588 
L 103.094956 51.021173 
L 103.21828 50.921373 
L 103.588252 49.691714 
L 103.711576 49.962571 
L 104.574844 52.253822 
L 104.698168 52.311836 
L 104.821492 52.203049 
L 105.191464 50.94961 
L 105.314788 50.518363 
L 105.68476 51.793513 
L 106.054732 52.96962 
L 106.424704 53.380855 
L 106.548028 53.303121 
L 106.794676 52.643173 
L 107.041324 51.910279 
L 107.287972 51.55485 
L 107.657944 52.578534 
L 108.027916 53.767025 
L 108.274564 53.990723 
L 108.397888 53.89295 
L 108.644536 53.206031 
L 108.891184 52.153533 
L 109.137832 52.645739 
L 109.877776 54.691257 
L 110.0011 54.672828 
L 110.247748 54.045389 
L 110.61772 52.820249 
L 110.987692 53.84567 
L 111.480988 55.370635 
L 111.727636 55.497726 
L 111.974284 54.772559 
L 112.220932 53.824918 
L 112.590904 54.508334 
L 113.207524 56.008465 
L 113.330848 56.034474 
L 113.454172 55.906063 
L 113.824144 54.71954 
L 113.947468 54.260641 
L 114.31744 54.969418 
L 114.810736 56.31614 
L 115.057384 56.388316 
L 115.304032 55.811868 
L 115.55068 54.691492 
L 115.920652 55.433277 
L 116.413948 56.70642 
L 116.660596 56.891443 
L 116.78392 56.746938 
L 117.030568 55.6773 
L 117.277216 54.140717 
L 117.647188 55.361196 
L 118.01716 56.5327 
L 118.263808 56.819318 
L 118.387132 56.808003 
L 118.510456 56.527103 
L 119.003752 53.535876 
L 119.127076 53.936278 
L 119.743696 56.128943 
L 120.113668 56.389891 
L 120.236992 56.116651 
L 120.730288 53.80246 
L 120.853612 53.748509 
L 121.10026 53.996607 
L 121.223584 53.889421 
L 122.210176 57.222713 
L 122.3335 57.2689 
L 122.456824 57.002762 
L 122.826796 54.750923 
L 122.95012 54.988413 
L 123.320092 56.282905 
L 123.690064 57.581478 
L 123.813388 57.724925 
L 123.936712 57.675544 
L 124.18336 56.87935 
L 124.553332 55.263617 
L 124.79998 55.918232 
L 125.293276 57.601647 
L 125.539924 57.889779 
L 125.663248 57.89493 
L 125.909896 57.43265 
L 126.156544 56.594168 
L 126.526516 57.243335 
L 127.019812 58.272755 
L 127.26646 58.381446 
L 127.513108 58.098101 
L 127.88308 57.078173 
L 128.006404 57.220738 
L 128.376377 57.934718 
L 128.746349 58.687707 
L 128.992997 58.819052 
L 129.239645 58.536457 
L 129.732941 57.046781 
L 130.102913 57.919962 
L 130.596209 59.162738 
L 130.842857 59.324665 
L 130.966181 59.194651 
L 131.212829 58.419233 
L 131.336153 57.868575 
L 131.706125 58.461202 
L 132.199421 59.400201 
L 132.446069 59.540648 
L 132.569393 59.447915 
L 132.816041 58.745956 
L 133.062689 57.651685 
L 133.432661 58.397375 
L 133.925957 59.465968 
L 134.172605 59.604099 
L 134.295929 59.476117 
L 134.542577 58.657699 
L 134.789225 57.698847 
L 135.035873 57.521042 
L 135.652493 58.160619 
L 136.269113 58.147361 
L 136.885733 58.311044 
L 137.255705 58.325102 
L 137.379029 58.116039 
L 138.365621 60.691018 
L 138.488945 60.717837 
L 138.612269 60.516955 
L 138.982241 58.676906 
L 139.105565 58.892075 
L 140.092157 60.983268 
L 140.215481 60.964709 
L 140.462129 60.237156 
L 140.708777 59.082385 
L 141.078749 60.060759 
L 141.572045 61.478003 
L 141.818693 61.758576 
L 141.942017 61.636789 
L 142.558637 59.89545 
L 143.298581 60.382818 
L 143.915201 60.131688 
L 144.778469 62.286335 
L 145.025117 62.315255 
L 145.271765 61.674562 
L 145.518413 60.553001 
L 145.888385 61.428479 
L 146.258357 62.30372 
L 146.628329 62.498884 
L 146.751653 62.404717 
L 146.998301 61.706574 
L 147.244949 60.692173 
L 147.614921 61.783516 
L 147.984893 62.750503 
L 148.354865 63.092291 
L 148.478189 63.001817 
L 148.724837 62.198846 
L 148.848161 61.705039 
L 149.218133 62.631849 
L 149.588105 63.45335 
L 149.958077 63.749591 
L 150.081401 63.724339 
L 150.328049 63.138162 
L 150.574697 62.316281 
L 151.437965 64.072655 
L 151.684613 64.25531 
L 151.807937 64.203155 
L 152.054585 63.629545 
L 152.177909 63.239295 
L 152.671205 63.949442 
L 153.164501 64.556612 
L 153.411149 64.609279 
L 153.657797 64.180486 
L 153.904445 63.42901 
L 154.274417 63.898883 
L 154.891037 64.939696 
L 155.014361 64.981619 
L 155.137685 64.90355 
L 155.384333 64.334196 
L 155.630981 63.634377 
L 155.877629 63.447428 
L 156.247601 64.311956 
L 156.617573 65.165371 
L 156.864221 65.379953 
L 156.987545 65.381856 
L 157.234193 64.929076 
L 157.480841 64.06893 
L 157.727489 64.41646 
L 158.344109 65.604583 
L 158.590757 65.709719 
L 158.714081 65.635 
L 158.960729 65.038847 
L 159.207377 64.196518 
L 159.577349 65.002812 
L 159.947321 65.733276 
L 160.317293 65.953879 
L 160.440617 65.862129 
L 160.687265 65.161983 
L 161.057237 64.14919 
L 162.043829 66.325555 
L 162.167153 66.363061 
L 162.290477 66.238106 
L 162.660449 65.0207 
L 162.783773 65.180365 
L 163.770365 66.659498 
L 163.893689 66.599213 
L 164.140337 66.036945 
L 164.386985 65.159869 
L 164.756957 65.777291 
L 165.126929 66.466531 
L 165.373577 66.632073 
L 165.620225 66.534728 
L 165.866873 65.980526 
L 166.113521 65.185653 
L 166.483493 65.873945 
L 166.976789 66.787195 
L 167.223437 66.890918 
L 167.470085 66.56434 
L 167.716733 65.867164 
L 168.086705 66.340775 
L 168.580001 67.040159 
L 168.826649 67.101796 
L 169.073297 66.839685 
L 169.443269 66.102075 
L 169.936565 66.783118 
L 170.306537 67.285129 
L 170.553185 67.413237 
L 170.799833 67.246128 
L 171.046481 66.847561 
L 171.539777 67.314505 
L 172.033073 67.778107 
L 172.279721 67.841237 
L 172.526369 67.583782 
L 172.773017 67.01625 
L 173.266313 67.62241 
L 173.636285 67.977266 
L 173.882933 68.036837 
L 174.129581 67.775054 
L 174.622877 66.641211 
L 175.609469 68.257601 
L 175.732793 68.240247 
L 175.979441 67.794569 
L 176.226089 67.047688 
L 176.596061 67.61104 
L 177.089357 68.413918 
L 177.336005 68.529975 
L 177.459329 68.443931 
L 177.829301 67.534914 
L 177.952625 67.255114 
L 178.445921 68.238424 
L 178.815893 68.836539 
L 179.062541 68.993879 
L 179.185865 68.931304 
L 179.679161 68.084434 
L 179.925809 68.296394 
L 180.419105 68.797652 
L 180.912401 68.941288 
L 181.775669 68.865391 
L 182.392289 68.708132 
L 182.515613 68.484885 
L 183.502205 70.635226 
L 183.625529 70.577687 
L 183.872177 69.786232 
L 184.118825 68.704712 
L 184.488797 69.650029 
L 184.982093 70.975101 
L 185.228741 71.217197 
L 185.352065 71.088974 
L 185.845361 69.19336 
L 186.708629 71.571136 
L 186.955277 71.770021 
L 187.078601 71.608363 
L 187.571897 70.066418 
L 188.065193 70.544102 
L 188.435165 70.579422 
L 188.805137 70.410058 
L 188.928461 70.313057 
L 189.051785 70.000758 
L 189.791729 71.597153 
L 190.038377 71.756627 
L 190.161701 71.641817 
L 190.408349 70.843674 
L 190.654997 69.65182 
L 191.024969 70.458057 
L 191.518265 71.729583 
L 191.764913 71.882526 
L 192.011561 71.10703 
L 192.381533 69.490395 
L 192.751505 70.632378 
L 193.244801 72.318819 
L 193.491449 72.51741 
L 193.738097 71.440639 
L 193.984745 70.246952 
L 194.231393 70.266275 
L 194.971337 72.929604 
L 195.217985 73.323633 
L 195.341309 73.257702 
L 195.834605 71.368238 
L 196.451225 73.32158 
L 196.944521 73.8604 
L 197.067845 73.798943 
L 197.561141 72.385178 
L 198.054438 73.532451 
L 198.547734 73.925424 
L 198.671058 73.960989 
L 198.794382 73.859087 
L 199.04103 73.230578 
L 199.164354 72.76238 
L 200.27427 73.818546 
L 200.520918 73.465609 
L 200.89089 72.02838 
L 201.014214 72.140519 
L 201.260862 72.580525 
L 201.754158 73.843471 
L 202.000806 73.961882 
L 202.12413 73.755492 
L 202.617426 71.677045 
L 202.74075 71.901078 
L 202.987398 72.674363 
L 203.480694 74.416551 
L 203.727342 74.553431 
L 203.97399 73.607971 
L 204.220638 72.520031 
L 204.59061 73.56739 
L 205.083906 75.225881 
L 205.330554 75.493811 
L 205.453878 75.34789 
L 205.947174 73.471287 
L 206.933766 76.239653 
L 207.05709 76.338328 
L 207.180414 76.20619 
L 207.550386 74.952695 
L 208.29033 76.582646 
L 208.660302 76.825337 
L 208.783626 76.808364 
L 209.030274 76.274352 
L 209.276922 75.400017 
L 209.893542 76.509309 
L 210.263514 76.752902 
L 210.386838 76.741569 
L 210.633486 76.299561 
L 210.880134 75.286616 
L 211.003458 74.520268 
L 211.37343 75.270093 
L 211.866726 76.335086 
L 211.99005 76.423877 
L 212.113374 76.351696 
L 212.360022 75.558975 
L 212.853318 73.541694 
L 212.976642 73.286652 
L 213.346614 74.648383 
L 213.83991 76.388129 
L 213.963234 76.555947 
L 214.086558 76.44756 
L 214.333206 75.220292 
L 214.579854 73.881026 
L 214.949826 75.052671 
L 215.443122 76.919448 
L 215.68977 77.325197 
L 215.813094 77.056034 
L 216.30639 74.560761 
L 217.292982 78.171717 
L 217.416306 78.317013 
L 217.53963 77.967564 
L 217.909602 75.875487 
L 218.649546 78.372563 
L 219.142842 78.912741 
L 219.38949 77.788053 
L 219.636138 76.73536 
L 220.129434 78.533713 
L 220.499406 78.861834 
L 220.746054 79.115442 
L 220.869378 78.993471 
L 221.609322 76.573891 
L 221.732646 76.570894 
L 221.85597 76.405679 
L 222.719238 79.054589 
L 222.842562 79.143404 
L 222.965886 78.998238 
L 223.212534 77.945959 
L 223.459182 76.437552 
L 223.70583 76.903109 
L 224.569098 79.248598 
L 224.815746 78.238236 
L 225.185718 76.281798 
L 225.432366 77.031234 
L 226.17231 79.900291 
L 226.295634 79.875092 
L 226.542282 78.515463 
L 226.78893 77.10153 
L 226.912254 77.102239 
L 227.528874 79.139013 
L 228.02217 80.937623 
L 228.392142 81.569968 
L 228.515466 81.599169 
L 228.63879 81.335129 
L 229.132086 79.286053 
L 229.625382 81.41886 
L 229.87203 81.621573 
L 230.118678 81.794342 
L 230.242002 81.905246 
L 230.365326 81.777769 
L 230.858622 80.129029 
L 231.475242 80.059275 
L 232.091862 81.644169 
L 232.461834 82.057433 
L 232.585158 81.996461 
L 232.831806 81.356677 
L 233.078454 80.183829 
L 233.325102 80.436503 
L 233.695074 81.322384 
L 234.065046 82.07875 
L 234.18837 82.096197 
L 234.435018 81.545671 
L 234.80499 79.994979 
L 235.051638 80.326545 
L 235.42161 81.581539 
L 235.791582 82.510211 
L 235.914906 82.498426 
L 236.161554 81.698186 
L 236.408202 80.611015 
L 236.65485 81.009588 
L 237.518118 83.107214 
L 237.641442 83.026381 
L 238.134738 81.330494 
L 239.12133 83.652583 
L 239.244654 83.735676 
L 239.367978 83.660326 
L 239.861274 82.436372 
L 240.231246 82.874178 
L 240.724542 83.020893 
L 241.094514 82.906108 
L 241.58781 82.472635 
L 241.711134 82.176166 
L 242.697726 84.02287 
L 242.82105 83.957629 
L 243.067698 83.240412 
L 243.314346 81.985542 
L 243.684318 82.592655 
L 244.300938 84.055527 
L 244.424262 84.121031 
L 244.547586 83.985175 
L 244.794234 83.010841 
L 245.040882 81.807222 
L 245.410854 82.670428 
L 246.027474 84.366179 
L 246.150798 84.434382 
L 246.274122 84.252094 
L 246.644094 82.461215 
L 247.13739 83.668928 
L 247.507362 84.551955 
L 247.75401 84.770036 
L 247.877334 84.731939 
L 248.123982 83.893511 
L 248.37063 82.749452 
L 249.233898 84.829575 
L 249.480546 84.950233 
L 249.60387 84.86034 
L 249.850518 84.025208 
L 250.097166 83.162479 
L 250.343814 82.724217 
L 251.083758 84.768668 
L 251.330406 85.01044 
L 251.45373 84.991966 
L 251.700378 84.418286 
L 251.947026 83.213988 
L 252.440322 84.277751 
L 252.810294 84.95643 
L 253.056942 84.998037 
L 253.30359 84.315558 
L 253.673562 82.419441 
L 254.043534 83.401262 
L 254.53683 84.770904 
L 254.660154 84.899282 
L 254.783478 84.859404 
L 255.030126 83.965966 
L 255.400098 81.846269 
L 255.77007 83.145445 
L 256.140042 84.430823 
L 256.38669 84.812048 
L 256.510014 84.783404 
L 256.756662 83.669187 
L 257.00331 82.205875 
L 257.126634 81.995281 
L 257.373282 82.275863 
L 257.743254 82.745433 
L 258.483198 83.408856 
L 258.976494 85.03889 
L 259.46979 85.768698 
L 259.716438 85.86149 
L 259.963086 85.21976 
L 260.209734 84.19801 
L 260.949678 86.089163 
L 261.31965 86.376049 
L 261.442974 86.329322 
L 261.689622 85.746455 
L 261.812946 85.254459 
L 262.306242 86.199796 
L 262.676214 86.954237 
L 262.922862 87.086357 
L 263.046186 86.986301 
L 263.292834 86.341577 
L 263.539482 85.241214 
L 263.909454 85.923312 
L 264.526074 87.508286 
L 264.649398 87.506408 
L 264.772722 87.305043 
L 265.142694 85.702406 
L 265.266018 85.078219 
L 265.512666 85.516751 
L 266.25261 87.600124 
L 266.375934 87.570993 
L 266.622582 86.67632 
L 266.992554 85.010784 
L 267.239202 84.99551 
L 267.732499 85.237409 
L 268.349119 85.504175 
L 269.089063 85.974997 
L 271.308895 87.723547 
L 271.925515 87.764719 
L 272.048839 87.448871 
L 272.912107 90.260814 
L 273.035431 90.347403 
L 273.158755 90.196268 
L 273.405403 88.923587 
L 273.652051 87.512215 
L 274.022023 88.841485 
L 274.391995 90.158736 
L 274.761967 90.666929 
L 274.885291 90.420954 
L 275.378587 87.905902 
L 276.365179 91.461133 
L 276.488503 91.569249 
L 276.611827 91.276787 
L 276.981799 89.284257 
L 278.091715 92.688195 
L 278.215039 92.665629 
L 278.461687 91.54718 
L 278.708335 90.444803 
L 279.448279 92.854125 
L 279.818251 93.379703 
L 279.941575 93.273357 
L 280.681519 90.94592 
L 280.804843 90.689226 
L 281.668111 93.255791 
L 281.791435 93.335668 
L 281.914759 93.240558 
L 282.161407 92.317041 
L 282.408055 90.655987 
L 282.654703 91.051545 
L 283.394647 92.859661 
L 283.517971 92.818985 
L 283.764619 92.061567 
L 284.134591 89.961064 
L 284.381239 90.578134 
L 284.997859 92.694863 
L 285.121183 92.81365 
L 285.244507 92.751526 
L 285.491155 91.753607 
L 285.861127 89.740063 
L 286.231099 91.317102 
L 286.601071 92.825728 
L 286.847719 93.240693 
L 286.971043 93.212397 
L 287.217691 92.039163 
L 287.464339 90.740464 
L 288.450931 93.99238 
L 288.574255 94.106886 
L 288.697579 93.987702 
L 289.190875 91.746422 
L 289.807495 94.357397 
L 290.300791 95.018955 
L 290.424115 94.907387 
L 290.794087 93.318474 
L 291.410707 95.120464 
L 291.904003 95.508313 
L 292.027327 95.503228 
L 292.273975 94.834513 
L 292.520623 93.87648 
L 293.383891 95.355425 
L 293.630539 95.468281 
L 293.753863 95.400218 
L 294.000511 94.782006 
L 294.370483 93.721943 
L 294.740455 94.23202 
L 295.233751 95.279924 
L 295.480399 95.406051 
L 295.603723 95.317304 
L 295.850371 94.748658 
L 295.973695 94.377005 
L 296.343667 94.515578 
L 296.590315 95.022608 
L 296.960287 95.772287 
L 297.206935 95.828744 
L 297.453583 95.415541 
L 297.700231 94.83691 
L 298.070203 95.041024 
L 298.440175 95.964723 
L 298.686823 96.412106 
L 298.933471 96.462722 
L 299.180119 96.040526 
L 299.303443 95.742111 
L 299.796739 95.981794 
L 300.413359 96.982134 
L 300.660007 96.938111 
L 300.906655 96.461949 
L 301.029979 96.112735 
L 301.523275 96.433038 
L 302.016571 97.203237 
L 302.263219 97.236409 
L 302.509867 96.879881 
L 302.756515 96.112659 
L 303.126487 96.386141 
L 303.866431 97.32898 
L 303.989755 97.260815 
L 304.236403 96.737095 
L 304.359727 96.346098 
L 304.853023 96.785708 
L 305.346319 97.412911 
L 305.592967 97.444839 
L 305.839615 97.012192 
L 306.086263 96.322333 
L 306.579559 97.060249 
L 307.072855 97.739119 
L 307.319503 97.77985 
L 307.566151 97.326843 
L 307.812799 96.93774 
L 308.059447 97.129437 
L 308.676067 97.837124 
L 309.169363 98.295331 
L 309.909307 99.244663 
L 310.155955 99.359152 
L 310.402603 99.204225 
L 310.772575 98.416283 
L 310.895899 98.570375 
L 311.759167 99.508173 
L 312.005815 99.39152 
L 312.252463 98.911597 
L 312.622435 98.135678 
L 312.745759 97.936868 
L 313.609027 99.132602 
L 313.855675 99.029477 
L 314.102323 98.609709 
L 314.348971 97.858179 
L 315.335563 99.046392 
L 315.582211 98.850581 
L 315.952183 97.844203 
L 316.075507 97.411164 
L 317.185423 98.917293 
L 317.432071 98.46834 
L 317.925367 97.111957 
L 318.911959 98.950731 
L 319.035283 98.860021 
L 319.281931 98.215708 
L 319.528579 97.2739 
L 320.145199 98.466959 
L 320.515171 99.100303 
L 320.638495 99.094636 
L 320.761819 98.912632 
L 321.131791 97.394348 
L 321.255115 96.854486 
L 321.871735 98.166752 
L 322.241707 98.793897 
L 322.365031 98.770624 
L 322.611679 98.117641 
L 322.981651 96.723312 
L 323.228299 96.44373 
L 324.091567 98.235569 
L 324.338215 98.247944 
L 324.584863 97.643167 
L 324.831511 96.759915 
L 325.818103 98.281197 
L 325.941427 98.312346 
L 326.064751 98.218372 
L 326.311399 97.478461 
L 326.558047 96.557514 
L 327.544639 98.228546 
L 327.667963 98.275176 
L 327.791287 98.19558 
L 328.037935 97.496447 
L 328.161259 97.017603 
L 328.654555 97.774335 
L 329.024527 98.254922 
L 329.271175 98.357893 
L 329.394499 98.314303 
L 329.641147 97.743626 
L 329.887795 96.681155 
L 330.257767 97.353972 
L 330.627739 98.080631 
L 330.997711 98.28056 
L 331.121035 98.197889 
L 331.367683 97.495458 
L 331.614331 96.283296 
L 331.984303 97.032643 
L 332.354275 97.92041 
L 332.600923 98.138734 
L 332.724247 98.14704 
L 332.847571 98.009883 
L 333.094219 97.108999 
L 333.217543 96.467546 
L 333.587515 97.017074 
L 334.080811 98.033975 
L 334.327459 98.168316 
L 334.450783 98.101706 
L 334.697431 97.387787 
L 334.944079 96.119309 
L 335.314051 96.812942 
L 335.807347 98.042197 
L 336.053995 98.25092 
L 336.177319 98.19535 
L 336.423967 97.386151 
L 336.793939 95.802662 
L 337.163911 96.735818 
L 337.657208 98.213802 
L 337.903856 98.500013 
L 338.02718 98.422608 
L 338.273828 97.426175 
L 338.397152 96.640272 
L 338.767124 97.206348 
L 339.507068 98.815254 
L 339.630392 98.77113 
L 339.87704 97.914208 
L 340.123688 96.25569 
L 340.49366 96.985313 
L 341.11028 98.885077 
L 341.233604 98.966764 
L 341.356928 98.816783 
L 341.603576 97.597959 
L 341.973548 95.487314 
L 342.34352 96.605121 
L 342.96014 98.942324 
L 343.083464 98.973921 
L 343.206788 98.700249 
L 343.57676 96.234966 
L 343.700084 96.46309 
L 344.070056 97.534153 
L 344.563352 99.387561 
L 344.686676 99.516451 
L 344.81 99.33895 
L 345.056648 97.921894 
L 345.303296 96.245871 
L 345.673268 97.184576 
L 346.413212 99.65468 
L 346.536536 99.414524 
L 347.153156 96.617792 
L 347.523128 96.733794 
L 348.016424 96.96279 
L 348.263072 96.837209 
L 348.50972 96.526665 
L 348.633044 96.118109 
L 349.003016 96.847288 
L 349.619636 98.582049 
L 349.74296 98.44625 
L 349.989608 97.62322 
L 350.236256 96.030006 
L 350.35958 96.069579 
L 350.606228 96.286168 
L 350.852876 97.074125 
L 351.222848 98.229622 
L 351.346172 98.138452 
L 351.59282 97.281664 
L 351.962792 95.179196 
L 352.086116 95.265969 
L 352.332764 95.675739 
L 352.949384 97.957829 
L 353.072708 97.903506 
L 353.319356 96.972784 
L 353.689328 94.777211 
L 353.935976 95.161158 
L 354.182624 96.01965 
L 354.552596 97.669353 
L 354.67592 97.899539 
L 354.799244 97.885348 
L 355.045892 96.889037 
L 355.415864 95.232781 
L 355.539188 95.166378 
L 355.785836 95.448447 
L 356.402456 96.460001 
L 356.772428 96.667743 
L 357.1424 96.881732 
L 359.115584 99.143007 
L 359.732204 101.16214 
L 359.732204 101.16214 
" clip-path="url(#pfb4b033d6f)" style="fill: none; stroke: #2ca02c; stroke-width: 1.5; stroke-linecap: square"/>
   </g>
   <g id="patch_3">
    <path d="M 40.150386 228.96 
L 40.150386 7.2 
" style="fill: none; stroke: #000000; stroke-width: 0.8; stroke-linejoin: miter; stroke-linecap: square"/>
   </g>
   <g id="patch_4">
    <path d="M 374.950386 228.96 
L 374.950386 7.2 
" style="fill: none; stroke: #000000; stroke-width: 0.8; stroke-linejoin: miter; stroke-linecap: square"/>
   </g>
   <g id="patch_5">
    <path d="M 40.150386 228.96 
L 374.950386 228.96 
" style="fill: none; stroke: #000000; stroke-width: 0.8; stroke-linejoin: miter; stroke-linecap: square"/>
   </g>
   <g id="patch_6">
    <path d="M 40.150386 7.2 
L 374.950386 7.2 
" style="fill: none; stroke: #000000; stroke-width: 0.8; stroke-linejoin: miter; stroke-linecap: square"/>
   </g>
   <g id="legend_1">
    <g id="patch_7">
     <path d="M 144.410035 43.640613 
L 270.690736 43.640613 
Q 272.690736 43.640613 272.690736 41.640613 
L 272.690736 14.2 
Q 272.690736 12.2 270.690736 12.2 
L 144.410035 12.2 
Q 142.410035 12.2 142.410035 14.2 
L 142.410035 41.640613 
Q 142.410035 43.640613 144.410035 43.640613 
z
" style="fill: #ffffff; opacity: 0.8; stroke: #cccccc; stroke-linejoin: miter"/>
    </g>
    <g id="line2d_15">
     <path d="M 146.410035 19.79832 
L 156.410035 19.79832 
L 166.410035 19.79832 
" style="fill: none; stroke: #1f77b4; stroke-width: 1.5; stroke-linecap: square"/>
    </g>
    <g id="text_14">
     <!-- $\rho$ -->
     <g transform="translate(174.410035 23.29832) scale(0.1 -0.1)">
      <defs>
       <path id="CMMI12-1a" d="M 198 -1085 
C 192 -1116 179 -1154 179 -1191 
C 179 -1287 256 -1351 352 -1351 
C 448 -1351 538 -1287 576 -1198 
C 602 -1141 781 -390 986 389 
C 1114 70 1350 -64 1600 -64 
C 2323 -64 3142 830 3142 1794 
C 3142 2477 2726 2816 2285 2816 
C 1722 2816 1037 2234 826 1385 
L 198 -1085 
z
M 1594 64 
C 1158 64 1050 568 1050 645 
C 1050 683 1210 1289 1229 1385 
C 1555 2656 2182 2687 2278 2687 
C 2566 2687 2726 2426 2726 2049 
C 2726 1724 2554 1091 2445 823 
C 2253 383 1920 64 1594 64 
z
" transform="scale(0.015625)"/>
      </defs>
      <use xlink:href="#CMMI12-1a" transform="scale(0.996264)"/>
     </g>
    </g>
    <g id="line2d_16">
     <path d="M 146.410035 34.018627 
L 156.410035 34.018627 
L 166.410035 34.018627 
" style="fill: none; stroke: #ff7f0e; stroke-width: 1.5; stroke-linecap: square"/>
    </g>
    <g id="text_15">
     <!-- $\rho u$ -->
     <g transform="translate(174.410035 37.518627) scale(0.1 -0.1)">
      <defs>
       <path id="CMMI12-75" d="M 2182 370 
C 2266 12 2573 -64 2726 -64 
C 2931 -64 3085 70 3187 287 
C 3296 517 3379 893 3379 913 
C 3379 944 3354 970 3315 970 
C 3258 970 3251 938 3226 842 
C 3110 402 2995 64 2739 64 
C 2547 64 2547 274 2547 357 
C 2547 504 2566 568 2630 836 
C 2675 1008 2720 1181 2758 1359 
L 3021 2400 
C 3066 2560 3066 2572 3066 2591 
C 3066 2687 2989 2752 2893 2752 
C 2707 2752 2662 2591 2624 2432 
C 2560 2183 2214 810 2170 587 
C 2163 587 1914 64 1446 64 
C 1114 64 1050 351 1050 587 
C 1050 951 1229 1462 1395 1890 
C 1472 2094 1504 2177 1504 2305 
C 1504 2579 1306 2816 998 2816 
C 410 2816 173 1890 173 1838 
C 173 1813 198 1781 243 1781 
C 301 1781 307 1807 333 1896 
C 486 2445 736 2687 979 2687 
C 1043 2687 1146 2681 1146 2477 
C 1146 2311 1075 2126 979 1883 
C 698 1123 666 881 666 689 
C 666 38 1158 -64 1421 -64 
C 1830 -64 2054 217 2182 370 
z
" transform="scale(0.015625)"/>
      </defs>
      <use xlink:href="#CMMI12-1a" transform="scale(0.996264)"/>
      <use xlink:href="#CMMI12-75" transform="translate(50.314373 0) scale(0.996264)"/>
     </g>
    </g>
    <g id="line2d_17">
     <path d="M 205.264062 19.79832 
L 215.264062 19.79832 
L 225.264062 19.79832 
" style="fill: none; stroke: #2ca02c; stroke-width: 1.5; stroke-linecap: square"/>
    </g>
    <g id="text_16">
     <!-- $\rho E$ -->
     <g transform="translate(233.264062 23.29832) scale(0.1 -0.1)">
      <defs>
       <path id="CMMI12-45" d="M 4448 1489 
C 4454 1508 4474 1553 4474 1578 
C 4474 1611 4448 1643 4410 1643 
C 4384 1643 4371 1636 4352 1617 
C 4339 1611 4339 1598 4282 1469 
C 3904 570 3629 185 2605 185 
L 1670 185 
C 1581 185 1568 185 1530 192 
C 1459 198 1453 211 1453 262 
C 1453 307 1466 346 1478 403 
L 1920 2176 
L 2554 2176 
C 3053 2176 3091 2066 3091 1874 
C 3091 1810 3091 1752 3046 1559 
C 3034 1534 3027 1508 3027 1489 
C 3027 1444 3059 1424 3098 1424 
C 3155 1424 3162 1469 3187 1559 
L 3552 3036 
C 3552 3068 3526 3099 3488 3099 
C 3430 3099 3424 3074 3398 2986 
C 3270 2500 3142 2361 2573 2361 
L 1965 2361 
L 2362 3913 
C 2419 4134 2432 4153 2694 4153 
L 3610 4153 
C 4397 4153 4557 3945 4557 3465 
C 4557 3459 4557 3282 4531 3074 
C 4525 3049 4518 3011 4518 2998 
C 4518 2948 4550 2929 4589 2929 
C 4634 2929 4659 2954 4672 3068 
L 4806 4172 
C 4806 4191 4819 4255 4819 4268 
C 4819 4339 4762 4339 4646 4339 
L 1523 4339 
C 1402 4339 1338 4339 1338 4223 
C 1338 4153 1382 4153 1491 4153 
C 1888 4153 1888 4109 1888 4039 
C 1888 4008 1882 3983 1862 3913 
L 998 474 
C 941 249 928 185 480 185 
C 358 185 294 185 294 70 
C 294 0 333 0 461 0 
L 3674 0 
C 3814 0 3821 6 3866 108 
L 4448 1489 
z
" transform="scale(0.015625)"/>
      </defs>
      <use xlink:href="#CMMI12-1a" transform="scale(0.996264)"/>
      <use xlink:href="#CMMI12-45" transform="translate(50.314373 0) scale(0.996264)"/>
     </g>
    </g>
    <g id="line2d_18">
     <path d="M 205.264062 34.018627 
L 215.264062 34.018627 
L 225.264062 34.018627 
" style="fill: none; stroke-dasharray: 3.7,1.6; stroke-dashoffset: 0; stroke: #808080"/>
    </g>
    <g id="text_17">
     <!-- Time [s] -->
     <g transform="translate(233.264062 37.518627) scale(0.1 -0.1)">
      <defs>
       <path id="NimbusSanL-Regu-54" d="M 2266 4147 
L 3795 4147 
L 3795 4672 
L 134 4672 
L 134 4147 
L 1670 4147 
L 1670 0 
L 2266 0 
L 2266 4147 
z
" transform="scale(0.015625)"/>
       <path id="NimbusSanL-Regu-6d" d="M 448 3328 
L 448 0 
L 986 0 
L 986 2089 
C 986 2597 1338 2988 1773 2988 
C 2170 2988 2394 2744 2394 2315 
L 2394 0 
L 2931 0 
L 2931 2109 
C 2931 2597 3283 2988 3718 2988 
C 4109 2988 4339 2738 4339 2315 
L 4339 0 
L 4877 0 
L 4877 2520 
C 4877 3123 4531 3456 3904 3456 
C 3456 3456 3187 3321 2874 2943 
C 2675 3302 2406 3456 1971 3456 
C 1523 3456 1229 3289 941 2886 
L 941 3328 
L 448 3328 
z
" transform="scale(0.015625)"/>
       <path id="NimbusSanL-Regu-5b" d="M 1600 4672 
L 410 4672 
L 410 -1357 
L 1600 -1357 
L 1600 -896 
L 941 -896 
L 941 4211 
L 1600 4211 
L 1600 4672 
z
" transform="scale(0.015625)"/>
       <path id="NimbusSanL-Regu-5d" d="M 147 -1357 
L 1338 -1357 
L 1338 4672 
L 147 4672 
L 147 4211 
L 806 4211 
L 806 -896 
L 147 -896 
L 147 -1357 
z
" transform="scale(0.015625)"/>
      </defs>
      <use xlink:href="#NimbusSanL-Regu-54" transform="scale(0.996264)"/>
      <use xlink:href="#NimbusSanL-Regu-69" transform="translate(60.871631 0) scale(0.996264)"/>
      <use xlink:href="#NimbusSanL-Regu-6d" transform="translate(82.988415 0) scale(0.996264)"/>
      <use xlink:href="#NimbusSanL-Regu-65" transform="translate(165.976845 0) scale(0.996264)"/>
      <use xlink:href="#NimbusSanL-Regu-5b" transform="translate(249.063692 0) scale(0.996264)"/>
      <use xlink:href="#NimbusSanL-Regu-73" transform="translate(276.758861 0) scale(0.996264)"/>
      <use xlink:href="#NimbusSanL-Regu-5d" transform="translate(326.572062 0) scale(0.996264)"/>
     </g>
    </g>
   </g>
  </g>
  <g id="axes_2">
   <g id="matplotlib.axis_3">
    <g id="ytick_6">
     <g id="line2d_19">
      <defs>
       <path id="md6c5a366a5" d="M 0 0 
L 3.5 0 
" style="stroke: #000000; stroke-width: 0.8"/>
      </defs>
      <g>
       <use xlink:href="#md6c5a366a5" x="374.950386" y="218.88" style="stroke: #000000; stroke-width: 0.8"/>
      </g>
     </g>
     <g id="text_18">
      <!-- $\mathdefault{0}$ -->
      <g transform="translate(381.950386 222.42916) scale(0.1 -0.1)">
       <use xlink:href="#CMR17-30" transform="scale(0.996264)"/>
      </g>
     </g>
    </g>
    <g id="ytick_7">
     <g id="line2d_20">
      <g>
       <use xlink:href="#md6c5a366a5" x="374.950386" y="192.947804" style="stroke: #000000; stroke-width: 0.8"/>
      </g>
     </g>
     <g id="text_19">
      <!-- $\mathdefault{25}$ -->
      <g transform="translate(381.950386 196.496964) scale(0.1 -0.1)">
       <use xlink:href="#CMR17-32" transform="scale(0.996264)"/>
       <use xlink:href="#CMR17-35" transform="translate(45.690477 0) scale(0.996264)"/>
      </g>
     </g>
    </g>
    <g id="ytick_8">
     <g id="line2d_21">
      <g>
       <use xlink:href="#md6c5a366a5" x="374.950386" y="167.015608" style="stroke: #000000; stroke-width: 0.8"/>
      </g>
     </g>
     <g id="text_20">
      <!-- $\mathdefault{50}$ -->
      <g transform="translate(381.950386 170.564768) scale(0.1 -0.1)">
       <use xlink:href="#CMR17-35" transform="scale(0.996264)"/>
       <use xlink:href="#CMR17-30" transform="translate(45.690477 0) scale(0.996264)"/>
      </g>
     </g>
    </g>
    <g id="ytick_9">
     <g id="line2d_22">
      <g>
       <use xlink:href="#md6c5a366a5" x="374.950386" y="141.083411" style="stroke: #000000; stroke-width: 0.8"/>
      </g>
     </g>
     <g id="text_21">
      <!-- $\mathdefault{75}$ -->
      <g transform="translate(381.950386 144.632572) scale(0.1 -0.1)">
       <defs>
        <path id="CMR17-37" d="M 2886 3955 
L 2886 4096 
L 1382 4096 
C 634 4096 621 4166 595 4288 
L 480 4288 
L 294 3104 
L 410 3104 
C 429 3226 474 3552 550 3673 
C 589 3724 1062 3724 1171 3724 
L 2579 3724 
L 1869 2670 
C 1395 1961 1069 1003 1069 166 
C 1069 89 1069 -128 1299 -128 
C 1530 -128 1530 89 1530 172 
L 1530 466 
C 1530 1514 1709 2204 2003 2644 
L 2886 3955 
z
" transform="scale(0.015625)"/>
       </defs>
       <use xlink:href="#CMR17-37" transform="scale(0.996264)"/>
       <use xlink:href="#CMR17-35" transform="translate(45.690477 0) scale(0.996264)"/>
      </g>
     </g>
    </g>
    <g id="ytick_10">
     <g id="line2d_23">
      <g>
       <use xlink:href="#md6c5a366a5" x="374.950386" y="115.151215" style="stroke: #000000; stroke-width: 0.8"/>
      </g>
     </g>
     <g id="text_22">
      <!-- $\mathdefault{100}$ -->
      <g transform="translate(381.950386 118.700375) scale(0.1 -0.1)">
       <use xlink:href="#CMR17-31" transform="scale(0.996264)"/>
       <use xlink:href="#CMR17-30" transform="translate(45.690477 0) scale(0.996264)"/>
       <use xlink:href="#CMR17-30" transform="translate(91.380954 0) scale(0.996264)"/>
      </g>
     </g>
    </g>
    <g id="ytick_11">
     <g id="line2d_24">
      <g>
       <use xlink:href="#md6c5a366a5" x="374.950386" y="89.219019" style="stroke: #000000; stroke-width: 0.8"/>
      </g>
     </g>
     <g id="text_23">
      <!-- $\mathdefault{125}$ -->
      <g transform="translate(381.950386 92.768179) scale(0.1 -0.1)">
       <use xlink:href="#CMR17-31" transform="scale(0.996264)"/>
       <use xlink:href="#CMR17-32" transform="translate(45.690477 0) scale(0.996264)"/>
       <use xlink:href="#CMR17-35" transform="translate(91.380954 0) scale(0.996264)"/>
      </g>
     </g>
    </g>
    <g id="ytick_12">
     <g id="line2d_25">
      <g>
       <use xlink:href="#md6c5a366a5" x="374.950386" y="63.286823" style="stroke: #000000; stroke-width: 0.8"/>
      </g>
     </g>
     <g id="text_24">
      <!-- $\mathdefault{150}$ -->
      <g transform="translate(381.950386 66.835983) scale(0.1 -0.1)">
       <use xlink:href="#CMR17-31" transform="scale(0.996264)"/>
       <use xlink:href="#CMR17-35" transform="translate(45.690477 0) scale(0.996264)"/>
       <use xlink:href="#CMR17-30" transform="translate(91.380954 0) scale(0.996264)"/>
      </g>
     </g>
    </g>
    <g id="ytick_13">
     <g id="line2d_26">
      <g>
       <use xlink:href="#md6c5a366a5" x="374.950386" y="37.354627" style="stroke: #000000; stroke-width: 0.8"/>
      </g>
     </g>
     <g id="text_25">
      <!-- $\mathdefault{175}$ -->
      <g transform="translate(381.950386 40.903787) scale(0.1 -0.1)">
       <use xlink:href="#CMR17-31" transform="scale(0.996264)"/>
       <use xlink:href="#CMR17-37" transform="translate(45.690477 0) scale(0.996264)"/>
       <use xlink:href="#CMR17-35" transform="translate(91.380954 0) scale(0.996264)"/>
      </g>
     </g>
    </g>
    <g id="ytick_14">
     <g id="line2d_27">
      <g>
       <use xlink:href="#md6c5a366a5" x="374.950386" y="11.42243" style="stroke: #000000; stroke-width: 0.8"/>
      </g>
     </g>
     <g id="text_26">
      <!-- $\mathdefault{200}$ -->
      <g transform="translate(381.950386 14.971591) scale(0.1 -0.1)">
       <use xlink:href="#CMR17-32" transform="scale(0.996264)"/>
       <use xlink:href="#CMR17-30" transform="translate(45.690477 0) scale(0.996264)"/>
       <use xlink:href="#CMR17-30" transform="translate(91.380954 0) scale(0.996264)"/>
      </g>
     </g>
    </g>
    <g id="text_27">
     <!-- Time [s] -->
     <g transform="translate(407.992712 135.793337) rotate(-90) scale(0.1 -0.1)">
      <use xlink:href="#NimbusSanL-Regu-54" transform="scale(0.996264)"/>
      <use xlink:href="#NimbusSanL-Regu-69" transform="translate(60.871631 0) scale(0.996264)"/>
      <use xlink:href="#NimbusSanL-Regu-6d" transform="translate(82.988415 0) scale(0.996264)"/>
      <use xlink:href="#NimbusSanL-Regu-65" transform="translate(165.976845 0) scale(0.996264)"/>
      <use xlink:href="#NimbusSanL-Regu-5b" transform="translate(249.063692 0) scale(0.996264)"/>
      <use xlink:href="#NimbusSanL-Regu-73" transform="translate(276.758861 0) scale(0.996264)"/>
      <use xlink:href="#NimbusSanL-Regu-5d" transform="translate(326.572062 0) scale(0.996264)"/>
     </g>
    </g>
   </g>
   <g id="line2d_28">
    <path d="M 55.368567 218.88 
L 359.732204 17.28 
" clip-path="url(#pfb4b033d6f)" style="fill: none; stroke-dasharray: 3.7,1.6; stroke-dashoffset: 0; stroke: #808080"/>
   </g>
   <g id="patch_8">
    <path d="M 40.150386 228.96 
L 40.150386 7.2 
" style="fill: none; stroke: #000000; stroke-width: 0.8; stroke-linejoin: miter; stroke-linecap: square"/>
   </g>
   <g id="patch_9">
    <path d="M 374.950386 228.96 
L 374.950386 7.2 
" style="fill: none; stroke: #000000; stroke-width: 0.8; stroke-linejoin: miter; stroke-linecap: square"/>
   </g>
   <g id="patch_10">
    <path d="M 40.150386 228.96 
L 374.950386 228.96 
" style="fill: none; stroke: #000000; stroke-width: 0.8; stroke-linejoin: miter; stroke-linecap: square"/>
   </g>
   <g id="patch_11">
    <path d="M 40.150386 7.2 
L 374.950386 7.2 
" style="fill: none; stroke: #000000; stroke-width: 0.8; stroke-linejoin: miter; stroke-linecap: square"/>
   </g>
  </g>
 </g>
 <defs>
  <clipPath id="pfb4b033d6f">
   <rect x="40.150386" y="7.2" width="334.8" height="221.76"/>
  </clipPath>
 </defs>
</svg>
