<?xml version="1.0" encoding="utf-8" standalone="no"?>
<!DOCTYPE svg PUBLIC "-//W3C//DTD SVG 1.1//EN"
  "http://www.w3.org/Graphics/SVG/1.1/DTD/svg11.dtd">
<svg xmlns:xlink="http://www.w3.org/1999/xlink" width="374.586009pt" height="265.600613pt" viewBox="0 0 374.586009 265.600613" xmlns="http://www.w3.org/2000/svg" version="1.1">
 <metadata>
  <rdf:RDF xmlns:dc="http://purl.org/dc/elements/1.1/" xmlns:cc="http://creativecommons.org/ns#" xmlns:rdf="http://www.w3.org/1999/02/22-rdf-syntax-ns#">
   <cc:Work>
    <dc:type rdf:resource="http://purl.org/dc/dcmitype/StillImage"/>
    <dc:date>2025-08-02T13:55:50.525385</dc:date>
    <dc:format>image/svg+xml</dc:format>
    <dc:creator>
     <cc:Agent>
      <dc:title>Matplotlib v3.10.3, https://matplotlib.org/</dc:title>
     </cc:Agent>
    </dc:creator>
   </cc:Work>
  </rdf:RDF>
 </metadata>
 <defs>
  <style type="text/css">*{stroke-linejoin: round; stroke-linecap: butt}</style>
 </defs>
 <g id="figure_1">
  <g id="patch_1">
   <path d="M 0 265.600613 
L 374.586009 265.600613 
L 374.586009 0 
L 0 0 
z
" style="fill: #ffffff"/>
  </g>
  <g id="axes_1">
   <g id="patch_2">
    <path d="M 32.586009 228.96 
L 367.386009 228.96 
L 367.386009 7.2 
L 32.586009 7.2 
z
" style="fill: #ffffff"/>
   </g>
   <g id="matplotlib.axis_1">
    <g id="xtick_1">
     <g id="line2d_1">
      <defs>
       <path id="m8f12d168ae" d="M 0 0 
L 0 3.5 
" style="stroke: #000000; stroke-width: 0.8"/>
      </defs>
      <g>
       <use xlink:href="#m8f12d168ae" x="47.804191" y="228.96" style="stroke: #000000; stroke-width: 0.8"/>
      </g>
     </g>
     <g id="text_1">
      <!-- $\mathdefault{0}$ -->
      <g transform="translate(45.313523 243.05832) scale(0.1 -0.1)">
       <defs>
        <path id="CMR17-30" d="M 2688 2038 
C 2688 2430 2682 3099 2413 3613 
C 2176 4063 1798 4224 1466 4224 
C 1158 4224 768 4082 525 3620 
C 269 3137 243 2539 243 2038 
C 243 1671 250 1112 448 623 
C 723 -39 1216 -128 1466 -128 
C 1760 -128 2208 -7 2470 604 
C 2662 1048 2688 1568 2688 2038 
z
M 1466 -26 
C 1056 -26 813 328 723 816 
C 653 1196 653 1749 653 2109 
C 653 2604 653 3015 736 3407 
C 858 3954 1216 4121 1466 4121 
C 1728 4121 2067 3947 2189 3420 
C 2272 3054 2278 2623 2278 2109 
C 2278 1691 2278 1176 2202 797 
C 2067 96 1690 -26 1466 -26 
z
" transform="scale(0.015625)"/>
       </defs>
       <use xlink:href="#CMR17-30" transform="scale(0.996264)"/>
      </g>
     </g>
    </g>
    <g id="xtick_2">
     <g id="line2d_2">
      <g>
       <use xlink:href="#m8f12d168ae" x="103.589315" y="228.96" style="stroke: #000000; stroke-width: 0.8"/>
      </g>
     </g>
     <g id="text_2">
      <!-- $\mathdefault{500}$ -->
      <g transform="translate(96.117312 243.05832) scale(0.1 -0.1)">
       <defs>
        <path id="CMR17-35" d="M 730 3750 
C 794 3724 1056 3641 1325 3641 
C 1920 3641 2246 3961 2432 4140 
C 2432 4191 2432 4224 2394 4224 
C 2387 4224 2374 4224 2323 4198 
C 2099 4102 1837 4032 1517 4032 
C 1325 4032 1037 4055 723 4191 
C 653 4224 640 4224 634 4224 
C 602 4224 595 4217 595 4090 
L 595 2231 
C 595 2113 595 2080 659 2080 
C 691 2080 704 2093 736 2139 
C 941 2435 1222 2560 1542 2560 
C 1766 2560 2246 2415 2246 1293 
C 2246 1087 2246 716 2054 422 
C 1894 159 1645 25 1370 25 
C 947 25 518 319 403 812 
C 429 806 480 793 506 793 
C 589 793 749 838 749 1036 
C 749 1209 627 1280 506 1280 
C 358 1280 262 1190 262 1011 
C 262 454 704 -128 1382 -128 
C 2042 -128 2669 441 2669 1267 
C 2669 2054 2170 2662 1549 2662 
C 1222 2662 947 2540 730 2304 
L 730 3750 
z
" transform="scale(0.015625)"/>
       </defs>
       <use xlink:href="#CMR17-35" transform="scale(0.996264)"/>
       <use xlink:href="#CMR17-30" transform="translate(45.690477 0) scale(0.996264)"/>
       <use xlink:href="#CMR17-30" transform="translate(91.380954 0) scale(0.996264)"/>
      </g>
     </g>
    </g>
    <g id="xtick_3">
     <g id="line2d_3">
      <g>
       <use xlink:href="#m8f12d168ae" x="159.374439" y="228.96" style="stroke: #000000; stroke-width: 0.8"/>
      </g>
     </g>
     <g id="text_3">
      <!-- $\mathdefault{1000}$ -->
      <g transform="translate(149.411768 243.05832) scale(0.1 -0.1)">
       <defs>
        <path id="CMR17-31" d="M 1702 4083 
C 1702 4217 1696 4224 1606 4224 
C 1357 3927 979 3833 621 3820 
C 602 3820 570 3820 563 3808 
C 557 3795 557 3782 557 3648 
C 755 3648 1088 3686 1344 3839 
L 1344 467 
C 1344 243 1331 166 781 166 
L 589 166 
L 589 0 
C 896 6 1216 12 1523 12 
C 1830 12 2150 6 2458 0 
L 2458 166 
L 2266 166 
C 1715 166 1702 236 1702 467 
L 1702 4083 
z
" transform="scale(0.015625)"/>
       </defs>
       <use xlink:href="#CMR17-31" transform="scale(0.996264)"/>
       <use xlink:href="#CMR17-30" transform="translate(45.690477 0) scale(0.996264)"/>
       <use xlink:href="#CMR17-30" transform="translate(91.380954 0) scale(0.996264)"/>
       <use xlink:href="#CMR17-30" transform="translate(137.071431 0) scale(0.996264)"/>
      </g>
     </g>
    </g>
    <g id="xtick_4">
     <g id="line2d_4">
      <g>
       <use xlink:href="#m8f12d168ae" x="215.159563" y="228.96" style="stroke: #000000; stroke-width: 0.8"/>
      </g>
     </g>
     <g id="text_4">
      <!-- $\mathdefault{1500}$ -->
      <g transform="translate(205.196892 243.05832) scale(0.1 -0.1)">
       <use xlink:href="#CMR17-31" transform="scale(0.996264)"/>
       <use xlink:href="#CMR17-35" transform="translate(45.690477 0) scale(0.996264)"/>
       <use xlink:href="#CMR17-30" transform="translate(91.380954 0) scale(0.996264)"/>
       <use xlink:href="#CMR17-30" transform="translate(137.071431 0) scale(0.996264)"/>
      </g>
     </g>
    </g>
    <g id="xtick_5">
     <g id="line2d_5">
      <g>
       <use xlink:href="#m8f12d168ae" x="270.944687" y="228.96" style="stroke: #000000; stroke-width: 0.8"/>
      </g>
     </g>
     <g id="text_5">
      <!-- $\mathdefault{2000}$ -->
      <g transform="translate(260.982016 243.05832) scale(0.1 -0.1)">
       <defs>
        <path id="CMR17-32" d="M 2669 990 
L 2554 990 
C 2490 537 2438 460 2413 422 
C 2381 371 1920 371 1830 371 
L 602 371 
C 832 620 1280 1073 1824 1596 
C 2214 1966 2669 2400 2669 3033 
C 2669 3788 2067 4224 1395 4224 
C 691 4224 262 3603 262 3027 
C 262 2777 448 2745 525 2745 
C 589 2745 781 2783 781 3007 
C 781 3206 614 3264 525 3264 
C 486 3264 448 3257 422 3244 
C 544 3788 915 4057 1306 4057 
C 1862 4057 2227 3616 2227 3033 
C 2227 2477 1901 1998 1536 1583 
L 262 147 
L 262 0 
L 2515 0 
L 2669 990 
z
" transform="scale(0.015625)"/>
       </defs>
       <use xlink:href="#CMR17-32" transform="scale(0.996264)"/>
       <use xlink:href="#CMR17-30" transform="translate(45.690477 0) scale(0.996264)"/>
       <use xlink:href="#CMR17-30" transform="translate(91.380954 0) scale(0.996264)"/>
       <use xlink:href="#CMR17-30" transform="translate(137.071431 0) scale(0.996264)"/>
      </g>
     </g>
    </g>
    <g id="xtick_6">
     <g id="line2d_6">
      <g>
       <use xlink:href="#m8f12d168ae" x="326.729811" y="228.96" style="stroke: #000000; stroke-width: 0.8"/>
      </g>
     </g>
     <g id="text_6">
      <!-- $\mathdefault{2500}$ -->
      <g transform="translate(316.76714 243.05832) scale(0.1 -0.1)">
       <use xlink:href="#CMR17-32" transform="scale(0.996264)"/>
       <use xlink:href="#CMR17-35" transform="translate(45.690477 0) scale(0.996264)"/>
       <use xlink:href="#CMR17-30" transform="translate(91.380954 0) scale(0.996264)"/>
       <use xlink:href="#CMR17-30" transform="translate(137.071431 0) scale(0.996264)"/>
      </g>
     </g>
    </g>
    <g id="text_7">
     <!-- Iteration -->
     <g transform="translate(182.038633 256.278627) scale(0.1 -0.1)">
      <defs>
       <path id="NimbusSanL-Regu-49" d="M 1242 4672 
L 640 4672 
L 640 0 
L 1242 0 
L 1242 4672 
z
" transform="scale(0.015625)"/>
       <path id="NimbusSanL-Regu-74" d="M 1626 3328 
L 1075 3328 
L 1075 4249 
L 544 4249 
L 544 3328 
L 90 3328 
L 90 2892 
L 544 2892 
L 544 402 
C 544 64 774 -128 1190 -128 
C 1318 -128 1446 -116 1626 -84 
L 1626 364 
C 1555 345 1472 339 1370 339 
C 1139 339 1075 402 1075 634 
L 1075 2892 
L 1626 2892 
L 1626 3328 
z
" transform="scale(0.015625)"/>
       <path id="NimbusSanL-Regu-65" d="M 3283 1484 
C 3283 1998 3245 2311 3149 2565 
C 2931 3123 2419 3456 1792 3456 
C 858 3456 256 2734 256 1619 
C 256 545 838 -128 1779 -128 
C 2547 -128 3078 307 3213 1018 
L 2675 1018 
C 2528 588 2227 364 1798 364 
C 1459 364 1171 514 992 787 
C 864 974 819 1161 813 1484 
L 3283 1484 
z
M 826 1920 
C 870 2552 1248 2963 1786 2963 
C 2310 2963 2714 2519 2714 1959 
C 2714 1946 2714 1933 2707 1920 
L 826 1920 
z
" transform="scale(0.015625)"/>
       <path id="NimbusSanL-Regu-72" d="M 442 3328 
L 442 0 
L 979 0 
L 979 1727 
C 979 2203 1101 2514 1357 2698 
C 1523 2819 1683 2857 2054 2863 
L 2054 3404 
C 1965 3449 1920 3456 1850 3456 
C 1504 3456 1242 3251 934 2750 
L 934 3328 
L 442 3328 
z
" transform="scale(0.015625)"/>
       <path id="NimbusSanL-Regu-61" d="M 3424 332 
C 3366 320 3341 320 3309 320 
C 3123 320 3021 415 3021 581 
L 3021 2542 
C 3021 3135 2586 3456 1760 3456 
C 1274 3456 870 3315 646 3065 
C 493 2893 429 2702 416 2370 
L 954 2370 
C 998 2778 1242 2963 1741 2963 
C 2221 2963 2490 2784 2490 2466 
L 2490 2326 
C 2490 2103 2355 2007 1933 1956 
C 1178 1861 1062 1835 858 1753 
C 467 1593 269 1294 269 861 
C 269 256 691 -128 1370 -128 
C 1792 -128 2131 19 2509 364 
C 2547 25 2714 -128 3059 -128 
C 3168 -128 3251 -116 3424 -71 
L 3424 332 
z
M 2490 1071 
C 2490 893 2438 785 2278 638 
C 2061 441 1798 339 1485 339 
C 1069 339 826 536 826 874 
C 826 1224 1062 1402 1632 1485 
C 2195 1562 2310 1587 2490 1670 
L 2490 1071 
z
" transform="scale(0.015625)"/>
       <path id="NimbusSanL-Regu-69" d="M 960 3358 
L 429 3358 
L 429 0 
L 960 0 
L 960 3358 
z
M 960 4672 
L 422 4672 
L 422 3999 
L 960 3999 
L 960 4672 
z
" transform="scale(0.015625)"/>
       <path id="NimbusSanL-Regu-6f" d="M 1741 3456 
C 800 3456 230 2784 230 1663 
C 230 543 794 -128 1747 -128 
C 2688 -128 3264 543 3264 1638 
C 3264 2791 2707 3456 1741 3456 
z
M 1747 2963 
C 2349 2963 2707 2472 2707 1644 
C 2707 861 2336 364 1747 364 
C 1152 364 787 855 787 1663 
C 787 2466 1152 2963 1747 2963 
z
" transform="scale(0.015625)"/>
       <path id="NimbusSanL-Regu-6e" d="M 448 3328 
L 448 0 
L 986 0 
L 986 1835 
C 986 2539 1344 2988 1894 2988 
C 2317 2988 2586 2732 2586 2328 
L 2586 0 
L 3117 0 
L 3117 2539 
C 3117 3097 2701 3456 2054 3456 
C 1555 3456 1235 3263 941 2796 
L 941 3328 
L 448 3328 
z
" transform="scale(0.015625)"/>
      </defs>
      <use xlink:href="#NimbusSanL-Regu-49" transform="scale(0.996264)"/>
      <use xlink:href="#NimbusSanL-Regu-74" transform="translate(27.69517 0) scale(0.996264)"/>
      <use xlink:href="#NimbusSanL-Regu-65" transform="translate(55.390339 0) scale(0.996264)"/>
      <use xlink:href="#NimbusSanL-Regu-72" transform="translate(110.782016 0) scale(0.996264)"/>
      <use xlink:href="#NimbusSanL-Regu-61" transform="translate(142.961149 0) scale(0.996264)"/>
      <use xlink:href="#NimbusSanL-Regu-74" transform="translate(198.352826 0) scale(0.996264)"/>
      <use xlink:href="#NimbusSanL-Regu-69" transform="translate(226.047996 0) scale(0.996264)"/>
      <use xlink:href="#NimbusSanL-Regu-6f" transform="translate(248.16478 0) scale(0.996264)"/>
      <use xlink:href="#NimbusSanL-Regu-6e" transform="translate(303.556457 0) scale(0.996264)"/>
     </g>
    </g>
   </g>
   <g id="matplotlib.axis_2">
    <g id="ytick_1">
     <g id="line2d_7">
      <defs>
       <path id="mfed627b03b" d="M 0 0 
L -3.5 0 
" style="stroke: #000000; stroke-width: 0.8"/>
      </defs>
      <g>
       <use xlink:href="#mfed627b03b" x="32.586009" y="204.702065" style="stroke: #000000; stroke-width: 0.8"/>
      </g>
     </g>
     <g id="text_8">
      <!-- $\mathdefault{0}$ -->
      <g transform="translate(20.604674 208.251225) scale(0.1 -0.1)">
       <use xlink:href="#CMR17-30" transform="scale(0.996264)"/>
      </g>
     </g>
    </g>
    <g id="ytick_2">
     <g id="line2d_8">
      <g>
       <use xlink:href="#mfed627b03b" x="32.586009" y="172.945692" style="stroke: #000000; stroke-width: 0.8"/>
      </g>
     </g>
     <g id="text_9">
      <!-- $\mathdefault{1}$ -->
      <g transform="translate(20.604674 176.494852) scale(0.1 -0.1)">
       <use xlink:href="#CMR17-31" transform="scale(0.996264)"/>
      </g>
     </g>
    </g>
    <g id="ytick_3">
     <g id="line2d_9">
      <g>
       <use xlink:href="#mfed627b03b" x="32.586009" y="141.189319" style="stroke: #000000; stroke-width: 0.8"/>
      </g>
     </g>
     <g id="text_10">
      <!-- $\mathdefault{2}$ -->
      <g transform="translate(20.604674 144.738479) scale(0.1 -0.1)">
       <use xlink:href="#CMR17-32" transform="scale(0.996264)"/>
      </g>
     </g>
    </g>
    <g id="ytick_4">
     <g id="line2d_10">
      <g>
       <use xlink:href="#mfed627b03b" x="32.586009" y="109.432946" style="stroke: #000000; stroke-width: 0.8"/>
      </g>
     </g>
     <g id="text_11">
      <!-- $\mathdefault{3}$ -->
      <g transform="translate(20.604674 112.982106) scale(0.1 -0.1)">
       <defs>
        <path id="CMR17-33" d="M 1414 2176 
C 1984 2176 2234 1673 2234 1094 
C 2234 322 1824 25 1453 25 
C 1114 25 563 193 390 691 
C 422 678 454 678 486 678 
C 640 678 755 780 755 947 
C 755 1132 614 1216 486 1216 
C 378 1216 211 1164 211 927 
C 211 335 787 -128 1466 -128 
C 2176 -128 2720 432 2720 1087 
C 2720 1718 2208 2176 1600 2246 
C 2086 2347 2554 2776 2554 3353 
C 2554 3856 2048 4224 1472 4224 
C 890 4224 378 3862 378 3347 
C 378 3123 544 3084 627 3084 
C 762 3084 877 3167 877 3334 
C 877 3500 762 3584 627 3584 
C 602 3584 570 3584 544 3571 
C 730 3999 1235 4076 1459 4076 
C 1683 4076 2106 3966 2106 3347 
C 2106 3167 2080 2851 1862 2574 
C 1670 2329 1453 2316 1242 2297 
C 1210 2297 1062 2284 1037 2284 
C 992 2278 966 2272 966 2227 
C 966 2182 973 2176 1101 2176 
L 1414 2176 
z
" transform="scale(0.015625)"/>
       </defs>
       <use xlink:href="#CMR17-33" transform="scale(0.996264)"/>
      </g>
     </g>
    </g>
    <g id="ytick_5">
     <g id="line2d_11">
      <g>
       <use xlink:href="#mfed627b03b" x="32.586009" y="77.676574" style="stroke: #000000; stroke-width: 0.8"/>
      </g>
     </g>
     <g id="text_12">
      <!-- $\mathdefault{4}$ -->
      <g transform="translate(20.604674 81.225734) scale(0.1 -0.1)">
       <defs>
        <path id="CMR17-34" d="M 2150 4147 
C 2150 4281 2144 4288 2029 4288 
L 128 1254 
L 128 1088 
L 1779 1088 
L 1779 460 
C 1779 230 1766 166 1318 166 
L 1197 166 
L 1197 0 
C 1402 12 1747 12 1965 12 
C 2182 12 2528 12 2733 0 
L 2733 166 
L 2611 166 
C 2163 166 2150 230 2150 460 
L 2150 1088 
L 2803 1088 
L 2803 1254 
L 2150 1254 
L 2150 4147 
z
M 1798 3723 
L 1798 1254 
L 256 1254 
L 1798 3723 
z
" transform="scale(0.015625)"/>
       </defs>
       <use xlink:href="#CMR17-34" transform="scale(0.996264)"/>
      </g>
     </g>
    </g>
    <g id="ytick_6">
     <g id="line2d_12">
      <g>
       <use xlink:href="#mfed627b03b" x="32.586009" y="45.920201" style="stroke: #000000; stroke-width: 0.8"/>
      </g>
     </g>
     <g id="text_13">
      <!-- $\mathdefault{5}$ -->
      <g transform="translate(20.604674 49.469361) scale(0.1 -0.1)">
       <use xlink:href="#CMR17-35" transform="scale(0.996264)"/>
      </g>
     </g>
    </g>
    <g id="ytick_7">
     <g id="line2d_13">
      <g>
       <use xlink:href="#mfed627b03b" x="32.586009" y="14.163828" style="stroke: #000000; stroke-width: 0.8"/>
      </g>
     </g>
     <g id="text_14">
      <!-- $\mathdefault{6}$ -->
      <g transform="translate(20.604674 17.712988) scale(0.1 -0.1)">
       <defs>
        <path id="CMR17-36" d="M 678 2198 
C 678 3712 1395 4076 1811 4076 
C 1946 4076 2272 4049 2400 3782 
C 2298 3782 2106 3782 2106 3558 
C 2106 3385 2246 3328 2336 3328 
C 2394 3328 2566 3353 2566 3571 
C 2566 3987 2246 4224 1805 4224 
C 1043 4224 243 3411 243 2011 
C 243 257 966 -128 1478 -128 
C 2099 -128 2688 431 2688 1295 
C 2688 2101 2170 2688 1517 2688 
C 1126 2688 838 2430 678 1979 
L 678 2198 
z
M 1478 25 
C 691 25 691 1212 691 1450 
C 691 1914 909 2585 1504 2585 
C 1613 2585 1926 2585 2138 2140 
C 2253 1889 2253 1624 2253 1302 
C 2253 954 2253 696 2118 438 
C 1978 173 1773 25 1478 25 
z
" transform="scale(0.015625)"/>
       </defs>
       <use xlink:href="#CMR17-36" transform="scale(0.996264)"/>
      </g>
     </g>
    </g>
    <g id="text_15">
     <!-- Aerodynamic Coefficients - Blade_0 -->
     <g transform="translate(14.482687 196.280864) rotate(-90) scale(0.1 -0.1)">
      <defs>
       <path id="NimbusSanL-Regu-41" d="M 3034 1408 
L 3514 0 
L 4179 0 
L 2541 4672 
L 1773 4672 
L 109 0 
L 742 0 
L 1235 1408 
L 3034 1408 
z
M 2867 1907 
L 1382 1907 
L 2150 4032 
L 2867 1907 
z
" transform="scale(0.015625)"/>
       <path id="NimbusSanL-Regu-64" d="M 3168 4672 
L 2637 4672 
L 2637 2937 
C 2413 3276 2054 3456 1606 3456 
C 736 3456 166 2759 166 1695 
C 166 568 723 -128 1626 -128 
C 2086 -128 2406 44 2694 460 
L 2694 19 
L 3168 19 
L 3168 4672 
z
M 1696 2956 
C 2272 2956 2637 2447 2637 1651 
C 2637 880 2266 371 1702 371 
C 1114 371 723 887 723 1663 
C 723 2440 1114 2956 1696 2956 
z
" transform="scale(0.015625)"/>
       <path id="NimbusSanL-Regu-79" d="M 2483 3328 
L 1555 724 
L 698 3328 
L 128 3328 
L 1261 -29 
L 1056 -558 
C 973 -794 851 -884 627 -884 
C 550 -884 461 -871 346 -845 
L 346 -1325 
C 454 -1383 563 -1408 704 -1408 
C 877 -1408 1062 -1351 1203 -1248 
C 1370 -1127 1466 -986 1568 -718 
L 3059 3328 
L 2483 3328 
z
" transform="scale(0.015625)"/>
       <path id="NimbusSanL-Regu-6d" d="M 448 3328 
L 448 0 
L 986 0 
L 986 2089 
C 986 2597 1338 2988 1773 2988 
C 2170 2988 2394 2744 2394 2315 
L 2394 0 
L 2931 0 
L 2931 2109 
C 2931 2597 3283 2988 3718 2988 
C 4109 2988 4339 2738 4339 2315 
L 4339 0 
L 4877 0 
L 4877 2520 
C 4877 3123 4531 3456 3904 3456 
C 3456 3456 3187 3321 2874 2943 
C 2675 3302 2406 3456 1971 3456 
C 1523 3456 1229 3289 941 2886 
L 941 3328 
L 448 3328 
z
" transform="scale(0.015625)"/>
       <path id="NimbusSanL-Regu-63" d="M 3014 2237 
C 2989 2561 2918 2771 2790 2956 
C 2560 3270 2157 3456 1690 3456 
C 787 3456 198 2740 198 1632 
C 198 555 774 -128 1683 -128 
C 2483 -128 2989 352 3053 1167 
L 2515 1167 
C 2426 632 2150 364 1696 364 
C 1107 364 755 842 755 1632 
C 755 2466 1101 2963 1683 2963 
C 2131 2963 2413 2701 2477 2237 
L 3014 2237 
z
" transform="scale(0.015625)"/>
       <path id="NimbusSanL-Regu-43" d="M 4237 3219 
C 4051 4236 3462 4736 2438 4736 
C 1811 4736 1306 4537 960 4154 
C 538 3696 307 3035 307 2284 
C 307 1522 544 867 986 415 
C 1344 44 1805 -128 2413 -128 
C 3552 -128 4192 485 4333 1712 
L 3718 1712 
C 3667 1394 3603 1178 3507 994 
C 3315 612 2918 396 2419 396 
C 1491 396 902 1134 902 2291 
C 902 3480 1466 4211 2368 4211 
C 2746 4211 3098 4096 3290 3918 
C 3462 3759 3558 3562 3629 3219 
L 4237 3219 
z
" transform="scale(0.015625)"/>
       <path id="NimbusSanL-Regu-66" d="M 1651 3328 
L 1094 3328 
L 1094 3860 
C 1094 4087 1222 4204 1466 4204 
C 1510 4204 1530 4204 1651 4198 
L 1651 4639 
C 1530 4665 1459 4672 1350 4672 
C 858 4672 563 4390 563 3905 
L 563 3328 
L 115 3328 
L 115 2892 
L 563 2892 
L 563 0 
L 1094 0 
L 1094 2892 
L 1651 2892 
L 1651 3328 
z
" transform="scale(0.015625)"/>
       <path id="NimbusSanL-Regu-2" d="M 1613 3328 
L 1056 3328 
L 1056 3860 
C 1056 4087 1184 4204 1427 4204 
C 1472 4204 1491 4204 1613 4198 
L 1613 4639 
C 1491 4665 1421 4672 1312 4672 
C 819 4672 525 4390 525 3905 
L 525 3328 
L 77 3328 
L 77 2892 
L 525 2892 
L 525 0 
L 1056 0 
L 1056 2892 
L 1613 2892 
L 1613 3328 
z
M 2790 3328 
L 2259 3328 
L 2259 0 
L 2790 0 
L 2790 3328 
z
M 2790 4672 
L 2259 4672 
L 2259 3999 
L 2790 3999 
L 2790 4672 
z
" transform="scale(0.015625)"/>
       <path id="NimbusSanL-Regu-73" d="M 2803 2428 
C 2797 3084 2362 3456 1587 3456 
C 806 3456 301 3052 301 2434 
C 301 1912 570 1663 1363 1472 
L 1862 1351 
C 2234 1262 2381 1129 2381 887 
C 2381 574 2067 364 1600 364 
C 1312 364 1069 447 934 587 
C 851 683 813 778 781 1014 
L 218 1014 
C 243 243 678 -128 1555 -128 
C 2400 -128 2938 288 2938 931 
C 2938 1428 2656 1702 1990 1861 
L 1478 1982 
C 1043 2084 858 2224 858 2459 
C 858 2765 1133 2963 1568 2963 
C 1997 2963 2227 2778 2240 2428 
L 2803 2428 
z
" transform="scale(0.015625)"/>
       <path id="NimbusSanL-Regu-2d" d="M 1818 1996 
L 294 1996 
L 294 1536 
L 1818 1536 
L 1818 1996 
z
" transform="scale(0.015625)"/>
       <path id="NimbusSanL-Regu-42" d="M 506 0 
L 2611 0 
C 3053 0 3379 121 3629 390 
C 3859 632 3987 961 3987 1321 
C 3987 1878 3731 2214 3136 2444 
C 3558 2643 3782 2994 3782 3476 
C 3782 3821 3654 4127 3411 4345 
C 3168 4569 2848 4672 2400 4672 
L 506 4672 
L 506 0 
z
M 1101 2636 
L 1101 4147 
L 2253 4147 
C 2586 4147 2771 4101 2931 3977 
C 3098 3847 3187 3652 3187 3391 
C 3187 3138 3098 2936 2931 2806 
C 2771 2682 2586 2636 2253 2636 
L 1101 2636 
z
M 1101 524 
L 1101 2112 
L 2554 2112 
C 2842 2112 3034 2042 3174 1890 
C 3315 1745 3392 1542 3392 1315 
C 3392 1093 3315 891 3174 746 
C 3034 594 2842 524 2554 524 
L 1101 524 
z
" transform="scale(0.015625)"/>
       <path id="NimbusSanL-Regu-6c" d="M 973 4672 
L 435 4672 
L 435 0 
L 973 0 
L 973 4672 
z
" transform="scale(0.015625)"/>
       <path id="NimbusSanL-Regu-30" d="M 1760 4544 
C 1338 4544 954 4358 717 4044 
C 422 3649 275 3043 275 2207 
C 275 683 787 -128 1760 -128 
C 2720 -128 3245 683 3245 2169 
C 3245 3049 3104 3636 2803 4044 
C 2566 4364 2189 4544 1760 4544 
z
M 1760 4044 
C 2368 4044 2669 3432 2669 2220 
C 2669 938 2374 339 1747 339 
C 1152 339 851 964 851 2201 
C 851 3438 1152 4044 1760 4044 
z
" transform="scale(0.015625)"/>
      </defs>
      <use xlink:href="#NimbusSanL-Regu-41" transform="scale(0.996264)"/>
      <use xlink:href="#NimbusSanL-Regu-65" transform="translate(66.450031 0) scale(0.996264)"/>
      <use xlink:href="#NimbusSanL-Regu-72" transform="translate(121.841708 0) scale(0.996264)"/>
      <use xlink:href="#NimbusSanL-Regu-6f" transform="translate(155.016938 0) scale(0.996264)"/>
      <use xlink:href="#NimbusSanL-Regu-64" transform="translate(210.408615 0) scale(0.996264)"/>
      <use xlink:href="#NimbusSanL-Regu-79" transform="translate(265.800292 0) scale(0.996264)"/>
      <use xlink:href="#NimbusSanL-Regu-6e" transform="translate(315.613492 0) scale(0.996264)"/>
      <use xlink:href="#NimbusSanL-Regu-61" transform="translate(371.005169 0) scale(0.996264)"/>
      <use xlink:href="#NimbusSanL-Regu-6d" transform="translate(426.396846 0) scale(0.996264)"/>
      <use xlink:href="#NimbusSanL-Regu-69" transform="translate(509.385276 0) scale(0.996264)"/>
      <use xlink:href="#NimbusSanL-Regu-63" transform="translate(531.502061 0) scale(0.996264)"/>
      <use xlink:href="#NimbusSanL-Regu-43" transform="translate(609.010431 0) scale(0.996264)"/>
      <use xlink:href="#NimbusSanL-Regu-6f" transform="translate(680.940416 0) scale(0.996264)"/>
      <use xlink:href="#NimbusSanL-Regu-65" transform="translate(736.332093 0) scale(0.996264)"/>
      <use xlink:href="#NimbusSanL-Regu-66" transform="translate(791.72377 0) scale(0.996264)"/>
      <use xlink:href="#NimbusSanL-Regu-2" transform="translate(819.418939 0) scale(0.996264)"/>
      <use xlink:href="#NimbusSanL-Regu-63" transform="translate(869.23214 0) scale(0.996264)"/>
      <use xlink:href="#NimbusSanL-Regu-69" transform="translate(919.04534 0) scale(0.996264)"/>
      <use xlink:href="#NimbusSanL-Regu-65" transform="translate(941.162125 0) scale(0.996264)"/>
      <use xlink:href="#NimbusSanL-Regu-6e" transform="translate(996.553802 0) scale(0.996264)"/>
      <use xlink:href="#NimbusSanL-Regu-74" transform="translate(1051.945479 0) scale(0.996264)"/>
      <use xlink:href="#NimbusSanL-Regu-73" transform="translate(1079.640648 0) scale(0.996264)"/>
      <use xlink:href="#NimbusSanL-Regu-2d" transform="translate(1157.149018 0) scale(0.996264)"/>
      <use xlink:href="#NimbusSanL-Regu-42" transform="translate(1218.019418 0) scale(0.996264)"/>
      <use xlink:href="#NimbusSanL-Regu-6c" transform="translate(1284.469449 0) scale(0.996264)"/>
      <use xlink:href="#NimbusSanL-Regu-61" transform="translate(1306.586233 0) scale(0.996264)"/>
      <use xlink:href="#NimbusSanL-Regu-64" transform="translate(1361.97791 0) scale(0.996264)"/>
      <use xlink:href="#NimbusSanL-Regu-65" transform="translate(1417.369587 0) scale(0.996264)"/>
      <use xlink:href="#NimbusSanL-Regu-30" transform="translate(1508.626829 0) scale(0.996264)"/>
      <path d="M 1478.738605 0 
L 1508.626829 0 
L 1508.626829 0.3985 
L 1478.738605 0.3985 
L 1478.738605 0 
z
"/>
     </g>
    </g>
   </g>
   <g id="line2d_14">
    <path d="M 47.804191 160.851596 
L 48.250472 35.189988 
L 48.585183 17.28 
L 48.696753 18.139082 
L 49.366174 39.237816 
L 49.477745 39.029692 
L 49.589315 39.400595 
L 49.812455 41.027798 
L 50.035596 41.442259 
L 50.258736 42.312809 
L 50.593447 44.728865 
L 50.816588 47.72053 
L 51.039728 53.363767 
L 51.262869 65.284324 
L 51.93229 109.246411 
L 52.155431 113.0304 
L 52.490141 124.665855 
L 52.824852 147.031927 
L 53.271133 179.036478 
L 53.605844 182.59034 
L 53.940555 189.940493 
L 54.609976 210.405202 
L 54.944687 211.051616 
L 55.279398 212.325992 
L 55.614108 215.024568 
L 55.837249 216.487581 
L 55.948819 216.322535 
L 56.3951 212.98477 
L 56.729811 212.406617 
L 57.176092 211.273989 
L 57.399232 210.12145 
L 57.622373 207.599132 
L 57.845513 205.624945 
L 58.180224 205.07933 
L 58.514935 204.051342 
L 58.738075 202.796744 
L 58.961216 200.504977 
L 59.184356 195.889564 
L 59.519067 187.732071 
L 59.853778 185.887911 
L 60.188488 182.0445 
L 60.634769 172.820625 
L 61.08105 162.183781 
L 61.415761 161.026467 
L 61.638902 159.50623 
L 61.862042 156.830855 
L 62.085183 152.104962 
L 62.531464 139.048185 
L 62.866174 137.503644 
L 63.200885 134.670498 
L 63.647166 130.470003 
L 63.758736 130.240052 
L 63.870307 130.602588 
L 64.093447 131.605944 
L 64.428158 131.988565 
L 64.762869 132.844741 
L 65.097579 134.5135 
L 65.32072 136.547027 
L 65.878571 143.031186 
L 66.101712 143.753314 
L 66.324852 145.069175 
L 66.659563 148.875941 
L 66.994274 156.266876 
L 67.217414 159.981508 
L 67.552125 161.104261 
L 67.886836 163.492856 
L 68.221546 167.824068 
L 68.667827 177.55368 
L 69.114108 187.370391 
L 69.337249 188.103179 
L 69.560389 189.416575 
L 69.8951 193.189918 
L 70.229811 200.700927 
L 70.787662 216.377553 
L 71.122373 216.779092 
L 71.457084 217.631843 
L 71.903365 218.88 
L 72.014935 218.805265 
L 72.126505 218.435839 
L 72.572786 216.006025 
L 72.907497 215.094119 
L 73.130637 213.879821 
L 73.465348 210.337388 
L 73.800059 204.197061 
L 75.027331 178.48217 
L 75.362042 174.931884 
L 75.696753 174.733378 
L 76.031464 174.287471 
L 76.812455 172.772027 
L 77.035596 172.914099 
L 77.481877 173.04811 
L 77.816588 173.374352 
L 78.151298 174.182121 
L 78.486009 175.119705 
L 78.93229 175.351842 
L 79.267001 175.738156 
L 79.824852 176.821984 
L 80.047993 177.075632 
L 80.828984 177.323942 
L 81.275265 177.695274 
L 81.833117 178.256644 
L 82.948819 178.347265 
L 83.17196 178.164203 
L 83.50667 177.742684 
L 83.952951 177.60047 
L 84.287662 177.311996 
L 84.622373 176.705297 
L 85.291794 175.053011 
L 85.738075 174.89419 
L 86.184356 174.463801 
L 86.742207 173.863403 
L 87.634769 173.667249 
L 89.419893 173.040293 
L 90.758736 173.369768 
L 91.093447 173.742436 
L 91.316588 173.936025 
L 91.874439 174.06359 
L 92.43229 174.459884 
L 93.101712 174.954395 
L 93.994274 175.034099 
L 94.552125 175.303491 
L 94.775265 175.434686 
L 95.444687 175.575965 
L 95.890968 175.92869 
L 96.225679 176.32599 
L 96.78353 176.49287 
L 97.229811 176.868346 
L 97.787662 177.481026 
L 98.568654 177.652221 
L 99.572786 177.988636 
L 100.465348 178.103492 
L 100.800059 178.344759 
L 101.35791 179.113423 
L 102.138902 180.114805 
L 102.696753 180.441349 
L 103.143034 180.431271 
L 103.700885 180.285336 
L 104.370307 180.116552 
L 104.705017 179.83338 
L 105.039728 179.421549 
L 105.597579 179.233501 
L 105.93229 178.947886 
L 106.267001 178.374624 
L 106.824852 177.0919 
L 107.382703 176.837241 
L 107.828984 176.358731 
L 108.275265 175.835602 
L 109.167827 175.61481 
L 109.502538 175.580563 
L 110.28353 175.831229 
L 110.729811 176.071789 
L 111.064522 176.550346 
L 111.733943 178.079736 
L 112.180224 178.26584 
L 112.626505 178.738856 
L 113.295926 179.651437 
L 113.965348 179.917178 
L 114.74634 180.314411 
L 115.750472 180.217284 
L 115.973612 180.032877 
L 116.308323 179.426233 
L 116.531464 179.079546 
L 116.977745 178.89852 
L 117.312455 178.555191 
L 117.647166 177.887592 
L 117.981877 177.139125 
L 118.428158 176.937082 
L 118.762869 176.582251 
L 119.097579 175.934284 
L 119.767001 174.197971 
L 120.324852 173.945718 
L 120.771133 173.460918 
L 121.217414 172.979996 
L 122.779398 172.91806 
L 123.448819 173.044646 
L 123.78353 173.257663 
L 124.341381 173.793294 
L 124.899232 174.012566 
L 125.233943 174.343359 
L 125.568654 174.977121 
L 125.791794 175.315977 
L 126.349645 175.552448 
L 126.795926 176.066376 
L 127.465348 177.083324 
L 128.023199 177.342586 
L 128.46948 177.827424 
L 128.804191 178.17361 
L 129.585183 178.377777 
L 130.477745 178.751467 
L 131.593447 178.71143 
L 132.70915 178.213445 
L 133.155431 177.931985 
L 133.713282 177.450554 
L 134.271133 177.27226 
L 134.717414 176.889219 
L 135.275265 176.309699 
L 135.833117 176.114912 
L 136.390968 175.656162 
L 136.837249 175.321214 
L 137.28353 175.27472 
L 138.510803 175.338599 
L 139.514935 175.465054 
L 139.961216 175.7286 
L 140.519067 176.177288 
L 141.300059 176.348461 
L 142.304191 176.706169 
L 143.196753 176.911724 
L 143.754604 176.985787 
L 144.981877 176.928431 
L 145.651298 176.574231 
L 147.101712 175.714499 
L 147.771133 175.587095 
L 149.890968 175.65058 
L 150.448819 175.798492 
L 150.78353 175.876278 
L 151.676092 176.043101 
L 153.461216 176.701488 
L 154.911629 176.543942 
L 156.808323 176.082283 
L 157.254604 175.922452 
L 158.147166 175.750522 
L 159.374439 175.378868 
L 160.267001 175.405521 
L 162.163695 175.568958 
L 163.390968 175.703106 
L 163.837249 175.748422 
L 164.952951 175.907492 
L 167.407497 176.47407 
L 168.523199 176.623905 
L 169.304191 176.705143 
L 171.870307 176.692258 
L 173.097579 176.602659 
L 179.903365 176.130776 
L 183.138902 176.323214 
L 184.589315 176.452243 
L 189.163695 176.591669 
L 192.845513 176.478785 
L 194.072786 176.426525 
L 199.428158 176.020469 
L 202.105844 176.10507 
L 205.229811 176.320344 
L 212.705017 176.274319 
L 216.609976 176.142293 
L 221.295926 176.078894 
L 225.312455 176.205622 
L 226.874439 176.278763 
L 236.35791 176.229435 
L 243.944687 176.277576 
L 248.630637 176.375359 
L 258.225679 176.033058 
L 262.911629 176.142865 
L 265.924026 176.284107 
L 285.002538 176.11869 
L 316.465348 176.088377 
L 347.593447 176.31523 
L 352.167827 176.280219 
L 352.167827 176.280219 
" clip-path="url(#p865daf7c19)" style="fill: none; stroke: #1f77b4; stroke-width: 1.5; stroke-linecap: square"/>
   </g>
   <g id="line2d_15">
    <path d="M 47.804191 188.653253 
L 48.138902 154.574211 
L 48.473612 151.867016 
L 48.585183 151.931995 
L 48.808323 153.537498 
L 49.143034 155.935987 
L 49.254604 155.940665 
L 49.589315 154.826211 
L 49.812455 154.34896 
L 50.258736 154.143575 
L 50.593447 153.704102 
L 50.928158 152.838356 
L 51.262869 151.883202 
L 51.374439 151.987516 
L 51.597579 153.259751 
L 51.82072 154.484716 
L 52.155431 154.978785 
L 52.378571 155.664181 
L 52.601712 156.887805 
L 52.936422 160.53078 
L 53.271133 164.1993 
L 53.605844 165.013226 
L 53.828984 166.104857 
L 54.163695 169.214708 
L 54.609976 173.230546 
L 55.056257 173.755095 
L 55.279398 174.330114 
L 55.502538 175.510956 
L 56.060389 179.2156 
L 56.3951 179.600884 
L 56.618241 179.945193 
L 56.841381 180.658394 
L 57.064522 182.10604 
L 57.622373 188.606523 
L 57.845513 190.387627 
L 58.068654 190.781093 
L 58.291794 191.564017 
L 58.626505 193.663915 
L 59.295926 199.972111 
L 59.519067 201.263872 
L 59.853778 201.602211 
L 60.188488 202.415199 
L 60.85791 205.102777 
L 61.08105 204.724771 
L 61.415761 204.450261 
L 61.638902 204.026783 
L 61.862042 202.990153 
L 62.085183 200.339595 
L 62.308323 194.282609 
L 62.531464 189.493519 
L 62.866174 188.052399 
L 63.200885 185.274546 
L 63.758736 179.929737 
L 64.093447 179.145352 
L 64.651298 179.194635 
L 64.874439 178.948736 
L 65.097579 178.253913 
L 65.43229 175.803349 
L 65.767001 173.958647 
L 66.101712 173.688123 
L 66.882703 172.876998 
L 66.994274 173.05916 
L 67.217414 173.534807 
L 67.663695 173.804396 
L 67.886836 174.132887 
L 68.221546 175.196488 
L 68.556257 177.447729 
L 69.114108 182.147501 
L 69.448819 182.514897 
L 69.78353 183.271584 
L 70.118241 184.622451 
L 70.452951 187.13812 
L 70.899232 190.890235 
L 71.233943 191.319582 
L 71.568654 192.353027 
L 71.903365 194.251732 
L 72.572786 198.564162 
L 72.907497 199.0299 
L 73.353778 200.274659 
L 73.800059 201.538945 
L 73.911629 201.546849 
L 74.134769 200.944029 
L 74.46948 198.67917 
L 75.138902 191.525165 
L 75.362042 189.246473 
L 75.696753 189.001074 
L 76.031464 188.414689 
L 76.477745 186.915092 
L 76.924026 185.100388 
L 77.593447 184.886879 
L 78.039728 184.803991 
L 78.262869 185.093509 
L 78.486009 185.4283 
L 78.93229 185.607801 
L 79.267001 185.955724 
L 79.601712 186.620059 
L 80.047993 187.737216 
L 80.605844 188.016584 
L 81.052125 188.523716 
L 81.833117 189.487017 
L 82.837249 189.711517 
L 83.50667 189.87523 
L 84.957084 189.967447 
L 85.403365 190.264238 
L 86.072786 190.464045 
L 86.965348 190.841691 
L 87.74634 190.836071 
L 87.96948 190.66931 
L 88.192621 190.482086 
L 88.750472 190.32317 
L 89.196753 189.953704 
L 89.866174 189.230016 
L 90.424026 189.047175 
L 91.093447 188.553455 
L 91.316588 188.434911 
L 92.20915 188.252656 
L 93.436422 187.801481 
L 94.552125 187.878841 
L 94.775265 187.949145 
L 95.556257 188.080774 
L 96.67196 188.413654 
L 97.564522 188.469026 
L 97.787662 188.389538 
L 98.568654 188.238836 
L 99.014935 187.906421 
L 99.349645 187.593426 
L 100.019067 187.424541 
L 100.911629 187.109418 
L 101.24634 187.406366 
L 101.692621 188.301602 
L 102.362042 190.349696 
L 103.143034 192.539608 
L 103.366174 192.884751 
L 104.147166 193.005075 
L 104.705017 193.076338 
L 105.374439 192.803103 
L 105.82072 192.585813 
L 106.155431 192.150351 
L 106.490141 191.238589 
L 106.824852 190.408386 
L 107.271133 190.173187 
L 107.605844 189.770183 
L 107.940555 189.070627 
L 108.275265 188.365082 
L 108.833117 188.099336 
L 109.279398 187.569634 
L 109.837249 186.704114 
L 110.50667 186.493045 
L 111.399232 186.053179 
L 112.738075 186.357934 
L 113.407497 186.740661 
L 113.965348 186.925522 
L 114.411629 187.325921 
L 114.74634 187.688106 
L 115.415761 187.879804 
L 115.973612 188.317294 
L 116.419893 188.695369 
L 118.874439 188.682318 
L 119.32072 188.429225 
L 119.878571 188.02437 
L 120.436422 187.866353 
L 120.882703 187.528593 
L 121.217414 187.228573 
L 121.886836 187.066845 
L 122.333117 186.771687 
L 122.890968 186.376412 
L 123.560389 186.200585 
L 124.452951 185.864778 
L 126.572786 185.793664 
L 127.019067 185.9363 
L 127.465348 186.128293 
L 128.134769 186.277385 
L 128.58105 186.575804 
L 128.804191 186.701577 
L 129.585183 186.865858 
L 130.143034 187.234014 
L 130.366174 187.346741 
L 131.147166 187.483131 
L 132.262869 187.796428 
L 133.378571 187.731329 
L 133.713282 187.672979 
L 134.605844 187.529111 
L 135.721546 187.158306 
L 136.279398 186.929253 
L 137.060389 186.514581 
L 139.961216 186.496687 
L 140.853778 186.78014 
L 141.523199 186.958972 
L 142.192621 187.201363 
L 142.973612 187.388348 
L 143.754604 187.675933 
L 144.647166 187.863648 
L 145.428158 188.02773 
L 146.097579 187.916297 
L 147.324852 187.404109 
L 147.882703 187.292412 
L 151.899232 187.11908 
L 154.911629 187.69695 
L 156.919893 187.687846 
L 158.370307 187.628137 
L 167.630637 187.12243 
L 168.74634 187.269372 
L 169.304191 187.314114 
L 171.535596 187.531647 
L 172.762869 187.640974 
L 175.440555 187.604441 
L 177.225679 187.436572 
L 178.564522 187.30274 
L 179.122373 187.258143 
L 181.465348 187.035765 
L 183.250472 186.946183 
L 185.370307 186.981406 
L 188.047993 187.119822 
L 190.056257 187.268182 
L 197.196753 187.272355 
L 200.878571 187.045563 
L 202.663695 187.057343 
L 207.238075 187.25688 
L 213.486009 187.288 
L 225.535596 187.162086 
L 256.328984 187.141122 
L 264.138902 187.137167 
L 269.605844 187.195619 
L 282.101712 187.193906 
L 352.167827 187.314088 
L 352.167827 187.314088 
" clip-path="url(#p865daf7c19)" style="fill: none; stroke: #ff7f0e; stroke-width: 1.5; stroke-linecap: square"/>
   </g>
   <g id="patch_3">
    <path d="M 32.586009 228.96 
L 32.586009 7.2 
" style="fill: none; stroke: #000000; stroke-width: 0.8; stroke-linejoin: miter; stroke-linecap: square"/>
   </g>
   <g id="patch_4">
    <path d="M 367.386009 228.96 
L 367.386009 7.2 
" style="fill: none; stroke: #000000; stroke-width: 0.8; stroke-linejoin: miter; stroke-linecap: square"/>
   </g>
   <g id="patch_5">
    <path d="M 32.586009 228.96 
L 367.386009 228.96 
" style="fill: none; stroke: #000000; stroke-width: 0.8; stroke-linejoin: miter; stroke-linecap: square"/>
   </g>
   <g id="patch_6">
    <path d="M 32.586009 7.2 
L 367.386009 7.2 
" style="fill: none; stroke: #000000; stroke-width: 0.8; stroke-linejoin: miter; stroke-linecap: square"/>
   </g>
   <g id="legend_1">
    <g id="patch_7">
     <path d="M 314.000015 43.640613 
L 360.386009 43.640613 
Q 362.386009 43.640613 362.386009 41.640613 
L 362.386009 14.2 
Q 362.386009 12.2 360.386009 12.2 
L 314.000015 12.2 
Q 312.000015 12.2 312.000015 14.2 
L 312.000015 41.640613 
Q 312.000015 43.640613 314.000015 43.640613 
z
" style="fill: #ffffff; opacity: 0.8; stroke: #cccccc; stroke-linejoin: miter"/>
    </g>
    <g id="line2d_16">
     <path d="M 316.000015 19.79832 
L 326.000015 19.79832 
L 336.000015 19.79832 
" style="fill: none; stroke: #1f77b4; stroke-width: 1.5; stroke-linecap: square"/>
    </g>
    <g id="text_16">
     <!-- CD -->
     <g transform="translate(344.000015 23.29832) scale(0.1 -0.1)">
      <defs>
       <path id="NimbusSanL-Regu-44" d="M 570 0 
L 2368 0 
C 3546 0 4269 883 4269 2339 
C 4269 3788 3552 4672 2368 4672 
L 570 4672 
L 570 0 
z
M 1165 524 
L 1165 4147 
L 2266 4147 
C 3187 4147 3674 3525 3674 2332 
C 3674 1153 3187 524 2266 524 
L 1165 524 
z
" transform="scale(0.015625)"/>
      </defs>
      <use xlink:href="#NimbusSanL-Regu-43" transform="scale(0.996264)"/>
      <use xlink:href="#NimbusSanL-Regu-44" transform="translate(71.929985 0) scale(0.996264)"/>
     </g>
    </g>
    <g id="line2d_17">
     <path d="M 316.000015 34.018627 
L 326.000015 34.018627 
L 336.000015 34.018627 
" style="fill: none; stroke: #ff7f0e; stroke-width: 1.5; stroke-linecap: square"/>
    </g>
    <g id="text_17">
     <!-- CL -->
     <g transform="translate(344.000015 37.518627) scale(0.1 -0.1)">
      <defs>
       <path id="NimbusSanL-Regu-4c" d="M 1107 4672 
L 512 4672 
L 512 0 
L 3411 0 
L 3411 524 
L 1107 524 
L 1107 4672 
z
" transform="scale(0.015625)"/>
      </defs>
      <use xlink:href="#NimbusSanL-Regu-43" transform="scale(0.996264)"/>
      <use xlink:href="#NimbusSanL-Regu-4c" transform="translate(71.929985 0) scale(0.996264)"/>
     </g>
    </g>
   </g>
  </g>
 </g>
 <defs>
  <clipPath id="p865daf7c19">
   <rect x="32.586009" y="7.2" width="334.8" height="221.76"/>
  </clipPath>
 </defs>
</svg>
