<?xml version="1.0" encoding="utf-8" standalone="no"?>
<!DOCTYPE svg PUBLIC "-//W3C//DTD SVG 1.1//EN"
  "http://www.w3.org/Graphics/SVG/1.1/DTD/svg11.dtd">
<svg xmlns:xlink="http://www.w3.org/1999/xlink" width="379.567344pt" height="265.600613pt" viewBox="0 0 379.567344 265.600613" xmlns="http://www.w3.org/2000/svg" version="1.1">
 <metadata>
  <rdf:RDF xmlns:dc="http://purl.org/dc/elements/1.1/" xmlns:cc="http://creativecommons.org/ns#" xmlns:rdf="http://www.w3.org/1999/02/22-rdf-syntax-ns#">
   <cc:Work>
    <dc:type rdf:resource="http://purl.org/dc/dcmitype/StillImage"/>
    <dc:date>2025-08-02T13:55:50.298532</dc:date>
    <dc:format>image/svg+xml</dc:format>
    <dc:creator>
     <cc:Agent>
      <dc:title>Matplotlib v3.10.3, https://matplotlib.org/</dc:title>
     </cc:Agent>
    </dc:creator>
   </cc:Work>
  </rdf:RDF>
 </metadata>
 <defs>
  <style type="text/css">*{stroke-linejoin: round; stroke-linecap: butt}</style>
 </defs>
 <g id="figure_1">
  <g id="patch_1">
   <path d="M 0 265.600613 
L 379.567344 265.600613 
L 379.567344 0 
L 0 0 
z
" style="fill: #ffffff"/>
  </g>
  <g id="axes_1">
   <g id="patch_2">
    <path d="M 37.567344 228.96 
L 372.367344 228.96 
L 372.367344 7.2 
L 37.567344 7.2 
z
" style="fill: #ffffff"/>
   </g>
   <g id="matplotlib.axis_1">
    <g id="xtick_1">
     <g id="line2d_1">
      <defs>
       <path id="m99de4806e5" d="M 0 0 
L 0 3.5 
" style="stroke: #000000; stroke-width: 0.8"/>
      </defs>
      <g>
       <use xlink:href="#m99de4806e5" x="52.785526" y="228.96" style="stroke: #000000; stroke-width: 0.8"/>
      </g>
     </g>
     <g id="text_1">
      <!-- $\mathdefault{0}$ -->
      <g transform="translate(50.294859 243.05832) scale(0.1 -0.1)">
       <defs>
        <path id="CMR17-30" d="M 2688 2038 
C 2688 2430 2682 3099 2413 3613 
C 2176 4063 1798 4224 1466 4224 
C 1158 4224 768 4082 525 3620 
C 269 3137 243 2539 243 2038 
C 243 1671 250 1112 448 623 
C 723 -39 1216 -128 1466 -128 
C 1760 -128 2208 -7 2470 604 
C 2662 1048 2688 1568 2688 2038 
z
M 1466 -26 
C 1056 -26 813 328 723 816 
C 653 1196 653 1749 653 2109 
C 653 2604 653 3015 736 3407 
C 858 3954 1216 4121 1466 4121 
C 1728 4121 2067 3947 2189 3420 
C 2272 3054 2278 2623 2278 2109 
C 2278 1691 2278 1176 2202 797 
C 2067 96 1690 -26 1466 -26 
z
" transform="scale(0.015625)"/>
       </defs>
       <use xlink:href="#CMR17-30" transform="scale(0.996264)"/>
      </g>
     </g>
    </g>
    <g id="xtick_2">
     <g id="line2d_2">
      <g>
       <use xlink:href="#m99de4806e5" x="108.57065" y="228.96" style="stroke: #000000; stroke-width: 0.8"/>
      </g>
     </g>
     <g id="text_2">
      <!-- $\mathdefault{500}$ -->
      <g transform="translate(101.098647 243.05832) scale(0.1 -0.1)">
       <defs>
        <path id="CMR17-35" d="M 730 3750 
C 794 3724 1056 3641 1325 3641 
C 1920 3641 2246 3961 2432 4140 
C 2432 4191 2432 4224 2394 4224 
C 2387 4224 2374 4224 2323 4198 
C 2099 4102 1837 4032 1517 4032 
C 1325 4032 1037 4055 723 4191 
C 653 4224 640 4224 634 4224 
C 602 4224 595 4217 595 4090 
L 595 2231 
C 595 2113 595 2080 659 2080 
C 691 2080 704 2093 736 2139 
C 941 2435 1222 2560 1542 2560 
C 1766 2560 2246 2415 2246 1293 
C 2246 1087 2246 716 2054 422 
C 1894 159 1645 25 1370 25 
C 947 25 518 319 403 812 
C 429 806 480 793 506 793 
C 589 793 749 838 749 1036 
C 749 1209 627 1280 506 1280 
C 358 1280 262 1190 262 1011 
C 262 454 704 -128 1382 -128 
C 2042 -128 2669 441 2669 1267 
C 2669 2054 2170 2662 1549 2662 
C 1222 2662 947 2540 730 2304 
L 730 3750 
z
" transform="scale(0.015625)"/>
       </defs>
       <use xlink:href="#CMR17-35" transform="scale(0.996264)"/>
       <use xlink:href="#CMR17-30" transform="translate(45.690477 0) scale(0.996264)"/>
       <use xlink:href="#CMR17-30" transform="translate(91.380954 0) scale(0.996264)"/>
      </g>
     </g>
    </g>
    <g id="xtick_3">
     <g id="line2d_3">
      <g>
       <use xlink:href="#m99de4806e5" x="164.355774" y="228.96" style="stroke: #000000; stroke-width: 0.8"/>
      </g>
     </g>
     <g id="text_3">
      <!-- $\mathdefault{1000}$ -->
      <g transform="translate(154.393104 243.05832) scale(0.1 -0.1)">
       <defs>
        <path id="CMR17-31" d="M 1702 4083 
C 1702 4217 1696 4224 1606 4224 
C 1357 3927 979 3833 621 3820 
C 602 3820 570 3820 563 3808 
C 557 3795 557 3782 557 3648 
C 755 3648 1088 3686 1344 3839 
L 1344 467 
C 1344 243 1331 166 781 166 
L 589 166 
L 589 0 
C 896 6 1216 12 1523 12 
C 1830 12 2150 6 2458 0 
L 2458 166 
L 2266 166 
C 1715 166 1702 236 1702 467 
L 1702 4083 
z
" transform="scale(0.015625)"/>
       </defs>
       <use xlink:href="#CMR17-31" transform="scale(0.996264)"/>
       <use xlink:href="#CMR17-30" transform="translate(45.690477 0) scale(0.996264)"/>
       <use xlink:href="#CMR17-30" transform="translate(91.380954 0) scale(0.996264)"/>
       <use xlink:href="#CMR17-30" transform="translate(137.071431 0) scale(0.996264)"/>
      </g>
     </g>
    </g>
    <g id="xtick_4">
     <g id="line2d_4">
      <g>
       <use xlink:href="#m99de4806e5" x="220.140898" y="228.96" style="stroke: #000000; stroke-width: 0.8"/>
      </g>
     </g>
     <g id="text_4">
      <!-- $\mathdefault{1500}$ -->
      <g transform="translate(210.178228 243.05832) scale(0.1 -0.1)">
       <use xlink:href="#CMR17-31" transform="scale(0.996264)"/>
       <use xlink:href="#CMR17-35" transform="translate(45.690477 0) scale(0.996264)"/>
       <use xlink:href="#CMR17-30" transform="translate(91.380954 0) scale(0.996264)"/>
       <use xlink:href="#CMR17-30" transform="translate(137.071431 0) scale(0.996264)"/>
      </g>
     </g>
    </g>
    <g id="xtick_5">
     <g id="line2d_5">
      <g>
       <use xlink:href="#m99de4806e5" x="275.926022" y="228.96" style="stroke: #000000; stroke-width: 0.8"/>
      </g>
     </g>
     <g id="text_5">
      <!-- $\mathdefault{2000}$ -->
      <g transform="translate(265.963352 243.05832) scale(0.1 -0.1)">
       <defs>
        <path id="CMR17-32" d="M 2669 990 
L 2554 990 
C 2490 537 2438 460 2413 422 
C 2381 371 1920 371 1830 371 
L 602 371 
C 832 620 1280 1073 1824 1596 
C 2214 1966 2669 2400 2669 3033 
C 2669 3788 2067 4224 1395 4224 
C 691 4224 262 3603 262 3027 
C 262 2777 448 2745 525 2745 
C 589 2745 781 2783 781 3007 
C 781 3206 614 3264 525 3264 
C 486 3264 448 3257 422 3244 
C 544 3788 915 4057 1306 4057 
C 1862 4057 2227 3616 2227 3033 
C 2227 2477 1901 1998 1536 1583 
L 262 147 
L 262 0 
L 2515 0 
L 2669 990 
z
" transform="scale(0.015625)"/>
       </defs>
       <use xlink:href="#CMR17-32" transform="scale(0.996264)"/>
       <use xlink:href="#CMR17-30" transform="translate(45.690477 0) scale(0.996264)"/>
       <use xlink:href="#CMR17-30" transform="translate(91.380954 0) scale(0.996264)"/>
       <use xlink:href="#CMR17-30" transform="translate(137.071431 0) scale(0.996264)"/>
      </g>
     </g>
    </g>
    <g id="xtick_6">
     <g id="line2d_6">
      <g>
       <use xlink:href="#m99de4806e5" x="331.711146" y="228.96" style="stroke: #000000; stroke-width: 0.8"/>
      </g>
     </g>
     <g id="text_6">
      <!-- $\mathdefault{2500}$ -->
      <g transform="translate(321.748476 243.05832) scale(0.1 -0.1)">
       <use xlink:href="#CMR17-32" transform="scale(0.996264)"/>
       <use xlink:href="#CMR17-35" transform="translate(45.690477 0) scale(0.996264)"/>
       <use xlink:href="#CMR17-30" transform="translate(91.380954 0) scale(0.996264)"/>
       <use xlink:href="#CMR17-30" transform="translate(137.071431 0) scale(0.996264)"/>
      </g>
     </g>
    </g>
    <g id="text_7">
     <!-- Iteration -->
     <g transform="translate(187.019968 256.278627) scale(0.1 -0.1)">
      <defs>
       <path id="NimbusSanL-Regu-49" d="M 1242 4672 
L 640 4672 
L 640 0 
L 1242 0 
L 1242 4672 
z
" transform="scale(0.015625)"/>
       <path id="NimbusSanL-Regu-74" d="M 1626 3328 
L 1075 3328 
L 1075 4249 
L 544 4249 
L 544 3328 
L 90 3328 
L 90 2892 
L 544 2892 
L 544 402 
C 544 64 774 -128 1190 -128 
C 1318 -128 1446 -116 1626 -84 
L 1626 364 
C 1555 345 1472 339 1370 339 
C 1139 339 1075 402 1075 634 
L 1075 2892 
L 1626 2892 
L 1626 3328 
z
" transform="scale(0.015625)"/>
       <path id="NimbusSanL-Regu-65" d="M 3283 1484 
C 3283 1998 3245 2311 3149 2565 
C 2931 3123 2419 3456 1792 3456 
C 858 3456 256 2734 256 1619 
C 256 545 838 -128 1779 -128 
C 2547 -128 3078 307 3213 1018 
L 2675 1018 
C 2528 588 2227 364 1798 364 
C 1459 364 1171 514 992 787 
C 864 974 819 1161 813 1484 
L 3283 1484 
z
M 826 1920 
C 870 2552 1248 2963 1786 2963 
C 2310 2963 2714 2519 2714 1959 
C 2714 1946 2714 1933 2707 1920 
L 826 1920 
z
" transform="scale(0.015625)"/>
       <path id="NimbusSanL-Regu-72" d="M 442 3328 
L 442 0 
L 979 0 
L 979 1727 
C 979 2203 1101 2514 1357 2698 
C 1523 2819 1683 2857 2054 2863 
L 2054 3404 
C 1965 3449 1920 3456 1850 3456 
C 1504 3456 1242 3251 934 2750 
L 934 3328 
L 442 3328 
z
" transform="scale(0.015625)"/>
       <path id="NimbusSanL-Regu-61" d="M 3424 332 
C 3366 320 3341 320 3309 320 
C 3123 320 3021 415 3021 581 
L 3021 2542 
C 3021 3135 2586 3456 1760 3456 
C 1274 3456 870 3315 646 3065 
C 493 2893 429 2702 416 2370 
L 954 2370 
C 998 2778 1242 2963 1741 2963 
C 2221 2963 2490 2784 2490 2466 
L 2490 2326 
C 2490 2103 2355 2007 1933 1956 
C 1178 1861 1062 1835 858 1753 
C 467 1593 269 1294 269 861 
C 269 256 691 -128 1370 -128 
C 1792 -128 2131 19 2509 364 
C 2547 25 2714 -128 3059 -128 
C 3168 -128 3251 -116 3424 -71 
L 3424 332 
z
M 2490 1071 
C 2490 893 2438 785 2278 638 
C 2061 441 1798 339 1485 339 
C 1069 339 826 536 826 874 
C 826 1224 1062 1402 1632 1485 
C 2195 1562 2310 1587 2490 1670 
L 2490 1071 
z
" transform="scale(0.015625)"/>
       <path id="NimbusSanL-Regu-69" d="M 960 3358 
L 429 3358 
L 429 0 
L 960 0 
L 960 3358 
z
M 960 4672 
L 422 4672 
L 422 3999 
L 960 3999 
L 960 4672 
z
" transform="scale(0.015625)"/>
       <path id="NimbusSanL-Regu-6f" d="M 1741 3456 
C 800 3456 230 2784 230 1663 
C 230 543 794 -128 1747 -128 
C 2688 -128 3264 543 3264 1638 
C 3264 2791 2707 3456 1741 3456 
z
M 1747 2963 
C 2349 2963 2707 2472 2707 1644 
C 2707 861 2336 364 1747 364 
C 1152 364 787 855 787 1663 
C 787 2466 1152 2963 1747 2963 
z
" transform="scale(0.015625)"/>
       <path id="NimbusSanL-Regu-6e" d="M 448 3328 
L 448 0 
L 986 0 
L 986 1835 
C 986 2539 1344 2988 1894 2988 
C 2317 2988 2586 2732 2586 2328 
L 2586 0 
L 3117 0 
L 3117 2539 
C 3117 3097 2701 3456 2054 3456 
C 1555 3456 1235 3263 941 2796 
L 941 3328 
L 448 3328 
z
" transform="scale(0.015625)"/>
      </defs>
      <use xlink:href="#NimbusSanL-Regu-49" transform="scale(0.996264)"/>
      <use xlink:href="#NimbusSanL-Regu-74" transform="translate(27.69517 0) scale(0.996264)"/>
      <use xlink:href="#NimbusSanL-Regu-65" transform="translate(55.390339 0) scale(0.996264)"/>
      <use xlink:href="#NimbusSanL-Regu-72" transform="translate(110.782016 0) scale(0.996264)"/>
      <use xlink:href="#NimbusSanL-Regu-61" transform="translate(142.961149 0) scale(0.996264)"/>
      <use xlink:href="#NimbusSanL-Regu-74" transform="translate(198.352826 0) scale(0.996264)"/>
      <use xlink:href="#NimbusSanL-Regu-69" transform="translate(226.047996 0) scale(0.996264)"/>
      <use xlink:href="#NimbusSanL-Regu-6f" transform="translate(248.16478 0) scale(0.996264)"/>
      <use xlink:href="#NimbusSanL-Regu-6e" transform="translate(303.556457 0) scale(0.996264)"/>
     </g>
    </g>
   </g>
   <g id="matplotlib.axis_2">
    <g id="ytick_1">
     <g id="line2d_7">
      <defs>
       <path id="m4171c5cfb2" d="M 0 0 
L -3.5 0 
" style="stroke: #000000; stroke-width: 0.8"/>
      </defs>
      <g>
       <use xlink:href="#m4171c5cfb2" x="37.567344" y="193.434223" style="stroke: #000000; stroke-width: 0.8"/>
      </g>
     </g>
     <g id="text_8">
      <!-- $\mathdefault{5}$ -->
      <g transform="translate(25.586009 196.983383) scale(0.1 -0.1)">
       <use xlink:href="#CMR17-35" transform="scale(0.996264)"/>
      </g>
     </g>
    </g>
    <g id="ytick_2">
     <g id="line2d_8">
      <g>
       <use xlink:href="#m4171c5cfb2" x="37.567344" y="153.81106" style="stroke: #000000; stroke-width: 0.8"/>
      </g>
     </g>
     <g id="text_9">
      <!-- $\mathdefault{10}$ -->
      <g transform="translate(20.604674 157.36022) scale(0.1 -0.1)">
       <use xlink:href="#CMR17-31" transform="scale(0.996264)"/>
       <use xlink:href="#CMR17-30" transform="translate(45.690477 0) scale(0.996264)"/>
      </g>
     </g>
    </g>
    <g id="ytick_3">
     <g id="line2d_9">
      <g>
       <use xlink:href="#m4171c5cfb2" x="37.567344" y="114.187897" style="stroke: #000000; stroke-width: 0.8"/>
      </g>
     </g>
     <g id="text_10">
      <!-- $\mathdefault{15}$ -->
      <g transform="translate(20.604674 117.737057) scale(0.1 -0.1)">
       <use xlink:href="#CMR17-31" transform="scale(0.996264)"/>
       <use xlink:href="#CMR17-35" transform="translate(45.690477 0) scale(0.996264)"/>
      </g>
     </g>
    </g>
    <g id="ytick_4">
     <g id="line2d_10">
      <g>
       <use xlink:href="#m4171c5cfb2" x="37.567344" y="74.564734" style="stroke: #000000; stroke-width: 0.8"/>
      </g>
     </g>
     <g id="text_11">
      <!-- $\mathdefault{20}$ -->
      <g transform="translate(20.604674 78.113895) scale(0.1 -0.1)">
       <use xlink:href="#CMR17-32" transform="scale(0.996264)"/>
       <use xlink:href="#CMR17-30" transform="translate(45.690477 0) scale(0.996264)"/>
      </g>
     </g>
    </g>
    <g id="ytick_5">
     <g id="line2d_11">
      <g>
       <use xlink:href="#m4171c5cfb2" x="37.567344" y="34.941572" style="stroke: #000000; stroke-width: 0.8"/>
      </g>
     </g>
     <g id="text_12">
      <!-- $\mathdefault{25}$ -->
      <g transform="translate(20.604674 38.490732) scale(0.1 -0.1)">
       <use xlink:href="#CMR17-32" transform="scale(0.996264)"/>
       <use xlink:href="#CMR17-35" transform="translate(45.690477 0) scale(0.996264)"/>
      </g>
     </g>
    </g>
    <g id="text_13">
     <!-- Average CFL - Blade_0 -->
     <g transform="translate(14.482687 168.77932) rotate(-90) scale(0.1 -0.1)">
      <defs>
       <path id="NimbusSanL-Regu-41" d="M 3034 1408 
L 3514 0 
L 4179 0 
L 2541 4672 
L 1773 4672 
L 109 0 
L 742 0 
L 1235 1408 
L 3034 1408 
z
M 2867 1907 
L 1382 1907 
L 2150 4032 
L 2867 1907 
z
" transform="scale(0.015625)"/>
       <path id="NimbusSanL-Regu-76" d="M 1824 0 
L 3110 3328 
L 2509 3328 
L 1562 629 
L 666 3328 
L 64 3328 
L 1242 0 
L 1824 0 
z
" transform="scale(0.015625)"/>
       <path id="NimbusSanL-Regu-67" d="M 2637 3359 
L 2637 2873 
C 2368 3270 2042 3456 1613 3456 
C 762 3456 186 2714 186 1632 
C 186 1084 333 638 608 320 
C 858 38 1216 -128 1568 -128 
C 1990 -128 2285 51 2586 473 
L 2586 300 
C 2586 -155 2528 -441 2394 -634 
C 2253 -841 1978 -960 1651 -960 
C 1408 -960 1190 -894 1043 -774 
C 922 -674 870 -581 838 -375 
L 294 -375 
C 352 -1031 845 -1408 1632 -1408 
C 2131 -1408 2560 -1248 2778 -980 
C 3034 -661 3130 -222 3130 568 
L 3130 3359 
L 2637 3359 
z
M 1670 2963 
C 2246 2963 2586 2479 2586 1644 
C 2586 848 2240 364 1677 364 
C 1094 364 742 855 742 1663 
C 742 2466 1101 2963 1670 2963 
z
" transform="scale(0.015625)"/>
       <path id="NimbusSanL-Regu-43" d="M 4237 3219 
C 4051 4236 3462 4736 2438 4736 
C 1811 4736 1306 4537 960 4154 
C 538 3696 307 3035 307 2284 
C 307 1522 544 867 986 415 
C 1344 44 1805 -128 2413 -128 
C 3552 -128 4192 485 4333 1712 
L 3718 1712 
C 3667 1394 3603 1178 3507 994 
C 3315 612 2918 396 2419 396 
C 1491 396 902 1134 902 2291 
C 902 3480 1466 4211 2368 4211 
C 2746 4211 3098 4096 3290 3918 
C 3462 3759 3558 3562 3629 3219 
L 4237 3219 
z
" transform="scale(0.015625)"/>
       <path id="NimbusSanL-Regu-46" d="M 1171 2112 
L 3398 2112 
L 3398 2636 
L 1171 2636 
L 1171 4147 
L 3706 4147 
L 3706 4672 
L 576 4672 
L 576 0 
L 1171 0 
L 1171 2112 
z
" transform="scale(0.015625)"/>
       <path id="NimbusSanL-Regu-4c" d="M 1107 4672 
L 512 4672 
L 512 0 
L 3411 0 
L 3411 524 
L 1107 524 
L 1107 4672 
z
" transform="scale(0.015625)"/>
       <path id="NimbusSanL-Regu-2d" d="M 1818 1996 
L 294 1996 
L 294 1536 
L 1818 1536 
L 1818 1996 
z
" transform="scale(0.015625)"/>
       <path id="NimbusSanL-Regu-42" d="M 506 0 
L 2611 0 
C 3053 0 3379 121 3629 390 
C 3859 632 3987 961 3987 1321 
C 3987 1878 3731 2214 3136 2444 
C 3558 2643 3782 2994 3782 3476 
C 3782 3821 3654 4127 3411 4345 
C 3168 4569 2848 4672 2400 4672 
L 506 4672 
L 506 0 
z
M 1101 2636 
L 1101 4147 
L 2253 4147 
C 2586 4147 2771 4101 2931 3977 
C 3098 3847 3187 3652 3187 3391 
C 3187 3138 3098 2936 2931 2806 
C 2771 2682 2586 2636 2253 2636 
L 1101 2636 
z
M 1101 524 
L 1101 2112 
L 2554 2112 
C 2842 2112 3034 2042 3174 1890 
C 3315 1745 3392 1542 3392 1315 
C 3392 1093 3315 891 3174 746 
C 3034 594 2842 524 2554 524 
L 1101 524 
z
" transform="scale(0.015625)"/>
       <path id="NimbusSanL-Regu-6c" d="M 973 4672 
L 435 4672 
L 435 0 
L 973 0 
L 973 4672 
z
" transform="scale(0.015625)"/>
       <path id="NimbusSanL-Regu-64" d="M 3168 4672 
L 2637 4672 
L 2637 2937 
C 2413 3276 2054 3456 1606 3456 
C 736 3456 166 2759 166 1695 
C 166 568 723 -128 1626 -128 
C 2086 -128 2406 44 2694 460 
L 2694 19 
L 3168 19 
L 3168 4672 
z
M 1696 2956 
C 2272 2956 2637 2447 2637 1651 
C 2637 880 2266 371 1702 371 
C 1114 371 723 887 723 1663 
C 723 2440 1114 2956 1696 2956 
z
" transform="scale(0.015625)"/>
       <path id="NimbusSanL-Regu-30" d="M 1760 4544 
C 1338 4544 954 4358 717 4044 
C 422 3649 275 3043 275 2207 
C 275 683 787 -128 1760 -128 
C 2720 -128 3245 683 3245 2169 
C 3245 3049 3104 3636 2803 4044 
C 2566 4364 2189 4544 1760 4544 
z
M 1760 4044 
C 2368 4044 2669 3432 2669 2220 
C 2669 938 2374 339 1747 339 
C 1152 339 851 964 851 2201 
C 851 3438 1152 4044 1760 4044 
z
" transform="scale(0.015625)"/>
      </defs>
      <use xlink:href="#NimbusSanL-Regu-41" transform="scale(0.996264)"/>
      <use xlink:href="#NimbusSanL-Regu-76" transform="translate(62.465918 0) scale(0.996264)"/>
      <use xlink:href="#NimbusSanL-Regu-65" transform="translate(109.788488 0) scale(0.996264)"/>
      <use xlink:href="#NimbusSanL-Regu-72" transform="translate(165.180165 0) scale(0.996264)"/>
      <use xlink:href="#NimbusSanL-Regu-61" transform="translate(197.359298 0) scale(0.996264)"/>
      <use xlink:href="#NimbusSanL-Regu-67" transform="translate(252.750975 0) scale(0.996264)"/>
      <use xlink:href="#NimbusSanL-Regu-65" transform="translate(308.142652 0) scale(0.996264)"/>
      <use xlink:href="#NimbusSanL-Regu-43" transform="translate(391.229499 0) scale(0.996264)"/>
      <use xlink:href="#NimbusSanL-Regu-46" transform="translate(463.159484 0) scale(0.996264)"/>
      <use xlink:href="#NimbusSanL-Regu-4c" transform="translate(524.031114 0) scale(0.996264)"/>
      <use xlink:href="#NimbusSanL-Regu-2d" transform="translate(607.117961 0) scale(0.996264)"/>
      <use xlink:href="#NimbusSanL-Regu-42" transform="translate(667.98836 0) scale(0.996264)"/>
      <use xlink:href="#NimbusSanL-Regu-6c" transform="translate(734.438391 0) scale(0.996264)"/>
      <use xlink:href="#NimbusSanL-Regu-61" transform="translate(756.555176 0) scale(0.996264)"/>
      <use xlink:href="#NimbusSanL-Regu-64" transform="translate(811.946853 0) scale(0.996264)"/>
      <use xlink:href="#NimbusSanL-Regu-65" transform="translate(867.33853 0) scale(0.996264)"/>
      <use xlink:href="#NimbusSanL-Regu-30" transform="translate(958.595772 0) scale(0.996264)"/>
      <path d="M 928.707548 0 
L 958.595772 0 
L 958.595772 0.3985 
L 928.707548 0.3985 
L 928.707548 0 
z
"/>
     </g>
    </g>
   </g>
   <g id="line2d_12">
    <path d="M 52.785526 120.048635 
L 53.008667 72.890723 
L 53.120237 217.040719 
L 53.454948 205.380586 
L 53.789658 185.231876 
L 54.124369 150.414906 
L 54.45908 90.994632 
L 54.57065 63.23925 
L 54.68222 216.075572 
L 55.016931 203.712812 
L 55.351642 182.349962 
L 55.686353 145.459828 
L 56.021063 82.506897 
L 56.132634 52.855812 
L 56.578915 52.855812 
L 56.690485 215.037228 
L 57.025196 201.918553 
L 57.359906 179.249484 
L 57.694617 140.102681 
L 58.029328 73.347769 
L 58.140898 217.086424 
L 58.475609 205.459564 
L 58.81032 185.368349 
L 59.14503 150.688432 
L 59.479741 91.283533 
L 59.591311 218.88 
L 59.926022 208.558864 
L 60.260733 190.72394 
L 60.595444 159.91699 
L 60.930154 106.827391 
L 61.041725 81.676557 
L 61.153295 217.919302 
L 61.488006 206.898778 
L 61.822716 187.855312 
L 62.157427 154.948987 
L 62.492138 98.188208 
L 62.603708 71.338323 
L 62.715278 216.885479 
L 63.049989 205.112331 
L 63.3847 184.768332 
L 63.71941 149.619243 
L 64.277262 60.32874 
L 64.388832 215.784521 
L 64.723543 203.209875 
L 65.058253 181.481022 
L 65.392964 143.942564 
L 65.727675 79.101664 
L 65.839245 48.342414 
L 65.950815 214.585888 
L 66.285526 201.138638 
L 66.620237 177.90179 
L 66.954948 137.748517 
L 67.289658 68.363662 
L 67.401229 216.588013 
L 67.735939 204.59831 
L 68.07065 183.880103 
L 68.405361 148.079041 
L 68.740072 86.217971 
L 68.851642 56.86385 
L 68.963212 215.438032 
L 69.297923 202.611142 
L 69.632634 180.446277 
L 69.967344 142.145391 
L 70.525196 44.542274 
L 70.636766 214.205874 
L 70.971477 200.481974 
L 71.306187 176.767075 
L 71.640898 135.787728 
L 71.975609 64.975418 
L 72.087179 216.249189 
L 72.42189 204.012821 
L 72.756601 182.868379 
L 73.091311 146.330782 
L 73.426022 83.19543 
L 73.537592 53.229497 
L 73.760733 53.229497 
L 73.872303 17.28 
L 73.983873 211.479647 
L 74.318584 195.771053 
L 74.653295 168.626603 
L 74.988006 121.720994 
L 75.322716 72.732982 
L 75.657427 72.732982 
L 75.768997 217.024945 
L 76.103708 205.353328 
L 76.438419 185.184775 
L 76.77313 150.333515 
L 77.10784 90.165113 
L 77.21941 61.647332 
L 77.330981 215.91638 
L 77.665691 203.437728 
L 78.000402 181.874618 
L 78.335113 144.613563 
L 78.781394 80.254198 
L 80.231807 80.254198 
L 80.343377 217.777066 
L 80.678088 206.652994 
L 81.012799 187.430598 
L 81.34751 154.214297 
L 81.68222 96.816528 
L 81.793791 69.568357 
L 81.905361 216.708482 
L 82.240072 204.806481 
L 82.574782 184.239823 
L 82.909493 148.700638 
L 83.244204 87.288925 
L 83.355774 218.480539 
L 83.690485 207.868595 
L 84.025196 189.531156 
L 84.359906 157.844062 
L 84.694617 103.088762 
L 84.806187 77.095038 
L 84.917758 217.46115 
L 85.252468 206.107092 
L 85.587179 186.487278 
L 85.92189 152.58424 
L 86.368171 93.99979 
L 86.479741 93.99979 
L 86.591311 66.18827 
L 86.702882 216.370474 
L 87.037592 204.222402 
L 87.372303 183.230535 
L 87.707014 146.956587 
L 88.264865 54.518771 
L 88.376435 215.203524 
L 88.711146 202.205913 
L 89.045857 179.746041 
L 89.380568 140.935382 
L 89.826849 73.870563 
L 89.938419 73.870563 
L 90.049989 42.033199 
L 90.161559 213.954967 
L 90.49627 200.048406 
L 90.830981 176.017869 
L 91.165691 134.493101 
L 91.500402 62.738302 
L 91.611972 216.025477 
L 91.946683 203.626248 
L 92.281394 182.200379 
L 92.616105 145.176479 
L 92.950815 81.199179 
L 93.062386 217.871565 
L 93.397096 206.816287 
L 93.731807 187.712768 
L 94.066518 154.701887 
L 94.401229 97.659084 
L 94.512799 70.579423 
L 94.624369 216.809589 
L 94.95908 204.981193 
L 95.293791 184.541726 
L 95.628501 149.222326 
L 95.963212 88.190402 
L 96.074782 59.217006 
L 96.186353 215.673347 
L 96.521063 203.017768 
L 96.855774 181.148926 
L 97.190485 143.359568 
L 97.636766 78.059557 
L 97.971477 78.059557 
L 98.083047 217.557602 
L 98.417758 206.27376 
L 98.752468 186.775282 
L 99.087179 153.08191 
L 99.42189 94.859764 
L 99.53346 67.22024 
L 99.64503 216.473671 
L 99.979741 204.400727 
L 100.314452 183.538679 
L 100.649163 147.489061 
L 100.983873 85.195321 
L 101.095444 218.271179 
L 101.430154 207.50682 
L 101.764865 188.906009 
L 102.099576 156.763808 
L 102.434287 101.222083 
L 102.545857 74.855023 
L 102.657427 217.237149 
L 102.992138 205.720017 
L 103.326849 185.818413 
L 103.661559 151.428441 
L 103.99627 92.00257 
L 104.10784 63.791607 
L 104.21941 216.130807 
L 104.554121 203.808259 
L 104.888832 182.514895 
L 105.223543 145.719962 
L 105.669824 82.138317 
L 108.235939 82.138317 
L 108.34751 217.965478 
L 108.68222 206.97857 
L 109.016931 187.993193 
L 109.351642 155.186461 
L 109.686353 98.496428 
L 109.797923 71.584237 
L 109.909493 216.91007 
L 110.244204 205.154825 
L 110.578915 184.841761 
L 110.913625 149.740787 
L 111.359906 89.086304 
L 111.471477 89.086304 
L 111.583047 60.292088 
L 111.694617 215.780855 
L 112.029328 203.203542 
L 112.364039 181.469944 
L 112.698749 143.914286 
L 113.03346 79.018111 
L 113.14503 217.653458 
L 113.479741 206.439399 
L 113.814452 187.061504 
L 114.149163 153.576503 
L 114.483873 95.714421 
L 114.595444 68.245828 
L 114.707014 216.576229 
L 115.041725 204.577948 
L 115.376435 183.844918 
L 115.711146 148.018242 
L 116.157427 86.109745 
L 116.380568 86.109745 
L 116.492138 56.720217 
L 116.603708 215.423668 
L 116.938419 202.586323 
L 117.27313 180.403389 
L 117.60784 142.07128 
L 117.942551 75.833395 
L 118.054121 217.334986 
L 118.388832 205.88908 
L 118.723543 186.110553 
L 119.058253 151.93326 
L 119.392964 92.874896 
L 119.504534 64.838398 
L 119.616105 216.235487 
L 119.950815 203.989144 
L 120.285526 182.827465 
L 120.620237 146.260083 
L 121.066518 83.071647 
L 121.178088 83.071647 
L 121.289658 53.074499 
L 121.401229 215.059097 
L 121.735939 201.956342 
L 122.07065 179.314783 
L 122.405361 140.190169 
L 122.740072 72.582836 
L 122.851642 217.00993 
L 123.186353 205.327383 
L 123.521063 185.139942 
L 123.855774 150.256043 
L 124.302055 89.976665 
L 124.413625 89.976665 
L 124.525196 61.360521 
L 124.636766 215.887699 
L 124.971477 203.388167 
L 125.306187 181.788976 
L 125.640898 144.465575 
L 125.975609 79.970736 
L 126.087179 217.74872 
L 126.42189 206.604012 
L 126.756601 187.345957 
L 127.091311 154.068037 
L 127.426022 96.563791 
L 127.537592 69.265073 
L 127.649163 216.678154 
L 127.983873 204.754074 
L 128.318584 184.149263 
L 128.653295 148.54415 
L 128.988006 87.018514 
L 129.099576 218.453498 
L 129.434287 207.821868 
L 129.768997 189.450412 
L 130.103708 157.704535 
L 130.438419 102.847661 
L 130.549989 76.805716 
L 130.661559 217.432218 
L 130.99627 206.057097 
L 131.330981 186.400887 
L 131.665691 152.434956 
L 132.000402 93.741827 
L 132.111972 65.878716 
L 132.223543 216.339518 
L 132.558253 204.168911 
L 132.892964 183.138102 
L 133.227675 146.796864 
L 133.562386 83.999204 
L 133.673956 218.151567 
L 134.008667 207.300132 
L 134.343377 188.548851 
L 134.678088 156.146638 
L 135.012799 100.155614 
L 135.124369 73.57526 
L 135.235939 217.109173 
L 135.57065 205.498874 
L 135.905361 185.436278 
L 136.240072 150.768111 
L 136.686353 90.86152 
L 136.797923 90.86152 
L 136.909493 62.422347 
L 137.021063 215.993881 
L 137.355774 203.571651 
L 137.690485 182.106036 
L 138.025196 145.013453 
L 138.359906 80.917471 
L 138.471477 217.843394 
L 138.806187 206.767608 
L 139.140898 187.62865 
L 139.475609 154.556531 
L 139.81032 97.40791 
L 139.92189 70.278015 
L 140.03346 216.779448 
L 140.368171 204.92911 
L 140.702882 184.451726 
L 141.037592 149.066805 
L 141.483873 87.921663 
L 141.818584 87.921663 
L 141.930154 218.543813 
L 142.264865 207.977932 
L 142.599576 189.720091 
L 142.934287 158.170541 
L 143.268997 103.652918 
L 143.380568 77.772024 
L 143.492138 217.528849 
L 143.826849 206.224075 
L 144.161559 186.689425 
L 144.49627 152.93355 
L 144.942551 94.603397 
L 145.165691 94.603397 
L 145.277262 66.9126 
L 145.388832 216.442907 
L 145.723543 204.347566 
L 146.058253 183.446818 
L 146.392964 147.330325 
L 146.727675 84.921026 
L 146.839245 218.243749 
L 147.173956 207.459422 
L 147.508667 188.824105 
L 147.843377 156.622277 
L 148.178088 100.977519 
L 148.289658 74.561546 
L 148.401229 217.207801 
L 148.735939 205.669304 
L 149.07065 185.730781 
L 149.405361 151.277013 
L 149.851642 91.740903 
L 152.306187 91.740903 
L 152.417758 63.477606 
L 152.529328 216.099407 
L 152.864039 203.753999 
L 153.198749 182.421135 
L 153.53346 145.557944 
L 153.868171 81.858351 
L 153.979741 217.937482 
L 154.314452 206.930192 
L 154.649163 187.909595 
L 154.983873 155.042005 
L 155.318584 98.246807 
L 155.430154 71.284692 
L 155.541725 216.880116 
L 155.876435 205.103064 
L 156.211146 184.752318 
L 156.545857 149.586229 
L 156.992138 88.819227 
L 158.777262 88.819227 
L 158.888832 59.971595 
L 159.000402 215.748806 
L 159.335113 203.148161 
L 159.669824 181.374245 
L 160.004534 143.748919 
L 160.339245 78.732356 
L 160.450815 217.624882 
L 160.785526 206.39002 
L 161.120237 186.976178 
L 161.454948 153.42906 
L 161.789658 95.459639 
L 161.901229 67.94009 
L 162.012799 216.545656 
L 162.34751 204.525117 
L 162.68222 183.753625 
L 163.016931 147.860488 
L 163.463212 85.837146 
L 165.248336 85.837146 
L 165.359906 56.393098 
L 165.471477 215.390957 
L 165.806187 202.529796 
L 166.140898 180.305712 
L 166.475609 141.902494 
L 166.81032 75.541733 
L 166.92189 217.30582 
L 167.256601 205.83868 
L 167.591311 186.023463 
L 167.926022 151.782768 
L 168.260733 92.614847 
L 168.372303 64.526339 
L 168.483873 216.204281 
L 168.818584 203.935221 
L 169.153295 182.734285 
L 169.488006 146.099067 
L 169.934287 82.793412 
L 171.830981 82.793412 
L 171.942551 52.740617 
L 172.054121 215.025708 
L 172.388832 201.898648 
L 172.723543 179.215087 
L 173.058253 140.017894 
L 173.504534 72.285144 
L 173.616105 72.285144 
L 173.727675 40.130695 
L 173.839245 213.764716 
L 174.173956 199.719653 
L 174.508667 175.449784 
L 174.843377 133.511451 
L 175.178088 61.042011 
L 175.289658 215.855848 
L 175.624369 203.333129 
L 175.95908 181.69387 
L 176.293791 144.30123 
L 176.740072 79.686749 
L 177.074782 79.686749 
L 177.186353 217.720322 
L 177.521063 206.554939 
L 177.855774 187.261159 
L 178.190485 153.921506 
L 178.525196 96.310586 
L 178.636766 68.961226 
L 178.748336 216.647769 
L 179.083047 204.701569 
L 179.417758 184.058535 
L 179.752468 148.387371 
L 180.198749 86.747601 
L 180.42189 86.747601 
L 180.53346 57.485644 
L 180.64503 215.500211 
L 180.979741 202.718588 
L 181.314452 180.631944 
L 181.649163 142.466223 
L 181.983873 76.515857 
L 182.095444 217.403232 
L 182.430154 206.007009 
L 182.764865 186.314336 
L 183.099576 152.285395 
L 183.434287 93.483387 
L 183.545857 65.568587 
L 183.657427 216.308505 
L 183.992138 204.115321 
L 184.326849 183.045498 
L 184.661559 146.636844 
L 185.21941 53.855751 
L 185.330981 215.137222 
L 185.665691 202.091343 
L 186.000402 179.548064 
L 186.335113 140.593278 
L 186.669824 73.279408 
L 186.781394 217.079588 
L 187.116105 205.447751 
L 187.450815 185.347937 
L 187.785526 150.615459 
L 188.231807 90.597736 
L 188.566518 90.597736 
L 188.678088 62.105806 
L 188.789658 215.962227 
L 189.124369 203.516952 
L 189.45908 182.011517 
L 189.793791 144.850125 
L 190.128501 80.63524 
L 190.240072 217.815171 
L 190.574782 206.718839 
L 190.909493 187.544377 
L 191.244204 154.410906 
L 191.578915 97.15627 
L 191.690485 69.976047 
L 191.802055 216.749251 
L 192.136766 204.87693 
L 192.471477 184.361558 
L 192.806187 148.910997 
L 193.140898 87.652426 
L 193.252468 58.571434 
L 193.364039 215.60879 
L 193.698749 202.906213 
L 194.03346 180.956159 
L 194.368171 143.026467 
L 194.702882 77.483958 
L 194.814452 217.500043 
L 195.149163 206.174297 
L 195.483873 186.603409 
L 195.818584 152.784914 
L 196.376435 66.604389 
L 196.488006 216.412086 
L 196.822716 204.294307 
L 197.157427 183.354787 
L 197.492138 147.171295 
L 197.826849 84.646222 
L 197.938419 218.216269 
L 198.27313 207.411936 
L 198.60784 188.742049 
L 198.942551 156.480485 
L 199.277262 100.732501 
L 199.388832 74.267524 
L 199.500402 217.178399 
L 199.835113 205.618497 
L 200.169824 185.642987 
L 200.504534 151.125305 
L 200.839245 91.47875 
L 200.950815 63.163023 
L 201.062386 216.067949 
L 201.397096 203.699639 
L 201.731807 182.327201 
L 202.066518 145.395626 
L 202.512799 81.577865 
L 202.624369 81.577865 
L 202.735939 51.281961 
L 202.84751 214.879843 
L 203.18222 201.646592 
L 203.516931 178.779535 
L 203.851642 139.265259 
L 204.186353 70.984591 
L 204.297923 216.850106 
L 204.632634 205.051206 
L 204.967344 184.662708 
L 205.302055 149.431384 
L 205.748336 88.551654 
L 208.314452 88.551654 
L 208.426022 59.650508 
L 208.537592 215.716698 
L 208.872303 203.092677 
L 209.207014 181.278369 
L 209.541725 143.583246 
L 209.876435 78.446072 
L 209.988006 217.596254 
L 210.322716 206.34055 
L 210.657427 186.890694 
L 210.992138 153.281344 
L 211.326849 95.204385 
L 211.438419 67.633785 
L 211.549989 216.515025 
L 211.8847 204.472187 
L 212.21941 183.662163 
L 212.554121 147.702441 
L 212.888832 85.564042 
L 213.000402 218.308051 
L 213.335113 207.570535 
L 213.669824 189.016109 
L 214.004534 156.95406 
L 214.339245 101.550839 
L 214.450815 75.249529 
L 214.562386 217.2766 
L 214.897096 205.788188 
L 215.231807 185.936212 
L 215.566518 151.631998 
L 216.012799 92.354316 
L 217.463212 92.354316 
L 217.574782 64.213702 
L 217.686353 216.173017 
L 218.021063 203.881197 
L 218.355774 182.640932 
L 218.690485 145.937753 
L 219.025196 82.514661 
L 219.136766 218.003113 
L 219.471477 207.043602 
L 219.806187 188.105569 
L 220.140898 155.380646 
L 220.475609 98.83198 
L 220.587179 71.986899 
L 220.698749 216.950337 
L 221.03346 205.224405 
L 221.368171 184.961996 
L 221.702882 149.948552 
L 222.037592 89.445322 
L 222.149163 218.696179 
L 222.483873 208.241221 
L 222.818584 190.175053 
L 223.153295 158.956715 
L 223.488006 105.011427 
L 223.599576 79.402235 
L 223.711146 217.69187 
L 224.045857 206.505775 
L 224.380568 187.176203 
L 224.715278 153.774703 
L 225.161559 96.05691 
L 225.60784 96.05691 
L 225.71941 68.656815 
L 225.830981 216.617328 
L 226.165691 204.648967 
L 226.500402 183.967638 
L 226.835113 148.230302 
L 227.169824 86.476186 
L 227.281394 218.399265 
L 227.616105 207.728154 
L 227.950815 189.288474 
L 228.285526 157.424706 
L 228.620237 102.364115 
L 228.731807 76.225461 
L 228.843377 217.374193 
L 229.178088 205.956829 
L 229.512799 186.227624 
L 229.84751 152.135557 
L 230.18222 93.224467 
L 230.293791 65.257883 
L 230.405361 216.277435 
L 230.740072 204.061631 
L 231.074782 182.952722 
L 231.409493 146.476528 
L 231.744204 83.445663 
L 231.855774 218.096213 
L 232.190485 207.20448 
L 232.525196 188.383564 
L 232.859906 155.861023 
L 233.194617 99.662071 
L 233.306187 72.983008 
L 233.417758 217.049948 
L 233.752468 205.396533 
L 234.087179 185.259432 
L 234.42189 150.462523 
L 234.756601 90.333463 
L 234.868171 218.784993 
L 235.202882 208.394691 
L 235.537592 190.44025 
L 235.872303 159.414976 
L 236.207014 105.803302 
L 236.318584 80.352486 
L 236.430154 217.786895 
L 236.764865 206.669979 
L 237.099576 187.459947 
L 237.434287 154.265011 
L 237.768997 96.904163 
L 237.880568 69.673519 
L 237.992138 216.718999 
L 238.326849 204.824653 
L 238.661559 184.271224 
L 238.99627 148.754899 
L 239.442551 87.382689 
L 239.554121 87.382689 
L 239.665691 58.247749 
L 239.777262 215.576422 
L 240.111972 202.85028 
L 240.446683 180.859508 
L 240.781394 142.859453 
L 241.116105 77.195358 
L 241.227675 217.471182 
L 241.562386 206.124427 
L 241.897096 186.517233 
L 242.231807 152.636003 
L 242.678088 94.089236 
L 244.797923 94.089236 
L 244.909493 66.295606 
L 245.021063 216.381207 
L 245.355774 204.24095 
L 245.690485 183.262585 
L 246.025196 147.01197 
L 246.359906 84.370908 
L 246.471477 218.188737 
L 246.806187 207.364362 
L 247.140898 188.659841 
L 247.475609 156.338429 
L 247.81032 100.487029 
L 247.92189 73.972957 
L 248.03346 217.148942 
L 248.368171 205.567596 
L 248.702882 185.55503 
L 249.037592 150.973315 
L 249.483873 91.216111 
L 250.041725 91.216111 
L 250.153295 218.873258 
L 250.488006 208.547213 
L 250.822716 190.703808 
L 251.157427 159.870403 
L 251.492138 106.590281 
L 251.603708 81.29686 
L 251.715278 217.881333 
L 252.049989 206.833166 
L 252.3847 187.741935 
L 252.71941 154.752287 
L 253.165691 97.746176 
L 253.946683 97.746176 
L 254.058253 70.683934 
L 254.169824 216.82004 
L 254.504534 204.999253 
L 254.839245 184.572933 
L 255.173956 149.276251 
L 255.508667 88.283585 
L 255.620237 218.580005 
L 255.954948 208.040473 
L 256.289658 189.82816 
L 256.624369 158.357284 
L 256.95908 103.975611 
L 257.07065 78.159256 
L 257.18222 217.567572 
L 257.516931 206.290989 
L 257.851642 186.805052 
L 258.186353 153.133353 
L 258.521063 94.948658 
L 258.632634 67.326912 
L 258.744204 216.484338 
L 259.078915 204.419159 
L 259.413625 183.570531 
L 259.748336 147.544101 
L 260.083047 85.290431 
L 260.194617 218.28069 
L 260.529328 207.523255 
L 260.864039 188.934409 
L 261.198749 156.812882 
L 261.53346 101.306884 
L 261.64503 74.956784 
L 261.756601 217.247325 
L 262.091311 205.737601 
L 262.426022 185.848799 
L 262.760733 151.480948 
L 263.318584 63.900484 
L 263.430154 216.141695 
L 263.764865 203.827073 
L 264.099576 182.547405 
L 264.434287 145.77614 
L 264.768997 82.235393 
L 264.880568 217.975186 
L 265.215278 206.995345 
L 265.549989 188.02218 
L 265.8847 155.23655 
L 266.21941 98.582982 
L 266.330981 71.688101 
L 266.442551 216.920457 
L 266.777262 205.172773 
L 267.111972 184.872775 
L 267.446683 149.794379 
L 267.892964 89.178911 
L 273.471477 89.178911 
L 273.583047 218.669538 
L 273.917758 208.195185 
L 274.252468 190.095503 
L 274.587179 158.819253 
L 274.92189 104.773892 
L 275.03346 79.117194 
L 275.14503 217.663366 
L 275.479741 206.45652 
L 275.814452 187.09109 
L 276.149163 153.627628 
L 276.483873 95.802764 
L 276.595444 68.35184 
L 276.707014 216.586831 
L 277.041725 204.596267 
L 277.376435 183.876573 
L 277.711146 148.072942 
L 278.157427 86.204267 
L 278.380568 86.204267 
L 278.492138 56.833643 
L 278.603708 215.435011 
L 278.938419 202.605923 
L 279.27313 180.437258 
L 279.60784 142.129805 
L 279.942551 75.934526 
L 280.054121 217.345099 
L 280.388832 205.906555 
L 280.723543 186.140751 
L 281.058253 151.985441 
L 281.392964 92.965066 
L 281.504534 64.946602 
L 281.616105 216.246307 
L 281.950815 204.007842 
L 282.285526 182.859774 
L 282.620237 146.315914 
L 282.954948 83.168122 
L 283.066518 218.068459 
L 283.401229 207.156521 
L 283.735939 188.300691 
L 284.07065 155.717818 
L 284.516931 99.414613 
L 286.413625 99.414613 
L 286.525196 72.686058 
L 286.636766 217.020253 
L 286.971477 205.34522 
L 287.306187 185.170764 
L 287.640898 150.309303 
L 287.975609 90.068699 
L 288.087179 218.758517 
L 288.42189 208.34894 
L 288.756601 190.361192 
L 289.091311 159.278364 
L 289.426022 105.567237 
L 289.537592 80.069207 
L 289.649163 217.758567 
L 289.983873 206.621028 
L 290.318584 187.37536 
L 290.653295 154.118846 
L 290.988006 96.651589 
L 291.099576 69.370429 
L 291.211146 216.68869 
L 291.545857 204.772279 
L 291.880568 184.180722 
L 292.215278 148.598511 
L 292.549989 87.112451 
L 292.661559 218.462892 
L 292.99627 207.838101 
L 293.330981 189.478461 
L 293.665691 157.753005 
L 294.000402 102.931416 
L 294.111972 76.906222 
L 294.223543 217.442269 
L 294.558253 206.074464 
L 294.892964 186.430898 
L 295.227675 152.486815 
L 295.673956 93.83144 
L 295.897096 93.83144 
L 296.008667 65.986251 
L 296.120237 216.350272 
L 296.454948 204.187493 
L 296.789658 183.170212 
L 297.124369 146.852349 
L 297.45908 84.095084 
L 297.57065 218.161155 
L 297.905361 207.316699 
L 298.240072 188.57748 
L 298.574782 156.196109 
L 298.909493 100.241101 
L 299.021063 73.677844 
L 299.132634 217.119431 
L 299.467344 205.5166 
L 299.802055 185.466909 
L 300.136766 150.821043 
L 300.694617 62.532105 
L 300.806187 216.004857 
L 301.140898 203.590617 
L 301.475609 182.138809 
L 301.81032 145.070086 
L 302.14503 81.015333 
L 302.256601 217.85318 
L 302.591311 206.784519 
L 302.926022 187.657872 
L 303.260733 154.607026 
L 303.595444 97.495164 
L 303.707014 70.38272 
L 303.818584 216.789919 
L 304.153295 204.947203 
L 304.488006 184.48299 
L 304.822716 149.120831 
L 305.157427 88.015019 
L 305.268997 218.553149 
L 305.603708 207.994064 
L 305.938419 189.747967 
L 306.27313 158.21871 
L 306.60784 103.736155 
L 306.71941 77.871909 
L 306.830981 217.538838 
L 307.165691 206.241335 
L 307.500402 186.71925 
L 307.835113 152.985088 
L 308.392964 67.01947 
L 308.504534 216.453594 
L 308.839245 204.366033 
L 309.173956 183.478729 
L 309.508667 147.385468 
L 309.843377 85.016312 
L 309.954948 218.253278 
L 310.289658 207.475888 
L 310.624369 188.852558 
L 310.95908 156.671443 
L 311.293791 101.062477 
L 311.405361 74.663496 
L 311.516931 217.217996 
L 311.851642 205.686921 
L 312.186353 185.761223 
L 312.521063 151.329617 
L 313.078915 63.586686 
L 313.190485 216.110315 
L 313.525196 203.772848 
L 313.859906 182.453705 
L 314.194617 145.614227 
L 314.529328 81.955607 
L 314.640898 217.947207 
L 314.975609 206.946998 
L 315.31032 187.938636 
L 315.64503 155.092187 
L 315.979741 98.333522 
L 316.091311 71.388749 
L 316.202882 216.890522 
L 316.537592 205.121045 
L 316.872303 184.783389 
L 317.207014 149.63992 
L 317.541725 88.912006 
L 317.653295 218.642847 
L 317.988006 208.149064 
L 318.322716 190.015806 
L 318.657427 158.681535 
L 318.992138 104.535917 
L 319.103708 78.831623 
L 319.215278 217.634809 
L 319.549989 206.407174 
L 319.8847 187.005819 
L 320.21941 153.48028 
L 320.777262 68.046299 
L 320.888832 216.556277 
L 321.223543 204.54347 
L 321.558253 183.785339 
L 321.892964 147.915289 
L 322.227675 85.931843 
L 322.339245 218.344831 
L 322.673956 207.634092 
L 323.008667 189.125934 
L 323.343377 157.143837 
L 323.678088 101.878774 
L 323.789658 75.643052 
L 323.901229 217.315952 
L 324.235939 205.856188 
L 324.57065 186.053717 
L 324.905361 151.835047 
L 325.463212 64.634744 
L 325.574782 216.215121 
L 325.909493 203.953953 
L 326.244204 182.766654 
L 326.578915 146.155002 
L 326.913625 82.890067 
L 327.025196 218.040653 
L 327.359906 207.108473 
L 327.694617 188.217664 
L 328.029328 155.574347 
L 328.364039 99.166696 
L 328.475609 72.388558 
L 328.587179 216.990502 
L 328.92189 205.293812 
L 329.256601 185.08193 
L 329.591311 150.155799 
L 329.926022 89.803445 
L 330.037592 61.152657 
L 330.149163 215.866912 
L 330.483873 203.352248 
L 330.818584 181.726908 
L 331.153295 144.358321 
L 331.488006 79.785402 
L 331.599576 217.730187 
L 331.934287 206.571987 
L 332.268997 187.290616 
L 332.603708 153.972409 
L 332.938419 96.398546 
L 333.049989 69.066778 
L 333.161559 216.658324 
L 333.49627 204.719808 
L 333.830981 184.090052 
L 334.165691 148.441834 
L 334.500402 86.841712 
L 334.611972 218.435818 
L 334.946683 207.791317 
L 335.281394 189.397619 
L 335.616105 157.61331 
L 335.950815 102.690023 
L 336.062386 76.61655 
L 336.173956 217.413302 
L 336.508667 206.024409 
L 336.843377 186.344402 
L 337.178088 152.337351 
L 337.735939 65.676321 
L 337.84751 216.319279 
L 338.18222 204.133937 
L 338.516931 183.077667 
L 338.851642 146.692433 
L 339.186353 83.818747 
L 339.297923 218.133521 
L 339.632634 207.268949 
L 339.967344 188.494967 
L 340.302055 156.053526 
L 340.636766 99.994717 
L 340.748336 73.382183 
L 340.859906 217.089865 
L 341.194617 205.46551 
L 341.529328 185.378625 
L 341.864039 150.668488 
L 342.198749 90.689371 
L 342.31032 62.215768 
L 342.42189 215.973224 
L 342.756601 203.535954 
L 343.091311 182.044352 
L 343.426022 144.906863 
L 343.760733 80.733283 
L 343.872303 217.824975 
L 344.207014 206.73578 
L 344.541725 187.573652 
L 344.876435 154.461494 
L 345.211146 97.243686 
L 345.322716 70.080946 
L 345.434287 216.759741 
L 345.768997 204.895057 
L 346.103708 184.392881 
L 346.438419 148.965122 
L 346.99627 58.683669 
L 347.10784 215.620014 
L 347.442551 202.925607 
L 347.777262 180.989673 
L 348.111972 143.084378 
L 348.446683 77.584028 
L 348.558253 217.51005 
L 348.892964 206.191589 
L 349.227675 186.63329 
L 349.562386 152.836548 
L 349.897096 94.435778 
L 350.008667 66.711457 
L 350.120237 216.422792 
L 350.454948 204.312809 
L 350.789658 183.386757 
L 351.124369 147.22654 
L 351.68222 55.078545 
L 351.793791 215.259501 
L 352.128501 202.302642 
L 352.463212 179.913188 
L 352.797923 141.224213 
L 353.132634 74.369663 
L 353.244204 217.188613 
L 353.578915 205.636147 
L 353.913625 185.673485 
L 354.248336 151.178006 
L 354.583047 91.569818 
L 354.694617 63.272305 
L 354.806187 216.078877 
L 355.140898 203.718523 
L 355.475609 182.359832 
L 355.81032 145.452013 
L 356.368171 51.398885 
L 356.479741 214.891535 
L 356.814452 201.666796 
L 357.149163 178.814448 
L 357.149163 178.814448 
" clip-path="url(#p17b632fbb0)" style="fill: none; stroke: #1f77b4; stroke-width: 1.5; stroke-linecap: square"/>
   </g>
   <g id="patch_3">
    <path d="M 37.567344 228.96 
L 37.567344 7.2 
" style="fill: none; stroke: #000000; stroke-width: 0.8; stroke-linejoin: miter; stroke-linecap: square"/>
   </g>
   <g id="patch_4">
    <path d="M 372.367344 228.96 
L 372.367344 7.2 
" style="fill: none; stroke: #000000; stroke-width: 0.8; stroke-linejoin: miter; stroke-linecap: square"/>
   </g>
   <g id="patch_5">
    <path d="M 37.567344 228.96 
L 372.367344 228.96 
" style="fill: none; stroke: #000000; stroke-width: 0.8; stroke-linejoin: miter; stroke-linecap: square"/>
   </g>
   <g id="patch_6">
    <path d="M 37.567344 7.2 
L 372.367344 7.2 
" style="fill: none; stroke: #000000; stroke-width: 0.8; stroke-linejoin: miter; stroke-linecap: square"/>
   </g>
   <g id="legend_1">
    <g id="patch_7">
     <path d="M 314.548024 29.420307 
L 365.367344 29.420307 
Q 367.367344 29.420307 367.367344 27.420307 
L 367.367344 14.2 
Q 367.367344 12.2 365.367344 12.2 
L 314.548024 12.2 
Q 312.548024 12.2 312.548024 14.2 
L 312.548024 27.420307 
Q 312.548024 29.420307 314.548024 29.420307 
z
" style="fill: #ffffff; opacity: 0.8; stroke: #cccccc; stroke-linejoin: miter"/>
    </g>
    <g id="line2d_13">
     <path d="M 316.548024 19.79832 
L 326.548024 19.79832 
L 336.548024 19.79832 
" style="fill: none; stroke: #1f77b4; stroke-width: 1.5; stroke-linecap: square"/>
    </g>
    <g id="text_14">
     <!-- CFL -->
     <g transform="translate(344.548024 23.29832) scale(0.1 -0.1)">
      <use xlink:href="#NimbusSanL-Regu-43" transform="scale(0.996264)"/>
      <use xlink:href="#NimbusSanL-Regu-46" transform="translate(71.929985 0) scale(0.996264)"/>
      <use xlink:href="#NimbusSanL-Regu-4c" transform="translate(132.801616 0) scale(0.996264)"/>
     </g>
    </g>
   </g>
  </g>
 </g>
 <defs>
  <clipPath id="p17b632fbb0">
   <rect x="37.567344" y="7.2" width="334.8" height="221.76"/>
  </clipPath>
 </defs>
</svg>
