<?xml version="1.0" encoding="utf-8" standalone="no"?>
<!DOCTYPE svg PUBLIC "-//W3C//DTD SVG 1.1//EN"
  "http://www.w3.org/Graphics/SVG/1.1/DTD/svg11.dtd">
<svg xmlns:xlink="http://www.w3.org/1999/xlink" width="417.314698pt" height="265.600613pt" viewBox="0 0 417.314698 265.600613" xmlns="http://www.w3.org/2000/svg" version="1.1">
 <metadata>
  <rdf:RDF xmlns:dc="http://purl.org/dc/elements/1.1/" xmlns:cc="http://creativecommons.org/ns#" xmlns:rdf="http://www.w3.org/1999/02/22-rdf-syntax-ns#">
   <cc:Work>
    <dc:type rdf:resource="http://purl.org/dc/dcmitype/StillImage"/>
    <dc:date>2025-08-02T13:55:49.605844</dc:date>
    <dc:format>image/svg+xml</dc:format>
    <dc:creator>
     <cc:Agent>
      <dc:title>Matplotlib v3.10.3, https://matplotlib.org/</dc:title>
     </cc:Agent>
    </dc:creator>
   </cc:Work>
  </rdf:RDF>
 </metadata>
 <defs>
  <style type="text/css">*{stroke-linejoin: round; stroke-linecap: butt}</style>
 </defs>
 <g id="figure_1">
  <g id="patch_1">
   <path d="M 0 265.600613 
L 417.314698 265.600613 
L 417.314698 0 
L 0 0 
z
" style="fill: #ffffff"/>
  </g>
  <g id="axes_1">
   <g id="patch_2">
    <path d="M 40.150386 228.96 
L 374.950386 228.96 
L 374.950386 7.2 
L 40.150386 7.2 
z
" style="fill: #ffffff"/>
   </g>
   <g id="matplotlib.axis_1">
    <g id="xtick_1">
     <g id="line2d_1">
      <defs>
       <path id="m7c36661a8f" d="M 0 0 
L 0 3.5 
" style="stroke: #000000; stroke-width: 0.8"/>
      </defs>
      <g>
       <use xlink:href="#m7c36661a8f" x="55.368567" y="228.96" style="stroke: #000000; stroke-width: 0.8"/>
      </g>
     </g>
     <g id="text_1">
      <!-- $\mathdefault{0}$ -->
      <g transform="translate(52.8779 243.05832) scale(0.1 -0.1)">
       <defs>
        <path id="CMR17-30" d="M 2688 2038 
C 2688 2430 2682 3099 2413 3613 
C 2176 4063 1798 4224 1466 4224 
C 1158 4224 768 4082 525 3620 
C 269 3137 243 2539 243 2038 
C 243 1671 250 1112 448 623 
C 723 -39 1216 -128 1466 -128 
C 1760 -128 2208 -7 2470 604 
C 2662 1048 2688 1568 2688 2038 
z
M 1466 -26 
C 1056 -26 813 328 723 816 
C 653 1196 653 1749 653 2109 
C 653 2604 653 3015 736 3407 
C 858 3954 1216 4121 1466 4121 
C 1728 4121 2067 3947 2189 3420 
C 2272 3054 2278 2623 2278 2109 
C 2278 1691 2278 1176 2202 797 
C 2067 96 1690 -26 1466 -26 
z
" transform="scale(0.015625)"/>
       </defs>
       <use xlink:href="#CMR17-30" transform="scale(0.996264)"/>
      </g>
     </g>
    </g>
    <g id="xtick_2">
     <g id="line2d_2">
      <g>
       <use xlink:href="#m7c36661a8f" x="111.153691" y="228.96" style="stroke: #000000; stroke-width: 0.8"/>
      </g>
     </g>
     <g id="text_2">
      <!-- $\mathdefault{500}$ -->
      <g transform="translate(103.681689 243.05832) scale(0.1 -0.1)">
       <defs>
        <path id="CMR17-35" d="M 730 3750 
C 794 3724 1056 3641 1325 3641 
C 1920 3641 2246 3961 2432 4140 
C 2432 4191 2432 4224 2394 4224 
C 2387 4224 2374 4224 2323 4198 
C 2099 4102 1837 4032 1517 4032 
C 1325 4032 1037 4055 723 4191 
C 653 4224 640 4224 634 4224 
C 602 4224 595 4217 595 4090 
L 595 2231 
C 595 2113 595 2080 659 2080 
C 691 2080 704 2093 736 2139 
C 941 2435 1222 2560 1542 2560 
C 1766 2560 2246 2415 2246 1293 
C 2246 1087 2246 716 2054 422 
C 1894 159 1645 25 1370 25 
C 947 25 518 319 403 812 
C 429 806 480 793 506 793 
C 589 793 749 838 749 1036 
C 749 1209 627 1280 506 1280 
C 358 1280 262 1190 262 1011 
C 262 454 704 -128 1382 -128 
C 2042 -128 2669 441 2669 1267 
C 2669 2054 2170 2662 1549 2662 
C 1222 2662 947 2540 730 2304 
L 730 3750 
z
" transform="scale(0.015625)"/>
       </defs>
       <use xlink:href="#CMR17-35" transform="scale(0.996264)"/>
       <use xlink:href="#CMR17-30" transform="translate(45.690477 0) scale(0.996264)"/>
       <use xlink:href="#CMR17-30" transform="translate(91.380954 0) scale(0.996264)"/>
      </g>
     </g>
    </g>
    <g id="xtick_3">
     <g id="line2d_3">
      <g>
       <use xlink:href="#m7c36661a8f" x="166.938815" y="228.96" style="stroke: #000000; stroke-width: 0.8"/>
      </g>
     </g>
     <g id="text_3">
      <!-- $\mathdefault{1000}$ -->
      <g transform="translate(156.976145 243.05832) scale(0.1 -0.1)">
       <defs>
        <path id="CMR17-31" d="M 1702 4083 
C 1702 4217 1696 4224 1606 4224 
C 1357 3927 979 3833 621 3820 
C 602 3820 570 3820 563 3808 
C 557 3795 557 3782 557 3648 
C 755 3648 1088 3686 1344 3839 
L 1344 467 
C 1344 243 1331 166 781 166 
L 589 166 
L 589 0 
C 896 6 1216 12 1523 12 
C 1830 12 2150 6 2458 0 
L 2458 166 
L 2266 166 
C 1715 166 1702 236 1702 467 
L 1702 4083 
z
" transform="scale(0.015625)"/>
       </defs>
       <use xlink:href="#CMR17-31" transform="scale(0.996264)"/>
       <use xlink:href="#CMR17-30" transform="translate(45.690477 0) scale(0.996264)"/>
       <use xlink:href="#CMR17-30" transform="translate(91.380954 0) scale(0.996264)"/>
       <use xlink:href="#CMR17-30" transform="translate(137.071431 0) scale(0.996264)"/>
      </g>
     </g>
    </g>
    <g id="xtick_4">
     <g id="line2d_4">
      <g>
       <use xlink:href="#m7c36661a8f" x="222.723939" y="228.96" style="stroke: #000000; stroke-width: 0.8"/>
      </g>
     </g>
     <g id="text_4">
      <!-- $\mathdefault{1500}$ -->
      <g transform="translate(212.761269 243.05832) scale(0.1 -0.1)">
       <use xlink:href="#CMR17-31" transform="scale(0.996264)"/>
       <use xlink:href="#CMR17-35" transform="translate(45.690477 0) scale(0.996264)"/>
       <use xlink:href="#CMR17-30" transform="translate(91.380954 0) scale(0.996264)"/>
       <use xlink:href="#CMR17-30" transform="translate(137.071431 0) scale(0.996264)"/>
      </g>
     </g>
    </g>
    <g id="xtick_5">
     <g id="line2d_5">
      <g>
       <use xlink:href="#m7c36661a8f" x="278.509063" y="228.96" style="stroke: #000000; stroke-width: 0.8"/>
      </g>
     </g>
     <g id="text_5">
      <!-- $\mathdefault{2000}$ -->
      <g transform="translate(268.546393 243.05832) scale(0.1 -0.1)">
       <defs>
        <path id="CMR17-32" d="M 2669 990 
L 2554 990 
C 2490 537 2438 460 2413 422 
C 2381 371 1920 371 1830 371 
L 602 371 
C 832 620 1280 1073 1824 1596 
C 2214 1966 2669 2400 2669 3033 
C 2669 3788 2067 4224 1395 4224 
C 691 4224 262 3603 262 3027 
C 262 2777 448 2745 525 2745 
C 589 2745 781 2783 781 3007 
C 781 3206 614 3264 525 3264 
C 486 3264 448 3257 422 3244 
C 544 3788 915 4057 1306 4057 
C 1862 4057 2227 3616 2227 3033 
C 2227 2477 1901 1998 1536 1583 
L 262 147 
L 262 0 
L 2515 0 
L 2669 990 
z
" transform="scale(0.015625)"/>
       </defs>
       <use xlink:href="#CMR17-32" transform="scale(0.996264)"/>
       <use xlink:href="#CMR17-30" transform="translate(45.690477 0) scale(0.996264)"/>
       <use xlink:href="#CMR17-30" transform="translate(91.380954 0) scale(0.996264)"/>
       <use xlink:href="#CMR17-30" transform="translate(137.071431 0) scale(0.996264)"/>
      </g>
     </g>
    </g>
    <g id="xtick_6">
     <g id="line2d_6">
      <g>
       <use xlink:href="#m7c36661a8f" x="334.294187" y="228.96" style="stroke: #000000; stroke-width: 0.8"/>
      </g>
     </g>
     <g id="text_6">
      <!-- $\mathdefault{2500}$ -->
      <g transform="translate(324.331517 243.05832) scale(0.1 -0.1)">
       <use xlink:href="#CMR17-32" transform="scale(0.996264)"/>
       <use xlink:href="#CMR17-35" transform="translate(45.690477 0) scale(0.996264)"/>
       <use xlink:href="#CMR17-30" transform="translate(91.380954 0) scale(0.996264)"/>
       <use xlink:href="#CMR17-30" transform="translate(137.071431 0) scale(0.996264)"/>
      </g>
     </g>
    </g>
    <g id="text_7">
     <!-- Iteration -->
     <g transform="translate(189.603009 256.278627) scale(0.1 -0.1)">
      <defs>
       <path id="NimbusSanL-Regu-49" d="M 1242 4672 
L 640 4672 
L 640 0 
L 1242 0 
L 1242 4672 
z
" transform="scale(0.015625)"/>
       <path id="NimbusSanL-Regu-74" d="M 1626 3328 
L 1075 3328 
L 1075 4249 
L 544 4249 
L 544 3328 
L 90 3328 
L 90 2892 
L 544 2892 
L 544 402 
C 544 64 774 -128 1190 -128 
C 1318 -128 1446 -116 1626 -84 
L 1626 364 
C 1555 345 1472 339 1370 339 
C 1139 339 1075 402 1075 634 
L 1075 2892 
L 1626 2892 
L 1626 3328 
z
" transform="scale(0.015625)"/>
       <path id="NimbusSanL-Regu-65" d="M 3283 1484 
C 3283 1998 3245 2311 3149 2565 
C 2931 3123 2419 3456 1792 3456 
C 858 3456 256 2734 256 1619 
C 256 545 838 -128 1779 -128 
C 2547 -128 3078 307 3213 1018 
L 2675 1018 
C 2528 588 2227 364 1798 364 
C 1459 364 1171 514 992 787 
C 864 974 819 1161 813 1484 
L 3283 1484 
z
M 826 1920 
C 870 2552 1248 2963 1786 2963 
C 2310 2963 2714 2519 2714 1959 
C 2714 1946 2714 1933 2707 1920 
L 826 1920 
z
" transform="scale(0.015625)"/>
       <path id="NimbusSanL-Regu-72" d="M 442 3328 
L 442 0 
L 979 0 
L 979 1727 
C 979 2203 1101 2514 1357 2698 
C 1523 2819 1683 2857 2054 2863 
L 2054 3404 
C 1965 3449 1920 3456 1850 3456 
C 1504 3456 1242 3251 934 2750 
L 934 3328 
L 442 3328 
z
" transform="scale(0.015625)"/>
       <path id="NimbusSanL-Regu-61" d="M 3424 332 
C 3366 320 3341 320 3309 320 
C 3123 320 3021 415 3021 581 
L 3021 2542 
C 3021 3135 2586 3456 1760 3456 
C 1274 3456 870 3315 646 3065 
C 493 2893 429 2702 416 2370 
L 954 2370 
C 998 2778 1242 2963 1741 2963 
C 2221 2963 2490 2784 2490 2466 
L 2490 2326 
C 2490 2103 2355 2007 1933 1956 
C 1178 1861 1062 1835 858 1753 
C 467 1593 269 1294 269 861 
C 269 256 691 -128 1370 -128 
C 1792 -128 2131 19 2509 364 
C 2547 25 2714 -128 3059 -128 
C 3168 -128 3251 -116 3424 -71 
L 3424 332 
z
M 2490 1071 
C 2490 893 2438 785 2278 638 
C 2061 441 1798 339 1485 339 
C 1069 339 826 536 826 874 
C 826 1224 1062 1402 1632 1485 
C 2195 1562 2310 1587 2490 1670 
L 2490 1071 
z
" transform="scale(0.015625)"/>
       <path id="NimbusSanL-Regu-69" d="M 960 3358 
L 429 3358 
L 429 0 
L 960 0 
L 960 3358 
z
M 960 4672 
L 422 4672 
L 422 3999 
L 960 3999 
L 960 4672 
z
" transform="scale(0.015625)"/>
       <path id="NimbusSanL-Regu-6f" d="M 1741 3456 
C 800 3456 230 2784 230 1663 
C 230 543 794 -128 1747 -128 
C 2688 -128 3264 543 3264 1638 
C 3264 2791 2707 3456 1741 3456 
z
M 1747 2963 
C 2349 2963 2707 2472 2707 1644 
C 2707 861 2336 364 1747 364 
C 1152 364 787 855 787 1663 
C 787 2466 1152 2963 1747 2963 
z
" transform="scale(0.015625)"/>
       <path id="NimbusSanL-Regu-6e" d="M 448 3328 
L 448 0 
L 986 0 
L 986 1835 
C 986 2539 1344 2988 1894 2988 
C 2317 2988 2586 2732 2586 2328 
L 2586 0 
L 3117 0 
L 3117 2539 
C 3117 3097 2701 3456 2054 3456 
C 1555 3456 1235 3263 941 2796 
L 941 3328 
L 448 3328 
z
" transform="scale(0.015625)"/>
      </defs>
      <use xlink:href="#NimbusSanL-Regu-49" transform="scale(0.996264)"/>
      <use xlink:href="#NimbusSanL-Regu-74" transform="translate(27.69517 0) scale(0.996264)"/>
      <use xlink:href="#NimbusSanL-Regu-65" transform="translate(55.390339 0) scale(0.996264)"/>
      <use xlink:href="#NimbusSanL-Regu-72" transform="translate(110.782016 0) scale(0.996264)"/>
      <use xlink:href="#NimbusSanL-Regu-61" transform="translate(142.961149 0) scale(0.996264)"/>
      <use xlink:href="#NimbusSanL-Regu-74" transform="translate(198.352826 0) scale(0.996264)"/>
      <use xlink:href="#NimbusSanL-Regu-69" transform="translate(226.047996 0) scale(0.996264)"/>
      <use xlink:href="#NimbusSanL-Regu-6f" transform="translate(248.16478 0) scale(0.996264)"/>
      <use xlink:href="#NimbusSanL-Regu-6e" transform="translate(303.556457 0) scale(0.996264)"/>
     </g>
    </g>
   </g>
   <g id="matplotlib.axis_2">
    <g id="ytick_1">
     <g id="line2d_7">
      <defs>
       <path id="md2fe64c39c" d="M 0 0 
L -3.5 0 
" style="stroke: #000000; stroke-width: 0.8"/>
      </defs>
      <g>
       <use xlink:href="#md2fe64c39c" x="40.150386" y="197.217372" style="stroke: #000000; stroke-width: 0.8"/>
      </g>
     </g>
     <g id="text_8">
      <!-- $\mathdefault{−6}$ -->
      <g transform="translate(20.420307 200.766532) scale(0.1 -0.1)">
       <defs>
        <path id="CMSY10-0" d="M 4218 1472 
C 4326 1472 4442 1472 4442 1600 
C 4442 1728 4326 1728 4218 1728 
L 755 1728 
C 646 1728 531 1728 531 1600 
C 531 1472 646 1472 755 1472 
L 4218 1472 
z
" transform="scale(0.015625)"/>
        <path id="CMR17-36" d="M 678 2198 
C 678 3712 1395 4076 1811 4076 
C 1946 4076 2272 4049 2400 3782 
C 2298 3782 2106 3782 2106 3558 
C 2106 3385 2246 3328 2336 3328 
C 2394 3328 2566 3353 2566 3571 
C 2566 3987 2246 4224 1805 4224 
C 1043 4224 243 3411 243 2011 
C 243 257 966 -128 1478 -128 
C 2099 -128 2688 431 2688 1295 
C 2688 2101 2170 2688 1517 2688 
C 1126 2688 838 2430 678 1979 
L 678 2198 
z
M 1478 25 
C 691 25 691 1212 691 1450 
C 691 1914 909 2585 1504 2585 
C 1613 2585 1926 2585 2138 2140 
C 2253 1889 2253 1624 2253 1302 
C 2253 954 2253 696 2118 438 
C 1978 173 1773 25 1478 25 
z
" transform="scale(0.015625)"/>
       </defs>
       <use xlink:href="#CMSY10-0" transform="scale(0.996264)"/>
       <use xlink:href="#CMR17-36" transform="translate(77.487468 0) scale(0.996264)"/>
      </g>
     </g>
    </g>
    <g id="ytick_2">
     <g id="line2d_8">
      <g>
       <use xlink:href="#md2fe64c39c" x="40.150386" y="154.43395" style="stroke: #000000; stroke-width: 0.8"/>
      </g>
     </g>
     <g id="text_9">
      <!-- $\mathdefault{−4}$ -->
      <g transform="translate(20.420307 157.98311) scale(0.1 -0.1)">
       <defs>
        <path id="CMR17-34" d="M 2150 4147 
C 2150 4281 2144 4288 2029 4288 
L 128 1254 
L 128 1088 
L 1779 1088 
L 1779 460 
C 1779 230 1766 166 1318 166 
L 1197 166 
L 1197 0 
C 1402 12 1747 12 1965 12 
C 2182 12 2528 12 2733 0 
L 2733 166 
L 2611 166 
C 2163 166 2150 230 2150 460 
L 2150 1088 
L 2803 1088 
L 2803 1254 
L 2150 1254 
L 2150 4147 
z
M 1798 3723 
L 1798 1254 
L 256 1254 
L 1798 3723 
z
" transform="scale(0.015625)"/>
       </defs>
       <use xlink:href="#CMSY10-0" transform="scale(0.996264)"/>
       <use xlink:href="#CMR17-34" transform="translate(77.487468 0) scale(0.996264)"/>
      </g>
     </g>
    </g>
    <g id="ytick_3">
     <g id="line2d_9">
      <g>
       <use xlink:href="#md2fe64c39c" x="40.150386" y="111.650527" style="stroke: #000000; stroke-width: 0.8"/>
      </g>
     </g>
     <g id="text_10">
      <!-- $\mathdefault{−2}$ -->
      <g transform="translate(20.420307 115.199688) scale(0.1 -0.1)">
       <use xlink:href="#CMSY10-0" transform="scale(0.996264)"/>
       <use xlink:href="#CMR17-32" transform="translate(77.487468 0) scale(0.996264)"/>
      </g>
     </g>
    </g>
    <g id="ytick_4">
     <g id="line2d_10">
      <g>
       <use xlink:href="#md2fe64c39c" x="40.150386" y="68.867105" style="stroke: #000000; stroke-width: 0.8"/>
      </g>
     </g>
     <g id="text_11">
      <!-- $\mathdefault{0}$ -->
      <g transform="translate(28.16905 72.416266) scale(0.1 -0.1)">
       <use xlink:href="#CMR17-30" transform="scale(0.996264)"/>
      </g>
     </g>
    </g>
    <g id="ytick_5">
     <g id="line2d_11">
      <g>
       <use xlink:href="#md2fe64c39c" x="40.150386" y="26.083683" style="stroke: #000000; stroke-width: 0.8"/>
      </g>
     </g>
     <g id="text_12">
      <!-- $\mathdefault{2}$ -->
      <g transform="translate(28.16905 29.632844) scale(0.1 -0.1)">
       <use xlink:href="#CMR17-32" transform="scale(0.996264)"/>
      </g>
     </g>
    </g>
    <g id="text_13">
     <!-- RMS residual - Blade_0 -->
     <g transform="translate(14.29832 169.700806) rotate(-90) scale(0.1 -0.1)">
      <defs>
       <path id="NimbusSanL-Regu-52" d="M 1190 2035 
L 2726 2035 
C 3258 2035 3494 1775 3494 1191 
L 3488 770 
C 3488 478 3539 192 3622 0 
L 4346 0 
L 4346 147 
C 4122 303 4077 471 4064 1101 
C 4058 1879 3936 2111 3430 2329 
C 3955 2585 4166 2907 4166 3432 
C 4166 4230 3661 4672 2746 4672 
L 595 4672 
L 595 0 
L 1190 0 
L 1190 2035 
z
M 1190 2560 
L 1190 4147 
L 2630 4147 
C 2963 4147 3155 4096 3302 3970 
C 3462 3837 3546 3628 3546 3350 
C 3546 2806 3264 2560 2630 2560 
L 1190 2560 
z
" transform="scale(0.015625)"/>
       <path id="NimbusSanL-Regu-4d" d="M 2995 0 
L 4307 3915 
L 4307 0 
L 4870 0 
L 4870 4672 
L 4045 4672 
L 2688 602 
L 1306 4672 
L 480 4672 
L 480 0 
L 1043 0 
L 1043 3915 
L 2368 0 
L 2995 0 
z
" transform="scale(0.015625)"/>
       <path id="NimbusSanL-Regu-53" d="M 3814 3295 
C 3808 4204 3181 4736 2106 4736 
C 1082 4736 448 4211 448 3372 
C 448 2806 749 2450 1363 2291 
L 2522 1986 
C 3110 1833 3379 1598 3379 1236 
C 3379 988 3245 733 3046 593 
C 2861 466 2566 396 2189 396 
C 1683 396 1338 517 1114 784 
C 941 988 864 1210 870 1496 
L 307 1496 
C 314 1070 397 790 582 536 
C 902 102 1440 -128 2150 -128 
C 2707 -128 3162 0 3462 230 
C 3776 479 3974 892 3974 1293 
C 3974 1865 3616 2284 2982 2456 
L 1811 2768 
C 1248 2920 1043 3098 1043 3454 
C 1043 3925 1459 4236 2086 4236 
C 2829 4236 3245 3899 3251 3295 
L 3814 3295 
z
" transform="scale(0.015625)"/>
       <path id="NimbusSanL-Regu-73" d="M 2803 2428 
C 2797 3084 2362 3456 1587 3456 
C 806 3456 301 3052 301 2434 
C 301 1912 570 1663 1363 1472 
L 1862 1351 
C 2234 1262 2381 1129 2381 887 
C 2381 574 2067 364 1600 364 
C 1312 364 1069 447 934 587 
C 851 683 813 778 781 1014 
L 218 1014 
C 243 243 678 -128 1555 -128 
C 2400 -128 2938 288 2938 931 
C 2938 1428 2656 1702 1990 1861 
L 1478 1982 
C 1043 2084 858 2224 858 2459 
C 858 2765 1133 2963 1568 2963 
C 1997 2963 2227 2778 2240 2428 
L 2803 2428 
z
" transform="scale(0.015625)"/>
       <path id="NimbusSanL-Regu-64" d="M 3168 4672 
L 2637 4672 
L 2637 2937 
C 2413 3276 2054 3456 1606 3456 
C 736 3456 166 2759 166 1695 
C 166 568 723 -128 1626 -128 
C 2086 -128 2406 44 2694 460 
L 2694 19 
L 3168 19 
L 3168 4672 
z
M 1696 2956 
C 2272 2956 2637 2447 2637 1651 
C 2637 880 2266 371 1702 371 
C 1114 371 723 887 723 1663 
C 723 2440 1114 2956 1696 2956 
z
" transform="scale(0.015625)"/>
       <path id="NimbusSanL-Regu-75" d="M 3085 19 
L 3085 3328 
L 2554 3328 
L 2554 1454 
C 2554 780 2195 339 1638 339 
C 1216 339 947 591 947 988 
L 947 3328 
L 416 3328 
L 416 780 
C 416 230 832 -128 1485 -128 
C 1978 -128 2291 44 2605 484 
L 2605 19 
L 3085 19 
z
" transform="scale(0.015625)"/>
       <path id="NimbusSanL-Regu-6c" d="M 973 4672 
L 435 4672 
L 435 0 
L 973 0 
L 973 4672 
z
" transform="scale(0.015625)"/>
       <path id="NimbusSanL-Regu-2d" d="M 1818 1996 
L 294 1996 
L 294 1536 
L 1818 1536 
L 1818 1996 
z
" transform="scale(0.015625)"/>
       <path id="NimbusSanL-Regu-42" d="M 506 0 
L 2611 0 
C 3053 0 3379 121 3629 390 
C 3859 632 3987 961 3987 1321 
C 3987 1878 3731 2214 3136 2444 
C 3558 2643 3782 2994 3782 3476 
C 3782 3821 3654 4127 3411 4345 
C 3168 4569 2848 4672 2400 4672 
L 506 4672 
L 506 0 
z
M 1101 2636 
L 1101 4147 
L 2253 4147 
C 2586 4147 2771 4101 2931 3977 
C 3098 3847 3187 3652 3187 3391 
C 3187 3138 3098 2936 2931 2806 
C 2771 2682 2586 2636 2253 2636 
L 1101 2636 
z
M 1101 524 
L 1101 2112 
L 2554 2112 
C 2842 2112 3034 2042 3174 1890 
C 3315 1745 3392 1542 3392 1315 
C 3392 1093 3315 891 3174 746 
C 3034 594 2842 524 2554 524 
L 1101 524 
z
" transform="scale(0.015625)"/>
       <path id="NimbusSanL-Regu-30" d="M 1760 4544 
C 1338 4544 954 4358 717 4044 
C 422 3649 275 3043 275 2207 
C 275 683 787 -128 1760 -128 
C 2720 -128 3245 683 3245 2169 
C 3245 3049 3104 3636 2803 4044 
C 2566 4364 2189 4544 1760 4544 
z
M 1760 4044 
C 2368 4044 2669 3432 2669 2220 
C 2669 938 2374 339 1747 339 
C 1152 339 851 964 851 2201 
C 851 3438 1152 4044 1760 4044 
z
" transform="scale(0.015625)"/>
      </defs>
      <use xlink:href="#NimbusSanL-Regu-52" transform="scale(0.996264)"/>
      <use xlink:href="#NimbusSanL-Regu-4d" transform="translate(71.929985 0) scale(0.996264)"/>
      <use xlink:href="#NimbusSanL-Regu-53" transform="translate(154.918415 0) scale(0.996264)"/>
      <use xlink:href="#NimbusSanL-Regu-72" transform="translate(249.063616 0) scale(0.996264)"/>
      <use xlink:href="#NimbusSanL-Regu-65" transform="translate(282.238846 0) scale(0.996264)"/>
      <use xlink:href="#NimbusSanL-Regu-73" transform="translate(337.630523 0) scale(0.996264)"/>
      <use xlink:href="#NimbusSanL-Regu-69" transform="translate(387.443723 0) scale(0.996264)"/>
      <use xlink:href="#NimbusSanL-Regu-64" transform="translate(409.560507 0) scale(0.996264)"/>
      <use xlink:href="#NimbusSanL-Regu-75" transform="translate(464.952184 0) scale(0.996264)"/>
      <use xlink:href="#NimbusSanL-Regu-61" transform="translate(520.343861 0) scale(0.996264)"/>
      <use xlink:href="#NimbusSanL-Regu-6c" transform="translate(575.735538 0) scale(0.996264)"/>
      <use xlink:href="#NimbusSanL-Regu-2d" transform="translate(625.547492 0) scale(0.996264)"/>
      <use xlink:href="#NimbusSanL-Regu-42" transform="translate(686.417892 0) scale(0.996264)"/>
      <use xlink:href="#NimbusSanL-Regu-6c" transform="translate(752.867923 0) scale(0.996264)"/>
      <use xlink:href="#NimbusSanL-Regu-61" transform="translate(774.984707 0) scale(0.996264)"/>
      <use xlink:href="#NimbusSanL-Regu-64" transform="translate(830.376384 0) scale(0.996264)"/>
      <use xlink:href="#NimbusSanL-Regu-65" transform="translate(885.768061 0) scale(0.996264)"/>
      <use xlink:href="#NimbusSanL-Regu-30" transform="translate(977.025303 0) scale(0.996264)"/>
      <path d="M 947.137079 0 
L 977.025303 0 
L 977.025303 0.3985 
L 947.137079 0.3985 
L 947.137079 0 
z
"/>
     </g>
    </g>
   </g>
   <g id="line2d_12">
    <path d="M 55.368567 135.437736 
L 55.703278 144.405134 
L 55.926419 147.709432 
L 56.149559 149.103711 
L 56.261129 149.187899 
L 56.48427 148.679495 
L 56.70741 148.501435 
L 56.930551 147.668528 
L 57.153691 146.642596 
L 57.265262 146.520786 
L 58.157824 149.155272 
L 58.269394 149.05105 
L 58.492534 147.703396 
L 59.161956 141.47837 
L 59.273526 141.297282 
L 60.054518 145.115311 
L 60.277658 146.88643 
L 60.500799 148.543299 
L 60.612369 148.572557 
L 60.83551 148.030934 
L 61.05865 148.411468 
L 61.504931 149.410674 
L 61.728072 149.476879 
L 61.951212 149.322016 
L 62.174353 148.755696 
L 62.285923 148.328595 
L 62.620634 148.788311 
L 62.955344 149.232927 
L 63.178485 149.212075 
L 63.513196 148.792487 
L 63.736336 148.180916 
L 63.847906 147.657885 
L 64.182617 147.880884 
L 64.517328 148.205926 
L 64.852039 148.145563 
L 65.186749 147.982572 
L 65.40989 147.516531 
L 65.52146 147.589532 
L 65.744601 147.940154 
L 66.079311 148.625905 
L 66.302452 148.665242 
L 66.525592 148.568047 
L 66.748733 147.870293 
L 67.083443 146.213724 
L 67.418154 147.298615 
L 67.752865 148.106187 
L 67.976005 148.273862 
L 68.087576 148.226413 
L 68.310716 147.498462 
L 68.645427 145.411837 
L 69.426419 149.321988 
L 69.649559 150.043966 
L 69.98427 149.63785 
L 70.09584 149.236669 
L 70.318981 149.398185 
L 70.542121 150.137473 
L 70.876832 151.656656 
L 70.988402 151.616965 
L 71.211543 151.099568 
L 71.546253 149.007444 
L 71.657824 148.271519 
L 71.880964 148.554682 
L 72.104105 149.357487 
L 72.438815 150.465452 
L 72.661956 150.434187 
L 72.885096 150.092112 
L 73.331377 148.377912 
L 73.442948 148.589117 
L 73.777658 150.095871 
L 74.000799 150.786084 
L 74.33551 151.20267 
L 74.44708 151.087256 
L 74.67022 150.123323 
L 74.781791 149.263214 
L 75.004931 149.735971 
L 75.339642 150.760664 
L 75.562782 150.496693 
L 75.785923 150.197739 
L 76.009063 149.321793 
L 76.566915 146.132838 
L 76.678485 146.232835 
L 76.901625 147.35016 
L 77.236336 149.614908 
L 77.459477 149.066656 
L 77.682617 149.874352 
L 77.905758 150.399652 
L 78.017328 150.275659 
L 78.128898 150.368004 
L 79.13303 153.842485 
L 79.467741 154.05998 
L 79.802452 154.57951 
L 79.914022 154.508766 
L 80.137162 154.122137 
L 80.248733 154.149771 
L 80.471873 154.693962 
L 80.806584 155.612358 
L 81.141295 155.686231 
L 81.252865 155.704727 
L 81.364435 155.544218 
L 81.699146 154.780848 
L 81.922286 155.195672 
L 82.480138 156.246547 
L 83.149559 157.002413 
L 83.3727 157.560727 
L 83.930551 159.361703 
L 84.153691 159.586557 
L 84.265262 159.421564 
L 84.599972 158.129855 
L 84.823113 158.29612 
L 85.046253 158.922548 
L 85.380964 160.216891 
L 85.604105 160.478919 
L 85.715675 160.49496 
L 85.938815 159.903444 
L 86.050386 159.43966 
L 86.385096 159.858544 
L 87.054518 161.244654 
L 87.166088 161.226304 
L 87.389229 160.754068 
L 87.612369 159.967153 
L 87.83551 160.190629 
L 88.616501 161.368549 
L 88.728072 161.294918 
L 88.951212 160.688074 
L 89.174353 160.062714 
L 89.397493 160.026998 
L 89.620634 160.257676 
L 89.955344 161.108518 
L 90.290055 161.670057 
L 90.513196 161.666393 
L 91.182617 161.077071 
L 91.405758 161.452004 
L 91.852039 162.614179 
L 92.075179 162.520209 
L 92.40989 162.047858 
L 92.744601 161.413779 
L 92.856171 161.321631 
L 93.190882 162.162346 
L 93.525592 162.992611 
L 93.748733 163.180592 
L 93.971873 163.105232 
L 94.306584 162.633188 
L 95.199146 163.892664 
L 95.422286 163.873656 
L 95.645427 163.491568 
L 95.756997 163.184175 
L 96.091708 163.468985 
L 96.761129 164.317295 
L 96.98427 163.996973 
L 97.318981 163.430079 
L 97.653691 163.891015 
L 98.211543 165.103958 
L 98.546253 164.79514 
L 98.769394 164.376074 
L 98.880964 163.987044 
L 99.104105 164.196879 
L 99.773526 165.505589 
L 99.996667 165.333411 
L 100.219807 164.902442 
L 100.554518 164.147656 
L 100.777658 164.262331 
L 101.44708 165.870159 
L 102.004931 165.802692 
L 102.228072 165.377377 
L 102.339642 165.039475 
L 103.120634 166.345365 
L 103.566915 166.370198 
L 103.790055 165.951971 
L 104.682617 166.961102 
L 105.017328 166.947853 
L 105.240468 166.603254 
L 105.352039 166.294843 
L 105.686749 166.787242 
L 106.13303 167.484303 
L 106.356171 167.554568 
L 106.579311 167.400102 
L 106.914022 166.667135 
L 107.025592 166.838164 
L 107.806584 168.38952 
L 108.029724 168.351139 
L 108.476005 167.717207 
L 108.587576 167.807092 
L 109.145427 168.606086 
L 109.480138 168.558224 
L 109.926419 168.316376 
L 110.70741 167.758249 
L 111.042121 167.713338 
L 111.934683 169.127927 
L 112.157824 169.102472 
L 112.492534 168.311738 
L 112.604105 168.026348 
L 112.938815 168.844964 
L 113.273526 169.634216 
L 113.608237 169.804967 
L 113.831377 169.596743 
L 114.166088 169.02934 
L 114.389229 169.054484 
L 115.393361 171.373414 
L 115.504931 171.34812 
L 115.728072 170.892905 
L 115.839642 170.553389 
L 116.174353 171.272679 
L 116.620634 172.283893 
L 116.843774 172.327353 
L 117.066915 172.129322 
L 117.401625 171.301805 
L 117.513196 171.447656 
L 118.294187 172.820704 
L 118.517328 172.761526 
L 118.740468 172.368456 
L 119.075179 171.718202 
L 119.40989 172.022684 
L 119.967741 173.207218 
L 120.302452 173.346167 
L 120.525592 173.018921 
L 120.748733 172.372791 
L 121.083443 172.806837 
L 121.529724 173.424575 
L 121.752865 173.489101 
L 121.976005 173.306023 
L 122.310716 172.384817 
L 122.422286 172.502687 
L 123.203278 173.59481 
L 123.426419 173.549792 
L 123.649559 173.065386 
L 123.8727 172.403963 
L 124.09584 172.269428 
L 125.099972 174.100736 
L 125.211543 174.037069 
L 125.546253 173.150186 
L 125.657824 173.264077 
L 126.104105 174.106659 
L 126.438815 174.530637 
L 126.661956 174.618708 
L 126.885096 174.262938 
L 127.108237 173.831348 
L 127.331377 173.850444 
L 128.33551 175.48136 
L 128.44708 175.470013 
L 128.67022 175.072216 
L 128.781791 174.673266 
L 129.116501 174.905839 
L 129.785923 175.712626 
L 130.009063 175.525151 
L 130.232204 174.850163 
L 130.343774 174.348114 
L 130.566915 174.523905 
L 131.347906 175.684119 
L 131.459477 175.63695 
L 131.682617 175.091913 
L 131.794187 174.640428 
L 132.128898 174.939923 
L 132.79832 175.813123 
L 132.90989 175.829304 
L 133.02146 175.722081 
L 133.356171 174.720793 
L 133.467741 174.853038 
L 134.360303 176.249594 
L 134.471873 176.258288 
L 134.695014 175.833894 
L 134.918154 175.112632 
L 135.252865 175.817345 
L 135.587576 176.48788 
L 135.922286 176.720496 
L 136.033857 176.691684 
L 136.256997 176.249245 
L 136.368567 175.897604 
L 136.703278 176.391227 
L 137.037989 176.875129 
L 137.3727 177.006702 
L 137.59584 176.817531 
L 137.930551 175.890357 
L 138.042121 176.034833 
L 138.711543 177.013603 
L 138.934683 177.076786 
L 139.157824 176.786164 
L 139.604105 175.678566 
L 139.715675 175.554933 
L 140.608237 177.224531 
L 140.719807 177.254263 
L 140.831377 177.152703 
L 141.166088 176.099886 
L 141.277658 176.235336 
L 142.17022 177.551733 
L 142.281791 177.544948 
L 142.504931 177.172238 
L 142.728072 176.623431 
L 143.062782 177.345962 
L 143.397493 177.979896 
L 143.843774 178.194502 
L 144.066915 177.793817 
L 144.290055 177.37145 
L 144.513196 177.508579 
L 145.628898 178.809933 
L 145.852039 178.716893 
L 146.186749 177.909462 
L 146.29832 178.012509 
L 146.967741 178.695754 
L 147.302452 178.786915 
L 147.525592 178.492512 
L 147.860303 177.969636 
L 148.195014 178.125433 
L 148.976005 179.185081 
L 149.199146 179.160781 
L 149.645427 178.53875 
L 149.980138 178.939465 
L 150.426419 179.513453 
L 150.649559 179.585888 
L 150.8727 179.328585 
L 151.09584 178.890083 
L 151.430551 179.276143 
L 151.876832 179.936417 
L 152.211543 180.117646 
L 152.434683 179.848481 
L 152.657824 179.457298 
L 152.880964 179.556958 
L 153.438815 180.150187 
L 154.442948 180.679718 
L 155.44708 181.289707 
L 156.004931 182.000114 
L 156.228072 182.083935 
L 156.451212 181.8411 
L 156.674353 181.334352 
L 157.009063 181.658243 
L 157.455344 182.258456 
L 157.790055 182.379632 
L 158.013196 182.103996 
L 158.236336 181.645837 
L 158.571047 181.979062 
L 159.017328 182.490547 
L 159.352039 182.554012 
L 159.575179 182.269866 
L 159.79832 181.928985 
L 160.02146 181.958412 
L 160.579311 182.299337 
L 161.248733 182.342399 
L 161.806584 182.383987 
L 162.476005 183.142159 
L 162.699146 183.188326 
L 162.922286 182.847404 
L 163.145427 182.314382 
L 163.480138 182.753706 
L 163.926419 183.342017 
L 164.261129 183.48851 
L 164.48427 183.114327 
L 164.70741 182.70278 
L 165.711543 184.004638 
L 165.823113 183.996691 
L 166.380964 183.449736 
L 167.050386 183.930215 
L 167.608237 184.017823 
L 168.054518 184.096523 
L 168.166088 183.952234 
L 169.05865 185.401753 
L 169.17022 185.364961 
L 169.393361 184.774452 
L 169.616501 183.942307 
L 169.951212 184.643421 
L 170.397493 185.592156 
L 170.620634 185.818103 
L 170.732204 185.742451 
L 171.178485 184.271836 
L 171.290055 184.525495 
L 171.959477 186.15352 
L 172.182617 186.399988 
L 172.294187 186.319065 
L 172.740468 185.093152 
L 173.29832 185.71654 
L 173.63303 185.760235 
L 174.079311 185.555435 
L 174.637162 185.347048 
L 174.748733 185.082747 
L 175.641295 186.858076 
L 175.752865 186.765526 
L 175.976005 185.894571 
L 176.310716 184.555637 
L 176.533857 184.618995 
L 177.426419 187.380032 
L 177.537989 187.29017 
L 177.98427 185.185979 
L 178.988402 188.023061 
L 179.099972 187.887846 
L 179.434683 186.320527 
L 179.546253 186.442495 
L 180.215675 188.456057 
L 180.661956 188.984798 
L 180.885096 189.2372 
L 180.996667 189.189195 
L 181.442948 188.051286 
L 182.000799 189.154831 
L 182.55865 189.333657 
L 182.781791 188.855247 
L 183.116501 187.966956 
L 183.339642 187.815477 
L 183.674353 188.612852 
L 184.120634 189.624457 
L 184.343774 189.719901 
L 184.566915 189.039927 
L 184.790055 187.974604 
L 185.013196 188.209603 
L 185.347906 189.203706 
L 185.682617 190.012781 
L 185.794187 190.105396 
L 185.905758 189.987865 
L 186.352039 188.164977 
L 186.463609 188.34846 
L 186.79832 189.412622 
L 187.13303 190.456752 
L 187.356171 190.798612 
L 187.467741 190.674446 
L 187.802452 189.159909 
L 187.914022 189.195335 
L 188.025592 189.335678 
L 188.695014 191.17862 
L 189.029724 191.661184 
L 189.141295 191.504886 
L 189.476005 190.516001 
L 190.033857 191.689653 
L 190.591708 191.961377 
L 190.814848 191.503215 
L 191.037989 191.021325 
L 191.48427 190.749571 
L 192.265262 191.906092 
L 192.488402 191.941856 
L 192.711543 191.479962 
L 192.934683 190.62399 
L 193.046253 190.684104 
L 193.269394 190.952226 
L 193.827245 191.906297 
L 193.938815 191.948966 
L 194.050386 191.84145 
L 194.385096 190.759387 
L 194.496667 190.380755 
L 194.719807 190.62942 
L 195.500799 192.269797 
L 195.612369 192.147439 
L 196.05865 190.554398 
L 196.393361 191.273266 
L 196.951212 192.702932 
L 197.062782 192.805255 
L 197.174353 192.67421 
L 197.509063 191.420309 
L 197.843774 192.099326 
L 198.290055 193.074332 
L 198.624766 193.388346 
L 198.847906 192.788557 
L 199.071047 192.312555 
L 199.182617 192.298802 
L 199.740468 193.401074 
L 200.186749 193.842355 
L 200.29832 193.794953 
L 200.63303 192.965359 
L 200.744601 193.108608 
L 201.302452 193.784244 
L 201.637162 193.961154 
L 201.860303 193.775975 
L 202.195014 192.764003 
L 202.306584 192.879712 
L 203.199146 193.943002 
L 203.422286 193.560736 
L 203.756997 192.232299 
L 203.868567 192.365497 
L 204.203278 193.135366 
L 204.537989 193.846618 
L 204.761129 193.976568 
L 204.98427 193.346719 
L 205.318981 192.059419 
L 205.542121 192.018323 
L 206.434683 194.405243 
L 206.546253 194.376141 
L 206.769394 193.487496 
L 206.992534 192.548274 
L 207.996667 195.039726 
L 208.108237 194.97203 
L 208.442948 193.564355 
L 208.554518 193.606424 
L 209.112369 195.103377 
L 209.893361 195.819207 
L 210.339642 195.887267 
L 210.897493 195.726497 
L 211.120634 195.639092 
L 211.232204 195.419391 
L 211.566915 196.064762 
L 212.013196 196.973585 
L 212.124766 197.067176 
L 212.236336 197.009831 
L 212.459477 196.286437 
L 212.682617 195.221388 
L 212.905758 195.511997 
L 213.686749 197.243715 
L 213.79832 197.095231 
L 214.244601 195.146792 
L 214.356171 195.358982 
L 215.248733 197.565429 
L 215.360303 197.386804 
L 215.695014 195.74753 
L 216.029724 196.621207 
L 216.364435 197.559614 
L 216.699146 197.981332 
L 216.810716 197.99039 
L 217.033857 197.244929 
L 217.256997 196.426347 
L 217.926419 198.16355 
L 218.3727 198.451748 
L 218.59584 197.810885 
L 218.818981 197.397357 
L 219.488402 198.144628 
L 219.823113 198.309198 
L 220.269394 198.281443 
L 220.380964 198.155584 
L 220.827245 198.917898 
L 221.273526 199.613808 
L 221.385096 199.617774 
L 221.608237 199.161138 
L 221.831377 198.311545 
L 222.054518 198.451989 
L 222.277658 198.85236 
L 222.723939 199.845728 
L 222.83551 199.942577 
L 222.94708 199.882606 
L 223.17022 199.185987 
L 223.393361 198.394732 
L 223.616501 198.655143 
L 224.397493 200.349139 
L 224.509063 200.278319 
L 224.843774 199.087426 
L 224.955344 199.197838 
L 225.290055 199.789783 
L 225.736336 200.607768 
L 225.959477 200.738872 
L 226.071047 200.601172 
L 226.405758 199.585586 
L 227.40989 200.937283 
L 227.52146 200.9204 
L 227.744601 200.460898 
L 227.967741 199.986038 
L 228.302452 199.992389 
L 228.414022 200.021143 
L 228.525592 199.929785 
L 229.195014 200.948875 
L 229.529724 201.105305 
L 229.752865 200.78109 
L 229.976005 200.050887 
L 230.087576 200.144479 
L 231.091708 201.092655 
L 231.314848 200.594335 
L 231.537989 199.817898 
L 231.8727 200.311811 
L 232.430551 201.263656 
L 232.542121 201.324045 
L 232.653691 201.235766 
L 232.988402 200.058614 
L 233.099972 199.661844 
L 233.434683 200.411846 
L 233.880964 201.335125 
L 234.104105 201.53443 
L 234.215675 201.404482 
L 234.550386 200.074292 
L 234.885096 200.82277 
L 235.219807 201.531267 
L 235.554518 201.82073 
L 235.666088 201.811427 
L 235.889229 201.163301 
L 236.112369 200.41003 
L 236.781791 201.909957 
L 237.228072 202.101583 
L 237.451212 201.497909 
L 237.562782 201.156943 
L 238.343774 202.346555 
L 238.678485 202.419364 
L 238.901625 202.054105 
L 239.124766 201.393297 
L 240.017328 202.56982 
L 240.240468 202.537052 
L 240.463609 202.114599 
L 240.686749 201.382297 
L 241.02146 201.815182 
L 241.579311 202.730366 
L 241.690882 202.756194 
L 241.914022 202.44496 
L 242.360303 201.506343 
L 242.471873 201.483051 
L 242.806584 202.20691 
L 243.252865 203.142662 
L 243.476005 203.331396 
L 243.587576 203.217117 
L 243.922286 202.291897 
L 244.256997 202.874965 
L 244.703278 203.71967 
L 245.037989 204.015126 
L 245.261129 203.514475 
L 245.48427 203.132688 
L 246.042121 203.845492 
L 246.711543 204.021992 
L 247.380964 203.744998 
L 247.604105 203.656207 
L 247.715675 203.473608 
L 248.496667 204.613958 
L 248.719807 204.66408 
L 248.942948 204.281664 
L 249.166088 203.556387 
L 249.500799 204.020188 
L 249.94708 204.694081 
L 250.17022 204.829396 
L 250.281791 204.77958 
L 250.504931 204.302352 
L 250.728072 203.681877 
L 251.062782 204.330058 
L 251.509063 205.121383 
L 251.732204 205.308872 
L 251.843774 205.267436 
L 252.066915 204.67804 
L 252.290055 204.223393 
L 252.959477 205.095836 
L 253.628898 206.079448 
L 253.852039 206.248777 
L 253.963609 206.207175 
L 254.186749 205.702745 
L 254.40989 204.980384 
L 255.190882 206.287388 
L 255.414022 206.42447 
L 255.525592 206.351703 
L 255.748733 205.711911 
L 255.971873 205.045265 
L 256.195014 204.998997 
L 256.976005 205.364956 
L 257.533857 206.236772 
L 257.868567 206.434409 
L 258.091708 206.156245 
L 258.314848 205.491065 
L 258.761129 206.012273 
L 259.20741 206.514995 
L 259.430551 206.539923 
L 259.653691 206.176314 
L 259.876832 205.49818 
L 260.211543 205.987493 
L 260.657824 206.67593 
L 260.880964 206.798497 
L 260.992534 206.720858 
L 261.215675 206.132815 
L 261.438815 205.187303 
L 261.773526 205.911087 
L 262.219807 206.78844 
L 262.442948 206.915249 
L 262.554518 206.740447 
L 262.889229 205.201312 
L 263.000799 205.389048 
L 263.781791 206.987381 
L 263.893361 207.049907 
L 264.004931 206.952719 
L 264.228072 206.020038 
L 264.451212 204.829229 
L 264.897493 206.169139 
L 265.232204 206.824737 
L 265.455344 207.022548 
L 265.566915 206.890376 
L 266.124766 204.895151 
L 266.794187 206.821369 
L 267.128898 207.239559 
L 267.240468 207.114388 
L 267.575179 205.876681 
L 268.356171 207.555777 
L 268.690882 207.737031 
L 268.914022 207.227254 
L 269.137162 206.522364 
L 269.918154 208.064618 
L 270.141295 208.228636 
L 270.252865 208.201424 
L 270.476005 207.738771 
L 270.810716 207.008559 
L 271.033857 206.996795 
L 271.368567 207.010898 
L 272.70741 206.164317 
L 273.153691 206.172058 
L 273.599972 206.423047 
L 274.492534 207.305369 
L 275.496667 208.277323 
L 275.942948 208.445862 
L 276.277658 208.436607 
L 277.281791 210.049352 
L 277.393361 209.9219 
L 277.728072 208.4914 
L 277.839642 207.974097 
L 278.174353 208.640228 
L 278.732204 209.831085 
L 278.843774 209.902056 
L 278.955344 209.753355 
L 279.401625 207.5342 
L 279.513196 207.744157 
L 280.405758 209.748161 
L 280.517328 209.587169 
L 281.075179 207.710049 
L 281.40989 208.020573 
L 282.302452 210.093051 
L 282.414022 210.000153 
L 282.637162 209.408375 
L 282.748733 208.962501 
L 283.083443 209.387004 
L 283.752865 210.697747 
L 283.864435 210.705674 
L 284.087576 210.320226 
L 284.310716 209.631106 
L 284.645427 210.278928 
L 285.091708 211.449759 
L 285.426419 211.758872 
L 285.537989 211.65724 
L 285.761129 210.961852 
L 285.8727 211.063561 
L 286.09584 211.376532 
L 286.653691 212.402056 
L 286.876832 212.511732 
L 286.988402 212.425698 
L 287.546253 211.370794 
L 288.104105 211.568377 
L 288.773526 211.467536 
L 289.442948 211.257782 
L 290.33551 212.579921 
L 290.44708 212.526267 
L 290.67022 211.980762 
L 290.781791 211.522552 
L 291.116501 211.7314 
L 291.897493 212.668272 
L 292.009063 212.594264 
L 292.232204 212.04617 
L 292.343774 211.636601 
L 292.678485 211.899559 
L 293.347906 212.891929 
L 293.571047 212.909908 
L 293.794187 212.373462 
L 293.905758 211.935833 
L 294.240468 212.187954 
L 294.90989 213.057247 
L 295.13303 212.982349 
L 295.467741 212.35413 
L 295.802452 212.535087 
L 296.360303 213.08932 
L 296.583443 212.995381 
L 296.806584 212.408172 
L 296.918154 211.965153 
L 297.252865 212.072323 
L 297.587576 212.597473 
L 297.810716 212.885652 
L 298.033857 212.866042 
L 298.256997 212.401239 
L 298.591708 211.425377 
L 298.926419 211.19543 
L 299.149559 211.405394 
L 299.818981 212.545217 
L 300.042121 212.230588 
L 300.376832 211.377206 
L 300.599972 211.30565 
L 300.823113 211.630632 
L 301.157824 212.467407 
L 301.380964 212.483597 
L 301.604105 211.952967 
L 301.938815 211.037212 
L 302.161956 211.058447 
L 302.385096 211.569993 
L 302.719807 212.568695 
L 302.942948 212.659455 
L 303.166088 212.189677 
L 303.500799 211.153036 
L 303.723939 211.223791 
L 303.94708 211.686364 
L 304.393361 212.973357 
L 304.616501 213.073765 
L 304.839642 212.675801 
L 305.062782 212.282639 
L 305.285923 212.326915 
L 305.509063 212.751079 
L 305.843774 213.582378 
L 306.066915 213.768733 
L 306.178485 213.722825 
L 306.401625 213.195745 
L 306.513196 212.785839 
L 306.847906 212.943136 
L 307.182617 213.749311 
L 307.517328 214.218856 
L 307.628898 214.226003 
L 307.740468 214.120748 
L 308.075179 213.493398 
L 308.29832 213.616356 
L 308.63303 214.180431 
L 308.967741 214.526717 
L 309.190882 214.392222 
L 309.414022 213.740923 
L 309.525592 213.238025 
L 309.860303 213.638805 
L 310.418154 214.54756 
L 310.641295 214.50029 
L 310.864435 213.953887 
L 311.199146 212.756635 
L 311.533857 213.555917 
L 311.868567 214.310695 
L 312.203278 214.528867 
L 312.314848 214.423074 
L 312.537989 213.741207 
L 312.649559 213.244588 
L 312.98427 213.904769 
L 313.318981 214.591143 
L 313.542121 214.746964 
L 313.653691 214.740421 
L 313.876832 214.339503 
L 314.211543 212.815408 
L 314.546253 213.745085 
L 314.880964 214.547076 
L 315.215675 214.744172 
L 315.327245 214.609039 
L 315.550386 213.810709 
L 315.885096 212.593283 
L 316.554518 214.523979 
L 316.889229 214.718405 
L 317.112369 213.95242 
L 317.33551 212.781604 
L 318.116501 214.661591 
L 318.339642 214.766422 
L 318.451212 214.585862 
L 318.785923 212.860271 
L 318.897493 212.276209 
L 319.678485 214.379849 
L 319.901625 214.515369 
L 320.013196 214.281499 
L 320.347906 212.397753 
L 320.459477 212.668821 
L 321.017328 214.114586 
L 321.352039 214.415193 
L 321.463609 214.321211 
L 321.686749 213.365238 
L 321.90989 212.134835 
L 322.690882 214.021614 
L 322.914022 214.206149 
L 323.025592 214.102831 
L 323.248733 213.125232 
L 323.471873 212.294583 
L 323.583443 212.129748 
L 324.141295 213.714134 
L 324.587576 214.096807 
L 324.699146 213.981577 
L 325.033857 212.657584 
L 325.703278 213.973356 
L 326.149559 214.146596 
L 326.261129 214.0033 
L 326.59584 212.864089 
L 327.265262 213.961349 
L 327.711543 214.121285 
L 327.934683 213.64968 
L 328.269394 212.784294 
L 329.161956 213.932912 
L 329.385096 213.921071 
L 329.608237 213.362042 
L 329.719807 212.908503 
L 330.166088 213.171919 
L 330.723939 213.860493 
L 330.83551 213.837707 
L 331.05865 213.385136 
L 331.393361 212.414057 
L 331.616501 212.514793 
L 331.839642 212.967751 
L 332.174353 213.690782 
L 332.397493 213.700792 
L 332.620634 213.116373 
L 332.955344 211.969713 
L 333.178485 212.126024 
L 333.513196 213.199563 
L 333.736336 213.72898 
L 333.847906 213.79296 
L 333.959477 213.721679 
L 334.182617 213.009094 
L 334.405758 212.406183 
L 334.628898 212.478849 
L 334.852039 212.999665 
L 335.186749 214.02871 
L 335.40989 214.176332 
L 335.52146 214.012187 
L 335.744601 213.088265 
L 335.856171 212.468945 
L 336.079311 212.523277 
L 336.302452 212.949015 
L 336.860303 214.648147 
L 336.971873 214.638561 
L 337.195014 213.999409 
L 337.418154 213.410678 
L 337.641295 213.498166 
L 337.864435 213.998189 
L 338.310716 215.212528 
L 338.422286 215.257194 
L 338.533857 215.128143 
L 338.756997 214.213631 
L 338.868567 213.544067 
L 339.091708 213.655228 
L 339.314848 214.082341 
L 339.761129 215.494115 
L 339.98427 215.549252 
L 340.20741 214.830675 
L 340.542121 213.156257 
L 340.765262 213.525293 
L 341.546253 215.560169 
L 341.657824 215.462259 
L 341.880964 214.569267 
L 341.992534 213.819539 
L 342.215675 214.076203 
L 342.550386 214.972368 
L 342.885096 215.732605 
L 342.996667 215.760102 
L 343.108237 215.645912 
L 343.331377 214.777971 
L 343.554518 213.291597 
L 343.777658 213.652652 
L 344.55865 215.592161 
L 344.67022 215.515537 
L 344.893361 214.730575 
L 345.116501 213.331124 
L 345.451212 214.119098 
L 345.897493 215.525526 
L 346.120634 215.693246 
L 346.232204 215.586338 
L 346.455344 214.767956 
L 346.566915 214.157148 
L 346.901625 214.74939 
L 347.459477 216.126772 
L 347.571047 216.169165 
L 347.682617 216.085553 
L 347.905758 215.392285 
L 348.128898 214.175364 
L 348.463609 214.777287 
L 349.02146 216.229203 
L 349.13303 216.271487 
L 349.244601 216.152248 
L 349.467741 215.39524 
L 349.802452 213.950049 
L 350.137162 214.587513 
L 350.695014 216.141252 
L 350.806584 216.126666 
L 351.029724 215.41732 
L 351.252865 214.223151 
L 351.587576 214.596583 
L 351.922286 215.521871 
L 352.256997 216.244001 
L 352.368567 216.043772 
L 352.703278 214.237143 
L 352.814848 213.575942 
L 353.149559 214.067905 
L 353.48427 215.290547 
L 353.70741 216.088643 
L 353.818981 216.184815 
L 353.930551 215.924068 
L 354.488402 213.246982 
L 354.823113 214.036653 
L 355.492534 216.309232 
L 355.715675 215.39428 
L 355.938815 214.181128 
L 356.385096 215.182978 
L 356.942948 217.219077 
L 357.054518 217.211557 
L 357.277658 216.116565 
L 357.500799 215.027167 
L 357.94708 216.457983 
L 358.504931 218.5336 
L 358.616501 218.515946 
L 359.062782 216.676905 
L 359.174353 216.701937 
L 359.732204 218.88 
L 359.732204 218.88 
" clip-path="url(#pf92d874c4f)" style="fill: none; stroke: #1f77b4; stroke-width: 1.5; stroke-linecap: square"/>
   </g>
   <g id="line2d_13">
    <path d="M 55.368567 103.090178 
L 55.480138 90.380815 
L 55.814848 97.559918 
L 56.149559 96.298683 
L 56.261129 96.535856 
L 56.59584 97.756545 
L 56.818981 96.865749 
L 57.265262 93.828207 
L 57.488402 94.386208 
L 58.046253 95.801235 
L 58.157824 95.833975 
L 58.492534 95.267964 
L 59.050386 93.16873 
L 59.161956 93.170427 
L 59.608237 93.894405 
L 60.277658 95.847649 
L 60.83551 95.259248 
L 61.504931 96.43838 
L 61.616501 96.518956 
L 61.728072 96.446825 
L 61.951212 95.77588 
L 62.285923 93.849845 
L 62.397493 94.036914 
L 63.066915 95.149603 
L 63.178485 95.040563 
L 63.736336 93.245826 
L 63.847906 92.644005 
L 64.182617 93.137291 
L 64.628898 93.960432 
L 64.852039 94.006056 
L 65.186749 93.883807 
L 65.40989 93.220144 
L 66.302452 94.750057 
L 66.637162 94.491928 
L 67.083443 93.835832 
L 67.641295 95.043833 
L 67.864435 95.732067 
L 67.976005 95.755419 
L 68.199146 95.104933 
L 68.422286 93.946045 
L 68.645427 91.904466 
L 68.756997 92.078702 
L 69.203278 92.582573 
L 69.314848 92.566081 
L 69.426419 92.330734 
L 69.8727 90.50675 
L 70.09584 91.476839 
L 71.323113 96.038161 
L 71.434683 96.068993 
L 71.657824 95.359376 
L 72.438815 97.084113 
L 72.550386 97.211502 
L 72.773526 96.813772 
L 72.996667 96.544636 
L 73.219807 96.531127 
L 73.331377 96.332147 
L 74.000799 97.445302 
L 74.112369 97.563599 
L 74.223939 97.509607 
L 74.781791 96.558234 
L 75.116501 96.731768 
L 75.339642 96.853307 
L 75.674353 97.171171 
L 76.120634 96.785687 
L 76.455344 96.423648 
L 76.678485 96.562055 
L 76.790055 96.553405 
L 77.124766 96.045095 
L 77.347906 96.987192 
L 77.571047 97.572896 
L 77.794187 97.484618 
L 78.017328 97.859635 
L 78.686749 99.546905 
L 78.90989 99.701942 
L 79.13303 100.13258 
L 79.467741 100.711671 
L 79.914022 100.464998 
L 80.025592 100.382672 
L 80.471873 101.079545 
L 80.695014 101.359822 
L 81.029724 102.040205 
L 81.364435 102.004959 
L 82.033857 102.503654 
L 82.591708 102.348695 
L 83.149559 102.768814 
L 83.59584 103.380903 
L 83.818981 103.502351 
L 83.930551 103.449934 
L 84.153691 102.896407 
L 84.599972 101.495985 
L 85.938815 104.583676 
L 86.273526 105.159903 
L 87.054518 106.997198 
L 87.500799 106.639917 
L 87.612369 106.521331 
L 88.17022 107.110725 
L 88.393361 107.263555 
L 88.728072 107.707632 
L 88.839642 107.679822 
L 89.174353 107.223301 
L 90.401625 109.174126 
L 90.624766 108.894588 
L 90.959477 108.392148 
L 91.071047 108.410743 
L 91.517328 109.505166 
L 91.852039 109.736253 
L 92.29832 110.518047 
L 92.40989 110.52256 
L 92.63303 110.230011 
L 92.967741 109.798074 
L 93.302452 110.053575 
L 93.637162 110.777954 
L 93.860303 111.136899 
L 94.083443 110.956005 
L 94.306584 110.74354 
L 94.864435 111.5938 
L 95.310716 112.259279 
L 95.868567 112.460456 
L 96.761129 113.578637 
L 96.98427 113.867064 
L 97.20741 113.291275 
L 97.318981 112.816493 
L 97.765262 113.346042 
L 97.988402 113.336993 
L 98.211543 113.700067 
L 98.434683 114.233287 
L 98.546253 114.154801 
L 98.880964 113.353827 
L 99.215675 113.809938 
L 99.550386 113.743742 
L 99.996667 114.347089 
L 100.554518 113.544602 
L 101.33551 114.044204 
L 102.004931 114.886285 
L 102.228072 114.701831 
L 102.451212 114.54576 
L 102.785923 114.587237 
L 103.120634 114.949987 
L 103.455344 115.243455 
L 103.678485 114.97389 
L 103.901625 114.644396 
L 104.236336 114.645548 
L 104.459477 114.83082 
L 104.905758 115.396001 
L 105.017328 115.308499 
L 105.352039 114.439609 
L 105.463609 114.531979 
L 106.02146 115.162477 
L 106.467741 115.69039 
L 106.914022 115.302527 
L 107.806584 116.435208 
L 108.029724 116.584284 
L 108.252865 116.4334 
L 108.587576 116.058097 
L 109.368567 115.784936 
L 109.703278 115.496425 
L 110.037989 115.519626 
L 110.3727 115.898474 
L 110.818981 116.881093 
L 111.153691 117.53276 
L 111.599972 118.011255 
L 112.492534 119.222583 
L 112.715675 119.019322 
L 113.050386 118.854453 
L 113.273526 118.98572 
L 113.608237 119.552681 
L 113.831377 119.880126 
L 113.942948 119.836196 
L 114.277658 119.357132 
L 114.612369 119.382157 
L 114.83551 119.554036 
L 115.17022 120.235169 
L 115.616501 121.213312 
L 115.951212 121.251973 
L 116.285923 121.307453 
L 116.509063 121.548963 
L 117.178485 122.671101 
L 117.290055 122.630659 
L 117.513196 122.473042 
L 117.959477 122.503051 
L 118.294187 122.935647 
L 118.517328 123.202181 
L 118.628898 123.118763 
L 118.852039 122.37827 
L 119.29832 120.952022 
L 119.856171 121.17476 
L 120.302452 121.453156 
L 120.525592 121.1797 
L 120.860303 120.680764 
L 121.306584 120.910082 
L 121.976005 121.421159 
L 122.199146 121.241876 
L 122.310716 121.039274 
L 122.756997 121.440369 
L 123.537989 122.451869 
L 123.761129 122.249381 
L 124.09584 122.085802 
L 124.430551 122.430813 
L 125.211543 123.584193 
L 125.434683 123.274877 
L 125.546253 123.002204 
L 125.992534 123.397929 
L 126.550386 124.197715 
L 126.773526 123.808571 
L 127.331377 122.473407 
L 127.666088 122.898898 
L 128.223939 123.828488 
L 128.33551 123.861692 
L 128.55865 123.477756 
L 128.781791 122.643077 
L 129.116501 123.103268 
L 129.674353 123.912976 
L 129.785923 123.928771 
L 130.009063 123.601172 
L 130.343774 122.89538 
L 131.347906 124.46345 
L 131.905758 124.18363 
L 132.79832 125.305684 
L 133.13303 125.189246 
L 133.467741 125.118856 
L 134.471873 125.922096 
L 134.695014 125.723939 
L 134.918154 125.080746 
L 135.029724 125.135844 
L 135.364435 125.361585 
L 135.922286 126.015169 
L 136.145427 125.877982 
L 136.480138 125.394502 
L 136.814848 125.563126 
L 137.59584 126.353392 
L 137.818981 126.082031 
L 137.930551 125.865758 
L 138.488402 126.214922 
L 139.046253 126.83866 
L 139.269394 126.697419 
L 139.604105 126.244816 
L 139.715675 126.131336 
L 140.273526 126.487918 
L 140.608237 126.715417 
L 140.942948 126.624097 
L 141.277658 126.482958 
L 142.281791 126.863378 
L 143.397493 126.980297 
L 143.843774 127.345885 
L 144.178485 127.640022 
L 144.513196 127.63636 
L 144.736336 127.735627 
L 145.071047 127.867164 
L 145.517328 128.499563 
L 145.963609 129.164421 
L 146.52146 129.035105 
L 146.856171 129.274756 
L 147.414022 129.691254 
L 147.637162 129.482685 
L 147.860303 129.323941 
L 148.418154 129.39513 
L 149.310716 129.734714 
L 149.645427 129.618693 
L 150.091708 129.676259 
L 152.211543 129.729645 
L 152.546253 129.961339 
L 153.104105 129.816658 
L 153.773526 130.564144 
L 154.331377 131.297909 
L 155.112369 132.467077 
L 155.67022 132.743474 
L 156.228072 133.042041 
L 156.451212 132.984657 
L 156.897493 132.645977 
L 157.790055 132.589662 
L 158.013196 132.226329 
L 158.236336 131.553646 
L 158.347906 131.603771 
L 159.352039 131.893332 
L 159.686749 131.221457 
L 159.90989 130.959407 
L 160.13303 131.073349 
L 160.914022 132.017059 
L 161.806584 133.643775 
L 162.587576 134.07715 
L 162.922286 134.07301 
L 163.368567 133.843101 
L 164.149559 133.75523 
L 164.48427 133.314617 
L 164.70741 132.671814 
L 164.818981 132.732911 
L 165.376832 133.045707 
L 165.711543 133.114848 
L 165.934683 132.902461 
L 166.380964 132.292243 
L 166.715675 132.563791 
L 167.496667 133.468922 
L 167.942948 133.924104 
L 168.500799 134.086109 
L 169.05865 134.207336 
L 169.393361 134.434614 
L 169.504931 134.322458 
L 169.616501 134.032138 
L 170.062782 134.191801 
L 170.732204 134.244063 
L 170.955344 133.9598 
L 171.178485 133.319955 
L 172.071047 134.197964 
L 172.294187 134.101018 
L 172.740468 133.569043 
L 172.963609 133.763062 
L 173.967741 135.471873 
L 174.637162 136.518258 
L 174.971873 136.605142 
L 175.418154 136.590944 
L 175.976005 137.020799 
L 176.199146 136.397145 
L 176.533857 135.319045 
L 176.868567 135.473939 
L 177.314848 135.607206 
L 177.537989 135.391951 
L 177.98427 134.438062 
L 178.09584 134.537792 
L 178.542121 134.758016 
L 178.876832 134.910692 
L 179.657824 134.617904 
L 180.885096 135.520132 
L 181.554518 136.686405 
L 182.000799 136.714327 
L 182.223939 136.904141 
L 182.44708 137.412378 
L 183.004931 138.977364 
L 183.228072 139.29295 
L 183.562782 139.290747 
L 183.897493 139.116661 
L 184.120634 139.286978 
L 184.566915 139.862294 
L 184.678485 139.78681 
L 184.790055 139.561698 
L 185.013196 139.687986 
L 185.347906 139.439068 
L 185.571047 139.360385 
L 185.794187 139.38155 
L 186.017328 139.14887 
L 186.240468 138.573551 
L 186.352039 138.135321 
L 186.575179 138.248511 
L 187.467741 138.119739 
L 188.025592 137.027355 
L 188.137162 137.121858 
L 188.583443 137.478858 
L 189.029724 137.766058 
L 189.364435 137.675157 
L 189.587576 137.685766 
L 190.033857 137.92284 
L 191.818981 139.407141 
L 192.153691 139.54836 
L 192.823113 140.155727 
L 192.934683 140.027871 
L 193.380964 140.231661 
L 193.715675 140.288218 
L 194.050386 140.427264 
L 194.273526 140.093646 
L 194.496667 139.439979 
L 194.942948 139.792376 
L 195.500799 139.930556 
L 195.723939 139.532893 
L 196.05865 138.564295 
L 196.839642 139.42166 
L 197.062782 139.421794 
L 197.397493 138.770152 
L 197.509063 138.519616 
L 198.513196 139.446793 
L 198.736336 139.280669 
L 199.071047 139.031652 
L 199.294187 139.215658 
L 200.29832 140.235561 
L 200.63303 140.245615 
L 202.083443 141.508615 
L 203.533857 142.119629 
L 203.868567 141.963848 
L 204.203278 142.0488 
L 204.8727 141.934557 
L 205.09584 141.616037 
L 205.542121 140.672157 
L 206.099972 140.934535 
L 206.434683 140.949336 
L 206.769394 140.575206 
L 207.104105 140.207324 
L 207.661956 140.427333 
L 207.996667 140.495826 
L 208.442948 140.205331 
L 208.777658 140.11256 
L 209.223939 140.292638 
L 209.67022 140.761844 
L 210.451212 142.014478 
L 211.120634 143.060244 
L 211.678485 143.395611 
L 212.013196 143.575539 
L 212.459477 143.939195 
L 212.794187 143.758879 
L 213.128898 143.798303 
L 213.463609 143.822895 
L 213.79832 143.852666 
L 214.02146 143.564435 
L 214.244601 143.047009 
L 214.356171 143.121642 
L 215.248733 143.361518 
L 215.583443 142.876114 
L 215.695014 142.65449 
L 216.699146 143.087399 
L 217.033857 142.837273 
L 217.256997 142.595379 
L 218.3727 143.19659 
L 218.930551 143.240638 
L 220.269394 143.982034 
L 220.380964 143.959044 
L 220.938815 144.375643 
L 221.496667 144.691454 
L 221.719807 144.508293 
L 221.831377 144.333087 
L 222.83551 145.010166 
L 223.05865 144.885545 
L 223.393361 144.342198 
L 224.397493 145.220251 
L 224.732204 144.749575 
L 224.843774 144.589901 
L 225.401625 145.122141 
L 225.736336 145.475243 
L 225.959477 145.433209 
L 226.405758 144.965199 
L 227.40989 145.819642 
L 227.967741 145.492673 
L 228.414022 145.677026 
L 228.525592 145.617773 
L 229.195014 146.110836 
L 229.864435 146.232914 
L 229.976005 146.194947 
L 230.533857 146.548594 
L 231.314848 146.584438 
L 231.649559 146.463859 
L 232.09584 146.617243 
L 232.765262 146.550784 
L 232.988402 146.328126 
L 233.099972 146.102397 
L 233.769394 146.341221 
L 234.104105 146.34872 
L 234.438815 146.118233 
L 234.550386 145.940999 
L 235.554518 146.325671 
L 235.889229 146.13215 
L 236.223939 145.872558 
L 236.67022 146.204813 
L 237.004931 146.414491 
L 237.339642 146.266968 
L 237.674353 146.093392 
L 238.678485 146.651537 
L 239.013196 146.41458 
L 239.124766 146.277731 
L 240.017328 146.997158 
L 240.463609 146.857309 
L 240.686749 146.655649 
L 241.356171 147.306123 
L 241.914022 147.309728 
L 242.583443 147.151274 
L 243.141295 147.475496 
L 243.810716 147.61338 
L 243.922286 147.527303 
L 244.591708 147.781481 
L 245.930551 148.240708 
L 247.604105 149.840551 
L 247.827245 149.957458 
L 248.496667 150.402176 
L 249.054518 150.480655 
L 249.166088 150.413219 
L 249.723939 150.63726 
L 250.504931 150.537072 
L 250.839642 150.316824 
L 251.397493 150.388775 
L 251.955344 150.339457 
L 252.178485 150.0668 
L 252.624766 149.490414 
L 252.847906 149.330971 
L 253.852039 149.932183 
L 254.075179 149.694936 
L 254.40989 149.039605 
L 254.52146 149.127941 
L 255.414022 149.88677 
L 255.748733 149.477536 
L 255.971873 149.268939 
L 256.976005 149.590528 
L 257.533857 150.167975 
L 258.091708 150.225899 
L 258.426419 150.345483 
L 258.98427 150.767834 
L 260.099972 150.886412 
L 260.546253 151.030304 
L 260.992534 151.081334 
L 261.215675 151.122407 
L 261.550386 150.95862 
L 262.442948 151.378362 
L 262.666088 151.31082 
L 263.000799 150.984926 
L 263.893361 151.462161 
L 264.116501 151.277091 
L 264.451212 150.57918 
L 264.562782 150.674013 
L 265.009063 151.182543 
L 265.343774 151.482716 
L 265.566915 151.369216 
L 266.124766 150.561788 
L 267.128898 151.593844 
L 267.463609 151.301325 
L 267.575179 151.145171 
L 268.690882 151.914427 
L 268.914022 151.864693 
L 269.248733 151.706693 
L 270.252865 152.135126 
L 270.476005 152.02524 
L 271.033857 151.300413 
L 272.818981 149.670661 
L 273.376832 149.619017 
L 273.934683 149.837113 
L 274.492534 150.302841 
L 277.05865 152.788479 
L 277.393361 152.89987 
L 277.728072 152.649778 
L 277.839642 152.4941 
L 278.843774 153.232523 
L 279.066915 153.015202 
L 279.401625 152.392051 
L 279.513196 152.508842 
L 280.294187 153.247056 
L 280.517328 153.05644 
L 281.075179 152.323371 
L 281.40989 152.418647 
L 281.967741 153.029938 
L 282.414022 153.110731 
L 282.860303 153.02486 
L 283.418154 153.615549 
L 283.976005 153.955983 
L 285.203278 154.892295 
L 285.649559 155.305238 
L 285.8727 155.394783 
L 287.211543 156.263197 
L 288.773526 156.10339 
L 289.442948 155.980628 
L 290.112369 156.532328 
L 290.44708 156.393946 
L 290.781791 156.117744 
L 291.785923 156.807493 
L 292.232204 156.54142 
L 292.343774 156.440762 
L 293.236336 157.171488 
L 293.571047 157.098593 
L 294.017328 156.774966 
L 294.90989 157.553906 
L 295.02146 157.529489 
L 295.244601 157.149874 
L 295.356171 156.868937 
L 296.137162 157.445023 
L 296.471873 157.60274 
L 296.695014 157.160321 
L 296.918154 156.364631 
L 297.476005 156.909149 
L 297.922286 157.202389 
L 298.145427 156.759604 
L 298.591708 155.445621 
L 298.926419 155.316692 
L 299.48427 155.939807 
L 299.70741 155.956548 
L 299.930551 155.655012 
L 300.265262 154.719698 
L 301.157824 155.657244 
L 301.380964 155.547853 
L 301.827245 154.598359 
L 301.938815 154.756594 
L 302.496667 155.475059 
L 302.831377 155.513074 
L 303.054518 155.293119 
L 303.389229 154.90569 
L 303.500799 154.853909 
L 304.05865 155.583798 
L 304.616501 155.733342 
L 304.951212 155.562937 
L 305.620634 156.221474 
L 306.401625 156.339899 
L 306.513196 156.324383 
L 307.071047 156.86331 
L 307.517328 157.065882 
L 307.852039 157.172666 
L 308.075179 157.273251 
L 308.63303 157.637468 
L 308.967741 157.813673 
L 309.302452 157.970305 
L 309.637162 158.006189 
L 310.195014 158.291792 
L 310.864435 158.465338 
L 311.199146 158.273711 
L 312.203278 158.797197 
L 312.426419 158.659571 
L 312.761129 158.391864 
L 313.765262 158.669679 
L 313.988402 158.47218 
L 314.323113 158.164583 
L 315.104105 158.401961 
L 315.327245 158.327393 
L 315.661956 157.83896 
L 315.996667 157.554135 
L 316.554518 157.783948 
L 316.889229 157.688219 
L 317.223939 157.296059 
L 317.33551 157.081487 
L 318.004931 157.337339 
L 318.339642 157.205797 
L 318.674353 156.871036 
L 318.897493 156.494613 
L 319.455344 156.841462 
L 319.790055 156.777617 
L 320.236336 156.403665 
L 320.347906 156.253559 
L 321.017328 156.616213 
L 321.352039 156.490398 
L 322.02146 156.180132 
L 322.579311 156.478845 
L 323.471873 156.245092 
L 323.583443 156.155796 
L 324.141295 156.458534 
L 325.256997 156.670898 
L 325.814848 156.808918 
L 326.149559 156.897631 
L 326.48427 156.968045 
L 326.59584 156.865098 
L 327.265262 157.13562 
L 327.934683 157.317512 
L 328.269394 156.818375 
L 329.385096 157.676899 
L 329.608237 157.250094 
L 329.719807 156.902552 
L 330.94708 157.702408 
L 331.281791 156.674381 
L 331.393361 156.814278 
L 332.285923 158.046612 
L 332.397493 157.993672 
L 332.620634 157.33408 
L 332.843774 156.480956 
L 333.847906 158.209225 
L 333.959477 158.082666 
L 334.294187 156.878174 
L 334.405758 157.034035 
L 335.29832 158.398458 
L 335.40989 158.394993 
L 335.63303 157.828727 
L 335.856171 157.170104 
L 336.860303 158.832763 
L 336.971873 158.799814 
L 337.306584 157.927492 
L 337.418154 158.058578 
L 338.310716 159.141408 
L 338.422286 159.228969 
L 338.533857 159.156889 
L 338.868567 158.493007 
L 339.98427 159.727804 
L 340.20741 159.359328 
L 340.430551 159.105484 
L 340.542121 159.131432 
L 341.099972 159.699932 
L 341.657824 160.101638 
L 341.992534 159.569466 
L 343.219807 160.396004 
L 343.554518 159.813462 
L 344.67022 160.577548 
L 345.116501 159.76555 
L 345.228072 159.852652 
L 346.120634 160.482562 
L 346.232204 160.397588 
L 346.566915 159.683303 
L 347.682617 160.200432 
L 347.905758 159.840447 
L 348.128898 159.429816 
L 348.79832 159.740872 
L 349.244601 159.845285 
L 349.802452 158.934979 
L 350.248733 159.278289 
L 350.806584 159.210776 
L 351.141295 158.710715 
L 351.252865 158.507433 
L 351.810716 158.942593 
L 352.256997 158.819335 
L 352.480138 158.598197 
L 352.814848 158.045972 
L 353.261129 158.544606 
L 353.48427 158.497372 
L 354.599972 157.850812 
L 354.934683 158.085029 
L 355.492534 157.903583 
L 355.827245 158.047328 
L 355.938815 157.992928 
L 356.385096 158.40201 
L 356.608237 158.304996 
L 356.942948 158.171651 
L 357.94708 158.801902 
L 358.393361 158.654154 
L 358.616501 158.945059 
L 358.951212 159.404198 
L 359.732204 159.493195 
L 359.732204 159.493195 
" clip-path="url(#pf92d874c4f)" style="fill: none; stroke: #ff7f0e; stroke-width: 1.5; stroke-linecap: square"/>
   </g>
   <g id="line2d_14">
    <path d="M 55.368567 17.28 
L 55.591708 23.680152 
L 55.926419 29.65042 
L 56.149559 31.186963 
L 56.261129 31.284272 
L 56.59584 30.557528 
L 56.70741 30.376503 
L 56.930551 29.317171 
L 57.153691 28.059219 
L 57.265262 27.988174 
L 58.046253 30.99401 
L 58.157824 31.142097 
L 58.269394 30.992677 
L 58.492534 29.490415 
L 59.161956 22.748146 
L 59.273526 22.45618 
L 59.719807 25.019214 
L 59.942948 26.488335 
L 60.054518 26.735309 
L 60.277658 28.429813 
L 60.500799 30.227279 
L 60.612369 30.312359 
L 60.83551 29.753998 
L 61.17022 30.612359 
L 61.504931 31.334681 
L 61.728072 31.32162 
L 61.951212 31.01144 
L 62.174353 30.246457 
L 62.285923 29.705091 
L 63.066915 30.900191 
L 63.401625 30.376437 
L 63.624766 29.982966 
L 63.847906 29.099978 
L 63.959477 29.181387 
L 64.740468 29.918191 
L 65.186749 29.685552 
L 65.40989 29.217956 
L 65.52146 29.35355 
L 65.856171 30.202453 
L 66.079311 30.742492 
L 66.302452 30.80671 
L 66.525592 30.706136 
L 66.748733 29.990133 
L 67.083443 28.116125 
L 67.418154 29.436089 
L 67.752865 30.475178 
L 67.976005 30.550149 
L 68.087576 30.385418 
L 68.310716 29.405619 
L 68.645427 26.948783 
L 69.537989 31.834992 
L 69.649559 31.78559 
L 69.8727 31.434054 
L 69.98427 31.524739 
L 70.09584 31.30956 
L 70.318981 31.57437 
L 70.542121 32.498094 
L 70.876832 34.622534 
L 70.988402 34.638145 
L 71.211543 33.855003 
L 71.657824 30.101794 
L 71.769394 30.276158 
L 71.992534 31.044169 
L 72.438815 33.109519 
L 72.550386 33.078232 
L 72.773526 32.661791 
L 73.108237 31.292361 
L 73.331377 30.245881 
L 73.554518 31.037876 
L 74.000799 33.405047 
L 74.223939 33.622329 
L 74.33551 33.580346 
L 74.55865 32.85828 
L 74.781791 31.169818 
L 74.893361 31.393118 
L 75.339642 33.269913 
L 75.451212 33.213388 
L 75.897493 32.079845 
L 76.343774 28.848585 
L 76.566915 27.83128 
L 76.678485 27.957748 
L 76.901625 29.294526 
L 77.236336 32.210706 
L 77.459477 31.522197 
L 77.905758 32.669546 
L 78.017328 32.412962 
L 78.128898 32.440447 
L 78.575179 34.378605 
L 79.244601 36.979893 
L 79.579311 37.006732 
L 79.802452 37.055991 
L 79.914022 36.832347 
L 80.137162 36.284427 
L 80.248733 36.321437 
L 80.471873 36.903918 
L 80.806584 37.967058 
L 81.252865 37.969446 
L 81.476005 37.206229 
L 81.699146 36.656464 
L 81.922286 36.970397 
L 83.149559 39.4123 
L 83.48427 40.736586 
L 83.818981 42.047269 
L 84.042121 42.17164 
L 84.153691 42.125777 
L 84.376832 41.484114 
L 84.599972 40.584931 
L 84.823113 40.902815 
L 85.046253 41.688213 
L 85.380964 43.038419 
L 85.715675 43.230537 
L 85.827245 43.082817 
L 86.050386 42.255214 
L 86.385096 42.876491 
L 86.831377 44.200749 
L 86.942948 44.248902 
L 87.166088 43.958838 
L 87.612369 42.718272 
L 87.723939 42.876455 
L 88.504931 44.15406 
L 88.728072 44.083371 
L 88.951212 43.565965 
L 89.174353 42.897085 
L 89.397493 42.791662 
L 89.620634 43.103849 
L 89.955344 44.136973 
L 90.178485 44.699325 
L 90.401625 44.77194 
L 90.624766 44.473284 
L 91.071047 43.586074 
L 91.294187 43.944315 
L 91.852039 45.779089 
L 91.963609 45.694177 
L 92.40989 44.71664 
L 92.744601 43.899727 
L 92.856171 43.736949 
L 93.190882 44.891626 
L 93.525592 46.129305 
L 93.748733 46.373521 
L 93.971873 46.142247 
L 94.306584 45.606175 
L 94.752865 46.974651 
L 95.087576 47.621375 
L 95.310716 47.681269 
L 95.533857 47.366917 
L 95.756997 46.558181 
L 95.868567 46.668387 
L 96.203278 47.206244 
L 96.649559 48.21027 
L 96.761129 48.17335 
L 96.98427 47.612154 
L 97.318981 46.737563 
L 97.653691 47.421366 
L 98.211543 49.247838 
L 98.434683 48.800284 
L 98.880964 47.329752 
L 98.992534 47.444205 
L 99.215675 47.976309 
L 99.661956 49.632611 
L 99.773526 49.57651 
L 100.108237 48.811594 
L 100.554518 47.558574 
L 100.666088 47.583401 
L 100.777658 47.722223 
L 101.55865 50.294499 
L 101.893361 50.30782 
L 102.116501 49.878074 
L 102.339642 49.118885 
L 102.674353 50.407641 
L 103.009063 51.481391 
L 103.343774 51.717553 
L 103.455344 51.684309 
L 103.678485 51.13699 
L 103.790055 50.73144 
L 104.124766 51.595494 
L 104.459477 52.443874 
L 104.794187 52.624936 
L 104.905758 52.56133 
L 105.128898 51.995324 
L 105.352039 50.987209 
L 105.686749 51.666188 
L 106.13303 52.881943 
L 106.356171 52.985021 
L 106.579311 52.483085 
L 106.914022 51.055694 
L 107.248733 52.056632 
L 107.695014 53.494873 
L 107.806584 53.548797 
L 107.918154 53.463976 
L 108.141295 52.882638 
L 108.476005 51.844867 
L 108.587576 51.870635 
L 109.256997 52.793083 
L 109.926419 52.854916 
L 110.59584 52.939376 
L 111.042121 53.142222 
L 111.823113 55.710487 
L 112.046253 55.856671 
L 112.157824 55.702322 
L 112.380964 54.604167 
L 112.604105 53.269718 
L 112.938815 54.559154 
L 113.273526 55.770659 
L 113.496667 55.90399 
L 113.608237 55.855979 
L 113.831377 55.213705 
L 114.166088 53.67058 
L 114.389229 53.342728 
L 115.281791 56.177292 
L 115.393361 56.224815 
L 115.504931 56.080198 
L 115.839642 54.549305 
L 115.951212 54.778715 
L 116.732204 56.880352 
L 116.955344 56.718664 
L 117.178485 56.063095 
L 117.401625 55.080365 
L 117.736336 55.968255 
L 118.071047 57.043259 
L 118.294187 57.225567 
L 118.517328 57.085589 
L 118.740468 56.409397 
L 118.963609 55.560285 
L 119.075179 55.437833 
L 119.29832 55.533063 
L 120.190882 57.831385 
L 120.302452 57.843696 
L 120.525592 57.368553 
L 120.748733 56.450421 
L 121.083443 57.113205 
L 121.529724 58.07276 
L 121.752865 58.18075 
L 121.864435 58.113252 
L 122.087576 57.58278 
L 122.310716 56.580342 
L 122.645427 57.307426 
L 123.091708 58.312348 
L 123.314848 58.410065 
L 123.426419 58.304667 
L 123.649559 57.570908 
L 123.8727 56.602438 
L 124.09584 56.332829 
L 124.988402 58.795964 
L 125.099972 58.841196 
L 125.211543 58.696414 
L 125.546253 57.214091 
L 125.657824 57.383836 
L 126.104105 58.567744 
L 126.438815 59.119866 
L 126.661956 59.158837 
L 126.885096 58.499827 
L 127.108237 57.732243 
L 127.331377 57.638554 
L 128.33551 60.100983 
L 128.44708 60.025768 
L 128.67022 59.282471 
L 128.781791 58.681443 
L 129.116501 59.105943 
L 129.785923 60.328157 
L 129.897493 60.274738 
L 130.120634 59.662348 
L 130.343774 58.406392 
L 130.455344 58.525749 
L 130.678485 58.933898 
L 131.236336 60.257326 
L 131.347906 60.318461 
L 131.459477 60.24959 
L 131.682617 59.446745 
L 131.794187 58.794706 
L 132.128898 59.239256 
L 132.686749 60.361694 
L 132.90989 60.442974 
L 133.02146 60.254282 
L 133.356171 58.707672 
L 133.467741 58.90118 
L 134.360303 60.847868 
L 134.471873 60.80055 
L 134.695014 60.049469 
L 134.918154 58.94501 
L 135.252865 59.934382 
L 135.587576 60.900066 
L 135.922286 61.175901 
L 136.033857 61.080041 
L 136.256997 60.351454 
L 136.368567 59.840817 
L 136.703278 60.566994 
L 137.037989 61.283809 
L 137.3727 61.450193 
L 137.59584 61.123792 
L 137.930551 59.800104 
L 138.042121 60.01559 
L 138.711543 61.426767 
L 138.934683 61.495206 
L 139.157824 61.049344 
L 139.604105 59.506345 
L 139.715675 59.314878 
L 140.608237 61.628059 
L 140.719807 61.647935 
L 140.831377 61.470903 
L 141.166088 59.927953 
L 141.277658 60.132273 
L 142.05865 61.888382 
L 142.281791 61.951775 
L 142.504931 61.364183 
L 142.728072 60.518708 
L 143.174353 61.925756 
L 143.509063 62.562968 
L 143.732204 62.769994 
L 143.843774 62.74414 
L 144.066915 62.069233 
L 144.290055 61.384443 
L 144.401625 61.381238 
L 144.624766 61.668078 
L 145.182617 63.078149 
L 145.628898 63.451252 
L 145.740468 63.417566 
L 145.963609 62.875249 
L 146.186749 61.987874 
L 147.190882 63.373835 
L 147.302452 63.309957 
L 147.525592 62.804942 
L 147.860303 61.982032 
L 148.083443 61.929986 
L 148.976005 63.60388 
L 149.087576 63.624837 
L 149.199146 63.514655 
L 149.533857 62.449681 
L 149.645427 62.552459 
L 149.980138 63.170106 
L 150.426419 63.98837 
L 150.649559 64.053391 
L 150.8727 63.595035 
L 151.09584 62.881568 
L 151.430551 63.491699 
L 151.876832 64.516276 
L 152.099972 64.705218 
L 152.211543 64.674007 
L 152.434683 64.112924 
L 152.657824 63.453304 
L 152.769394 63.41776 
L 153.661956 64.14929 
L 154.442948 64.66151 
L 155.112369 65.043404 
L 155.223939 64.962316 
L 156.116501 66.580627 
L 156.228072 66.586488 
L 156.451212 66.167172 
L 156.674353 65.373171 
L 157.009063 65.880226 
L 157.455344 66.7319 
L 157.678485 66.861499 
L 157.790055 66.831701 
L 158.013196 66.353248 
L 158.236336 65.624377 
L 158.571047 66.148273 
L 159.017328 66.86717 
L 159.240468 66.936338 
L 159.463609 66.7122 
L 159.90989 65.88996 
L 160.244601 66.202948 
L 160.690882 66.477152 
L 161.248733 66.504172 
L 161.583443 66.442676 
L 161.695014 66.266558 
L 162.364435 67.481087 
L 162.587576 67.597132 
L 162.699146 67.550716 
L 162.922286 67.010178 
L 163.145427 66.198117 
L 163.480138 66.857679 
L 163.926419 67.657867 
L 164.149559 67.805754 
L 164.261129 67.751051 
L 164.48427 67.155422 
L 164.70741 66.517715 
L 165.599972 68.249993 
L 165.823113 68.251855 
L 166.269394 67.297707 
L 167.385096 67.874061 
L 168.054518 67.814147 
L 168.166088 67.584013 
L 168.94708 69.49017 
L 169.05865 69.567909 
L 169.17022 69.487359 
L 169.393361 68.647939 
L 169.616501 67.528939 
L 169.951212 68.512738 
L 170.397493 69.801397 
L 170.620634 70.048262 
L 170.732204 69.899516 
L 171.178485 67.879105 
L 172.071047 70.726355 
L 172.182617 70.811066 
L 172.294187 70.632858 
L 172.740468 68.904926 
L 173.186749 69.573681 
L 173.52146 69.642201 
L 173.856171 69.447078 
L 174.748733 68.426181 
L 175.529724 70.729669 
L 175.641295 70.808838 
L 175.752865 70.648473 
L 176.087576 68.752476 
L 176.310716 67.817427 
L 176.533857 67.836387 
L 177.426419 71.516627 
L 177.537989 71.301204 
L 177.98427 68.563972 
L 178.876832 72.301344 
L 178.988402 72.423508 
L 179.099972 72.119125 
L 179.434683 69.976424 
L 179.546253 70.138968 
L 180.327245 73.263588 
L 180.885096 73.897874 
L 180.996667 73.74797 
L 181.442948 71.956593 
L 181.889229 73.387587 
L 182.112369 73.542713 
L 182.44708 73.656525 
L 182.55865 73.534468 
L 182.781791 72.791405 
L 183.116501 71.49587 
L 183.339642 71.176869 
L 183.785923 72.677166 
L 184.120634 73.496684 
L 184.232204 73.60265 
L 184.343774 73.519245 
L 184.566915 72.580493 
L 184.790055 71.243751 
L 185.013196 71.622662 
L 185.794187 73.940349 
L 185.905758 73.72001 
L 186.352039 71.391478 
L 186.575179 72.06455 
L 187.244601 74.755694 
L 187.356171 74.839561 
L 187.467741 74.581779 
L 187.802452 72.590078 
L 188.025592 72.811529 
L 188.695014 75.592036 
L 189.029724 76.088647 
L 189.252865 75.199634 
L 189.476005 74.396872 
L 190.033857 76.246706 
L 190.480138 76.554549 
L 190.591708 76.512321 
L 190.814848 75.810598 
L 191.037989 75.129155 
L 191.48427 74.605621 
L 192.153691 76.080852 
L 192.376832 76.242797 
L 192.488402 76.17455 
L 192.711543 75.496769 
L 192.934683 74.324282 
L 193.157824 74.601283 
L 193.938815 76.05865 
L 194.050386 75.869573 
L 194.496667 73.877457 
L 194.608237 74.049935 
L 194.831377 74.622761 
L 195.389229 76.355002 
L 195.500799 76.393516 
L 195.612369 76.165178 
L 196.05865 74.016414 
L 196.393361 75.107708 
L 196.839642 76.780441 
L 197.062782 77.048878 
L 197.174353 76.789478 
L 197.509063 75.06249 
L 197.955344 76.556121 
L 198.290055 77.498851 
L 198.513196 77.782878 
L 198.624766 77.757079 
L 198.847906 76.848528 
L 199.071047 76.213557 
L 199.182617 76.177143 
L 199.740468 77.869359 
L 200.186749 78.306768 
L 200.29832 78.189949 
L 200.63303 76.958723 
L 201.302452 78.159595 
L 201.637162 78.245165 
L 201.860303 77.922098 
L 202.195014 76.511661 
L 202.306584 76.70119 
L 202.976005 77.940855 
L 203.199146 77.953863 
L 203.422286 77.376977 
L 203.756997 75.651657 
L 203.868567 75.863415 
L 204.649559 77.909312 
L 204.761129 77.841228 
L 204.98427 76.939058 
L 205.318981 75.348979 
L 205.542121 75.266754 
L 206.434683 78.449509 
L 206.546253 78.311724 
L 206.992534 75.887821 
L 207.996667 79.334664 
L 208.108237 79.142643 
L 208.442948 77.152351 
L 208.554518 77.195369 
L 209.112369 78.967459 
L 210.004931 79.611416 
L 210.451212 79.477835 
L 211.120634 78.970906 
L 211.232204 78.662662 
L 212.124766 80.815114 
L 212.236336 80.68161 
L 212.459477 79.701622 
L 212.682617 78.402985 
L 212.905758 78.862679 
L 213.686749 81.042763 
L 213.79832 80.798839 
L 214.244601 78.375884 
L 214.579311 79.621345 
L 215.025592 81.391962 
L 215.248733 81.630523 
L 215.360303 81.320415 
L 215.695014 79.179778 
L 216.029724 80.440154 
L 216.476005 82.066216 
L 216.699146 82.347426 
L 216.810716 82.290148 
L 217.033857 81.17567 
L 217.256997 80.085854 
L 217.926419 82.678981 
L 218.261129 82.973456 
L 218.3727 82.905478 
L 218.818981 81.283473 
L 219.376832 81.862954 
L 219.711543 82.01238 
L 220.046253 81.866768 
L 220.269394 81.749489 
L 220.380964 81.529256 
L 221.273526 83.504503 
L 221.385096 83.439273 
L 221.608237 82.728811 
L 221.831377 81.615987 
L 222.054518 81.911516 
L 222.389229 82.917266 
L 222.723939 83.804727 
L 222.83551 83.871314 
L 222.94708 83.729188 
L 223.393361 81.813803 
L 223.504931 82.019479 
L 223.839642 83.103744 
L 224.174353 84.283069 
L 224.397493 84.549409 
L 224.509063 84.394245 
L 224.843774 82.805944 
L 225.178485 83.592957 
L 225.624766 84.955166 
L 225.847906 85.199284 
L 225.959477 85.192064 
L 226.071047 84.970854 
L 226.405758 83.565993 
L 227.186749 85.41982 
L 227.40989 85.533774 
L 227.52146 85.472513 
L 227.744601 84.759799 
L 227.967741 84.033325 
L 228.302452 83.931461 
L 228.414022 83.934586 
L 228.525592 83.757986 
L 229.083443 85.139407 
L 229.418154 85.437669 
L 229.529724 85.383894 
L 229.752865 84.797682 
L 229.976005 83.698157 
L 230.310716 84.26355 
L 230.868567 85.255785 
L 230.980138 85.27495 
L 231.091708 85.126251 
L 231.426419 83.761778 
L 231.537989 83.216986 
L 231.8727 83.971022 
L 232.318981 85.197284 
L 232.542121 85.370502 
L 232.653691 85.16608 
L 233.099972 82.98513 
L 233.211543 83.279056 
L 233.992534 85.598202 
L 234.104105 85.615053 
L 234.215675 85.34507 
L 234.550386 83.510329 
L 234.885096 84.591076 
L 235.219807 85.695646 
L 235.554518 86.096498 
L 235.666088 86.020434 
L 235.889229 85.027619 
L 236.112369 84.021652 
L 236.781791 86.263254 
L 237.116501 86.516832 
L 237.228072 86.419547 
L 237.562782 85.011864 
L 237.674353 85.310523 
L 238.232204 86.660135 
L 238.566915 86.792522 
L 238.678485 86.730098 
L 238.901625 86.159195 
L 239.124766 85.19573 
L 239.905758 86.708279 
L 240.128898 86.763289 
L 240.352039 86.368386 
L 240.686749 84.942054 
L 240.79832 85.115052 
L 241.13303 85.891414 
L 241.467741 86.699723 
L 241.690882 86.795075 
L 241.914022 86.237288 
L 242.248733 84.927483 
L 242.471873 84.796252 
L 242.918154 86.301087 
L 243.252865 87.173963 
L 243.476005 87.256913 
L 243.699146 86.519288 
L 243.922286 85.631175 
L 244.256997 86.532351 
L 244.703278 87.864173 
L 244.926419 88.125231 
L 245.037989 88.047263 
L 245.48427 86.676022 
L 246.042121 87.720354 
L 246.711543 87.812374 
L 247.269394 87.535123 
L 247.604105 87.350539 
L 247.715675 87.098774 
L 248.385096 88.610643 
L 248.608237 88.764922 
L 248.719807 88.711751 
L 248.942948 88.115937 
L 249.166088 87.128492 
L 249.500799 87.815568 
L 249.94708 88.802609 
L 250.17022 88.967071 
L 250.281791 88.853305 
L 250.616501 87.620808 
L 250.728072 87.210847 
L 251.062782 88.162918 
L 251.509063 89.367637 
L 251.732204 89.566101 
L 251.843774 89.427981 
L 252.290055 87.83263 
L 252.513196 88.217967 
L 252.736336 88.566457 
L 252.847906 88.611114 
L 253.628898 90.606657 
L 253.852039 90.724541 
L 254.075179 90.147589 
L 254.40989 88.593778 
L 255.302452 90.963413 
L 255.414022 90.975812 
L 255.525592 90.795705 
L 256.083443 88.785701 
L 256.752865 89.099605 
L 256.864435 88.904025 
L 257.533857 90.432106 
L 257.756997 90.611861 
L 257.868567 90.588451 
L 258.091708 90.10515 
L 258.314848 89.128289 
L 258.761129 89.885024 
L 259.20741 90.591837 
L 259.318981 90.644995 
L 259.430551 90.571729 
L 259.653691 89.925141 
L 259.876832 88.898969 
L 260.211543 89.613958 
L 260.657824 90.671487 
L 260.880964 90.805093 
L 260.992534 90.61886 
L 261.327245 89.026166 
L 261.438815 88.387503 
L 261.773526 89.428855 
L 262.219807 90.800444 
L 262.331377 90.923574 
L 262.442948 90.86702 
L 262.666088 89.86078 
L 262.889229 88.371629 
L 263.223939 89.404285 
L 263.67022 90.884498 
L 263.893361 91.087083 
L 264.004931 90.861393 
L 264.451212 88.038107 
L 264.562782 88.411239 
L 265.232204 90.96028 
L 265.455344 91.164984 
L 265.566915 90.910022 
L 266.124766 88.275563 
L 266.794187 91.096137 
L 267.128898 91.58964 
L 267.240468 91.331351 
L 267.575179 89.478328 
L 268.356171 91.878108 
L 268.579311 92.084206 
L 268.690882 92.054027 
L 268.914022 91.241141 
L 269.137162 90.172487 
L 269.918154 92.362818 
L 270.141295 92.536944 
L 270.252865 92.437872 
L 270.476005 91.648885 
L 270.810716 90.545407 
L 271.033857 90.490385 
L 271.368567 90.463278 
L 272.70741 89.326102 
L 273.153691 89.31135 
L 273.599972 89.508396 
L 274.269394 90.073587 
L 275.942948 91.673848 
L 276.277658 91.768701 
L 277.17022 94.202028 
L 277.281791 94.208214 
L 277.393361 93.951765 
L 277.839642 91.371466 
L 277.951212 91.643971 
L 278.843774 94.115277 
L 278.955344 93.830372 
L 279.401625 90.941625 
L 279.847906 92.458113 
L 280.182617 93.511653 
L 280.405758 93.721354 
L 280.517328 93.450203 
L 280.963609 91.045298 
L 281.075179 90.99832 
L 281.186749 91.075066 
L 281.29832 90.99282 
L 282.190882 93.732098 
L 282.302452 93.769249 
L 282.525592 93.250865 
L 282.748733 92.223777 
L 283.083443 92.74091 
L 283.864435 94.517277 
L 284.087576 93.842863 
L 284.310716 92.893183 
L 284.645427 93.736649 
L 285.203278 95.811935 
L 285.426419 95.998508 
L 285.649559 95.219104 
L 285.761129 94.630958 
L 286.09584 95.263982 
L 286.765262 97.295297 
L 286.876832 97.248053 
L 287.099972 96.399769 
L 287.323113 95.394271 
L 287.434683 95.307892 
L 287.992534 95.774632 
L 288.661956 95.493297 
L 289.219807 95.166067 
L 289.331377 94.935133 
L 290.33551 96.837811 
L 290.44708 96.744538 
L 290.67022 95.936759 
L 290.781791 95.313175 
L 291.116501 95.57937 
L 291.451212 96.296663 
L 291.785923 96.905257 
L 291.897493 96.964218 
L 292.009063 96.85027 
L 292.232204 95.998052 
L 292.343774 95.427177 
L 292.678485 95.803669 
L 293.459477 97.5327 
L 293.571047 97.430412 
L 293.794187 96.531908 
L 293.905758 95.917514 
L 294.240468 96.364364 
L 294.90989 97.984522 
L 295.02146 97.970962 
L 295.244601 97.270721 
L 295.356171 96.646788 
L 295.690882 96.907248 
L 296.025592 97.677925 
L 296.360303 98.232826 
L 296.471873 98.213475 
L 296.695014 97.572883 
L 296.918154 96.32368 
L 297.029724 96.388158 
L 297.252865 96.59342 
L 297.587576 97.516477 
L 297.810716 98.026898 
L 297.922286 98.086095 
L 298.033857 97.986737 
L 298.256997 97.181194 
L 298.591708 95.694446 
L 298.814848 95.380616 
L 299.037989 95.59896 
L 299.261129 96.173347 
L 299.70741 97.531064 
L 299.818981 97.511558 
L 300.042121 96.929769 
L 300.376832 95.572954 
L 300.599972 95.508613 
L 300.823113 95.983548 
L 301.157824 97.20691 
L 301.269394 97.329894 
L 301.380964 97.255607 
L 301.604105 96.421255 
L 301.938815 95.029882 
L 302.161956 95.090532 
L 302.385096 95.79789 
L 302.719807 97.212656 
L 302.831377 97.359193 
L 302.942948 97.301575 
L 303.166088 96.453239 
L 303.500799 94.903491 
L 303.723939 95.06291 
L 303.94708 95.722132 
L 304.393361 97.514739 
L 304.504931 97.586545 
L 304.616501 97.485931 
L 304.839642 96.678698 
L 304.951212 96.105282 
L 305.285923 96.24025 
L 305.509063 96.872249 
L 305.843774 98.116062 
L 306.066915 98.262354 
L 306.290055 97.600329 
L 306.513196 96.455643 
L 306.847906 96.752529 
L 307.517328 98.472192 
L 307.628898 98.352546 
L 307.852039 97.570215 
L 307.963609 96.98696 
L 308.29832 97.270523 
L 308.967741 98.499662 
L 309.079311 98.396399 
L 309.302452 97.684221 
L 309.525592 96.475155 
L 309.860303 97.053923 
L 310.306584 98.13616 
L 310.529724 98.193797 
L 310.752865 97.704126 
L 311.199146 95.768357 
L 311.533857 96.801001 
L 311.868567 97.75265 
L 312.091708 97.949859 
L 312.203278 97.925568 
L 312.426419 97.388852 
L 312.649559 96.33106 
L 312.98427 97.204162 
L 313.318981 98.114316 
L 313.542121 98.313737 
L 313.653691 98.287034 
L 313.876832 97.759092 
L 314.211543 95.969249 
L 314.546253 97.166394 
L 314.880964 98.242915 
L 315.104105 98.485889 
L 315.215675 98.487339 
L 315.327245 98.310854 
L 315.885096 95.93012 
L 316.554518 98.601149 
L 316.777658 98.887462 
L 316.889229 98.850973 
L 317.112369 97.870275 
L 317.33551 96.436482 
L 318.228072 99.305775 
L 318.339642 99.291281 
L 318.451212 98.998247 
L 318.897493 95.983417 
L 319.678485 99.057951 
L 319.901625 99.194005 
L 320.013196 98.824119 
L 320.347906 96.290585 
L 321.240468 99.121729 
L 321.352039 99.179364 
L 321.463609 99.001463 
L 321.686749 97.618396 
L 321.90989 96.018208 
L 322.690882 98.712439 
L 322.914022 98.944437 
L 323.025592 98.772705 
L 323.583443 96.062288 
L 324.141295 98.335021 
L 324.587576 98.861772 
L 324.699146 98.660659 
L 325.033857 96.74499 
L 325.703278 98.701928 
L 326.149559 99.006381 
L 326.261129 98.764148 
L 326.59584 97.054411 
L 327.265262 98.778719 
L 327.711543 99.048439 
L 327.934683 98.243629 
L 328.269394 96.939134 
L 329.161956 98.895713 
L 329.273526 98.952043 
L 329.385096 98.83636 
L 329.608237 97.85669 
L 329.719807 97.130896 
L 330.054518 97.435862 
L 330.389229 98.224947 
L 330.723939 98.732568 
L 330.83551 98.677552 
L 331.05865 97.906098 
L 331.281791 96.397159 
L 331.393361 96.454193 
L 331.616501 96.673075 
L 331.839642 97.370538 
L 332.174353 98.466799 
L 332.285923 98.550769 
L 332.397493 98.457613 
L 332.620634 97.47046 
L 332.843774 95.733322 
L 332.955344 95.78199 
L 333.178485 96.066727 
L 333.513196 97.598979 
L 333.736336 98.375038 
L 333.847906 98.463347 
L 333.959477 98.326505 
L 334.182617 97.131176 
L 334.294187 96.224323 
L 334.628898 96.405646 
L 334.852039 97.130386 
L 335.186749 98.528515 
L 335.40989 98.678954 
L 335.52146 98.382343 
L 335.856171 96.052636 
L 335.967741 96.104655 
L 336.190882 96.393239 
L 336.414022 97.327647 
L 336.748733 98.824267 
L 336.860303 98.966507 
L 336.971873 98.892187 
L 337.195014 97.818529 
L 337.306584 96.948928 
L 337.641295 97.131155 
L 337.864435 97.75779 
L 338.199146 99.00789 
L 338.422286 99.140376 
L 338.533857 98.868508 
L 338.868567 96.653193 
L 338.980138 96.729805 
L 339.203278 97.024893 
L 339.537989 98.259756 
L 339.761129 98.871573 
L 339.8727 98.920723 
L 339.98427 98.781572 
L 340.20741 97.755961 
L 340.542121 95.772146 
L 340.876832 96.570485 
L 341.323113 98.081876 
L 341.546253 98.116501 
L 341.769394 97.486024 
L 341.992534 96.078795 
L 342.104105 96.215331 
L 342.438815 96.940427 
L 342.773526 97.840174 
L 342.996667 97.907187 
L 343.219807 97.355809 
L 343.554518 95.34597 
L 343.666088 95.529258 
L 344.000799 96.451289 
L 344.33551 97.417682 
L 344.55865 97.513342 
L 344.67022 97.383955 
L 344.893361 96.606661 
L 345.116501 95.327054 
L 345.451212 96.211689 
L 345.897493 97.585493 
L 346.120634 97.660026 
L 346.343774 97.207977 
L 346.566915 96.207002 
L 346.901625 96.948872 
L 347.459477 98.435767 
L 347.571047 98.450212 
L 347.794187 98.077615 
L 348.128898 96.509628 
L 348.240468 96.734613 
L 348.575179 97.747175 
L 349.02146 99.047918 
L 349.13303 99.062428 
L 349.356171 98.614605 
L 349.802452 96.717706 
L 350.137162 97.690237 
L 350.695014 99.614037 
L 350.806584 99.560509 
L 351.029724 98.723732 
L 351.252865 97.367414 
L 351.587576 97.982943 
L 352.256997 99.957665 
L 352.368567 99.661276 
L 352.814848 96.662545 
L 352.926419 96.855606 
L 353.149559 97.357875 
L 353.818981 99.775669 
L 353.930551 99.428458 
L 354.488402 96.204677 
L 354.823113 97.205789 
L 355.492534 99.677808 
L 355.715675 98.473343 
L 355.938815 97.033389 
L 356.385096 98.21851 
L 356.942948 100.560318 
L 357.054518 100.478534 
L 357.500799 97.646438 
L 357.612369 97.997025 
L 357.94708 99.275962 
L 358.504931 101.732144 
L 358.616501 101.564673 
L 359.062782 99.10009 
L 359.174353 99.112327 
L 359.732204 101.749007 
L 359.732204 101.749007 
" clip-path="url(#pf92d874c4f)" style="fill: none; stroke: #2ca02c; stroke-width: 1.5; stroke-linecap: square"/>
   </g>
   <g id="patch_3">
    <path d="M 40.150386 228.96 
L 40.150386 7.2 
" style="fill: none; stroke: #000000; stroke-width: 0.8; stroke-linejoin: miter; stroke-linecap: square"/>
   </g>
   <g id="patch_4">
    <path d="M 374.950386 228.96 
L 374.950386 7.2 
" style="fill: none; stroke: #000000; stroke-width: 0.8; stroke-linejoin: miter; stroke-linecap: square"/>
   </g>
   <g id="patch_5">
    <path d="M 40.150386 228.96 
L 374.950386 228.96 
" style="fill: none; stroke: #000000; stroke-width: 0.8; stroke-linejoin: miter; stroke-linecap: square"/>
   </g>
   <g id="patch_6">
    <path d="M 40.150386 7.2 
L 374.950386 7.2 
" style="fill: none; stroke: #000000; stroke-width: 0.8; stroke-linejoin: miter; stroke-linecap: square"/>
   </g>
   <g id="legend_1">
    <g id="patch_7">
     <path d="M 144.410035 43.640613 
L 270.690736 43.640613 
Q 272.690736 43.640613 272.690736 41.640613 
L 272.690736 14.2 
Q 272.690736 12.2 270.690736 12.2 
L 144.410035 12.2 
Q 142.410035 12.2 142.410035 14.2 
L 142.410035 41.640613 
Q 142.410035 43.640613 144.410035 43.640613 
z
" style="fill: #ffffff; opacity: 0.8; stroke: #cccccc; stroke-linejoin: miter"/>
    </g>
    <g id="line2d_15">
     <path d="M 146.410035 19.79832 
L 156.410035 19.79832 
L 166.410035 19.79832 
" style="fill: none; stroke: #1f77b4; stroke-width: 1.5; stroke-linecap: square"/>
    </g>
    <g id="text_14">
     <!-- $\rho$ -->
     <g transform="translate(174.410035 23.29832) scale(0.1 -0.1)">
      <defs>
       <path id="CMMI12-1a" d="M 198 -1085 
C 192 -1116 179 -1154 179 -1191 
C 179 -1287 256 -1351 352 -1351 
C 448 -1351 538 -1287 576 -1198 
C 602 -1141 781 -390 986 389 
C 1114 70 1350 -64 1600 -64 
C 2323 -64 3142 830 3142 1794 
C 3142 2477 2726 2816 2285 2816 
C 1722 2816 1037 2234 826 1385 
L 198 -1085 
z
M 1594 64 
C 1158 64 1050 568 1050 645 
C 1050 683 1210 1289 1229 1385 
C 1555 2656 2182 2687 2278 2687 
C 2566 2687 2726 2426 2726 2049 
C 2726 1724 2554 1091 2445 823 
C 2253 383 1920 64 1594 64 
z
" transform="scale(0.015625)"/>
      </defs>
      <use xlink:href="#CMMI12-1a" transform="scale(0.996264)"/>
     </g>
    </g>
    <g id="line2d_16">
     <path d="M 146.410035 34.018627 
L 156.410035 34.018627 
L 166.410035 34.018627 
" style="fill: none; stroke: #ff7f0e; stroke-width: 1.5; stroke-linecap: square"/>
    </g>
    <g id="text_15">
     <!-- $\rho u$ -->
     <g transform="translate(174.410035 37.518627) scale(0.1 -0.1)">
      <defs>
       <path id="CMMI12-75" d="M 2182 370 
C 2266 12 2573 -64 2726 -64 
C 2931 -64 3085 70 3187 287 
C 3296 517 3379 893 3379 913 
C 3379 944 3354 970 3315 970 
C 3258 970 3251 938 3226 842 
C 3110 402 2995 64 2739 64 
C 2547 64 2547 274 2547 357 
C 2547 504 2566 568 2630 836 
C 2675 1008 2720 1181 2758 1359 
L 3021 2400 
C 3066 2560 3066 2572 3066 2591 
C 3066 2687 2989 2752 2893 2752 
C 2707 2752 2662 2591 2624 2432 
C 2560 2183 2214 810 2170 587 
C 2163 587 1914 64 1446 64 
C 1114 64 1050 351 1050 587 
C 1050 951 1229 1462 1395 1890 
C 1472 2094 1504 2177 1504 2305 
C 1504 2579 1306 2816 998 2816 
C 410 2816 173 1890 173 1838 
C 173 1813 198 1781 243 1781 
C 301 1781 307 1807 333 1896 
C 486 2445 736 2687 979 2687 
C 1043 2687 1146 2681 1146 2477 
C 1146 2311 1075 2126 979 1883 
C 698 1123 666 881 666 689 
C 666 38 1158 -64 1421 -64 
C 1830 -64 2054 217 2182 370 
z
" transform="scale(0.015625)"/>
      </defs>
      <use xlink:href="#CMMI12-1a" transform="scale(0.996264)"/>
      <use xlink:href="#CMMI12-75" transform="translate(50.314373 0) scale(0.996264)"/>
     </g>
    </g>
    <g id="line2d_17">
     <path d="M 205.264062 19.79832 
L 215.264062 19.79832 
L 225.264062 19.79832 
" style="fill: none; stroke: #2ca02c; stroke-width: 1.5; stroke-linecap: square"/>
    </g>
    <g id="text_16">
     <!-- $\rho E$ -->
     <g transform="translate(233.264062 23.29832) scale(0.1 -0.1)">
      <defs>
       <path id="CMMI12-45" d="M 4448 1489 
C 4454 1508 4474 1553 4474 1578 
C 4474 1611 4448 1643 4410 1643 
C 4384 1643 4371 1636 4352 1617 
C 4339 1611 4339 1598 4282 1469 
C 3904 570 3629 185 2605 185 
L 1670 185 
C 1581 185 1568 185 1530 192 
C 1459 198 1453 211 1453 262 
C 1453 307 1466 346 1478 403 
L 1920 2176 
L 2554 2176 
C 3053 2176 3091 2066 3091 1874 
C 3091 1810 3091 1752 3046 1559 
C 3034 1534 3027 1508 3027 1489 
C 3027 1444 3059 1424 3098 1424 
C 3155 1424 3162 1469 3187 1559 
L 3552 3036 
C 3552 3068 3526 3099 3488 3099 
C 3430 3099 3424 3074 3398 2986 
C 3270 2500 3142 2361 2573 2361 
L 1965 2361 
L 2362 3913 
C 2419 4134 2432 4153 2694 4153 
L 3610 4153 
C 4397 4153 4557 3945 4557 3465 
C 4557 3459 4557 3282 4531 3074 
C 4525 3049 4518 3011 4518 2998 
C 4518 2948 4550 2929 4589 2929 
C 4634 2929 4659 2954 4672 3068 
L 4806 4172 
C 4806 4191 4819 4255 4819 4268 
C 4819 4339 4762 4339 4646 4339 
L 1523 4339 
C 1402 4339 1338 4339 1338 4223 
C 1338 4153 1382 4153 1491 4153 
C 1888 4153 1888 4109 1888 4039 
C 1888 4008 1882 3983 1862 3913 
L 998 474 
C 941 249 928 185 480 185 
C 358 185 294 185 294 70 
C 294 0 333 0 461 0 
L 3674 0 
C 3814 0 3821 6 3866 108 
L 4448 1489 
z
" transform="scale(0.015625)"/>
      </defs>
      <use xlink:href="#CMMI12-1a" transform="scale(0.996264)"/>
      <use xlink:href="#CMMI12-45" transform="translate(50.314373 0) scale(0.996264)"/>
     </g>
    </g>
    <g id="line2d_18">
     <path d="M 205.264062 34.018627 
L 215.264062 34.018627 
L 225.264062 34.018627 
" style="fill: none; stroke-dasharray: 3.7,1.6; stroke-dashoffset: 0; stroke: #808080"/>
    </g>
    <g id="text_17">
     <!-- Time [s] -->
     <g transform="translate(233.264062 37.518627) scale(0.1 -0.1)">
      <defs>
       <path id="NimbusSanL-Regu-54" d="M 2266 4147 
L 3795 4147 
L 3795 4672 
L 134 4672 
L 134 4147 
L 1670 4147 
L 1670 0 
L 2266 0 
L 2266 4147 
z
" transform="scale(0.015625)"/>
       <path id="NimbusSanL-Regu-6d" d="M 448 3328 
L 448 0 
L 986 0 
L 986 2089 
C 986 2597 1338 2988 1773 2988 
C 2170 2988 2394 2744 2394 2315 
L 2394 0 
L 2931 0 
L 2931 2109 
C 2931 2597 3283 2988 3718 2988 
C 4109 2988 4339 2738 4339 2315 
L 4339 0 
L 4877 0 
L 4877 2520 
C 4877 3123 4531 3456 3904 3456 
C 3456 3456 3187 3321 2874 2943 
C 2675 3302 2406 3456 1971 3456 
C 1523 3456 1229 3289 941 2886 
L 941 3328 
L 448 3328 
z
" transform="scale(0.015625)"/>
       <path id="NimbusSanL-Regu-5b" d="M 1600 4672 
L 410 4672 
L 410 -1357 
L 1600 -1357 
L 1600 -896 
L 941 -896 
L 941 4211 
L 1600 4211 
L 1600 4672 
z
" transform="scale(0.015625)"/>
       <path id="NimbusSanL-Regu-5d" d="M 147 -1357 
L 1338 -1357 
L 1338 4672 
L 147 4672 
L 147 4211 
L 806 4211 
L 806 -896 
L 147 -896 
L 147 -1357 
z
" transform="scale(0.015625)"/>
      </defs>
      <use xlink:href="#NimbusSanL-Regu-54" transform="scale(0.996264)"/>
      <use xlink:href="#NimbusSanL-Regu-69" transform="translate(60.871631 0) scale(0.996264)"/>
      <use xlink:href="#NimbusSanL-Regu-6d" transform="translate(82.988415 0) scale(0.996264)"/>
      <use xlink:href="#NimbusSanL-Regu-65" transform="translate(165.976845 0) scale(0.996264)"/>
      <use xlink:href="#NimbusSanL-Regu-5b" transform="translate(249.063692 0) scale(0.996264)"/>
      <use xlink:href="#NimbusSanL-Regu-73" transform="translate(276.758861 0) scale(0.996264)"/>
      <use xlink:href="#NimbusSanL-Regu-5d" transform="translate(326.572062 0) scale(0.996264)"/>
     </g>
    </g>
   </g>
  </g>
  <g id="axes_2">
   <g id="matplotlib.axis_3">
    <g id="ytick_6">
     <g id="line2d_19">
      <defs>
       <path id="m118925de60" d="M 0 0 
L 3.5 0 
" style="stroke: #000000; stroke-width: 0.8"/>
      </defs>
      <g>
       <use xlink:href="#m118925de60" x="374.950386" y="218.88" style="stroke: #000000; stroke-width: 0.8"/>
      </g>
     </g>
     <g id="text_18">
      <!-- $\mathdefault{0}$ -->
      <g transform="translate(381.950386 222.42916) scale(0.1 -0.1)">
       <use xlink:href="#CMR17-30" transform="scale(0.996264)"/>
      </g>
     </g>
    </g>
    <g id="ytick_7">
     <g id="line2d_20">
      <g>
       <use xlink:href="#m118925de60" x="374.950386" y="181.284713" style="stroke: #000000; stroke-width: 0.8"/>
      </g>
     </g>
     <g id="text_19">
      <!-- $\mathdefault{50}$ -->
      <g transform="translate(381.950386 184.833873) scale(0.1 -0.1)">
       <use xlink:href="#CMR17-35" transform="scale(0.996264)"/>
       <use xlink:href="#CMR17-30" transform="translate(45.690477 0) scale(0.996264)"/>
      </g>
     </g>
    </g>
    <g id="ytick_8">
     <g id="line2d_21">
      <g>
       <use xlink:href="#m118925de60" x="374.950386" y="143.689426" style="stroke: #000000; stroke-width: 0.8"/>
      </g>
     </g>
     <g id="text_20">
      <!-- $\mathdefault{100}$ -->
      <g transform="translate(381.950386 147.238586) scale(0.1 -0.1)">
       <use xlink:href="#CMR17-31" transform="scale(0.996264)"/>
       <use xlink:href="#CMR17-30" transform="translate(45.690477 0) scale(0.996264)"/>
       <use xlink:href="#CMR17-30" transform="translate(91.380954 0) scale(0.996264)"/>
      </g>
     </g>
    </g>
    <g id="ytick_9">
     <g id="line2d_22">
      <g>
       <use xlink:href="#m118925de60" x="374.950386" y="106.094139" style="stroke: #000000; stroke-width: 0.8"/>
      </g>
     </g>
     <g id="text_21">
      <!-- $\mathdefault{150}$ -->
      <g transform="translate(381.950386 109.643299) scale(0.1 -0.1)">
       <use xlink:href="#CMR17-31" transform="scale(0.996264)"/>
       <use xlink:href="#CMR17-35" transform="translate(45.690477 0) scale(0.996264)"/>
       <use xlink:href="#CMR17-30" transform="translate(91.380954 0) scale(0.996264)"/>
      </g>
     </g>
    </g>
    <g id="ytick_10">
     <g id="line2d_23">
      <g>
       <use xlink:href="#m118925de60" x="374.950386" y="68.498851" style="stroke: #000000; stroke-width: 0.8"/>
      </g>
     </g>
     <g id="text_22">
      <!-- $\mathdefault{200}$ -->
      <g transform="translate(381.950386 72.048012) scale(0.1 -0.1)">
       <use xlink:href="#CMR17-32" transform="scale(0.996264)"/>
       <use xlink:href="#CMR17-30" transform="translate(45.690477 0) scale(0.996264)"/>
       <use xlink:href="#CMR17-30" transform="translate(91.380954 0) scale(0.996264)"/>
      </g>
     </g>
    </g>
    <g id="ytick_11">
     <g id="line2d_24">
      <g>
       <use xlink:href="#m118925de60" x="374.950386" y="30.903564" style="stroke: #000000; stroke-width: 0.8"/>
      </g>
     </g>
     <g id="text_23">
      <!-- $\mathdefault{250}$ -->
      <g transform="translate(381.950386 34.452724) scale(0.1 -0.1)">
       <use xlink:href="#CMR17-32" transform="scale(0.996264)"/>
       <use xlink:href="#CMR17-35" transform="translate(45.690477 0) scale(0.996264)"/>
       <use xlink:href="#CMR17-30" transform="translate(91.380954 0) scale(0.996264)"/>
      </g>
     </g>
    </g>
    <g id="text_24">
     <!-- Time [s] -->
     <g transform="translate(407.992712 135.793337) rotate(-90) scale(0.1 -0.1)">
      <use xlink:href="#NimbusSanL-Regu-54" transform="scale(0.996264)"/>
      <use xlink:href="#NimbusSanL-Regu-69" transform="translate(60.871631 0) scale(0.996264)"/>
      <use xlink:href="#NimbusSanL-Regu-6d" transform="translate(82.988415 0) scale(0.996264)"/>
      <use xlink:href="#NimbusSanL-Regu-65" transform="translate(165.976845 0) scale(0.996264)"/>
      <use xlink:href="#NimbusSanL-Regu-5b" transform="translate(249.063692 0) scale(0.996264)"/>
      <use xlink:href="#NimbusSanL-Regu-73" transform="translate(276.758861 0) scale(0.996264)"/>
      <use xlink:href="#NimbusSanL-Regu-5d" transform="translate(326.572062 0) scale(0.996264)"/>
     </g>
    </g>
   </g>
   <g id="line2d_25">
    <path d="M 55.368567 218.88 
L 359.732204 17.28 
" clip-path="url(#pf92d874c4f)" style="fill: none; stroke-dasharray: 3.7,1.6; stroke-dashoffset: 0; stroke: #808080"/>
   </g>
   <g id="patch_8">
    <path d="M 40.150386 228.96 
L 40.150386 7.2 
" style="fill: none; stroke: #000000; stroke-width: 0.8; stroke-linejoin: miter; stroke-linecap: square"/>
   </g>
   <g id="patch_9">
    <path d="M 374.950386 228.96 
L 374.950386 7.2 
" style="fill: none; stroke: #000000; stroke-width: 0.8; stroke-linejoin: miter; stroke-linecap: square"/>
   </g>
   <g id="patch_10">
    <path d="M 40.150386 228.96 
L 374.950386 228.96 
" style="fill: none; stroke: #000000; stroke-width: 0.8; stroke-linejoin: miter; stroke-linecap: square"/>
   </g>
   <g id="patch_11">
    <path d="M 40.150386 7.2 
L 374.950386 7.2 
" style="fill: none; stroke: #000000; stroke-width: 0.8; stroke-linejoin: miter; stroke-linecap: square"/>
   </g>
  </g>
 </g>
 <defs>
  <clipPath id="pf92d874c4f">
   <rect x="40.150386" y="7.2" width="334.8" height="221.76"/>
  </clipPath>
 </defs>
</svg>
