<?xml version="1.0" encoding="utf-8" standalone="no"?>
<!DOCTYPE svg PUBLIC "-//W3C//DTD SVG 1.1//EN"
  "http://www.w3.org/Graphics/SVG/1.1/DTD/svg11.dtd">
<svg xmlns:xlink="http://www.w3.org/1999/xlink" width="374.586009pt" height="265.600613pt" viewBox="0 0 374.586009 265.600613" xmlns="http://www.w3.org/2000/svg" version="1.1">
 <metadata>
  <rdf:RDF xmlns:dc="http://purl.org/dc/elements/1.1/" xmlns:cc="http://creativecommons.org/ns#" xmlns:rdf="http://www.w3.org/1999/02/22-rdf-syntax-ns#">
   <cc:Work>
    <dc:type rdf:resource="http://purl.org/dc/dcmitype/StillImage"/>
    <dc:date>2025-08-02T13:50:58.127389</dc:date>
    <dc:format>image/svg+xml</dc:format>
    <dc:creator>
     <cc:Agent>
      <dc:title>Matplotlib v3.10.3, https://matplotlib.org/</dc:title>
     </cc:Agent>
    </dc:creator>
   </cc:Work>
  </rdf:RDF>
 </metadata>
 <defs>
  <style type="text/css">*{stroke-linejoin: round; stroke-linecap: butt}</style>
 </defs>
 <g id="figure_1">
  <g id="patch_1">
   <path d="M 0 265.600613 
L 374.586009 265.600613 
L 374.586009 0 
L 0 0 
z
" style="fill: #ffffff"/>
  </g>
  <g id="axes_1">
   <g id="patch_2">
    <path d="M 32.586009 228.96 
L 367.386009 228.96 
L 367.386009 7.2 
L 32.586009 7.2 
z
" style="fill: #ffffff"/>
   </g>
   <g id="matplotlib.axis_1">
    <g id="xtick_1">
     <g id="line2d_1">
      <defs>
       <path id="md6fbd4afd2" d="M 0 0 
L 0 3.5 
" style="stroke: #000000; stroke-width: 0.8"/>
      </defs>
      <g>
       <use xlink:href="#md6fbd4afd2" x="47.804191" y="228.96" style="stroke: #000000; stroke-width: 0.8"/>
      </g>
     </g>
     <g id="text_1">
      <!-- $\mathdefault{0}$ -->
      <g transform="translate(45.313523 243.05832) scale(0.1 -0.1)">
       <defs>
        <path id="CMR17-30" d="M 2688 2038 
C 2688 2430 2682 3099 2413 3613 
C 2176 4063 1798 4224 1466 4224 
C 1158 4224 768 4082 525 3620 
C 269 3137 243 2539 243 2038 
C 243 1671 250 1112 448 623 
C 723 -39 1216 -128 1466 -128 
C 1760 -128 2208 -7 2470 604 
C 2662 1048 2688 1568 2688 2038 
z
M 1466 -26 
C 1056 -26 813 328 723 816 
C 653 1196 653 1749 653 2109 
C 653 2604 653 3015 736 3407 
C 858 3954 1216 4121 1466 4121 
C 1728 4121 2067 3947 2189 3420 
C 2272 3054 2278 2623 2278 2109 
C 2278 1691 2278 1176 2202 797 
C 2067 96 1690 -26 1466 -26 
z
" transform="scale(0.015625)"/>
       </defs>
       <use xlink:href="#CMR17-30" transform="scale(0.996264)"/>
      </g>
     </g>
    </g>
    <g id="xtick_2">
     <g id="line2d_2">
      <g>
       <use xlink:href="#md6fbd4afd2" x="102.842823" y="228.96" style="stroke: #000000; stroke-width: 0.8"/>
      </g>
     </g>
     <g id="text_2">
      <!-- $\mathdefault{500}$ -->
      <g transform="translate(95.37082 243.05832) scale(0.1 -0.1)">
       <defs>
        <path id="CMR17-35" d="M 730 3750 
C 794 3724 1056 3641 1325 3641 
C 1920 3641 2246 3961 2432 4140 
C 2432 4191 2432 4224 2394 4224 
C 2387 4224 2374 4224 2323 4198 
C 2099 4102 1837 4032 1517 4032 
C 1325 4032 1037 4055 723 4191 
C 653 4224 640 4224 634 4224 
C 602 4224 595 4217 595 4090 
L 595 2231 
C 595 2113 595 2080 659 2080 
C 691 2080 704 2093 736 2139 
C 941 2435 1222 2560 1542 2560 
C 1766 2560 2246 2415 2246 1293 
C 2246 1087 2246 716 2054 422 
C 1894 159 1645 25 1370 25 
C 947 25 518 319 403 812 
C 429 806 480 793 506 793 
C 589 793 749 838 749 1036 
C 749 1209 627 1280 506 1280 
C 358 1280 262 1190 262 1011 
C 262 454 704 -128 1382 -128 
C 2042 -128 2669 441 2669 1267 
C 2669 2054 2170 2662 1549 2662 
C 1222 2662 947 2540 730 2304 
L 730 3750 
z
" transform="scale(0.015625)"/>
       </defs>
       <use xlink:href="#CMR17-35" transform="scale(0.996264)"/>
       <use xlink:href="#CMR17-30" transform="translate(45.690477 0) scale(0.996264)"/>
       <use xlink:href="#CMR17-30" transform="translate(91.380954 0) scale(0.996264)"/>
      </g>
     </g>
    </g>
    <g id="xtick_3">
     <g id="line2d_3">
      <g>
       <use xlink:href="#md6fbd4afd2" x="157.881455" y="228.96" style="stroke: #000000; stroke-width: 0.8"/>
      </g>
     </g>
     <g id="text_3">
      <!-- $\mathdefault{1000}$ -->
      <g transform="translate(147.918785 243.05832) scale(0.1 -0.1)">
       <defs>
        <path id="CMR17-31" d="M 1702 4083 
C 1702 4217 1696 4224 1606 4224 
C 1357 3927 979 3833 621 3820 
C 602 3820 570 3820 563 3808 
C 557 3795 557 3782 557 3648 
C 755 3648 1088 3686 1344 3839 
L 1344 467 
C 1344 243 1331 166 781 166 
L 589 166 
L 589 0 
C 896 6 1216 12 1523 12 
C 1830 12 2150 6 2458 0 
L 2458 166 
L 2266 166 
C 1715 166 1702 236 1702 467 
L 1702 4083 
z
" transform="scale(0.015625)"/>
       </defs>
       <use xlink:href="#CMR17-31" transform="scale(0.996264)"/>
       <use xlink:href="#CMR17-30" transform="translate(45.690477 0) scale(0.996264)"/>
       <use xlink:href="#CMR17-30" transform="translate(91.380954 0) scale(0.996264)"/>
       <use xlink:href="#CMR17-30" transform="translate(137.071431 0) scale(0.996264)"/>
      </g>
     </g>
    </g>
    <g id="xtick_4">
     <g id="line2d_4">
      <g>
       <use xlink:href="#md6fbd4afd2" x="212.920088" y="228.96" style="stroke: #000000; stroke-width: 0.8"/>
      </g>
     </g>
     <g id="text_4">
      <!-- $\mathdefault{1500}$ -->
      <g transform="translate(202.957417 243.05832) scale(0.1 -0.1)">
       <use xlink:href="#CMR17-31" transform="scale(0.996264)"/>
       <use xlink:href="#CMR17-35" transform="translate(45.690477 0) scale(0.996264)"/>
       <use xlink:href="#CMR17-30" transform="translate(91.380954 0) scale(0.996264)"/>
       <use xlink:href="#CMR17-30" transform="translate(137.071431 0) scale(0.996264)"/>
      </g>
     </g>
    </g>
    <g id="xtick_5">
     <g id="line2d_5">
      <g>
       <use xlink:href="#md6fbd4afd2" x="267.95872" y="228.96" style="stroke: #000000; stroke-width: 0.8"/>
      </g>
     </g>
     <g id="text_5">
      <!-- $\mathdefault{2000}$ -->
      <g transform="translate(257.996049 243.05832) scale(0.1 -0.1)">
       <defs>
        <path id="CMR17-32" d="M 2669 990 
L 2554 990 
C 2490 537 2438 460 2413 422 
C 2381 371 1920 371 1830 371 
L 602 371 
C 832 620 1280 1073 1824 1596 
C 2214 1966 2669 2400 2669 3033 
C 2669 3788 2067 4224 1395 4224 
C 691 4224 262 3603 262 3027 
C 262 2777 448 2745 525 2745 
C 589 2745 781 2783 781 3007 
C 781 3206 614 3264 525 3264 
C 486 3264 448 3257 422 3244 
C 544 3788 915 4057 1306 4057 
C 1862 4057 2227 3616 2227 3033 
C 2227 2477 1901 1998 1536 1583 
L 262 147 
L 262 0 
L 2515 0 
L 2669 990 
z
" transform="scale(0.015625)"/>
       </defs>
       <use xlink:href="#CMR17-32" transform="scale(0.996264)"/>
       <use xlink:href="#CMR17-30" transform="translate(45.690477 0) scale(0.996264)"/>
       <use xlink:href="#CMR17-30" transform="translate(91.380954 0) scale(0.996264)"/>
       <use xlink:href="#CMR17-30" transform="translate(137.071431 0) scale(0.996264)"/>
      </g>
     </g>
    </g>
    <g id="xtick_6">
     <g id="line2d_6">
      <g>
       <use xlink:href="#md6fbd4afd2" x="322.997352" y="228.96" style="stroke: #000000; stroke-width: 0.8"/>
      </g>
     </g>
     <g id="text_6">
      <!-- $\mathdefault{2500}$ -->
      <g transform="translate(313.034682 243.05832) scale(0.1 -0.1)">
       <use xlink:href="#CMR17-32" transform="scale(0.996264)"/>
       <use xlink:href="#CMR17-35" transform="translate(45.690477 0) scale(0.996264)"/>
       <use xlink:href="#CMR17-30" transform="translate(91.380954 0) scale(0.996264)"/>
       <use xlink:href="#CMR17-30" transform="translate(137.071431 0) scale(0.996264)"/>
      </g>
     </g>
    </g>
    <g id="text_7">
     <!-- Iteration -->
     <g transform="translate(182.038633 256.278627) scale(0.1 -0.1)">
      <defs>
       <path id="NimbusSanL-Regu-49" d="M 1242 4672 
L 640 4672 
L 640 0 
L 1242 0 
L 1242 4672 
z
" transform="scale(0.015625)"/>
       <path id="NimbusSanL-Regu-74" d="M 1626 3328 
L 1075 3328 
L 1075 4249 
L 544 4249 
L 544 3328 
L 90 3328 
L 90 2892 
L 544 2892 
L 544 402 
C 544 64 774 -128 1190 -128 
C 1318 -128 1446 -116 1626 -84 
L 1626 364 
C 1555 345 1472 339 1370 339 
C 1139 339 1075 402 1075 634 
L 1075 2892 
L 1626 2892 
L 1626 3328 
z
" transform="scale(0.015625)"/>
       <path id="NimbusSanL-Regu-65" d="M 3283 1484 
C 3283 1998 3245 2311 3149 2565 
C 2931 3123 2419 3456 1792 3456 
C 858 3456 256 2734 256 1619 
C 256 545 838 -128 1779 -128 
C 2547 -128 3078 307 3213 1018 
L 2675 1018 
C 2528 588 2227 364 1798 364 
C 1459 364 1171 514 992 787 
C 864 974 819 1161 813 1484 
L 3283 1484 
z
M 826 1920 
C 870 2552 1248 2963 1786 2963 
C 2310 2963 2714 2519 2714 1959 
C 2714 1946 2714 1933 2707 1920 
L 826 1920 
z
" transform="scale(0.015625)"/>
       <path id="NimbusSanL-Regu-72" d="M 442 3328 
L 442 0 
L 979 0 
L 979 1727 
C 979 2203 1101 2514 1357 2698 
C 1523 2819 1683 2857 2054 2863 
L 2054 3404 
C 1965 3449 1920 3456 1850 3456 
C 1504 3456 1242 3251 934 2750 
L 934 3328 
L 442 3328 
z
" transform="scale(0.015625)"/>
       <path id="NimbusSanL-Regu-61" d="M 3424 332 
C 3366 320 3341 320 3309 320 
C 3123 320 3021 415 3021 581 
L 3021 2542 
C 3021 3135 2586 3456 1760 3456 
C 1274 3456 870 3315 646 3065 
C 493 2893 429 2702 416 2370 
L 954 2370 
C 998 2778 1242 2963 1741 2963 
C 2221 2963 2490 2784 2490 2466 
L 2490 2326 
C 2490 2103 2355 2007 1933 1956 
C 1178 1861 1062 1835 858 1753 
C 467 1593 269 1294 269 861 
C 269 256 691 -128 1370 -128 
C 1792 -128 2131 19 2509 364 
C 2547 25 2714 -128 3059 -128 
C 3168 -128 3251 -116 3424 -71 
L 3424 332 
z
M 2490 1071 
C 2490 893 2438 785 2278 638 
C 2061 441 1798 339 1485 339 
C 1069 339 826 536 826 874 
C 826 1224 1062 1402 1632 1485 
C 2195 1562 2310 1587 2490 1670 
L 2490 1071 
z
" transform="scale(0.015625)"/>
       <path id="NimbusSanL-Regu-69" d="M 960 3358 
L 429 3358 
L 429 0 
L 960 0 
L 960 3358 
z
M 960 4672 
L 422 4672 
L 422 3999 
L 960 3999 
L 960 4672 
z
" transform="scale(0.015625)"/>
       <path id="NimbusSanL-Regu-6f" d="M 1741 3456 
C 800 3456 230 2784 230 1663 
C 230 543 794 -128 1747 -128 
C 2688 -128 3264 543 3264 1638 
C 3264 2791 2707 3456 1741 3456 
z
M 1747 2963 
C 2349 2963 2707 2472 2707 1644 
C 2707 861 2336 364 1747 364 
C 1152 364 787 855 787 1663 
C 787 2466 1152 2963 1747 2963 
z
" transform="scale(0.015625)"/>
       <path id="NimbusSanL-Regu-6e" d="M 448 3328 
L 448 0 
L 986 0 
L 986 1835 
C 986 2539 1344 2988 1894 2988 
C 2317 2988 2586 2732 2586 2328 
L 2586 0 
L 3117 0 
L 3117 2539 
C 3117 3097 2701 3456 2054 3456 
C 1555 3456 1235 3263 941 2796 
L 941 3328 
L 448 3328 
z
" transform="scale(0.015625)"/>
      </defs>
      <use xlink:href="#NimbusSanL-Regu-49" transform="scale(0.996264)"/>
      <use xlink:href="#NimbusSanL-Regu-74" transform="translate(27.69517 0) scale(0.996264)"/>
      <use xlink:href="#NimbusSanL-Regu-65" transform="translate(55.390339 0) scale(0.996264)"/>
      <use xlink:href="#NimbusSanL-Regu-72" transform="translate(110.782016 0) scale(0.996264)"/>
      <use xlink:href="#NimbusSanL-Regu-61" transform="translate(142.961149 0) scale(0.996264)"/>
      <use xlink:href="#NimbusSanL-Regu-74" transform="translate(198.352826 0) scale(0.996264)"/>
      <use xlink:href="#NimbusSanL-Regu-69" transform="translate(226.047996 0) scale(0.996264)"/>
      <use xlink:href="#NimbusSanL-Regu-6f" transform="translate(248.16478 0) scale(0.996264)"/>
      <use xlink:href="#NimbusSanL-Regu-6e" transform="translate(303.556457 0) scale(0.996264)"/>
     </g>
    </g>
   </g>
   <g id="matplotlib.axis_2">
    <g id="ytick_1">
     <g id="line2d_7">
      <defs>
       <path id="m359f2d7f28" d="M 0 0 
L -3.5 0 
" style="stroke: #000000; stroke-width: 0.8"/>
      </defs>
      <g>
       <use xlink:href="#m359f2d7f28" x="32.586009" y="202.953701" style="stroke: #000000; stroke-width: 0.8"/>
      </g>
     </g>
     <g id="text_8">
      <!-- $\mathdefault{0}$ -->
      <g transform="translate(20.604674 206.502861) scale(0.1 -0.1)">
       <use xlink:href="#CMR17-30" transform="scale(0.996264)"/>
      </g>
     </g>
    </g>
    <g id="ytick_2">
     <g id="line2d_8">
      <g>
       <use xlink:href="#m359f2d7f28" x="32.586009" y="171.427101" style="stroke: #000000; stroke-width: 0.8"/>
      </g>
     </g>
     <g id="text_9">
      <!-- $\mathdefault{1}$ -->
      <g transform="translate(20.604674 174.976261) scale(0.1 -0.1)">
       <use xlink:href="#CMR17-31" transform="scale(0.996264)"/>
      </g>
     </g>
    </g>
    <g id="ytick_3">
     <g id="line2d_9">
      <g>
       <use xlink:href="#m359f2d7f28" x="32.586009" y="139.900501" style="stroke: #000000; stroke-width: 0.8"/>
      </g>
     </g>
     <g id="text_10">
      <!-- $\mathdefault{2}$ -->
      <g transform="translate(20.604674 143.449662) scale(0.1 -0.1)">
       <use xlink:href="#CMR17-32" transform="scale(0.996264)"/>
      </g>
     </g>
    </g>
    <g id="ytick_4">
     <g id="line2d_10">
      <g>
       <use xlink:href="#m359f2d7f28" x="32.586009" y="108.373902" style="stroke: #000000; stroke-width: 0.8"/>
      </g>
     </g>
     <g id="text_11">
      <!-- $\mathdefault{3}$ -->
      <g transform="translate(20.604674 111.923062) scale(0.1 -0.1)">
       <defs>
        <path id="CMR17-33" d="M 1414 2176 
C 1984 2176 2234 1673 2234 1094 
C 2234 322 1824 25 1453 25 
C 1114 25 563 193 390 691 
C 422 678 454 678 486 678 
C 640 678 755 780 755 947 
C 755 1132 614 1216 486 1216 
C 378 1216 211 1164 211 927 
C 211 335 787 -128 1466 -128 
C 2176 -128 2720 432 2720 1087 
C 2720 1718 2208 2176 1600 2246 
C 2086 2347 2554 2776 2554 3353 
C 2554 3856 2048 4224 1472 4224 
C 890 4224 378 3862 378 3347 
C 378 3123 544 3084 627 3084 
C 762 3084 877 3167 877 3334 
C 877 3500 762 3584 627 3584 
C 602 3584 570 3584 544 3571 
C 730 3999 1235 4076 1459 4076 
C 1683 4076 2106 3966 2106 3347 
C 2106 3167 2080 2851 1862 2574 
C 1670 2329 1453 2316 1242 2297 
C 1210 2297 1062 2284 1037 2284 
C 992 2278 966 2272 966 2227 
C 966 2182 973 2176 1101 2176 
L 1414 2176 
z
" transform="scale(0.015625)"/>
       </defs>
       <use xlink:href="#CMR17-33" transform="scale(0.996264)"/>
      </g>
     </g>
    </g>
    <g id="ytick_5">
     <g id="line2d_11">
      <g>
       <use xlink:href="#m359f2d7f28" x="32.586009" y="76.847302" style="stroke: #000000; stroke-width: 0.8"/>
      </g>
     </g>
     <g id="text_12">
      <!-- $\mathdefault{4}$ -->
      <g transform="translate(20.604674 80.396462) scale(0.1 -0.1)">
       <defs>
        <path id="CMR17-34" d="M 2150 4147 
C 2150 4281 2144 4288 2029 4288 
L 128 1254 
L 128 1088 
L 1779 1088 
L 1779 460 
C 1779 230 1766 166 1318 166 
L 1197 166 
L 1197 0 
C 1402 12 1747 12 1965 12 
C 2182 12 2528 12 2733 0 
L 2733 166 
L 2611 166 
C 2163 166 2150 230 2150 460 
L 2150 1088 
L 2803 1088 
L 2803 1254 
L 2150 1254 
L 2150 4147 
z
M 1798 3723 
L 1798 1254 
L 256 1254 
L 1798 3723 
z
" transform="scale(0.015625)"/>
       </defs>
       <use xlink:href="#CMR17-34" transform="scale(0.996264)"/>
      </g>
     </g>
    </g>
    <g id="ytick_6">
     <g id="line2d_12">
      <g>
       <use xlink:href="#m359f2d7f28" x="32.586009" y="45.320702" style="stroke: #000000; stroke-width: 0.8"/>
      </g>
     </g>
     <g id="text_13">
      <!-- $\mathdefault{5}$ -->
      <g transform="translate(20.604674 48.869863) scale(0.1 -0.1)">
       <use xlink:href="#CMR17-35" transform="scale(0.996264)"/>
      </g>
     </g>
    </g>
    <g id="ytick_7">
     <g id="line2d_13">
      <g>
       <use xlink:href="#m359f2d7f28" x="32.586009" y="13.794103" style="stroke: #000000; stroke-width: 0.8"/>
      </g>
     </g>
     <g id="text_14">
      <!-- $\mathdefault{6}$ -->
      <g transform="translate(20.604674 17.343263) scale(0.1 -0.1)">
       <defs>
        <path id="CMR17-36" d="M 678 2198 
C 678 3712 1395 4076 1811 4076 
C 1946 4076 2272 4049 2400 3782 
C 2298 3782 2106 3782 2106 3558 
C 2106 3385 2246 3328 2336 3328 
C 2394 3328 2566 3353 2566 3571 
C 2566 3987 2246 4224 1805 4224 
C 1043 4224 243 3411 243 2011 
C 243 257 966 -128 1478 -128 
C 2099 -128 2688 431 2688 1295 
C 2688 2101 2170 2688 1517 2688 
C 1126 2688 838 2430 678 1979 
L 678 2198 
z
M 1478 25 
C 691 25 691 1212 691 1450 
C 691 1914 909 2585 1504 2585 
C 1613 2585 1926 2585 2138 2140 
C 2253 1889 2253 1624 2253 1302 
C 2253 954 2253 696 2118 438 
C 1978 173 1773 25 1478 25 
z
" transform="scale(0.015625)"/>
       </defs>
       <use xlink:href="#CMR17-36" transform="scale(0.996264)"/>
      </g>
     </g>
    </g>
    <g id="text_15">
     <!-- Aerodynamic Coefficients - Blade_0 -->
     <g transform="translate(14.482687 196.280864) rotate(-90) scale(0.1 -0.1)">
      <defs>
       <path id="NimbusSanL-Regu-41" d="M 3034 1408 
L 3514 0 
L 4179 0 
L 2541 4672 
L 1773 4672 
L 109 0 
L 742 0 
L 1235 1408 
L 3034 1408 
z
M 2867 1907 
L 1382 1907 
L 2150 4032 
L 2867 1907 
z
" transform="scale(0.015625)"/>
       <path id="NimbusSanL-Regu-64" d="M 3168 4672 
L 2637 4672 
L 2637 2937 
C 2413 3276 2054 3456 1606 3456 
C 736 3456 166 2759 166 1695 
C 166 568 723 -128 1626 -128 
C 2086 -128 2406 44 2694 460 
L 2694 19 
L 3168 19 
L 3168 4672 
z
M 1696 2956 
C 2272 2956 2637 2447 2637 1651 
C 2637 880 2266 371 1702 371 
C 1114 371 723 887 723 1663 
C 723 2440 1114 2956 1696 2956 
z
" transform="scale(0.015625)"/>
       <path id="NimbusSanL-Regu-79" d="M 2483 3328 
L 1555 724 
L 698 3328 
L 128 3328 
L 1261 -29 
L 1056 -558 
C 973 -794 851 -884 627 -884 
C 550 -884 461 -871 346 -845 
L 346 -1325 
C 454 -1383 563 -1408 704 -1408 
C 877 -1408 1062 -1351 1203 -1248 
C 1370 -1127 1466 -986 1568 -718 
L 3059 3328 
L 2483 3328 
z
" transform="scale(0.015625)"/>
       <path id="NimbusSanL-Regu-6d" d="M 448 3328 
L 448 0 
L 986 0 
L 986 2089 
C 986 2597 1338 2988 1773 2988 
C 2170 2988 2394 2744 2394 2315 
L 2394 0 
L 2931 0 
L 2931 2109 
C 2931 2597 3283 2988 3718 2988 
C 4109 2988 4339 2738 4339 2315 
L 4339 0 
L 4877 0 
L 4877 2520 
C 4877 3123 4531 3456 3904 3456 
C 3456 3456 3187 3321 2874 2943 
C 2675 3302 2406 3456 1971 3456 
C 1523 3456 1229 3289 941 2886 
L 941 3328 
L 448 3328 
z
" transform="scale(0.015625)"/>
       <path id="NimbusSanL-Regu-63" d="M 3014 2237 
C 2989 2561 2918 2771 2790 2956 
C 2560 3270 2157 3456 1690 3456 
C 787 3456 198 2740 198 1632 
C 198 555 774 -128 1683 -128 
C 2483 -128 2989 352 3053 1167 
L 2515 1167 
C 2426 632 2150 364 1696 364 
C 1107 364 755 842 755 1632 
C 755 2466 1101 2963 1683 2963 
C 2131 2963 2413 2701 2477 2237 
L 3014 2237 
z
" transform="scale(0.015625)"/>
       <path id="NimbusSanL-Regu-43" d="M 4237 3219 
C 4051 4236 3462 4736 2438 4736 
C 1811 4736 1306 4537 960 4154 
C 538 3696 307 3035 307 2284 
C 307 1522 544 867 986 415 
C 1344 44 1805 -128 2413 -128 
C 3552 -128 4192 485 4333 1712 
L 3718 1712 
C 3667 1394 3603 1178 3507 994 
C 3315 612 2918 396 2419 396 
C 1491 396 902 1134 902 2291 
C 902 3480 1466 4211 2368 4211 
C 2746 4211 3098 4096 3290 3918 
C 3462 3759 3558 3562 3629 3219 
L 4237 3219 
z
" transform="scale(0.015625)"/>
       <path id="NimbusSanL-Regu-66" d="M 1651 3328 
L 1094 3328 
L 1094 3860 
C 1094 4087 1222 4204 1466 4204 
C 1510 4204 1530 4204 1651 4198 
L 1651 4639 
C 1530 4665 1459 4672 1350 4672 
C 858 4672 563 4390 563 3905 
L 563 3328 
L 115 3328 
L 115 2892 
L 563 2892 
L 563 0 
L 1094 0 
L 1094 2892 
L 1651 2892 
L 1651 3328 
z
" transform="scale(0.015625)"/>
       <path id="NimbusSanL-Regu-2" d="M 1613 3328 
L 1056 3328 
L 1056 3860 
C 1056 4087 1184 4204 1427 4204 
C 1472 4204 1491 4204 1613 4198 
L 1613 4639 
C 1491 4665 1421 4672 1312 4672 
C 819 4672 525 4390 525 3905 
L 525 3328 
L 77 3328 
L 77 2892 
L 525 2892 
L 525 0 
L 1056 0 
L 1056 2892 
L 1613 2892 
L 1613 3328 
z
M 2790 3328 
L 2259 3328 
L 2259 0 
L 2790 0 
L 2790 3328 
z
M 2790 4672 
L 2259 4672 
L 2259 3999 
L 2790 3999 
L 2790 4672 
z
" transform="scale(0.015625)"/>
       <path id="NimbusSanL-Regu-73" d="M 2803 2428 
C 2797 3084 2362 3456 1587 3456 
C 806 3456 301 3052 301 2434 
C 301 1912 570 1663 1363 1472 
L 1862 1351 
C 2234 1262 2381 1129 2381 887 
C 2381 574 2067 364 1600 364 
C 1312 364 1069 447 934 587 
C 851 683 813 778 781 1014 
L 218 1014 
C 243 243 678 -128 1555 -128 
C 2400 -128 2938 288 2938 931 
C 2938 1428 2656 1702 1990 1861 
L 1478 1982 
C 1043 2084 858 2224 858 2459 
C 858 2765 1133 2963 1568 2963 
C 1997 2963 2227 2778 2240 2428 
L 2803 2428 
z
" transform="scale(0.015625)"/>
       <path id="NimbusSanL-Regu-2d" d="M 1818 1996 
L 294 1996 
L 294 1536 
L 1818 1536 
L 1818 1996 
z
" transform="scale(0.015625)"/>
       <path id="NimbusSanL-Regu-42" d="M 506 0 
L 2611 0 
C 3053 0 3379 121 3629 390 
C 3859 632 3987 961 3987 1321 
C 3987 1878 3731 2214 3136 2444 
C 3558 2643 3782 2994 3782 3476 
C 3782 3821 3654 4127 3411 4345 
C 3168 4569 2848 4672 2400 4672 
L 506 4672 
L 506 0 
z
M 1101 2636 
L 1101 4147 
L 2253 4147 
C 2586 4147 2771 4101 2931 3977 
C 3098 3847 3187 3652 3187 3391 
C 3187 3138 3098 2936 2931 2806 
C 2771 2682 2586 2636 2253 2636 
L 1101 2636 
z
M 1101 524 
L 1101 2112 
L 2554 2112 
C 2842 2112 3034 2042 3174 1890 
C 3315 1745 3392 1542 3392 1315 
C 3392 1093 3315 891 3174 746 
C 3034 594 2842 524 2554 524 
L 1101 524 
z
" transform="scale(0.015625)"/>
       <path id="NimbusSanL-Regu-6c" d="M 973 4672 
L 435 4672 
L 435 0 
L 973 0 
L 973 4672 
z
" transform="scale(0.015625)"/>
       <path id="NimbusSanL-Regu-30" d="M 1760 4544 
C 1338 4544 954 4358 717 4044 
C 422 3649 275 3043 275 2207 
C 275 683 787 -128 1760 -128 
C 2720 -128 3245 683 3245 2169 
C 3245 3049 3104 3636 2803 4044 
C 2566 4364 2189 4544 1760 4544 
z
M 1760 4044 
C 2368 4044 2669 3432 2669 2220 
C 2669 938 2374 339 1747 339 
C 1152 339 851 964 851 2201 
C 851 3438 1152 4044 1760 4044 
z
" transform="scale(0.015625)"/>
      </defs>
      <use xlink:href="#NimbusSanL-Regu-41" transform="scale(0.996264)"/>
      <use xlink:href="#NimbusSanL-Regu-65" transform="translate(66.450031 0) scale(0.996264)"/>
      <use xlink:href="#NimbusSanL-Regu-72" transform="translate(121.841708 0) scale(0.996264)"/>
      <use xlink:href="#NimbusSanL-Regu-6f" transform="translate(155.016938 0) scale(0.996264)"/>
      <use xlink:href="#NimbusSanL-Regu-64" transform="translate(210.408615 0) scale(0.996264)"/>
      <use xlink:href="#NimbusSanL-Regu-79" transform="translate(265.800292 0) scale(0.996264)"/>
      <use xlink:href="#NimbusSanL-Regu-6e" transform="translate(315.613492 0) scale(0.996264)"/>
      <use xlink:href="#NimbusSanL-Regu-61" transform="translate(371.005169 0) scale(0.996264)"/>
      <use xlink:href="#NimbusSanL-Regu-6d" transform="translate(426.396846 0) scale(0.996264)"/>
      <use xlink:href="#NimbusSanL-Regu-69" transform="translate(509.385276 0) scale(0.996264)"/>
      <use xlink:href="#NimbusSanL-Regu-63" transform="translate(531.502061 0) scale(0.996264)"/>
      <use xlink:href="#NimbusSanL-Regu-43" transform="translate(609.010431 0) scale(0.996264)"/>
      <use xlink:href="#NimbusSanL-Regu-6f" transform="translate(680.940416 0) scale(0.996264)"/>
      <use xlink:href="#NimbusSanL-Regu-65" transform="translate(736.332093 0) scale(0.996264)"/>
      <use xlink:href="#NimbusSanL-Regu-66" transform="translate(791.72377 0) scale(0.996264)"/>
      <use xlink:href="#NimbusSanL-Regu-2" transform="translate(819.418939 0) scale(0.996264)"/>
      <use xlink:href="#NimbusSanL-Regu-63" transform="translate(869.23214 0) scale(0.996264)"/>
      <use xlink:href="#NimbusSanL-Regu-69" transform="translate(919.04534 0) scale(0.996264)"/>
      <use xlink:href="#NimbusSanL-Regu-65" transform="translate(941.162125 0) scale(0.996264)"/>
      <use xlink:href="#NimbusSanL-Regu-6e" transform="translate(996.553802 0) scale(0.996264)"/>
      <use xlink:href="#NimbusSanL-Regu-74" transform="translate(1051.945479 0) scale(0.996264)"/>
      <use xlink:href="#NimbusSanL-Regu-73" transform="translate(1079.640648 0) scale(0.996264)"/>
      <use xlink:href="#NimbusSanL-Regu-2d" transform="translate(1157.149018 0) scale(0.996264)"/>
      <use xlink:href="#NimbusSanL-Regu-42" transform="translate(1218.019418 0) scale(0.996264)"/>
      <use xlink:href="#NimbusSanL-Regu-6c" transform="translate(1284.469449 0) scale(0.996264)"/>
      <use xlink:href="#NimbusSanL-Regu-61" transform="translate(1306.586233 0) scale(0.996264)"/>
      <use xlink:href="#NimbusSanL-Regu-64" transform="translate(1361.97791 0) scale(0.996264)"/>
      <use xlink:href="#NimbusSanL-Regu-65" transform="translate(1417.369587 0) scale(0.996264)"/>
      <use xlink:href="#NimbusSanL-Regu-30" transform="translate(1508.626829 0) scale(0.996264)"/>
      <path d="M 1478.738605 0 
L 1508.626829 0 
L 1508.626829 0.3985 
L 1478.738605 0.3985 
L 1478.738605 0 
z
"/>
     </g>
    </g>
   </g>
   <g id="line2d_14">
    <path d="M 47.804191 159.477363 
L 48.2445 34.977086 
L 48.574732 17.28 
L 48.684809 18.144505 
L 49.345273 39.051486 
L 49.45535 38.845771 
L 49.565427 39.211172 
L 49.785582 40.810199 
L 50.005736 41.217429 
L 50.335968 42.695888 
L 50.6662 45.695468 
L 50.886354 49.662812 
L 51.106509 57.624612 
L 51.436741 75.780599 
L 51.656895 77.967611 
L 51.87705 81.977906 
L 52.207282 93.846118 
L 52.537513 119.333804 
L 52.757668 133.622 
L 52.977822 136.497881 
L 53.197977 141.478647 
L 53.528209 155.617056 
L 54.29875 198.610015 
L 54.518904 199.606788 
L 54.739059 201.366485 
L 55.06929 206.564143 
L 55.509599 213.518793 
L 55.619677 213.262954 
L 56.170063 213.588453 
L 56.390218 213.960243 
L 56.720449 214.763025 
L 56.830527 214.534695 
L 57.050681 212.073061 
L 57.270836 209.616977 
L 57.601067 208.914395 
L 57.931299 207.700109 
L 58.261531 205.58876 
L 58.591763 201.645547 
L 58.811917 199.380918 
L 59.142149 198.6312 
L 59.362304 197.684458 
L 59.582458 195.955386 
L 59.802613 192.670498 
L 60.132845 182.508113 
L 60.352999 177.201469 
L 60.683231 175.591462 
L 61.013463 172.364442 
L 61.343694 167.106288 
L 61.563849 161.676271 
L 61.784004 157.17762 
L 62.004158 156.409161 
L 62.224313 155.041339 
L 62.444467 152.568747 
L 62.664622 148.144699 
L 63.104931 131.75731 
L 63.325085 128.222287 
L 63.765394 127.186769 
L 64.095626 126.555704 
L 64.205703 126.668248 
L 64.425858 127.841947 
L 64.976244 134.088144 
L 65.196399 135.977194 
L 65.416553 136.310681 
L 65.636708 136.963434 
L 65.856862 138.142427 
L 66.187094 141.61685 
L 66.407249 146.047626 
L 66.627403 149.563399 
L 66.847558 150.205121 
L 67.067712 151.343799 
L 67.397944 154.615947 
L 67.728176 160.608928 
L 68.168485 169.646783 
L 68.498717 170.670723 
L 68.828948 172.876219 
L 69.15918 176.819312 
L 69.489412 183.709443 
L 69.709567 188.013371 
L 69.929721 188.839554 
L 70.149876 190.296186 
L 70.480107 194.621056 
L 70.810339 203.039155 
L 71.140571 210.573847 
L 71.470803 211.665091 
L 71.801035 213.759585 
L 72.461498 218.88 
L 72.571575 218.580073 
L 72.79173 217.000231 
L 73.011885 215.27359 
L 73.232039 214.856796 
L 73.452194 214.08795 
L 73.782425 211.738521 
L 74.112657 207.15119 
L 74.442889 202.421703 
L 74.773121 201.394606 
L 75.103353 199.067176 
L 75.433584 194.586771 
L 76.094048 183.817202 
L 76.42428 182.543336 
L 76.754512 180.023528 
L 77.745207 169.918783 
L 77.965361 169.635002 
L 78.956057 169.606631 
L 79.176211 169.973998 
L 79.506443 170.870502 
L 79.836675 171.074051 
L 80.166907 171.529726 
L 80.497139 172.37394 
L 81.157602 174.461808 
L 81.707988 174.643406 
L 82.148297 175.078835 
L 82.588607 175.970232 
L 83.028916 176.582694 
L 84.019611 176.469149 
L 84.45992 176.07221 
L 84.680075 175.895483 
L 85.230461 175.766619 
L 85.67077 175.383579 
L 86.331234 174.522841 
L 87.101774 174.238013 
L 87.872315 174.081299 
L 88.642856 173.947643 
L 88.973088 173.716036 
L 89.193242 173.52339 
L 89.743629 173.362922 
L 90.183938 172.990699 
L 90.624247 172.54124 
L 91.504865 172.315045 
L 91.945174 172.228313 
L 92.275406 172.276085 
L 92.935869 172.389481 
L 93.926565 172.733743 
L 95.467646 172.670337 
L 96.458342 172.697921 
L 96.678496 172.815965 
L 97.33896 172.971065 
L 97.669192 173.235206 
L 97.999424 173.795473 
L 98.439733 174.515004 
L 98.990119 174.68522 
L 99.430428 175.019258 
L 99.980814 175.475417 
L 100.531201 175.637868 
L 100.97151 176.020131 
L 101.191664 176.441198 
L 101.411819 176.808745 
L 101.852128 177.003793 
L 102.18236 177.352491 
L 102.512591 178.051918 
L 102.842823 178.832762 
L 103.283132 179.045621 
L 103.723441 179.530834 
L 104.493982 180.62098 
L 105.264523 180.866737 
L 105.704832 180.937988 
L 107.135837 180.227144 
L 107.686223 179.538429 
L 108.126532 179.340513 
L 108.456764 178.997906 
L 108.786995 178.318286 
L 109.117227 177.463821 
L 109.557536 177.213873 
L 109.887768 176.781583 
L 110.218 175.994391 
L 110.768386 174.359185 
L 111.208695 174.154936 
L 111.649004 173.712776 
L 112.199391 173.164509 
L 113.300163 173.172907 
L 113.520318 173.432206 
L 113.740472 173.701647 
L 114.290859 173.918274 
L 114.621091 174.279626 
L 114.951322 175.019575 
L 115.171477 175.431996 
L 115.611786 175.634943 
L 115.942018 175.980974 
L 116.272249 176.612899 
L 116.712559 177.637167 
L 117.262945 177.897427 
L 117.703254 178.393947 
L 118.25364 179.034568 
L 119.354413 179.096512 
L 119.904799 178.885191 
L 120.455186 178.692801 
L 120.785417 178.354829 
L 121.005572 177.899868 
L 121.225726 177.525959 
L 121.666035 177.337389 
L 121.996267 176.988735 
L 122.326499 176.312847 
L 122.986963 174.621202 
L 123.427272 174.307389 
L 123.757503 173.801799 
L 124.417967 172.62612 
L 124.968353 172.347256 
L 126.069126 171.498965 
L 127.059821 171.473121 
L 127.279976 171.564264 
L 128.050517 171.726427 
L 128.380749 171.976965 
L 128.931135 172.598859 
L 129.371444 172.77335 
L 129.811753 173.227635 
L 130.141985 173.883227 
L 130.362139 174.204203 
L 130.912526 174.421292 
L 131.352835 174.888143 
L 131.793144 175.492146 
L 132.453607 175.703771 
L 132.893916 176.072126 
L 133.334225 176.498063 
L 134.104766 176.672917 
L 134.875307 176.91646 
L 135.315616 176.763401 
L 135.755925 176.579262 
L 136.416389 176.422166 
L 136.856698 176.106747 
L 137.076852 175.963643 
L 137.737316 175.817852 
L 138.177625 175.514554 
L 138.617934 175.098257 
L 139.388475 174.910857 
L 140.37917 174.551865 
L 141.920252 174.637288 
L 142.80087 174.780849 
L 144.341952 175.294215 
L 145.002416 175.12931 
L 145.993111 174.814319 
L 146.763652 174.611785 
L 147.203961 174.480868 
L 148.194656 174.325866 
L 148.965197 174.213689 
L 151.056665 174.21162 
L 154.579138 174.757943 
L 155.569833 174.917439 
L 156.450451 174.839088 
L 157.661301 174.451007 
L 158.541919 174.256831 
L 159.422537 174.30025 
L 160.853542 174.424699 
L 162.94501 174.560115 
L 165.036478 174.3396 
L 166.797714 174.205287 
L 168.228718 174.255783 
L 168.889182 174.494142 
L 169.219414 174.571858 
L 170.100032 174.737845 
L 170.760495 174.930401 
L 171.641114 175.115152 
L 172.301577 175.312012 
L 173.292272 175.508755 
L 173.842659 175.582696 
L 176.154281 175.565931 
L 178.245749 175.084714 
L 179.786831 174.484057 
L 180.667449 174.376802 
L 181.548067 174.492146 
L 183.199226 174.790397 
L 187.822471 175.238199 
L 190.134094 175.150257 
L 190.904635 175.112404 
L 194.31703 174.800943 
L 195.748034 174.690085 
L 197.94958 174.550724 
L 201.692207 174.62548 
L 206.865838 174.965678 
L 210.938697 174.871413 
L 213.800706 174.727651 
L 216.992946 174.64259 
L 222.056501 174.742204 
L 228.661137 174.722379 
L 232.293686 174.678168 
L 242.640949 174.777862 
L 255.409912 174.792301 
L 264.216093 174.739566 
L 291.515255 174.627889 
L 323.107429 174.687875 
L 328.72137 174.779572 
L 348.4252 174.810418 
L 352.167827 174.79122 
L 352.167827 174.79122 
" clip-path="url(#p3e0b0a0089)" style="fill: none; stroke: #1f77b4; stroke-width: 1.5; stroke-linecap: square"/>
   </g>
   <g id="line2d_15">
    <path d="M 47.804191 186.931199 
L 48.134423 152.917463 
L 48.464655 150.169906 
L 48.574732 150.226408 
L 48.794886 151.831761 
L 49.125118 154.245172 
L 49.235195 154.252244 
L 49.565427 153.139847 
L 49.785582 152.664741 
L 50.225891 152.460919 
L 50.556123 152.023834 
L 50.886354 151.166185 
L 51.216586 150.231544 
L 51.436741 150.471505 
L 51.87705 150.73247 
L 52.097204 151.125768 
L 52.317359 151.997712 
L 52.537513 153.982359 
L 52.757668 155.764288 
L 53.0879 156.48593 
L 53.308054 157.47908 
L 53.638286 160.530988 
L 54.188672 167.928435 
L 54.518904 168.426691 
L 54.739059 169.115131 
L 54.959213 170.44156 
L 55.619677 175.616244 
L 55.949909 175.989088 
L 56.170063 176.471661 
L 56.390218 177.467209 
L 56.830527 181.506608 
L 57.270836 184.31508 
L 57.49099 184.635749 
L 57.711145 185.337897 
L 58.041377 187.631517 
L 58.591763 194.275969 
L 58.811917 195.796035 
L 59.032072 196.0372 
L 59.362304 196.849348 
L 59.802613 198.815259 
L 60.132845 201.435964 
L 60.352999 202.736774 
L 60.683231 203.118993 
L 61.013463 203.917216 
L 61.343694 204.839726 
L 61.453772 204.889118 
L 61.563849 204.440097 
L 61.784004 202.769433 
L 62.114235 202.029719 
L 62.33439 201.004674 
L 62.554544 198.994422 
L 62.774699 195.034769 
L 63.325085 180.621367 
L 63.765394 179.601009 
L 64.205703 178.266673 
L 64.646012 177.780733 
L 64.976244 175.40702 
L 65.196399 174.12244 
L 65.526631 173.683337 
L 65.856862 172.828743 
L 66.517326 170.585844 
L 67.287867 170.640189 
L 67.508021 170.917901 
L 67.728176 171.616367 
L 67.94833 173.053126 
L 68.168485 174.224435 
L 68.498717 174.602885 
L 68.828948 175.433683 
L 69.15918 177.081021 
L 69.489412 179.913031 
L 69.709567 181.245872 
L 70.039798 181.641228 
L 70.37003 182.42491 
L 70.700262 183.900399 
L 70.920416 185.617103 
L 71.140571 187.01787 
L 71.470803 187.465869 
L 71.801035 188.553282 
L 72.131266 190.763934 
L 73.011885 199.043399 
L 73.342116 199.296701 
L 73.782425 200.063808 
L 74.112657 200.602695 
L 74.222734 200.650563 
L 74.442889 200.49541 
L 74.883198 200.326656 
L 75.21343 199.921834 
L 75.433584 199.264479 
L 75.653739 197.942056 
L 75.983971 195.338724 
L 76.314202 194.834188 
L 76.644434 193.691232 
L 76.974666 191.526196 
L 77.855284 183.792198 
L 78.295593 183.64765 
L 79.176211 183.205775 
L 79.61652 183.741575 
L 80.056829 184.017199 
L 80.387061 184.549009 
L 80.717293 185.625902 
L 81.157602 187.247249 
L 81.707988 187.424066 
L 82.258375 187.872959 
L 82.588607 188.078708 
L 82.918838 187.900495 
L 83.24907 187.723222 
L 83.909534 187.634963 
L 84.349843 187.591539 
L 85.120384 187.790494 
L 85.67077 187.985215 
L 86.001002 188.245286 
L 86.221156 188.408161 
L 86.771543 188.535103 
L 87.211852 188.858456 
L 87.652161 189.202979 
L 88.863011 189.223027 
L 89.30332 188.939466 
L 89.853706 188.727874 
L 90.183938 188.3854 
L 90.734324 187.724807 
L 91.28471 187.493784 
L 92.385483 186.80272 
L 93.376178 186.849334 
L 93.926565 186.907197 
L 94.91726 186.880165 
L 95.247492 186.807429 
L 96.238187 186.62675 
L 96.898651 186.43363 
L 98.109501 186.250423 
L 98.659887 186.048924 
L 99.210273 185.873613 
L 99.540505 185.585953 
L 99.870737 185.247225 
L 100.531201 185.06346 
L 101.301741 184.780237 
L 102.18236 184.937038 
L 102.512591 185.268778 
L 102.842823 185.81695 
L 103.39321 186.070983 
L 103.723441 186.476447 
L 104.053673 187.292813 
L 104.383905 188.25764 
L 104.824214 188.524206 
L 105.154446 188.980479 
L 105.484678 189.771249 
L 106.035064 191.474599 
L 106.58545 191.626027 
L 107.576146 192.056454 
L 108.346686 191.938074 
L 108.676918 191.669161 
L 108.897073 191.245649 
L 109.117227 190.872563 
L 109.557536 190.674271 
L 109.887768 190.312999 
L 110.218 189.603437 
L 110.878464 187.856206 
L 111.318773 187.53587 
L 111.759082 186.820971 
L 112.199391 185.979277 
L 112.749777 185.771514 
L 113.300163 185.262049 
L 113.740472 184.88685 
L 115.83194 184.830692 
L 116.382327 185.042709 
L 116.822636 185.283568 
L 117.483099 185.452506 
L 117.923408 185.789962 
L 118.25364 186.087906 
L 119.024181 186.288343 
L 120.014876 186.72454 
L 121.005572 186.980251 
L 121.776113 187.006611 
L 122.436576 186.931744 
L 123.09704 186.701377 
L 123.757503 186.525577 
L 124.748199 186.07656 
L 125.298585 185.832374 
L 126.069126 185.346194 
L 126.619512 185.172342 
L 127.610208 184.73579 
L 128.380749 184.527262 
L 128.931135 184.412127 
L 130.141985 184.470494 
L 130.472217 184.540604 
L 131.242757 184.676859 
L 132.233453 185.001985 
L 132.893916 185.240116 
L 133.444303 185.496354 
L 134.214844 185.645349 
L 135.205539 185.90799 
L 136.746621 185.716645 
L 137.297007 185.60406 
L 138.177625 185.436076 
L 138.838089 185.268791 
L 141.369866 185.206805 
L 142.030329 185.313859 
L 142.80087 185.465891 
L 144.562106 186.126048 
L 145.332647 186.137765 
L 150.176047 185.588401 
L 153.368288 185.642391 
L 154.46906 185.775215 
L 156.010142 186.162635 
L 156.780683 186.100948 
L 158.982228 185.69286 
L 163.605473 186.06665 
L 166.13725 185.754717 
L 170.320186 185.436369 
L 178.135672 186.069072 
L 179.236445 185.956336 
L 182.64884 185.381302 
L 187.051931 185.47253 
L 188.26278 185.522453 
L 191.785253 185.73144 
L 197.399193 185.655298 
L 199.820893 185.531212 
L 205.214679 185.459246 
L 207.526302 185.521495 
L 217.213101 185.692099 
L 226.129359 185.568043 
L 258.71223 185.561393 
L 291.625332 185.565619 
L 352.167827 185.695516 
L 352.167827 185.695516 
" clip-path="url(#p3e0b0a0089)" style="fill: none; stroke: #ff7f0e; stroke-width: 1.5; stroke-linecap: square"/>
   </g>
   <g id="patch_3">
    <path d="M 32.586009 228.96 
L 32.586009 7.2 
" style="fill: none; stroke: #000000; stroke-width: 0.8; stroke-linejoin: miter; stroke-linecap: square"/>
   </g>
   <g id="patch_4">
    <path d="M 367.386009 228.96 
L 367.386009 7.2 
" style="fill: none; stroke: #000000; stroke-width: 0.8; stroke-linejoin: miter; stroke-linecap: square"/>
   </g>
   <g id="patch_5">
    <path d="M 32.586009 228.96 
L 367.386009 228.96 
" style="fill: none; stroke: #000000; stroke-width: 0.8; stroke-linejoin: miter; stroke-linecap: square"/>
   </g>
   <g id="patch_6">
    <path d="M 32.586009 7.2 
L 367.386009 7.2 
" style="fill: none; stroke: #000000; stroke-width: 0.8; stroke-linejoin: miter; stroke-linecap: square"/>
   </g>
   <g id="legend_1">
    <g id="patch_7">
     <path d="M 314.000015 43.640613 
L 360.386009 43.640613 
Q 362.386009 43.640613 362.386009 41.640613 
L 362.386009 14.2 
Q 362.386009 12.2 360.386009 12.2 
L 314.000015 12.2 
Q 312.000015 12.2 312.000015 14.2 
L 312.000015 41.640613 
Q 312.000015 43.640613 314.000015 43.640613 
z
" style="fill: #ffffff; opacity: 0.8; stroke: #cccccc; stroke-linejoin: miter"/>
    </g>
    <g id="line2d_16">
     <path d="M 316.000015 19.79832 
L 326.000015 19.79832 
L 336.000015 19.79832 
" style="fill: none; stroke: #1f77b4; stroke-width: 1.5; stroke-linecap: square"/>
    </g>
    <g id="text_16">
     <!-- CD -->
     <g transform="translate(344.000015 23.29832) scale(0.1 -0.1)">
      <defs>
       <path id="NimbusSanL-Regu-44" d="M 570 0 
L 2368 0 
C 3546 0 4269 883 4269 2339 
C 4269 3788 3552 4672 2368 4672 
L 570 4672 
L 570 0 
z
M 1165 524 
L 1165 4147 
L 2266 4147 
C 3187 4147 3674 3525 3674 2332 
C 3674 1153 3187 524 2266 524 
L 1165 524 
z
" transform="scale(0.015625)"/>
      </defs>
      <use xlink:href="#NimbusSanL-Regu-43" transform="scale(0.996264)"/>
      <use xlink:href="#NimbusSanL-Regu-44" transform="translate(71.929985 0) scale(0.996264)"/>
     </g>
    </g>
    <g id="line2d_17">
     <path d="M 316.000015 34.018627 
L 326.000015 34.018627 
L 336.000015 34.018627 
" style="fill: none; stroke: #ff7f0e; stroke-width: 1.5; stroke-linecap: square"/>
    </g>
    <g id="text_17">
     <!-- CL -->
     <g transform="translate(344.000015 37.518627) scale(0.1 -0.1)">
      <defs>
       <path id="NimbusSanL-Regu-4c" d="M 1107 4672 
L 512 4672 
L 512 0 
L 3411 0 
L 3411 524 
L 1107 524 
L 1107 4672 
z
" transform="scale(0.015625)"/>
      </defs>
      <use xlink:href="#NimbusSanL-Regu-43" transform="scale(0.996264)"/>
      <use xlink:href="#NimbusSanL-Regu-4c" transform="translate(71.929985 0) scale(0.996264)"/>
     </g>
    </g>
   </g>
  </g>
 </g>
 <defs>
  <clipPath id="p3e0b0a0089">
   <rect x="32.586009" y="7.2" width="334.8" height="221.76"/>
  </clipPath>
 </defs>
</svg>
