<?xml version="1.0" encoding="utf-8" standalone="no"?>
<!DOCTYPE svg PUBLIC "-//W3C//DTD SVG 1.1//EN"
  "http://www.w3.org/Graphics/SVG/1.1/DTD/svg11.dtd">
<svg xmlns:xlink="http://www.w3.org/1999/xlink" width="379.567344pt" height="265.600613pt" viewBox="0 0 379.567344 265.600613" xmlns="http://www.w3.org/2000/svg" version="1.1">
 <metadata>
  <rdf:RDF xmlns:dc="http://purl.org/dc/elements/1.1/" xmlns:cc="http://creativecommons.org/ns#" xmlns:rdf="http://www.w3.org/1999/02/22-rdf-syntax-ns#">
   <cc:Work>
    <dc:type rdf:resource="http://purl.org/dc/dcmitype/StillImage"/>
    <dc:date>2025-08-02T13:50:57.407399</dc:date>
    <dc:format>image/svg+xml</dc:format>
    <dc:creator>
     <cc:Agent>
      <dc:title>Matplotlib v3.10.3, https://matplotlib.org/</dc:title>
     </cc:Agent>
    </dc:creator>
   </cc:Work>
  </rdf:RDF>
 </metadata>
 <defs>
  <style type="text/css">*{stroke-linejoin: round; stroke-linecap: butt}</style>
 </defs>
 <g id="figure_1">
  <g id="patch_1">
   <path d="M 0 265.600613 
L 379.567344 265.600613 
L 379.567344 0 
L 0 0 
z
" style="fill: #ffffff"/>
  </g>
  <g id="axes_1">
   <g id="patch_2">
    <path d="M 37.567344 228.96 
L 372.367344 228.96 
L 372.367344 7.2 
L 37.567344 7.2 
z
" style="fill: #ffffff"/>
   </g>
   <g id="matplotlib.axis_1">
    <g id="xtick_1">
     <g id="line2d_1">
      <defs>
       <path id="m4e8bdb3d81" d="M 0 0 
L 0 3.5 
" style="stroke: #000000; stroke-width: 0.8"/>
      </defs>
      <g>
       <use xlink:href="#m4e8bdb3d81" x="52.785526" y="228.96" style="stroke: #000000; stroke-width: 0.8"/>
      </g>
     </g>
     <g id="text_1">
      <!-- $\mathdefault{0}$ -->
      <g transform="translate(50.294859 243.05832) scale(0.1 -0.1)">
       <defs>
        <path id="CMR17-30" d="M 2688 2038 
C 2688 2430 2682 3099 2413 3613 
C 2176 4063 1798 4224 1466 4224 
C 1158 4224 768 4082 525 3620 
C 269 3137 243 2539 243 2038 
C 243 1671 250 1112 448 623 
C 723 -39 1216 -128 1466 -128 
C 1760 -128 2208 -7 2470 604 
C 2662 1048 2688 1568 2688 2038 
z
M 1466 -26 
C 1056 -26 813 328 723 816 
C 653 1196 653 1749 653 2109 
C 653 2604 653 3015 736 3407 
C 858 3954 1216 4121 1466 4121 
C 1728 4121 2067 3947 2189 3420 
C 2272 3054 2278 2623 2278 2109 
C 2278 1691 2278 1176 2202 797 
C 2067 96 1690 -26 1466 -26 
z
" transform="scale(0.015625)"/>
       </defs>
       <use xlink:href="#CMR17-30" transform="scale(0.996264)"/>
      </g>
     </g>
    </g>
    <g id="xtick_2">
     <g id="line2d_2">
      <g>
       <use xlink:href="#m4e8bdb3d81" x="107.824158" y="228.96" style="stroke: #000000; stroke-width: 0.8"/>
      </g>
     </g>
     <g id="text_2">
      <!-- $\mathdefault{500}$ -->
      <g transform="translate(100.352156 243.05832) scale(0.1 -0.1)">
       <defs>
        <path id="CMR17-35" d="M 730 3750 
C 794 3724 1056 3641 1325 3641 
C 1920 3641 2246 3961 2432 4140 
C 2432 4191 2432 4224 2394 4224 
C 2387 4224 2374 4224 2323 4198 
C 2099 4102 1837 4032 1517 4032 
C 1325 4032 1037 4055 723 4191 
C 653 4224 640 4224 634 4224 
C 602 4224 595 4217 595 4090 
L 595 2231 
C 595 2113 595 2080 659 2080 
C 691 2080 704 2093 736 2139 
C 941 2435 1222 2560 1542 2560 
C 1766 2560 2246 2415 2246 1293 
C 2246 1087 2246 716 2054 422 
C 1894 159 1645 25 1370 25 
C 947 25 518 319 403 812 
C 429 806 480 793 506 793 
C 589 793 749 838 749 1036 
C 749 1209 627 1280 506 1280 
C 358 1280 262 1190 262 1011 
C 262 454 704 -128 1382 -128 
C 2042 -128 2669 441 2669 1267 
C 2669 2054 2170 2662 1549 2662 
C 1222 2662 947 2540 730 2304 
L 730 3750 
z
" transform="scale(0.015625)"/>
       </defs>
       <use xlink:href="#CMR17-35" transform="scale(0.996264)"/>
       <use xlink:href="#CMR17-30" transform="translate(45.690477 0) scale(0.996264)"/>
       <use xlink:href="#CMR17-30" transform="translate(91.380954 0) scale(0.996264)"/>
      </g>
     </g>
    </g>
    <g id="xtick_3">
     <g id="line2d_3">
      <g>
       <use xlink:href="#m4e8bdb3d81" x="162.862791" y="228.96" style="stroke: #000000; stroke-width: 0.8"/>
      </g>
     </g>
     <g id="text_3">
      <!-- $\mathdefault{1000}$ -->
      <g transform="translate(152.90012 243.05832) scale(0.1 -0.1)">
       <defs>
        <path id="CMR17-31" d="M 1702 4083 
C 1702 4217 1696 4224 1606 4224 
C 1357 3927 979 3833 621 3820 
C 602 3820 570 3820 563 3808 
C 557 3795 557 3782 557 3648 
C 755 3648 1088 3686 1344 3839 
L 1344 467 
C 1344 243 1331 166 781 166 
L 589 166 
L 589 0 
C 896 6 1216 12 1523 12 
C 1830 12 2150 6 2458 0 
L 2458 166 
L 2266 166 
C 1715 166 1702 236 1702 467 
L 1702 4083 
z
" transform="scale(0.015625)"/>
       </defs>
       <use xlink:href="#CMR17-31" transform="scale(0.996264)"/>
       <use xlink:href="#CMR17-30" transform="translate(45.690477 0) scale(0.996264)"/>
       <use xlink:href="#CMR17-30" transform="translate(91.380954 0) scale(0.996264)"/>
       <use xlink:href="#CMR17-30" transform="translate(137.071431 0) scale(0.996264)"/>
      </g>
     </g>
    </g>
    <g id="xtick_4">
     <g id="line2d_4">
      <g>
       <use xlink:href="#m4e8bdb3d81" x="217.901423" y="228.96" style="stroke: #000000; stroke-width: 0.8"/>
      </g>
     </g>
     <g id="text_4">
      <!-- $\mathdefault{1500}$ -->
      <g transform="translate(207.938752 243.05832) scale(0.1 -0.1)">
       <use xlink:href="#CMR17-31" transform="scale(0.996264)"/>
       <use xlink:href="#CMR17-35" transform="translate(45.690477 0) scale(0.996264)"/>
       <use xlink:href="#CMR17-30" transform="translate(91.380954 0) scale(0.996264)"/>
       <use xlink:href="#CMR17-30" transform="translate(137.071431 0) scale(0.996264)"/>
      </g>
     </g>
    </g>
    <g id="xtick_5">
     <g id="line2d_5">
      <g>
       <use xlink:href="#m4e8bdb3d81" x="272.940055" y="228.96" style="stroke: #000000; stroke-width: 0.8"/>
      </g>
     </g>
     <g id="text_5">
      <!-- $\mathdefault{2000}$ -->
      <g transform="translate(262.977385 243.05832) scale(0.1 -0.1)">
       <defs>
        <path id="CMR17-32" d="M 2669 990 
L 2554 990 
C 2490 537 2438 460 2413 422 
C 2381 371 1920 371 1830 371 
L 602 371 
C 832 620 1280 1073 1824 1596 
C 2214 1966 2669 2400 2669 3033 
C 2669 3788 2067 4224 1395 4224 
C 691 4224 262 3603 262 3027 
C 262 2777 448 2745 525 2745 
C 589 2745 781 2783 781 3007 
C 781 3206 614 3264 525 3264 
C 486 3264 448 3257 422 3244 
C 544 3788 915 4057 1306 4057 
C 1862 4057 2227 3616 2227 3033 
C 2227 2477 1901 1998 1536 1583 
L 262 147 
L 262 0 
L 2515 0 
L 2669 990 
z
" transform="scale(0.015625)"/>
       </defs>
       <use xlink:href="#CMR17-32" transform="scale(0.996264)"/>
       <use xlink:href="#CMR17-30" transform="translate(45.690477 0) scale(0.996264)"/>
       <use xlink:href="#CMR17-30" transform="translate(91.380954 0) scale(0.996264)"/>
       <use xlink:href="#CMR17-30" transform="translate(137.071431 0) scale(0.996264)"/>
      </g>
     </g>
    </g>
    <g id="xtick_6">
     <g id="line2d_6">
      <g>
       <use xlink:href="#m4e8bdb3d81" x="327.978687" y="228.96" style="stroke: #000000; stroke-width: 0.8"/>
      </g>
     </g>
     <g id="text_6">
      <!-- $\mathdefault{2500}$ -->
      <g transform="translate(318.016017 243.05832) scale(0.1 -0.1)">
       <use xlink:href="#CMR17-32" transform="scale(0.996264)"/>
       <use xlink:href="#CMR17-35" transform="translate(45.690477 0) scale(0.996264)"/>
       <use xlink:href="#CMR17-30" transform="translate(91.380954 0) scale(0.996264)"/>
       <use xlink:href="#CMR17-30" transform="translate(137.071431 0) scale(0.996264)"/>
      </g>
     </g>
    </g>
    <g id="text_7">
     <!-- Iteration -->
     <g transform="translate(187.019968 256.278627) scale(0.1 -0.1)">
      <defs>
       <path id="NimbusSanL-Regu-49" d="M 1242 4672 
L 640 4672 
L 640 0 
L 1242 0 
L 1242 4672 
z
" transform="scale(0.015625)"/>
       <path id="NimbusSanL-Regu-74" d="M 1626 3328 
L 1075 3328 
L 1075 4249 
L 544 4249 
L 544 3328 
L 90 3328 
L 90 2892 
L 544 2892 
L 544 402 
C 544 64 774 -128 1190 -128 
C 1318 -128 1446 -116 1626 -84 
L 1626 364 
C 1555 345 1472 339 1370 339 
C 1139 339 1075 402 1075 634 
L 1075 2892 
L 1626 2892 
L 1626 3328 
z
" transform="scale(0.015625)"/>
       <path id="NimbusSanL-Regu-65" d="M 3283 1484 
C 3283 1998 3245 2311 3149 2565 
C 2931 3123 2419 3456 1792 3456 
C 858 3456 256 2734 256 1619 
C 256 545 838 -128 1779 -128 
C 2547 -128 3078 307 3213 1018 
L 2675 1018 
C 2528 588 2227 364 1798 364 
C 1459 364 1171 514 992 787 
C 864 974 819 1161 813 1484 
L 3283 1484 
z
M 826 1920 
C 870 2552 1248 2963 1786 2963 
C 2310 2963 2714 2519 2714 1959 
C 2714 1946 2714 1933 2707 1920 
L 826 1920 
z
" transform="scale(0.015625)"/>
       <path id="NimbusSanL-Regu-72" d="M 442 3328 
L 442 0 
L 979 0 
L 979 1727 
C 979 2203 1101 2514 1357 2698 
C 1523 2819 1683 2857 2054 2863 
L 2054 3404 
C 1965 3449 1920 3456 1850 3456 
C 1504 3456 1242 3251 934 2750 
L 934 3328 
L 442 3328 
z
" transform="scale(0.015625)"/>
       <path id="NimbusSanL-Regu-61" d="M 3424 332 
C 3366 320 3341 320 3309 320 
C 3123 320 3021 415 3021 581 
L 3021 2542 
C 3021 3135 2586 3456 1760 3456 
C 1274 3456 870 3315 646 3065 
C 493 2893 429 2702 416 2370 
L 954 2370 
C 998 2778 1242 2963 1741 2963 
C 2221 2963 2490 2784 2490 2466 
L 2490 2326 
C 2490 2103 2355 2007 1933 1956 
C 1178 1861 1062 1835 858 1753 
C 467 1593 269 1294 269 861 
C 269 256 691 -128 1370 -128 
C 1792 -128 2131 19 2509 364 
C 2547 25 2714 -128 3059 -128 
C 3168 -128 3251 -116 3424 -71 
L 3424 332 
z
M 2490 1071 
C 2490 893 2438 785 2278 638 
C 2061 441 1798 339 1485 339 
C 1069 339 826 536 826 874 
C 826 1224 1062 1402 1632 1485 
C 2195 1562 2310 1587 2490 1670 
L 2490 1071 
z
" transform="scale(0.015625)"/>
       <path id="NimbusSanL-Regu-69" d="M 960 3358 
L 429 3358 
L 429 0 
L 960 0 
L 960 3358 
z
M 960 4672 
L 422 4672 
L 422 3999 
L 960 3999 
L 960 4672 
z
" transform="scale(0.015625)"/>
       <path id="NimbusSanL-Regu-6f" d="M 1741 3456 
C 800 3456 230 2784 230 1663 
C 230 543 794 -128 1747 -128 
C 2688 -128 3264 543 3264 1638 
C 3264 2791 2707 3456 1741 3456 
z
M 1747 2963 
C 2349 2963 2707 2472 2707 1644 
C 2707 861 2336 364 1747 364 
C 1152 364 787 855 787 1663 
C 787 2466 1152 2963 1747 2963 
z
" transform="scale(0.015625)"/>
       <path id="NimbusSanL-Regu-6e" d="M 448 3328 
L 448 0 
L 986 0 
L 986 1835 
C 986 2539 1344 2988 1894 2988 
C 2317 2988 2586 2732 2586 2328 
L 2586 0 
L 3117 0 
L 3117 2539 
C 3117 3097 2701 3456 2054 3456 
C 1555 3456 1235 3263 941 2796 
L 941 3328 
L 448 3328 
z
" transform="scale(0.015625)"/>
      </defs>
      <use xlink:href="#NimbusSanL-Regu-49" transform="scale(0.996264)"/>
      <use xlink:href="#NimbusSanL-Regu-74" transform="translate(27.69517 0) scale(0.996264)"/>
      <use xlink:href="#NimbusSanL-Regu-65" transform="translate(55.390339 0) scale(0.996264)"/>
      <use xlink:href="#NimbusSanL-Regu-72" transform="translate(110.782016 0) scale(0.996264)"/>
      <use xlink:href="#NimbusSanL-Regu-61" transform="translate(142.961149 0) scale(0.996264)"/>
      <use xlink:href="#NimbusSanL-Regu-74" transform="translate(198.352826 0) scale(0.996264)"/>
      <use xlink:href="#NimbusSanL-Regu-69" transform="translate(226.047996 0) scale(0.996264)"/>
      <use xlink:href="#NimbusSanL-Regu-6f" transform="translate(248.16478 0) scale(0.996264)"/>
      <use xlink:href="#NimbusSanL-Regu-6e" transform="translate(303.556457 0) scale(0.996264)"/>
     </g>
    </g>
   </g>
   <g id="matplotlib.axis_2">
    <g id="ytick_1">
     <g id="line2d_7">
      <defs>
       <path id="mc28d58fb6f" d="M 0 0 
L -3.5 0 
" style="stroke: #000000; stroke-width: 0.8"/>
      </defs>
      <g>
       <use xlink:href="#mc28d58fb6f" x="37.567344" y="193.18055" style="stroke: #000000; stroke-width: 0.8"/>
      </g>
     </g>
     <g id="text_8">
      <!-- $\mathdefault{5}$ -->
      <g transform="translate(25.586009 196.72971) scale(0.1 -0.1)">
       <use xlink:href="#CMR17-35" transform="scale(0.996264)"/>
      </g>
     </g>
    </g>
    <g id="ytick_2">
     <g id="line2d_8">
      <g>
       <use xlink:href="#mc28d58fb6f" x="37.567344" y="153.481943" style="stroke: #000000; stroke-width: 0.8"/>
      </g>
     </g>
     <g id="text_9">
      <!-- $\mathdefault{10}$ -->
      <g transform="translate(20.604674 157.031103) scale(0.1 -0.1)">
       <use xlink:href="#CMR17-31" transform="scale(0.996264)"/>
       <use xlink:href="#CMR17-30" transform="translate(45.690477 0) scale(0.996264)"/>
      </g>
     </g>
    </g>
    <g id="ytick_3">
     <g id="line2d_9">
      <g>
       <use xlink:href="#mc28d58fb6f" x="37.567344" y="113.783336" style="stroke: #000000; stroke-width: 0.8"/>
      </g>
     </g>
     <g id="text_10">
      <!-- $\mathdefault{15}$ -->
      <g transform="translate(20.604674 117.332496) scale(0.1 -0.1)">
       <use xlink:href="#CMR17-31" transform="scale(0.996264)"/>
       <use xlink:href="#CMR17-35" transform="translate(45.690477 0) scale(0.996264)"/>
      </g>
     </g>
    </g>
    <g id="ytick_4">
     <g id="line2d_10">
      <g>
       <use xlink:href="#mc28d58fb6f" x="37.567344" y="74.084729" style="stroke: #000000; stroke-width: 0.8"/>
      </g>
     </g>
     <g id="text_11">
      <!-- $\mathdefault{20}$ -->
      <g transform="translate(20.604674 77.633889) scale(0.1 -0.1)">
       <use xlink:href="#CMR17-32" transform="scale(0.996264)"/>
       <use xlink:href="#CMR17-30" transform="translate(45.690477 0) scale(0.996264)"/>
      </g>
     </g>
    </g>
    <g id="ytick_5">
     <g id="line2d_11">
      <g>
       <use xlink:href="#mc28d58fb6f" x="37.567344" y="34.386122" style="stroke: #000000; stroke-width: 0.8"/>
      </g>
     </g>
     <g id="text_12">
      <!-- $\mathdefault{25}$ -->
      <g transform="translate(20.604674 37.935282) scale(0.1 -0.1)">
       <use xlink:href="#CMR17-32" transform="scale(0.996264)"/>
       <use xlink:href="#CMR17-35" transform="translate(45.690477 0) scale(0.996264)"/>
      </g>
     </g>
    </g>
    <g id="text_13">
     <!-- Average CFL - Blade_0 -->
     <g transform="translate(14.482687 168.77932) rotate(-90) scale(0.1 -0.1)">
      <defs>
       <path id="NimbusSanL-Regu-41" d="M 3034 1408 
L 3514 0 
L 4179 0 
L 2541 4672 
L 1773 4672 
L 109 0 
L 742 0 
L 1235 1408 
L 3034 1408 
z
M 2867 1907 
L 1382 1907 
L 2150 4032 
L 2867 1907 
z
" transform="scale(0.015625)"/>
       <path id="NimbusSanL-Regu-76" d="M 1824 0 
L 3110 3328 
L 2509 3328 
L 1562 629 
L 666 3328 
L 64 3328 
L 1242 0 
L 1824 0 
z
" transform="scale(0.015625)"/>
       <path id="NimbusSanL-Regu-67" d="M 2637 3359 
L 2637 2873 
C 2368 3270 2042 3456 1613 3456 
C 762 3456 186 2714 186 1632 
C 186 1084 333 638 608 320 
C 858 38 1216 -128 1568 -128 
C 1990 -128 2285 51 2586 473 
L 2586 300 
C 2586 -155 2528 -441 2394 -634 
C 2253 -841 1978 -960 1651 -960 
C 1408 -960 1190 -894 1043 -774 
C 922 -674 870 -581 838 -375 
L 294 -375 
C 352 -1031 845 -1408 1632 -1408 
C 2131 -1408 2560 -1248 2778 -980 
C 3034 -661 3130 -222 3130 568 
L 3130 3359 
L 2637 3359 
z
M 1670 2963 
C 2246 2963 2586 2479 2586 1644 
C 2586 848 2240 364 1677 364 
C 1094 364 742 855 742 1663 
C 742 2466 1101 2963 1670 2963 
z
" transform="scale(0.015625)"/>
       <path id="NimbusSanL-Regu-43" d="M 4237 3219 
C 4051 4236 3462 4736 2438 4736 
C 1811 4736 1306 4537 960 4154 
C 538 3696 307 3035 307 2284 
C 307 1522 544 867 986 415 
C 1344 44 1805 -128 2413 -128 
C 3552 -128 4192 485 4333 1712 
L 3718 1712 
C 3667 1394 3603 1178 3507 994 
C 3315 612 2918 396 2419 396 
C 1491 396 902 1134 902 2291 
C 902 3480 1466 4211 2368 4211 
C 2746 4211 3098 4096 3290 3918 
C 3462 3759 3558 3562 3629 3219 
L 4237 3219 
z
" transform="scale(0.015625)"/>
       <path id="NimbusSanL-Regu-46" d="M 1171 2112 
L 3398 2112 
L 3398 2636 
L 1171 2636 
L 1171 4147 
L 3706 4147 
L 3706 4672 
L 576 4672 
L 576 0 
L 1171 0 
L 1171 2112 
z
" transform="scale(0.015625)"/>
       <path id="NimbusSanL-Regu-4c" d="M 1107 4672 
L 512 4672 
L 512 0 
L 3411 0 
L 3411 524 
L 1107 524 
L 1107 4672 
z
" transform="scale(0.015625)"/>
       <path id="NimbusSanL-Regu-2d" d="M 1818 1996 
L 294 1996 
L 294 1536 
L 1818 1536 
L 1818 1996 
z
" transform="scale(0.015625)"/>
       <path id="NimbusSanL-Regu-42" d="M 506 0 
L 2611 0 
C 3053 0 3379 121 3629 390 
C 3859 632 3987 961 3987 1321 
C 3987 1878 3731 2214 3136 2444 
C 3558 2643 3782 2994 3782 3476 
C 3782 3821 3654 4127 3411 4345 
C 3168 4569 2848 4672 2400 4672 
L 506 4672 
L 506 0 
z
M 1101 2636 
L 1101 4147 
L 2253 4147 
C 2586 4147 2771 4101 2931 3977 
C 3098 3847 3187 3652 3187 3391 
C 3187 3138 3098 2936 2931 2806 
C 2771 2682 2586 2636 2253 2636 
L 1101 2636 
z
M 1101 524 
L 1101 2112 
L 2554 2112 
C 2842 2112 3034 2042 3174 1890 
C 3315 1745 3392 1542 3392 1315 
C 3392 1093 3315 891 3174 746 
C 3034 594 2842 524 2554 524 
L 1101 524 
z
" transform="scale(0.015625)"/>
       <path id="NimbusSanL-Regu-6c" d="M 973 4672 
L 435 4672 
L 435 0 
L 973 0 
L 973 4672 
z
" transform="scale(0.015625)"/>
       <path id="NimbusSanL-Regu-64" d="M 3168 4672 
L 2637 4672 
L 2637 2937 
C 2413 3276 2054 3456 1606 3456 
C 736 3456 166 2759 166 1695 
C 166 568 723 -128 1626 -128 
C 2086 -128 2406 44 2694 460 
L 2694 19 
L 3168 19 
L 3168 4672 
z
M 1696 2956 
C 2272 2956 2637 2447 2637 1651 
C 2637 880 2266 371 1702 371 
C 1114 371 723 887 723 1663 
C 723 2440 1114 2956 1696 2956 
z
" transform="scale(0.015625)"/>
       <path id="NimbusSanL-Regu-30" d="M 1760 4544 
C 1338 4544 954 4358 717 4044 
C 422 3649 275 3043 275 2207 
C 275 683 787 -128 1760 -128 
C 2720 -128 3245 683 3245 2169 
C 3245 3049 3104 3636 2803 4044 
C 2566 4364 2189 4544 1760 4544 
z
M 1760 4044 
C 2368 4044 2669 3432 2669 2220 
C 2669 938 2374 339 1747 339 
C 1152 339 851 964 851 2201 
C 851 3438 1152 4044 1760 4044 
z
" transform="scale(0.015625)"/>
      </defs>
      <use xlink:href="#NimbusSanL-Regu-41" transform="scale(0.996264)"/>
      <use xlink:href="#NimbusSanL-Regu-76" transform="translate(62.465918 0) scale(0.996264)"/>
      <use xlink:href="#NimbusSanL-Regu-65" transform="translate(109.788488 0) scale(0.996264)"/>
      <use xlink:href="#NimbusSanL-Regu-72" transform="translate(165.180165 0) scale(0.996264)"/>
      <use xlink:href="#NimbusSanL-Regu-61" transform="translate(197.359298 0) scale(0.996264)"/>
      <use xlink:href="#NimbusSanL-Regu-67" transform="translate(252.750975 0) scale(0.996264)"/>
      <use xlink:href="#NimbusSanL-Regu-65" transform="translate(308.142652 0) scale(0.996264)"/>
      <use xlink:href="#NimbusSanL-Regu-43" transform="translate(391.229499 0) scale(0.996264)"/>
      <use xlink:href="#NimbusSanL-Regu-46" transform="translate(463.159484 0) scale(0.996264)"/>
      <use xlink:href="#NimbusSanL-Regu-4c" transform="translate(524.031114 0) scale(0.996264)"/>
      <use xlink:href="#NimbusSanL-Regu-2d" transform="translate(607.117961 0) scale(0.996264)"/>
      <use xlink:href="#NimbusSanL-Regu-42" transform="translate(667.98836 0) scale(0.996264)"/>
      <use xlink:href="#NimbusSanL-Regu-6c" transform="translate(734.438391 0) scale(0.996264)"/>
      <use xlink:href="#NimbusSanL-Regu-61" transform="translate(756.555176 0) scale(0.996264)"/>
      <use xlink:href="#NimbusSanL-Regu-64" transform="translate(811.946853 0) scale(0.996264)"/>
      <use xlink:href="#NimbusSanL-Regu-65" transform="translate(867.33853 0) scale(0.996264)"/>
      <use xlink:href="#NimbusSanL-Regu-30" transform="translate(958.595772 0) scale(0.996264)"/>
      <path d="M 928.707548 0 
L 958.595772 0 
L 958.595772 0.3985 
L 928.707548 0.3985 
L 928.707548 0 
z
"/>
     </g>
    </g>
   </g>
   <g id="line2d_12">
    <path d="M 52.785526 119.649362 
L 53.005681 72.384692 
L 53.115758 216.829711 
L 53.44599 205.145714 
L 53.776222 184.955767 
L 54.106453 150.067538 
L 54.436685 90.520539 
L 54.546762 62.703887 
L 54.65684 215.86163 
L 54.987071 203.472871 
L 55.317303 182.065094 
L 55.647535 145.099119 
L 55.977767 82.026691 
L 56.197921 17.28 
L 56.307999 211.319242 
L 56.63823 195.623623 
L 56.968462 168.506717 
L 57.298694 121.813875 
L 57.518849 73.420006 
L 57.628926 216.933242 
L 57.959158 205.324616 
L 58.289389 185.26491 
L 58.619621 150.609951 
L 58.949853 91.496999 
L 59.05993 63.859699 
L 59.170008 215.977212 
L 59.500239 203.672595 
L 59.830471 182.410444 
L 60.160703 145.709848 
L 60.490935 82.639834 
L 60.601012 217.855225 
L 60.931244 206.917802 
L 61.261476 188.017936 
L 61.591707 155.363069 
L 61.921939 99.027472 
L 62.032016 72.350336 
L 62.142094 216.826275 
L 62.472325 205.139777 
L 62.802557 184.945508 
L 63.132789 150.049812 
L 63.463021 89.825785 
L 63.573098 61.319361 
L 63.683175 215.723178 
L 64.013407 203.233624 
L 64.343639 181.65181 
L 64.673871 144.382152 
L 65.004103 80.078923 
L 65.11418 49.595674 
L 65.224257 214.550809 
L 65.554489 201.207771 
L 65.884721 178.151003 
L 66.214952 138.310594 
L 66.545184 69.495254 
L 66.655262 216.540767 
L 66.985493 204.646419 
L 67.315725 184.092985 
L 67.645957 148.576652 
L 67.976189 87.204428 
L 68.086266 58.083692 
L 68.196343 215.399611 
L 68.526575 202.674501 
L 68.856807 180.685511 
L 69.187039 142.688537 
L 69.627348 77.029765 
L 69.847502 77.029765 
L 69.957579 45.859887 
L 70.067657 214.17723 
L 70.397889 200.562227 
L 70.72812 177.035502 
L 71.058352 136.381321 
L 71.388584 66.130897 
L 71.498661 216.204331 
L 71.828893 204.065058 
L 72.159125 183.088394 
L 72.489357 146.840718 
L 72.819588 84.204733 
L 72.929666 54.48023 
L 73.039743 215.039265 
L 73.369975 202.051823 
L 73.700206 179.609523 
L 74.030438 140.829728 
L 74.36067 73.846047 
L 74.470747 42.072469 
L 74.580825 213.798488 
L 74.911056 199.907761 
L 75.241288 175.904585 
L 75.57152 134.427097 
L 75.901752 62.766911 
L 76.011829 215.867933 
L 76.342061 203.483761 
L 76.672293 182.083913 
L 77.002524 145.104975 
L 77.442833 81.294007 
L 77.662988 81.294007 
L 77.773065 51.059163 
L 77.883143 214.697158 
L 78.213374 201.460662 
L 78.543606 178.587998 
L 78.873838 139.064034 
L 79.20407 70.812697 
L 79.314147 216.672511 
L 79.644379 204.874073 
L 79.974611 184.486371 
L 80.304842 149.256423 
L 80.635074 88.379073 
L 80.745151 59.479601 
L 80.855229 215.539202 
L 81.18546 202.915714 
L 81.515692 181.102327 
L 81.845924 143.408795 
L 82.286233 78.274371 
L 82.726542 78.274371 
L 82.836619 217.418679 
L 83.166851 206.16345 
L 83.497083 186.714416 
L 83.827315 153.106484 
L 84.157547 95.031977 
L 84.267624 67.462541 
L 84.377701 216.337496 
L 84.707933 204.295166 
L 85.038165 183.48602 
L 85.368396 147.527817 
L 85.808706 85.392041 
L 85.918783 85.392041 
L 86.02886 55.897861 
L 86.138937 215.181028 
L 86.469169 202.296789 
L 86.799401 180.032826 
L 87.129633 141.560696 
L 87.569942 75.08281 
L 87.900174 75.08281 
L 88.010251 43.524114 
L 88.120328 213.943653 
L 88.45056 200.158606 
L 88.780792 176.338044 
L 89.111023 135.176114 
L 89.441255 64.048299 
L 89.551333 215.996071 
L 89.881564 203.705185 
L 90.211796 182.466533 
L 90.542028 145.766143 
L 90.87226 82.347868 
L 90.982337 52.24161 
L 91.092414 214.815403 
L 91.422646 201.664989 
L 91.752878 178.941075 
L 92.08311 139.674151 
L 92.413341 71.820906 
L 92.523419 216.773332 
L 92.85365 205.048291 
L 93.183882 184.787421 
L 93.514114 149.776637 
L 93.844346 89.278002 
L 93.954423 60.557771 
L 94.0645 215.647019 
L 94.394732 203.102022 
L 94.724964 181.424267 
L 95.055196 143.965107 
L 95.385428 79.235679 
L 95.495505 217.514809 
L 95.825737 206.329564 
L 96.155968 187.00146 
L 96.4862 153.602497 
L 96.816432 95.889088 
L 96.926509 68.491075 
L 97.036587 216.440349 
L 97.366818 204.472897 
L 97.69705 183.793139 
L 98.027282 148.058517 
L 98.357514 86.309091 
L 98.467591 56.995078 
L 98.577668 215.290749 
L 98.9079 202.486388 
L 99.238132 180.360453 
L 99.568364 142.126836 
L 99.898595 76.059146 
L 100.008673 217.197156 
L 100.338904 205.780659 
L 100.669136 186.052953 
L 100.999368 151.963476 
L 101.3296 93.05686 
L 101.439677 65.0924 
L 101.549754 216.100482 
L 101.879986 203.885606 
L 102.210218 182.7783 
L 102.54045 146.304876 
L 102.980759 83.278799 
L 103.090836 83.278799 
L 103.200913 53.358728 
L 103.310991 214.927114 
L 103.641222 201.858027 
L 103.971454 179.274644 
L 104.301686 140.250559 
L 104.631918 72.816939 
L 104.741995 216.872935 
L 105.072227 205.220406 
L 105.402459 185.084835 
L 105.73269 150.290568 
L 106.062922 90.166076 
L 106.172999 61.623459 
L 106.283077 215.753588 
L 106.613309 203.286173 
L 106.94354 181.74248 
L 107.273772 144.514979 
L 107.604004 80.185857 
L 107.714081 217.609827 
L 108.044313 206.493755 
L 108.374545 187.285182 
L 108.704777 154.092768 
L 109.035008 96.736277 
L 109.145086 69.507701 
L 109.255163 216.542012 
L 109.585395 204.64857 
L 109.915626 184.096702 
L 110.245858 148.583074 
L 110.686167 87.215526 
L 110.796245 87.215526 
L 110.906322 58.082799 
L 111.016399 215.399522 
L 111.346631 202.674347 
L 111.676863 180.685244 
L 112.007095 142.688076 
L 112.337326 77.028969 
L 112.447404 217.294138 
L 112.777635 205.948245 
L 113.107867 186.34254 
L 113.438099 152.463883 
L 113.768331 93.921564 
L 113.878408 66.130045 
L 113.988485 216.204246 
L 114.318717 204.064911 
L 114.648949 183.088139 
L 114.979181 146.840278 
L 115.529567 54.468937 
L 115.639644 215.038135 
L 115.969876 202.049871 
L 116.300108 179.606151 
L 116.63034 140.823402 
L 116.960571 73.806813 
L 117.070649 216.971923 
L 117.40088 205.391456 
L 117.731112 185.38041 
L 118.061344 150.801322 
L 118.391576 91.048657 
L 118.501653 62.682557 
L 118.61173 215.859497 
L 118.941962 203.469185 
L 119.272194 182.058725 
L 119.602426 145.06145 
L 119.932658 81.130159 
L 120.042735 217.704257 
L 120.372967 206.65693 
L 120.703198 187.567149 
L 121.03343 154.580007 
L 121.363662 97.578226 
L 121.473739 70.51804 
L 121.583817 216.643046 
L 121.914048 204.823156 
L 122.24428 184.398387 
L 122.574512 149.104387 
L 122.904744 88.116354 
L 123.014821 59.163793 
L 123.124898 215.507621 
L 123.45513 202.861142 
L 123.785362 181.008028 
L 124.115594 143.245845 
L 124.445825 77.992794 
L 124.555903 217.390521 
L 124.886134 206.114794 
L 125.216366 186.630337 
L 125.546598 152.961196 
L 125.87683 94.78092 
L 125.986907 67.161272 
L 126.096984 216.307369 
L 126.427216 204.243107 
L 126.757448 183.396062 
L 127.08768 147.372369 
L 127.638066 55.57228 
L 127.748143 215.14847 
L 128.078375 202.240529 
L 128.408607 179.935608 
L 128.738839 141.392703 
L 129.069071 74.790565 
L 129.179148 217.070298 
L 129.50938 205.561449 
L 129.839611 185.674157 
L 130.169843 151.308916 
L 130.500075 91.92578 
L 130.610152 63.735105 
L 130.720229 215.964752 
L 131.050461 203.651065 
L 131.380693 182.373014 
L 131.710925 145.604541 
L 132.041157 82.068621 
L 132.151234 217.798104 
L 132.481466 206.819097 
L 132.811697 187.847372 
L 133.141929 155.064233 
L 133.472161 98.414968 
L 133.582238 71.522131 
L 133.692316 216.743455 
L 134.022547 204.996663 
L 134.352779 184.698207 
L 134.683011 149.622476 
L 135.013243 89.011611 
L 135.12332 60.238102 
L 135.233397 215.615052 
L 135.563629 203.046783 
L 135.893861 181.328815 
L 136.224093 143.800165 
L 136.554324 78.950659 
L 136.664402 217.486307 
L 136.994634 206.280313 
L 137.324865 186.916354 
L 137.655097 153.455433 
L 137.985329 95.634962 
L 138.095406 68.186122 
L 138.205483 216.409854 
L 138.535715 204.420201 
L 138.865947 183.702081 
L 139.196179 147.901169 
L 139.636488 86.037193 
L 140.296951 86.037193 
L 140.407029 56.6688 
L 140.517106 215.258122 
L 140.847338 202.430008 
L 141.17757 180.263027 
L 141.507801 141.958484 
L 141.838033 75.768233 
L 141.94811 217.168065 
L 142.278342 205.73039 
L 142.608574 185.966087 
L 142.938806 151.813371 
L 143.269038 92.797479 
L 143.379115 64.781143 
L 143.489192 216.069356 
L 143.819424 203.831821 
L 144.149656 182.685359 
L 144.479888 146.144274 
L 145.030274 53.025704 
L 145.140351 214.893812 
L 145.470583 201.800481 
L 145.800815 179.175204 
L 146.131047 140.078726 
L 146.461278 72.520012 
L 146.571356 216.843243 
L 146.901587 205.169097 
L 147.231819 184.996173 
L 147.562051 150.13736 
L 148.00236 89.901332 
L 150.313983 89.901332 
L 150.42406 61.305767 
L 150.534137 215.721818 
L 150.864369 203.231276 
L 151.194601 181.647618 
L 151.524832 144.351057 
L 151.855064 79.902599 
L 151.965142 217.581502 
L 152.295373 206.444808 
L 152.625605 187.200602 
L 152.955837 153.946614 
L 153.286069 96.483722 
L 153.396146 69.204634 
L 153.506223 216.511705 
L 153.836455 204.5962 
L 154.166687 184.006207 
L 154.496919 148.426699 
L 154.82715 86.945309 
L 154.937228 218.285772 
L 155.267459 207.661788 
L 155.597691 189.303544 
L 155.927923 157.580497 
L 156.258155 102.763072 
L 156.368232 76.739855 
L 156.478309 217.265227 
L 156.808541 205.898286 
L 157.138773 186.256211 
L 157.469005 152.314707 
L 157.799237 93.663787 
L 157.909314 65.820713 
L 158.019391 216.173313 
L 158.349623 204.011458 
L 158.679855 182.995773 
L 159.010086 146.680669 
L 159.450396 83.92817 
L 164.734104 83.92817 
L 164.844181 217.984059 
L 165.174413 207.140427 
L 165.504645 188.402631 
L 165.834877 156.02372 
L 166.165109 100.072961 
L 166.275186 73.511722 
L 166.385263 216.942414 
L 166.715495 205.340464 
L 167.045727 185.292296 
L 167.375959 150.649061 
L 167.816268 90.785551 
L 168.806963 90.785551 
L 168.91704 62.36683 
L 169.027118 215.827925 
L 169.357349 203.414627 
L 169.687581 181.964449 
L 170.017813 144.898541 
L 170.348045 80.848653 
L 170.458122 217.676107 
L 170.788354 206.608286 
L 171.118586 187.483092 
L 171.448817 154.434757 
L 171.779049 97.327233 
L 171.889126 70.216848 
L 171.999204 216.612926 
L 172.329435 204.77111 
L 172.659667 184.308452 
L 172.989899 148.948978 
L 173.430208 87.847808 
L 173.76044 87.847808 
L 173.870517 58.841538 
L 173.980594 215.475395 
L 174.310826 202.805457 
L 174.641058 180.911803 
L 174.97129 143.079569 
L 175.301522 77.705468 
L 175.411599 217.361788 
L 175.741831 206.065144 
L 176.072062 186.544542 
L 176.402294 152.812942 
L 176.732526 94.524737 
L 176.842603 66.853853 
L 176.952681 216.276627 
L 177.282912 204.189985 
L 177.613144 183.304267 
L 177.943376 147.213747 
L 178.273608 84.849329 
L 178.383685 55.243363 
L 178.493762 215.115578 
L 178.823994 202.183692 
L 179.154226 179.837393 
L 179.484458 141.222989 
L 179.814689 74.497299 
L 179.924767 217.040971 
L 180.254999 205.510772 
L 180.58523 185.586588 
L 180.915462 151.157597 
L 181.245694 91.664301 
L 181.355771 63.42133 
L 181.465848 215.933375 
L 181.79608 203.596845 
L 182.126312 182.279321 
L 182.456544 145.442641 
L 182.896853 81.788856 
L 187.299943 81.788856 
L 187.410021 217.770127 
L 187.740252 206.770753 
L 188.070484 187.763835 
L 188.400716 154.919881 
L 188.730948 98.165527 
L 188.841025 71.222801 
L 188.951102 216.713522 
L 189.281334 204.944939 
L 189.611566 184.608828 
L 189.941798 149.468028 
L 190.382107 88.744726 
L 190.492184 88.744726 
L 190.602261 59.91784 
L 190.712339 215.583026 
L 191.04257 202.991442 
L 191.372802 181.233185 
L 191.703034 143.634917 
L 192.033266 78.66511 
L 192.143343 217.457753 
L 192.473575 206.23097 
L 192.803807 186.831089 
L 193.134038 153.308096 
L 193.46427 95.380363 
L 193.574348 67.880605 
L 193.684425 216.379302 
L 194.014657 204.367407 
L 194.344888 183.610853 
L 194.67512 147.743528 
L 195.005352 85.76479 
L 195.115429 56.341917 
L 195.225506 215.225433 
L 195.555738 202.373522 
L 195.88597 180.16542 
L 196.216202 141.789819 
L 196.546434 75.476781 
L 196.656511 217.13892 
L 196.986743 205.680027 
L 197.316974 185.879059 
L 197.647206 151.662988 
L 197.977438 92.537617 
L 198.087515 64.469309 
L 198.197593 216.038172 
L 198.527824 203.777936 
L 198.858056 182.592246 
L 199.188288 145.983375 
L 199.51852 82.723245 
L 199.628597 217.863566 
L 199.958829 206.932216 
L 200.289061 188.042842 
L 200.619292 155.402005 
L 200.949524 98.998638 
L 201.059601 72.222534 
L 201.169679 216.813495 
L 201.499911 205.117693 
L 201.830142 184.907347 
L 202.160374 149.983868 
L 202.490606 89.636098 
L 202.600683 60.987486 
L 202.71076 215.68999 
L 203.040992 203.176277 
L 203.371224 181.552579 
L 203.701456 144.18683 
L 204.031688 79.618816 
L 204.141765 217.553123 
L 204.471997 206.39577 
L 204.802228 187.115865 
L 205.13246 153.800188 
L 205.462692 96.230698 
L 205.572769 68.901006 
L 205.682847 216.481342 
L 206.013078 204.543733 
L 206.34331 183.915544 
L 206.673542 148.270033 
L 207.223928 57.433677 
L 207.334006 215.334609 
L 207.664237 202.562178 
L 207.994469 180.491418 
L 208.324701 142.353143 
L 208.654933 76.450205 
L 208.76501 217.236262 
L 209.095242 205.848234 
L 209.425474 186.169722 
L 209.755705 152.165254 
L 210.085937 93.405532 
L 210.196014 65.510807 
L 210.306092 216.142322 
L 210.636324 203.957906 
L 210.966555 182.903236 
L 211.296787 146.520765 
L 211.627019 83.651855 
L 211.737096 217.956427 
L 212.067328 207.092679 
L 212.39756 188.320124 
L 212.727792 155.881147 
L 213.058023 99.826596 
L 213.168101 73.216083 
L 213.278178 216.91285 
L 213.60841 205.289378 
L 213.938641 185.204019 
L 214.268873 150.496518 
L 214.599105 90.521957 
L 214.709182 62.050517 
L 214.81926 215.796293 
L 215.149491 203.359968 
L 215.479723 181.869999 
L 215.809955 144.735331 
L 216.140187 80.566625 
L 216.250264 217.647904 
L 216.580496 206.559552 
L 216.910728 187.398879 
L 217.240959 154.289236 
L 217.571191 97.075774 
L 217.681268 69.915097 
L 217.791346 216.582751 
L 218.121577 204.718968 
L 218.451809 184.21835 
L 218.782041 148.793282 
L 219.332427 58.518686 
L 219.442505 215.44311 
L 219.772736 202.749668 
L 220.102968 180.815399 
L 220.4332 142.912984 
L 220.763432 77.417609 
L 220.873509 217.333003 
L 221.203741 206.015402 
L 221.533973 186.458588 
L 221.864204 152.664413 
L 222.194436 94.26808 
L 222.304514 66.545864 
L 222.414591 216.245828 
L 222.744823 204.136764 
L 223.075054 183.212302 
L 223.405286 147.054832 
L 223.845595 84.574722 
L 224.616136 84.574722 
L 224.726213 218.048714 
L 225.056445 207.252151 
L 225.386677 188.59569 
L 225.716909 156.357326 
L 226.047141 100.649433 
L 226.157218 74.203489 
L 226.267295 217.01159 
L 226.597527 205.460002 
L 226.927759 185.498856 
L 227.25799 151.005998 
L 227.588222 91.402337 
L 227.6983 218.731475 
L 228.028531 208.431963 
L 228.358763 190.634405 
L 228.688995 159.880226 
L 229.019227 106.737003 
L 229.129304 81.508573 
L 229.239381 217.742099 
L 229.569613 206.72232 
L 229.899845 187.680143 
L 230.230077 154.77526 
L 230.560308 97.915623 
L 230.670386 70.922917 
L 230.780463 216.683533 
L 231.110695 204.893119 
L 231.440926 184.519283 
L 231.771158 149.313294 
L 232.10139 88.477346 
L 232.211467 59.596984 
L 232.321545 215.55094 
L 232.651776 202.935998 
L 232.982008 181.137378 
L 233.31224 143.469362 
L 233.642472 78.379031 
L 233.752549 217.429145 
L 234.082781 206.181536 
L 234.413013 186.745667 
L 234.743244 153.160486 
L 235.073476 95.125293 
L 235.183553 67.57452 
L 235.293631 216.348694 
L 235.623863 204.314516 
L 235.954094 183.519457 
L 236.284326 147.585595 
L 236.834712 56.014427 
L 236.94479 215.192684 
L 237.275022 202.316932 
L 237.605253 180.067632 
L 237.935485 141.620841 
L 238.265717 75.184787 
L 238.375794 217.10972 
L 238.706026 205.62957 
L 239.036258 185.791871 
L 239.36649 151.512326 
L 239.696721 92.277273 
L 239.806799 64.156896 
L 239.916876 216.006931 
L 240.247108 203.723951 
L 240.577339 182.49896 
L 240.907571 145.822177 
L 241.237803 82.444695 
L 241.34788 217.835711 
L 241.678112 206.884082 
L 242.008344 187.959667 
L 242.338576 155.258279 
L 242.668807 98.750279 
L 242.778885 71.924504 
L 242.888962 216.783692 
L 243.219194 205.066193 
L 243.549426 184.818355 
L 243.879657 149.830091 
L 244.319966 89.370371 
L 245.200585 89.370371 
L 245.310662 218.528279 
L 245.640894 208.080839 
L 245.971125 190.027663 
L 246.301357 158.831776 
L 246.631589 104.925282 
L 246.741666 79.334507 
L 246.851744 217.524692 
L 247.181975 206.346642 
L 247.512207 187.03097 
L 247.842439 153.65349 
L 248.392825 68.596814 
L 248.502902 216.450923 
L 248.833134 204.491168 
L 249.163366 183.824713 
L 249.493598 148.113077 
L 249.82383 86.40337 
L 249.933907 218.231579 
L 250.264139 207.568141 
L 250.594371 189.141722 
L 250.924602 157.300868 
L 251.254834 102.279874 
L 251.364911 76.160018 
L 251.474989 217.207243 
L 251.80522 205.79809 
L 252.135452 186.083073 
L 252.465684 152.015523 
L 253.01607 65.200326 
L 253.126148 216.111274 
L 253.456379 203.904255 
L 253.786611 182.810527 
L 254.116843 146.360564 
L 254.447075 83.375027 
L 254.557152 217.928744 
L 254.887384 207.044844 
L 255.217616 188.237463 
L 255.547847 155.73831 
L 255.878079 99.579773 
L 255.988156 72.919896 
L 256.098234 216.883231 
L 256.428466 205.238197 
L 256.758697 185.115578 
L 257.088929 150.343692 
L 257.419161 90.257874 
L 257.529238 218.617029 
L 257.85947 208.234199 
L 258.189702 190.29267 
L 258.519934 159.289708 
L 258.850165 105.716588 
L 258.960243 80.284074 
L 259.07032 217.619649 
L 259.400552 206.510727 
L 259.730783 187.31451 
L 260.061015 154.143446 
L 260.391247 96.823848 
L 260.501324 69.612787 
L 260.611402 216.55252 
L 260.941633 204.666728 
L 261.271865 184.12808 
L 261.602097 148.637296 
L 262.042406 87.309221 
L 262.152483 87.309221 
L 262.262561 58.195234 
L 262.372638 215.410765 
L 262.70287 202.693775 
L 263.033101 180.718817 
L 263.363333 142.74609 
L 263.693565 77.129217 
L 263.803642 217.304163 
L 264.133874 205.965568 
L 264.464106 186.372474 
L 264.794338 152.515609 
L 265.344724 66.237303 
L 265.454801 216.214972 
L 265.785033 204.083445 
L 266.115265 183.120166 
L 266.445497 146.895621 
L 266.775728 84.299607 
L 266.885806 218.021202 
L 267.216037 207.204611 
L 267.546269 188.513541 
L 267.876501 156.215373 
L 268.206733 100.404137 
L 268.31681 73.909133 
L 268.426887 216.982155 
L 268.757119 205.409137 
L 269.087351 185.410963 
L 269.417583 150.854117 
L 269.967969 62.792033 
L 270.078046 215.870445 
L 270.408278 203.488102 
L 270.73851 182.091414 
L 271.068742 145.117937 
L 271.398974 81.227769 
L 271.509051 217.714018 
L 271.839283 206.673797 
L 272.169514 187.596295 
L 272.499746 154.630372 
L 272.829978 97.665256 
L 272.940055 70.622476 
L 273.050132 216.653489 
L 273.380364 204.841203 
L 273.710596 184.429572 
L 274.040828 149.158274 
L 274.37106 88.20947 
L 274.481137 218.412189 
L 274.811369 207.880235 
L 275.141601 189.68102 
L 275.471832 158.232776 
L 275.802064 103.890211 
L 275.912141 78.092422 
L 276.022219 217.400484 
L 276.35245 206.132009 
L 276.682682 186.660086 
L 277.012914 153.012602 
L 277.343146 94.869749 
L 277.453223 67.267868 
L 277.5633 216.318028 
L 277.893532 204.261526 
L 278.223764 183.427891 
L 278.553996 147.427369 
L 278.994305 85.218468 
L 280.315232 85.218468 
L 280.425309 218.113088 
L 280.755541 207.36339 
L 281.085773 188.787912 
L 281.416005 156.689485 
L 281.746236 101.223403 
L 281.856314 74.892253 
L 281.966391 217.080467 
L 282.296623 205.57902 
L 282.626854 185.70452 
L 282.957086 151.361385 
L 283.287318 92.016446 
L 283.397395 218.792886 
L 283.727627 208.538081 
L 284.057859 190.817777 
L 284.388091 160.197092 
L 284.718323 107.284549 
L 284.8284 82.165627 
L 284.938477 217.807804 
L 285.268709 206.835859 
L 285.598941 187.876338 
L 285.929172 155.114286 
L 286.259404 98.50146 
L 286.369481 71.625921 
L 286.479559 216.753834 
L 286.809791 205.014598 
L 287.140022 184.729199 
L 287.470254 149.676029 
L 287.910563 89.104152 
L 295.615972 89.104152 
L 295.726049 60.349151 
L 295.836126 215.626157 
L 296.166358 203.065972 
L 296.49659 181.361973 
L 296.826822 143.857464 
L 297.157053 79.04967 
L 297.267131 217.496209 
L 297.597362 206.297422 
L 297.927594 186.945919 
L 298.257826 153.506521 
L 298.588058 95.723242 
L 298.698135 68.292058 
L 298.808212 216.420447 
L 299.138444 204.438507 
L 299.468676 183.733713 
L 299.798908 147.955829 
L 300.239217 86.131647 
L 301.780299 86.131647 
L 301.890376 218.204406 
L 302.220608 207.521187 
L 302.550839 189.060585 
L 302.881071 157.160665 
L 303.211303 102.037603 
L 303.32138 75.869292 
L 303.431457 217.178171 
L 303.761689 205.747853 
L 304.091921 185.996263 
L 304.422153 151.865515 
L 304.752385 92.887584 
L 304.862462 218.88 
L 305.192694 208.688613 
L 305.522926 191.077898 
L 305.853157 160.64658 
L 306.183389 108.061265 
L 306.293466 83.097686 
L 306.403544 217.90101 
L 306.733775 206.996919 
L 307.064007 188.15465 
L 307.394239 155.595208 
L 307.834548 99.332493 
L 307.944625 99.332493 
L 308.054703 72.62316 
L 308.16478 216.853558 
L 308.495012 205.186921 
L 308.825243 185.026973 
L 309.155475 150.190583 
L 309.485707 89.9933 
L 309.595784 218.590572 
L 309.926016 208.188481 
L 310.256248 190.213669 
L 310.58648 159.153194 
L 310.916711 105.480692 
L 311.026789 80.000999 
L 311.136866 217.591341 
L 311.467098 206.461812 
L 311.79733 187.229984 
L 312.127561 153.997386 
L 312.457793 96.571456 
L 312.56787 69.309915 
L 312.677948 216.522233 
L 313.008179 204.614392 
L 313.338411 184.037643 
L 313.668643 148.481021 
L 314.108952 87.039178 
L 315.870188 87.039178 
L 315.980266 218.295159 
L 316.310497 207.678009 
L 316.640729 189.331573 
L 316.970961 157.628931 
L 317.301193 102.846767 
L 317.41127 76.840289 
L 317.521347 217.27527 
L 317.851579 205.915641 
L 318.181811 186.286201 
L 318.512043 152.366529 
L 318.952352 93.753335 
L 319.062429 93.753335 
L 319.172506 65.92817 
L 319.282584 216.184059 
L 319.612815 204.030027 
L 319.943047 183.02786 
L 320.273279 146.736115 
L 320.603511 84.02398 
L 320.713588 217.99364 
L 321.04382 207.156983 
L 321.374052 188.43124 
L 321.704283 156.073156 
L 322.034515 100.158386 
L 322.144592 73.614232 
L 322.25467 216.952665 
L 322.584902 205.358178 
L 322.915133 185.322905 
L 323.245365 150.701954 
L 323.795751 62.476509 
L 323.905829 215.838892 
L 324.23606 203.43358 
L 324.566292 181.997199 
L 324.896524 144.955134 
L 325.226756 80.946444 
L 325.336833 217.685886 
L 325.667065 206.625184 
L 325.997297 187.512292 
L 326.327529 154.485215 
L 326.65776 97.414424 
L 326.767838 70.321478 
L 326.877915 216.623389 
L 327.208147 204.78919 
L 327.538378 184.339694 
L 327.86861 149.002965 
L 328.198842 87.941097 
L 328.308919 58.953485 
L 328.418997 215.48659 
L 328.749228 202.824801 
L 329.07946 180.94523 
L 329.409692 143.137331 
L 329.739924 77.805281 
L 329.850001 217.37177 
L 330.180233 206.082391 
L 330.510465 186.574346 
L 330.840696 152.864443 
L 331.170928 94.613731 
L 331.281005 66.960646 
L 331.391083 216.287306 
L 331.721314 204.208439 
L 332.051546 183.336155 
L 332.381778 147.26885 
L 332.822087 84.944546 
L 332.932164 84.944546 
L 333.042242 55.357624 
L 333.152319 215.127004 
L 333.482551 202.203436 
L 333.812782 179.871512 
L 334.143014 141.281945 
L 334.473246 74.599175 
L 334.583323 217.051159 
L 334.913555 205.528376 
L 335.243787 185.617008 
L 335.574019 151.210163 
L 335.904251 91.755135 
L 336.014328 63.530331 
L 336.124405 215.944275 
L 336.454637 203.61568 
L 336.784869 182.311869 
L 337.1151 145.498883 
L 337.445332 81.886043 
L 337.555409 217.779846 
L 337.885641 206.787547 
L 338.215873 187.792855 
L 338.546105 154.970027 
L 338.876337 98.25218 
L 338.986414 71.326784 
L 339.096491 216.72392 
L 339.426723 204.962907 
L 339.756955 184.639877 
L 340.087187 149.521681 
L 340.637573 60.029095 
L 340.74765 215.594151 
L 341.077882 203.010666 
L 341.408114 181.266405 
L 341.738346 143.692322 
L 342.068577 78.764305 
L 342.178655 217.467672 
L 342.508886 206.248111 
L 342.839118 186.860709 
L 343.16935 153.359279 
L 343.499582 95.468807 
L 343.609659 67.986737 
L 343.719736 216.389915 
L 344.049968 204.385747 
L 344.3802 183.642544 
L 344.710432 147.79829 
L 345.260818 56.455472 
L 345.370895 215.236789 
L 345.701127 202.393144 
L 346.031359 180.199327 
L 346.361591 141.848411 
L 346.691822 75.578027 
L 346.8019 217.149044 
L 347.132131 205.697522 
L 347.462363 185.909291 
L 347.792595 151.715229 
L 348.122827 92.627889 
L 348.232904 64.577636 
L 348.342981 216.049005 
L 348.673213 203.796654 
L 349.003445 182.624592 
L 349.333677 146.039269 
L 349.884063 52.807965 
L 349.99414 214.872038 
L 350.324372 201.762855 
L 350.654604 179.110187 
L 350.984836 139.966377 
L 351.315068 72.325873 
L 351.425145 216.823829 
L 351.755377 205.13555 
L 352.085608 184.938204 
L 352.41584 150.037189 
L 352.746072 89.728237 
L 352.856149 61.098052 
L 352.966227 215.701047 
L 353.296458 203.195382 
L 353.62669 181.585594 
L 353.956922 144.24388 
L 354.507308 49.085047 
L 354.617385 214.499746 
L 354.947617 201.119535 
L 355.277849 177.99853 
L 355.608081 138.045433 
L 355.938313 69.006482 
L 356.04839 216.49189 
L 356.378622 204.561959 
L 356.708854 183.947039 
L 357.039085 148.324456 
L 357.149163 131.413516 
L 357.149163 131.413516 
" clip-path="url(#p51ddb6a9da)" style="fill: none; stroke: #1f77b4; stroke-width: 1.5; stroke-linecap: square"/>
   </g>
   <g id="patch_3">
    <path d="M 37.567344 228.96 
L 37.567344 7.2 
" style="fill: none; stroke: #000000; stroke-width: 0.8; stroke-linejoin: miter; stroke-linecap: square"/>
   </g>
   <g id="patch_4">
    <path d="M 372.367344 228.96 
L 372.367344 7.2 
" style="fill: none; stroke: #000000; stroke-width: 0.8; stroke-linejoin: miter; stroke-linecap: square"/>
   </g>
   <g id="patch_5">
    <path d="M 37.567344 228.96 
L 372.367344 228.96 
" style="fill: none; stroke: #000000; stroke-width: 0.8; stroke-linejoin: miter; stroke-linecap: square"/>
   </g>
   <g id="patch_6">
    <path d="M 37.567344 7.2 
L 372.367344 7.2 
" style="fill: none; stroke: #000000; stroke-width: 0.8; stroke-linejoin: miter; stroke-linecap: square"/>
   </g>
   <g id="legend_1">
    <g id="patch_7">
     <path d="M 314.548024 29.420307 
L 365.367344 29.420307 
Q 367.367344 29.420307 367.367344 27.420307 
L 367.367344 14.2 
Q 367.367344 12.2 365.367344 12.2 
L 314.548024 12.2 
Q 312.548024 12.2 312.548024 14.2 
L 312.548024 27.420307 
Q 312.548024 29.420307 314.548024 29.420307 
z
" style="fill: #ffffff; opacity: 0.8; stroke: #cccccc; stroke-linejoin: miter"/>
    </g>
    <g id="line2d_13">
     <path d="M 316.548024 19.79832 
L 326.548024 19.79832 
L 336.548024 19.79832 
" style="fill: none; stroke: #1f77b4; stroke-width: 1.5; stroke-linecap: square"/>
    </g>
    <g id="text_14">
     <!-- CFL -->
     <g transform="translate(344.548024 23.29832) scale(0.1 -0.1)">
      <use xlink:href="#NimbusSanL-Regu-43" transform="scale(0.996264)"/>
      <use xlink:href="#NimbusSanL-Regu-46" transform="translate(71.929985 0) scale(0.996264)"/>
      <use xlink:href="#NimbusSanL-Regu-4c" transform="translate(132.801616 0) scale(0.996264)"/>
     </g>
    </g>
   </g>
  </g>
 </g>
 <defs>
  <clipPath id="p51ddb6a9da">
   <rect x="37.567344" y="7.2" width="334.8" height="221.76"/>
  </clipPath>
 </defs>
</svg>
