<?xml version="1.0" encoding="utf-8" standalone="no"?>
<!DOCTYPE svg PUBLIC "-//W3C//DTD SVG 1.1//EN"
  "http://www.w3.org/Graphics/SVG/1.1/DTD/svg11.dtd">
<svg xmlns:xlink="http://www.w3.org/1999/xlink" width="417.314698pt" height="265.600613pt" viewBox="0 0 417.314698 265.600613" xmlns="http://www.w3.org/2000/svg" version="1.1">
 <metadata>
  <rdf:RDF xmlns:dc="http://purl.org/dc/elements/1.1/" xmlns:cc="http://creativecommons.org/ns#" xmlns:rdf="http://www.w3.org/1999/02/22-rdf-syntax-ns#">
   <cc:Work>
    <dc:type rdf:resource="http://purl.org/dc/dcmitype/StillImage"/>
    <dc:date>2025-08-02T13:50:56.500461</dc:date>
    <dc:format>image/svg+xml</dc:format>
    <dc:creator>
     <cc:Agent>
      <dc:title>Matplotlib v3.10.3, https://matplotlib.org/</dc:title>
     </cc:Agent>
    </dc:creator>
   </cc:Work>
  </rdf:RDF>
 </metadata>
 <defs>
  <style type="text/css">*{stroke-linejoin: round; stroke-linecap: butt}</style>
 </defs>
 <g id="figure_1">
  <g id="patch_1">
   <path d="M 0 265.600613 
L 417.314698 265.600613 
L 417.314698 0 
L 0 0 
z
" style="fill: #ffffff"/>
  </g>
  <g id="axes_1">
   <g id="patch_2">
    <path d="M 40.150386 228.96 
L 374.950386 228.96 
L 374.950386 7.2 
L 40.150386 7.2 
z
" style="fill: #ffffff"/>
   </g>
   <g id="matplotlib.axis_1">
    <g id="xtick_1">
     <g id="line2d_1">
      <defs>
       <path id="m5fdcc293fb" d="M 0 0 
L 0 3.5 
" style="stroke: #000000; stroke-width: 0.8"/>
      </defs>
      <g>
       <use xlink:href="#m5fdcc293fb" x="55.368567" y="228.96" style="stroke: #000000; stroke-width: 0.8"/>
      </g>
     </g>
     <g id="text_1">
      <!-- $\mathdefault{0}$ -->
      <g transform="translate(52.8779 243.05832) scale(0.1 -0.1)">
       <defs>
        <path id="CMR17-30" d="M 2688 2038 
C 2688 2430 2682 3099 2413 3613 
C 2176 4063 1798 4224 1466 4224 
C 1158 4224 768 4082 525 3620 
C 269 3137 243 2539 243 2038 
C 243 1671 250 1112 448 623 
C 723 -39 1216 -128 1466 -128 
C 1760 -128 2208 -7 2470 604 
C 2662 1048 2688 1568 2688 2038 
z
M 1466 -26 
C 1056 -26 813 328 723 816 
C 653 1196 653 1749 653 2109 
C 653 2604 653 3015 736 3407 
C 858 3954 1216 4121 1466 4121 
C 1728 4121 2067 3947 2189 3420 
C 2272 3054 2278 2623 2278 2109 
C 2278 1691 2278 1176 2202 797 
C 2067 96 1690 -26 1466 -26 
z
" transform="scale(0.015625)"/>
       </defs>
       <use xlink:href="#CMR17-30" transform="scale(0.996264)"/>
      </g>
     </g>
    </g>
    <g id="xtick_2">
     <g id="line2d_2">
      <g>
       <use xlink:href="#m5fdcc293fb" x="110.4072" y="228.96" style="stroke: #000000; stroke-width: 0.8"/>
      </g>
     </g>
     <g id="text_2">
      <!-- $\mathdefault{500}$ -->
      <g transform="translate(102.935197 243.05832) scale(0.1 -0.1)">
       <defs>
        <path id="CMR17-35" d="M 730 3750 
C 794 3724 1056 3641 1325 3641 
C 1920 3641 2246 3961 2432 4140 
C 2432 4191 2432 4224 2394 4224 
C 2387 4224 2374 4224 2323 4198 
C 2099 4102 1837 4032 1517 4032 
C 1325 4032 1037 4055 723 4191 
C 653 4224 640 4224 634 4224 
C 602 4224 595 4217 595 4090 
L 595 2231 
C 595 2113 595 2080 659 2080 
C 691 2080 704 2093 736 2139 
C 941 2435 1222 2560 1542 2560 
C 1766 2560 2246 2415 2246 1293 
C 2246 1087 2246 716 2054 422 
C 1894 159 1645 25 1370 25 
C 947 25 518 319 403 812 
C 429 806 480 793 506 793 
C 589 793 749 838 749 1036 
C 749 1209 627 1280 506 1280 
C 358 1280 262 1190 262 1011 
C 262 454 704 -128 1382 -128 
C 2042 -128 2669 441 2669 1267 
C 2669 2054 2170 2662 1549 2662 
C 1222 2662 947 2540 730 2304 
L 730 3750 
z
" transform="scale(0.015625)"/>
       </defs>
       <use xlink:href="#CMR17-35" transform="scale(0.996264)"/>
       <use xlink:href="#CMR17-30" transform="translate(45.690477 0) scale(0.996264)"/>
       <use xlink:href="#CMR17-30" transform="translate(91.380954 0) scale(0.996264)"/>
      </g>
     </g>
    </g>
    <g id="xtick_3">
     <g id="line2d_3">
      <g>
       <use xlink:href="#m5fdcc293fb" x="165.445832" y="228.96" style="stroke: #000000; stroke-width: 0.8"/>
      </g>
     </g>
     <g id="text_3">
      <!-- $\mathdefault{1000}$ -->
      <g transform="translate(155.483161 243.05832) scale(0.1 -0.1)">
       <defs>
        <path id="CMR17-31" d="M 1702 4083 
C 1702 4217 1696 4224 1606 4224 
C 1357 3927 979 3833 621 3820 
C 602 3820 570 3820 563 3808 
C 557 3795 557 3782 557 3648 
C 755 3648 1088 3686 1344 3839 
L 1344 467 
C 1344 243 1331 166 781 166 
L 589 166 
L 589 0 
C 896 6 1216 12 1523 12 
C 1830 12 2150 6 2458 0 
L 2458 166 
L 2266 166 
C 1715 166 1702 236 1702 467 
L 1702 4083 
z
" transform="scale(0.015625)"/>
       </defs>
       <use xlink:href="#CMR17-31" transform="scale(0.996264)"/>
       <use xlink:href="#CMR17-30" transform="translate(45.690477 0) scale(0.996264)"/>
       <use xlink:href="#CMR17-30" transform="translate(91.380954 0) scale(0.996264)"/>
       <use xlink:href="#CMR17-30" transform="translate(137.071431 0) scale(0.996264)"/>
      </g>
     </g>
    </g>
    <g id="xtick_4">
     <g id="line2d_4">
      <g>
       <use xlink:href="#m5fdcc293fb" x="220.484464" y="228.96" style="stroke: #000000; stroke-width: 0.8"/>
      </g>
     </g>
     <g id="text_4">
      <!-- $\mathdefault{1500}$ -->
      <g transform="translate(210.521794 243.05832) scale(0.1 -0.1)">
       <use xlink:href="#CMR17-31" transform="scale(0.996264)"/>
       <use xlink:href="#CMR17-35" transform="translate(45.690477 0) scale(0.996264)"/>
       <use xlink:href="#CMR17-30" transform="translate(91.380954 0) scale(0.996264)"/>
       <use xlink:href="#CMR17-30" transform="translate(137.071431 0) scale(0.996264)"/>
      </g>
     </g>
    </g>
    <g id="xtick_5">
     <g id="line2d_5">
      <g>
       <use xlink:href="#m5fdcc293fb" x="275.523096" y="228.96" style="stroke: #000000; stroke-width: 0.8"/>
      </g>
     </g>
     <g id="text_5">
      <!-- $\mathdefault{2000}$ -->
      <g transform="translate(265.560426 243.05832) scale(0.1 -0.1)">
       <defs>
        <path id="CMR17-32" d="M 2669 990 
L 2554 990 
C 2490 537 2438 460 2413 422 
C 2381 371 1920 371 1830 371 
L 602 371 
C 832 620 1280 1073 1824 1596 
C 2214 1966 2669 2400 2669 3033 
C 2669 3788 2067 4224 1395 4224 
C 691 4224 262 3603 262 3027 
C 262 2777 448 2745 525 2745 
C 589 2745 781 2783 781 3007 
C 781 3206 614 3264 525 3264 
C 486 3264 448 3257 422 3244 
C 544 3788 915 4057 1306 4057 
C 1862 4057 2227 3616 2227 3033 
C 2227 2477 1901 1998 1536 1583 
L 262 147 
L 262 0 
L 2515 0 
L 2669 990 
z
" transform="scale(0.015625)"/>
       </defs>
       <use xlink:href="#CMR17-32" transform="scale(0.996264)"/>
       <use xlink:href="#CMR17-30" transform="translate(45.690477 0) scale(0.996264)"/>
       <use xlink:href="#CMR17-30" transform="translate(91.380954 0) scale(0.996264)"/>
       <use xlink:href="#CMR17-30" transform="translate(137.071431 0) scale(0.996264)"/>
      </g>
     </g>
    </g>
    <g id="xtick_6">
     <g id="line2d_6">
      <g>
       <use xlink:href="#m5fdcc293fb" x="330.561729" y="228.96" style="stroke: #000000; stroke-width: 0.8"/>
      </g>
     </g>
     <g id="text_6">
      <!-- $\mathdefault{2500}$ -->
      <g transform="translate(320.599058 243.05832) scale(0.1 -0.1)">
       <use xlink:href="#CMR17-32" transform="scale(0.996264)"/>
       <use xlink:href="#CMR17-35" transform="translate(45.690477 0) scale(0.996264)"/>
       <use xlink:href="#CMR17-30" transform="translate(91.380954 0) scale(0.996264)"/>
       <use xlink:href="#CMR17-30" transform="translate(137.071431 0) scale(0.996264)"/>
      </g>
     </g>
    </g>
    <g id="text_7">
     <!-- Iteration -->
     <g transform="translate(189.603009 256.278627) scale(0.1 -0.1)">
      <defs>
       <path id="NimbusSanL-Regu-49" d="M 1242 4672 
L 640 4672 
L 640 0 
L 1242 0 
L 1242 4672 
z
" transform="scale(0.015625)"/>
       <path id="NimbusSanL-Regu-74" d="M 1626 3328 
L 1075 3328 
L 1075 4249 
L 544 4249 
L 544 3328 
L 90 3328 
L 90 2892 
L 544 2892 
L 544 402 
C 544 64 774 -128 1190 -128 
C 1318 -128 1446 -116 1626 -84 
L 1626 364 
C 1555 345 1472 339 1370 339 
C 1139 339 1075 402 1075 634 
L 1075 2892 
L 1626 2892 
L 1626 3328 
z
" transform="scale(0.015625)"/>
       <path id="NimbusSanL-Regu-65" d="M 3283 1484 
C 3283 1998 3245 2311 3149 2565 
C 2931 3123 2419 3456 1792 3456 
C 858 3456 256 2734 256 1619 
C 256 545 838 -128 1779 -128 
C 2547 -128 3078 307 3213 1018 
L 2675 1018 
C 2528 588 2227 364 1798 364 
C 1459 364 1171 514 992 787 
C 864 974 819 1161 813 1484 
L 3283 1484 
z
M 826 1920 
C 870 2552 1248 2963 1786 2963 
C 2310 2963 2714 2519 2714 1959 
C 2714 1946 2714 1933 2707 1920 
L 826 1920 
z
" transform="scale(0.015625)"/>
       <path id="NimbusSanL-Regu-72" d="M 442 3328 
L 442 0 
L 979 0 
L 979 1727 
C 979 2203 1101 2514 1357 2698 
C 1523 2819 1683 2857 2054 2863 
L 2054 3404 
C 1965 3449 1920 3456 1850 3456 
C 1504 3456 1242 3251 934 2750 
L 934 3328 
L 442 3328 
z
" transform="scale(0.015625)"/>
       <path id="NimbusSanL-Regu-61" d="M 3424 332 
C 3366 320 3341 320 3309 320 
C 3123 320 3021 415 3021 581 
L 3021 2542 
C 3021 3135 2586 3456 1760 3456 
C 1274 3456 870 3315 646 3065 
C 493 2893 429 2702 416 2370 
L 954 2370 
C 998 2778 1242 2963 1741 2963 
C 2221 2963 2490 2784 2490 2466 
L 2490 2326 
C 2490 2103 2355 2007 1933 1956 
C 1178 1861 1062 1835 858 1753 
C 467 1593 269 1294 269 861 
C 269 256 691 -128 1370 -128 
C 1792 -128 2131 19 2509 364 
C 2547 25 2714 -128 3059 -128 
C 3168 -128 3251 -116 3424 -71 
L 3424 332 
z
M 2490 1071 
C 2490 893 2438 785 2278 638 
C 2061 441 1798 339 1485 339 
C 1069 339 826 536 826 874 
C 826 1224 1062 1402 1632 1485 
C 2195 1562 2310 1587 2490 1670 
L 2490 1071 
z
" transform="scale(0.015625)"/>
       <path id="NimbusSanL-Regu-69" d="M 960 3358 
L 429 3358 
L 429 0 
L 960 0 
L 960 3358 
z
M 960 4672 
L 422 4672 
L 422 3999 
L 960 3999 
L 960 4672 
z
" transform="scale(0.015625)"/>
       <path id="NimbusSanL-Regu-6f" d="M 1741 3456 
C 800 3456 230 2784 230 1663 
C 230 543 794 -128 1747 -128 
C 2688 -128 3264 543 3264 1638 
C 3264 2791 2707 3456 1741 3456 
z
M 1747 2963 
C 2349 2963 2707 2472 2707 1644 
C 2707 861 2336 364 1747 364 
C 1152 364 787 855 787 1663 
C 787 2466 1152 2963 1747 2963 
z
" transform="scale(0.015625)"/>
       <path id="NimbusSanL-Regu-6e" d="M 448 3328 
L 448 0 
L 986 0 
L 986 1835 
C 986 2539 1344 2988 1894 2988 
C 2317 2988 2586 2732 2586 2328 
L 2586 0 
L 3117 0 
L 3117 2539 
C 3117 3097 2701 3456 2054 3456 
C 1555 3456 1235 3263 941 2796 
L 941 3328 
L 448 3328 
z
" transform="scale(0.015625)"/>
      </defs>
      <use xlink:href="#NimbusSanL-Regu-49" transform="scale(0.996264)"/>
      <use xlink:href="#NimbusSanL-Regu-74" transform="translate(27.69517 0) scale(0.996264)"/>
      <use xlink:href="#NimbusSanL-Regu-65" transform="translate(55.390339 0) scale(0.996264)"/>
      <use xlink:href="#NimbusSanL-Regu-72" transform="translate(110.782016 0) scale(0.996264)"/>
      <use xlink:href="#NimbusSanL-Regu-61" transform="translate(142.961149 0) scale(0.996264)"/>
      <use xlink:href="#NimbusSanL-Regu-74" transform="translate(198.352826 0) scale(0.996264)"/>
      <use xlink:href="#NimbusSanL-Regu-69" transform="translate(226.047996 0) scale(0.996264)"/>
      <use xlink:href="#NimbusSanL-Regu-6f" transform="translate(248.16478 0) scale(0.996264)"/>
      <use xlink:href="#NimbusSanL-Regu-6e" transform="translate(303.556457 0) scale(0.996264)"/>
     </g>
    </g>
   </g>
   <g id="matplotlib.axis_2">
    <g id="ytick_1">
     <g id="line2d_7">
      <defs>
       <path id="m86b1d1a4d1" d="M 0 0 
L -3.5 0 
" style="stroke: #000000; stroke-width: 0.8"/>
      </defs>
      <g>
       <use xlink:href="#m86b1d1a4d1" x="40.150386" y="197.348693" style="stroke: #000000; stroke-width: 0.8"/>
      </g>
     </g>
     <g id="text_8">
      <!-- $\mathdefault{−6}$ -->
      <g transform="translate(20.420307 200.897853) scale(0.1 -0.1)">
       <defs>
        <path id="CMSY10-0" d="M 4218 1472 
C 4326 1472 4442 1472 4442 1600 
C 4442 1728 4326 1728 4218 1728 
L 755 1728 
C 646 1728 531 1728 531 1600 
C 531 1472 646 1472 755 1472 
L 4218 1472 
z
" transform="scale(0.015625)"/>
        <path id="CMR17-36" d="M 678 2198 
C 678 3712 1395 4076 1811 4076 
C 1946 4076 2272 4049 2400 3782 
C 2298 3782 2106 3782 2106 3558 
C 2106 3385 2246 3328 2336 3328 
C 2394 3328 2566 3353 2566 3571 
C 2566 3987 2246 4224 1805 4224 
C 1043 4224 243 3411 243 2011 
C 243 257 966 -128 1478 -128 
C 2099 -128 2688 431 2688 1295 
C 2688 2101 2170 2688 1517 2688 
C 1126 2688 838 2430 678 1979 
L 678 2198 
z
M 1478 25 
C 691 25 691 1212 691 1450 
C 691 1914 909 2585 1504 2585 
C 1613 2585 1926 2585 2138 2140 
C 2253 1889 2253 1624 2253 1302 
C 2253 954 2253 696 2118 438 
C 1978 173 1773 25 1478 25 
z
" transform="scale(0.015625)"/>
       </defs>
       <use xlink:href="#CMSY10-0" transform="scale(0.996264)"/>
       <use xlink:href="#CMR17-36" transform="translate(77.487468 0) scale(0.996264)"/>
      </g>
     </g>
    </g>
    <g id="ytick_2">
     <g id="line2d_8">
      <g>
       <use xlink:href="#m86b1d1a4d1" x="40.150386" y="154.528048" style="stroke: #000000; stroke-width: 0.8"/>
      </g>
     </g>
     <g id="text_9">
      <!-- $\mathdefault{−4}$ -->
      <g transform="translate(20.420307 158.077208) scale(0.1 -0.1)">
       <defs>
        <path id="CMR17-34" d="M 2150 4147 
C 2150 4281 2144 4288 2029 4288 
L 128 1254 
L 128 1088 
L 1779 1088 
L 1779 460 
C 1779 230 1766 166 1318 166 
L 1197 166 
L 1197 0 
C 1402 12 1747 12 1965 12 
C 2182 12 2528 12 2733 0 
L 2733 166 
L 2611 166 
C 2163 166 2150 230 2150 460 
L 2150 1088 
L 2803 1088 
L 2803 1254 
L 2150 1254 
L 2150 4147 
z
M 1798 3723 
L 1798 1254 
L 256 1254 
L 1798 3723 
z
" transform="scale(0.015625)"/>
       </defs>
       <use xlink:href="#CMSY10-0" transform="scale(0.996264)"/>
       <use xlink:href="#CMR17-34" transform="translate(77.487468 0) scale(0.996264)"/>
      </g>
     </g>
    </g>
    <g id="ytick_3">
     <g id="line2d_9">
      <g>
       <use xlink:href="#m86b1d1a4d1" x="40.150386" y="111.707404" style="stroke: #000000; stroke-width: 0.8"/>
      </g>
     </g>
     <g id="text_10">
      <!-- $\mathdefault{−2}$ -->
      <g transform="translate(20.420307 115.256564) scale(0.1 -0.1)">
       <use xlink:href="#CMSY10-0" transform="scale(0.996264)"/>
       <use xlink:href="#CMR17-32" transform="translate(77.487468 0) scale(0.996264)"/>
      </g>
     </g>
    </g>
    <g id="ytick_4">
     <g id="line2d_10">
      <g>
       <use xlink:href="#m86b1d1a4d1" x="40.150386" y="68.886759" style="stroke: #000000; stroke-width: 0.8"/>
      </g>
     </g>
     <g id="text_11">
      <!-- $\mathdefault{0}$ -->
      <g transform="translate(28.16905 72.435919) scale(0.1 -0.1)">
       <use xlink:href="#CMR17-30" transform="scale(0.996264)"/>
      </g>
     </g>
    </g>
    <g id="ytick_5">
     <g id="line2d_11">
      <g>
       <use xlink:href="#m86b1d1a4d1" x="40.150386" y="26.066115" style="stroke: #000000; stroke-width: 0.8"/>
      </g>
     </g>
     <g id="text_12">
      <!-- $\mathdefault{2}$ -->
      <g transform="translate(28.16905 29.615275) scale(0.1 -0.1)">
       <use xlink:href="#CMR17-32" transform="scale(0.996264)"/>
      </g>
     </g>
    </g>
    <g id="text_13">
     <!-- RMS residual - Blade_0 -->
     <g transform="translate(14.29832 169.700806) rotate(-90) scale(0.1 -0.1)">
      <defs>
       <path id="NimbusSanL-Regu-52" d="M 1190 2035 
L 2726 2035 
C 3258 2035 3494 1775 3494 1191 
L 3488 770 
C 3488 478 3539 192 3622 0 
L 4346 0 
L 4346 147 
C 4122 303 4077 471 4064 1101 
C 4058 1879 3936 2111 3430 2329 
C 3955 2585 4166 2907 4166 3432 
C 4166 4230 3661 4672 2746 4672 
L 595 4672 
L 595 0 
L 1190 0 
L 1190 2035 
z
M 1190 2560 
L 1190 4147 
L 2630 4147 
C 2963 4147 3155 4096 3302 3970 
C 3462 3837 3546 3628 3546 3350 
C 3546 2806 3264 2560 2630 2560 
L 1190 2560 
z
" transform="scale(0.015625)"/>
       <path id="NimbusSanL-Regu-4d" d="M 2995 0 
L 4307 3915 
L 4307 0 
L 4870 0 
L 4870 4672 
L 4045 4672 
L 2688 602 
L 1306 4672 
L 480 4672 
L 480 0 
L 1043 0 
L 1043 3915 
L 2368 0 
L 2995 0 
z
" transform="scale(0.015625)"/>
       <path id="NimbusSanL-Regu-53" d="M 3814 3295 
C 3808 4204 3181 4736 2106 4736 
C 1082 4736 448 4211 448 3372 
C 448 2806 749 2450 1363 2291 
L 2522 1986 
C 3110 1833 3379 1598 3379 1236 
C 3379 988 3245 733 3046 593 
C 2861 466 2566 396 2189 396 
C 1683 396 1338 517 1114 784 
C 941 988 864 1210 870 1496 
L 307 1496 
C 314 1070 397 790 582 536 
C 902 102 1440 -128 2150 -128 
C 2707 -128 3162 0 3462 230 
C 3776 479 3974 892 3974 1293 
C 3974 1865 3616 2284 2982 2456 
L 1811 2768 
C 1248 2920 1043 3098 1043 3454 
C 1043 3925 1459 4236 2086 4236 
C 2829 4236 3245 3899 3251 3295 
L 3814 3295 
z
" transform="scale(0.015625)"/>
       <path id="NimbusSanL-Regu-73" d="M 2803 2428 
C 2797 3084 2362 3456 1587 3456 
C 806 3456 301 3052 301 2434 
C 301 1912 570 1663 1363 1472 
L 1862 1351 
C 2234 1262 2381 1129 2381 887 
C 2381 574 2067 364 1600 364 
C 1312 364 1069 447 934 587 
C 851 683 813 778 781 1014 
L 218 1014 
C 243 243 678 -128 1555 -128 
C 2400 -128 2938 288 2938 931 
C 2938 1428 2656 1702 1990 1861 
L 1478 1982 
C 1043 2084 858 2224 858 2459 
C 858 2765 1133 2963 1568 2963 
C 1997 2963 2227 2778 2240 2428 
L 2803 2428 
z
" transform="scale(0.015625)"/>
       <path id="NimbusSanL-Regu-64" d="M 3168 4672 
L 2637 4672 
L 2637 2937 
C 2413 3276 2054 3456 1606 3456 
C 736 3456 166 2759 166 1695 
C 166 568 723 -128 1626 -128 
C 2086 -128 2406 44 2694 460 
L 2694 19 
L 3168 19 
L 3168 4672 
z
M 1696 2956 
C 2272 2956 2637 2447 2637 1651 
C 2637 880 2266 371 1702 371 
C 1114 371 723 887 723 1663 
C 723 2440 1114 2956 1696 2956 
z
" transform="scale(0.015625)"/>
       <path id="NimbusSanL-Regu-75" d="M 3085 19 
L 3085 3328 
L 2554 3328 
L 2554 1454 
C 2554 780 2195 339 1638 339 
C 1216 339 947 591 947 988 
L 947 3328 
L 416 3328 
L 416 780 
C 416 230 832 -128 1485 -128 
C 1978 -128 2291 44 2605 484 
L 2605 19 
L 3085 19 
z
" transform="scale(0.015625)"/>
       <path id="NimbusSanL-Regu-6c" d="M 973 4672 
L 435 4672 
L 435 0 
L 973 0 
L 973 4672 
z
" transform="scale(0.015625)"/>
       <path id="NimbusSanL-Regu-2d" d="M 1818 1996 
L 294 1996 
L 294 1536 
L 1818 1536 
L 1818 1996 
z
" transform="scale(0.015625)"/>
       <path id="NimbusSanL-Regu-42" d="M 506 0 
L 2611 0 
C 3053 0 3379 121 3629 390 
C 3859 632 3987 961 3987 1321 
C 3987 1878 3731 2214 3136 2444 
C 3558 2643 3782 2994 3782 3476 
C 3782 3821 3654 4127 3411 4345 
C 3168 4569 2848 4672 2400 4672 
L 506 4672 
L 506 0 
z
M 1101 2636 
L 1101 4147 
L 2253 4147 
C 2586 4147 2771 4101 2931 3977 
C 3098 3847 3187 3652 3187 3391 
C 3187 3138 3098 2936 2931 2806 
C 2771 2682 2586 2636 2253 2636 
L 1101 2636 
z
M 1101 524 
L 1101 2112 
L 2554 2112 
C 2842 2112 3034 2042 3174 1890 
C 3315 1745 3392 1542 3392 1315 
C 3392 1093 3315 891 3174 746 
C 3034 594 2842 524 2554 524 
L 1101 524 
z
" transform="scale(0.015625)"/>
       <path id="NimbusSanL-Regu-30" d="M 1760 4544 
C 1338 4544 954 4358 717 4044 
C 422 3649 275 3043 275 2207 
C 275 683 787 -128 1760 -128 
C 2720 -128 3245 683 3245 2169 
C 3245 3049 3104 3636 2803 4044 
C 2566 4364 2189 4544 1760 4544 
z
M 1760 4044 
C 2368 4044 2669 3432 2669 2220 
C 2669 938 2374 339 1747 339 
C 1152 339 851 964 851 2201 
C 851 3438 1152 4044 1760 4044 
z
" transform="scale(0.015625)"/>
      </defs>
      <use xlink:href="#NimbusSanL-Regu-52" transform="scale(0.996264)"/>
      <use xlink:href="#NimbusSanL-Regu-4d" transform="translate(71.929985 0) scale(0.996264)"/>
      <use xlink:href="#NimbusSanL-Regu-53" transform="translate(154.918415 0) scale(0.996264)"/>
      <use xlink:href="#NimbusSanL-Regu-72" transform="translate(249.063616 0) scale(0.996264)"/>
      <use xlink:href="#NimbusSanL-Regu-65" transform="translate(282.238846 0) scale(0.996264)"/>
      <use xlink:href="#NimbusSanL-Regu-73" transform="translate(337.630523 0) scale(0.996264)"/>
      <use xlink:href="#NimbusSanL-Regu-69" transform="translate(387.443723 0) scale(0.996264)"/>
      <use xlink:href="#NimbusSanL-Regu-64" transform="translate(409.560507 0) scale(0.996264)"/>
      <use xlink:href="#NimbusSanL-Regu-75" transform="translate(464.952184 0) scale(0.996264)"/>
      <use xlink:href="#NimbusSanL-Regu-61" transform="translate(520.343861 0) scale(0.996264)"/>
      <use xlink:href="#NimbusSanL-Regu-6c" transform="translate(575.735538 0) scale(0.996264)"/>
      <use xlink:href="#NimbusSanL-Regu-2d" transform="translate(625.547492 0) scale(0.996264)"/>
      <use xlink:href="#NimbusSanL-Regu-42" transform="translate(686.417892 0) scale(0.996264)"/>
      <use xlink:href="#NimbusSanL-Regu-6c" transform="translate(752.867923 0) scale(0.996264)"/>
      <use xlink:href="#NimbusSanL-Regu-61" transform="translate(774.984707 0) scale(0.996264)"/>
      <use xlink:href="#NimbusSanL-Regu-64" transform="translate(830.376384 0) scale(0.996264)"/>
      <use xlink:href="#NimbusSanL-Regu-65" transform="translate(885.768061 0) scale(0.996264)"/>
      <use xlink:href="#NimbusSanL-Regu-30" transform="translate(977.025303 0) scale(0.996264)"/>
      <path d="M 947.137079 0 
L 977.025303 0 
L 977.025303 0.3985 
L 947.137079 0.3985 
L 947.137079 0 
z
"/>
     </g>
    </g>
   </g>
   <g id="line2d_12">
    <path d="M 55.368567 135.541724 
L 55.698799 144.511024 
L 55.918954 147.808598 
L 56.139108 149.207575 
L 56.249186 149.297159 
L 56.46934 148.796397 
L 56.689495 148.619077 
L 56.909649 147.786141 
L 57.129804 146.761224 
L 57.239881 146.637914 
L 58.120499 149.223091 
L 58.230576 149.119343 
L 58.450731 147.822084 
L 59.001117 142.046766 
L 59.221272 142.254693 
L 59.441426 143.070074 
L 60.211967 147.400838 
L 60.322044 147.319896 
L 60.542199 147.721878 
L 61.092585 149.113904 
L 61.31274 149.218723 
L 61.532894 149.009792 
L 61.863126 148.019455 
L 61.973203 148.187074 
L 62.52359 149.207975 
L 62.853821 148.998082 
L 63.073976 148.735583 
L 63.294131 148.038376 
L 63.404208 148.138714 
L 63.954594 148.705412 
L 64.284826 148.471299 
L 64.615058 147.941424 
L 64.945289 147.367261 
L 65.165444 147.562149 
L 65.605753 148.156555 
L 65.935985 148.178153 
L 66.046062 148.124796 
L 66.156139 147.91336 
L 66.376294 146.719874 
L 66.486371 146.853016 
L 67.146835 148.044422 
L 67.366989 147.935752 
L 67.587144 147.275375 
L 67.917376 145.502752 
L 68.13753 146.290571 
L 68.577839 148.090618 
L 68.797994 148.484074 
L 68.908071 148.461661 
L 69.34838 146.966705 
L 70.118921 150.909677 
L 70.339075 151.874822 
L 70.449153 151.781664 
L 70.669307 150.736125 
L 70.889462 149.119692 
L 70.999539 149.17608 
L 71.219694 149.637796 
L 71.549925 150.785367 
L 71.660003 150.840332 
L 71.880157 150.484912 
L 72.540621 148.392482 
L 72.650698 148.471627 
L 72.760775 148.276873 
L 72.98093 148.969263 
L 73.421239 150.710606 
L 73.641393 150.95397 
L 73.751471 150.905311 
L 73.971625 150.388717 
L 74.19178 149.592382 
L 74.411934 150.065424 
L 74.742166 151.063901 
L 74.962321 151.069301 
L 75.182475 150.898838 
L 75.40263 150.115787 
L 75.732861 147.775986 
L 75.842939 147.899831 
L 76.063093 148.649455 
L 76.283248 149.553986 
L 76.393325 149.602842 
L 76.61348 148.97514 
L 77.273943 146.649083 
L 77.494098 147.241326 
L 77.934407 149.693226 
L 78.264638 149.225126 
L 79.035179 150.994815 
L 79.255334 151.679471 
L 79.585566 151.940991 
L 80.246029 153.398845 
L 80.796416 153.709961 
L 81.01657 154.609222 
L 81.236725 155.55254 
L 81.456879 155.597617 
L 81.787111 155.67017 
L 82.117343 154.721016 
L 82.22742 154.783755 
L 82.447575 155.426694 
L 82.777806 156.3916 
L 83.108038 156.548664 
L 83.328193 156.17719 
L 83.548347 155.622081 
L 83.768502 155.771965 
L 83.988656 156.472607 
L 84.318888 157.456304 
L 84.539043 157.479215 
L 84.759197 157.162751 
L 85.089429 156.444141 
L 85.639815 157.244517 
L 85.85997 157.738873 
L 86.410356 159.662954 
L 86.630511 159.730368 
L 86.850665 159.066839 
L 87.07082 158.041661 
L 87.290974 158.363833 
L 87.621206 159.491804 
L 87.951438 160.36751 
L 88.061515 160.389811 
L 88.28167 159.949768 
L 88.611901 158.997993 
L 88.942133 159.530606 
L 89.822751 161.480736 
L 90.042906 160.936279 
L 90.373138 159.953429 
L 90.593292 159.754167 
L 90.923524 160.215828 
L 91.583987 161.714767 
L 92.134374 161.47321 
L 92.354528 161.377403 
L 92.574683 161.562714 
L 93.125069 162.313979 
L 93.455301 162.018933 
L 93.785533 161.549587 
L 93.89561 161.673832 
L 94.225842 162.50369 
L 94.556074 163.228713 
L 94.776228 163.303659 
L 94.996383 163.010562 
L 95.216537 162.565547 
L 96.097155 163.617391 
L 96.31731 163.635288 
L 96.537464 163.397322 
L 96.757619 163.060973 
L 97.087851 163.55926 
L 97.638237 164.584382 
L 97.858392 164.512439 
L 98.188623 163.958295 
L 98.518855 164.29093 
L 99.179319 165.618036 
L 99.399473 165.441536 
L 99.619628 164.921315 
L 99.729705 164.497708 
L 99.94986 164.58412 
L 100.170014 165.025319 
L 100.500246 165.860961 
L 100.7204 165.843779 
L 100.940555 165.4714 
L 101.270787 164.383022 
L 101.601019 165.117382 
L 101.93125 165.884043 
L 102.261482 166.126415 
L 102.371559 166.097367 
L 102.591714 165.603722 
L 102.701791 165.224961 
L 103.032023 165.855386 
L 103.362255 166.494894 
L 103.692487 166.651673 
L 103.912641 166.464722 
L 104.242873 165.614731 
L 105.233568 167.29124 
L 105.453723 167.247743 
L 106.004109 166.480373 
L 106.334341 167.175205 
L 106.77465 168.107252 
L 106.994805 168.241229 
L 107.214959 168.092696 
L 107.435114 167.560214 
L 107.765345 168.053154 
L 108.205654 168.920579 
L 108.425809 169.032965 
L 108.645963 168.888257 
L 108.976195 168.546695 
L 109.416504 169.470862 
L 109.746736 169.984704 
L 109.966891 169.99865 
L 110.187045 169.732536 
L 110.4072 169.29776 
L 110.847509 169.83656 
L 111.067663 170.075682 
L 111.287818 170.044995 
L 111.61805 169.80171 
L 112.058359 169.079187 
L 112.8289 169.566456 
L 113.049054 169.398255 
L 113.709518 168.153367 
L 114.149827 169.077019 
L 114.480058 169.595377 
L 114.700213 169.662449 
L 114.920368 169.336409 
L 115.140522 168.632799 
L 115.470754 169.360347 
L 115.911063 170.298353 
L 116.131217 170.417082 
L 116.241295 170.327773 
L 116.461449 169.73629 
L 116.681604 168.873076 
L 117.011836 169.927545 
L 117.342067 170.78375 
L 117.672299 171.041679 
L 117.782376 170.90429 
L 118.332763 169.360296 
L 119.103304 171.618346 
L 119.323458 171.872081 
L 119.433535 171.788662 
L 119.65369 171.025874 
L 119.763767 170.504018 
L 120.093999 171.242956 
L 120.534308 172.318504 
L 120.754463 172.563382 
L 120.86454 172.519706 
L 121.084694 171.860463 
L 121.304849 170.915805 
L 121.635081 171.730342 
L 121.965312 172.657007 
L 122.185467 172.87878 
L 122.405622 172.780374 
L 122.735853 171.94039 
L 122.845931 172.061034 
L 123.726549 173.358083 
L 123.946703 173.179383 
L 124.276935 172.510611 
L 124.387012 172.621792 
L 125.26763 173.709164 
L 125.487785 173.587463 
L 125.707939 173.14901 
L 125.818017 172.792307 
L 126.148249 173.134626 
L 126.698635 173.899784 
L 126.918789 173.892072 
L 127.138944 173.464708 
L 127.249021 173.094043 
L 127.579253 173.394616 
L 128.129639 174.050962 
L 128.349794 174.06627 
L 128.569948 173.689161 
L 128.790103 173.000447 
L 129.120335 173.445344 
L 129.560644 174.143612 
L 129.780798 174.248394 
L 130.000953 173.99249 
L 130.441262 172.884682 
L 130.771494 173.661959 
L 131.101725 174.39648 
L 131.431957 174.619052 
L 131.652112 174.322099 
L 131.872266 173.683316 
L 132.202498 174.203557 
L 132.642807 174.929038 
L 132.862962 175.033669 
L 133.083116 174.84525 
L 133.303271 174.260788 
L 133.413348 173.809641 
L 133.74358 174.275584 
L 134.293966 175.237151 
L 134.514121 175.204025 
L 134.734275 174.618014 
L 134.844352 174.071727 
L 135.174584 174.342863 
L 135.835048 175.297216 
L 135.945125 175.268096 
L 136.16528 174.729838 
L 136.385434 173.726217 
L 136.605589 173.993017 
L 137.37613 175.376056 
L 137.486207 175.342497 
L 137.706361 174.741283 
L 137.926516 173.881302 
L 138.14667 174.316866 
L 138.697057 175.633438 
L 138.917211 175.807327 
L 139.027288 175.76559 
L 139.247443 175.229335 
L 139.35752 174.869984 
L 139.687752 175.41979 
L 140.128061 176.192817 
L 140.458293 176.370274 
L 140.678447 176.039427 
L 140.898602 175.448216 
L 141.228834 176.094151 
L 141.559066 176.721896 
L 141.889297 176.904297 
L 142.109452 176.699629 
L 142.549761 175.918565 
L 143.320302 176.267303 
L 143.870688 177.222656 
L 144.20092 177.319332 
L 144.421074 176.987714 
L 144.641229 176.289041 
L 144.971461 176.770029 
L 145.41177 177.450463 
L 145.631924 177.554115 
L 145.852079 177.376039 
L 146.182311 176.401157 
L 146.292388 176.560376 
L 146.952852 177.763038 
L 147.173006 177.853177 
L 147.283083 177.782134 
L 147.503238 177.242579 
L 147.83347 176.526481 
L 148.60401 178.147047 
L 148.824165 178.341623 
L 148.934242 178.292111 
L 149.264474 177.472732 
L 149.374551 177.633779 
L 150.035015 178.61677 
L 150.365247 178.829071 
L 150.585401 178.504147 
L 150.805556 178.114877 
L 151.02571 178.180588 
L 151.686174 178.824421 
L 152.566792 179.03043 
L 153.337333 179.459752 
L 153.887719 180.360723 
L 154.217951 180.54375 
L 154.328028 180.462692 
L 154.65826 179.626626 
L 154.768337 179.755144 
L 155.538878 180.778918 
L 155.759033 180.860352 
L 155.979187 180.51996 
L 156.199342 179.953366 
L 156.639651 180.761976 
L 156.969883 181.166067 
L 157.300114 181.318963 
L 157.520269 180.979113 
L 157.630346 180.722607 
L 157.960578 181.089153 
L 158.400887 181.578701 
L 158.731119 181.668481 
L 158.951273 181.441701 
L 159.171428 180.993291 
L 159.50166 181.333077 
L 159.941969 181.791252 
L 160.272201 181.813322 
L 160.492355 181.546607 
L 160.71251 181.092628 
L 161.042741 181.429886 
L 161.48305 181.922926 
L 161.703205 181.977591 
L 161.92336 181.785934 
L 162.363669 181.183274 
L 165.005523 182.332865 
L 165.776064 182.621768 
L 166.546605 183.146937 
L 167.5373 184.167358 
L 168.197764 185.038561 
L 168.638073 185.214051 
L 168.858227 185.02637 
L 169.078382 184.696316 
L 169.848923 185.537387 
L 170.179154 185.574608 
L 170.509386 185.152516 
L 170.729541 184.930266 
L 170.949695 184.991142 
L 171.500082 185.249959 
L 171.610159 185.258554 
L 171.720236 185.109014 
L 172.710931 186.61518 
L 172.931086 186.078068 
L 173.15124 185.284157 
L 173.481472 185.961182 
L 173.921781 186.809601 
L 174.141936 187.024996 
L 174.252013 187.008607 
L 174.472168 186.366901 
L 174.692322 185.662832 
L 175.462863 187.208603 
L 175.793095 187.378384 
L 176.343481 186.269143 
L 176.563636 186.394628 
L 176.673713 186.306285 
L 177.114022 187.203152 
L 177.444254 187.41177 
L 177.664408 187.411446 
L 177.884563 187.010927 
L 178.104717 186.254657 
L 179.095413 187.371383 
L 179.315567 187.00716 
L 179.645799 185.896705 
L 179.755876 186.054889 
L 180.636494 187.64531 
L 180.856649 187.057526 
L 181.186881 185.796497 
L 181.517113 186.777708 
L 181.957422 188.002812 
L 182.177576 188.231187 
L 182.397731 187.402845 
L 182.617885 186.459977 
L 182.948117 187.441672 
L 183.278349 188.348173 
L 183.608581 188.807831 
L 183.718658 188.749829 
L 184.158967 187.157113 
L 184.709353 188.83842 
L 185.25974 189.284779 
L 185.589971 188.24154 
L 185.700049 188.303824 
L 186.140358 188.891463 
L 186.580667 189.124503 
L 187.351208 188.95924 
L 188.011671 188.983227 
L 188.45198 189.254809 
L 189.222521 190.0998 
L 191.093835 192.279369 
L 191.313989 192.082356 
L 191.644221 191.244418 
L 192.634916 192.160112 
L 192.855071 191.95343 
L 193.405457 190.759894 
L 193.845766 191.563287 
L 194.286075 192.126994 
L 194.396153 192.125675 
L 194.616307 191.715573 
L 194.836462 190.910376 
L 194.946539 190.983515 
L 195.276771 191.48638 
L 195.71708 192.25629 
L 195.827157 192.304033 
L 195.937234 192.206262 
L 196.267466 191.102061 
L 196.377543 190.707314 
L 196.597698 191.015316 
L 197.368239 192.716081 
L 197.478316 192.606133 
L 197.918625 190.987943 
L 198.028702 191.175473 
L 198.358934 192.071107 
L 198.799243 193.228893 
L 198.90932 193.337142 
L 199.019398 193.22242 
L 199.349629 192.039219 
L 199.789938 192.933597 
L 200.230248 193.827234 
L 200.450402 194.008374 
L 200.670557 193.445207 
L 200.890711 192.752353 
L 201.771329 194.308441 
L 201.991484 194.385303 
L 202.211638 193.804903 
L 202.321716 193.394516 
L 203.312411 194.542076 
L 203.422488 194.511729 
L 203.642643 194.03854 
L 203.862797 193.108893 
L 204.193029 193.748006 
L 204.523261 194.367827 
L 204.853493 194.599952 
L 204.96357 194.47187 
L 205.183724 193.732096 
L 205.403879 192.606478 
L 205.624034 193.082183 
L 206.17442 194.59616 
L 206.394574 194.767747 
L 206.614729 194.069792 
L 206.834883 192.925351 
L 207.055038 193.366465 
L 207.715502 195.155372 
L 207.825579 195.253734 
L 207.935656 195.132252 
L 208.375965 193.044416 
L 208.486042 193.345405 
L 209.256583 195.766439 
L 209.366661 195.892421 
L 209.476738 195.739571 
L 209.917047 193.998388 
L 210.027124 194.052439 
L 210.57751 196.143451 
L 211.017819 196.844279 
L 211.127897 196.589925 
L 211.458129 195.157903 
L 212.008515 197.041554 
L 212.558901 197.412634 
L 212.779056 196.609439 
L 212.99921 195.738363 
L 213.549597 197.228584 
L 213.989906 197.540865 
L 214.099983 197.432217 
L 214.430215 196.114587 
L 214.540292 196.296051 
L 215.310833 197.504474 
L 215.42091 197.538824 
L 215.530987 197.435688 
L 215.751142 196.740165 
L 215.971296 195.65202 
L 216.191451 195.949022 
L 216.961992 197.543525 
L 217.182146 196.988352 
L 217.512378 195.32336 
L 217.622455 195.461202 
L 217.84261 196.010195 
L 218.392996 197.780015 
L 218.503073 197.80999 
L 218.723228 197.013514 
L 218.943383 195.834452 
L 219.163537 196.197704 
L 219.934078 198.328876 
L 220.044155 198.241081 
L 220.484464 196.169106 
L 220.594541 196.442638 
L 221.47516 198.8473 
L 221.585237 198.721954 
L 222.025546 196.933139 
L 222.135623 196.934284 
L 222.68601 198.650758 
L 223.126319 199.263153 
L 223.236396 199.066759 
L 223.566628 197.70876 
L 224.227091 199.23842 
L 224.6674 199.507565 
L 224.887555 198.860194 
L 225.107709 198.039155 
L 225.988327 199.820502 
L 226.208482 199.875202 
L 226.428637 199.325964 
L 226.758868 198.548878 
L 226.868946 198.595142 
L 227.859641 200.359188 
L 228.29995 201.46862 
L 228.410027 201.544194 
L 228.520105 201.476432 
L 228.740259 200.88008 
L 228.960414 200.157582 
L 229.180568 200.276658 
L 229.400723 200.747712 
L 229.841032 202.116912 
L 229.951109 202.227746 
L 230.061186 202.159359 
L 230.391418 200.935258 
L 230.501495 200.994558 
L 230.72165 201.222202 
L 231.382113 202.382221 
L 231.492191 202.375175 
L 231.602268 202.220582 
L 231.9325 200.896695 
L 232.042577 201.019321 
L 232.923195 202.066833 
L 233.033272 201.969777 
L 233.253427 201.295251 
L 233.473581 200.179572 
L 233.91389 201.042528 
L 234.244122 201.464302 
L 234.464277 201.471473 
L 234.684431 201.015037 
L 235.014663 199.405583 
L 235.12474 199.607897 
L 235.895281 201.257218 
L 236.005359 201.250031 
L 236.225513 200.683184 
L 236.445668 199.655374 
L 236.775899 200.347824 
L 237.216208 201.371337 
L 237.436363 201.568881 
L 237.54644 201.458081 
L 237.876672 200.135198 
L 237.986749 199.715087 
L 238.316981 200.752398 
L 238.75729 201.997628 
L 238.977445 202.311387 
L 239.087522 202.195653 
L 239.527831 200.753764 
L 239.637908 200.786055 
L 240.298372 203.006332 
L 240.628604 203.545488 
L 240.738681 203.313447 
L 241.068913 201.962514 
L 241.729376 203.865833 
L 242.169685 204.200976 
L 242.38984 203.41934 
L 242.609994 202.551816 
L 243.160381 204.064044 
L 243.60069 204.418625 
L 243.710767 204.346878 
L 243.930922 203.618226 
L 244.040999 203.102872 
L 244.81154 204.276414 
L 245.031694 204.366678 
L 245.141771 204.296577 
L 245.361926 203.726415 
L 245.582081 202.680699 
L 245.912312 203.206778 
L 246.462699 204.223781 
L 246.572776 204.263833 
L 246.682853 204.16232 
L 246.903008 203.476508 
L 247.123162 202.659343 
L 247.233239 202.566333 
L 247.453394 202.843241 
L 247.783626 203.27448 
L 248.00378 203.399482 
L 248.994476 205.20288 
L 249.104553 205.158816 
L 249.324708 204.529498 
L 249.544862 203.818111 
L 250.535557 205.769517 
L 250.645635 205.720833 
L 250.865789 204.975711 
L 251.085944 204.342666 
L 251.196021 204.183749 
L 252.076639 206.099307 
L 252.186716 206.139489 
L 252.296794 205.997102 
L 252.627025 204.775883 
L 252.737103 204.951682 
L 253.287489 206.009367 
L 253.617721 206.432871 
L 253.727798 206.374135 
L 253.947953 205.763649 
L 254.168107 204.826921 
L 254.608416 205.56924 
L 255.048725 206.61701 
L 255.26888 206.641989 
L 255.489034 206.083035 
L 255.819266 205.02177 
L 256.149498 205.632284 
L 256.699884 207.073431 
L 256.809962 207.140808 
L 256.920039 207.073156 
L 257.140193 206.466808 
L 257.250271 205.991044 
L 257.580502 206.262755 
L 258.240966 207.485472 
L 258.351043 207.448494 
L 258.571198 206.909623 
L 258.791352 205.942824 
L 259.011507 206.192946 
L 259.782048 207.605101 
L 260.002202 207.095805 
L 260.222357 206.047709 
L 260.552588 206.492586 
L 261.102975 207.537343 
L 261.213052 207.571191 
L 261.323129 207.463132 
L 261.543284 206.678048 
L 261.763438 205.525027 
L 262.09367 206.239798 
L 262.533979 207.263153 
L 262.754134 207.36822 
L 262.864211 207.217775 
L 263.194443 205.710615 
L 263.30452 205.159172 
L 263.634752 206.131861 
L 263.964984 207.0376 
L 264.295215 207.296303 
L 264.405293 207.156811 
L 264.955679 205.470765 
L 265.065756 205.381607 
L 265.72622 207.408722 
L 266.056452 207.778191 
L 266.166529 207.671002 
L 266.496761 206.578357 
L 267.377379 208.246765 
L 267.597533 208.274237 
L 267.817688 207.715075 
L 268.037842 207.168136 
L 268.14792 207.006224 
L 269.028538 209.024934 
L 269.138615 209.105197 
L 269.248692 209.028056 
L 269.468847 208.350822 
L 269.578924 207.873707 
L 269.909156 208.414499 
L 270.459542 209.47028 
L 270.56962 209.530457 
L 270.679697 209.46038 
L 270.899851 208.761458 
L 271.120006 207.73035 
L 271.450238 208.44225 
L 271.890547 209.557948 
L 272.110701 209.74877 
L 272.220779 209.631104 
L 272.440933 208.703979 
L 272.661088 207.826425 
L 272.771165 207.561425 
L 273.651783 209.865738 
L 273.76186 209.957801 
L 273.871938 209.832386 
L 274.202169 208.314789 
L 274.312247 208.548826 
L 274.97271 209.99119 
L 275.302942 210.23596 
L 275.413019 210.067578 
L 275.743251 208.634461 
L 276.513792 210.283173 
L 276.844024 210.527812 
L 277.064178 209.978698 
L 277.174255 209.487473 
L 278.275028 210.819061 
L 278.495183 210.385834 
L 278.715337 209.523023 
L 279.045569 210.034687 
L 279.595955 211.141903 
L 279.706033 211.216347 
L 279.81611 211.144683 
L 280.036264 210.515242 
L 280.256419 209.622517 
L 280.586651 210.190711 
L 281.137037 211.686685 
L 281.247114 211.746583 
L 281.357191 211.590563 
L 281.797501 210.063343 
L 282.017655 210.301504 
L 282.347887 210.686872 
L 283.228505 211.211396 
L 283.668814 212.033247 
L 283.999046 212.683212 
L 284.2192 212.669341 
L 284.439355 212.12654 
L 284.659509 211.146776 
L 284.769587 211.242894 
L 285.099818 211.638933 
L 285.540128 212.496646 
L 285.760282 212.422803 
L 285.980437 211.873974 
L 286.090514 211.418002 
L 286.530823 211.766423 
L 287.081209 212.564861 
L 287.301364 212.30976 
L 287.631596 211.099667 
L 287.741673 211.180147 
L 287.961827 211.43944 
L 288.622291 212.608892 
L 288.842445 212.218191 
L 289.172677 210.822319 
L 289.282755 210.973652 
L 289.612986 211.76259 
L 289.943218 212.640385 
L 290.163373 212.770076 
L 290.27345 212.603218 
L 290.823836 211.015738 
L 291.594377 211.935327 
L 292.915304 213.011031 
L 293.685845 213.389559 
L 294.456386 213.597694 
L 295.11685 213.590413 
L 295.88739 213.328032 
L 298.30909 212.397805 
L 298.419167 212.38624 
L 298.529245 212.24188 
L 299.299786 213.341338 
L 299.51994 213.371084 
L 299.740095 213.108889 
L 299.960249 212.427785 
L 300.290481 212.822042 
L 300.73079 213.405206 
L 301.061022 213.502187 
L 301.281176 213.169892 
L 301.501331 212.525372 
L 301.94164 213.255661 
L 302.381949 213.847116 
L 302.602104 213.943529 
L 302.822258 213.574255 
L 303.042413 213.019438 
L 303.262567 212.993663 
L 304.143185 213.768965 
L 304.693572 214.106799 
L 305.684267 215.310077 
L 305.794344 215.262129 
L 306.014499 214.762712 
L 306.124576 214.373313 
L 306.564885 214.859661 
L 307.005194 215.615921 
L 307.225349 215.698718 
L 307.445503 215.407863 
L 307.55558 215.06589 
L 307.99589 215.308946 
L 308.656353 216.097771 
L 308.876508 215.89006 
L 309.206739 215.247694 
L 309.426894 215.33232 
L 309.647048 215.648864 
L 309.97728 216.218061 
L 310.197435 216.217793 
L 310.417589 215.843761 
L 310.857898 214.65291 
L 311.18813 214.916011 
L 311.738516 215.898189 
L 311.958671 215.768555 
L 312.178826 215.287427 
L 312.39898 214.842285 
L 312.619135 214.8573 
L 312.839289 215.154892 
L 313.169521 215.799731 
L 313.279598 215.820425 
L 313.499753 215.509661 
L 313.940062 214.253643 
L 314.160216 214.29038 
L 314.380371 214.702743 
L 314.710603 215.455835 
L 314.82068 215.478015 
L 315.040834 215.156046 
L 315.481143 213.917896 
L 315.701298 214.058325 
L 316.03153 214.917763 
L 316.251684 215.33514 
L 316.361762 215.345776 
L 316.581916 214.950681 
L 317.022225 213.716408 
L 317.24238 213.831608 
L 317.682689 214.161735 
L 318.783461 214.606012 
L 319.66408 215.962279 
L 319.774157 215.931718 
L 319.994311 215.460971 
L 320.214466 214.644258 
L 320.654775 215.383655 
L 321.095084 216.007699 
L 321.315239 215.969567 
L 321.535393 215.361266 
L 321.755548 214.687324 
L 321.975702 214.470933 
L 322.746243 215.923631 
L 322.966397 215.992483 
L 323.186552 215.543233 
L 323.406707 214.685858 
L 324.287325 215.949143 
L 324.507479 215.834059 
L 324.727634 215.158943 
L 324.947788 214.188462 
L 325.608252 215.576018 
L 325.938484 215.653377 
L 326.158638 215.175243 
L 326.598947 213.542137 
L 327.149334 215.036821 
L 327.589643 215.206451 
L 327.809797 214.509449 
L 328.029952 213.394872 
L 328.690415 214.855901 
L 329.020647 215.012884 
L 329.130724 214.896898 
L 329.350879 213.985083 
L 329.571033 212.796994 
L 330.231497 214.467221 
L 330.561729 214.690048 
L 330.671806 214.53893 
L 331.002038 212.859305 
L 331.112115 212.301763 
L 331.772579 214.146279 
L 332.10281 214.508672 
L 332.212888 214.326483 
L 332.543119 212.572516 
L 333.423738 214.48755 
L 333.643892 214.612166 
L 333.864047 213.78555 
L 334.084201 212.622934 
L 335.074897 214.844496 
L 335.184974 214.802652 
L 335.405128 213.927601 
L 335.625283 213.012895 
L 335.845437 212.756763 
L 336.285746 213.877665 
L 336.726056 214.973457 
L 336.836133 215.048406 
L 336.94621 214.977163 
L 337.166365 214.171764 
L 337.276442 213.548574 
L 337.606674 213.858924 
L 337.936905 214.811277 
L 338.267137 215.446584 
L 338.377215 215.409796 
L 338.597369 214.791132 
L 338.927601 213.522523 
L 339.147755 213.700742 
L 339.36791 214.463203 
L 339.698142 215.547635 
L 339.808219 215.60135 
L 339.918296 215.527893 
L 340.138451 214.805545 
L 340.358605 214.077213 
L 340.57876 214.073205 
L 340.798914 214.62637 
L 341.129146 215.785732 
L 341.349301 215.845793 
L 341.569455 215.217454 
L 341.899687 213.799683 
L 342.009764 213.784094 
L 342.119841 213.888454 
L 342.339996 214.635952 
L 342.670228 215.853893 
L 342.780305 215.91959 
L 342.890382 215.845952 
L 343.110537 215.107567 
L 343.440769 213.324414 
L 343.660923 213.486141 
L 343.881078 214.189077 
L 344.21131 215.634813 
L 344.431464 215.83844 
L 344.541541 215.792227 
L 344.651619 215.553721 
L 344.98185 214.290572 
L 345.202005 214.441139 
L 345.422159 215.118415 
L 345.752391 216.198047 
L 345.862468 216.255063 
L 345.972546 216.170612 
L 346.1927 215.407292 
L 346.412855 213.947629 
L 346.522932 213.96612 
L 346.743087 214.221791 
L 347.40355 216.267905 
L 347.513627 216.22464 
L 347.733782 215.490963 
L 348.064014 213.707402 
L 348.284168 213.958735 
L 348.504323 214.688385 
L 348.834555 216.034903 
L 349.054709 216.313798 
L 349.164786 216.267329 
L 349.384941 215.511458 
L 349.495018 214.856654 
L 349.715173 214.939655 
L 349.935327 215.349556 
L 350.375636 216.759466 
L 350.485714 216.835914 
L 350.595791 216.74316 
L 350.815945 215.901268 
L 351.0361 214.642418 
L 351.256254 214.846593 
L 351.476409 215.436344 
L 351.916718 217.004634 
L 352.026795 217.119831 
L 352.136873 217.058053 
L 352.357027 216.253954 
L 352.687259 214.763899 
L 352.907413 215.1327 
L 353.237645 216.321655 
L 353.567877 217.249195 
L 353.677954 217.314125 
L 353.788032 217.172339 
L 354.118263 215.760843 
L 354.228341 215.879845 
L 354.448495 216.193254 
L 355.108959 217.78109 
L 355.219036 217.652906 
L 355.549268 216.144365 
L 355.659345 215.554045 
L 355.989577 216.289098 
L 356.65004 218.11751 
L 356.760118 217.917632 
L 357.310504 215.402722 
L 357.970968 217.717821 
L 358.191122 218.305658 
L 358.301199 218.310047 
L 358.521354 217.320674 
L 358.741508 216.043499 
L 359.732204 218.88 
L 359.732204 218.88 
" clip-path="url(#pc4bd683156)" style="fill: none; stroke: #1f77b4; stroke-width: 1.5; stroke-linecap: square"/>
   </g>
   <g id="line2d_13">
    <path d="M 55.368567 103.064963 
L 55.478645 90.413496 
L 55.808877 97.59683 
L 56.139108 96.354314 
L 56.249186 96.597912 
L 56.579417 97.831435 
L 56.799572 96.942086 
L 57.239881 93.90479 
L 57.460035 94.455902 
L 58.010422 95.836255 
L 58.120499 95.861331 
L 58.560808 94.871813 
L 59.001117 93.011326 
L 59.661581 94.783414 
L 59.991813 95.92716 
L 60.211967 95.71315 
L 60.322044 95.490521 
L 60.982508 96.522331 
L 61.202662 96.67728 
L 61.422817 96.536716 
L 61.642972 95.965541 
L 61.863126 94.704866 
L 62.52359 95.809937 
L 62.633667 95.789693 
L 62.853821 95.101373 
L 63.294131 93.133006 
L 64.064671 94.329836 
L 64.174749 94.277134 
L 64.725135 93.205894 
L 64.835212 92.784111 
L 65.275521 93.651994 
L 65.71583 94.434747 
L 66.046062 94.407234 
L 66.266217 93.852042 
L 66.376294 93.324254 
L 66.92668 94.471509 
L 67.256912 95.156701 
L 67.477067 95.040428 
L 67.697221 94.609059 
L 67.917376 93.496654 
L 68.687916 94.758371 
L 68.797994 94.557867 
L 69.128226 92.468498 
L 69.34838 90.669983 
L 70.008844 91.823077 
L 70.118921 91.874184 
L 70.449153 91.475506 
L 70.55923 91.763681 
L 71.219694 95.180718 
L 71.77008 96.825851 
L 71.880157 96.785567 
L 72.320466 95.803916 
L 72.650698 96.095844 
L 72.760775 95.882739 
L 73.641393 97.147447 
L 74.19178 96.492938 
L 74.962321 97.372897 
L 75.072398 97.371662 
L 75.732861 96.62358 
L 75.953016 96.723887 
L 76.283248 96.472027 
L 76.503402 96.8001 
L 76.723557 97.047143 
L 76.943711 96.698898 
L 77.163866 96.384266 
L 77.494098 96.504951 
L 77.824329 96.147933 
L 78.264638 97.377599 
L 78.374716 97.3331 
L 78.484793 97.344265 
L 79.035179 97.862834 
L 79.255334 98.154325 
L 79.695643 99.123736 
L 80.466184 99.887158 
L 81.236725 100.894849 
L 81.566956 101.757996 
L 82.007265 101.756931 
L 82.337497 102.278974 
L 82.667729 102.47964 
L 82.997961 102.884887 
L 83.218115 102.399183 
L 83.548347 101.410057 
L 83.988656 102.089085 
L 84.428965 102.420967 
L 84.64912 102.091801 
L 85.419661 100.450655 
L 85.529738 100.521146 
L 86.740588 102.888862 
L 86.850665 102.93204 
L 87.07082 103.498918 
L 87.401051 104.502921 
L 87.84136 105.960549 
L 87.951438 106.059888 
L 88.611901 105.633268 
L 88.832056 105.302777 
L 89.272365 105.77481 
L 89.492519 106.230368 
L 89.932829 107.476556 
L 90.373138 106.620487 
L 91.253756 108.818282 
L 91.694065 109.317847 
L 92.244451 109.497768 
L 92.574683 109.824497 
L 93.014992 109.660433 
L 93.455301 110.157963 
L 93.675456 109.828109 
L 93.785533 109.549083 
L 94.445996 110.222129 
L 94.776228 110.650506 
L 94.996383 110.393956 
L 95.216537 110.188219 
L 95.656846 110.854234 
L 96.207233 111.982616 
L 96.867696 112.454143 
L 97.308005 112.890253 
L 97.52816 112.972592 
L 97.968469 113.401549 
L 98.188623 112.649435 
L 98.298701 112.794758 
L 98.628932 113.093523 
L 98.959164 113.18742 
L 99.399473 114.00152 
L 99.729705 113.441989 
L 100.059937 114.038349 
L 100.500246 114.098266 
L 100.830478 114.705992 
L 101.160709 114.039412 
L 101.270787 113.713041 
L 102.261482 114.997374 
L 102.481637 114.814767 
L 102.811868 114.433063 
L 103.1421 114.593808 
L 103.912641 115.363833 
L 104.132796 115.117413 
L 104.35295 114.81082 
L 104.683182 114.80071 
L 104.903336 114.984059 
L 105.343646 115.495424 
L 105.5638 115.034648 
L 105.783955 114.434039 
L 106.004109 114.458478 
L 106.664573 115.729665 
L 106.994805 116.387285 
L 107.214959 116.326049 
L 107.435114 116.119286 
L 108.425809 117.324139 
L 108.535886 117.34228 
L 108.756041 117.031156 
L 108.976195 116.369767 
L 109.306427 116.890194 
L 109.966891 118.115465 
L 110.187045 117.640392 
L 110.4072 116.797775 
L 110.737432 117.359475 
L 111.287818 118.44295 
L 111.397895 118.470995 
L 111.61805 118.065198 
L 111.948281 117.295586 
L 112.938977 118.939658 
L 113.159131 118.82685 
L 113.59944 118.334777 
L 113.709518 118.246865 
L 114.149827 118.846788 
L 114.700213 119.777926 
L 114.920368 119.521824 
L 115.140522 118.975521 
L 115.250599 119.026354 
L 115.580831 119.278819 
L 116.02114 119.864908 
L 116.241295 119.844489 
L 116.571527 119.359659 
L 116.681604 119.065023 
L 117.121913 119.241071 
L 117.782376 120.040614 
L 118.002531 119.873733 
L 118.332763 119.272519 
L 118.773072 119.557753 
L 119.543613 120.680803 
L 120.204076 120.726345 
L 120.644385 121.188895 
L 121.084694 121.714388 
L 121.194772 121.615533 
L 121.304849 121.349037 
L 122.07539 121.791489 
L 122.405622 122.09942 
L 122.515699 122.001826 
L 122.845931 121.402264 
L 123.836626 121.430857 
L 124.056781 121.060238 
L 124.276935 120.332815 
L 124.387012 120.386983 
L 125.487785 120.864198 
L 125.707939 120.47409 
L 125.818017 120.179433 
L 126.368403 120.880547 
L 126.918789 121.682712 
L 127.138944 121.553107 
L 127.249021 121.361208 
L 127.68933 121.859391 
L 128.349794 122.761342 
L 128.569948 122.626647 
L 128.790103 122.244807 
L 129.230412 122.787909 
L 129.780798 123.728288 
L 129.890876 123.70134 
L 130.11103 123.303858 
L 130.441262 122.383006 
L 130.771494 122.8067 
L 131.32188 123.888862 
L 131.431957 123.862781 
L 131.652112 123.411367 
L 131.872266 122.50214 
L 131.982344 122.595999 
L 132.312575 123.078886 
L 132.752884 123.813635 
L 132.862962 123.775462 
L 133.083116 123.263343 
L 133.413348 122.108223 
L 133.74358 122.763452 
L 134.293966 123.920873 
L 134.404043 123.932654 
L 134.624198 123.520315 
L 134.844352 122.895829 
L 135.284661 123.670488 
L 135.835048 124.533848 
L 136.055202 124.388855 
L 136.385434 123.917216 
L 137.486207 125.241144 
L 137.706361 125.101202 
L 137.926516 124.723324 
L 138.036593 124.822763 
L 138.476902 125.299067 
L 138.917211 125.810131 
L 139.137366 125.669465 
L 139.35752 125.118198 
L 139.467598 125.194222 
L 139.907907 125.585699 
L 140.348216 126.112713 
L 140.56837 126.068307 
L 140.788525 125.672116 
L 140.898602 125.356183 
L 141.338911 125.659845 
L 142.109452 126.670159 
L 142.329606 126.438006 
L 142.549761 126.291629 
L 142.879993 126.604862 
L 143.210225 126.816233 
L 143.870688 127.1936 
L 144.421074 127.576138 
L 144.751306 127.39628 
L 145.301693 127.645776 
L 145.962156 128.052804 
L 146.402465 127.900318 
L 146.732697 128.013599 
L 147.503238 128.564921 
L 148.163701 128.112326 
L 148.383856 128.356035 
L 148.824165 128.968815 
L 149.04432 129.015716 
L 149.484629 128.546919 
L 149.704783 128.592267 
L 150.475324 129.170003 
L 150.915633 128.793582 
L 151.245865 129.090266 
L 151.796251 129.579103 
L 152.676869 129.803126 
L 153.337333 129.803477 
L 153.777642 129.886353 
L 154.548183 130.324203 
L 154.768337 130.218961 
L 155.208646 130.318505 
L 155.86911 130.881444 
L 156.089264 130.79988 
L 156.199342 130.636203 
L 156.639651 130.857332 
L 157.410192 131.859982 
L 157.850501 131.793649 
L 158.180733 132.035287 
L 158.731119 132.577309 
L 158.951273 132.539283 
L 159.281505 132.375119 
L 160.272201 132.627367 
L 160.492355 132.483515 
L 160.822587 132.031437 
L 161.703205 132.156911 
L 161.92336 132.005472 
L 162.583823 130.607876 
L 163.464441 130.596537 
L 163.794673 131.107627 
L 165.1156 133.775125 
L 165.445832 133.854701 
L 165.886141 133.593424 
L 166.766759 132.961775 
L 167.207068 132.971878 
L 167.647377 133.28644 
L 170.729541 135.86097 
L 171.059772 135.738917 
L 171.720236 135.352835 
L 172.160545 135.66421 
L 172.600854 135.736969 
L 172.821009 135.620474 
L 173.041163 135.270763 
L 173.15124 134.948968 
L 173.59155 135.148471 
L 174.031859 135.252084 
L 174.252013 135.128341 
L 174.582245 134.699624 
L 174.692322 134.478609 
L 175.57294 135.108636 
L 175.903172 135.051942 
L 176.233404 135.000196 
L 177.554331 136.168157 
L 178.214795 137.065846 
L 179.095413 137.523727 
L 179.425645 137.839832 
L 179.865954 137.749229 
L 180.746572 137.644542 
L 180.966726 137.303556 
L 181.186881 136.614836 
L 181.296958 136.693018 
L 181.957422 136.732546 
L 182.177576 136.546184 
L 182.507808 135.953801 
L 182.617885 135.645816 
L 182.948117 135.743383 
L 183.608581 135.831515 
L 183.938812 135.397224 
L 184.158967 134.882884 
L 184.269044 134.9615 
L 184.599276 135.167658 
L 185.039585 135.51042 
L 185.25974 135.461538 
L 185.479894 135.235867 
L 185.700049 134.940527 
L 185.920203 135.0552 
L 186.690744 136.22659 
L 187.351208 137.915722 
L 187.791517 138.731392 
L 188.121748 138.876722 
L 188.341903 138.734606 
L 188.782212 138.069118 
L 189.552753 136.868611 
L 189.993062 136.574071 
L 190.103139 136.556861 
L 191.093835 137.618644 
L 191.313989 137.493237 
L 191.644221 137.238025 
L 192.744994 138.432749 
L 193.185303 138.513151 
L 193.955843 139.099037 
L 194.616307 139.490881 
L 194.946539 139.27669 
L 195.607002 139.734078 
L 195.827157 139.814689 
L 196.047311 139.569965 
L 196.377543 138.510872 
L 196.487621 138.641658 
L 197.258161 139.42003 
L 197.368239 139.378057 
L 197.588393 138.905455 
L 197.918625 137.672792 
L 198.799243 139.044003 
L 198.90932 139.003254 
L 199.129475 138.55941 
L 199.349629 137.972482 
L 199.900016 138.855896 
L 200.230248 139.275202 
L 200.450402 139.246784 
L 200.890711 138.923306 
L 201.991484 140.427125 
L 202.211638 140.540924 
L 204.193029 142.802375 
L 204.523261 142.912399 
L 205.183724 143.490989 
L 205.624034 143.137423 
L 206.064343 143.143583 
L 206.394574 143.282437 
L 206.614729 142.961171 
L 206.834883 142.186572 
L 206.944961 142.230266 
L 207.825579 142.408567 
L 208.045733 142.000642 
L 208.375965 140.96935 
L 208.486042 141.04234 
L 208.926351 141.362612 
L 209.256583 141.553617 
L 209.476738 141.344876 
L 210.027124 140.399481 
L 211.017819 141.117567 
L 211.678283 141.073226 
L 212.118592 141.344622 
L 213.989906 142.717429 
L 214.430215 143.223555 
L 215.751142 144.06828 
L 216.081374 143.880852 
L 216.961992 144.387459 
L 217.182146 144.180704 
L 217.512378 143.159169 
L 217.622455 143.26564 
L 218.282919 143.828643 
L 218.503073 143.752479 
L 218.833305 142.941181 
L 218.943383 142.579265 
L 219.824001 143.272123 
L 220.044155 143.026847 
L 220.484464 142.129107 
L 221.365082 142.99887 
L 221.585237 142.85873 
L 222.025546 142.456898 
L 222.135623 142.409166 
L 223.126319 143.404922 
L 223.45655 143.380222 
L 223.566628 143.318075 
L 224.447246 144.052765 
L 224.777478 144.25345 
L 224.997632 144.038023 
L 225.107709 143.848505 
L 225.768173 144.40523 
L 226.208482 144.838857 
L 226.428637 144.454307 
L 226.758868 143.746196 
L 227.0891 143.743665 
L 227.639486 143.906394 
L 228.29995 144.515095 
L 228.520105 144.327762 
L 228.960414 143.350732 
L 229.5108 144.128028 
L 229.841032 144.529142 
L 230.061186 144.445904 
L 230.391418 143.925451 
L 230.941804 144.498378 
L 231.382113 144.881331 
L 231.602268 144.807498 
L 231.9325 144.710485 
L 233.14335 145.811756 
L 233.473581 145.782385 
L 234.3542 146.561887 
L 234.574354 146.702157 
L 234.794509 146.600489 
L 235.12474 146.445643 
L 235.785204 146.77803 
L 236.005359 146.916052 
L 236.225513 146.783069 
L 236.555745 146.391706 
L 237.54644 146.523678 
L 237.766595 146.242314 
L 238.096827 145.824235 
L 238.977445 146.008516 
L 239.307676 145.676214 
L 239.637908 145.249312 
L 240.408449 145.678274 
L 241.289067 145.746718 
L 242.279763 146.221647 
L 242.720072 146.514979 
L 243.60069 146.998471 
L 244.151076 147.516955 
L 245.472003 148.160795 
L 245.582081 148.071264 
L 246.572776 148.496918 
L 246.79293 148.465385 
L 248.00378 147.415099 
L 248.774321 147.837715 
L 249.104553 147.737823 
L 249.654939 147.364592 
L 250.42548 147.753444 
L 250.755712 147.669021 
L 251.306098 147.313692 
L 251.966562 147.80412 
L 252.296794 147.847059 
L 252.737103 147.632811 
L 253.617721 148.234206 
L 253.837875 148.184093 
L 254.278184 147.851481 
L 255.158803 148.640178 
L 255.378957 148.548792 
L 255.819266 148.063333 
L 256.809962 149.099208 
L 257.030116 148.961229 
L 257.250271 148.671327 
L 258.351043 149.483861 
L 258.791352 149.109302 
L 259.782048 150.006587 
L 260.332434 149.711956 
L 261.323129 150.419401 
L 261.873516 150.28482 
L 262.974288 150.900254 
L 263.30452 150.720382 
L 263.964984 151.091578 
L 264.405293 151.454358 
L 264.735525 151.241542 
L 265.065756 151.227696 
L 265.616143 151.443214 
L 266.166529 151.815049 
L 266.386684 151.597975 
L 266.606838 151.446998 
L 267.157224 151.547672 
L 267.707611 151.724693 
L 268.368074 151.364965 
L 269.028538 151.568426 
L 269.35877 151.398273 
L 269.689001 151.162343 
L 270.239388 151.357763 
L 270.789774 151.293836 
L 271.009929 151.166595 
L 271.120006 151.022092 
L 271.780469 151.347919 
L 272.440933 151.267826 
L 272.881242 151.157815 
L 273.541706 151.53645 
L 273.982015 151.792165 
L 274.862633 152.291169 
L 275.413019 152.677448 
L 275.853328 153.002745 
L 276.623869 153.58894 
L 277.39441 154.237071 
L 278.495183 154.864184 
L 278.825414 154.819605 
L 279.485878 155.152642 
L 279.81611 155.144362 
L 280.146342 154.82436 
L 280.256419 154.637566 
L 280.806805 154.976677 
L 281.247114 154.878906 
L 281.577346 154.489802 
L 281.907578 154.067635 
L 282.568041 153.670185 
L 283.118428 153.495906 
L 284.2192 154.079592 
L 284.439355 154.096935 
L 284.769587 153.993334 
L 285.760282 154.581602 
L 285.980437 154.523289 
L 286.090514 154.435485 
L 287.081209 155.08471 
L 287.301364 155.031162 
L 287.631596 154.606529 
L 287.741673 154.714139 
L 288.402136 155.341516 
L 288.622291 155.403536 
L 288.842445 155.241055 
L 289.172677 154.674314 
L 289.943218 155.489354 
L 290.163373 155.477601 
L 290.493604 155.039513 
L 290.713759 154.759553 
L 291.4843 154.727836 
L 292.034686 154.786366 
L 293.906 155.276352 
L 295.997468 155.162696 
L 296.657931 155.495251 
L 297.648627 156.298453 
L 298.419167 156.854219 
L 298.639322 156.930463 
L 299.51994 157.551701 
L 299.740095 157.468571 
L 300.070326 157.25755 
L 300.950945 157.692677 
L 301.171099 157.594265 
L 301.611408 157.118336 
L 302.271872 157.502215 
L 302.602104 157.447673 
L 303.592799 156.649236 
L 304.143185 156.587292 
L 304.583494 156.631052 
L 305.464112 157.312235 
L 305.794344 157.330172 
L 306.234653 157.185831 
L 307.005194 157.79756 
L 307.225349 157.798502 
L 307.665658 157.495156 
L 308.436199 157.97447 
L 308.656353 158.012721 
L 308.876508 157.824144 
L 309.096662 157.506155 
L 309.97728 158.089924 
L 310.197435 158.062838 
L 310.857898 157.469607 
L 311.408285 157.903238 
L 311.848594 157.893337 
L 312.39898 157.521085 
L 312.949366 157.88056 
L 313.389675 157.927527 
L 313.719907 157.49534 
L 313.829985 157.331789 
L 314.490448 157.801928 
L 314.930757 157.797734 
L 315.481143 157.399092 
L 315.921453 157.783287 
L 316.471839 157.802142 
L 317.022225 157.449167 
L 317.682689 157.437849 
L 318.783461 157.464141 
L 319.333848 157.740332 
L 319.884234 157.725343 
L 320.324543 157.607594 
L 320.874929 157.87304 
L 321.425316 157.848183 
L 321.975702 157.570344 
L 322.636166 157.90539 
L 323.076475 157.910281 
L 323.516784 157.735786 
L 324.177247 157.944566 
L 324.727634 157.909353 
L 325.057866 157.750541 
L 325.608252 157.918506 
L 326.158638 157.882155 
L 326.819102 157.526396 
L 327.369488 157.628802 
L 327.809797 157.564832 
L 328.140029 157.308424 
L 328.800492 157.377748 
L 329.350879 157.2607 
L 329.681111 156.983363 
L 330.561729 157.258042 
L 330.781883 157.222278 
L 331.002038 156.932014 
L 331.112115 156.701569 
L 332.212888 157.382049 
L 332.433042 157.174371 
L 332.543119 156.967345 
L 333.753969 157.717023 
L 333.974124 157.413427 
L 334.084201 157.196274 
L 335.184974 158.310586 
L 335.405128 157.997243 
L 335.625283 157.64106 
L 335.955515 157.769309 
L 336.836133 158.99354 
L 336.94621 158.920839 
L 337.276442 158.230546 
L 338.046983 159.244915 
L 338.377215 159.736448 
L 338.597369 159.304883 
L 338.817524 158.830442 
L 339.808219 160.437723 
L 339.918296 160.374325 
L 340.248528 159.388501 
L 341.349301 160.9322 
L 341.569455 160.359031 
L 341.78961 159.761231 
L 342.780305 161.27504 
L 342.890382 161.205892 
L 343.330691 160.149498 
L 343.440769 160.158709 
L 343.991155 160.96681 
L 344.431464 161.385281 
L 344.871773 160.359209 
L 344.98185 160.495578 
L 345.532237 161.093263 
L 345.972546 161.491274 
L 346.412855 160.439513 
L 346.963241 161.075518 
L 347.40355 161.354233 
L 347.623705 160.872502 
L 347.843859 160.31648 
L 348.064014 160.273454 
L 348.504323 160.765426 
L 349.054709 160.703353 
L 349.495018 159.82695 
L 350.045405 160.290104 
L 350.595791 160.210234 
L 351.0361 159.450744 
L 351.476409 159.868224 
L 351.916718 159.787491 
L 352.136873 159.657614 
L 352.687259 159.029176 
L 353.017491 159.34294 
L 353.237645 159.328478 
L 353.677954 159.228111 
L 354.008186 159.138457 
L 354.118263 159.038029 
L 354.558572 159.384479 
L 355.549268 159.191921 
L 355.659345 159.082075 
L 356.099654 159.41867 
L 356.760118 159.342671 
L 356.980272 159.411439 
L 357.420581 159.242924 
L 357.750813 159.386106 
L 358.191122 159.328693 
L 358.631431 159.705873 
L 358.741508 159.618875 
L 359.181817 159.869776 
L 359.732204 159.74762 
L 359.732204 159.74762 
" clip-path="url(#pc4bd683156)" style="fill: none; stroke: #ff7f0e; stroke-width: 1.5; stroke-linecap: square"/>
   </g>
   <g id="line2d_14">
    <path d="M 55.368567 17.28 
L 55.588722 23.687524 
L 55.918954 29.661925 
L 56.139108 31.198317 
L 56.249186 31.295799 
L 56.579417 30.571065 
L 56.689495 30.390256 
L 56.909649 29.331097 
L 57.129804 28.074242 
L 57.239881 28.002077 
L 58.010422 30.972265 
L 58.120499 31.110926 
L 58.230576 30.957757 
L 58.450731 29.493958 
L 59.001117 23.339701 
L 59.111194 23.432447 
L 59.331349 24.036391 
L 60.322044 28.901916 
L 60.542199 29.383359 
L 61.092585 30.846445 
L 61.31274 30.977764 
L 61.422817 30.913349 
L 61.642972 30.358188 
L 61.863126 29.344061 
L 62.52359 30.733512 
L 62.743744 30.512071 
L 63.184053 29.682915 
L 63.294131 29.256934 
L 64.064671 30.200753 
L 64.394903 29.742194 
L 64.835212 28.778293 
L 64.945289 28.855151 
L 65.275521 29.382553 
L 65.605753 29.953686 
L 65.935985 29.958655 
L 66.046062 29.927604 
L 66.156139 29.757117 
L 66.376294 28.581295 
L 66.486371 28.770058 
L 67.146835 30.243614 
L 67.366989 30.01663 
L 67.587144 29.196735 
L 67.917376 27.060347 
L 68.13753 27.995591 
L 68.577839 30.110367 
L 68.797994 30.400956 
L 68.908071 30.247206 
L 69.34838 28.296128 
L 70.008844 32.297106 
L 70.228998 33.819855 
L 70.339075 33.990515 
L 70.55923 33.353295 
L 70.779384 31.88087 
L 70.889462 30.847389 
L 71.109616 31.214151 
L 71.660003 33.378889 
L 71.77008 33.234827 
L 71.990234 32.368861 
L 72.430543 30.285265 
L 72.650698 30.353626 
L 72.760775 30.096924 
L 72.98093 30.979379 
L 73.421239 33.203251 
L 73.641393 33.344632 
L 73.861548 32.762262 
L 74.19178 31.299558 
L 74.411934 32.004883 
L 74.742166 33.518328 
L 74.852243 33.629491 
L 75.072398 33.422006 
L 75.292552 32.745002 
L 75.622784 30.357997 
L 75.732861 29.408346 
L 75.842939 29.572729 
L 76.063093 30.520258 
L 76.283248 31.780094 
L 76.393325 31.887621 
L 76.61348 31.076037 
L 77.273943 28.365396 
L 77.494098 29.113605 
L 77.934407 32.168307 
L 78.264638 31.546617 
L 78.59487 32.010586 
L 78.704948 31.933761 
L 78.925102 32.713693 
L 79.255334 34.253249 
L 80.356107 35.694374 
L 80.686338 35.734184 
L 80.906493 36.306905 
L 81.236725 37.949843 
L 81.346802 38.052303 
L 81.787111 37.799655 
L 82.117343 36.561322 
L 82.22742 36.643896 
L 82.447575 37.297883 
L 82.777806 38.264516 
L 83.108038 38.374451 
L 83.328193 37.774636 
L 83.548347 37.131666 
L 83.768502 37.41153 
L 84.098733 38.74054 
L 84.318888 39.354072 
L 84.539043 39.392499 
L 84.759197 39.091045 
L 85.089429 38.58934 
L 85.639815 39.460169 
L 85.85997 40.076561 
L 86.410356 42.110222 
L 86.630511 42.294196 
L 86.850665 41.687816 
L 87.07082 40.645958 
L 87.290974 41.083437 
L 87.951438 43.090327 
L 88.28167 42.402396 
L 88.611901 41.572978 
L 88.832056 41.736898 
L 89.822751 44.205378 
L 89.932829 44.135117 
L 90.593292 42.125442 
L 90.813447 42.301862 
L 91.143678 43.380204 
L 91.47391 44.44295 
L 91.583987 44.472627 
L 92.354528 43.856867 
L 92.574683 44.158629 
L 93.014992 45.138608 
L 93.125069 45.118353 
L 93.455301 44.545248 
L 93.785533 43.837374 
L 94.005687 44.320336 
L 94.666151 46.401504 
L 94.776228 46.36825 
L 95.10646 45.620758 
L 95.216537 45.398021 
L 96.097155 47.093337 
L 96.31731 47.041883 
L 96.647542 46.438305 
L 96.757619 46.195256 
L 97.087851 46.925746 
L 97.638237 48.371718 
L 97.748314 48.313243 
L 98.078546 47.379806 
L 98.188623 47.088173 
L 98.518855 47.57735 
L 99.069241 49.418786 
L 99.179319 49.341687 
L 99.509551 48.48157 
L 99.729705 47.515373 
L 99.839782 47.585929 
L 100.059937 47.977502 
L 100.500246 49.645001 
L 100.610323 49.636158 
L 100.830478 49.184691 
L 101.270787 47.517765 
L 101.601019 48.617772 
L 101.93125 49.833808 
L 102.261482 50.201591 
L 102.371559 50.151929 
L 102.591714 49.466661 
L 102.701791 48.978627 
L 103.032023 50.017277 
L 103.472332 51.42523 
L 103.692487 51.614066 
L 103.802564 51.532903 
L 104.022718 50.808208 
L 104.242873 49.850543 
L 104.573105 51.048325 
L 104.903336 52.19655 
L 105.233568 52.584926 
L 105.343646 52.495178 
L 106.004109 50.808662 
L 106.334341 51.824406 
L 106.77465 53.401257 
L 106.884727 53.475003 
L 106.994805 53.40816 
L 107.214959 52.810801 
L 107.435114 51.866979 
L 107.655268 52.284366 
L 108.315732 54.02744 
L 108.425809 54.004598 
L 108.645963 53.52665 
L 108.976195 52.446433 
L 109.416504 53.770307 
L 109.746736 54.687476 
L 109.966891 54.852752 
L 110.187045 54.268626 
L 110.4072 53.320954 
L 110.737432 53.949015 
L 111.287818 55.393303 
L 111.397895 55.447024 
L 111.507972 55.364128 
L 111.728127 54.704751 
L 111.948281 53.83668 
L 112.278513 54.466555 
L 112.718822 55.682893 
L 112.938977 55.727909 
L 113.159131 55.271965 
L 113.709518 53.429792 
L 114.039749 54.610526 
L 114.480058 56.020237 
L 114.700213 56.164368 
L 114.81029 55.880652 
L 115.140522 53.600269 
L 115.250599 53.864357 
L 116.02114 56.030798 
L 116.131217 56.001232 
L 116.351372 55.23543 
L 116.681604 53.051951 
L 117.562222 55.717839 
L 117.672299 55.70236 
L 117.892454 54.920735 
L 118.222685 53.325768 
L 118.332763 53.030724 
L 119.103304 56.066985 
L 119.323458 56.384809 
L 119.433535 56.204254 
L 119.763767 54.247353 
L 119.873844 54.525776 
L 120.754463 56.994821 
L 120.86454 56.875924 
L 121.084694 55.860493 
L 121.304849 54.5525 
L 121.635081 55.709626 
L 121.965312 56.982474 
L 122.185467 57.250253 
L 122.295544 57.235554 
L 122.515699 56.710811 
L 122.735853 55.766342 
L 123.066085 56.50846 
L 123.506394 57.575733 
L 123.726549 57.705135 
L 123.946703 57.402242 
L 124.276935 56.323895 
L 124.607167 56.944285 
L 125.047476 57.89305 
L 125.26763 58.023083 
L 125.487785 57.764822 
L 125.818017 56.588651 
L 125.928094 56.718558 
L 126.258326 57.39607 
L 126.698635 58.268298 
L 126.808712 58.297044 
L 126.918789 58.198031 
L 127.138944 57.54632 
L 127.249021 57.037617 
L 127.579253 57.506266 
L 128.129639 58.493554 
L 128.349794 58.468979 
L 128.569948 57.894509 
L 128.790103 56.922985 
L 129.120335 57.587109 
L 129.560644 58.600326 
L 129.780798 58.707367 
L 129.890876 58.575591 
L 130.11103 57.791317 
L 130.441262 56.525116 
L 130.771494 57.618995 
L 131.101725 58.668839 
L 131.431957 59.017341 
L 131.542034 58.870365 
L 131.872266 57.452264 
L 131.982344 57.66407 
L 132.862962 59.481142 
L 132.973039 59.412617 
L 133.193193 58.766917 
L 133.413348 57.594248 
L 133.74358 58.321703 
L 134.293966 59.765821 
L 134.404043 59.802844 
L 134.514121 59.682582 
L 134.734275 58.764541 
L 134.844352 57.993149 
L 135.174584 58.433003 
L 135.835048 59.752184 
L 135.945125 59.683561 
L 136.16528 58.899288 
L 136.385434 57.526501 
L 136.605589 57.923028 
L 137.266052 59.745012 
L 137.37613 59.823198 
L 137.486207 59.737117 
L 137.706361 58.838728 
L 137.926516 57.600278 
L 138.14667 58.202309 
L 138.697057 60.067333 
L 138.917211 60.296571 
L 139.027288 60.199009 
L 139.247443 59.315631 
L 139.35752 58.750803 
L 139.687752 59.541576 
L 140.128061 60.652308 
L 140.348216 60.849371 
L 140.458293 60.831796 
L 140.678447 60.232501 
L 140.898602 59.272189 
L 141.228834 60.196223 
L 141.559066 61.114979 
L 141.77922 61.323905 
L 141.889297 61.336141 
L 141.999375 61.228354 
L 142.219529 60.564652 
L 142.439684 59.817887 
L 142.659838 59.711203 
L 143.100147 59.904881 
L 143.210225 59.724282 
L 143.980765 61.462686 
L 144.20092 61.494807 
L 144.421074 60.977136 
L 144.641229 59.970414 
L 144.971461 60.662677 
L 145.41177 61.568969 
L 145.631924 61.69798 
L 145.742002 61.643667 
L 145.962156 61.073915 
L 146.182311 60.076428 
L 146.512542 60.96948 
L 146.842774 61.819097 
L 147.173006 62.076913 
L 147.283083 61.982287 
L 147.503238 61.213545 
L 147.83347 60.165925 
L 148.60401 62.508117 
L 148.824165 62.7491 
L 148.934242 62.628108 
L 149.264474 61.319717 
L 150.145092 63.186293 
L 150.365247 63.249373 
L 150.585401 62.689597 
L 150.805556 62.087992 
L 151.02571 62.114667 
L 151.576097 62.670333 
L 152.016406 62.613309 
L 152.456715 62.685579 
L 153.227256 62.935673 
L 153.997796 64.902295 
L 154.217951 64.986634 
L 154.438106 64.409622 
L 154.65826 63.490397 
L 154.988492 64.299556 
L 155.428801 65.298753 
L 155.648955 65.46741 
L 155.759033 65.430762 
L 155.979187 64.803955 
L 156.199342 63.930059 
L 156.639651 65.16628 
L 156.969883 65.777276 
L 157.190037 65.930703 
L 157.300114 65.867003 
L 157.520269 65.236582 
L 157.630346 64.814371 
L 157.960578 65.382804 
L 158.400887 66.118538 
L 158.621042 66.216057 
L 158.841196 66.013043 
L 159.171428 64.969448 
L 159.281505 65.105391 
L 160.052046 66.164502 
L 160.272201 66.084406 
L 160.492355 65.62151 
L 160.71251 64.875378 
L 161.042741 65.39298 
L 161.48305 66.067915 
L 161.703205 66.116363 
L 161.92336 65.801814 
L 162.363669 64.840684 
L 162.6939 65.116256 
L 164.014828 66.1306 
L 164.455137 66.23959 
L 165.665986 66.279219 
L 166.32645 66.669286 
L 166.986914 67.357383 
L 167.647377 68.343546 
L 168.087686 69.293046 
L 168.417918 69.579493 
L 168.638073 69.582532 
L 168.858227 69.253391 
L 169.078382 68.734433 
L 169.738845 69.879897 
L 170.069077 70.019858 
L 170.289232 69.788356 
L 170.839618 68.806355 
L 171.610159 68.953988 
L 171.720236 68.719399 
L 172.600854 70.925359 
L 172.710931 70.867319 
L 172.931086 70.017543 
L 173.15124 68.914623 
L 173.481472 69.941203 
L 173.921781 71.213435 
L 174.141936 71.450286 
L 174.252013 71.360084 
L 174.582245 69.78862 
L 174.692322 69.392447 
L 175.352786 71.579329 
L 175.683018 71.866567 
L 175.793095 71.778382 
L 176.343481 70.131041 
L 176.563636 70.218073 
L 176.673713 70.045926 
L 177.114022 71.357247 
L 177.444254 71.620117 
L 177.664408 71.586862 
L 177.884563 70.995479 
L 178.104717 69.919241 
L 178.985335 71.423652 
L 179.095413 71.400948 
L 179.315567 70.846058 
L 179.645799 69.311804 
L 179.976031 70.23533 
L 180.41634 71.483858 
L 180.636494 71.589493 
L 180.856649 70.71335 
L 181.186881 69.060349 
L 181.517113 70.427195 
L 181.957422 72.057595 
L 182.067499 72.247608 
L 182.177576 72.21104 
L 182.397731 71.007009 
L 182.617885 69.804687 
L 183.058194 71.733288 
L 183.388426 72.710101 
L 183.608581 72.982343 
L 183.718658 72.812553 
L 184.158967 70.609411 
L 184.709353 73.044426 
L 185.149662 73.597028 
L 185.25974 73.452891 
L 185.589971 71.94174 
L 185.700049 71.998631 
L 186.140358 72.666813 
L 186.470589 72.833245 
L 186.800821 72.687863 
L 187.461285 72.303911 
L 188.011671 72.15306 
L 188.341903 72.267976 
L 188.782212 72.675304 
L 189.552753 73.809143 
L 190.213216 75.012771 
L 190.763603 76.339424 
L 191.093835 76.64867 
L 191.203912 76.592437 
L 191.424066 76.083424 
L 191.644221 75.341261 
L 192.304685 76.377605 
L 192.634916 76.566247 
L 192.744994 76.509742 
L 192.965148 75.975094 
L 193.405457 74.531953 
L 194.286075 76.280473 
L 194.396153 76.258893 
L 194.616307 75.648211 
L 194.836462 74.501309 
L 195.166693 75.02272 
L 195.71708 76.228018 
L 195.827157 76.24646 
L 195.937234 76.069744 
L 196.377543 74.029246 
L 196.487621 74.234273 
L 196.817852 75.261327 
L 197.258161 76.559646 
L 197.368239 76.607926 
L 197.478316 76.410009 
L 197.918625 74.280213 
L 198.248857 75.333977 
L 198.799243 77.274933 
L 198.90932 77.37553 
L 199.019398 77.178568 
L 199.349629 75.567498 
L 199.789938 76.868013 
L 200.230248 78.001888 
L 200.450402 78.218856 
L 200.670557 77.415119 
L 200.890711 76.42055 
L 201.551175 78.152157 
L 201.991484 78.513541 
L 202.211638 77.663874 
L 202.321716 77.064567 
L 203.092256 78.331904 
L 203.312411 78.421104 
L 203.422488 78.359457 
L 203.642643 77.68525 
L 203.862797 76.435749 
L 204.303106 77.599225 
L 204.633338 78.15708 
L 204.853493 78.218224 
L 205.073647 77.579635 
L 205.403879 75.652669 
L 205.734111 76.73493 
L 206.17442 78.179463 
L 206.284497 78.316892 
L 206.394574 78.257762 
L 206.614729 77.286664 
L 206.834883 75.943949 
L 207.165115 76.990654 
L 207.605424 78.641807 
L 207.825579 78.922089 
L 207.935656 78.6946 
L 208.375965 76.134097 
L 208.706197 77.659144 
L 209.146506 79.512813 
L 209.366661 79.875293 
L 209.476738 79.599806 
L 209.917047 77.358503 
L 210.027124 77.409337 
L 210.57751 80.414471 
L 211.017819 81.308652 
L 211.237974 80.05533 
L 211.458129 78.829017 
L 212.008515 81.525208 
L 212.558901 81.893996 
L 212.779056 80.653808 
L 212.99921 79.37488 
L 213.439519 81.189906 
L 213.659674 81.402935 
L 213.989906 81.590742 
L 214.099983 81.399053 
L 214.430215 79.560416 
L 214.540292 79.812945 
L 215.090678 81.000132 
L 215.310833 81.190496 
L 215.42091 81.181108 
L 215.641065 80.613725 
L 215.971296 78.725328 
L 216.081374 78.909841 
L 216.411605 79.809438 
L 216.851914 80.927068 
L 216.961992 80.90846 
L 217.182146 80.151176 
L 217.512378 78.207674 
L 217.732533 78.735264 
L 218.392996 81.23665 
L 218.503073 81.21161 
L 218.723228 80.187296 
L 218.943383 78.83586 
L 219.273614 79.80292 
L 219.824001 81.93864 
L 219.934078 82.075255 
L 220.044155 81.918945 
L 220.484464 79.403172 
L 220.924773 81.421069 
L 221.255005 82.612756 
L 221.47516 83.01916 
L 221.585237 82.808998 
L 222.025546 80.455651 
L 222.135623 80.429594 
L 222.68601 82.856254 
L 223.126319 83.532433 
L 223.236396 83.20887 
L 223.566628 81.270531 
L 224.117014 83.159012 
L 224.557323 83.501823 
L 224.6674 83.424783 
L 224.887555 82.465722 
L 225.107709 81.326646 
L 225.87825 83.378481 
L 226.098405 83.586069 
L 226.208482 83.472523 
L 226.538714 82.138706 
L 226.758868 81.598305 
L 226.868946 81.61969 
L 227.199177 82.381381 
L 228.079795 84.722745 
L 228.29995 85.274516 
L 228.410027 85.332966 
L 228.520105 85.199717 
L 228.850336 83.856038 
L 228.960414 83.433875 
L 229.180568 83.720251 
L 229.400723 84.408323 
L 229.841032 86.201383 
L 229.951109 86.346371 
L 230.061186 86.249279 
L 230.391418 84.550675 
L 230.501495 84.679454 
L 230.72165 85.044685 
L 231.272036 86.309194 
L 231.492191 86.34144 
L 231.602268 86.1523 
L 231.9325 84.463525 
L 232.042577 84.666553 
L 232.703041 85.838537 
L 232.923195 85.815347 
L 233.033272 85.70584 
L 233.253427 84.887922 
L 233.473581 83.483651 
L 234.244122 84.90384 
L 234.464277 84.864147 
L 234.684431 84.345172 
L 235.014663 82.463796 
L 235.12474 82.726059 
L 235.785204 84.488542 
L 236.005359 84.53463 
L 236.225513 83.857953 
L 236.445668 82.683819 
L 236.775899 83.582872 
L 237.216208 84.866432 
L 237.436363 85.04605 
L 237.54644 84.863199 
L 237.986749 82.726315 
L 238.096827 83.084353 
L 238.867367 85.959699 
L 238.977445 86.044013 
L 239.087522 85.818618 
L 239.527831 83.89497 
L 239.637908 83.877708 
L 240.298372 86.923029 
L 240.628604 87.461896 
L 240.848758 86.322667 
L 241.068913 85.186313 
L 241.729376 87.682701 
L 242.059608 87.98542 
L 242.169685 87.898824 
L 242.499917 86.193798 
L 242.609994 85.682964 
L 243.160381 87.540466 
L 243.60069 87.875544 
L 243.710767 87.745961 
L 244.040999 86.220679 
L 244.151076 86.457985 
L 244.81154 87.678016 
L 245.031694 87.770478 
L 245.141771 87.668046 
L 245.361926 86.975074 
L 245.582081 85.799001 
L 245.912312 86.500556 
L 246.352621 87.65234 
L 246.572776 87.816294 
L 246.682853 87.669293 
L 247.233239 85.879203 
L 247.453394 86.24629 
L 247.783626 86.815663 
L 248.00378 87.002332 
L 248.884398 89.607326 
L 248.994476 89.668113 
L 249.104553 89.520656 
L 249.544862 87.51586 
L 250.42548 90.190429 
L 250.535557 90.250713 
L 250.645635 90.095981 
L 251.196021 87.695434 
L 251.966562 89.916877 
L 252.186716 90.068403 
L 252.406871 89.345707 
L 252.627025 88.162315 
L 253.617721 90.121276 
L 253.727798 90.02116 
L 253.947953 89.200075 
L 254.168107 88.021848 
L 254.608416 88.916672 
L 255.048725 90.176324 
L 255.158803 90.261163 
L 255.26888 90.191508 
L 255.489034 89.468919 
L 255.819266 88.174645 
L 256.149498 88.979476 
L 256.699884 90.760496 
L 256.809962 90.837389 
L 256.920039 90.741646 
L 257.140193 89.976671 
L 257.250271 89.385623 
L 257.580502 89.840351 
L 258.240966 91.331863 
L 258.351043 91.246722 
L 258.571198 90.526635 
L 258.791352 89.314497 
L 259.121584 90.044861 
L 259.561893 91.321196 
L 259.782048 91.369052 
L 260.002202 90.695321 
L 260.222357 89.387064 
L 260.552588 90.058193 
L 260.992898 91.074225 
L 261.213052 91.098134 
L 261.433207 90.558907 
L 261.763438 88.664 
L 262.09367 89.603362 
L 262.423902 90.549922 
L 262.644057 90.712868 
L 262.754134 90.671034 
L 262.864211 90.477943 
L 263.194443 88.790903 
L 263.30452 88.157652 
L 264.185138 90.519349 
L 264.295215 90.527536 
L 264.405293 90.367527 
L 264.955679 88.47341 
L 265.065756 88.33354 
L 265.72622 90.747956 
L 266.056452 91.133264 
L 266.166529 91.012753 
L 266.496761 89.739674 
L 267.267302 91.737831 
L 267.487456 91.813976 
L 267.597533 91.71287 
L 267.817688 90.94659 
L 268.037842 90.229967 
L 268.14792 89.986973 
L 268.918461 92.477051 
L 269.138615 92.645101 
L 269.248692 92.46549 
L 269.578924 90.825742 
L 269.689001 91.026978 
L 270.019233 91.916326 
L 270.349465 92.800436 
L 270.56962 92.967428 
L 270.679697 92.812525 
L 270.899851 91.822215 
L 271.120006 90.522297 
L 271.450238 91.449825 
L 271.890547 92.884258 
L 272.110701 93.06666 
L 272.220779 92.858376 
L 272.771165 90.299958 
L 273.651783 93.145317 
L 273.76186 93.220109 
L 273.871938 93.023851 
L 274.202169 91.283228 
L 275.192865 93.730139 
L 275.302942 93.753937 
L 275.523096 93.024419 
L 275.743251 91.881602 
L 276.623869 94.238271 
L 276.844024 94.397489 
L 277.064178 93.706082 
L 277.174255 93.124875 
L 278.164951 95.056099 
L 278.275028 95.035097 
L 278.495183 94.420016 
L 278.715337 93.263113 
L 279.045569 94.031766 
L 279.595955 95.539985 
L 279.706033 95.60157 
L 279.81611 95.452649 
L 280.146342 93.864814 
L 280.256419 93.234005 
L 280.586651 94.093857 
L 281.137037 96.104337 
L 281.247114 96.11824 
L 281.467269 95.197717 
L 281.797501 93.523879 
L 281.907578 93.573523 
L 282.347887 94.147919 
L 283.118428 94.478671 
L 284.109123 96.990209 
L 284.2192 96.845857 
L 284.439355 96.009512 
L 284.659509 94.798016 
L 285.099818 95.536385 
L 285.540128 96.803139 
L 285.650205 96.80534 
L 285.870359 96.268645 
L 286.090514 95.19958 
L 286.200591 95.296886 
L 286.420746 95.523505 
L 286.750977 96.38429 
L 286.971132 96.89496 
L 287.081209 96.938373 
L 287.191287 96.802927 
L 287.411441 96.023919 
L 287.631596 94.771333 
L 287.961827 95.267129 
L 288.622291 96.817703 
L 288.842445 96.199397 
L 289.172677 94.29153 
L 289.502909 95.131941 
L 289.943218 96.650286 
L 290.163373 96.735055 
L 290.383527 95.95358 
L 290.713759 94.274224 
L 290.823836 94.25142 
L 291.704454 95.177956 
L 292.805227 96.034632 
L 293.465691 96.515553 
L 294.456386 97.029513 
L 295.11685 97.08999 
L 295.777313 96.908585 
L 297.318395 96.452026 
L 298.088936 96.480085 
L 298.419167 96.553835 
L 298.529245 96.406529 
L 299.299786 98.079191 
L 299.51994 98.187439 
L 299.630017 98.110791 
L 299.850172 97.42405 
L 299.960249 96.870868 
L 300.400558 97.784348 
L 300.73079 98.391068 
L 301.061022 98.512615 
L 301.281176 97.968735 
L 301.501331 96.925745 
L 301.94164 98.070573 
L 302.271872 98.789403 
L 302.492026 99.013885 
L 302.602104 99.002182 
L 302.822258 98.298717 
L 303.042413 97.31832 
L 303.262567 97.163159 
L 304.143185 97.889994 
L 304.583494 98.065107 
L 305.57419 100.101553 
L 305.684267 100.135208 
L 305.794344 100.028174 
L 306.014499 99.204351 
L 306.124576 98.611972 
L 306.454808 99.124506 
L 307.115271 100.696614 
L 307.225349 100.701429 
L 307.335426 100.55091 
L 307.55558 99.628605 
L 307.665658 99.711763 
L 307.885812 99.88667 
L 308.105967 100.324659 
L 308.546276 101.253057 
L 308.656353 101.28266 
L 308.76643 101.180956 
L 308.986585 100.383412 
L 309.096662 99.754158 
L 309.536971 100.183565 
L 310.087358 101.430124 
L 310.197435 101.358873 
L 310.417589 100.710571 
L 310.857898 98.861075 
L 311.18813 99.295229 
L 311.738516 100.724869 
L 311.958671 100.473718 
L 312.178826 99.662252 
L 312.39898 99.00323 
L 312.619135 99.045688 
L 312.839289 99.475301 
L 313.169521 100.404595 
L 313.279598 100.428381 
L 313.499753 99.923355 
L 313.940062 98.09043 
L 314.160216 98.177775 
L 314.380371 98.750713 
L 314.710603 99.790864 
L 314.82068 99.809764 
L 315.040834 99.283648 
L 315.371066 97.506671 
L 315.481143 97.559995 
L 315.701298 97.791106 
L 316.03153 98.952957 
L 316.251684 99.505291 
L 316.361762 99.495769 
L 316.581916 98.875438 
L 317.022225 97.224721 
L 317.24238 97.348768 
L 317.682689 97.677705 
L 318.343152 97.795353 
L 318.673384 97.87029 
L 319.554002 99.918922 
L 319.66408 99.962133 
L 319.774157 99.86942 
L 319.994311 99.192169 
L 320.214466 98.126662 
L 320.654775 99.207498 
L 320.985007 99.890874 
L 321.205161 99.967971 
L 321.425316 99.499553 
L 321.755548 98.208216 
L 321.975702 97.939585 
L 322.636166 99.876394 
L 322.85632 100.077931 
L 322.966397 100.050796 
L 323.186552 99.449145 
L 323.406707 98.370511 
L 324.287325 100.252118 
L 324.397402 100.223946 
L 324.617556 99.671997 
L 324.947788 97.91139 
L 325.718329 100.099668 
L 325.938484 100.131173 
L 326.158638 99.438 
L 326.598947 97.275083 
L 327.149334 99.500014 
L 327.479565 99.823798 
L 327.589643 99.773798 
L 327.809797 98.753173 
L 328.029952 97.249225 
L 328.690415 99.50136 
L 329.020647 99.747094 
L 329.130724 99.546101 
L 329.460956 97.35616 
L 329.571033 96.60505 
L 330.231497 99.192183 
L 330.561729 99.580831 
L 330.671806 99.33417 
L 331.112115 96.12059 
L 331.772579 98.942852 
L 332.10281 99.525321 
L 332.212888 99.211023 
L 332.543119 96.548248 
L 333.423738 99.505711 
L 333.533815 99.702093 
L 333.643892 99.656744 
L 333.864047 98.272127 
L 334.084201 96.518179 
L 335.074897 99.895291 
L 335.184974 99.793545 
L 335.405128 98.30289 
L 335.625283 96.860112 
L 335.845437 96.41855 
L 336.285746 98.097253 
L 336.726056 99.76138 
L 336.836133 99.851496 
L 336.94621 99.669411 
L 337.166365 98.233581 
L 337.276442 97.268224 
L 337.606674 97.749878 
L 337.936905 99.042794 
L 338.15706 99.778699 
L 338.267137 99.890455 
L 338.377215 99.795603 
L 338.597369 98.765995 
L 338.817524 96.951724 
L 338.927601 96.998706 
L 339.147755 97.28179 
L 339.477987 98.880815 
L 339.698142 99.616367 
L 339.808219 99.650485 
L 339.918296 99.488443 
L 340.138451 98.35099 
L 340.358605 97.401854 
L 340.57876 97.456452 
L 340.798914 98.12904 
L 341.129146 99.452664 
L 341.239223 99.531571 
L 341.349301 99.417228 
L 341.569455 98.499941 
L 341.899687 96.788779 
L 342.009764 96.815183 
L 342.119841 96.964889 
L 342.339996 97.821716 
L 342.670228 99.096097 
L 342.780305 99.110464 
L 342.890382 98.95528 
L 343.110537 97.98066 
L 343.440769 95.928682 
L 343.660923 96.208842 
L 343.881078 97.003388 
L 344.21131 98.454633 
L 344.431464 98.541845 
L 344.541541 98.417262 
L 344.761696 97.514881 
L 344.871773 96.73242 
L 345.091928 96.856919 
L 345.312082 97.322919 
L 345.752391 98.727696 
L 345.862468 98.716927 
L 346.082623 98.238892 
L 346.412855 96.213932 
L 346.522932 96.293846 
L 346.743087 96.653226 
L 347.293473 98.504387 
L 347.40355 98.513543 
L 347.513627 98.409598 
L 347.733782 97.648561 
L 348.064014 95.861875 
L 348.284168 96.258225 
L 348.6144 97.611633 
L 348.834555 98.359172 
L 349.054709 98.490479 
L 349.164786 98.39247 
L 349.384941 97.646363 
L 349.495018 97.00628 
L 349.82525 97.436108 
L 350.485714 99.112975 
L 350.705868 98.582506 
L 351.0361 96.760311 
L 351.146177 96.912436 
L 351.366332 97.4046 
L 351.916718 99.412017 
L 352.026795 99.47022 
L 352.136873 99.355969 
L 352.357027 98.493166 
L 352.687259 96.908291 
L 353.017491 97.81853 
L 353.567877 99.776924 
L 353.677954 99.796226 
L 353.898109 99.19159 
L 354.118263 98.041766 
L 354.448495 98.643679 
L 355.108959 100.3926 
L 355.219036 100.187365 
L 355.549268 98.413246 
L 355.659345 97.782278 
L 355.989577 98.689577 
L 356.539963 100.734244 
L 356.65004 100.800138 
L 356.760118 100.536072 
L 357.310504 97.721677 
L 358.301199 101.109575 
L 358.521354 99.935997 
L 358.741508 98.539054 
L 359.732204 101.940611 
L 359.732204 101.940611 
" clip-path="url(#pc4bd683156)" style="fill: none; stroke: #2ca02c; stroke-width: 1.5; stroke-linecap: square"/>
   </g>
   <g id="patch_3">
    <path d="M 40.150386 228.96 
L 40.150386 7.2 
" style="fill: none; stroke: #000000; stroke-width: 0.8; stroke-linejoin: miter; stroke-linecap: square"/>
   </g>
   <g id="patch_4">
    <path d="M 374.950386 228.96 
L 374.950386 7.2 
" style="fill: none; stroke: #000000; stroke-width: 0.8; stroke-linejoin: miter; stroke-linecap: square"/>
   </g>
   <g id="patch_5">
    <path d="M 40.150386 228.96 
L 374.950386 228.96 
" style="fill: none; stroke: #000000; stroke-width: 0.8; stroke-linejoin: miter; stroke-linecap: square"/>
   </g>
   <g id="patch_6">
    <path d="M 40.150386 7.2 
L 374.950386 7.2 
" style="fill: none; stroke: #000000; stroke-width: 0.8; stroke-linejoin: miter; stroke-linecap: square"/>
   </g>
   <g id="legend_1">
    <g id="patch_7">
     <path d="M 144.410035 43.640613 
L 270.690736 43.640613 
Q 272.690736 43.640613 272.690736 41.640613 
L 272.690736 14.2 
Q 272.690736 12.2 270.690736 12.2 
L 144.410035 12.2 
Q 142.410035 12.2 142.410035 14.2 
L 142.410035 41.640613 
Q 142.410035 43.640613 144.410035 43.640613 
z
" style="fill: #ffffff; opacity: 0.8; stroke: #cccccc; stroke-linejoin: miter"/>
    </g>
    <g id="line2d_15">
     <path d="M 146.410035 19.79832 
L 156.410035 19.79832 
L 166.410035 19.79832 
" style="fill: none; stroke: #1f77b4; stroke-width: 1.5; stroke-linecap: square"/>
    </g>
    <g id="text_14">
     <!-- $\rho$ -->
     <g transform="translate(174.410035 23.29832) scale(0.1 -0.1)">
      <defs>
       <path id="CMMI12-1a" d="M 198 -1085 
C 192 -1116 179 -1154 179 -1191 
C 179 -1287 256 -1351 352 -1351 
C 448 -1351 538 -1287 576 -1198 
C 602 -1141 781 -390 986 389 
C 1114 70 1350 -64 1600 -64 
C 2323 -64 3142 830 3142 1794 
C 3142 2477 2726 2816 2285 2816 
C 1722 2816 1037 2234 826 1385 
L 198 -1085 
z
M 1594 64 
C 1158 64 1050 568 1050 645 
C 1050 683 1210 1289 1229 1385 
C 1555 2656 2182 2687 2278 2687 
C 2566 2687 2726 2426 2726 2049 
C 2726 1724 2554 1091 2445 823 
C 2253 383 1920 64 1594 64 
z
" transform="scale(0.015625)"/>
      </defs>
      <use xlink:href="#CMMI12-1a" transform="scale(0.996264)"/>
     </g>
    </g>
    <g id="line2d_16">
     <path d="M 146.410035 34.018627 
L 156.410035 34.018627 
L 166.410035 34.018627 
" style="fill: none; stroke: #ff7f0e; stroke-width: 1.5; stroke-linecap: square"/>
    </g>
    <g id="text_15">
     <!-- $\rho u$ -->
     <g transform="translate(174.410035 37.518627) scale(0.1 -0.1)">
      <defs>
       <path id="CMMI12-75" d="M 2182 370 
C 2266 12 2573 -64 2726 -64 
C 2931 -64 3085 70 3187 287 
C 3296 517 3379 893 3379 913 
C 3379 944 3354 970 3315 970 
C 3258 970 3251 938 3226 842 
C 3110 402 2995 64 2739 64 
C 2547 64 2547 274 2547 357 
C 2547 504 2566 568 2630 836 
C 2675 1008 2720 1181 2758 1359 
L 3021 2400 
C 3066 2560 3066 2572 3066 2591 
C 3066 2687 2989 2752 2893 2752 
C 2707 2752 2662 2591 2624 2432 
C 2560 2183 2214 810 2170 587 
C 2163 587 1914 64 1446 64 
C 1114 64 1050 351 1050 587 
C 1050 951 1229 1462 1395 1890 
C 1472 2094 1504 2177 1504 2305 
C 1504 2579 1306 2816 998 2816 
C 410 2816 173 1890 173 1838 
C 173 1813 198 1781 243 1781 
C 301 1781 307 1807 333 1896 
C 486 2445 736 2687 979 2687 
C 1043 2687 1146 2681 1146 2477 
C 1146 2311 1075 2126 979 1883 
C 698 1123 666 881 666 689 
C 666 38 1158 -64 1421 -64 
C 1830 -64 2054 217 2182 370 
z
" transform="scale(0.015625)"/>
      </defs>
      <use xlink:href="#CMMI12-1a" transform="scale(0.996264)"/>
      <use xlink:href="#CMMI12-75" transform="translate(50.314373 0) scale(0.996264)"/>
     </g>
    </g>
    <g id="line2d_17">
     <path d="M 205.264062 19.79832 
L 215.264062 19.79832 
L 225.264062 19.79832 
" style="fill: none; stroke: #2ca02c; stroke-width: 1.5; stroke-linecap: square"/>
    </g>
    <g id="text_16">
     <!-- $\rho E$ -->
     <g transform="translate(233.264062 23.29832) scale(0.1 -0.1)">
      <defs>
       <path id="CMMI12-45" d="M 4448 1489 
C 4454 1508 4474 1553 4474 1578 
C 4474 1611 4448 1643 4410 1643 
C 4384 1643 4371 1636 4352 1617 
C 4339 1611 4339 1598 4282 1469 
C 3904 570 3629 185 2605 185 
L 1670 185 
C 1581 185 1568 185 1530 192 
C 1459 198 1453 211 1453 262 
C 1453 307 1466 346 1478 403 
L 1920 2176 
L 2554 2176 
C 3053 2176 3091 2066 3091 1874 
C 3091 1810 3091 1752 3046 1559 
C 3034 1534 3027 1508 3027 1489 
C 3027 1444 3059 1424 3098 1424 
C 3155 1424 3162 1469 3187 1559 
L 3552 3036 
C 3552 3068 3526 3099 3488 3099 
C 3430 3099 3424 3074 3398 2986 
C 3270 2500 3142 2361 2573 2361 
L 1965 2361 
L 2362 3913 
C 2419 4134 2432 4153 2694 4153 
L 3610 4153 
C 4397 4153 4557 3945 4557 3465 
C 4557 3459 4557 3282 4531 3074 
C 4525 3049 4518 3011 4518 2998 
C 4518 2948 4550 2929 4589 2929 
C 4634 2929 4659 2954 4672 3068 
L 4806 4172 
C 4806 4191 4819 4255 4819 4268 
C 4819 4339 4762 4339 4646 4339 
L 1523 4339 
C 1402 4339 1338 4339 1338 4223 
C 1338 4153 1382 4153 1491 4153 
C 1888 4153 1888 4109 1888 4039 
C 1888 4008 1882 3983 1862 3913 
L 998 474 
C 941 249 928 185 480 185 
C 358 185 294 185 294 70 
C 294 0 333 0 461 0 
L 3674 0 
C 3814 0 3821 6 3866 108 
L 4448 1489 
z
" transform="scale(0.015625)"/>
      </defs>
      <use xlink:href="#CMMI12-1a" transform="scale(0.996264)"/>
      <use xlink:href="#CMMI12-45" transform="translate(50.314373 0) scale(0.996264)"/>
     </g>
    </g>
    <g id="line2d_18">
     <path d="M 205.264062 34.018627 
L 215.264062 34.018627 
L 225.264062 34.018627 
" style="fill: none; stroke-dasharray: 3.7,1.6; stroke-dashoffset: 0; stroke: #808080"/>
    </g>
    <g id="text_17">
     <!-- Time [s] -->
     <g transform="translate(233.264062 37.518627) scale(0.1 -0.1)">
      <defs>
       <path id="NimbusSanL-Regu-54" d="M 2266 4147 
L 3795 4147 
L 3795 4672 
L 134 4672 
L 134 4147 
L 1670 4147 
L 1670 0 
L 2266 0 
L 2266 4147 
z
" transform="scale(0.015625)"/>
       <path id="NimbusSanL-Regu-6d" d="M 448 3328 
L 448 0 
L 986 0 
L 986 2089 
C 986 2597 1338 2988 1773 2988 
C 2170 2988 2394 2744 2394 2315 
L 2394 0 
L 2931 0 
L 2931 2109 
C 2931 2597 3283 2988 3718 2988 
C 4109 2988 4339 2738 4339 2315 
L 4339 0 
L 4877 0 
L 4877 2520 
C 4877 3123 4531 3456 3904 3456 
C 3456 3456 3187 3321 2874 2943 
C 2675 3302 2406 3456 1971 3456 
C 1523 3456 1229 3289 941 2886 
L 941 3328 
L 448 3328 
z
" transform="scale(0.015625)"/>
       <path id="NimbusSanL-Regu-5b" d="M 1600 4672 
L 410 4672 
L 410 -1357 
L 1600 -1357 
L 1600 -896 
L 941 -896 
L 941 4211 
L 1600 4211 
L 1600 4672 
z
" transform="scale(0.015625)"/>
       <path id="NimbusSanL-Regu-5d" d="M 147 -1357 
L 1338 -1357 
L 1338 4672 
L 147 4672 
L 147 4211 
L 806 4211 
L 806 -896 
L 147 -896 
L 147 -1357 
z
" transform="scale(0.015625)"/>
      </defs>
      <use xlink:href="#NimbusSanL-Regu-54" transform="scale(0.996264)"/>
      <use xlink:href="#NimbusSanL-Regu-69" transform="translate(60.871631 0) scale(0.996264)"/>
      <use xlink:href="#NimbusSanL-Regu-6d" transform="translate(82.988415 0) scale(0.996264)"/>
      <use xlink:href="#NimbusSanL-Regu-65" transform="translate(165.976845 0) scale(0.996264)"/>
      <use xlink:href="#NimbusSanL-Regu-5b" transform="translate(249.063692 0) scale(0.996264)"/>
      <use xlink:href="#NimbusSanL-Regu-73" transform="translate(276.758861 0) scale(0.996264)"/>
      <use xlink:href="#NimbusSanL-Regu-5d" transform="translate(326.572062 0) scale(0.996264)"/>
     </g>
    </g>
   </g>
  </g>
  <g id="axes_2">
   <g id="matplotlib.axis_3">
    <g id="ytick_6">
     <g id="line2d_19">
      <defs>
       <path id="m4c87334ffc" d="M 0 0 
L 3.5 0 
" style="stroke: #000000; stroke-width: 0.8"/>
      </defs>
      <g>
       <use xlink:href="#m4c87334ffc" x="374.950386" y="218.88" style="stroke: #000000; stroke-width: 0.8"/>
      </g>
     </g>
     <g id="text_18">
      <!-- $\mathdefault{0}$ -->
      <g transform="translate(381.950386 222.42916) scale(0.1 -0.1)">
       <use xlink:href="#CMR17-30" transform="scale(0.996264)"/>
      </g>
     </g>
    </g>
    <g id="ytick_7">
     <g id="line2d_20">
      <g>
       <use xlink:href="#m4c87334ffc" x="374.950386" y="175.150192" style="stroke: #000000; stroke-width: 0.8"/>
      </g>
     </g>
     <g id="text_19">
      <!-- $\mathdefault{50}$ -->
      <g transform="translate(381.950386 178.699353) scale(0.1 -0.1)">
       <use xlink:href="#CMR17-35" transform="scale(0.996264)"/>
       <use xlink:href="#CMR17-30" transform="translate(45.690477 0) scale(0.996264)"/>
      </g>
     </g>
    </g>
    <g id="ytick_8">
     <g id="line2d_21">
      <g>
       <use xlink:href="#m4c87334ffc" x="374.950386" y="131.420385" style="stroke: #000000; stroke-width: 0.8"/>
      </g>
     </g>
     <g id="text_20">
      <!-- $\mathdefault{100}$ -->
      <g transform="translate(381.950386 134.969545) scale(0.1 -0.1)">
       <use xlink:href="#CMR17-31" transform="scale(0.996264)"/>
       <use xlink:href="#CMR17-30" transform="translate(45.690477 0) scale(0.996264)"/>
       <use xlink:href="#CMR17-30" transform="translate(91.380954 0) scale(0.996264)"/>
      </g>
     </g>
    </g>
    <g id="ytick_9">
     <g id="line2d_22">
      <g>
       <use xlink:href="#m4c87334ffc" x="374.950386" y="87.690577" style="stroke: #000000; stroke-width: 0.8"/>
      </g>
     </g>
     <g id="text_21">
      <!-- $\mathdefault{150}$ -->
      <g transform="translate(381.950386 91.239737) scale(0.1 -0.1)">
       <use xlink:href="#CMR17-31" transform="scale(0.996264)"/>
       <use xlink:href="#CMR17-35" transform="translate(45.690477 0) scale(0.996264)"/>
       <use xlink:href="#CMR17-30" transform="translate(91.380954 0) scale(0.996264)"/>
      </g>
     </g>
    </g>
    <g id="ytick_10">
     <g id="line2d_23">
      <g>
       <use xlink:href="#m4c87334ffc" x="374.950386" y="43.96077" style="stroke: #000000; stroke-width: 0.8"/>
      </g>
     </g>
     <g id="text_22">
      <!-- $\mathdefault{200}$ -->
      <g transform="translate(381.950386 47.50993) scale(0.1 -0.1)">
       <use xlink:href="#CMR17-32" transform="scale(0.996264)"/>
       <use xlink:href="#CMR17-30" transform="translate(45.690477 0) scale(0.996264)"/>
       <use xlink:href="#CMR17-30" transform="translate(91.380954 0) scale(0.996264)"/>
      </g>
     </g>
    </g>
    <g id="text_23">
     <!-- Time [s] -->
     <g transform="translate(407.992712 135.793337) rotate(-90) scale(0.1 -0.1)">
      <use xlink:href="#NimbusSanL-Regu-54" transform="scale(0.996264)"/>
      <use xlink:href="#NimbusSanL-Regu-69" transform="translate(60.871631 0) scale(0.996264)"/>
      <use xlink:href="#NimbusSanL-Regu-6d" transform="translate(82.988415 0) scale(0.996264)"/>
      <use xlink:href="#NimbusSanL-Regu-65" transform="translate(165.976845 0) scale(0.996264)"/>
      <use xlink:href="#NimbusSanL-Regu-5b" transform="translate(249.063692 0) scale(0.996264)"/>
      <use xlink:href="#NimbusSanL-Regu-73" transform="translate(276.758861 0) scale(0.996264)"/>
      <use xlink:href="#NimbusSanL-Regu-5d" transform="translate(326.572062 0) scale(0.996264)"/>
     </g>
    </g>
   </g>
   <g id="line2d_24">
    <path d="M 55.368567 218.88 
L 359.732204 17.28 
" clip-path="url(#pc4bd683156)" style="fill: none; stroke-dasharray: 3.7,1.6; stroke-dashoffset: 0; stroke: #808080"/>
   </g>
   <g id="patch_8">
    <path d="M 40.150386 228.96 
L 40.150386 7.2 
" style="fill: none; stroke: #000000; stroke-width: 0.8; stroke-linejoin: miter; stroke-linecap: square"/>
   </g>
   <g id="patch_9">
    <path d="M 374.950386 228.96 
L 374.950386 7.2 
" style="fill: none; stroke: #000000; stroke-width: 0.8; stroke-linejoin: miter; stroke-linecap: square"/>
   </g>
   <g id="patch_10">
    <path d="M 40.150386 228.96 
L 374.950386 228.96 
" style="fill: none; stroke: #000000; stroke-width: 0.8; stroke-linejoin: miter; stroke-linecap: square"/>
   </g>
   <g id="patch_11">
    <path d="M 40.150386 7.2 
L 374.950386 7.2 
" style="fill: none; stroke: #000000; stroke-width: 0.8; stroke-linejoin: miter; stroke-linecap: square"/>
   </g>
  </g>
 </g>
 <defs>
  <clipPath id="pc4bd683156">
   <rect x="40.150386" y="7.2" width="334.8" height="221.76"/>
  </clipPath>
 </defs>
</svg>
