<?xml version="1.0" encoding="utf-8" standalone="no"?>
<!DOCTYPE svg PUBLIC "-//W3C//DTD SVG 1.1//EN"
  "http://www.w3.org/Graphics/SVG/1.1/DTD/svg11.dtd">
<svg xmlns:xlink="http://www.w3.org/1999/xlink" width="374.586009pt" height="265.600613pt" viewBox="0 0 374.586009 265.600613" xmlns="http://www.w3.org/2000/svg" version="1.1">
 <metadata>
  <rdf:RDF xmlns:dc="http://purl.org/dc/elements/1.1/" xmlns:cc="http://creativecommons.org/ns#" xmlns:rdf="http://www.w3.org/1999/02/22-rdf-syntax-ns#">
   <cc:Work>
    <dc:type rdf:resource="http://purl.org/dc/dcmitype/StillImage"/>
    <dc:date>2025-08-02T14:13:21.216193</dc:date>
    <dc:format>image/svg+xml</dc:format>
    <dc:creator>
     <cc:Agent>
      <dc:title>Matplotlib v3.10.3, https://matplotlib.org/</dc:title>
     </cc:Agent>
    </dc:creator>
   </cc:Work>
  </rdf:RDF>
 </metadata>
 <defs>
  <style type="text/css">*{stroke-linejoin: round; stroke-linecap: butt}</style>
 </defs>
 <g id="figure_1">
  <g id="patch_1">
   <path d="M 0 265.600613 
L 374.586009 265.600613 
L 374.586009 0 
L 0 0 
z
" style="fill: #ffffff"/>
  </g>
  <g id="axes_1">
   <g id="patch_2">
    <path d="M 32.586009 228.96 
L 367.386009 228.96 
L 367.386009 7.2 
L 32.586009 7.2 
z
" style="fill: #ffffff"/>
   </g>
   <g id="matplotlib.axis_1">
    <g id="xtick_1">
     <g id="line2d_1">
      <defs>
       <path id="m56ff2ae6c6" d="M 0 0 
L 0 3.5 
" style="stroke: #000000; stroke-width: 0.8"/>
      </defs>
      <g>
       <use xlink:href="#m56ff2ae6c6" x="47.804191" y="228.96" style="stroke: #000000; stroke-width: 0.8"/>
      </g>
     </g>
     <g id="text_1">
      <!-- $\mathdefault{0}$ -->
      <g transform="translate(45.313523 243.05832) scale(0.1 -0.1)">
       <defs>
        <path id="CMR17-30" d="M 2688 2038 
C 2688 2430 2682 3099 2413 3613 
C 2176 4063 1798 4224 1466 4224 
C 1158 4224 768 4082 525 3620 
C 269 3137 243 2539 243 2038 
C 243 1671 250 1112 448 623 
C 723 -39 1216 -128 1466 -128 
C 1760 -128 2208 -7 2470 604 
C 2662 1048 2688 1568 2688 2038 
z
M 1466 -26 
C 1056 -26 813 328 723 816 
C 653 1196 653 1749 653 2109 
C 653 2604 653 3015 736 3407 
C 858 3954 1216 4121 1466 4121 
C 1728 4121 2067 3947 2189 3420 
C 2272 3054 2278 2623 2278 2109 
C 2278 1691 2278 1176 2202 797 
C 2067 96 1690 -26 1466 -26 
z
" transform="scale(0.015625)"/>
       </defs>
       <use xlink:href="#CMR17-30" transform="scale(0.996264)"/>
      </g>
     </g>
    </g>
    <g id="xtick_2">
     <g id="line2d_2">
      <g>
       <use xlink:href="#m56ff2ae6c6" x="102.135436" y="228.96" style="stroke: #000000; stroke-width: 0.8"/>
      </g>
     </g>
     <g id="text_2">
      <!-- $\mathdefault{500}$ -->
      <g transform="translate(94.663433 243.05832) scale(0.1 -0.1)">
       <defs>
        <path id="CMR17-35" d="M 730 3750 
C 794 3724 1056 3641 1325 3641 
C 1920 3641 2246 3961 2432 4140 
C 2432 4191 2432 4224 2394 4224 
C 2387 4224 2374 4224 2323 4198 
C 2099 4102 1837 4032 1517 4032 
C 1325 4032 1037 4055 723 4191 
C 653 4224 640 4224 634 4224 
C 602 4224 595 4217 595 4090 
L 595 2231 
C 595 2113 595 2080 659 2080 
C 691 2080 704 2093 736 2139 
C 941 2435 1222 2560 1542 2560 
C 1766 2560 2246 2415 2246 1293 
C 2246 1087 2246 716 2054 422 
C 1894 159 1645 25 1370 25 
C 947 25 518 319 403 812 
C 429 806 480 793 506 793 
C 589 793 749 838 749 1036 
C 749 1209 627 1280 506 1280 
C 358 1280 262 1190 262 1011 
C 262 454 704 -128 1382 -128 
C 2042 -128 2669 441 2669 1267 
C 2669 2054 2170 2662 1549 2662 
C 1222 2662 947 2540 730 2304 
L 730 3750 
z
" transform="scale(0.015625)"/>
       </defs>
       <use xlink:href="#CMR17-35" transform="scale(0.996264)"/>
       <use xlink:href="#CMR17-30" transform="translate(45.690477 0) scale(0.996264)"/>
       <use xlink:href="#CMR17-30" transform="translate(91.380954 0) scale(0.996264)"/>
      </g>
     </g>
    </g>
    <g id="xtick_3">
     <g id="line2d_3">
      <g>
       <use xlink:href="#m56ff2ae6c6" x="156.466682" y="228.96" style="stroke: #000000; stroke-width: 0.8"/>
      </g>
     </g>
     <g id="text_3">
      <!-- $\mathdefault{1000}$ -->
      <g transform="translate(146.504011 243.05832) scale(0.1 -0.1)">
       <defs>
        <path id="CMR17-31" d="M 1702 4083 
C 1702 4217 1696 4224 1606 4224 
C 1357 3927 979 3833 621 3820 
C 602 3820 570 3820 563 3808 
C 557 3795 557 3782 557 3648 
C 755 3648 1088 3686 1344 3839 
L 1344 467 
C 1344 243 1331 166 781 166 
L 589 166 
L 589 0 
C 896 6 1216 12 1523 12 
C 1830 12 2150 6 2458 0 
L 2458 166 
L 2266 166 
C 1715 166 1702 236 1702 467 
L 1702 4083 
z
" transform="scale(0.015625)"/>
       </defs>
       <use xlink:href="#CMR17-31" transform="scale(0.996264)"/>
       <use xlink:href="#CMR17-30" transform="translate(45.690477 0) scale(0.996264)"/>
       <use xlink:href="#CMR17-30" transform="translate(91.380954 0) scale(0.996264)"/>
       <use xlink:href="#CMR17-30" transform="translate(137.071431 0) scale(0.996264)"/>
      </g>
     </g>
    </g>
    <g id="xtick_4">
     <g id="line2d_4">
      <g>
       <use xlink:href="#m56ff2ae6c6" x="210.797927" y="228.96" style="stroke: #000000; stroke-width: 0.8"/>
      </g>
     </g>
     <g id="text_4">
      <!-- $\mathdefault{1500}$ -->
      <g transform="translate(200.835256 243.05832) scale(0.1 -0.1)">
       <use xlink:href="#CMR17-31" transform="scale(0.996264)"/>
       <use xlink:href="#CMR17-35" transform="translate(45.690477 0) scale(0.996264)"/>
       <use xlink:href="#CMR17-30" transform="translate(91.380954 0) scale(0.996264)"/>
       <use xlink:href="#CMR17-30" transform="translate(137.071431 0) scale(0.996264)"/>
      </g>
     </g>
    </g>
    <g id="xtick_5">
     <g id="line2d_5">
      <g>
       <use xlink:href="#m56ff2ae6c6" x="265.129172" y="228.96" style="stroke: #000000; stroke-width: 0.8"/>
      </g>
     </g>
     <g id="text_5">
      <!-- $\mathdefault{2000}$ -->
      <g transform="translate(255.166502 243.05832) scale(0.1 -0.1)">
       <defs>
        <path id="CMR17-32" d="M 2669 990 
L 2554 990 
C 2490 537 2438 460 2413 422 
C 2381 371 1920 371 1830 371 
L 602 371 
C 832 620 1280 1073 1824 1596 
C 2214 1966 2669 2400 2669 3033 
C 2669 3788 2067 4224 1395 4224 
C 691 4224 262 3603 262 3027 
C 262 2777 448 2745 525 2745 
C 589 2745 781 2783 781 3007 
C 781 3206 614 3264 525 3264 
C 486 3264 448 3257 422 3244 
C 544 3788 915 4057 1306 4057 
C 1862 4057 2227 3616 2227 3033 
C 2227 2477 1901 1998 1536 1583 
L 262 147 
L 262 0 
L 2515 0 
L 2669 990 
z
" transform="scale(0.015625)"/>
       </defs>
       <use xlink:href="#CMR17-32" transform="scale(0.996264)"/>
       <use xlink:href="#CMR17-30" transform="translate(45.690477 0) scale(0.996264)"/>
       <use xlink:href="#CMR17-30" transform="translate(91.380954 0) scale(0.996264)"/>
       <use xlink:href="#CMR17-30" transform="translate(137.071431 0) scale(0.996264)"/>
      </g>
     </g>
    </g>
    <g id="xtick_6">
     <g id="line2d_6">
      <g>
       <use xlink:href="#m56ff2ae6c6" x="319.460418" y="228.96" style="stroke: #000000; stroke-width: 0.8"/>
      </g>
     </g>
     <g id="text_6">
      <!-- $\mathdefault{2500}$ -->
      <g transform="translate(309.497747 243.05832) scale(0.1 -0.1)">
       <use xlink:href="#CMR17-32" transform="scale(0.996264)"/>
       <use xlink:href="#CMR17-35" transform="translate(45.690477 0) scale(0.996264)"/>
       <use xlink:href="#CMR17-30" transform="translate(91.380954 0) scale(0.996264)"/>
       <use xlink:href="#CMR17-30" transform="translate(137.071431 0) scale(0.996264)"/>
      </g>
     </g>
    </g>
    <g id="text_7">
     <!-- Iteration -->
     <g transform="translate(182.038633 256.278627) scale(0.1 -0.1)">
      <defs>
       <path id="NimbusSanL-Regu-49" d="M 1242 4672 
L 640 4672 
L 640 0 
L 1242 0 
L 1242 4672 
z
" transform="scale(0.015625)"/>
       <path id="NimbusSanL-Regu-74" d="M 1626 3328 
L 1075 3328 
L 1075 4249 
L 544 4249 
L 544 3328 
L 90 3328 
L 90 2892 
L 544 2892 
L 544 402 
C 544 64 774 -128 1190 -128 
C 1318 -128 1446 -116 1626 -84 
L 1626 364 
C 1555 345 1472 339 1370 339 
C 1139 339 1075 402 1075 634 
L 1075 2892 
L 1626 2892 
L 1626 3328 
z
" transform="scale(0.015625)"/>
       <path id="NimbusSanL-Regu-65" d="M 3283 1484 
C 3283 1998 3245 2311 3149 2565 
C 2931 3123 2419 3456 1792 3456 
C 858 3456 256 2734 256 1619 
C 256 545 838 -128 1779 -128 
C 2547 -128 3078 307 3213 1018 
L 2675 1018 
C 2528 588 2227 364 1798 364 
C 1459 364 1171 514 992 787 
C 864 974 819 1161 813 1484 
L 3283 1484 
z
M 826 1920 
C 870 2552 1248 2963 1786 2963 
C 2310 2963 2714 2519 2714 1959 
C 2714 1946 2714 1933 2707 1920 
L 826 1920 
z
" transform="scale(0.015625)"/>
       <path id="NimbusSanL-Regu-72" d="M 442 3328 
L 442 0 
L 979 0 
L 979 1727 
C 979 2203 1101 2514 1357 2698 
C 1523 2819 1683 2857 2054 2863 
L 2054 3404 
C 1965 3449 1920 3456 1850 3456 
C 1504 3456 1242 3251 934 2750 
L 934 3328 
L 442 3328 
z
" transform="scale(0.015625)"/>
       <path id="NimbusSanL-Regu-61" d="M 3424 332 
C 3366 320 3341 320 3309 320 
C 3123 320 3021 415 3021 581 
L 3021 2542 
C 3021 3135 2586 3456 1760 3456 
C 1274 3456 870 3315 646 3065 
C 493 2893 429 2702 416 2370 
L 954 2370 
C 998 2778 1242 2963 1741 2963 
C 2221 2963 2490 2784 2490 2466 
L 2490 2326 
C 2490 2103 2355 2007 1933 1956 
C 1178 1861 1062 1835 858 1753 
C 467 1593 269 1294 269 861 
C 269 256 691 -128 1370 -128 
C 1792 -128 2131 19 2509 364 
C 2547 25 2714 -128 3059 -128 
C 3168 -128 3251 -116 3424 -71 
L 3424 332 
z
M 2490 1071 
C 2490 893 2438 785 2278 638 
C 2061 441 1798 339 1485 339 
C 1069 339 826 536 826 874 
C 826 1224 1062 1402 1632 1485 
C 2195 1562 2310 1587 2490 1670 
L 2490 1071 
z
" transform="scale(0.015625)"/>
       <path id="NimbusSanL-Regu-69" d="M 960 3358 
L 429 3358 
L 429 0 
L 960 0 
L 960 3358 
z
M 960 4672 
L 422 4672 
L 422 3999 
L 960 3999 
L 960 4672 
z
" transform="scale(0.015625)"/>
       <path id="NimbusSanL-Regu-6f" d="M 1741 3456 
C 800 3456 230 2784 230 1663 
C 230 543 794 -128 1747 -128 
C 2688 -128 3264 543 3264 1638 
C 3264 2791 2707 3456 1741 3456 
z
M 1747 2963 
C 2349 2963 2707 2472 2707 1644 
C 2707 861 2336 364 1747 364 
C 1152 364 787 855 787 1663 
C 787 2466 1152 2963 1747 2963 
z
" transform="scale(0.015625)"/>
       <path id="NimbusSanL-Regu-6e" d="M 448 3328 
L 448 0 
L 986 0 
L 986 1835 
C 986 2539 1344 2988 1894 2988 
C 2317 2988 2586 2732 2586 2328 
L 2586 0 
L 3117 0 
L 3117 2539 
C 3117 3097 2701 3456 2054 3456 
C 1555 3456 1235 3263 941 2796 
L 941 3328 
L 448 3328 
z
" transform="scale(0.015625)"/>
      </defs>
      <use xlink:href="#NimbusSanL-Regu-49" transform="scale(0.996264)"/>
      <use xlink:href="#NimbusSanL-Regu-74" transform="translate(27.69517 0) scale(0.996264)"/>
      <use xlink:href="#NimbusSanL-Regu-65" transform="translate(55.390339 0) scale(0.996264)"/>
      <use xlink:href="#NimbusSanL-Regu-72" transform="translate(110.782016 0) scale(0.996264)"/>
      <use xlink:href="#NimbusSanL-Regu-61" transform="translate(142.961149 0) scale(0.996264)"/>
      <use xlink:href="#NimbusSanL-Regu-74" transform="translate(198.352826 0) scale(0.996264)"/>
      <use xlink:href="#NimbusSanL-Regu-69" transform="translate(226.047996 0) scale(0.996264)"/>
      <use xlink:href="#NimbusSanL-Regu-6f" transform="translate(248.16478 0) scale(0.996264)"/>
      <use xlink:href="#NimbusSanL-Regu-6e" transform="translate(303.556457 0) scale(0.996264)"/>
     </g>
    </g>
   </g>
   <g id="matplotlib.axis_2">
    <g id="ytick_1">
     <g id="line2d_7">
      <defs>
       <path id="m4867825914" d="M 0 0 
L -3.5 0 
" style="stroke: #000000; stroke-width: 0.8"/>
      </defs>
      <g>
       <use xlink:href="#m4867825914" x="32.586009" y="202.379195" style="stroke: #000000; stroke-width: 0.8"/>
      </g>
     </g>
     <g id="text_8">
      <!-- $\mathdefault{0}$ -->
      <g transform="translate(20.604674 205.928355) scale(0.1 -0.1)">
       <use xlink:href="#CMR17-30" transform="scale(0.996264)"/>
      </g>
     </g>
    </g>
    <g id="ytick_2">
     <g id="line2d_8">
      <g>
       <use xlink:href="#m4867825914" x="32.586009" y="171.2751" style="stroke: #000000; stroke-width: 0.8"/>
      </g>
     </g>
     <g id="text_9">
      <!-- $\mathdefault{1}$ -->
      <g transform="translate(20.604674 174.82426) scale(0.1 -0.1)">
       <use xlink:href="#CMR17-31" transform="scale(0.996264)"/>
      </g>
     </g>
    </g>
    <g id="ytick_3">
     <g id="line2d_9">
      <g>
       <use xlink:href="#m4867825914" x="32.586009" y="140.171005" style="stroke: #000000; stroke-width: 0.8"/>
      </g>
     </g>
     <g id="text_10">
      <!-- $\mathdefault{2}$ -->
      <g transform="translate(20.604674 143.720165) scale(0.1 -0.1)">
       <use xlink:href="#CMR17-32" transform="scale(0.996264)"/>
      </g>
     </g>
    </g>
    <g id="ytick_4">
     <g id="line2d_10">
      <g>
       <use xlink:href="#m4867825914" x="32.586009" y="109.06691" style="stroke: #000000; stroke-width: 0.8"/>
      </g>
     </g>
     <g id="text_11">
      <!-- $\mathdefault{3}$ -->
      <g transform="translate(20.604674 112.61607) scale(0.1 -0.1)">
       <defs>
        <path id="CMR17-33" d="M 1414 2176 
C 1984 2176 2234 1673 2234 1094 
C 2234 322 1824 25 1453 25 
C 1114 25 563 193 390 691 
C 422 678 454 678 486 678 
C 640 678 755 780 755 947 
C 755 1132 614 1216 486 1216 
C 378 1216 211 1164 211 927 
C 211 335 787 -128 1466 -128 
C 2176 -128 2720 432 2720 1087 
C 2720 1718 2208 2176 1600 2246 
C 2086 2347 2554 2776 2554 3353 
C 2554 3856 2048 4224 1472 4224 
C 890 4224 378 3862 378 3347 
C 378 3123 544 3084 627 3084 
C 762 3084 877 3167 877 3334 
C 877 3500 762 3584 627 3584 
C 602 3584 570 3584 544 3571 
C 730 3999 1235 4076 1459 4076 
C 1683 4076 2106 3966 2106 3347 
C 2106 3167 2080 2851 1862 2574 
C 1670 2329 1453 2316 1242 2297 
C 1210 2297 1062 2284 1037 2284 
C 992 2278 966 2272 966 2227 
C 966 2182 973 2176 1101 2176 
L 1414 2176 
z
" transform="scale(0.015625)"/>
       </defs>
       <use xlink:href="#CMR17-33" transform="scale(0.996264)"/>
      </g>
     </g>
    </g>
    <g id="ytick_5">
     <g id="line2d_11">
      <g>
       <use xlink:href="#m4867825914" x="32.586009" y="77.962815" style="stroke: #000000; stroke-width: 0.8"/>
      </g>
     </g>
     <g id="text_12">
      <!-- $\mathdefault{4}$ -->
      <g transform="translate(20.604674 81.511975) scale(0.1 -0.1)">
       <defs>
        <path id="CMR17-34" d="M 2150 4147 
C 2150 4281 2144 4288 2029 4288 
L 128 1254 
L 128 1088 
L 1779 1088 
L 1779 460 
C 1779 230 1766 166 1318 166 
L 1197 166 
L 1197 0 
C 1402 12 1747 12 1965 12 
C 2182 12 2528 12 2733 0 
L 2733 166 
L 2611 166 
C 2163 166 2150 230 2150 460 
L 2150 1088 
L 2803 1088 
L 2803 1254 
L 2150 1254 
L 2150 4147 
z
M 1798 3723 
L 1798 1254 
L 256 1254 
L 1798 3723 
z
" transform="scale(0.015625)"/>
       </defs>
       <use xlink:href="#CMR17-34" transform="scale(0.996264)"/>
      </g>
     </g>
    </g>
    <g id="ytick_6">
     <g id="line2d_12">
      <g>
       <use xlink:href="#m4867825914" x="32.586009" y="46.85872" style="stroke: #000000; stroke-width: 0.8"/>
      </g>
     </g>
     <g id="text_13">
      <!-- $\mathdefault{5}$ -->
      <g transform="translate(20.604674 50.40788) scale(0.1 -0.1)">
       <use xlink:href="#CMR17-35" transform="scale(0.996264)"/>
      </g>
     </g>
    </g>
    <g id="ytick_7">
     <g id="line2d_13">
      <g>
       <use xlink:href="#m4867825914" x="32.586009" y="15.754625" style="stroke: #000000; stroke-width: 0.8"/>
      </g>
     </g>
     <g id="text_14">
      <!-- $\mathdefault{6}$ -->
      <g transform="translate(20.604674 19.303785) scale(0.1 -0.1)">
       <defs>
        <path id="CMR17-36" d="M 678 2198 
C 678 3712 1395 4076 1811 4076 
C 1946 4076 2272 4049 2400 3782 
C 2298 3782 2106 3782 2106 3558 
C 2106 3385 2246 3328 2336 3328 
C 2394 3328 2566 3353 2566 3571 
C 2566 3987 2246 4224 1805 4224 
C 1043 4224 243 3411 243 2011 
C 243 257 966 -128 1478 -128 
C 2099 -128 2688 431 2688 1295 
C 2688 2101 2170 2688 1517 2688 
C 1126 2688 838 2430 678 1979 
L 678 2198 
z
M 1478 25 
C 691 25 691 1212 691 1450 
C 691 1914 909 2585 1504 2585 
C 1613 2585 1926 2585 2138 2140 
C 2253 1889 2253 1624 2253 1302 
C 2253 954 2253 696 2118 438 
C 1978 173 1773 25 1478 25 
z
" transform="scale(0.015625)"/>
       </defs>
       <use xlink:href="#CMR17-36" transform="scale(0.996264)"/>
      </g>
     </g>
    </g>
    <g id="text_15">
     <!-- Aerodynamic Coefficients - Blade_0 -->
     <g transform="translate(14.482687 196.280864) rotate(-90) scale(0.1 -0.1)">
      <defs>
       <path id="NimbusSanL-Regu-41" d="M 3034 1408 
L 3514 0 
L 4179 0 
L 2541 4672 
L 1773 4672 
L 109 0 
L 742 0 
L 1235 1408 
L 3034 1408 
z
M 2867 1907 
L 1382 1907 
L 2150 4032 
L 2867 1907 
z
" transform="scale(0.015625)"/>
       <path id="NimbusSanL-Regu-64" d="M 3168 4672 
L 2637 4672 
L 2637 2937 
C 2413 3276 2054 3456 1606 3456 
C 736 3456 166 2759 166 1695 
C 166 568 723 -128 1626 -128 
C 2086 -128 2406 44 2694 460 
L 2694 19 
L 3168 19 
L 3168 4672 
z
M 1696 2956 
C 2272 2956 2637 2447 2637 1651 
C 2637 880 2266 371 1702 371 
C 1114 371 723 887 723 1663 
C 723 2440 1114 2956 1696 2956 
z
" transform="scale(0.015625)"/>
       <path id="NimbusSanL-Regu-79" d="M 2483 3328 
L 1555 724 
L 698 3328 
L 128 3328 
L 1261 -29 
L 1056 -558 
C 973 -794 851 -884 627 -884 
C 550 -884 461 -871 346 -845 
L 346 -1325 
C 454 -1383 563 -1408 704 -1408 
C 877 -1408 1062 -1351 1203 -1248 
C 1370 -1127 1466 -986 1568 -718 
L 3059 3328 
L 2483 3328 
z
" transform="scale(0.015625)"/>
       <path id="NimbusSanL-Regu-6d" d="M 448 3328 
L 448 0 
L 986 0 
L 986 2089 
C 986 2597 1338 2988 1773 2988 
C 2170 2988 2394 2744 2394 2315 
L 2394 0 
L 2931 0 
L 2931 2109 
C 2931 2597 3283 2988 3718 2988 
C 4109 2988 4339 2738 4339 2315 
L 4339 0 
L 4877 0 
L 4877 2520 
C 4877 3123 4531 3456 3904 3456 
C 3456 3456 3187 3321 2874 2943 
C 2675 3302 2406 3456 1971 3456 
C 1523 3456 1229 3289 941 2886 
L 941 3328 
L 448 3328 
z
" transform="scale(0.015625)"/>
       <path id="NimbusSanL-Regu-63" d="M 3014 2237 
C 2989 2561 2918 2771 2790 2956 
C 2560 3270 2157 3456 1690 3456 
C 787 3456 198 2740 198 1632 
C 198 555 774 -128 1683 -128 
C 2483 -128 2989 352 3053 1167 
L 2515 1167 
C 2426 632 2150 364 1696 364 
C 1107 364 755 842 755 1632 
C 755 2466 1101 2963 1683 2963 
C 2131 2963 2413 2701 2477 2237 
L 3014 2237 
z
" transform="scale(0.015625)"/>
       <path id="NimbusSanL-Regu-43" d="M 4237 3219 
C 4051 4236 3462 4736 2438 4736 
C 1811 4736 1306 4537 960 4154 
C 538 3696 307 3035 307 2284 
C 307 1522 544 867 986 415 
C 1344 44 1805 -128 2413 -128 
C 3552 -128 4192 485 4333 1712 
L 3718 1712 
C 3667 1394 3603 1178 3507 994 
C 3315 612 2918 396 2419 396 
C 1491 396 902 1134 902 2291 
C 902 3480 1466 4211 2368 4211 
C 2746 4211 3098 4096 3290 3918 
C 3462 3759 3558 3562 3629 3219 
L 4237 3219 
z
" transform="scale(0.015625)"/>
       <path id="NimbusSanL-Regu-66" d="M 1651 3328 
L 1094 3328 
L 1094 3860 
C 1094 4087 1222 4204 1466 4204 
C 1510 4204 1530 4204 1651 4198 
L 1651 4639 
C 1530 4665 1459 4672 1350 4672 
C 858 4672 563 4390 563 3905 
L 563 3328 
L 115 3328 
L 115 2892 
L 563 2892 
L 563 0 
L 1094 0 
L 1094 2892 
L 1651 2892 
L 1651 3328 
z
" transform="scale(0.015625)"/>
       <path id="NimbusSanL-Regu-2" d="M 1613 3328 
L 1056 3328 
L 1056 3860 
C 1056 4087 1184 4204 1427 4204 
C 1472 4204 1491 4204 1613 4198 
L 1613 4639 
C 1491 4665 1421 4672 1312 4672 
C 819 4672 525 4390 525 3905 
L 525 3328 
L 77 3328 
L 77 2892 
L 525 2892 
L 525 0 
L 1056 0 
L 1056 2892 
L 1613 2892 
L 1613 3328 
z
M 2790 3328 
L 2259 3328 
L 2259 0 
L 2790 0 
L 2790 3328 
z
M 2790 4672 
L 2259 4672 
L 2259 3999 
L 2790 3999 
L 2790 4672 
z
" transform="scale(0.015625)"/>
       <path id="NimbusSanL-Regu-73" d="M 2803 2428 
C 2797 3084 2362 3456 1587 3456 
C 806 3456 301 3052 301 2434 
C 301 1912 570 1663 1363 1472 
L 1862 1351 
C 2234 1262 2381 1129 2381 887 
C 2381 574 2067 364 1600 364 
C 1312 364 1069 447 934 587 
C 851 683 813 778 781 1014 
L 218 1014 
C 243 243 678 -128 1555 -128 
C 2400 -128 2938 288 2938 931 
C 2938 1428 2656 1702 1990 1861 
L 1478 1982 
C 1043 2084 858 2224 858 2459 
C 858 2765 1133 2963 1568 2963 
C 1997 2963 2227 2778 2240 2428 
L 2803 2428 
z
" transform="scale(0.015625)"/>
       <path id="NimbusSanL-Regu-2d" d="M 1818 1996 
L 294 1996 
L 294 1536 
L 1818 1536 
L 1818 1996 
z
" transform="scale(0.015625)"/>
       <path id="NimbusSanL-Regu-42" d="M 506 0 
L 2611 0 
C 3053 0 3379 121 3629 390 
C 3859 632 3987 961 3987 1321 
C 3987 1878 3731 2214 3136 2444 
C 3558 2643 3782 2994 3782 3476 
C 3782 3821 3654 4127 3411 4345 
C 3168 4569 2848 4672 2400 4672 
L 506 4672 
L 506 0 
z
M 1101 2636 
L 1101 4147 
L 2253 4147 
C 2586 4147 2771 4101 2931 3977 
C 3098 3847 3187 3652 3187 3391 
C 3187 3138 3098 2936 2931 2806 
C 2771 2682 2586 2636 2253 2636 
L 1101 2636 
z
M 1101 524 
L 1101 2112 
L 2554 2112 
C 2842 2112 3034 2042 3174 1890 
C 3315 1745 3392 1542 3392 1315 
C 3392 1093 3315 891 3174 746 
C 3034 594 2842 524 2554 524 
L 1101 524 
z
" transform="scale(0.015625)"/>
       <path id="NimbusSanL-Regu-6c" d="M 973 4672 
L 435 4672 
L 435 0 
L 973 0 
L 973 4672 
z
" transform="scale(0.015625)"/>
       <path id="NimbusSanL-Regu-30" d="M 1760 4544 
C 1338 4544 954 4358 717 4044 
C 422 3649 275 3043 275 2207 
C 275 683 787 -128 1760 -128 
C 2720 -128 3245 683 3245 2169 
C 3245 3049 3104 3636 2803 4044 
C 2566 4364 2189 4544 1760 4544 
z
M 1760 4044 
C 2368 4044 2669 3432 2669 2220 
C 2669 938 2374 339 1747 339 
C 1152 339 851 964 851 2201 
C 851 3438 1152 4044 1760 4044 
z
" transform="scale(0.015625)"/>
      </defs>
      <use xlink:href="#NimbusSanL-Regu-41" transform="scale(0.996264)"/>
      <use xlink:href="#NimbusSanL-Regu-65" transform="translate(66.450031 0) scale(0.996264)"/>
      <use xlink:href="#NimbusSanL-Regu-72" transform="translate(121.841708 0) scale(0.996264)"/>
      <use xlink:href="#NimbusSanL-Regu-6f" transform="translate(155.016938 0) scale(0.996264)"/>
      <use xlink:href="#NimbusSanL-Regu-64" transform="translate(210.408615 0) scale(0.996264)"/>
      <use xlink:href="#NimbusSanL-Regu-79" transform="translate(265.800292 0) scale(0.996264)"/>
      <use xlink:href="#NimbusSanL-Regu-6e" transform="translate(315.613492 0) scale(0.996264)"/>
      <use xlink:href="#NimbusSanL-Regu-61" transform="translate(371.005169 0) scale(0.996264)"/>
      <use xlink:href="#NimbusSanL-Regu-6d" transform="translate(426.396846 0) scale(0.996264)"/>
      <use xlink:href="#NimbusSanL-Regu-69" transform="translate(509.385276 0) scale(0.996264)"/>
      <use xlink:href="#NimbusSanL-Regu-63" transform="translate(531.502061 0) scale(0.996264)"/>
      <use xlink:href="#NimbusSanL-Regu-43" transform="translate(609.010431 0) scale(0.996264)"/>
      <use xlink:href="#NimbusSanL-Regu-6f" transform="translate(680.940416 0) scale(0.996264)"/>
      <use xlink:href="#NimbusSanL-Regu-65" transform="translate(736.332093 0) scale(0.996264)"/>
      <use xlink:href="#NimbusSanL-Regu-66" transform="translate(791.72377 0) scale(0.996264)"/>
      <use xlink:href="#NimbusSanL-Regu-2" transform="translate(819.418939 0) scale(0.996264)"/>
      <use xlink:href="#NimbusSanL-Regu-63" transform="translate(869.23214 0) scale(0.996264)"/>
      <use xlink:href="#NimbusSanL-Regu-69" transform="translate(919.04534 0) scale(0.996264)"/>
      <use xlink:href="#NimbusSanL-Regu-65" transform="translate(941.162125 0) scale(0.996264)"/>
      <use xlink:href="#NimbusSanL-Regu-6e" transform="translate(996.553802 0) scale(0.996264)"/>
      <use xlink:href="#NimbusSanL-Regu-74" transform="translate(1051.945479 0) scale(0.996264)"/>
      <use xlink:href="#NimbusSanL-Regu-73" transform="translate(1079.640648 0) scale(0.996264)"/>
      <use xlink:href="#NimbusSanL-Regu-2d" transform="translate(1157.149018 0) scale(0.996264)"/>
      <use xlink:href="#NimbusSanL-Regu-42" transform="translate(1218.019418 0) scale(0.996264)"/>
      <use xlink:href="#NimbusSanL-Regu-6c" transform="translate(1284.469449 0) scale(0.996264)"/>
      <use xlink:href="#NimbusSanL-Regu-61" transform="translate(1306.586233 0) scale(0.996264)"/>
      <use xlink:href="#NimbusSanL-Regu-64" transform="translate(1361.97791 0) scale(0.996264)"/>
      <use xlink:href="#NimbusSanL-Regu-65" transform="translate(1417.369587 0) scale(0.996264)"/>
      <use xlink:href="#NimbusSanL-Regu-30" transform="translate(1508.626829 0) scale(0.996264)"/>
      <path d="M 1478.738605 0 
L 1508.626829 0 
L 1508.626829 0.3985 
L 1478.738605 0.3985 
L 1478.738605 0 
z
"/>
     </g>
    </g>
   </g>
   <g id="line2d_14">
    <path d="M 47.804191 159.207564 
L 48.238841 35.13347 
L 48.564828 17.28 
L 48.673491 18.082282 
L 49.325466 38.886757 
L 49.434128 38.669786 
L 49.542791 39.01805 
L 49.760116 40.603986 
L 49.977441 41.010136 
L 50.303428 42.488304 
L 50.629416 45.497262 
L 50.846741 49.486501 
L 51.064066 57.513201 
L 51.390053 75.909236 
L 51.607378 78.125543 
L 51.824703 82.184441 
L 52.150691 94.167611 
L 52.476678 119.846279 
L 52.694003 134.147902 
L 52.911328 137.022167 
L 53.237315 145.645688 
L 53.563303 163.015484 
L 53.997953 193.762735 
L 54.32394 195.537119 
L 54.649928 199.143125 
L 54.975915 206.130826 
L 55.301903 213.286358 
L 55.410565 214.090667 
L 55.519228 213.627169 
L 55.953878 209.34835 
L 56.171203 209.433969 
L 56.388528 209.76655 
L 56.823178 211.231587 
L 56.93184 211.033703 
L 57.149165 208.761033 
L 57.36649 206.720789 
L 57.692478 206.107405 
L 58.018465 205.058192 
L 58.344453 203.183979 
L 58.561778 200.803582 
L 58.887765 195.608017 
L 59.213752 194.351419 
L 59.431077 192.671541 
L 59.757065 187.666483 
L 60.083052 178.026964 
L 60.40904 168.862609 
L 60.735027 167.574887 
L 61.061015 165.193339 
L 61.387002 160.871554 
L 61.604327 154.200346 
L 62.14764 130.314805 
L 62.364965 128.025189 
L 62.473627 128.141612 
L 62.690952 129.593573 
L 62.908277 130.702231 
L 63.234265 131.06619 
L 63.560252 131.917314 
L 63.88624 133.720372 
L 64.103565 136.09085 
L 64.429552 140.961745 
L 64.646877 141.516492 
L 64.864202 142.527774 
L 65.190189 145.578123 
L 65.516177 151.801502 
L 66.059489 165.780915 
L 66.276814 166.432518 
L 66.602802 168.407618 
L 66.928789 172.170476 
L 67.254777 178.261745 
L 67.580764 184.760766 
L 67.906752 185.946218 
L 68.232739 188.597356 
L 68.558727 193.954533 
L 68.993377 203.924567 
L 69.319364 205.181457 
L 69.645352 207.847288 
L 69.971339 212.691654 
L 70.297327 218.141555 
L 70.840639 218.632917 
L 71.166626 218.88 
L 71.275289 218.76908 
L 71.492614 217.822247 
L 71.709939 215.465852 
L 71.927264 213.34213 
L 72.253251 212.456572 
L 72.470576 211.276257 
L 72.796564 207.796066 
L 73.231214 198.991559 
L 73.557201 192.514219 
L 73.774526 191.775878 
L 74.100514 189.594841 
L 74.426501 185.754754 
L 75.513126 170.312819 
L 75.947776 170.18704 
L 76.599751 169.822059 
L 76.817076 170.065952 
L 77.143063 171.331648 
L 77.360388 171.983005 
L 77.686376 172.225927 
L 78.012363 172.745197 
L 78.447013 173.951845 
L 78.881663 175.091949 
L 80.076951 177.209745 
L 81.054913 176.785039 
L 81.380901 176.363685 
L 81.924213 175.54482 
L 82.358863 175.335158 
L 82.793513 174.820658 
L 83.445488 173.892051 
L 83.880138 173.715238 
L 84.314788 173.319578 
L 84.8581 172.510626 
L 85.29275 171.997752 
L 85.944725 171.820728 
L 87.03135 171.354852 
L 87.683325 171.446151 
L 88.009312 171.696126 
L 88.552625 172.292866 
L 89.095937 172.393105 
L 90.0739 172.723286 
L 92.138487 172.787026 
L 92.573137 172.972181 
L 92.899125 173.373525 
L 93.225112 173.768067 
L 93.877087 173.985984 
L 94.311737 174.417488 
L 94.637724 174.834245 
L 95.289699 175.062706 
L 95.724349 175.496863 
L 96.267662 176.241935 
L 96.702312 176.449108 
L 97.028299 176.800429 
L 97.354287 177.446494 
L 97.571612 177.772345 
L 98.114924 177.998927 
L 98.549574 178.458646 
L 99.092887 179.273992 
L 99.744861 179.459178 
L 100.505499 179.739132 
L 100.831486 179.572491 
L 101.157474 179.176317 
L 101.592124 178.306098 
L 102.244099 176.459078 
L 102.787411 174.962559 
L 103.222061 174.749 
L 103.656711 174.230772 
L 104.308686 173.29732 
L 104.960661 173.037346 
L 105.503973 172.798439 
L 105.829961 172.860155 
L 106.481936 173.017066 
L 106.807923 173.353037 
L 107.133911 174.19066 
L 108.546523 178.514761 
L 108.872511 178.853321 
L 109.089836 178.869519 
L 109.415823 178.579627 
L 109.850473 177.676811 
L 110.611111 175.843244 
L 111.045761 175.537145 
L 111.371748 175.024783 
L 111.697735 174.155977 
L 111.91506 173.745181 
L 112.34971 173.555314 
L 112.78436 173.081432 
L 113.544998 171.966343 
L 114.08831 171.773231 
L 114.740285 171.46457 
L 115.82691 171.555508 
L 116.152898 171.828722 
L 116.370223 172.023288 
L 116.913535 172.171639 
L 117.348185 172.535842 
L 117.674172 173.112045 
L 118.108822 173.882617 
L 118.652135 174.093672 
L 119.086785 174.555663 
L 119.521435 175.143577 
L 120.17341 175.351216 
L 120.60806 175.722981 
L 121.04271 176.136357 
L 121.91201 176.326803 
L 122.455322 176.451197 
L 123.867934 176.13697 
L 124.302584 175.922301 
L 124.954559 175.75092 
L 125.389209 175.391067 
L 125.715197 175.048908 
L 126.367172 174.863634 
L 126.910484 174.422743 
L 127.127809 174.298976 
L 127.997109 174.124757 
L 128.757746 173.931179 
L 129.953034 174.02021 
L 130.496346 174.16203 
L 131.256984 174.332846 
L 131.908959 174.558643 
L 132.669596 174.730413 
L 133.756221 175.079035 
L 135.603483 175.048004 
L 136.255458 174.877368 
L 136.472783 174.794325 
L 137.342083 174.634274 
L 137.776733 174.356895 
L 138.102721 174.146902 
L 138.863358 173.995559 
L 140.058646 173.607493 
L 142.231895 173.261518 
L 142.775208 173.453445 
L 143.861833 174.000219 
L 144.513808 174.2231 
L 145.05712 174.474817 
L 150.381582 174.631714 
L 151.14222 174.846571 
L 151.794195 175.042035 
L 152.989482 175.014384 
L 153.315469 174.947403 
L 154.076107 174.807956 
L 155.923369 173.894418 
L 156.140694 173.747746 
L 156.792669 173.60791 
L 157.879294 173.25077 
L 159.835219 173.178467 
L 160.378531 173.346476 
L 160.595856 173.433633 
L 161.356494 173.562229 
L 163.638406 174.345077 
L 164.725031 174.515156 
L 165.377006 174.554681 
L 170.81013 174.450087 
L 171.353443 174.288326 
L 171.67943 174.217532 
L 172.54873 174.06628 
L 173.744018 173.71806 
L 175.808605 173.563187 
L 177.547205 173.872237 
L 177.873192 173.94824 
L 178.742492 174.110874 
L 179.394467 174.283525 
L 180.263767 174.443571 
L 180.915742 174.587899 
L 183.849629 174.664667 
L 185.153579 174.539416 
L 185.696892 174.45609 
L 189.717404 174.371433 
L 190.586704 174.454784 
L 191.456004 174.627267 
L 191.890654 174.671826 
L 195.911166 174.773141 
L 196.454478 174.732974 
L 197.323778 174.602692 
L 197.867091 174.489846 
L 198.73639 174.313151 
L 199.388365 174.126437 
L 200.257665 173.949271 
L 200.800978 173.853098 
L 204.495502 173.758877 
L 211.232577 174.869391 
L 213.514489 174.76999 
L 218.621626 174.13219 
L 223.946088 174.115019 
L 227.749275 174.34055 
L 231.987113 174.276531 
L 233.834375 174.202941 
L 239.702149 174.257555 
L 241.114762 174.323136 
L 242.744699 174.384366 
L 248.069161 174.287597 
L 253.502286 174.114233 
L 257.522798 174.247365 
L 260.456685 174.302748 
L 266.107135 174.219331 
L 271.866247 174.180193 
L 281.102558 174.121054 
L 290.664858 174.109212 
L 317.069843 174.112633 
L 352.167827 174.342171 
L 352.167827 174.342171 
" clip-path="url(#p74c22b2605)" style="fill: none; stroke: #1f77b4; stroke-width: 1.5; stroke-linecap: square"/>
   </g>
   <g id="line2d_15">
    <path d="M 47.804191 187.020942 
L 48.130178 154.357584 
L 48.456166 151.948614 
L 48.564828 152.049128 
L 48.782153 153.588862 
L 49.108141 155.806789 
L 49.216803 155.797698 
L 49.542791 154.718725 
L 49.760116 154.240331 
L 50.194766 154.028611 
L 50.520753 153.578641 
L 50.846741 152.686311 
L 51.172728 151.625931 
L 51.390053 151.784383 
L 51.824703 152.003151 
L 52.042028 152.347236 
L 52.259353 153.135531 
L 52.476678 154.963253 
L 52.694003 156.605994 
L 53.019991 157.276645 
L 53.237315 158.201498 
L 53.563303 161.061886 
L 54.106615 167.245055 
L 54.432603 167.906846 
L 54.649928 168.787369 
L 54.975915 171.476926 
L 55.301903 174.551375 
L 55.410565 174.920786 
L 55.736553 174.386971 
L 55.953878 174.635241 
L 56.171203 175.203221 
L 56.388528 176.446961 
L 56.714515 180.639205 
L 57.257828 189.200144 
L 57.475153 189.432737 
L 57.692478 189.946101 
L 58.018465 191.600407 
L 58.453115 195.521831 
L 58.887765 199.301876 
L 59.213752 199.659713 
L 59.53974 200.499232 
L 59.97439 202.508002 
L 60.300377 204.137903 
L 61.061015 204.028339 
L 61.27834 203.540167 
L 61.495665 201.572721 
L 61.71299 195.315205 
L 62.14764 181.031749 
L 62.364965 178.47612 
L 62.799615 176.326173 
L 63.125602 176.161521 
L 63.45159 175.724511 
L 63.777577 174.818766 
L 64.212227 172.507856 
L 64.429552 171.861469 
L 64.864202 171.593374 
L 65.407514 171.203572 
L 65.516177 171.272306 
L 65.733502 171.914927 
L 66.059489 173.443251 
L 66.385477 173.752723 
L 66.711464 174.474778 
L 67.037452 176.016369 
L 67.363439 178.899232 
L 67.580764 180.299167 
L 67.906752 180.711609 
L 68.232739 181.525439 
L 68.667389 183.522489 
L 68.993377 185.240151 
L 69.319364 185.543726 
L 69.645352 186.315468 
L 69.971339 188.019237 
L 70.514651 191.607641 
L 70.840639 192.200416 
L 71.166626 193.438999 
L 71.601276 196.257602 
L 71.927264 197.97534 
L 72.253251 198.187274 
L 72.687901 198.829929 
L 73.122551 199.363481 
L 73.231214 199.246806 
L 73.339876 198.937307 
L 73.557201 198.239211 
L 73.883189 197.95785 
L 74.209176 197.267845 
L 74.535164 195.658662 
L 74.861151 192.144655 
L 75.513126 184.865766 
L 75.839114 184.689177 
L 76.165101 184.25339 
L 76.925738 182.767719 
L 77.143063 182.947313 
L 77.360388 183.284689 
L 77.795038 183.500134 
L 78.121026 183.948107 
L 78.447013 184.863144 
L 78.990326 186.6623 
L 79.424976 187.415284 
L 79.750963 187.657195 
L 80.185613 187.680896 
L 81.272238 187.627052 
L 81.924213 187.731328 
L 82.68485 187.887136 
L 83.010838 188.143515 
L 83.336825 188.486598 
L 83.9888 188.679811 
L 84.8581 189.148129 
L 86.379375 188.263921 
L 86.922688 187.545387 
L 87.466 187.293205 
L 88.443962 186.632194 
L 91.160525 186.424075 
L 91.703837 186.346712 
L 93.007787 186.25161 
L 93.225112 186.170187 
L 93.985749 186.021501 
L 94.420399 185.671599 
L 94.637724 185.511323 
L 95.289699 185.346958 
L 96.267662 184.963763 
L 97.136962 185.063663 
L 97.354287 185.266301 
L 97.571612 185.478632 
L 98.114924 185.648807 
L 98.440912 185.937387 
L 98.766899 186.578741 
L 99.092887 187.426373 
L 99.527537 187.672978 
L 99.853524 188.10753 
L 100.179511 188.8994 
L 101.048811 191.502538 
L 101.374799 191.779593 
L 101.592124 191.715593 
L 101.918111 191.26576 
L 102.352761 190.118914 
L 102.787411 188.89499 
L 103.222061 188.647289 
L 103.548049 188.221726 
L 103.874036 187.477106 
L 104.200024 186.726293 
L 104.634674 186.531213 
L 105.069324 186.068154 
L 105.829961 185.037641 
L 106.481936 184.797653 
L 107.133911 184.476489 
L 107.459898 184.558437 
L 107.894548 184.928807 
L 109.741811 186.919999 
L 110.176461 186.993405 
L 111.589073 186.726938 
L 112.023723 186.526762 
L 112.675698 186.36779 
L 113.110348 186.03884 
L 113.436335 185.71686 
L 114.08831 185.532386 
L 114.52296 185.195038 
L 114.848948 184.931097 
L 115.609585 184.753559 
L 116.69621 184.33533 
L 117.891497 184.296695 
L 118.217485 184.354885 
L 118.978122 184.474303 
L 120.064747 184.772572 
L 120.716722 185.031242 
L 121.151372 185.199343 
L 121.91201 185.342281 
L 122.889972 185.614694 
L 124.737234 185.527508 
L 125.389209 185.351849 
L 125.823859 185.186778 
L 126.584497 185.026322 
L 127.453797 184.756189 
L 128.323097 184.550952 
L 128.866409 184.47939 
L 130.279021 184.546492 
L 131.256984 184.67768 
L 132.017621 184.892995 
L 132.669596 185.062842 
L 133.321571 185.517571 
L 133.538896 185.615859 
L 134.408196 185.775775 
L 135.168833 185.975813 
L 137.668071 186.042593 
L 138.428708 185.882723 
L 139.189346 185.716131 
L 139.623996 185.585191 
L 140.493295 185.43586 
L 141.362595 185.195653 
L 142.231895 185.010764 
L 142.88387 184.89939 
L 144.405145 185.080176 
L 145.49177 185.253364 
L 150.598907 185.397361 
L 151.359545 185.624074 
L 151.794195 185.739318 
L 152.989482 185.907096 
L 153.750119 185.937147 
L 155.488719 185.891785 
L 157.335982 185.603331 
L 157.770632 185.552135 
L 158.857256 185.383767 
L 159.400569 185.341442 
L 161.791144 185.332706 
L 162.443119 185.367372 
L 164.725031 185.584162 
L 165.594331 185.623754 
L 172.98338 185.540185 
L 173.635355 185.456111 
L 175.699942 185.197392 
L 176.89523 185.073767 
L 178.742492 185.043019 
L 181.893704 185.46991 
L 182.654342 185.664784 
L 186.348867 185.686882 
L 191.673329 184.886258 
L 193.629253 185.002436 
L 194.498553 185.16999 
L 194.933203 185.217589 
L 197.215116 185.444291 
L 198.519066 185.484777 
L 200.366328 185.387072 
L 201.018303 185.351752 
L 203.300215 185.122168 
L 204.060853 185.088552 
L 207.646715 185.015466 
L 215.796402 185.474253 
L 220.577551 185.393874 
L 228.8359 185.184948 
L 231.4438 185.262587 
L 236.333612 185.276234 
L 241.006099 185.152514 
L 245.678586 185.257559 
L 247.851836 185.289915 
L 252.632986 185.211137 
L 259.37006 185.098525 
L 265.02051 185.223957 
L 268.389047 185.226196 
L 292.186132 185.250689 
L 298.053907 185.249172 
L 305.660281 185.238305 
L 313.483981 185.266484 
L 322.17698 185.347555 
L 329.892017 185.343961 
L 350.53789 185.356976 
L 352.167827 185.359507 
L 352.167827 185.359507 
" clip-path="url(#p74c22b2605)" style="fill: none; stroke: #ff7f0e; stroke-width: 1.5; stroke-linecap: square"/>
   </g>
   <g id="patch_3">
    <path d="M 32.586009 228.96 
L 32.586009 7.2 
" style="fill: none; stroke: #000000; stroke-width: 0.8; stroke-linejoin: miter; stroke-linecap: square"/>
   </g>
   <g id="patch_4">
    <path d="M 367.386009 228.96 
L 367.386009 7.2 
" style="fill: none; stroke: #000000; stroke-width: 0.8; stroke-linejoin: miter; stroke-linecap: square"/>
   </g>
   <g id="patch_5">
    <path d="M 32.586009 228.96 
L 367.386009 228.96 
" style="fill: none; stroke: #000000; stroke-width: 0.8; stroke-linejoin: miter; stroke-linecap: square"/>
   </g>
   <g id="patch_6">
    <path d="M 32.586009 7.2 
L 367.386009 7.2 
" style="fill: none; stroke: #000000; stroke-width: 0.8; stroke-linejoin: miter; stroke-linecap: square"/>
   </g>
   <g id="legend_1">
    <g id="patch_7">
     <path d="M 314.000015 43.640613 
L 360.386009 43.640613 
Q 362.386009 43.640613 362.386009 41.640613 
L 362.386009 14.2 
Q 362.386009 12.2 360.386009 12.2 
L 314.000015 12.2 
Q 312.000015 12.2 312.000015 14.2 
L 312.000015 41.640613 
Q 312.000015 43.640613 314.000015 43.640613 
z
" style="fill: #ffffff; opacity: 0.8; stroke: #cccccc; stroke-linejoin: miter"/>
    </g>
    <g id="line2d_16">
     <path d="M 316.000015 19.79832 
L 326.000015 19.79832 
L 336.000015 19.79832 
" style="fill: none; stroke: #1f77b4; stroke-width: 1.5; stroke-linecap: square"/>
    </g>
    <g id="text_16">
     <!-- CD -->
     <g transform="translate(344.000015 23.29832) scale(0.1 -0.1)">
      <defs>
       <path id="NimbusSanL-Regu-44" d="M 570 0 
L 2368 0 
C 3546 0 4269 883 4269 2339 
C 4269 3788 3552 4672 2368 4672 
L 570 4672 
L 570 0 
z
M 1165 524 
L 1165 4147 
L 2266 4147 
C 3187 4147 3674 3525 3674 2332 
C 3674 1153 3187 524 2266 524 
L 1165 524 
z
" transform="scale(0.015625)"/>
      </defs>
      <use xlink:href="#NimbusSanL-Regu-43" transform="scale(0.996264)"/>
      <use xlink:href="#NimbusSanL-Regu-44" transform="translate(71.929985 0) scale(0.996264)"/>
     </g>
    </g>
    <g id="line2d_17">
     <path d="M 316.000015 34.018627 
L 326.000015 34.018627 
L 336.000015 34.018627 
" style="fill: none; stroke: #ff7f0e; stroke-width: 1.5; stroke-linecap: square"/>
    </g>
    <g id="text_17">
     <!-- CL -->
     <g transform="translate(344.000015 37.518627) scale(0.1 -0.1)">
      <defs>
       <path id="NimbusSanL-Regu-4c" d="M 1107 4672 
L 512 4672 
L 512 0 
L 3411 0 
L 3411 524 
L 1107 524 
L 1107 4672 
z
" transform="scale(0.015625)"/>
      </defs>
      <use xlink:href="#NimbusSanL-Regu-43" transform="scale(0.996264)"/>
      <use xlink:href="#NimbusSanL-Regu-4c" transform="translate(71.929985 0) scale(0.996264)"/>
     </g>
    </g>
   </g>
  </g>
 </g>
 <defs>
  <clipPath id="p74c22b2605">
   <rect x="32.586009" y="7.2" width="334.8" height="221.76"/>
  </clipPath>
 </defs>
</svg>
