<?xml version="1.0" encoding="utf-8" standalone="no"?>
<!DOCTYPE svg PUBLIC "-//W3C//DTD SVG 1.1//EN"
  "http://www.w3.org/Graphics/SVG/1.1/DTD/svg11.dtd">
<svg xmlns:xlink="http://www.w3.org/1999/xlink" width="379.567344pt" height="265.600613pt" viewBox="0 0 379.567344 265.600613" xmlns="http://www.w3.org/2000/svg" version="1.1">
 <metadata>
  <rdf:RDF xmlns:dc="http://purl.org/dc/elements/1.1/" xmlns:cc="http://creativecommons.org/ns#" xmlns:rdf="http://www.w3.org/1999/02/22-rdf-syntax-ns#">
   <cc:Work>
    <dc:type rdf:resource="http://purl.org/dc/dcmitype/StillImage"/>
    <dc:date>2025-08-02T14:13:20.984440</dc:date>
    <dc:format>image/svg+xml</dc:format>
    <dc:creator>
     <cc:Agent>
      <dc:title>Matplotlib v3.10.3, https://matplotlib.org/</dc:title>
     </cc:Agent>
    </dc:creator>
   </cc:Work>
  </rdf:RDF>
 </metadata>
 <defs>
  <style type="text/css">*{stroke-linejoin: round; stroke-linecap: butt}</style>
 </defs>
 <g id="figure_1">
  <g id="patch_1">
   <path d="M 0 265.600613 
L 379.567344 265.600613 
L 379.567344 0 
L 0 0 
z
" style="fill: #ffffff"/>
  </g>
  <g id="axes_1">
   <g id="patch_2">
    <path d="M 37.567344 228.96 
L 372.367344 228.96 
L 372.367344 7.2 
L 37.567344 7.2 
z
" style="fill: #ffffff"/>
   </g>
   <g id="matplotlib.axis_1">
    <g id="xtick_1">
     <g id="line2d_1">
      <defs>
       <path id="m3d06c66efa" d="M 0 0 
L 0 3.5 
" style="stroke: #000000; stroke-width: 0.8"/>
      </defs>
      <g>
       <use xlink:href="#m3d06c66efa" x="52.785526" y="228.96" style="stroke: #000000; stroke-width: 0.8"/>
      </g>
     </g>
     <g id="text_1">
      <!-- $\mathdefault{0}$ -->
      <g transform="translate(50.294859 243.05832) scale(0.1 -0.1)">
       <defs>
        <path id="CMR17-30" d="M 2688 2038 
C 2688 2430 2682 3099 2413 3613 
C 2176 4063 1798 4224 1466 4224 
C 1158 4224 768 4082 525 3620 
C 269 3137 243 2539 243 2038 
C 243 1671 250 1112 448 623 
C 723 -39 1216 -128 1466 -128 
C 1760 -128 2208 -7 2470 604 
C 2662 1048 2688 1568 2688 2038 
z
M 1466 -26 
C 1056 -26 813 328 723 816 
C 653 1196 653 1749 653 2109 
C 653 2604 653 3015 736 3407 
C 858 3954 1216 4121 1466 4121 
C 1728 4121 2067 3947 2189 3420 
C 2272 3054 2278 2623 2278 2109 
C 2278 1691 2278 1176 2202 797 
C 2067 96 1690 -26 1466 -26 
z
" transform="scale(0.015625)"/>
       </defs>
       <use xlink:href="#CMR17-30" transform="scale(0.996264)"/>
      </g>
     </g>
    </g>
    <g id="xtick_2">
     <g id="line2d_2">
      <g>
       <use xlink:href="#m3d06c66efa" x="107.116772" y="228.96" style="stroke: #000000; stroke-width: 0.8"/>
      </g>
     </g>
     <g id="text_2">
      <!-- $\mathdefault{500}$ -->
      <g transform="translate(99.644769 243.05832) scale(0.1 -0.1)">
       <defs>
        <path id="CMR17-35" d="M 730 3750 
C 794 3724 1056 3641 1325 3641 
C 1920 3641 2246 3961 2432 4140 
C 2432 4191 2432 4224 2394 4224 
C 2387 4224 2374 4224 2323 4198 
C 2099 4102 1837 4032 1517 4032 
C 1325 4032 1037 4055 723 4191 
C 653 4224 640 4224 634 4224 
C 602 4224 595 4217 595 4090 
L 595 2231 
C 595 2113 595 2080 659 2080 
C 691 2080 704 2093 736 2139 
C 941 2435 1222 2560 1542 2560 
C 1766 2560 2246 2415 2246 1293 
C 2246 1087 2246 716 2054 422 
C 1894 159 1645 25 1370 25 
C 947 25 518 319 403 812 
C 429 806 480 793 506 793 
C 589 793 749 838 749 1036 
C 749 1209 627 1280 506 1280 
C 358 1280 262 1190 262 1011 
C 262 454 704 -128 1382 -128 
C 2042 -128 2669 441 2669 1267 
C 2669 2054 2170 2662 1549 2662 
C 1222 2662 947 2540 730 2304 
L 730 3750 
z
" transform="scale(0.015625)"/>
       </defs>
       <use xlink:href="#CMR17-35" transform="scale(0.996264)"/>
       <use xlink:href="#CMR17-30" transform="translate(45.690477 0) scale(0.996264)"/>
       <use xlink:href="#CMR17-30" transform="translate(91.380954 0) scale(0.996264)"/>
      </g>
     </g>
    </g>
    <g id="xtick_3">
     <g id="line2d_3">
      <g>
       <use xlink:href="#m3d06c66efa" x="161.448017" y="228.96" style="stroke: #000000; stroke-width: 0.8"/>
      </g>
     </g>
     <g id="text_3">
      <!-- $\mathdefault{1000}$ -->
      <g transform="translate(151.485346 243.05832) scale(0.1 -0.1)">
       <defs>
        <path id="CMR17-31" d="M 1702 4083 
C 1702 4217 1696 4224 1606 4224 
C 1357 3927 979 3833 621 3820 
C 602 3820 570 3820 563 3808 
C 557 3795 557 3782 557 3648 
C 755 3648 1088 3686 1344 3839 
L 1344 467 
C 1344 243 1331 166 781 166 
L 589 166 
L 589 0 
C 896 6 1216 12 1523 12 
C 1830 12 2150 6 2458 0 
L 2458 166 
L 2266 166 
C 1715 166 1702 236 1702 467 
L 1702 4083 
z
" transform="scale(0.015625)"/>
       </defs>
       <use xlink:href="#CMR17-31" transform="scale(0.996264)"/>
       <use xlink:href="#CMR17-30" transform="translate(45.690477 0) scale(0.996264)"/>
       <use xlink:href="#CMR17-30" transform="translate(91.380954 0) scale(0.996264)"/>
       <use xlink:href="#CMR17-30" transform="translate(137.071431 0) scale(0.996264)"/>
      </g>
     </g>
    </g>
    <g id="xtick_4">
     <g id="line2d_4">
      <g>
       <use xlink:href="#m3d06c66efa" x="215.779262" y="228.96" style="stroke: #000000; stroke-width: 0.8"/>
      </g>
     </g>
     <g id="text_4">
      <!-- $\mathdefault{1500}$ -->
      <g transform="translate(205.816592 243.05832) scale(0.1 -0.1)">
       <use xlink:href="#CMR17-31" transform="scale(0.996264)"/>
       <use xlink:href="#CMR17-35" transform="translate(45.690477 0) scale(0.996264)"/>
       <use xlink:href="#CMR17-30" transform="translate(91.380954 0) scale(0.996264)"/>
       <use xlink:href="#CMR17-30" transform="translate(137.071431 0) scale(0.996264)"/>
      </g>
     </g>
    </g>
    <g id="xtick_5">
     <g id="line2d_5">
      <g>
       <use xlink:href="#m3d06c66efa" x="270.110508" y="228.96" style="stroke: #000000; stroke-width: 0.8"/>
      </g>
     </g>
     <g id="text_5">
      <!-- $\mathdefault{2000}$ -->
      <g transform="translate(260.147837 243.05832) scale(0.1 -0.1)">
       <defs>
        <path id="CMR17-32" d="M 2669 990 
L 2554 990 
C 2490 537 2438 460 2413 422 
C 2381 371 1920 371 1830 371 
L 602 371 
C 832 620 1280 1073 1824 1596 
C 2214 1966 2669 2400 2669 3033 
C 2669 3788 2067 4224 1395 4224 
C 691 4224 262 3603 262 3027 
C 262 2777 448 2745 525 2745 
C 589 2745 781 2783 781 3007 
C 781 3206 614 3264 525 3264 
C 486 3264 448 3257 422 3244 
C 544 3788 915 4057 1306 4057 
C 1862 4057 2227 3616 2227 3033 
C 2227 2477 1901 1998 1536 1583 
L 262 147 
L 262 0 
L 2515 0 
L 2669 990 
z
" transform="scale(0.015625)"/>
       </defs>
       <use xlink:href="#CMR17-32" transform="scale(0.996264)"/>
       <use xlink:href="#CMR17-30" transform="translate(45.690477 0) scale(0.996264)"/>
       <use xlink:href="#CMR17-30" transform="translate(91.380954 0) scale(0.996264)"/>
       <use xlink:href="#CMR17-30" transform="translate(137.071431 0) scale(0.996264)"/>
      </g>
     </g>
    </g>
    <g id="xtick_6">
     <g id="line2d_6">
      <g>
       <use xlink:href="#m3d06c66efa" x="324.441753" y="228.96" style="stroke: #000000; stroke-width: 0.8"/>
      </g>
     </g>
     <g id="text_6">
      <!-- $\mathdefault{2500}$ -->
      <g transform="translate(314.479082 243.05832) scale(0.1 -0.1)">
       <use xlink:href="#CMR17-32" transform="scale(0.996264)"/>
       <use xlink:href="#CMR17-35" transform="translate(45.690477 0) scale(0.996264)"/>
       <use xlink:href="#CMR17-30" transform="translate(91.380954 0) scale(0.996264)"/>
       <use xlink:href="#CMR17-30" transform="translate(137.071431 0) scale(0.996264)"/>
      </g>
     </g>
    </g>
    <g id="text_7">
     <!-- Iteration -->
     <g transform="translate(187.019968 256.278627) scale(0.1 -0.1)">
      <defs>
       <path id="NimbusSanL-Regu-49" d="M 1242 4672 
L 640 4672 
L 640 0 
L 1242 0 
L 1242 4672 
z
" transform="scale(0.015625)"/>
       <path id="NimbusSanL-Regu-74" d="M 1626 3328 
L 1075 3328 
L 1075 4249 
L 544 4249 
L 544 3328 
L 90 3328 
L 90 2892 
L 544 2892 
L 544 402 
C 544 64 774 -128 1190 -128 
C 1318 -128 1446 -116 1626 -84 
L 1626 364 
C 1555 345 1472 339 1370 339 
C 1139 339 1075 402 1075 634 
L 1075 2892 
L 1626 2892 
L 1626 3328 
z
" transform="scale(0.015625)"/>
       <path id="NimbusSanL-Regu-65" d="M 3283 1484 
C 3283 1998 3245 2311 3149 2565 
C 2931 3123 2419 3456 1792 3456 
C 858 3456 256 2734 256 1619 
C 256 545 838 -128 1779 -128 
C 2547 -128 3078 307 3213 1018 
L 2675 1018 
C 2528 588 2227 364 1798 364 
C 1459 364 1171 514 992 787 
C 864 974 819 1161 813 1484 
L 3283 1484 
z
M 826 1920 
C 870 2552 1248 2963 1786 2963 
C 2310 2963 2714 2519 2714 1959 
C 2714 1946 2714 1933 2707 1920 
L 826 1920 
z
" transform="scale(0.015625)"/>
       <path id="NimbusSanL-Regu-72" d="M 442 3328 
L 442 0 
L 979 0 
L 979 1727 
C 979 2203 1101 2514 1357 2698 
C 1523 2819 1683 2857 2054 2863 
L 2054 3404 
C 1965 3449 1920 3456 1850 3456 
C 1504 3456 1242 3251 934 2750 
L 934 3328 
L 442 3328 
z
" transform="scale(0.015625)"/>
       <path id="NimbusSanL-Regu-61" d="M 3424 332 
C 3366 320 3341 320 3309 320 
C 3123 320 3021 415 3021 581 
L 3021 2542 
C 3021 3135 2586 3456 1760 3456 
C 1274 3456 870 3315 646 3065 
C 493 2893 429 2702 416 2370 
L 954 2370 
C 998 2778 1242 2963 1741 2963 
C 2221 2963 2490 2784 2490 2466 
L 2490 2326 
C 2490 2103 2355 2007 1933 1956 
C 1178 1861 1062 1835 858 1753 
C 467 1593 269 1294 269 861 
C 269 256 691 -128 1370 -128 
C 1792 -128 2131 19 2509 364 
C 2547 25 2714 -128 3059 -128 
C 3168 -128 3251 -116 3424 -71 
L 3424 332 
z
M 2490 1071 
C 2490 893 2438 785 2278 638 
C 2061 441 1798 339 1485 339 
C 1069 339 826 536 826 874 
C 826 1224 1062 1402 1632 1485 
C 2195 1562 2310 1587 2490 1670 
L 2490 1071 
z
" transform="scale(0.015625)"/>
       <path id="NimbusSanL-Regu-69" d="M 960 3358 
L 429 3358 
L 429 0 
L 960 0 
L 960 3358 
z
M 960 4672 
L 422 4672 
L 422 3999 
L 960 3999 
L 960 4672 
z
" transform="scale(0.015625)"/>
       <path id="NimbusSanL-Regu-6f" d="M 1741 3456 
C 800 3456 230 2784 230 1663 
C 230 543 794 -128 1747 -128 
C 2688 -128 3264 543 3264 1638 
C 3264 2791 2707 3456 1741 3456 
z
M 1747 2963 
C 2349 2963 2707 2472 2707 1644 
C 2707 861 2336 364 1747 364 
C 1152 364 787 855 787 1663 
C 787 2466 1152 2963 1747 2963 
z
" transform="scale(0.015625)"/>
       <path id="NimbusSanL-Regu-6e" d="M 448 3328 
L 448 0 
L 986 0 
L 986 1835 
C 986 2539 1344 2988 1894 2988 
C 2317 2988 2586 2732 2586 2328 
L 2586 0 
L 3117 0 
L 3117 2539 
C 3117 3097 2701 3456 2054 3456 
C 1555 3456 1235 3263 941 2796 
L 941 3328 
L 448 3328 
z
" transform="scale(0.015625)"/>
      </defs>
      <use xlink:href="#NimbusSanL-Regu-49" transform="scale(0.996264)"/>
      <use xlink:href="#NimbusSanL-Regu-74" transform="translate(27.69517 0) scale(0.996264)"/>
      <use xlink:href="#NimbusSanL-Regu-65" transform="translate(55.390339 0) scale(0.996264)"/>
      <use xlink:href="#NimbusSanL-Regu-72" transform="translate(110.782016 0) scale(0.996264)"/>
      <use xlink:href="#NimbusSanL-Regu-61" transform="translate(142.961149 0) scale(0.996264)"/>
      <use xlink:href="#NimbusSanL-Regu-74" transform="translate(198.352826 0) scale(0.996264)"/>
      <use xlink:href="#NimbusSanL-Regu-69" transform="translate(226.047996 0) scale(0.996264)"/>
      <use xlink:href="#NimbusSanL-Regu-6f" transform="translate(248.16478 0) scale(0.996264)"/>
      <use xlink:href="#NimbusSanL-Regu-6e" transform="translate(303.556457 0) scale(0.996264)"/>
     </g>
    </g>
   </g>
   <g id="matplotlib.axis_2">
    <g id="ytick_1">
     <g id="line2d_7">
      <defs>
       <path id="mfab5d7f8dc" d="M 0 0 
L -3.5 0 
" style="stroke: #000000; stroke-width: 0.8"/>
      </defs>
      <g>
       <use xlink:href="#mfab5d7f8dc" x="37.567344" y="219.625918" style="stroke: #000000; stroke-width: 0.8"/>
      </g>
     </g>
     <g id="text_8">
      <!-- $\mathdefault{0}$ -->
      <g transform="translate(25.586009 223.175078) scale(0.1 -0.1)">
       <use xlink:href="#CMR17-30" transform="scale(0.996264)"/>
      </g>
     </g>
    </g>
    <g id="ytick_2">
     <g id="line2d_8">
      <g>
       <use xlink:href="#mfab5d7f8dc" x="37.567344" y="182.330016" style="stroke: #000000; stroke-width: 0.8"/>
      </g>
     </g>
     <g id="text_9">
      <!-- $\mathdefault{5}$ -->
      <g transform="translate(25.586009 185.879176) scale(0.1 -0.1)">
       <use xlink:href="#CMR17-35" transform="scale(0.996264)"/>
      </g>
     </g>
    </g>
    <g id="ytick_3">
     <g id="line2d_9">
      <g>
       <use xlink:href="#mfab5d7f8dc" x="37.567344" y="145.034114" style="stroke: #000000; stroke-width: 0.8"/>
      </g>
     </g>
     <g id="text_10">
      <!-- $\mathdefault{10}$ -->
      <g transform="translate(20.604674 148.583274) scale(0.1 -0.1)">
       <use xlink:href="#CMR17-31" transform="scale(0.996264)"/>
       <use xlink:href="#CMR17-30" transform="translate(45.690477 0) scale(0.996264)"/>
      </g>
     </g>
    </g>
    <g id="ytick_4">
     <g id="line2d_10">
      <g>
       <use xlink:href="#mfab5d7f8dc" x="37.567344" y="107.738212" style="stroke: #000000; stroke-width: 0.8"/>
      </g>
     </g>
     <g id="text_11">
      <!-- $\mathdefault{15}$ -->
      <g transform="translate(20.604674 111.287372) scale(0.1 -0.1)">
       <use xlink:href="#CMR17-31" transform="scale(0.996264)"/>
       <use xlink:href="#CMR17-35" transform="translate(45.690477 0) scale(0.996264)"/>
      </g>
     </g>
    </g>
    <g id="ytick_5">
     <g id="line2d_11">
      <g>
       <use xlink:href="#mfab5d7f8dc" x="37.567344" y="70.44231" style="stroke: #000000; stroke-width: 0.8"/>
      </g>
     </g>
     <g id="text_12">
      <!-- $\mathdefault{20}$ -->
      <g transform="translate(20.604674 73.99147) scale(0.1 -0.1)">
       <use xlink:href="#CMR17-32" transform="scale(0.996264)"/>
       <use xlink:href="#CMR17-30" transform="translate(45.690477 0) scale(0.996264)"/>
      </g>
     </g>
    </g>
    <g id="ytick_6">
     <g id="line2d_12">
      <g>
       <use xlink:href="#mfab5d7f8dc" x="37.567344" y="33.146408" style="stroke: #000000; stroke-width: 0.8"/>
      </g>
     </g>
     <g id="text_13">
      <!-- $\mathdefault{25}$ -->
      <g transform="translate(20.604674 36.695568) scale(0.1 -0.1)">
       <use xlink:href="#CMR17-32" transform="scale(0.996264)"/>
       <use xlink:href="#CMR17-35" transform="translate(45.690477 0) scale(0.996264)"/>
      </g>
     </g>
    </g>
    <g id="text_14">
     <!-- Average CFL - Blade_0 -->
     <g transform="translate(14.482687 168.77932) rotate(-90) scale(0.1 -0.1)">
      <defs>
       <path id="NimbusSanL-Regu-41" d="M 3034 1408 
L 3514 0 
L 4179 0 
L 2541 4672 
L 1773 4672 
L 109 0 
L 742 0 
L 1235 1408 
L 3034 1408 
z
M 2867 1907 
L 1382 1907 
L 2150 4032 
L 2867 1907 
z
" transform="scale(0.015625)"/>
       <path id="NimbusSanL-Regu-76" d="M 1824 0 
L 3110 3328 
L 2509 3328 
L 1562 629 
L 666 3328 
L 64 3328 
L 1242 0 
L 1824 0 
z
" transform="scale(0.015625)"/>
       <path id="NimbusSanL-Regu-67" d="M 2637 3359 
L 2637 2873 
C 2368 3270 2042 3456 1613 3456 
C 762 3456 186 2714 186 1632 
C 186 1084 333 638 608 320 
C 858 38 1216 -128 1568 -128 
C 1990 -128 2285 51 2586 473 
L 2586 300 
C 2586 -155 2528 -441 2394 -634 
C 2253 -841 1978 -960 1651 -960 
C 1408 -960 1190 -894 1043 -774 
C 922 -674 870 -581 838 -375 
L 294 -375 
C 352 -1031 845 -1408 1632 -1408 
C 2131 -1408 2560 -1248 2778 -980 
C 3034 -661 3130 -222 3130 568 
L 3130 3359 
L 2637 3359 
z
M 1670 2963 
C 2246 2963 2586 2479 2586 1644 
C 2586 848 2240 364 1677 364 
C 1094 364 742 855 742 1663 
C 742 2466 1101 2963 1670 2963 
z
" transform="scale(0.015625)"/>
       <path id="NimbusSanL-Regu-43" d="M 4237 3219 
C 4051 4236 3462 4736 2438 4736 
C 1811 4736 1306 4537 960 4154 
C 538 3696 307 3035 307 2284 
C 307 1522 544 867 986 415 
C 1344 44 1805 -128 2413 -128 
C 3552 -128 4192 485 4333 1712 
L 3718 1712 
C 3667 1394 3603 1178 3507 994 
C 3315 612 2918 396 2419 396 
C 1491 396 902 1134 902 2291 
C 902 3480 1466 4211 2368 4211 
C 2746 4211 3098 4096 3290 3918 
C 3462 3759 3558 3562 3629 3219 
L 4237 3219 
z
" transform="scale(0.015625)"/>
       <path id="NimbusSanL-Regu-46" d="M 1171 2112 
L 3398 2112 
L 3398 2636 
L 1171 2636 
L 1171 4147 
L 3706 4147 
L 3706 4672 
L 576 4672 
L 576 0 
L 1171 0 
L 1171 2112 
z
" transform="scale(0.015625)"/>
       <path id="NimbusSanL-Regu-4c" d="M 1107 4672 
L 512 4672 
L 512 0 
L 3411 0 
L 3411 524 
L 1107 524 
L 1107 4672 
z
" transform="scale(0.015625)"/>
       <path id="NimbusSanL-Regu-2d" d="M 1818 1996 
L 294 1996 
L 294 1536 
L 1818 1536 
L 1818 1996 
z
" transform="scale(0.015625)"/>
       <path id="NimbusSanL-Regu-42" d="M 506 0 
L 2611 0 
C 3053 0 3379 121 3629 390 
C 3859 632 3987 961 3987 1321 
C 3987 1878 3731 2214 3136 2444 
C 3558 2643 3782 2994 3782 3476 
C 3782 3821 3654 4127 3411 4345 
C 3168 4569 2848 4672 2400 4672 
L 506 4672 
L 506 0 
z
M 1101 2636 
L 1101 4147 
L 2253 4147 
C 2586 4147 2771 4101 2931 3977 
C 3098 3847 3187 3652 3187 3391 
C 3187 3138 3098 2936 2931 2806 
C 2771 2682 2586 2636 2253 2636 
L 1101 2636 
z
M 1101 524 
L 1101 2112 
L 2554 2112 
C 2842 2112 3034 2042 3174 1890 
C 3315 1745 3392 1542 3392 1315 
C 3392 1093 3315 891 3174 746 
C 3034 594 2842 524 2554 524 
L 1101 524 
z
" transform="scale(0.015625)"/>
       <path id="NimbusSanL-Regu-6c" d="M 973 4672 
L 435 4672 
L 435 0 
L 973 0 
L 973 4672 
z
" transform="scale(0.015625)"/>
       <path id="NimbusSanL-Regu-64" d="M 3168 4672 
L 2637 4672 
L 2637 2937 
C 2413 3276 2054 3456 1606 3456 
C 736 3456 166 2759 166 1695 
C 166 568 723 -128 1626 -128 
C 2086 -128 2406 44 2694 460 
L 2694 19 
L 3168 19 
L 3168 4672 
z
M 1696 2956 
C 2272 2956 2637 2447 2637 1651 
C 2637 880 2266 371 1702 371 
C 1114 371 723 887 723 1663 
C 723 2440 1114 2956 1696 2956 
z
" transform="scale(0.015625)"/>
       <path id="NimbusSanL-Regu-30" d="M 1760 4544 
C 1338 4544 954 4358 717 4044 
C 422 3649 275 3043 275 2207 
C 275 683 787 -128 1760 -128 
C 2720 -128 3245 683 3245 2169 
C 3245 3049 3104 3636 2803 4044 
C 2566 4364 2189 4544 1760 4544 
z
M 1760 4044 
C 2368 4044 2669 3432 2669 2220 
C 2669 938 2374 339 1747 339 
C 1152 339 851 964 851 2201 
C 851 3438 1152 4044 1760 4044 
z
" transform="scale(0.015625)"/>
      </defs>
      <use xlink:href="#NimbusSanL-Regu-41" transform="scale(0.996264)"/>
      <use xlink:href="#NimbusSanL-Regu-76" transform="translate(62.465918 0) scale(0.996264)"/>
      <use xlink:href="#NimbusSanL-Regu-65" transform="translate(109.788488 0) scale(0.996264)"/>
      <use xlink:href="#NimbusSanL-Regu-72" transform="translate(165.180165 0) scale(0.996264)"/>
      <use xlink:href="#NimbusSanL-Regu-61" transform="translate(197.359298 0) scale(0.996264)"/>
      <use xlink:href="#NimbusSanL-Regu-67" transform="translate(252.750975 0) scale(0.996264)"/>
      <use xlink:href="#NimbusSanL-Regu-65" transform="translate(308.142652 0) scale(0.996264)"/>
      <use xlink:href="#NimbusSanL-Regu-43" transform="translate(391.229499 0) scale(0.996264)"/>
      <use xlink:href="#NimbusSanL-Regu-46" transform="translate(463.159484 0) scale(0.996264)"/>
      <use xlink:href="#NimbusSanL-Regu-4c" transform="translate(524.031114 0) scale(0.996264)"/>
      <use xlink:href="#NimbusSanL-Regu-2d" transform="translate(607.117961 0) scale(0.996264)"/>
      <use xlink:href="#NimbusSanL-Regu-42" transform="translate(667.98836 0) scale(0.996264)"/>
      <use xlink:href="#NimbusSanL-Regu-6c" transform="translate(734.438391 0) scale(0.996264)"/>
      <use xlink:href="#NimbusSanL-Regu-61" transform="translate(756.555176 0) scale(0.996264)"/>
      <use xlink:href="#NimbusSanL-Regu-64" transform="translate(811.946853 0) scale(0.996264)"/>
      <use xlink:href="#NimbusSanL-Regu-65" transform="translate(867.33853 0) scale(0.996264)"/>
      <use xlink:href="#NimbusSanL-Regu-30" transform="translate(958.595772 0) scale(0.996264)"/>
      <path d="M 928.707548 0 
L 958.595772 0 
L 958.595772 0.3985 
L 928.707548 0.3985 
L 928.707548 0 
z
"/>
     </g>
    </g>
   </g>
   <g id="line2d_13">
    <path d="M 52.785526 113.257666 
L 53.002851 68.881894 
L 53.111514 204.551516 
L 53.220176 201.536635 
L 53.546164 188.367637 
L 53.872151 165.611609 
L 54.198139 126.302281 
L 54.524126 59.82902 
L 54.632789 203.646228 
L 54.741451 200.45029 
L 55.067439 186.490433 
L 55.393426 162.3678 
L 55.719413 120.890675 
L 56.045401 50.117931 
L 56.154063 17.28 
L 56.262726 199.391326 
L 56.371388 195.344408 
L 56.697376 177.667468 
L 57.023363 147.145804 
L 57.349351 94.698791 
L 57.458013 69.99126 
L 57.566676 204.662452 
L 57.675338 201.669759 
L 58.001326 188.597675 
L 58.327313 166.009115 
L 58.653301 127.088955 
L 58.870626 86.972265 
L 58.979288 206.360553 
L 59.087951 203.70748 
L 59.413938 192.118856 
L 59.739926 172.095552 
L 60.065913 137.568058 
L 60.500563 78.271553 
L 60.609226 78.271553 
L 60.717888 50.226462 
L 60.826551 202.685972 
L 60.935213 199.297983 
L 61.2612 184.499247 
L 61.587188 158.92703 
L 61.913175 114.752383 
L 62.1305 68.725167 
L 62.239163 204.535843 
L 62.347825 201.517828 
L 62.673813 188.335138 
L 62.9998 165.555451 
L 63.325788 126.21591 
L 63.651775 58.444067 
L 63.760438 203.507733 
L 63.8691 200.284096 
L 64.195088 186.203249 
L 64.521075 161.875374 
L 64.847063 119.906247 
L 65.17305 47.513475 
L 65.281713 202.414674 
L 65.390375 198.972425 
L 65.716363 183.936682 
L 66.04235 157.954918 
L 66.368338 113.05843 
L 66.694325 66.171144 
L 67.672287 66.171144 
L 67.78095 204.280441 
L 67.889612 201.211345 
L 68.2156 187.805536 
L 68.541587 164.640298 
L 68.867575 124.610767 
L 69.193562 55.439736 
L 69.302225 203.2073 
L 69.410887 199.923576 
L 69.736875 185.580271 
L 70.062862 160.795041 
L 70.38885 117.966162 
L 70.8235 43.95786 
L 70.932162 202.059112 
L 71.040825 198.545751 
L 71.366812 183.199389 
L 71.6928 156.680877 
L 72.018787 110.86082 
L 72.344775 31.71999 
L 72.453437 200.835325 
L 72.5621 197.077207 
L 72.888087 180.661745 
L 73.214074 152.295827 
L 73.540062 103.27952 
L 73.757387 52.102107 
L 73.866049 202.873537 
L 73.974712 199.523061 
L 74.300699 184.88818 
L 74.626687 159.599108 
L 74.952674 115.901841 
L 75.169999 70.334467 
L 75.278662 204.696773 
L 75.387324 201.710944 
L 75.713312 188.668843 
L 76.039299 166.132092 
L 76.365287 127.189168 
L 76.691274 60.027117 
L 76.799937 203.666038 
L 76.908599 200.474062 
L 77.234587 186.531511 
L 77.560574 162.438782 
L 77.886562 120.808722 
L 78.321212 48.910613 
L 78.429874 202.554388 
L 78.538536 199.140081 
L 78.864524 184.226392 
L 79.190511 158.455538 
L 79.516499 113.923501 
L 79.842486 67.414437 
L 80.385799 67.414437 
L 80.494461 204.40477 
L 80.603124 201.36054 
L 80.929111 188.063345 
L 81.255099 165.085792 
L 81.581086 125.380581 
L 81.907074 83.912633 
L 82.015736 83.912633 
L 82.124399 56.769976 
L 82.233061 203.340324 
L 82.341724 200.083205 
L 82.667711 185.85611 
L 82.993699 161.271689 
L 83.319686 118.789811 
L 83.645674 74.421924 
L 85.058286 74.421924 
L 85.166948 45.381125 
L 85.275611 202.201439 
L 85.384273 198.716543 
L 85.710261 183.494518 
L 86.036248 157.190858 
L 86.362236 111.738135 
L 86.579561 64.26751 
L 86.688223 204.090077 
L 86.796886 200.982909 
L 87.122873 187.410799 
L 87.448861 163.958192 
L 87.774848 123.432087 
L 88.100836 53.402978 
L 88.209498 203.003624 
L 88.318161 199.679165 
L 88.644148 185.157929 
L 88.970136 160.065233 
L 89.296123 116.705055 
L 89.622111 71.419875 
L 90.056761 71.419875 
L 90.165423 204.805314 
L 90.274085 201.841193 
L 90.600073 188.893913 
L 90.92606 166.521013 
L 91.252048 127.860642 
L 91.578035 61.055522 
L 91.686698 203.768878 
L 91.79536 200.597471 
L 92.121348 186.744761 
L 92.447335 162.807278 
L 92.773323 121.443308 
L 93.09931 78.24296 
L 93.207973 78.24296 
L 93.316635 49.966368 
L 93.425298 202.659963 
L 93.53396 199.266772 
L 93.859948 184.445314 
L 94.185935 158.833834 
L 94.511923 114.577197 
L 94.729248 68.355759 
L 94.83791 204.498902 
L 94.946573 201.473499 
L 95.27256 188.258538 
L 95.598548 165.423085 
L 95.924535 125.963423 
L 96.250522 57.777127 
L 96.359185 203.441039 
L 96.467847 200.204063 
L 96.793835 186.064953 
L 97.119822 161.63257 
L 97.44581 119.413412 
L 97.771797 75.31991 
L 97.88046 75.31991 
L 97.989122 46.458708 
L 98.097785 202.309197 
L 98.206447 198.845853 
L 98.532435 183.717965 
L 98.858422 157.576976 
L 99.18441 112.405346 
L 99.401735 65.228294 
L 99.510397 204.186156 
L 99.61906 201.098203 
L 99.945047 187.610027 
L 100.271035 164.302458 
L 100.597022 124.026979 
L 100.92301 54.430951 
L 101.031672 203.106421 
L 101.140335 199.802522 
L 101.466322 185.37109 
L 101.792309 160.433575 
L 102.118297 117.341549 
L 102.335622 72.336426 
L 102.444284 204.896969 
L 102.552947 201.951179 
L 102.878934 189.083969 
L 103.204922 166.84943 
L 103.530909 128.428147 
L 103.856897 62.03617 
L 103.965559 203.866943 
L 104.074222 200.715148 
L 104.400209 186.948108 
L 104.726197 163.158662 
L 105.052184 122.0505 
L 105.378172 79.117315 
L 107.442759 79.117315 
L 107.551421 51.015595 
L 107.660084 202.764886 
L 107.768746 199.392679 
L 108.094734 184.662881 
L 108.420721 159.209791 
L 108.746709 115.22685 
L 108.964034 69.29126 
L 109.072696 204.592452 
L 109.181359 201.585759 
L 109.507346 188.452523 
L 109.833334 165.758292 
L 110.159321 126.542661 
L 110.485309 58.778049 
L 110.593971 203.541131 
L 110.702634 200.324174 
L 111.028621 186.272504 
L 111.354609 161.991218 
L 111.680596 120.033157 
L 112.006584 76.212342 
L 115.157796 76.212342 
L 115.266458 47.529627 
L 115.375121 202.416289 
L 115.483783 198.974363 
L 115.809771 183.940031 
L 116.135758 157.960706 
L 116.461746 113.068431 
L 116.679071 66.183136 
L 116.787733 204.28164 
L 116.896396 201.212784 
L 117.222383 187.808023 
L 117.548371 164.644595 
L 117.874358 124.618192 
L 118.200346 55.452568 
L 118.309008 203.208583 
L 118.417671 199.925116 
L 118.743658 185.582932 
L 119.069646 160.799638 
L 119.395633 117.974107 
L 119.612958 73.24731 
L 119.72162 204.988057 
L 119.830283 202.060485 
L 120.15627 189.27285 
L 120.482258 167.175816 
L 120.808245 128.992142 
L 121.134233 63.010753 
L 121.242895 203.964402 
L 121.351558 200.832098 
L 121.677545 187.150197 
L 122.003533 163.507873 
L 122.32952 122.653936 
L 122.655508 79.986264 
L 122.76417 79.986264 
L 122.872833 52.058333 
L 122.981495 202.86916 
L 123.090158 199.517808 
L 123.416145 184.879104 
L 123.742133 159.583423 
L 124.06812 115.872486 
L 124.285445 70.220976 
L 124.394108 204.685424 
L 124.50277 201.697325 
L 124.828758 188.645309 
L 125.154745 166.091426 
L 125.480732 127.118316 
L 125.80672 59.772781 
L 125.915382 203.640604 
L 126.024045 200.443542 
L 126.350032 186.478772 
L 126.67602 162.347649 
L 127.002007 120.649069 
L 127.327995 77.099256 
L 127.436657 77.099256 
L 127.54532 48.593923 
L 127.653982 202.522719 
L 127.762645 199.102079 
L 128.088632 184.160724 
L 128.41462 158.342062 
L 128.740607 113.727415 
L 128.957932 67.132073 
L 129.066595 204.376534 
L 129.175257 201.326657 
L 129.501245 188.004794 
L 129.827232 164.984616 
L 130.15322 125.205749 
L 130.479207 56.467866 
L 130.58787 203.310113 
L 130.696532 200.046952 
L 131.022519 185.793464 
L 131.348507 161.163438 
L 131.674494 118.602753 
L 131.891819 74.15256 
L 132.000482 205.078582 
L 132.109144 202.169115 
L 132.435132 189.460562 
L 132.761119 167.500184 
L 133.087107 129.552649 
L 133.413094 63.979309 
L 133.521757 204.061257 
L 133.630419 200.948325 
L 133.956407 187.351037 
L 134.282394 163.854924 
L 134.608382 123.25364 
L 135.043032 53.094622 
L 135.151694 202.972788 
L 135.260357 199.642163 
L 135.586344 185.093988 
L 135.912332 159.954744 
L 136.238319 116.514129 
L 136.455644 71.144942 
L 136.564307 204.77782 
L 136.672969 201.808201 
L 136.998956 188.836903 
L 137.324944 166.4225 
L 137.650931 127.690411 
L 137.976919 87.238788 
L 138.194244 87.238788 
L 138.302906 60.761362 
L 138.411569 203.739462 
L 138.520231 200.562171 
L 138.846219 186.683764 
L 139.172206 162.701875 
L 139.498194 121.261172 
L 139.715519 77.980684 
L 139.824181 205.461395 
L 139.932844 202.62849 
L 140.258831 190.254362 
L 140.584819 168.87187 
L 140.910806 131.922923 
L 141.236794 68.075142 
L 141.345456 204.47084 
L 141.454119 201.439825 
L 141.780106 188.200349 
L 142.106094 165.322535 
L 142.432081 125.789672 
L 142.866731 57.476885 
L 142.975393 203.411015 
L 143.084056 200.168034 
L 143.410043 186.002695 
L 143.736031 161.524988 
L 144.062018 119.227511 
L 144.279343 75.052211 
L 144.388006 205.168547 
L 144.496668 202.277073 
L 144.822656 189.647114 
L 145.148643 167.822545 
L 145.474631 130.10969 
L 145.800618 64.941875 
L 145.909281 204.157514 
L 146.017943 201.063833 
L 146.343931 187.550635 
L 146.669918 164.199829 
L 146.995906 123.849636 
L 147.321893 81.708072 
L 148.191193 81.708072 
L 148.299855 54.124502 
L 148.408518 203.075776 
L 148.51718 199.765748 
L 148.843168 185.307544 
L 149.169155 160.323769 
L 149.495143 117.151804 
L 149.712468 72.063193 
L 149.929793 218.148791 
L 150.147118 218.88 
L 150.799093 218.88 
L 151.12508 218.336972 
L 151.451068 217.398619 
L 151.55973 216.953159 
L 151.777055 218.88 
L 153.29833 218.88 
L 153.624318 218.336972 
L 153.950305 217.398619 
L 154.276292 215.777145 
L 154.60228 212.975238 
L 154.928267 208.133543 
L 155.254255 199.767093 
L 155.580242 185.309869 
L 155.90623 160.327786 
L 156.232217 117.158745 
L 156.449542 72.073189 
L 156.558205 204.870645 
L 156.666867 201.919591 
L 156.992855 189.029384 
L 157.318842 166.755107 
L 157.64483 128.265157 
L 157.970817 61.754524 
L 158.07948 203.838779 
L 158.188142 200.681351 
L 158.51413 186.889706 
L 158.840117 163.057743 
L 159.166105 121.876112 
L 159.38343 78.866197 
L 159.492092 205.549946 
L 159.600755 202.734752 
L 159.926742 190.437982 
L 160.252729 169.189165 
L 160.578717 132.471209 
L 160.904704 69.022581 
L 161.013367 204.565584 
L 161.122029 201.553518 
L 161.448017 188.39681 
L 161.774004 165.662019 
L 162.099992 126.376301 
L 162.317317 85.34647 
L 162.425979 206.197973 
L 162.534642 203.512384 
L 162.860629 191.781732 
L 163.186617 171.511164 
L 163.512604 136.483623 
L 163.838592 75.956032 
L 163.947254 205.258929 
L 164.055917 202.385532 
L 164.381904 189.83453 
L 164.707892 168.1464 
L 165.033879 130.669311 
L 165.359867 65.908902 
L 165.468529 204.254216 
L 165.577192 201.179876 
L 165.903179 187.751158 
L 166.229166 164.546332 
L 166.555154 124.448393 
L 166.772479 82.570282 
L 166.881141 205.920354 
L 166.989804 203.179242 
L 167.315791 191.206061 
L 167.641779 170.516406 
L 167.967766 134.764681 
L 168.293754 72.9857 
L 168.402416 204.961896 
L 168.511079 202.029092 
L 168.837066 189.218602 
L 169.163054 167.082077 
L 169.489041 128.83016 
L 169.815029 62.730849 
L 170.032354 218.056967 
L 170.249679 218.88 
L 170.358341 218.88 
L 170.575666 218.551796 
L 170.792991 218.88 
L 170.901654 218.88 
L 171.118979 218.551796 
L 171.336304 218.88 
L 171.662291 218.88 
L 171.988278 218.336972 
L 172.314266 217.398619 
L 172.640253 215.777145 
L 172.966241 212.975238 
L 173.292228 208.133543 
L 173.618216 199.767093 
L 173.944203 185.309869 
L 174.270191 160.327786 
L 174.596178 117.158745 
L 174.813503 72.073189 
L 174.922166 204.870645 
L 175.030828 201.919591 
L 175.356816 189.029384 
L 175.682803 166.755107 
L 176.008791 128.265157 
L 176.334778 61.754524 
L 176.443441 203.838779 
L 176.552103 200.681351 
L 176.878091 186.889706 
L 177.204078 163.057743 
L 177.530065 121.876112 
L 177.856053 78.866197 
L 177.964715 78.866197 
L 178.073378 50.714253 
L 178.18204 202.734752 
L 178.290703 199.356518 
L 178.61669 184.600395 
L 178.942678 159.101814 
L 179.268665 115.040267 
L 179.48599 69.022581 
L 179.594653 204.565584 
L 179.703315 201.553518 
L 180.029303 188.39681 
L 180.35529 165.662019 
L 180.681278 126.376301 
L 181.007265 58.49058 
L 181.115928 203.512384 
L 181.22459 200.289677 
L 181.550578 186.212894 
L 181.876565 161.888213 
L 182.202553 119.855164 
L 182.52854 47.222055 
L 182.637203 202.385532 
L 182.745865 198.937454 
L 183.071853 183.876253 
L 183.39784 157.850497 
L 183.723827 112.87799 
L 183.941152 65.908902 
L 184.049815 204.254216 
L 184.158477 201.179876 
L 184.484465 187.751158 
L 184.810452 164.546332 
L 185.13644 124.448393 
L 185.462427 55.159155 
L 185.57109 203.179242 
L 185.679752 199.889906 
L 186.00574 185.52209 
L 186.331727 160.694503 
L 186.657715 117.792433 
L 186.983702 72.9857 
L 187.201027 72.9857 
L 187.30969 43.657657 
L 187.418352 202.029092 
L 187.527015 198.509727 
L 187.853002 183.137139 
L 188.17899 156.573308 
L 188.504977 110.671009 
L 188.722302 62.730849 
L 188.830965 203.936411 
L 188.939627 200.79851 
L 189.265614 187.092156 
L 189.591602 163.407578 
L 189.917589 122.480626 
L 190.243577 51.758854 
L 190.352239 202.839212 
L 190.460902 199.48187 
L 190.786889 184.817004 
L 191.112877 159.476114 
L 191.438864 115.687057 
L 191.656189 69.953958 
L 191.764852 204.658722 
L 191.873514 201.665283 
L 192.199502 188.58994 
L 192.525489 165.995749 
L 192.851477 126.952985 
L 193.177464 59.48709 
L 193.286127 203.612035 
L 193.394789 200.409259 
L 193.720777 186.419531 
L 194.046764 162.245281 
L 194.372752 120.472177 
L 194.807402 48.288253 
L 194.916064 202.492152 
L 195.024726 199.065398 
L 195.350714 184.09734 
L 195.676701 158.232535 
L 196.002689 113.538152 
L 196.437339 36.306258 
L 196.546001 201.293952 
L 196.654664 197.627559 
L 196.980651 181.612753 
L 197.306639 153.93917 
L 197.632626 106.119217 
L 197.849951 56.176268 
L 197.958614 203.280953 
L 198.067276 200.01196 
L 198.393264 185.732999 
L 198.719251 161.058953 
L 199.045239 118.422203 
L 199.479889 44.745898 
L 199.588551 202.137916 
L 199.697214 198.640316 
L 200.023201 183.362797 
L 200.349189 156.963245 
L 200.675176 111.344819 
L 200.892501 63.701136 
L 201.001163 204.03344 
L 201.109826 200.914944 
L 201.435813 187.293355 
L 201.761801 163.755249 
L 202.087788 123.081403 
L 202.413776 52.796995 
L 202.522438 202.943026 
L 202.631101 199.606447 
L 202.957088 185.032273 
L 203.283076 159.848099 
L 203.609063 116.329846 
L 203.935051 41.130306 
L 204.043713 201.776357 
L 204.152376 198.206445 
L 204.478363 182.613068 
L 204.804351 155.667713 
L 205.130338 109.10614 
L 205.347663 60.477438 
L 205.456326 203.71107 
L 205.564988 200.5281 
L 205.890976 186.624889 
L 206.216963 162.60014 
L 206.54295 121.085374 
L 206.868938 49.347858 
L 206.9776 202.598112 
L 207.086263 199.192551 
L 207.41225 184.317059 
L 207.738238 158.61221 
L 208.064225 114.194231 
L 208.28155 67.804289 
L 208.390213 204.443755 
L 208.498875 201.407323 
L 208.824863 188.144185 
L 209.15085 165.225483 
L 209.476838 125.621967 
L 209.802825 57.187091 
L 209.911488 203.382035 
L 210.02015 200.133259 
L 210.346138 185.942603 
L 210.672125 161.421149 
L 210.998113 119.048078 
L 211.215438 74.793828 
L 211.3241 205.142709 
L 211.432763 202.246067 
L 211.75875 189.593536 
L 212.084738 167.729962 
L 212.410725 129.949705 
L 212.736712 64.665422 
L 212.845375 204.129868 
L 212.954037 201.030659 
L 213.280025 187.49331 
L 213.606012 164.100771 
L 213.932 123.678463 
L 214.257987 81.461583 
L 214.36665 81.461583 
L 214.475312 53.828717 
L 214.583975 203.046198 
L 214.692637 199.730254 
L 215.018625 185.24621 
L 215.344612 160.217783 
L 215.6706 116.968661 
L 215.887925 71.799468 
L 215.996587 204.843273 
L 216.10525 201.886744 
L 216.431237 188.972625 
L 216.757225 166.657028 
L 217.083212 128.095676 
L 217.4092 61.461661 
L 217.517862 203.809492 
L 217.626525 200.646207 
L 217.952512 186.828978 
L 218.278499 162.952805 
L 218.604487 121.694779 
L 218.821812 78.605077 
L 218.930474 205.523834 
L 219.039137 202.703417 
L 219.365124 190.383837 
L 219.691112 169.095601 
L 220.017099 132.30953 
L 220.343087 68.7432 
L 220.451749 204.537646 
L 220.560412 201.519992 
L 220.886399 188.338878 
L 221.212387 165.561912 
L 221.538374 126.203316 
L 221.755699 85.097371 
L 221.864362 206.173063 
L 221.973024 203.482492 
L 222.299012 191.730079 
L 222.624999 171.421907 
L 222.950987 136.329388 
L 223.276974 75.689514 
L 223.385637 205.232278 
L 223.494299 202.35355 
L 223.820287 189.779265 
L 224.146274 168.050902 
L 224.472261 130.50429 
L 224.798249 65.623745 
L 224.906911 204.225701 
L 225.015574 201.145657 
L 225.341561 187.692028 
L 225.667549 164.444155 
L 225.993536 124.271832 
L 226.319524 54.854057 
L 226.428186 203.148732 
L 226.536849 199.853295 
L 226.862836 185.458825 
L 227.188824 160.585181 
L 227.514811 117.603525 
L 227.732136 72.713672 
L 227.840799 204.934693 
L 227.949461 201.996448 
L 228.275449 189.162195 
L 228.601436 166.984604 
L 228.927424 128.661727 
L 229.253411 62.439797 
L 229.362074 203.907306 
L 229.470736 200.763583 
L 229.796724 187.031804 
L 230.122711 163.303289 
L 230.448698 122.300415 
L 230.883348 51.447448 
L 230.992011 202.808071 
L 231.100673 199.444502 
L 231.426661 184.752431 
L 231.752648 159.364532 
L 232.078636 115.494242 
L 232.295961 69.676305 
L 232.404623 204.630957 
L 232.513286 201.631964 
L 232.839273 188.532366 
L 233.165261 165.896261 
L 233.491248 126.78107 
L 233.817236 59.190021 
L 233.925898 203.582328 
L 234.034561 200.37361 
L 234.360548 186.35793 
L 234.686536 162.138835 
L 235.012523 120.288239 
L 235.338511 76.57966 
L 235.447173 76.57966 
L 235.555836 47.970409 
L 235.664498 202.460367 
L 235.77316 199.027257 
L 236.099148 184.031432 
L 236.425135 158.118646 
L 236.751123 113.341351 
L 236.968448 66.576142 
L 237.07711 204.32094 
L 237.185773 201.259945 
L 237.51176 187.889516 
L 237.837748 164.785416 
L 238.163735 124.861531 
L 238.489723 55.873057 
L 238.598385 203.250632 
L 238.707048 199.975575 
L 239.033035 185.670125 
L 239.359023 160.950307 
L 239.68501 118.234462 
L 239.902335 73.622222 
L 240.010998 205.025548 
L 240.11966 202.105475 
L 240.445648 189.350592 
L 240.771635 167.310154 
L 241.097623 129.224278 
L 241.42361 63.411884 
L 241.532272 204.004515 
L 241.640935 200.880234 
L 241.966922 187.233376 
L 242.29291 163.651605 
L 242.618897 122.902305 
L 242.944885 52.487515 
L 243.053547 202.912078 
L 243.16221 199.56931 
L 243.488197 184.968099 
L 243.814185 159.737207 
L 244.140172 116.138225 
L 244.46616 70.603639 
L 244.574822 70.603639 
L 244.683485 40.799184 
L 244.792147 201.743245 
L 244.90081 198.16671 
L 245.226797 182.544406 
L 245.552785 155.549066 
L 245.878772 108.901118 
L 246.096097 60.182205 
L 246.20476 203.681547 
L 246.313422 200.492673 
L 246.63941 186.56367 
L 246.965397 162.494353 
L 247.291384 120.902574 
L 247.617372 49.031979 
L 247.726034 202.566524 
L 247.834697 199.154645 
L 248.160684 184.251559 
L 248.486672 158.499025 
L 248.812659 113.998648 
L 249.029984 67.522649 
L 249.138647 204.415591 
L 249.247309 201.373526 
L 249.573297 188.085784 
L 249.899284 165.124567 
L 250.225272 125.447583 
L 250.659922 56.885754 
L 250.768584 203.351902 
L 250.877247 200.097098 
L 251.203234 185.880118 
L 251.529222 161.313175 
L 251.855209 118.861498 
L 252.072534 74.525154 
L 252.181197 205.115842 
L 252.289859 202.213826 
L 252.615847 189.537824 
L 252.941834 167.633691 
L 253.267821 129.783349 
L 253.593809 64.377959 
L 253.702471 204.101122 
L 253.811134 200.996163 
L 254.137121 187.433701 
L 254.463109 163.997767 
L 254.789096 123.500474 
L 255.223746 53.52115 
L 255.332409 203.015441 
L 255.441071 199.693346 
L 255.767059 185.182433 
L 256.093046 160.107577 
L 256.419034 116.778224 
L 256.636359 71.525239 
L 256.745021 204.81585 
L 256.853684 201.853837 
L 257.179671 188.915761 
L 257.505659 166.558767 
L 257.831646 127.925881 
L 258.157634 61.168254 
L 258.266296 203.780152 
L 258.374959 200.610998 
L 258.700946 186.768137 
L 259.026933 162.847672 
L 259.352921 121.513109 
L 259.787571 50.086984 
L 259.896233 202.672025 
L 260.004896 199.281246 
L 260.330883 184.470325 
L 260.656871 158.877053 
L 260.982858 114.651879 
L 261.200183 68.463302 
L 261.308846 204.509656 
L 261.417508 201.486404 
L 261.743496 188.280838 
L 262.069483 165.46162 
L 262.395471 126.03001 
L 262.721458 57.892189 
L 262.830121 203.452545 
L 262.938783 200.217871 
L 263.264771 186.088812 
L 263.590758 161.673799 
L 263.916746 119.484656 
L 264.134071 75.422501 
L 264.242733 205.205576 
L 264.351396 202.321508 
L 264.677383 189.723897 
L 265.00337 167.955227 
L 265.329358 130.338963 
L 265.655345 65.33806 
L 265.764008 204.197132 
L 265.87267 201.111375 
L 266.198658 187.632788 
L 266.524645 164.341789 
L 266.850633 124.094943 
L 267.17662 54.548393 
L 267.285283 203.118166 
L 267.393945 199.816615 
L 267.719933 185.395442 
L 268.04592 160.475656 
L 268.371908 117.414266 
L 268.589233 72.441139 
L 268.697895 204.90744 
L 268.806558 201.963745 
L 269.132545 189.105682 
L 269.458533 166.88695 
L 269.78452 128.492982 
L 270.110508 62.148205 
L 270.21917 203.878147 
L 270.327833 200.728592 
L 270.65382 186.971339 
L 270.979807 163.198806 
L 271.305795 122.119869 
L 271.52312 79.217207 
L 271.631782 205.585047 
L 271.740445 202.776873 
L 272.066432 190.510768 
L 272.39242 169.314938 
L 272.718407 132.688545 
L 273.044395 69.398137 
L 273.153057 204.60314 
L 273.26172 201.598584 
L 273.587707 188.474685 
L 273.913695 165.796588 
L 274.239682 126.608836 
L 274.56567 58.8924 
L 274.674332 203.552566 
L 274.782995 200.337896 
L 275.108982 186.296216 
L 275.43497 162.032193 
L 275.760957 120.10396 
L 276.086945 76.314299 
L 276.195607 76.314299 
L 276.30427 47.651975 
L 276.412932 202.428524 
L 276.521594 198.989045 
L 276.847582 183.965401 
L 277.173569 158.004545 
L 277.499557 113.144185 
L 277.716882 66.292223 
L 277.825544 204.292549 
L 277.934207 201.225875 
L 278.260194 187.830643 
L 278.586182 164.683683 
L 278.912169 124.685736 
L 279.238157 55.569283 
L 279.346819 203.220255 
L 279.455482 199.939122 
L 279.781469 185.607134 
L 280.107457 160.84146 
L 280.433444 118.046374 
L 280.650769 73.351374 
L 280.759432 204.998464 
L 280.868094 202.072973 
L 281.194082 189.294429 
L 281.520069 167.213104 
L 281.846057 129.056576 
L 282.172044 63.122095 
L 282.280706 203.975536 
L 282.389369 200.845459 
L 282.715356 187.173285 
L 283.041344 163.547769 
L 283.367331 122.722876 
L 283.693319 80.085537 
L 283.910644 80.085537 
L 284.019306 52.177461 
L 284.127969 202.881072 
L 284.236631 199.532103 
L 284.562619 184.903806 
L 284.888606 159.626108 
L 285.214594 115.946247 
L 285.431919 70.327192 
L 285.540581 204.696045 
L 285.649244 201.710071 
L 285.975231 188.667334 
L 286.301219 166.129485 
L 286.627206 127.184082 
L 286.953194 59.886425 
L 287.061856 203.651969 
L 287.170519 200.457179 
L 287.496506 186.502337 
L 287.822494 162.38837 
L 288.148481 120.719435 
L 288.365806 77.200582 
L 288.474468 205.383384 
L 288.583131 202.534878 
L 288.909118 190.0926 
L 289.235106 168.592345 
L 289.561093 131.439904 
L 289.887081 67.240486 
L 289.995743 204.387375 
L 290.104406 201.339666 
L 290.430393 188.027275 
L 290.756381 165.023462 
L 291.082368 125.272875 
L 291.517018 56.583859 
L 291.625681 203.321712 
L 291.734343 200.060871 
L 292.060331 185.817517 
L 292.386318 161.205001 
L 292.712306 118.674573 
L 292.929631 74.255981 
L 293.038293 205.088924 
L 293.146956 202.181526 
L 293.472943 189.482008 
L 293.798931 167.537241 
L 294.124918 129.616685 
L 294.450905 64.089962 
L 294.559568 204.072322 
L 294.66823 200.961603 
L 294.994218 187.373982 
L 295.320205 163.894573 
L 295.646193 123.322154 
L 296.080843 53.213014 
L 296.189505 202.984628 
L 296.298168 199.65637 
L 296.624155 185.118538 
L 296.950143 159.997166 
L 297.27613 116.587434 
L 297.493455 71.250501 
L 297.602118 204.788376 
L 297.71078 201.820868 
L 298.036768 188.858792 
L 298.362755 166.460323 
L 298.688743 127.755771 
L 299.01473 60.874303 
L 299.123393 203.750757 
L 299.232055 200.575724 
L 299.558043 186.707183 
L 299.88403 162.742344 
L 300.210017 121.331103 
L 300.427342 78.081384 
L 300.536005 205.471465 
L 300.644667 202.640574 
L 300.970655 190.275243 
L 301.296642 168.907952 
L 301.62263 131.985273 
L 301.948617 68.182884 
L 302.05728 204.481615 
L 302.165942 201.452754 
L 302.49193 188.22269 
L 302.817917 165.361141 
L 303.143905 125.856383 
L 303.578555 57.592161 
L 303.687217 203.422542 
L 303.79588 200.181867 
L 304.121867 186.026598 
L 304.447855 161.566293 
L 304.773842 119.298887 
L 304.991167 75.154993 
L 305.09983 205.178826 
L 305.208492 202.289407 
L 305.534479 189.668427 
L 305.860467 167.859374 
L 306.186454 130.173329 
L 306.512442 65.051844 
L 306.621104 204.168511 
L 306.729767 201.077029 
L 307.055754 187.573438 
L 307.381742 164.239233 
L 307.707729 123.917726 
L 308.033717 54.242162 
L 308.142379 203.087542 
L 308.251042 199.779867 
L 308.577029 185.331942 
L 308.903017 160.365928 
L 309.229004 117.224655 
L 309.446329 72.1681 
L 309.554992 204.880136 
L 309.663654 201.93098 
L 309.989642 189.049065 
L 310.315629 166.789116 
L 310.641617 128.323924 
L 310.967604 61.856072 
L 311.076267 203.848933 
L 311.184929 200.693536 
L 311.510916 186.910763 
L 311.836904 163.09413 
L 312.162891 121.938988 
L 312.597541 50.822902 
L 312.706204 202.745616 
L 312.814866 199.369556 
L 313.140854 184.622925 
L 313.466841 159.140746 
L 313.792829 115.10754 
L 314.010154 69.119454 
L 314.118816 204.575272 
L 314.227479 201.565142 
L 314.553466 188.416898 
L 314.879454 165.696731 
L 315.205441 126.436282 
L 315.640091 58.594228 
L 315.748754 203.522749 
L 315.857416 200.302115 
L 316.183404 186.234387 
L 316.509391 161.925352 
L 316.835379 119.91934 
L 317.052704 76.048445 
L 317.161366 205.268171 
L 317.270028 202.396621 
L 317.596016 189.853693 
L 317.922003 168.179514 
L 318.247991 130.726531 
L 318.573978 66.007778 
L 318.682641 204.264104 
L 318.791303 201.191741 
L 319.117291 187.77166 
L 319.443278 164.581761 
L 319.769266 124.509615 
L 319.986591 82.658441 
L 320.095253 205.92917 
L 320.203916 203.189821 
L 320.529903 191.224342 
L 320.855891 170.547995 
L 321.181878 134.819266 
L 321.507866 73.080024 
L 321.616528 204.971329 
L 321.725191 202.040411 
L 322.051178 189.238161 
L 322.377166 167.115875 
L 322.703153 128.888563 
L 323.02914 88.964127 
L 323.137803 88.964127 
L 323.246465 62.831769 
L 323.355128 203.946503 
L 323.46379 200.81062 
L 323.789778 187.113083 
L 324.115765 163.44374 
L 324.441753 122.543114 
L 324.659078 79.82668 
L 324.76774 205.645994 
L 324.876403 202.850009 
L 325.20239 190.637148 
L 325.528378 169.533323 
L 325.854365 133.065914 
L 326.180353 70.050232 
L 326.289015 204.668349 
L 326.397678 201.676836 
L 326.723665 188.609904 
L 327.049653 166.030245 
L 327.37564 127.012596 
L 327.81029 59.590097 
L 327.918953 203.622336 
L 328.027615 200.421619 
L 328.353603 186.44089 
L 328.67959 162.28219 
L 329.005577 120.535956 
L 329.331565 76.936372 
L 329.440227 76.936372 
L 329.54889 48.398463 
L 329.657552 202.503173 
L 329.766215 199.078623 
L 330.092202 184.120193 
L 330.41819 158.272025 
L 330.744177 113.606391 
L 330.961502 66.957799 
L 331.070165 204.359106 
L 331.178827 201.305744 
L 331.504815 187.968657 
L 331.830802 164.922171 
L 332.15679 125.097843 
L 332.482777 56.281404 
L 332.59144 203.291467 
L 332.700102 200.024576 
L 333.02609 185.7548 
L 333.352077 161.096625 
L 333.678065 118.4873 
L 333.89539 73.986309 
L 334.004052 205.061957 
L 334.112715 202.149165 
L 334.438702 189.426089 
L 334.764689 167.440613 
L 335.090677 129.449711 
L 335.416664 63.801432 
L 335.525327 204.043469 
L 335.633989 200.92698 
L 335.959977 187.314153 
L 336.285964 163.791187 
L 336.611952 123.143503 
L 336.937939 80.691241 
L 337.046602 80.691241 
L 337.155264 52.904305 
L 337.263927 202.953757 
L 337.372589 199.619325 
L 337.698577 185.054524 
L 338.024564 159.88655 
L 338.350552 116.39629 
L 338.567877 70.975253 
L 338.676539 204.760852 
L 338.785202 201.787838 
L 339.111189 188.801716 
L 339.437177 166.361697 
L 339.763164 127.585345 
L 340.089152 60.579807 
L 340.197814 203.721307 
L 340.306477 200.540385 
L 340.632464 186.646117 
L 340.958451 162.636821 
L 341.284439 121.148758 
L 341.501764 77.818808 
L 341.610426 205.445207 
L 341.719089 202.609065 
L 342.045076 190.220796 
L 342.371064 168.813867 
L 342.697051 131.822693 
L 343.023039 67.901946 
L 343.131701 204.453521 
L 343.240364 201.419041 
L 343.566351 188.164435 
L 343.892339 165.260476 
L 344.218326 125.682433 
L 344.544314 57.291577 
L 344.652976 203.392484 
L 344.761639 200.145797 
L 345.087626 185.964269 
L 345.413614 161.458588 
L 345.739601 119.112773 
L 346.065589 74.886989 
L 346.174251 74.886989 
L 346.282913 45.939203 
L 346.391576 202.257247 
L 346.500238 198.783512 
L 346.826226 183.610241 
L 347.152213 157.390828 
L 347.478201 112.083682 
L 347.695526 64.765098 
L 347.804188 204.139836 
L 347.912851 201.04262 
L 348.238838 187.513978 
L 348.564826 164.136486 
L 348.890813 123.74018 
L 349.216801 53.935363 
L 349.325463 203.056863 
L 349.434126 199.743051 
L 349.760113 185.268325 
L 350.086101 160.255996 
L 350.412088 117.034693 
L 350.846738 42.348282 
L 350.955401 201.898154 
L 351.064063 198.352602 
L 351.390051 182.865627 
L 351.716038 156.104136 
L 352.042026 109.860278 
L 352.368013 61.563397 
L 352.476675 61.563397 
L 352.585338 29.950893 
L 352.694 200.658416 
L 352.802663 196.864915 
L 353.12865 180.294905 
L 353.454638 151.661927 
L 353.780625 102.184142 
L 353.99795 50.50976 
L 354.106613 202.714302 
L 354.215275 199.331979 
L 354.541263 184.557992 
L 354.86725 159.028541 
L 355.193238 114.913651 
L 355.519225 68.840253 
L 356.1712 68.840253 
L 356.279863 204.547352 
L 356.388525 201.531638 
L 356.714513 188.359003 
L 357.0405 165.596688 
L 357.149163 154.790842 
L 357.149163 154.790842 
" clip-path="url(#p4a94751595)" style="fill: none; stroke: #1f77b4; stroke-width: 1.5; stroke-linecap: square"/>
   </g>
   <g id="patch_3">
    <path d="M 37.567344 228.96 
L 37.567344 7.2 
" style="fill: none; stroke: #000000; stroke-width: 0.8; stroke-linejoin: miter; stroke-linecap: square"/>
   </g>
   <g id="patch_4">
    <path d="M 372.367344 228.96 
L 372.367344 7.2 
" style="fill: none; stroke: #000000; stroke-width: 0.8; stroke-linejoin: miter; stroke-linecap: square"/>
   </g>
   <g id="patch_5">
    <path d="M 37.567344 228.96 
L 372.367344 228.96 
" style="fill: none; stroke: #000000; stroke-width: 0.8; stroke-linejoin: miter; stroke-linecap: square"/>
   </g>
   <g id="patch_6">
    <path d="M 37.567344 7.2 
L 372.367344 7.2 
" style="fill: none; stroke: #000000; stroke-width: 0.8; stroke-linejoin: miter; stroke-linecap: square"/>
   </g>
   <g id="legend_1">
    <g id="patch_7">
     <path d="M 314.548024 29.420307 
L 365.367344 29.420307 
Q 367.367344 29.420307 367.367344 27.420307 
L 367.367344 14.2 
Q 367.367344 12.2 365.367344 12.2 
L 314.548024 12.2 
Q 312.548024 12.2 312.548024 14.2 
L 312.548024 27.420307 
Q 312.548024 29.420307 314.548024 29.420307 
z
" style="fill: #ffffff; opacity: 0.8; stroke: #cccccc; stroke-linejoin: miter"/>
    </g>
    <g id="line2d_14">
     <path d="M 316.548024 19.79832 
L 326.548024 19.79832 
L 336.548024 19.79832 
" style="fill: none; stroke: #1f77b4; stroke-width: 1.5; stroke-linecap: square"/>
    </g>
    <g id="text_15">
     <!-- CFL -->
     <g transform="translate(344.548024 23.29832) scale(0.1 -0.1)">
      <use xlink:href="#NimbusSanL-Regu-43" transform="scale(0.996264)"/>
      <use xlink:href="#NimbusSanL-Regu-46" transform="translate(71.929985 0) scale(0.996264)"/>
      <use xlink:href="#NimbusSanL-Regu-4c" transform="translate(132.801616 0) scale(0.996264)"/>
     </g>
    </g>
   </g>
  </g>
 </g>
 <defs>
  <clipPath id="p4a94751595">
   <rect x="37.567344" y="7.2" width="334.8" height="221.76"/>
  </clipPath>
 </defs>
</svg>
